
<svg xmlns="http://www.w3.org/2000/svg" version="1.1" xmlns:xlink="http://www.w3.org/1999/xlink" preserveAspectRatio="none" x="0px" y="0px" width="1920px" height="1080px" viewBox="0 0 1920 1080">
<defs>
<g id="Layer0_0_FILL">
<path fill="#000000" stroke="none" d="
M 1055.65 477.4
Q 1058.551171875 477.2 1060.9 477.1 1062.7 477.05 1066.25 476.9 1069.3 476.75 1071.55 476.35 1073 476.1 1076.4 475.2 1077.1017578125 475.016015625 1077.7 474.85 1093.4818359375 473.896875 1109.35 475.35 1112.95 475.65 1113.95 475.7 1116.55 475.8 1118.55 475.45 1119.95 475.2 1122.65 474.5 1125 473.95 1126.7 474.2 1127.4 472.8 1125.55 471.15 1124.170703125 469.9521484375 1122.2 469.15 1123.8484375 467.8451171875 1125.3 465.9 1126.95 463.7 1129.2 459.35 1130.8 456.35 1130.85 454.65 1130.95 453.35 1130.35 452.2 1129.7 451 1128.6 450.6 1125.75 450.45 1122.1 453.2 1117.1 456.85 1115.85 457.4 1114.05 458.15 1110.65 458.65
L 1082.05 463.05
Q 1069.5 465 1062.5 465.95
L 1039.1 469.2
Q 1023.9 471.35 1015.8 474.25 1005.66484375 477.9318359375 999.35 484.05 993.1115234375 487.3759765625 988.1 491.4 985.95 493.15 985.25 494.55 984.75 495.55 984.8 496.65 984.85 497.8 985.55 498.55 986.25 499.35 987.45 499.55 988.55 499.7 989.65 499.3 990.55 499 991.6 498.25
L 993.4 496.9
Q 998.65 492.85 1006.4 489.95 1011.1 488.2 1020.75 485.65
L 1032.1 482.7
Q 1037.3 481.3 1042.2 480.15 1048.910546875 478.5580078125 1055.65 477.4
M 1014.55 498.6
Q 1014.6 497.8 1014.1 497.25 1011.25 498.5 1005.75 497.8 999.5 497 997.1 497.5 995.8 497.75 994.8 498.45 993.65 499.8 992.9 500.25 991.95 500.65 991.55 500.95 991.25 501.2 991.1 501.6 990.95 502 991.15 502.3 991.75 502.45 992.75 502.9 993.85 503.4 994.35 503.55 995.3 503.8 996.15 503.45 997.05 503.1 997.15 502.3 1000.55 502.55 1004.8 501.95 1007.25 501.6 1012.35 500.45 1013.45 500.25 1013.9 499.85 1014.45 499.4 1014.55 498.6 Z"/>
</g>
</defs>

<g transform="matrix( 1, 0, 0, 1, 0,0) ">
<use xlink:href="#Layer0_0_FILL"/>
</g>
</svg>
