
<svg xmlns="http://www.w3.org/2000/svg" version="1.1" xmlns:xlink="http://www.w3.org/1999/xlink" preserveAspectRatio="none" x="0px" y="0px" width="1920px" height="1080px" viewBox="0 0 1920 1080">
<defs>
<g id="Layer3_0_FILL">
<path fill="#5B5D5E" stroke="none" d="
M 1321.2 506.5
Q 1320.9353515625 506.6525390625 1320.65 506.8 1320.601171875 506.898828125 1320.5 507 1315.65 511.4 1312.15 513.4 1307.4484375 516.160546875 1302.3 517
L 1302.3 517.05 1300.8 517.25 1300.75 517.15 1299.25 517.2
Q 1299.1 517.3 1299.1 517.45 1299.133984375 517.501171875 1299.15 517.5 1299.251171875 517.6 1299.35 517.6 1299.4525390625 517.629296875 1299.6 517.65 1302.95 518.501953125 1306.35 519.2
L 1310.6 520 1313.85 519.45
Q 1314.55 519.15 1315.2 518.9 1324.8 515.45 1327.55 506.45
L 1321.85 505.8
Q 1321.6 506.25 1321.2 506.5
M 1355.5 519.5
Q 1353.15 515.15 1348.85 512.35 1342.5 508.3 1334.95 507.3 1333.3 520.5 1318.7 520.35 1316.5 520.3 1314.25 520.6 1328.8 524.4 1343.5 522.4 1349.6 521.45 1355.5 519.5
M 1298.9 512.95
Q 1298.240625 513.02421875 1297.55 513.05 1297.2462890625 513.0845703125 1296.95 513.1
L 1296.9 513.1
Q 1295.9158203125 513.2259765625 1294.8 513.35
L 1291.75 513.7
Q 1290.9 513.8 1290.8 514.2 1290.6 514.85 1291.7 515.2 1292.95 515.5 1294.8 515.2 1295.85 515.05 1297.95 514.7 1298.1333984375 514.681640625 1298.35 514.65 1310.0638671875 515.1017578125 1316.6 505.2
L 1313.75 504.9
Q 1308.047265625 511.8271484375 1298.9 512.95
M 1382.6 491.25
Q 1395.8 486.95 1408.05 480.25 1418.25 474.6 1427.5 467.75 1415.7 469.5 1403.9 470.55 1392 471.45 1380.15 472.05 1369.75 472.3 1359.45 472.3 1362.9 484.5 1353.55 492.3 1353.2498046875 492.5521484375 1352.95 492.8 1351.88515625 493.5041015625 1350.45 494.7 1348.2 496.65 1347.1 497.3 1346.3 497.8 1346.25 498.2 1346.2 498.6 1346.55 498.9 1346.61640625 498.9568359375 1346.65 499 1346.9853515625 499.1904296875 1347.35 499.15 1347.644921875 499.1171875 1348.15 498.8
L 1353.6 498.2
Q 1368.5 495.95 1382.6 491.25
M 1337.6 472.6
Q 1337.8 476.5 1336.6 480.2 1331.85 494.75 1316.4 499.2
L 1322 499.6 1325.85 497.95
Q 1327 497.4 1328.05 496.7 1340.95 487.95 1340 472.55
L 1337.6 472.6
M 1344.8 472.5
Q 1347.09609375 477.5955078125 1345.95 482.6 1345.9359375 482.7669921875 1345.9 482.9 1345.5455078125 484.2919921875 1344.95 485.65 1344.6060546875 486.423828125 1344.15 487.1 1343.2798828125 488.78203125 1341.75 490.85 1340.25 492.9 1339.1 494 1338.4 494.65 1336.8 495.85 1336.29921875 496.2216796875 1335.85 496.55 1335.4400390625 498.0814453125 1335.45 499.8
L 1340.85 499.55 1344.25 498.25
Q 1344.9 497.9 1345.45 497.5 1358.3 487.4 1353.5 472.4
L 1344.8 472.5
M 1514.3 362.7
L 1505.1 365.75 1508.05 371.7
Q 1506 377.9 1505.6 384.25 1504.7 399.45 1495.15 410.9 1488 419.4 1480.15 426.9
L 1496.05 419.2 1497.8 417.4
Q 1505.95 409.05 1510.1 398.25 1512.15 392.95 1514.35 387.65 1519.7 374.65 1514.3 362.7
M 1497.85 367.65
Q 1498.35 376.25 1495.55 384.3 1490.6 398.5 1482.8 411.3 1475.15 423.95 1463.8 432.95
L 1464.65 432.6 1465.55 433.1 1472.25 430.35
Q 1477.75 425.4 1481.95 419 1490.05 406.55 1496.55 393.45 1502.85 380.8 1501.1 366.85
L 1497.85 367.65
M 1506.85 334.9
L 1502.6 337.25
Q 1503.65 337.95 1504.7 338.6 1505.75 339.3 1505.7 340.45 1505 351.95 1498.65 362.4 1506.8 359.25 1514.15 354.95 1516.8 353.5 1519.5 352.05 1520.05 351.1 1520.6 350.2 1527.9 338.1 1520 327.5
L 1511.7 332.2
Q 1513.15 333.35 1513.7 335 1517.75 347.15 1508.1 357.7
L 1505.55 358.05
Q 1506.3 356.5 1507.2 355.1 1514.15 344.05 1506.85 334.9
M 1516.7 325
L 1514.85 324.2 1507.9 329.65 1508.3 329.9 1516.7 325
M 1505.4 266.9
Q 1512.95 276.9 1511.55 288.95 1509.85 303.3 1503.6 316.2 1502.65 318.1 1501.1 319.45 1491.9 327.15 1488.15 337.65
L 1491 337.2 1503.85 327.35
Q 1508.3 322.45 1511.75 316.65 1518.85 304.65 1521.25 290.65 1523.7 276.35 1516.2 263.5 1508.55 250.5 1494 245.55
L 1482.2 251.9
Q 1496.65 255.4 1505.4 266.9
M 1482.35 260.1
Q 1489.05 262.45 1493.15 267.85 1502.6 280.15 1499.2 295.75 1496.25 309.3 1489.05 321.35 1485.15 327.95 1479.95 333.45 1469.65 344.2 1462 356.2
L 1473.25 349.35 1474.15 348.35
Q 1475.85 346.3 1477.5 344.2 1486.25 332.85 1493.25 320.55 1499.7 309.25 1502.45 296.7 1505.55 282.55 1499.05 269.85 1492.55 257.2 1478.1 254.1
L 1475.35 255.55
Q 1478.25 258.7 1482.35 260.1
M 1486.25 246.05
Q 1486.1 246.1 1485.95 246.15 1483.25 246.75 1481.5 248.7
L 1486.25 246.05
M 1445.15 186.2
L 1440.55 188.95
Q 1450.85 190.2 1459.6 195.95 1466.95 200.7 1466.15 209.4 1465.05 221.6 1459.95 232.65 1452.7 248.45 1440.55 260.55
L 1441.15 261.9 1437.75 266.95 1446.05 260.35
Q 1452.3 250.8 1458.55 241.25 1466.75 228.65 1470.4 214.15 1472.2 206.9 1468.65 200.45 1460.95 186.4 1445.15 186.2
M 1463.7 176.85
L 1461.75 176.4 1449.95 183.4
Q 1452.65 185.65 1456.3 186.45 1472.7 189.5 1474.7 205.85 1476.55 220.65 1468.25 232.85 1461.2 243.15 1454.6 253.45
L 1473.6 237.85 1474.3 236.85
Q 1479.35 230.8 1482.4 223.65 1488.4 209.5 1482.95 195.45 1477.55 181.65 1463.7 176.85
M 1639.45 278.25
Q 1640.15 276.85 1640.85 275.45 1630.25 285.15 1619.6 294.55 1608.85 304.1 1597.65 313.05 1586.15 322.3 1573.85 330.8 1560.9 339.8 1546.95 347.55 1534.05 354.55 1520.6 360.2 1527.75 373.85 1522.6 388.2 1518.3 400.2 1510.1 409.75 1508.5 411.6 1506.95 413.5 1519.45 406.75 1531.2 398.85 1542.4 391.2 1552.8 382.7 1563.15 374.2 1572.7 364.75 1582.45 355.1 1591.7 345 1600.75 335.05 1609.3 324.65 1618 314.05 1625.6 302.6 1633.35 290.9 1639.45 278.25
M 1625.4 258.1
Q 1626.7 256.5 1628 254.9 1613.9 265.55 1599.55 275.8 1588.45 283.8 1577.05 291.55 1567.3 298.3 1557.35 304.85 1547.05 311.6 1536.55 317.8 1531.25 320.95 1525.9 324.1 1533.85 335.8 1525.15 347.2 1524.15 348.55 1523.1 349.9 1535.2 342.35 1546.55 333.75 1557.5 325.45 1567.95 316.35 1578.05 307.55 1587.75 298.35 1597.45 289.25 1606.6 279.65 1616.5 269.2 1625.4 258.1
M 1624.25 187.05
Q 1630.9 175.2 1637.05 162.8 1639.9 157.1 1642.55 151.1 1628.05 162.5 1612.9 173.35 1602.3 180.9 1591.3 188.2 1579.75 195.9 1567.9 203.25 1553.15 212.35 1538.35 221.05 1527 227.7 1515.4 234.2 1507.85 238.3 1500.25 242.2
L 1501.75 245
Q 1503.1 245.35 1504.45 245.7 1517.8 249.7 1527.6 259.7 1538.15 270.5 1534.7 285.7 1531.4 300.2 1522.15 311.7 1533.35 301.85 1543.8 291.5 1553.15 282.3 1562.1 272.6 1571.05 262.8 1579.45 252.45 1587.9 241.95 1595.85 231.2 1603.75 220.5 1610.9 209.35 1617.9 198.35 1624.25 187.05
M 1638.35 77.55
Q 1644.15 70.15 1649.9 62.75 1630.9 75.05 1611.5 86.8 1593.2 98.05 1574.85 109.2 1561.95 117 1548.85 124.75 1540.3 129.9 1531.7 135.05 1524.85 139.1 1518 143.25 1509.25 148.45 1500.5 153.75 1488.9 160.65 1477.15 167.45 1474.4 169 1471.65 170.6
L 1472.75 172.5
Q 1480.3 172.7 1486.3 176.9 1498.6 185.75 1494.5 200.6 1490.4 215.45 1481.45 227.65
L 1483.25 229.85
Q 1494.55 220.5 1505.75 210.95 1516.65 201.6 1527.6 191.95 1538.6 182.2 1549.2 172.35 1558.1 164.15 1566.65 155.95 1576.2 146.9 1585.4 137.45 1594.65 127.9 1603.75 117.95 1612.25 108.75 1620.4 99.3 1629.6 88.65 1638.35 77.55 Z"/>

<path fill="#000000" stroke="none" d="
M 1651.2 141.55
Q 1648.7 142.55 1646.45 143.9 1633.65 151.3 1622.5 160.65 1612.25 169.25 1601.3 176.9 1589.8 185.05 1577.9 192.9 1566.6 200.3 1555.15 207.2 1543.95 214 1532.6 220.4 1520.7 227.05 1508.85 233.7 1497.55 239.9 1486.25 246.05
L 1481.5 248.7
Q 1475.7 252.15 1469.85 255.7 1457.65 263 1445.95 271.4
L 1475.35 255.55 1478.1 254.1 1482.2 251.9 1494 245.55 1500.25 242.2
Q 1507.85 238.3 1515.4 234.2 1527 227.7 1538.35 221.05 1553.15 212.35 1567.9 203.25 1579.75 195.9 1591.3 188.2 1602.3 180.9 1612.9 173.35 1628.05 162.5 1642.55 151.1 1639.9 157.1 1637.05 162.8 1630.9 175.2 1624.25 187.05 1617.9 198.35 1610.9 209.35 1603.75 220.5 1595.85 231.2 1587.9 241.95 1579.45 252.45 1571.05 262.8 1562.1 272.6 1553.15 282.3 1543.8 291.5 1533.35 301.85 1522.15 311.7
L 1503.85 327.35 1491 337.2 1488.9 338.7 1474.35 348.65 1473.25 349.35 1462 356.2
Q 1450.8 362.65 1439.05 368.25 1427.8 373.65 1416.3 378.25 1403.3 383.55 1389.95 387.95 1376.6 392.5 1362.9 396.05 1348.4 399.6 1333.75 402.4 1318 405.2 1302.05 406.65 1284.55 408.2 1267 408.25 1268.95 409.2 1271 409.85 1279.15 412.2 1287.6 411.6 1302.25 410.45 1316.6 408.75 1330.55 407.05 1344.3 404.3 1358.2 401.4 1371.95 397.75 1385.8 393.85 1399.4 388.85 1413.25 383.9 1426.65 378.05 1439.55 372.3 1451.95 365.5 1464.25 358.7 1476.45 351.85 1489.6 344.45 1502.6 337.25
L 1506.85 334.9 1511.7 332.2 1520 327.5 1525.9 324.1
Q 1531.25 320.95 1536.55 317.8 1547.05 311.6 1557.35 304.85 1567.3 298.3 1577.05 291.55 1588.45 283.8 1599.55 275.8 1613.9 265.55 1628 254.9 1626.7 256.5 1625.4 258.1 1616.5 269.2 1606.6 279.65 1597.45 289.25 1587.75 298.35 1578.05 307.55 1567.95 316.35 1557.5 325.45 1546.55 333.75 1535.2 342.35 1523.1 349.9
L 1519.5 352.05
Q 1516.8 353.5 1514.15 354.95 1506.8 359.25 1498.65 362.4 1497.75 362.85 1496.75 363.2 1491.9 364.9 1494.15 368.45
L 1497.85 367.65 1501.1 366.85 1505.1 365.75 1514.3 362.7 1520.6 360.2
Q 1534.05 354.55 1546.95 347.55 1560.9 339.8 1573.85 330.8 1586.15 322.3 1597.65 313.05 1608.85 304.1 1619.6 294.55 1630.25 285.15 1640.85 275.45 1640.15 276.85 1639.45 278.25 1633.35 290.9 1625.6 302.6 1618 314.05 1609.3 324.65 1600.75 335.05 1591.7 345 1582.45 355.1 1572.7 364.75 1563.15 374.2 1552.8 382.7 1542.4 391.2 1531.2 398.85 1519.45 406.75 1506.95 413.5
L 1498.15 418.15 1496.05 419.2 1480.15 426.9 1472.25 430.35 1465.55 433.1 1464.65 432.6 1463.8 432.95 1461.25 434.05 1461.5 434.7
Q 1458.6 435.8 1455.75 436.95 1438.4 443.4 1420.45 448.1 1366.55 462.2 1310.95 457.8 1294.2 456.9 1277.4 453.5 1272.15 452.4 1267 454.4 1271 462.05 1279.7 465.4 1293.25 470.55 1307.7 471.65 1322.7 473 1337.6 472.6
L 1340 472.55 1344.8 472.5 1353.5 472.4 1359.45 472.3
Q 1369.75 472.3 1380.15 472.05 1392 471.45 1403.9 470.55 1415.7 469.5 1427.5 467.75 1418.25 474.6 1408.05 480.25 1395.8 486.95 1382.6 491.25 1368.5 495.95 1353.6 498.2
L 1348.15 498.8
Q 1347.644921875 499.1171875 1347.35 499.15 1346.9853515625 499.1904296875 1346.65 499
L 1344.3 499.25 1340.85 499.55 1335.45 499.8 1322 499.6 1316.4 499.2
Q 1305.7 497.85 1295.3 495.25 1290 494.05 1285.15 491.8 1277.05 487.9 1269.35 490.05 1275.95 496.35 1285.2 499.55 1299 504.45 1313.75 504.9
L 1316.6 505.2 1321.85 505.8 1327.55 506.45 1334.95 507.3
Q 1342.5 508.3 1348.85 512.35 1353.15 515.15 1355.5 519.5 1349.6 521.45 1343.5 522.4 1328.8 524.4 1314.25 520.6
L 1310.6 520 1306.35 519.2
Q 1302.95 518.501953125 1299.6 517.65 1299.4525390625 517.629296875 1299.35 517.6 1299.251171875 517.6 1299.15 517.5 1298.4640625 517.3431640625 1297.75 517.15 1284.35 513.9 1271.15 509.9 1257.4 505.75 1245.9 497.3 1235.4 489.55 1225.5 481.1
L 1221.95 478.1
Q 1223.7 481.25 1225.5 484.35 1228.7 489.95 1233.45 494.3 1237.15 497.65 1241.25 500.35 1250.7 506.6 1261 511.4 1261.95 511.6 1262.8 512.05 1268.25 514.55 1274.1 516.3 1281.55 518.7 1289.1 520.8 1318.6 528.65 1348.8 525.55 1352.6 524.95 1355.9 523.25 1358.3 522.1 1359.3 519.7 1359.9 518.15 1359.1 516.9 1357.5 514.4 1355.2 512.35 1350.4 508.05 1344.8 505 1362.15 502.7 1378.85 497.2 1389.25 493.85 1398.8 488.7 1410.4 482.5 1421.2 474.7 1427.4 470.25 1434.45 466.8 1436.8 465.65 1438.75 463.75 1440.1 462.4 1439.9 460.4 1420.2 464 1400.25 466 1389 466.85 1377.65 467.3 1364.95 467.85 1352.35 467.95 1340.35 468.05 1328.25 467.8 1320.05 467.6 1312.25 466.35 1300.6181640625 464.560546875 1289.35 461.4 1287.3943359375 460.883984375 1285.45 460.3 1287.45 460.65 1289.45 461.05 1317.35 465.4 1345.55 464.3 1356.1 464.1 1366.75 463 1384.3 461.4 1401.65 458.1 1414.45 455.5 1427 451.85 1436.5 449.2 1445.85 446.1 1456.6 442.55 1467.15 438.3
L 1467.7 438.65 1472.05 436.75 1471.5 436.5 1489 429.05 1488.6 428.85
Q 1501.1 423.1 1513 416.3 1544.55 398.35 1570.5 373 1580.65 363.1 1590.15 352.7 1599.25 342.7 1607.7 332.4 1616.3 322 1624 310.95 1631.95 299.55 1638.8 287.45 1643.05 279.85 1645.65 271.55
L 1644.45 270.75
Q 1633.85 277.15 1624.55 285.55 1615.55 293.6 1606.25 301.25 1596.3 309.35 1586 316.95 1577.6 323.1 1568.85 328.7 1562.1 333 1555.05 337 1545.5 342.35 1535.45 346.95 1552.25 335.75 1567.65 322.6 1576.15 315.35 1584.25 307.8 1594.1 298.55 1603.55 288.9 1613.1 279.15 1622.35 269.1 1628.05 262.9 1633.25 255.95 1636.25 251.95 1637.35 247.05
L 1636.5 246.35
Q 1631.05 248.65 1625.85 252.05 1614.85 259.4 1604.35 267.35 1593.9 275.2 1583.2 282.6 1572.75 289.85 1562.05 296.95 1551.05 304.25 1539.9 311.1 1528.3 318.15 1516.7 325
L 1508.3 329.9 1505.1 331.8 1507.9 329.65 1514.85 324.2
Q 1517.05 322.4 1519.25 320.65 1535.15 307.65 1549.7 293.1 1560.2 282.5 1570.15 271.35 1576.1 264.6 1581.8 257.7 1591.25 246.4 1599.85 234.6 1608.9 222.25 1617 209.3 1624.65 197.1 1632.1 184.55 1639.4 172.15 1645.75 159.2 1649.85 150.8 1651.2 141.55
M 1281.6 459.65
L 1284 460 1284.8 460.65 1281.6 459.65
M 1664.75 48.05
L 1663.6 47.5
Q 1657.15 51.05 1651.25 54.65 1639.55 61.9 1628.2 69.55 1617.05 76.95 1605.4 83.9 1603.6 84.95 1601.85 86 1596.65 89.35 1591.15 92.4
L 1462.75 170
Q 1454.2 175.25 1445.7 180.4 1431.75 188.85 1417.7 197.2 1409.75 201.9 1401.95 206.55 1386.65 215.5 1370.9 223.65 1368.65 224.75 1366.4 225.9 1359.75 229.45 1353 233
L 1177.15 326.95 1175.85 328.35 1176.1 329.15 1180.6 328.15
Q 1190.95 325.6 1200.25 320.55 1212.45 313.85 1224.75 307.6 1237.4 301.2 1250.05 294.8 1262.75 288.4 1275.25 281.85 1287.75 275.3 1300.1 268.85 1312.75 262.1 1325.3 255.2 1337.9 248.35 1350.4 241.3 1362.85 234.3 1375.1 227.4 1386.65 220.9 1397.95 214.05 1399.6 213.05 1401.3 212.1
L 1440.55 188.95 1445.15 186.2 1449.95 183.4 1461.75 176.4 1463 175.7 1471.65 170.6
Q 1474.4 169 1477.15 167.45 1488.9 160.65 1500.5 153.75 1509.25 148.45 1518 143.25 1524.85 139.1 1531.7 135.05 1540.3 129.9 1548.85 124.75 1561.95 117 1574.85 109.2 1593.2 98.05 1611.5 86.8 1630.9 75.05 1649.9 62.75 1644.15 70.15 1638.35 77.55 1629.6 88.65 1620.4 99.3 1612.25 108.75 1603.75 117.95 1594.65 127.9 1585.4 137.45 1576.2 146.9 1566.65 155.95 1558.1 164.15 1549.2 172.35 1538.6 182.2 1527.6 191.95 1516.65 201.6 1505.75 210.95 1494.55 220.5 1483.25 229.85
L 1474.5 237.1 1473.6 237.85 1454.6 253.45 1446.05 260.35 1437.75 266.95
Q 1420.75 280.55 1403.1 293.25 1387.35 304.5 1371.15 315.2 1361 322.05 1350.4 328.55 1340.95 334.4 1331.2 339.85 1323.6 344.1 1315.8 348.1 1306.75 352.75 1297.65 356.95 1280.9 364.85 1263.7 371.4 1268.05 370.25 1272.35 368.9 1286.3 364.85 1299.6 358.85 1313 352.85 1325.9 345.95 1338.05 339.35 1349.7 332.4 1362.4 324.75 1374.8 316.65 1386.05 309.3 1397 301.6 1408.55 293.55 1420 285.25 1431.8 276.7 1443.3 268 1448.2 264.3 1453 260.6 1465.1 251.3 1477 241.85 1496 226.85 1514.35 211.25 1532.2 195.9 1549.3 179.9 1558.35 171.45 1567.2 163.05 1578.75 152.1 1589.7 140.75 1591.9 138.55 1594.05 136.3 1600.15 130.1 1605.85 123.75 1613.5 115.3 1620.8 106.75 1631.9 93.8 1642.4 80.35 1648.3 72.9 1654.2 65.7 1659.65 59 1664.1 51.65 1664.4 51.1 1664.65 50.5 1665.1 49.3 1664.75 48.05 Z"/>

<path fill="#FFFFFF" stroke="none" d="
M 1401.3 212.1
Q 1399.6 213.05 1397.95 214.05 1386.65 220.9 1375.1 227.4 1362.85 234.3 1350.4 241.3 1337.9 248.35 1325.3 255.2 1312.75 262.1 1300.1 268.85 1287.75 275.3 1275.25 281.85 1262.75 288.4 1250.05 294.8 1237.4 301.2 1224.75 307.6 1212.45 313.85 1200.25 320.55 1190.95 325.6 1180.6 328.15 1172.6 340.2 1171.5 354.9 1170.4 369.45 1172.55 383.8 1174.8 398.7 1180.25 412.6 1185.6 426.1 1192.95 438.45 1199.15 448.9 1206.65 458.55 1214.2451171875 468.3814453125 1222.45 477.65 1223.9625 479.3986328125 1225.5 481.1 1235.4 489.55 1245.9 497.3 1257.4 505.75 1271.15 509.9 1284.35 513.9 1297.75 517.15 1298.4640625 517.3431640625 1299.15 517.5 1299.133984375 517.501171875 1299.1 517.45 1299.1 517.3 1299.25 517.2
L 1300.75 517.15 1300.8 517.25 1302.3 517.05 1302.3 517
Q 1307.4484375 516.160546875 1312.15 513.4 1315.65 511.4 1320.5 507 1320.601171875 506.898828125 1320.65 506.8 1320.9353515625 506.6525390625 1321.2 506.5 1321.6 506.25 1321.85 505.8
L 1316.6 505.2
Q 1310.0638671875 515.1017578125 1298.35 514.65 1298.1333984375 514.681640625 1297.95 514.7 1295.85 515.05 1294.8 515.2 1292.95 515.5 1291.7 515.2 1290.6 514.85 1290.8 514.2 1290.9 513.8 1291.75 513.7
L 1294.8 513.35
Q 1295.9158203125 513.2259765625 1296.9 513.1
L 1296.95 513.1
Q 1297.2462890625 513.0845703125 1297.55 513.05 1298.240625 513.02421875 1298.9 512.95 1308.047265625 511.8271484375 1313.75 504.9 1299 504.45 1285.2 499.55 1275.95 496.35 1269.35 490.05 1277.05 487.9 1285.15 491.8 1290 494.05 1295.3 495.25 1305.7 497.85 1316.4 499.2 1331.85 494.75 1336.6 480.2 1337.8 476.5 1337.6 472.6 1322.7 473 1307.7 471.65 1293.25 470.55 1279.7 465.4 1271 462.05 1267 454.4 1272.15 452.4 1277.4 453.5 1294.2 456.9 1310.95 457.8 1366.55 462.2 1420.45 448.1 1438.4 443.4 1455.75 436.95 1458.6 435.8 1461.5 434.7
L 1461.25 434.05 1463.8 432.95
Q 1475.15 423.95 1482.8 411.3 1490.6 398.5 1495.55 384.3 1498.35 376.25 1497.85 367.65
L 1494.15 368.45
Q 1491.9 364.9 1496.75 363.2 1497.75 362.85 1498.65 362.4 1505 351.95 1505.7 340.45 1505.75 339.3 1504.7 338.6 1503.65 337.95 1502.6 337.25 1489.6 344.45 1476.45 351.85 1464.25 358.7 1451.95 365.5 1439.55 372.3 1426.65 378.05 1413.25 383.9 1399.4 388.85 1385.8 393.85 1371.95 397.75 1358.2 401.4 1344.3 404.3 1330.55 407.05 1316.6 408.75 1302.25 410.45 1287.6 411.6 1279.15 412.2 1271 409.85 1268.95 409.2 1267 408.25 1284.55 408.2 1302.05 406.65 1318 405.2 1333.75 402.4 1348.4 399.6 1362.9 396.05 1376.6 392.5 1389.95 387.95 1403.3 383.55 1416.3 378.25 1427.8 373.65 1439.05 368.25 1450.8 362.65 1462 356.2 1469.65 344.2 1479.95 333.45 1485.15 327.95 1489.05 321.35 1496.25 309.3 1499.2 295.75 1502.6 280.15 1493.15 267.85 1489.05 262.45 1482.35 260.1 1478.25 258.7 1475.35 255.55
L 1445.95 271.4 1443.3 268
Q 1431.8 276.7 1420 285.25 1408.55 293.55 1397 301.6 1386.05 309.3 1374.8 316.65 1362.4 324.75 1349.7 332.4 1338.05 339.35 1325.9 345.95 1313 352.85 1299.6 358.85 1286.3 364.85 1272.35 368.9 1268.05 370.25 1263.7 371.4 1280.9 364.85 1297.65 356.95 1306.75 352.75 1315.8 348.1 1323.6 344.1 1331.2 339.85 1340.95 334.4 1350.4 328.55 1361 322.05 1371.15 315.2 1387.35 304.5 1403.1 293.25 1420.75 280.55 1437.75 266.95
L 1441.15 261.9 1440.55 260.55
Q 1452.7 248.45 1459.95 232.65 1465.05 221.6 1466.15 209.4 1466.95 200.7 1459.6 195.95 1450.85 190.2 1440.55 188.95
L 1401.3 212.1
M 1334.95 507.3
L 1327.55 506.45
Q 1324.8 515.45 1315.2 518.9 1314.55 519.15 1313.85 519.45
L 1310.6 520 1314.25 520.6
Q 1316.5 520.3 1318.7 520.35 1333.3 520.5 1334.95 507.3
M 1352.95 492.8
Q 1353.2498046875 492.5521484375 1353.55 492.3 1362.9 484.5 1359.45 472.3
L 1353.5 472.4
Q 1358.3 487.4 1345.45 497.5 1344.9 497.9 1344.25 498.25
L 1344.3 499.25 1346.65 499
Q 1346.61640625 498.9568359375 1346.55 498.9 1346.2 498.6 1346.25 498.2 1346.3 497.8 1347.1 497.3 1348.2 496.65 1350.45 494.7 1351.88515625 493.5041015625 1352.95 492.8
M 1345.95 482.6
Q 1347.09609375 477.5955078125 1344.8 472.5
L 1340 472.55
Q 1340.95 487.95 1328.05 496.7 1327 497.4 1325.85 497.95
L 1322 499.6 1335.45 499.8
Q 1335.4400390625 498.0814453125 1335.85 496.55 1336.29921875 496.2216796875 1336.8 495.85 1338.4 494.65 1339.1 494 1340.25 492.9 1341.75 490.85 1343.2798828125 488.78203125 1344.15 487.1 1344.6060546875 486.423828125 1344.95 485.65 1345.5455078125 484.2919921875 1345.9 482.9 1345.9359375 482.7669921875 1345.95 482.6
M 1522.6 388.2
Q 1527.75 373.85 1520.6 360.2
L 1514.3 362.7
Q 1519.7 374.65 1514.35 387.65 1512.15 392.95 1510.1 398.25 1505.95 409.05 1497.8 417.4
L 1498.15 418.15 1506.95 413.5
Q 1508.5 411.6 1510.1 409.75 1518.3 400.2 1522.6 388.2
M 1505.1 365.75
L 1501.1 366.85
Q 1502.85 380.8 1496.55 393.45 1490.05 406.55 1481.95 419 1477.75 425.4 1472.25 430.35
L 1480.15 426.9
Q 1488 419.4 1495.15 410.9 1504.7 399.45 1505.6 384.25 1506 377.9 1508.05 371.7
L 1505.1 365.75
M 1525.9 324.1
L 1520 327.5
Q 1527.9 338.1 1520.6 350.2 1520.05 351.1 1519.5 352.05
L 1523.1 349.9
Q 1524.15 348.55 1525.15 347.2 1533.85 335.8 1525.9 324.1
M 1513.7 335
Q 1513.15 333.35 1511.7 332.2
L 1506.85 334.9
Q 1514.15 344.05 1507.2 355.1 1506.3 356.5 1505.55 358.05
L 1508.1 357.7
Q 1517.75 347.15 1513.7 335
M 1482.2 251.9
L 1478.1 254.1
Q 1492.55 257.2 1499.05 269.85 1505.55 282.55 1502.45 296.7 1499.7 309.25 1493.25 320.55 1486.25 332.85 1477.5 344.2 1475.85 346.3 1474.15 348.35
L 1474.35 348.65 1488.9 338.7 1488.15 337.65
Q 1491.9 327.15 1501.1 319.45 1502.65 318.1 1503.6 316.2 1509.85 303.3 1511.55 288.95 1512.95 276.9 1505.4 266.9 1496.65 255.4 1482.2 251.9
M 1504.45 245.7
Q 1503.1 245.35 1501.75 245
L 1500.25 242.2 1494 245.55
Q 1508.55 250.5 1516.2 263.5 1523.7 276.35 1521.25 290.65 1518.85 304.65 1511.75 316.65 1508.3 322.45 1503.85 327.35
L 1522.15 311.7
Q 1531.4 300.2 1534.7 285.7 1538.15 270.5 1527.6 259.7 1517.8 249.7 1504.45 245.7
M 1456.3 186.45
Q 1452.65 185.65 1449.95 183.4
L 1445.15 186.2
Q 1460.95 186.4 1468.65 200.45 1472.2 206.9 1470.4 214.15 1466.75 228.65 1458.55 241.25 1452.3 250.8 1446.05 260.35
L 1454.6 253.45
Q 1461.2 243.15 1468.25 232.85 1476.55 220.65 1474.7 205.85 1472.7 189.5 1456.3 186.45
M 1472.75 172.5
L 1471.65 170.6 1463 175.7 1463.7 176.85
Q 1477.55 181.65 1482.95 195.45 1488.4 209.5 1482.4 223.65 1479.35 230.8 1474.3 236.85
L 1474.5 237.1 1483.25 229.85 1481.45 227.65
Q 1490.4 215.45 1494.5 200.6 1498.6 185.75 1486.3 176.9 1480.3 172.7 1472.75 172.5 Z"/>
</g>
</defs>

<g transform="matrix( 1, 0, 0, 1, 0,0) ">
<use xlink:href="#Layer3_0_FILL"/>
</g>
</svg>
