
<svg xmlns="http://www.w3.org/2000/svg" version="1.1" xmlns:xlink="http://www.w3.org/1999/xlink" preserveAspectRatio="none" x="0px" y="0px" width="1920px" height="1080px" viewBox="0 0 1920 1080">
<defs>
<g id="Layer3_0_FILL">
<path fill="#FFFFFF" stroke="none" d="
M 1296.25 547.4
Q 1298.15 548.45 1299.85 549.85 1311.5 558.75 1320.65 549.15
L 1315.4 544.05
Q 1307.75 549.6 1298 546.55 1297.3 546.4 1296.65 546.3
L 1293.65 544.75 1296.25 547.4
M 1361.3 535.9
L 1356.55 532.5
Q 1351.35 547.3 1335 547.6 1334.3 547.6 1333.6 547.5
L 1333.05 548.4 1335.05 549.6
Q 1335 549.5 1335.05 549.4 1334.95 548.95 1335.25 548.65 1335.45 548.35 1336.4 548.45 1337.7 548.55 1340.6 548.4 1342.55 548.3 1343.8 548.4 1344.2 548.4 1344.6 548.35 1356.75 547.8 1361.3 535.9
M 1349.45 527.3
L 1345.6 524.5
Q 1337.15 537.3 1321.55 536.55 1320.3 536.5 1319.1 536.2
L 1314.95 535.25 1325.7 543.4
Q 1326.65 542.1 1327.95 541.2 1328.5 541.1 1329.15 541.1 1331.1 541.15 1332.05 541.05 1333.6 540.9 1336.05 540.1 1338.45 539.35 1340.2 538.6 1341 538.25 1341.7 537.9 1343 537.15 1344.05 536.25 1344.25 536.05 1344.35 536 1348.35 532.65 1349.45 527.3
M 1561.5 535.75
L 1565.65 536.1
Q 1567.35 535.75 1569 535.2 1582.7 531.35 1583.45 517.25
L 1576.65 516.4
Q 1576.65 529.65 1563.5 534.85 1562.5 535.3 1561.5 535.75
M 1567.15 518.6
Q 1567.7 516.95 1567.25 515.15
L 1561.7 514.45
Q 1562 526.15 1549.85 530.8 1548.3 531.35 1546.7 532.15
L 1548.95 533.45
Q 1563.1 530.75 1567.15 518.6
M 1526.35 567.05
Q 1516.5 573.2 1504.95 575
L 1504.85 575.85 1514.6 577.4
Q 1517 576.8 1519.4 576.2 1531.65 573.55 1542.3 566.6 1555.05 558.15 1557.45 542.95
L 1550.95 541.15
Q 1548.15 553.95 1536.05 561.15 1531.05 564.05 1526.35 567.05
M 1476.7 570
L 1485.15 572
Q 1495.95 570.7 1506.75 568.2 1521.3 564.75 1531.05 553.2 1535.25 548.3 1540.55 544.55
L 1541.75 538.05 1537.95 536.6
Q 1530.9 548.8 1518.3 555.1 1505.25 561.65 1491.3 566.75 1484.1 569.35 1476.7 570
M 1612 436.35
L 1605 435.3
Q 1613.7 447.9 1612.1 462.9 1610.25 477.7 1599.75 487.7 1589.45 497.35 1576.6 502.7 1570.3 505.35 1563.9 506.65
L 1587.85 505.1
Q 1602.15 501.4 1613.5 491.8 1625.35 481.75 1623.4 466.7 1621.55 452.8 1613.3 441.65 1612.4 440.55 1611.55 439.45
L 1612 436.35
M 1591.85 433.25
L 1587.2 432.55
Q 1596.9 443.7 1594.5 457.7 1592.1 471.75 1581.1 481.25 1571.4 489.65 1559.4 494.8 1546.45 500.45 1532.65 504.25 1530.05 505 1527.45 505.6
L 1527.4 506 1545.05 506.75 1545.05 505.35
Q 1554.4 499.3 1566.4 498.6 1568.4 498.5 1570.3 497.5 1583.05 490.95 1593 480.5 1601.35 471.65 1601.35 459.15 1601.25 444.7 1591.85 433.25
M 1601.55 358.55
Q 1614.1 368.1 1611.9 383.95 1610.8 391.25 1605 396 1593.4 405.35 1579.25 410.55 1568.5 414.4 1557.8 418.35
L 1568.7 418
Q 1580.2 413.65 1592.05 409.6 1606 404.85 1613.5 391.9 1621.6 377.65 1610.3 365.3 1607.95 362.55 1607.1 359.15
L 1601.55 358.55
M 1325.1 318.95
Q 1314.6 317.4 1304.8 313.35 1291.15 318.15 1281.45 329.25 1271.85 340.2 1264.9 352.95 1257.8 366.15 1253.8 380.6 1250.05 394.6 1248.45 408.9 1247.15 420.95 1247.35 433.15 1247.5 445.6 1248.5 458 1248.65 460.3 1248.85 462.6 1251.75 475.2 1255.5 487.7 1259.65 501.35 1268.15 512.9 1276.3 524.1 1285.05 534.75 1285.4 535.35 1285.95 535.95 1285.95 535.9 1285.95 535.8 1286 535.65 1286.2 535.7
L 1287.45 536.55 1287.45 536.7 1288.7 537.45 1288.75 537.5
Q 1293.45 539.75 1298.9 540.4 1302.85 540.9 1309.35 540.25 1309.5 540.25 1309.6 540.2 1309.95 540.2 1310.3 540.3 1310.7 540.35 1311.2 540.15
L 1307.3 536.6
Q 1296.15 540.45 1287.1 533.1 1286.85 533 1286.65 532.9 1284.85 531.95 1283.95 531.4 1282.25 530.55 1281.45 529.55 1280.75 528.6 1281.25 528.25 1281.6 527.9 1282.35 528.4
L 1285.05 529.95
Q 1286 530.5 1286.75 531.05
L 1286.8 531
Q 1287.1 531.15 1287.3 531.4 1287.9 531.75 1288.5 532.1 1296.5 536.65 1305.15 534.55 1293.65 525.35 1285.6 513.15 1280.1 505 1278.55 496.05 1286.05 498.9 1290.2 506.85 1292.8 511.55 1296.2 515.7 1303 524.05 1310.75 531.6 1325.8 537.3 1338.35 528.45 1341.5 526.25 1343.75 523.1 1331.45 514.35 1320.3 504.3 1309.4 494.7 1301.7 482.5 1296.75 474.55 1298.15 466.15 1303.4 467.55 1306.9 471.65 1318.4 484.4 1331.25 495.15 1373.15 532.1 1424.65 553.15 1441.85 560.05 1459.55 565.4 1462.6 566.2 1465.55 567.05
L 1465.75 566.4 1468.45 567.1
Q 1482.85 566.6 1496.6 561.1 1510.5 555.55 1523.05 547.1 1530.1 542.45 1534.8 535.3
L 1531.4 533.6
Q 1531.75 529.45 1536.6 531 1537.65 531.35 1538.7 531.55 1549.95 526.95 1557.4 518.15 1558.15 517.3 1557.75 516.05 1557.3 514.95 1556.8 513.8 1542.2 511.75 1527.2 509.8 1513.35 507.85 1499.4 505.95 1485.35 503.95 1471.65 500.85 1457.4 497.45 1443.35 493.1 1429.45 488.95 1416.05 483.75 1402.9 478.45 1389.95 472.4 1377.4 466.3 1365.15 459.35 1352.7 452.05 1340.3 444.2 1333.2 439.6 1328.05 432.8 1326.8 431.05 1325.85 429.15 1339.85 439.65 1354.85 448.9 1368.4 457.3 1382.7 464.5 1396.15 471.05 1409.85 476.95 1422.95 482.3 1436.4 486.7 1449.7 491.2 1463.3 494.75 1475.25 498 1487.4 500.4 1500.25 503 1513 504.55 1526.35 499.5 1541.1 497.1 1548.5 495.8 1555.6 492.9 1568.55 487.6 1579.05 478.5 1591.1 468.1 1590.95 452.55 1590.9 445.85 1587 439.85 1584.5 436.3 1584.1 432.1
L 1551 427.15 1551.05 422.85
Q 1536.6 422.8 1522.1 422.55 1507.9 422.35 1493.8 421.8 1480.45 421.45 1467.1 420.55 1452.2 419.65 1437.5 418.1 1423.95 416.75 1410.3 414.65 1395.9 412.4 1381.55 409.15 1367.3 406 1353.7 400.9 1349.45 399.45 1345.3 397.7 1362.95 402.8 1381.15 406.55 1391 408.6 1400.95 410.35 1409.6 411.8 1418.2 413 1429.3 414.45 1440.35 415.5 1452.7 416.65 1464.95 417.25 1484.35 418.45 1503.65 418.85 1525.5 419.35 1547.2 418.65
L 1552.95 416.6 1553.35 415.1
Q 1570.3 412.75 1585.5 404.5 1596.25 398.7 1604.5 389.6 1610.3 383.15 1607.3 374.95 1603.8 365.1 1596.2 357.95
L 1551 352.9
Q 1549 352.6 1547.1 352.4 1533.95 351.05 1520.85 349.35 1506.85 347.55 1492.7 345.65 1478.45 343.8 1464.25 341.7 1450.1 339.8 1436 337.55 1422.15 335.3 1408.25 333 1394.3 330.8 1380.3 328.25 1366.4 325.85 1352.45 323.3 1338.85 320.95 1325.1 318.95
M 1622.05 362.05
Q 1630.25 374.3 1626.25 388.55 1622.2 403.05 1608.9 410.7 1602.2 414.7 1594.55 416.45
L 1594.5 416.8 1605.85 416.25 1605.65 413.35
Q 1620.25 408.95 1632.45 399.55 1644.65 390.15 1640.05 375.75 1637.8 368.8 1631.9 364.05
L 1632.2 361.85 1622.2 360.8 1622.05 362.05 Z"/>

<path fill="#5B5D5E" stroke="none" d="
M 1328.75 561.5
Q 1326.2 554.6 1320.65 549.15 1311.5 558.75 1299.85 549.85 1298.15 548.45 1296.25 547.4 1305.6 559.15 1318.5 566.4 1323.95 569.3 1329.85 571.25 1330.55 566.3 1328.75 561.5
M 1335.05 549.6
Q 1335.25 549.95 1335.5 550.1 1335.8 550.2 1336.4 550.35
L 1341.1 553.05
Q 1354.4 560.2 1368.45 564.95 1381.6 569.45 1395.4 571.45 1407 573.05 1418.45 573.05 1408 567.4 1397.95 561.15 1387.85 554.75 1378.05 548.15 1369.6 542.1 1361.3 535.9 1356.75 547.8 1344.6 548.35 1344.2 548.4 1343.8 548.4 1342.55 548.3 1340.6 548.4 1337.7 548.55 1336.4 548.45 1335.45 548.35 1335.25 548.65 1334.95 548.95 1335.05 549.4 1335 549.5 1335.05 549.6
M 1310.3 540.3
Q 1309.95 540.2 1309.6 540.2 1309.5 540.25 1309.35 540.25 1302.85 540.9 1298.9 540.4 1293.45 539.75 1288.75 537.5
L 1288.7 537.45 1287.45 536.7 1287.45 536.55 1286.2 535.7
Q 1286 535.65 1285.95 535.8 1285.95 535.9 1285.95 535.95 1285.95 536.05 1286.05 536.1 1286.1 536.15 1286.25 536.25 1288.4 538.9 1290.65 541.5
L 1293.65 544.75 1296.65 546.3
Q 1297.3 546.4 1298 546.55 1307.75 549.6 1315.4 544.05
L 1311.2 540.15
Q 1310.7 540.35 1310.3 540.3
M 1307.3 536.6
L 1305.15 534.55
Q 1296.5 536.65 1288.5 532.1 1287.9 531.75 1287.3 531.4 1287.1 531.15 1286.8 531
L 1286.75 531.05
Q 1286 530.5 1285.05 529.95
L 1282.35 528.4
Q 1281.6 527.9 1281.25 528.25 1280.75 528.6 1281.45 529.55 1282.25 530.55 1283.95 531.4 1284.85 531.95 1286.65 532.9 1286.85 533 1287.1 533.1 1296.15 540.45 1307.3 536.6
M 1345.6 524.5
L 1343.75 523.1
Q 1341.5 526.25 1338.35 528.45 1325.8 537.3 1310.75 531.6
L 1314.95 535.25 1319.1 536.2
Q 1320.3 536.5 1321.55 536.55 1337.15 537.3 1345.6 524.5
M 1356.55 532.5
L 1349.45 527.3
Q 1348.35 532.65 1344.35 536 1344.25 536.05 1344.05 536.25 1343 537.15 1341.7 537.9 1341 538.25 1340.2 538.6 1338.45 539.35 1336.05 540.1 1333.6 540.9 1332.05 541.05 1331.1 541.15 1329.15 541.1 1328.5 541.1 1327.95 541.2 1326.65 542.1 1325.7 543.4
L 1330.15 546.6 1333.6 547.5
Q 1334.3 547.6 1335 547.6 1351.35 547.3 1356.55 532.5
M 1567.25 515.15
Q 1567.7 516.95 1567.15 518.6 1563.1 530.75 1548.95 533.45
L 1546.7 532.15
Q 1548.3 531.35 1549.85 530.8 1562 526.15 1561.7 514.45
L 1556.8 513.8
Q 1557.3 514.95 1557.75 516.05 1558.15 517.3 1557.4 518.15 1549.95 526.95 1538.7 531.55 1547.05 533.85 1555.55 534.9 1558.55 535.3 1561.5 535.75 1562.5 535.3 1563.5 534.85 1576.65 529.65 1576.65 516.4
L 1567.25 515.15
M 1565.75 510.85
L 1565.8 511.3 1575.55 512.5 1574.45 510.7 1565.75 510.85
M 1595.75 518.55
Q 1589.55 517.95 1583.45 517.25 1582.7 531.35 1569 535.2 1567.35 535.75 1565.65 536.1 1579.85 537.35 1594.15 537.4 1607.85 537.3 1621.65 536.25 1635.05 535.3 1648.35 533.7 1661.55 532.3 1674.6 530.15 1688.8 527.65 1702.6 524.1 1704.55 523.65 1706.55 523.15 1688.95 523.25 1671.3 522.8 1657.65 522.55 1643.85 521.85 1632 521.45 1620.2 520.7 1607.85 519.9 1595.75 518.55
M 1519.4 576.2
Q 1517 576.8 1514.6 577.4 1528.65 579.45 1542.8 580.25 1556.4 580.75 1569.8 580.2 1583.1 579.65 1596.45 577.85 1610.05 575.95 1623.5 573.45 1636.75 570.9 1649.8 567.75 1663.15 564.4 1676.05 559.85 1689.3 555.1 1701.8 548.65 1703.05 548 1704.55 547.25 1690.2 548.7 1676.1 549.8 1661.8 551 1647.45 551.45 1632.65 551.9 1617.75 551.4 1602.05 550.8 1586.15 548.6 1571.7 546.55 1557.45 542.95 1555.05 558.15 1542.3 566.6 1531.65 573.55 1519.4 576.2
M 1531.05 553.2
Q 1521.3 564.75 1506.75 568.2 1495.95 570.7 1485.15 572
L 1502.5 575.4 1504.95 575
Q 1516.5 573.2 1526.35 567.05 1531.05 564.05 1536.05 561.15 1548.15 553.95 1550.95 541.15
L 1541.75 538.05 1540.55 544.55
Q 1535.25 548.3 1531.05 553.2
M 1537.95 536.6
L 1534.8 535.3
Q 1530.1 542.45 1523.05 547.1 1510.5 555.55 1496.6 561.1 1482.85 566.6 1468.45 567.1
L 1469.3 567.3 1469.75 568.2 1476.7 570
Q 1484.1 569.35 1491.3 566.75 1505.25 561.65 1518.3 555.1 1530.9 548.8 1537.95 536.6
M 1605 435.3
L 1591.85 433.25
Q 1601.25 444.7 1601.35 459.15 1601.35 471.65 1593 480.5 1583.05 490.95 1570.3 497.5 1568.4 498.5 1566.4 498.6 1554.4 499.3 1545.05 505.35
L 1547.6 506.8 1563.9 506.65
Q 1570.3 505.35 1576.6 502.7 1589.45 497.35 1599.75 487.7 1610.25 477.7 1612.1 462.9 1613.7 447.9 1605 435.3
M 1611.55 439.45
Q 1612.4 440.55 1613.3 441.65 1621.55 452.8 1623.4 466.7 1625.35 481.75 1613.5 491.8 1602.15 501.4 1587.85 505.1 1602.7 503.9 1617.3 501.85 1630.3 500.2 1643.25 497.75 1656.3 495.25 1669.25 492.05 1682.25 488.7 1695.1 484.85 1707.85 481.1 1720.25 476.45 1732.5 471.85 1744.3 466.65 1756.7 461.1 1769.05 454.9 1774.85 452.05 1780.55 448.9 1762.1 449.25 1743.45 448.85 1730.45 448.55 1717.3 447.7 1703.45 447 1689.5 445.7 1672.25 444.2 1655.15 442.25 1642.1 440.75 1629 439 1620.5 437.8 1612 436.35
L 1611.55 439.45
M 1584.1 432.1
Q 1584.5 436.3 1587 439.85 1590.9 445.85 1590.95 452.55 1591.1 468.1 1579.05 478.5 1568.55 487.6 1555.6 492.9 1548.5 495.8 1541.1 497.1 1526.35 499.5 1513 504.55
L 1526.15 505.95 1527.45 505.6
Q 1530.05 505 1532.65 504.25 1546.45 500.45 1559.4 494.8 1571.4 489.65 1581.1 481.25 1592.1 471.75 1594.5 457.7 1596.9 443.7 1587.2 432.55
L 1584.1 432.1
M 1593.2 430.35
L 1598.5 431.05
Q 1598.4 431 1598.25 430.95 1595.75 429.8 1593.2 430.35
M 1611.9 383.95
Q 1614.1 368.1 1601.55 358.55
L 1596.2 357.95
Q 1603.8 365.1 1607.3 374.95 1610.3 383.15 1604.5 389.6 1596.25 398.7 1585.5 404.5 1570.3 412.75 1553.35 415.1
L 1552.95 416.6 1547.2 418.65 1557.8 418.35
Q 1568.5 414.4 1579.25 410.55 1593.4 405.35 1605 396 1610.8 391.25 1611.9 383.95
M 1638.5 362.65
Q 1635.35 362.25 1632.2 361.85
L 1631.9 364.05
Q 1637.8 368.8 1640.05 375.75 1644.65 390.15 1632.45 399.55 1620.25 408.95 1605.65 413.35
L 1605.85 416.25
Q 1620.4 415.55 1635.2 414.6 1649.55 413.65 1664.05 412.55 1678.75 411.3 1693.15 409.8 1705.15 408.6 1716.95 407.25 1730 405.7 1743.05 403.6 1756.2 401.55 1769.4 399.05 1781.7 396.8 1793.95 394.15 1807.7 391.15 1821.3 387.45 1830.4 385 1839.5 382.55 1816.85 380.95 1794.25 378.8 1772.95 376.75 1751.55 374.7 1736.5 373.2 1721.4 371.5 1711.5 370.55 1701.5 369.5 1693.55 368.65 1685.6 367.8 1675.5 366.75 1665.3 365.75 1651.95 364.25 1638.5 362.65
M 1626.25 388.55
Q 1630.25 374.3 1622.05 362.05
L 1620.8 360.65 1607.1 359.15
Q 1607.95 362.55 1610.3 365.3 1621.6 377.65 1613.5 391.9 1606 404.85 1592.05 409.6 1580.2 413.65 1568.7 418
L 1593.35 416.8 1594.55 416.45
Q 1602.2 414.7 1608.9 410.7 1622.2 403.05 1626.25 388.55 Z"/>

<path fill="#000000" stroke="none" d="
M 1593.2 430.35
Q 1586.45 429.5 1579.6 428.85 1565.5 427.4 1551 427.15
L 1584.1 432.1 1587.2 432.55 1591.85 433.25 1605 435.3 1612 436.35
Q 1620.5 437.8 1629 439 1642.1 440.75 1655.15 442.25 1672.25 444.2 1689.5 445.7 1703.45 447 1717.3 447.7 1730.45 448.55 1743.45 448.85 1762.1 449.25 1780.55 448.9 1774.85 452.05 1769.05 454.9 1756.7 461.1 1744.3 466.65 1732.5 471.85 1720.25 476.45 1707.85 481.1 1695.1 484.85 1682.25 488.7 1669.25 492.05 1656.3 495.25 1643.25 497.75 1630.3 500.2 1617.3 501.85 1602.7 503.9 1587.85 505.1
L 1563.9 506.65 1547.6 506.8 1545.05 506.75 1527.4 506 1526.15 505.95 1513 504.55
Q 1500.25 503 1487.4 500.4 1475.25 498 1463.3 494.75 1449.7 491.2 1436.4 486.7 1422.95 482.3 1409.85 476.95 1396.15 471.05 1382.7 464.5 1368.4 457.3 1354.85 448.9 1339.85 439.65 1325.85 429.15 1326.8 431.05 1328.05 432.8 1333.2 439.6 1340.3 444.2 1352.7 452.05 1365.15 459.35 1377.4 466.3 1389.95 472.4 1402.9 478.45 1416.05 483.75 1429.45 488.95 1443.35 493.1 1457.4 497.45 1471.65 500.85 1485.35 503.95 1499.4 505.95 1513.35 507.85 1527.2 509.8 1542.2 511.75 1556.8 513.8
L 1561.7 514.45 1567.25 515.15 1576.65 516.4 1583.45 517.25
Q 1589.55 517.95 1595.75 518.55 1607.85 519.9 1620.2 520.7 1632 521.45 1643.85 521.85 1657.65 522.55 1671.3 522.8 1688.95 523.25 1706.55 523.15 1704.55 523.65 1702.6 524.1 1688.8 527.65 1674.6 530.15 1661.55 532.3 1648.35 533.7 1635.05 535.3 1621.65 536.25 1607.85 537.3 1594.15 537.4 1579.85 537.35 1565.65 536.1
L 1561.5 535.75
Q 1558.55 535.3 1555.55 534.9 1547.05 533.85 1538.7 531.55 1537.65 531.35 1536.6 531 1531.75 529.45 1531.4 533.6
L 1534.8 535.3 1537.95 536.6 1541.75 538.05 1550.95 541.15 1557.45 542.95
Q 1571.7 546.55 1586.15 548.6 1602.05 550.8 1617.75 551.4 1632.65 551.9 1647.45 551.45 1661.8 551 1676.1 549.8 1690.2 548.7 1704.55 547.25 1703.05 548 1701.8 548.65 1689.3 555.1 1676.05 559.85 1663.15 564.4 1649.8 567.75 1636.75 570.9 1623.5 573.45 1610.05 575.95 1596.45 577.85 1583.1 579.65 1569.8 580.2 1556.4 580.75 1542.8 580.25 1528.65 579.45 1514.6 577.4
L 1504.85 575.85 1502.5 575.4 1485.15 572 1476.7 570 1469.75 568.2 1469.3 567.3 1468.45 567.1 1465.75 566.4 1465.55 567.05
Q 1462.6 566.2 1459.55 565.4 1441.85 560.05 1424.65 553.15 1373.15 532.1 1331.25 495.15 1318.4 484.4 1306.9 471.65 1303.4 467.55 1298.15 466.15 1296.75 474.55 1301.7 482.5 1309.4 494.7 1320.3 504.3 1331.45 514.35 1343.75 523.1
L 1345.6 524.5 1349.45 527.3 1356.55 532.5 1361.3 535.9
Q 1369.6 542.1 1378.05 548.15 1387.85 554.75 1397.95 561.15 1408 567.4 1418.45 573.05 1407 573.05 1395.4 571.45 1381.6 569.45 1368.45 564.95 1354.4 560.2 1341.1 553.05
L 1336.4 550.35
Q 1335.8 550.2 1335.5 550.1 1335.25 549.95 1335.05 549.6
L 1333.05 548.4 1330.15 546.6 1325.7 543.4 1314.95 535.25 1310.75 531.6
Q 1303 524.05 1296.2 515.7 1292.8 511.55 1290.2 506.85 1286.05 498.9 1278.55 496.05 1280.1 505 1285.6 513.15 1293.65 525.35 1305.15 534.55
L 1307.3 536.6 1311.2 540.15 1315.4 544.05 1320.65 549.15
Q 1326.2 554.6 1328.75 561.5 1330.55 566.3 1329.85 571.25 1323.95 569.3 1318.5 566.4 1305.6 559.15 1296.25 547.4
L 1293.65 544.75 1290.65 541.5
Q 1288.4 538.9 1286.25 536.25 1286.1 536.15 1286.05 536.1 1285.95 536.05 1285.95 535.95 1285.4 535.35 1285.05 534.75 1276.3 524.1 1268.15 512.9 1259.65 501.35 1255.5 487.7 1251.75 475.2 1248.85 462.6
L 1247.9 458
Q 1247.3 461.6 1247 465.15 1246.15 471.55 1247.35 477.85 1248.3 482.75 1249.95 487.4 1253.75 498.05 1259.15 508.05 1259.8 508.85 1260.15 509.6 1262.95 514.95 1266.6 519.85 1271.15 526.25 1275.95 532.5 1294.85 556.45 1320.9 572.1 1324.3 573.9 1327.9 574.55 1330.5 575.05 1332.8 573.75 1334.2 572.8 1334.3 571.4 1334.55 568.4 1333.85 565.3 1332.6 559.05 1330 553.3 1345.2 561.75 1361.9 567.4 1372.3 571 1382.95 572.55 1395.95 574.65 1409.3 574.9 1416.9 575 1424.6 576.5 1427.2 577 1429.9 576.6 1431.75 576.4 1432.8 574.65 1414.95 565.7 1397.7 555.35 1388.2 549.25 1378.9 542.85 1368.4 535.55 1358.3 528.2 1348.55 521 1339.1 513.5 1332.65 508.45 1327.15 502.85 1318.95 494.4 1311.7 485.1 1310.5 483.5 1309.4 481.85 1310.7 483.3 1312.05 484.85 1331.85 505.1 1355.05 521.1 1363.6 527.3 1372.8 532.85 1387.8 542.1 1403.65 549.85 1415.45 555.4 1427.6 560 1436.85 563.6 1446.2 566.7 1456.85 570.4 1467.95 573.3
L 1468.05 573.95 1472.7 575.05 1472.4 574.55 1490.95 579.05 1490.7 578.65
Q 1504.2 581.5 1517.8 583.25 1553.8 587.75 1589.8 583.1 1603.8 581.25 1617.7 578.6 1630.9 576.15 1643.9 572.9 1656.95 569.8 1669.8 565.5 1682.95 561.2 1695.75 555.75 1703.65 552.1 1710.75 547.1
L 1710.3 545.65
Q 1697.95 544.5 1685.4 545.6 1673.5 546.6 1661.45 547.2 1648.55 547.65 1635.75 547.55 1625.35 547.4 1615 546.65 1607.05 546.05 1599 545.05 1588.1 543.6 1577.35 541.2 1597.45 542.35 1617.75 541.05 1628.9 540.4 1639.85 539.2 1653.3 537.7 1666.7 535.7 1680.1 533.6 1693.5 531.05 1701.8 529.55 1710.15 527.15 1714.9 525.75 1718.8 522.5
L 1718.5 521.45
Q 1712.75 520 1706.6 519.6 1693.4 518.85 1680.2 518.95 1667.1 518.9 1654.15 518.4 1641.45 517.95 1628.55 517.2 1615.4 516.5 1602.4 515.15 1588.9 513.9 1575.55 512.5
L 1565.8 511.3 1562.2 510.85 1565.75 510.85 1574.45 510.7
Q 1577.35 510.55 1580.2 510.5 1600.7 509.65 1621.05 506.7 1635.75 504.55 1650.5 501.6 1659.25 499.75 1668 497.7 1682.3 494.35 1696.25 489.95 1711 485.55 1725.15 480 1738.65 474.85 1752.15 469.3 1765.35 463.75 1778.3 457.25 1786.6 453 1793.15 446.4 1790.6 445.7 1788 445.45 1773.3 443.65 1758.8 444.4 1745.45 445.15 1732.05 444.75 1717.9 444.3 1703.7 443.5 1690.3 442.65 1677 441.3 1663.95 439.95 1651 438.3 1637.5 436.4 1624 434.65 1611.3 432.85 1598.5 431.05
L 1593.2 430.35
M 1308.4 480.75
L 1308.65 481.75 1306.7 479 1308.4 480.75
M 1632.2 361.85
Q 1635.35 362.25 1638.5 362.65 1651.95 364.25 1665.3 365.75 1675.5 366.75 1685.6 367.8 1693.55 368.65 1701.5 369.5 1711.5 370.55 1721.4 371.5 1736.5 373.2 1751.55 374.7 1772.95 376.75 1794.25 378.8 1816.85 380.95 1839.5 382.55 1830.4 385 1821.3 387.45 1807.7 391.15 1793.95 394.15 1781.7 396.8 1769.4 399.05 1756.2 401.55 1743.05 403.6 1730 405.7 1716.95 407.25 1705.15 408.6 1693.15 409.8 1678.75 411.3 1664.05 412.55 1649.55 413.65 1635.2 414.6 1620.4 415.55 1605.85 416.25
L 1594.5 416.8 1593.35 416.8 1568.7 418 1557.8 418.35 1547.2 418.65
Q 1525.5 419.35 1503.65 418.85 1484.35 418.45 1464.95 417.25 1452.7 416.65 1440.35 415.5 1429.3 414.45 1418.2 413 1409.6 411.8 1400.95 410.35 1391 408.6 1381.15 406.55 1362.95 402.8 1345.3 397.7 1349.45 399.45 1353.7 400.9 1367.3 406 1381.55 409.15 1395.9 412.4 1410.3 414.65 1423.95 416.75 1437.5 418.1 1452.2 419.65 1467.1 420.55 1480.45 421.45 1493.8 421.8 1507.9 422.35 1522.1 422.55 1536.6 422.8 1551.05 422.85 1557.15 422.75 1563.2 422.65 1578.5 422.45 1593.7 422.1 1617.8 421.5 1641.85 420.05 1665.4 418.5 1688.65 415.95 1700.95 414.55 1713.15 413.25 1728.95 411.35 1744.5 408.8 1747.5 408.4 1750.6 407.9 1759.2 406.6 1767.6 404.95 1778.75 402.8 1789.8 400.35 1806.35 396.6 1822.9 392.15 1832.15 389.75 1841.1 387.5 1849.5 385.45 1857.5 382.2 1858.05 381.9 1858.55 381.6 1859.65 380.95 1860.05 379.7
L 1859.6 378.6
Q 1852.25 377.55 1845.4 376.85 1831.7 375.65 1818 375 1804.65 374.2 1791.15 372.8 1789.15 372.55 1787.1 372.35 1780.85 371.9 1774.65 371.1
L 1625.45 356.05
Q 1615.35 355.15 1605.5 354.2 1589.25 352.55 1573.05 350.75 1563.8 349.75 1554.85 348.8 1537.2 346.85 1519.75 343.8 1517.25 343.4 1514.75 343 1507.35 341.8 1499.75 340.55
L 1302.75 310.25 1300.85 310.55 1300.6 311.35 1304.8 313.35
Q 1314.6 317.4 1325.1 318.95 1338.85 320.95 1352.45 323.3 1366.4 325.85 1380.3 328.25 1394.3 330.8 1408.25 333 1422.15 335.3 1436 337.55 1450.1 339.8 1464.25 341.7 1478.45 343.8 1492.7 345.65 1506.85 347.55 1520.85 349.35 1533.95 351.05 1547.1 352.4 1549 352.6 1551 352.9
L 1596.2 357.95 1601.55 358.55 1607.1 359.15 1620.8 360.65 1622.2 360.8 1632.2 361.85 Z"/>
</g>
</defs>

<g transform="matrix( 1, 0, 0, 1, 0,0) ">
<use xlink:href="#Layer3_0_FILL"/>
</g>
</svg>
