
<svg xmlns="http://www.w3.org/2000/svg" version="1.1" xmlns:xlink="http://www.w3.org/1999/xlink" preserveAspectRatio="none" x="0px" y="0px" width="1920px" height="1080px" viewBox="0 0 1920 1080">
<defs>
<g id="Layer3_0_FILL">
<path fill="#FFFFFF" stroke="none" d="
M 1328.55 146.8
Q 1327.15 147.1 1324.3 148.15 1323.2912109375 148.5103515625 1322.45 148.75 1320.9595703125 149.2580078125 1320 149.45 1318.7 149.7 1315.3 149.95 1312.3 150.2 1310.6 150.65 1308.9 151.1 1306.3 152.4 1303.05 154 1302.1 154.4 1300.9 154.85 1299.8 154.65 1299.06015625 154.531640625 1298.7 154.1 1295.291796875 158.1380859375 1292 162 1307.398046875 155.325 1324 153.2 1329.35 152.55 1333.1 152.8 1338.05 153.1 1341.7 155.05 1346.5 157.6 1349.35 163 1350.003125 164.2560546875 1350.5 165.55 1351.0150390625 166.88125 1351.35 168.25 1352.075390625 170.9830078125 1352.2 173.95 1352.35 177.25 1351.75 181.35 1351.45 183.6 1350.45 188.65
L 1347.4 203.3
Q 1345.4341796875 211.5794921875 1341.95 219.75 1337.946484375 229.29453125 1331.9 238.7 1330.9515625 240.178515625 1330.05 241.05 1328.5615234375 244.5041015625 1325.9 250.7 1325.3970703125 251.8314453125 1324.85 252.55 1324.346875 253.2517578125 1323.8 253.55 1323 254 1322 253.75 1321 253.45 1320.8 252.6 1320.65 251.8 1321.5 250.5
L 1334.7 229.85
Q 1334.9189453125 229.4888671875 1335.1 229.15 1336.42109375 226.7267578125 1337.7 223.95 1344.15 209.85 1347.35 194.85 1347.95 192.2 1348.8 187.45
L 1349.5 183.6
Q 1350.25 179.25 1350.4 176.7 1350.6 172.9 1349.7 169.95 1348.65 166.6 1346.1 163.5 1343.25 159.85 1339.75 157.95 1335.3 155.5 1329 155.7 1324.45 155.85 1317.7 157.5 1303.25 161 1289.15 166.7
L 1283.3 172.25
Q 1244.1 218.25 1221.5 241.05 1198.9943359375 263.7115234375 1177.05 280.85 1170.76484375 285.7625 1164.5 290.2 1158.6046875 294.4525390625 1152.7 298.25 1151.738671875 298.91796875 1150.75 299.55 1147.35 301.75 1145.1 302.65 1142.8412109375 303.608203125 1140.8 303.85 1139.79921875 306.3701171875 1138.7 311.3 1137.6455078125 316.0765625 1136.5 323.1 1133.55 340.95 1133.55 350.45 1133.55 369.25 1147.65 404 1148.608984375 406.3697265625 1149.55 408.7 1153.901171875 418.9615234375 1158.55 428.3 1163.75 438.6 1166.2 441.7 1170.9 447.6 1179.45 457.75 1181.4609375 460.176953125 1183.2 462.4 1183.8689453125 463.237890625 1184.45 464 1184.6296875 464.2111328125 1184.75 464.4 1187.912109375 468.4732421875 1190.2 471.9 1190.3552734375 472.120703125 1190.45 472.3 1190.69375 472.6333984375 1190.9 472.95 1191.3265625 473.57734375 1192.45 475.6 1193.5568359375 477.6380859375 1195.35 481.05 1198.5 486.95 1200.7 489.75 1205.8 496.35 1206.4 497
L 1214.65 500.95
Q 1211.65234375 498.1107421875 1209 495.05 1216.630078125 498.86015625 1220.8 500.5 1226.8 502.85 1235.8 505.1 1237.1876953125 505.4404296875 1238.55 505.75 1250.596484375 508.5650390625 1262.3 510 1263.8373046875 510.1888671875 1265.35 510.35 1265.555078125 510.05859375 1265.9 509.75 1266.85 508.95 1268.45 508.4 1269.35 508.05 1271.25 507.5 1277.2 505.55 1280.45 500.9 1282.467578125 498.041796875 1283.5 493.8 1277.57421875 494.133984375 1272.3 494.1 1269.45 494.05 1266.8 493.95 1257.65 493.6 1252.6 491.05 1255.05 489.45 1258.85 489.35 1260.7 489.3 1265.65 489.85 1269.95 490.3 1274.7 490.4 1278.9013671875 490.488671875 1283.45 490.3 1285.0162109375 490.26015625 1286.6 490.15 1286.5654296875 490.0380859375 1286.55 489.9 1290.6 487.85 1294.4 483.5 1296.75 480.8 1300.5 475.15 1302.85 471.6 1303.6 469.45 1304.75 465.85 1303.4 463.1 1302.750390625 461.9740234375 1302.4 461.3 1297.8337890625 461.61796875 1293.25 461.8 1285.7091796875 462.0876953125 1278.2 462 1264.0166015625 461.8794921875 1250 460.45 1250.9607421875 460.247265625 1251.9 460.05 1247.2421875 459.7279296875 1242.5 459.3
L 1242.5 459.35
Q 1242.3984375 459.4515625 1242.25 459.55 1231.6193359375 458.1716796875 1221.1 456.05 1218 455.4 1216.65 455.25 1216.4845703125 455.2302734375 1216.3 455.2 1216.184375 455.192578125 1216.05 455.15 1214.2396484375 454.36171875 1212.5 453.8 1210.5 453.15 1210.4 452.1 1210.25 451.05 1211.6 450.6 1212.7 450.25 1214.1 450.5 1214.1373046875 450.5076171875 1214.15 450.5 1243.661328125 456.4998046875 1277.35 457.4 1282.6951171875 457.536328125 1288.15 457.55 1295.6767578125 457.5724609375 1303.6 457.35 1304.0189453125 457.0978515625 1304.55 456.85 1316.55 451.1 1324.05 440.05 1326.5 436.4 1328 432.95 1328.75 431.05 1328.65 430.2 1328.6 429.55 1328.3 428.65 1327.85 427.4 1327.75 427.1 1327.65 426.642578125 1327.65 426.2 1292.7359375 422.043359375 1268.2 414.25 1265.4365234375 413.375390625 1262.8 412.45 1261.25 411.85 1260.95 411.2 1260.4 409.95 1261.85 409.05 1263.15 408.25 1264.8 408.3 1265.4392578125 408.3 1266.05 408.3 1321.466796875 408.10234375 1379.9 390.95 1380.005859375 390.8306640625 1380.1 390.7 1380.4 390.35 1381.65 388.45 1383.4 385.8 1387.3 380.8 1390.1 377.3 1390.8 376.2 1391.3 375.4 1392.55 373.05 1393.9 370.45 1395.55 366.85
L 1397.45 362.8
Q 1398.65 360.4 1399.05 358.75 1399.6 356.5 1399.2 351.85
L 1398 351.35
Q 1398.35 350.3 1399.3 350.15 1399.8 350.1 1400.3 350.4 1400.75 350.75 1401 351.25 1401.35 351.9 1401.35 353.4 1401.45 358.1 1400.85 360.4 1400.45 361.95 1399.05 364.95 1395.45 372.25 1393.5 375.85 1392.3 378.15 1391.55 379.25 1389.55 381.75 1388.65 383.05 1386.9 385.9 1385.95 387.3 1385.9142578125 387.355859375 1385.85 387.4 1390.4833984375 385.1599609375 1394.45 380.4 1397.45 376.9 1400.85 370.95
L 1404.7 364.2
Q 1407.15 359.85 1407.85 357.85 1408.45 356.15 1409.15 352.65 1409.45 351.25 1409.35 350.55 1409.25 350 1408.9 349.2 1408.45 348.2 1408.35 347.85 1408.3068359375 347.6771484375 1408.25 347.5 1403.7904296875 348.7123046875 1399.3 349.85 1399.261328125 349.859765625 1399.2 349.85 1326.762890625 368.2509765625 1257.25 369.9 1254 370 1253.2 368.45 1252.45 366.85 1254.15 365.4 1255.6 364.2 1257.8 363.75 1276 360 1293.5 354.15 1291.15 354.85 1288.8 355.55 1289.9 353.05 1292.8 351.2 1294.75 349.9 1298.45 348.5 1309.1 344.5 1330.4 336.45 1348.8 329.3 1361.8 322.95 1379.1861328125 314.4791015625 1396.9 302.75
L 1399.15 299
Q 1406.85 286 1409.8 279.95 1412.8 273.7 1418 260.05 1419.2 256.9 1419.65 255.35 1420.45 252.65 1420.65 250.45 1421.1 245 1417.85 237.35 1416.35 233.65 1414.65 231.8 1413.05 230.05 1409.95 228.7 1404.65 226.3 1398.7 226.3 1392.7 226.3 1387.4 228.7 1384.85 229.8 1384.2 229.9 1382.6041015625 230.1279296875 1381.6 229.5 1322.503125 273.959375 1264.9 320.75 1262.55 322.7 1260.9 323.5 1258.5 324.7 1256.45 324.25 1259.15 321.6 1263.6 317.75
L 1262.45 316.4
Q 1255.66015625 322.3078125 1248.6 328.15 1247.2 329.3 1245.9 329.65 1244.2 330.05 1243.45 328.9 1242.8 327.9 1243.6 326.6 1244.25 325.5 1245.55 324.55 1288.9228515625 292.8025390625 1325.15 252.8 1331.7681640625 245.4873046875 1338.15 237.9 1342.0966796875 233.2087890625 1345.9 228.45 1344.842578125 227.753125 1344.75 225.9 1344.65 223.95 1345.8 221.4 1347.3 218.5 1347.95 217.05 1348.6 215.65 1349.2 213.65 1349.85 211.3 1350.15 210.1 1353.7 199.1 1355.15 193.6 1357.75 183.95 1356.8 176.9 1356.4 173.7 1354.5 167.75 1354.428125 167.5201171875 1354.35 167.3 1354.3408203125 167.2486328125 1354.3 167.2 1353.85390625 165.702734375 1353.45 164.5 1352.9060546875 162.878515625 1352.5 161.85 1351.25 158.65 1349.75 156.3 1346.35 151 1340.5 148.25 1334.45 145.5 1328.55 146.8
M 1423.65 343.2
Q 1422.8986328125 343.434375 1422.15 343.65 1417.5001953125 344.9951171875 1412.85 346.25 1413.1923828125 346.59765625 1413.5 347 1414.75 348.55 1415 350.6 1415.35 353.7 1413.5 358.25 1411.75 362.65 1408.95 367.85 1407.2 371.1 1403.6 377.1 1401.7 380.15 1400.7 381.25 1400 382.05 1398.65 383.25 1397.1 384.65 1396.55 385.2 1396.204296875 385.6173828125 1395.9 385.95 1398.6060546875 385.08203125 1401.3 384.15 1406.7787109375 379.776171875 1411.45 375.4 1412.7859375 374.1271484375 1414 372.9 1426.25 360.55078125 1426.25 353 1426.25 351.55 1425.4 349.25
L 1423.65 343.2
M 1427.25 204
Q 1424.9 204 1418.15 205
L 1416.85 203.25
Q 1415.2841796875 204.4326171875 1413.7 205.6 1409.5384765625 208.665625 1405.35 211.75 1412.6330078125 209.7361328125 1421.4 213.5 1426.05 215.5 1429.3 218.55 1433 222.05 1434.2 226.3 1434.3505859375 226.85234375 1434.45 227.5 1434.84140625 228.2369140625 1435.15 229 1436.7 232.8 1436.9 237.9 1437 241.4 1436.4 247.05 1435.45 255.45 1433.85 261.55 1431.65 269.55 1427.6 276.7 1424.9865234375 281.0240234375 1423.65 283.3 1428.55703125 279.4302734375 1433.5 275.3 1434.912890625 274.1220703125 1436.35 272.9 1438.5560546875 268.884765625 1440.45 264.7 1440.6408203125 264.3517578125 1440.8 264 1450.25 243.1 1450.25 223 1450.25 212.6 1444.2 208.05 1438.75 204 1427.25 204
M 1418.25 233.2
Q 1420.6 237.1 1421.55 242.1 1422.75 248.15 1421.65 253.65 1421.2 255.85 1419.5 260.75 1416.75 268.4 1415.25 272.2 1414.224609375 274.8369140625 1413.2 277.2 1411.7955078125 280.5509765625 1410.4 283.4 1408.2 287.9 1403.2 296.6
L 1401.4 299.7
Q 1408.18359375 295.0794921875 1415 289.95 1414.9634765625 289.840625 1414.95 289.7 1414.8 288.25 1415.9 285.8
L 1418.65 279.5
Q 1423.25 268.9 1425.2 263.4 1427.9 256.2 1428.95 250.1 1430.05 243.95 1429.95 235.5 1429.95 233.8640625 1429.8 232.45 1428.3279296875 229.190625 1425.7 226.45 1422.25 222.85 1417.7 221.05 1415.114453125 220.0041015625 1412.3 219.55 1410.3158203125 219.25 1408.2 219.25 1403.3 219.3 1398.7 221.05 1397.4 221.55 1396.7 221.5 1396.2 221.5 1395.75 221.2 1395.25 220.85 1395.2 220.4 1395.1052734375 219.73671875 1395.8 218.85 1391.991015625 221.707421875 1388.15 224.55 1391.20390625 223.5185546875 1394.7 223.3 1400.5 222.95 1406.75 224.7 1409.9 225.6 1411.65 226.65 1415.6 228.8 1418.25 233.2
M 1364.25 140.05
Q 1357.1 130 1337.25 130 1334.3505859375 130 1331 130.7 1323.891015625 132.178515625 1314.75 136.8
L 1313.9 136.15
Q 1313.0140625 137.246484375 1312.1 138.3 1308.430078125 142.652734375 1304.9 146.8 1305.9583984375 146.2541015625 1307.15 145.75 1310.5 144.35 1317 142.75 1322.45 141.45 1325 141 1329.55 140.15 1333.15 140 1336.75 139.85 1339.25 140.45 1342.05 141.15 1345.95 143.75 1352.3 148 1355.1 152.85 1356.6 155.45 1358.35 161.35 1359.95 166.7 1360.6 169.4 1361.7 173.9 1362 177.6 1362.55 184.85 1360.55 193.75 1359.3 199.35 1355.85 209.45
L 1352.15 220.55
Q 1358.7369140625 212.0357421875 1364.95 203.3 1365.494921875 199.19921875 1366.45 195 1366.8130859375 193.3673828125 1367.25 191.7 1370.25 180.3 1370.25 170 1370.25 148.5 1364.25 140.05
M 1298.85 493.6
Q 1298.6537109375 493.0439453125 1298.5 492.55 1292.958203125 493.1455078125 1289.25 493.4 1286.8765625 493.5935546875 1284.6 493.75 1284.4482421875 494.58125 1284.05 495.65 1282.65 499.05 1281.9 500.55 1280.6 503.2 1279.15 505.05 1276.9 507.85 1273.85 509.4 1272.7927734375 510.0087890625 1270.55 510.85 1275.68203125 511.26875 1280.75 511.4 1283.157421875 511.4896484375 1285.55 511.5 1286.358203125 511.503125 1287.15 511.5 1293.7234375 511.467578125 1300.05 510.95 1300.4169921875 510.72265625 1300.75 510.45 1309.25 503.5 1309.25 496.5 1309.25 495.1765625 1308.95 494.05 1307.8314453125 493.953515625 1306.85 493.85 1304.9501953125 493.67734375 1303.95 493.15 1304.2 493.976953125 1304.2 494.35 1304.3 496.1 1302.55 498.35 1298.65 503.5 1292.9 506.75 1287.15 510.05 1280.75 510.75 1278.75 510.95 1278 510.1 1277.45 509.45 1277.7 508.5 1277.95 507.6 1278.7 507.05 1279.5 506.45 1282 506 1289.4 504.7 1295.45 499.9 1299.35 496.7 1298.85 493.6
M 1305.75 461.4
Q 1305.85 461.9 1306.1 462.8 1307.3 467.15 1304.95 472.15 1303.6 475.05 1299.55 480 1293.899609375 486.8787109375 1290 489.95 1293.6021484375 489.6560546875 1298.65 489.05 1299.333203125 487.8583984375 1300.85 486.45 1304.3 483.35 1305.8 481.85 1308.45 479.2 1310.15 476.75 1314.7 470.35 1313.85 464.1 1313.55 462.3 1313.45 461.4 1313.366015625 460.84609375 1313.35 460.35 1309.5296875 460.7505859375 1305.7 461.05 1305.716796875 461.223046875 1305.75 461.4
M 1318.75 460.95
Q 1319.75 464.5 1319.2 468.5 1318.7 472.2 1316.85 475.7 1313.75 481.65 1306.95 487.15 1306.222265625 487.7322265625 1305.7 488.2 1309.589453125 487.7220703125 1314.1 487.1 1315.1953125 486.9517578125 1316.2 486.8 1319.6958984375 484.2423828125 1322.8 480.3 1329.25 472.1 1329.25 464.5 1329.25 463.35 1328.8 461.6 1328.333203125 459.819921875 1327.55 458.55 1323.0177734375 459.2333984375 1318.45 459.75 1318.542578125 460.281640625 1318.75 460.95
M 1329.7 427.85
Q 1330.3 430.1 1330 431.9 1329.7 433.6 1327.95 436.8 1325.5 440.9 1324.55 442.25 1322.7 444.95 1317.7 450.25 1314.6 453.5 1313.2 454.6 1311.3 456.05 1309.05 457.15 1309.02734375 457.1609375 1309 457.15 1311.7029296875 456.879296875 1314.4 456.55 1314.8203125 455.96171875 1315.4 455.4 1316.25 454.55 1318.5 452.95 1323.85 449.2 1328.9 444.3 1336.45 436.95 1336.05 430.6 1335.85 428.5 1335.85 428.15 1335.869921875 427.59140625 1336 427.1 1332.5599609375 426.7703125 1329.2 426.35 1329.52421875 427.2126953125 1329.7 427.85
M 1341.7 427.7
Q 1342.065234375 428.4552734375 1342.25 429.4 1343.35 435.15 1338.3 442.15 1332.2818359375 450.593359375 1323.25 455.3 1324.3388671875 455.1658203125 1325.4 455 1331.8669921875 453.9869140625 1338.25 452.7 1341.9482421875 449.9609375 1344.9 446 1351.127734375 437.6115234375 1349.2 428.35 1345.4044921875 428.0416015625 1341.7 427.7 Z"/>

<path fill="#000000" stroke="none" d="
M 1451.95 -34.8
Q 1451.4 -34.35 1450.9 -33.8
L 1323.3 117.95
Q 1310.773046875 132.8458984375 1300.7 144.7 1285.716015625 162.3974609375 1276.2 173.35 1249.8 203.85 1227.65 227.35 1208.95 247.25 1196.15 258.3 1189.95 263.65 1177.15 273.8
L 1160.75 286.75
Q 1157.6125 290.1462890625 1153.5 292.6 1153.2212890625 292.7619140625 1152.95 292.9
L 1138.95 303.95
Q 1139.84921875 303.981640625 1140.8 303.85 1142.8412109375 303.608203125 1145.1 302.65 1147.35 301.75 1150.75 299.55 1151.738671875 298.91796875 1152.7 298.25 1158.6046875 294.4525390625 1164.5 290.2 1170.76484375 285.7625 1177.05 280.85 1198.9943359375 263.7115234375 1221.5 241.05 1244.1 218.25 1283.3 172.25 1285.455078125 169.71484375 1287.65 167.1 1289.8146484375 164.5833984375 1292 162 1295.291796875 158.1380859375 1298.7 154.1 1301.74375 150.5365234375 1304.9 146.8 1308.430078125 142.652734375 1312.1 138.3 1313.0140625 137.246484375 1313.9 136.15 1327.1974609375 120.4962890625 1342.1 102.9 1358.5552734375 83.4373046875 1377 61.6
L 1451.6 -26.7
Q 1451.15 -21.1 1450.05 -14.05 1446.9 7 1441.1 31.05 1436.45 50.5 1429.2 75.55 1423.42109375 95.3150390625 1419.2 106.4 1419.0736328125 106.7294921875 1418.95 107.05 1414.8 117.8 1407.75 131.85 1391.6154296875 164.3474609375 1371.2 194.3 1368.1232421875 198.8408203125 1364.95 203.3 1358.7369140625 212.0357421875 1352.15 220.55 1349.077734375 224.52578125 1345.9 228.45 1342.0966796875 233.2087890625 1338.15 237.9 1331.7681640625 245.4873046875 1325.15 252.8 1288.9228515625 292.8025390625 1245.55 324.55 1244.25 325.5 1243.6 326.6 1242.8 327.9 1243.45 328.9 1244.2 330.05 1245.9 329.65 1247.2 329.3 1248.6 328.15 1255.66015625 322.3078125 1262.45 316.4 1311.8837890625 273.708984375 1348.85 228.1 1349.3041015625 227.552734375 1349.75 227 1357.384375 217.5466796875 1364.45 207.95 1375.280078125 193.3779296875 1384.85 178.5 1407.1091796875 143.8919921875 1422.65 107.65 1426.8751953125 97.8076171875 1430.6 87.85 1448.95 38.65 1454.15 -10.6 1454.9 -18.3 1455.05 -23.55 1455.15 -27.35 1455 -30.8 1455.9 -32 1456.2 -33.1 1456.65 -34.8 1455.55 -35.65 1455.1 -35.95 1454.6 -36 1454.55 -36.2 1454.55 -36.4 1453.75 -36.7 1453 -36.3 1452.15 -35.95 1451.9 -35.25 1451.9 -35.05 1451.95 -34.8
M 1586.3 82.4
Q 1584.65 82.55 1583 83.6 1522.0052734375 123.7859375 1462.6 166.1 1435.139453125 185.680859375 1408 205.7 1340.1298828125 255.8373046875 1274.35 308.85 1268.1 313.9 1263.6 317.75 1259.15 321.6 1256.45 324.25 1258.5 324.7 1260.9 323.5 1262.55 322.7 1264.9 320.75 1322.503125 273.959375 1381.6 229.5 1384.8923828125 227.033984375 1388.15 224.55 1391.991015625 221.707421875 1395.8 218.85 1397.4322265625 217.6513671875 1399.05 216.45 1400.1193359375 215.65234375 1401.2 214.85 1403.290625 213.2958984375 1405.35 211.75 1409.5384765625 208.665625 1413.7 205.6 1415.2841796875 204.4326171875 1416.85 203.25 1440.645703125 185.79140625 1464.65 168.65 1522.262109375 127.622265625 1581.25 88.7 1570.8 116.25 1555.55 141.7 1540.3 167.1 1521 189.45 1517.87890625 193.0822265625 1513.75 197.55 1506.645703125 205.3138671875 1496.55 215.6 1466.3357421875 246.6330078125 1443.3 266.85 1439.7498046875 270.0171875 1436.35 272.9 1434.912890625 274.1220703125 1433.5 275.3 1428.55703125 279.4302734375 1423.65 283.3 1423.096484375 283.7619140625 1422.55 284.2 1420.0083984375 286.181640625 1417.45 288.1 1416.231640625 289.0458984375 1415 289.95 1408.18359375 295.0794921875 1401.4 299.7 1399.1556640625 301.2560546875 1396.9 302.75 1379.1861328125 314.4791015625 1361.8 322.95 1348.8 329.3 1330.4 336.45 1309.1 344.5 1298.45 348.5 1294.75 349.9 1292.8 351.2 1289.9 353.05 1288.8 355.55 1291.15 354.85 1293.5 354.15 1276 360 1257.8 363.75 1255.6 364.2 1254.15 365.4 1252.45 366.85 1253.2 368.45 1254 370 1257.25 369.9 1326.762890625 368.2509765625 1399.2 349.85 1399.261328125 349.859765625 1399.3 349.85 1403.7904296875 348.7123046875 1408.25 347.5 1410.566015625 346.9015625 1412.85 346.25 1417.5001953125 344.9951171875 1422.15 343.65 1422.8986328125 343.434375 1423.65 343.2 1478.91484375 327.1712890625 1534.75 301.65 1522.95 313.05 1506.6 325.55 1496.65 333.15 1476.6 347.2 1468.25 353.05 1464.6 355.45 1457.85 359.95 1452.2 363.05 1443.2 368.05 1428.4 374.05 1414.787109375 379.5416015625 1401.3 384.15 1398.6060546875 385.08203125 1395.9 385.95 1390.0546875 387.905078125 1384.25 389.65 1384.058984375 389.71953125 1383.85 389.75 1381.891015625 390.375390625 1379.9 390.95 1321.466796875 408.10234375 1266.05 408.3 1265.4392578125 408.3 1264.8 408.3 1263.15 408.25 1261.85 409.05 1260.4 409.95 1260.95 411.2 1261.25 411.85 1262.8 412.45 1265.4365234375 413.375390625 1268.2 414.25 1292.7359375 422.043359375 1327.65 426.2 1328.43203125 426.2833984375 1329.2 426.35 1332.5599609375 426.7703125 1336 427.1 1338.83125 427.4296875 1341.7 427.7 1345.4044921875 428.0416015625 1349.2 428.35 1351.0380859375 428.5087890625 1352.9 428.65 1368.25 429.8 1399.1 431.7 1401.5267578125 431.87421875 1403.9 432.05 1403.7705078125 432.098828125 1403.65 432.15 1401.8146484375 432.9572265625 1399.95 433.75 1373.8083984375 444.8541015625 1345.95 451.1 1342.1279296875 451.9556640625 1338.25 452.7 1331.8669921875 453.9869140625 1325.4 455 1324.3388671875 455.1658203125 1323.25 455.3 1318.834765625 455.99375 1314.4 456.55 1311.7029296875 456.879296875 1309 457.15
L 1308.95 457.15
Q 1306.263671875 457.276953125 1303.6 457.35 1295.6767578125 457.5724609375 1288.15 457.55 1282.6951171875 457.536328125 1277.35 457.4 1243.661328125 456.4998046875 1214.15 450.5 1214.1373046875 450.5076171875 1214.1 450.5 1212.7 450.25 1211.6 450.6 1210.25 451.05 1210.4 452.1 1210.5 453.15 1212.5 453.8 1214.2396484375 454.36171875 1216.05 455.15 1216.184375 455.192578125 1216.3 455.2 1216.4845703125 455.2302734375 1216.65 455.25 1218 455.4 1221.1 456.05 1231.6193359375 458.1716796875 1242.25 459.55 1242.3984375 459.4515625 1242.5 459.35
L 1242.5 459.3
Q 1247.2421875 459.7279296875 1251.9 460.05 1250.9607421875 460.247265625 1250 460.45 1264.0166015625 461.8794921875 1278.2 462 1285.7091796875 462.0876953125 1293.25 461.8 1297.8337890625 461.61796875 1302.4 461.3 1304.0517578125 461.183203125 1305.7 461.05 1309.5296875 460.7505859375 1313.35 460.35 1315.9103515625 460.0861328125 1318.45 459.75 1323.0177734375 459.2333984375 1327.55 458.55 1346.36953125 455.703125 1364.8 450.55 1366.094921875 450.148046875 1366.65 450.6 1372.9599609375 448.75234375 1379.15 446.6 1388.7623046875 443.280859375 1398.15 439.3 1394.4962890625 444.2607421875 1389.55 449.05 1389.5435546875 450.0484375 1388.15 451.05 1385.8 452.75 1384.8 453.4 1384.532421875 453.5689453125 1384.25 453.7 1384.41015625 453.7005859375 1384.55 453.65 1383.4275390625 454.63984375 1382.25 455.6 1375.25 461.15 1363.35 468.65 1355 474 1349.5 476.85 1341.65 481 1334.7 483.1 1330.25 484.5 1324.5 485.5 1321.367578125 486.084765625 1316.2 486.8 1315.1953125 486.9517578125 1314.1 487.1 1309.589453125 487.7220703125 1305.7 488.2 1301.89765625 488.709375 1298.65 489.05 1293.6021484375 489.6560546875 1290 489.95 1289.94375 489.946484375 1289.9 489.95 1288.241015625 490.0728515625 1286.6 490.15 1285.0162109375 490.26015625 1283.45 490.3 1278.9013671875 490.488671875 1274.7 490.4 1269.95 490.3 1265.65 489.85 1260.7 489.3 1258.85 489.35 1255.05 489.45 1252.6 491.05 1257.65 493.6 1266.8 493.95 1269.45 494.05 1272.3 494.1 1277.57421875 494.133984375 1283.5 493.8 1283.80234375 493.790625 1284.05 493.75 1284.34140625 493.758203125 1284.6 493.75 1286.8765625 493.5935546875 1289.25 493.4 1292.958203125 493.1455078125 1298.5 492.55 1300.6029296875 492.3591796875 1302.95 492.1 1303.25 492.6 1303.7 493 1303.8296875 493.088671875 1303.95 493.15 1304.9501953125 493.67734375 1306.85 493.85 1307.8314453125 493.953515625 1308.95 494.05 1317.7318359375 494.9556640625 1335.55 496.5 1341.001171875 496.9671875 1347.3 497.5 1345.25 500.05 1341.7 501.85 1339.15 503.15 1334.9 504.5 1318.3302734375 509.60390625 1300.05 510.95 1293.7234375 511.467578125 1287.15 511.5 1286.358203125 511.503125 1285.55 511.5 1283.157421875 511.4896484375 1280.75 511.4 1275.68203125 511.26875 1270.55 510.85 1267.968359375 510.630859375 1265.35 510.35 1263.8373046875 510.1888671875 1262.3 510 1250.596484375 508.5650390625 1238.55 505.75 1237.1876953125 505.4404296875 1235.8 505.1 1226.8 502.85 1220.8 500.5 1216.630078125 498.86015625 1209 495.05 1211.65234375 498.1107421875 1214.65 500.95 1215.569921875 501.8216796875 1216.5 502.65 1221.1572265625 504.80234375 1226.85 506.7 1233.596875 508.9345703125 1240.6 510.6 1249.94140625 512.8455078125 1259.75 514.1 1273.3244140625 515.7931640625 1287.85 515.55 1288.025 515.5720703125 1288.2 515.55 1290.7029296875 515.5234375 1293.2 515.4 1300.998828125 515.1345703125 1309.05 514.3 1322.15 512.95 1331.4 510.35 1343.25 506.85 1351.55 500.6 1354.95 498.05 1354.2 495.8 1353.45 493.55 1349.25 493.3 1333.1 492.25 1316.8 490.5 1320.7 490.05 1322.8 489.75 1329.05 488.75 1333.85 487.35 1341.35 485.25 1349.75 481.2 1355.9 478.2 1364.7 472.95 1378.05 465.1 1385.6 458.65 1389.0587890625 455.788671875 1392.7 452.1 1412.8916015625 448.0259765625 1432.15 442.2 1443.9 438.65 1444.95 438.3 1452.3 436.25 1458 435.25 1459.7 435.05 1460.9 434 1462.25 432.9 1461.4 431.8 1460.85 431 1459.05 430.9
L 1419.55 428.35
Q 1373.5 425.4 1350.15 423.1 1311.8 419.35 1281.5 413.25 1323.450390625 411.6533203125 1372.1 398.45 1374.5556640625 397.792578125 1377 397.1 1386.9380859375 394.319140625 1397.15 391.05 1422.05 383.1 1439.05 375.05 1465.4 362.6 1494.4 340.45 1511.9 327.1 1544.65 298.25 1545.6 297.4 1545.5 296.8 1545.45 295.95 1544.4 295.8 1543.5 295.65 1542.5 296 1533.45 299.45 1519.7 305.3 1500.25 313.6 1497.05 314.95 1442.2 337.5 1384 350.2 1325.8 362.9 1266.6 365.25 1289.9 359.55 1311.2 348.2 1356.9490234375 331.95234375 1393.5 309 1395.54453125 307.7423828125 1397.55 306.45 1407.4123046875 300.0677734375 1416.55 293.2 1417.2982421875 292.6609375 1418 292.1 1418.648046875 291.648046875 1419.25 291.15 1419.645703125 290.8890625 1420 290.6 1423.51328125 287.9119140625 1426.9 285.15 1428.776171875 283.623828125 1431.1 281.65 1437.1001953125 276.605859375 1446.1 268.65 1470.25 247.2 1483.35 234.85 1503.2994140625 215.9869140625 1518.2 199.45 1518.41328125 199.2572265625 1518.6 199.05 1556.15 157.05 1573.9 115.55 1576.05 110.7 1580.1 100.8 1583.85 92.4 1587.7 86.85 1589.05 84.8 1588.7 83.65 1588.2 82.25 1586.3 82.4
M 1408.6 433.15
Q 1408.5681640625 432.71953125 1408.35 432.4 1429.54609375 434.149609375 1445.05 436.5 1426.45 442.55 1404.35 446.75 1400.537109375 447.4728515625 1396.5 448.15 1396.823046875 447.809375 1397.15 447.45 1401 443.25 1407.6 435.25 1408.65 433.95 1408.6 433.15 Z"/>

<path fill="#5B5D5E" stroke="none" d="
M 1408.35 432.4
Q 1408.5681640625 432.71953125 1408.6 433.15 1408.65 433.95 1407.6 435.25 1401 443.25 1397.15 447.45 1396.823046875 447.809375 1396.5 448.15 1400.537109375 447.4728515625 1404.35 446.75 1426.45 442.55 1445.05 436.5 1429.54609375 434.149609375 1408.35 432.4
M 1414 372.9
Q 1412.7859375 374.1271484375 1411.45 375.4 1406.7787109375 379.776171875 1401.3 384.15 1414.787109375 379.5416015625 1428.4 374.05 1443.2 368.05 1452.2 363.05 1457.85 359.95 1464.6 355.45 1468.25 353.05 1476.6 347.2 1496.65 333.15 1506.6 325.55 1522.95 313.05 1534.75 301.65 1478.91484375 327.1712890625 1423.65 343.2
L 1425.4 349.25
Q 1426.25 351.55 1426.25 353 1426.25 360.55078125 1414 372.9
M 1409.15 352.65
Q 1408.45 356.15 1407.85 357.85 1407.15 359.85 1404.7 364.2
L 1400.85 370.95
Q 1397.45 376.9 1394.45 380.4 1390.4833984375 385.1599609375 1385.85 387.4 1385.9142578125 387.355859375 1385.95 387.3 1386.9 385.9 1388.65 383.05 1389.55 381.75 1391.55 379.25 1392.3 378.15 1393.5 375.85 1395.45 372.25 1399.05 364.95 1400.45 361.95 1400.85 360.4 1401.45 358.1 1401.35 353.4 1401.35 351.9 1401 351.25 1400.75 350.75 1400.3 350.4 1399.8 350.1 1399.3 350.15 1398.35 350.3 1398 351.35
L 1399.2 351.85
Q 1399.6 356.5 1399.05 358.75 1398.65 360.4 1397.45 362.8
L 1395.55 366.85
Q 1393.9 370.45 1392.55 373.05 1391.3 375.4 1390.8 376.2 1390.1 377.3 1387.3 380.8 1383.4 385.8 1381.65 388.45 1380.4 390.35 1380.1 390.7 1380.005859375 390.8306640625 1379.9 390.95 1381.891015625 390.375390625 1383.85 389.75 1384.058984375 389.71953125 1384.25 389.65 1390.0546875 387.905078125 1395.9 385.95 1396.204296875 385.6173828125 1396.55 385.2 1397.1 384.65 1398.65 383.25 1400 382.05 1400.7 381.25 1401.7 380.15 1403.6 377.1 1407.2 371.1 1408.95 367.85 1411.75 362.65 1413.5 358.25 1415.35 353.7 1415 350.6 1414.75 348.55 1413.5 347 1413.1923828125 346.59765625 1412.85 346.25 1410.566015625 346.9015625 1408.25 347.5 1408.3068359375 347.6771484375 1408.35 347.85 1408.45 348.2 1408.9 349.2 1409.25 350 1409.35 350.55 1409.45 351.25 1409.15 352.65
M 1429.3 218.55
Q 1426.05 215.5 1421.4 213.5 1412.6330078125 209.7361328125 1405.35 211.75 1403.290625 213.2958984375 1401.2 214.85 1400.1193359375 215.65234375 1399.05 216.45 1397.4322265625 217.6513671875 1395.8 218.85 1395.1052734375 219.73671875 1395.2 220.4 1395.25 220.85 1395.75 221.2 1396.2 221.5 1396.7 221.5 1397.4 221.55 1398.7 221.05 1403.3 219.3 1408.2 219.25 1410.3158203125 219.25 1412.3 219.55 1415.114453125 220.0041015625 1417.7 221.05 1422.25 222.85 1425.7 226.45 1428.3279296875 229.190625 1429.8 232.45 1429.95 233.8640625 1429.95 235.5 1430.05 243.95 1428.95 250.1 1427.9 256.2 1425.2 263.4 1423.25 268.9 1418.65 279.5
L 1415.9 285.8
Q 1414.8 288.25 1414.95 289.7 1414.9634765625 289.840625 1415 289.95 1416.231640625 289.0458984375 1417.45 288.1 1420.0083984375 286.181640625 1422.55 284.2 1423.096484375 283.7619140625 1423.65 283.3 1424.9865234375 281.0240234375 1427.6 276.7 1431.65 269.55 1433.85 261.55 1435.45 255.45 1436.4 247.05 1437 241.4 1436.9 237.9 1436.7 232.8 1435.15 229 1434.84140625 228.2369140625 1434.45 227.5 1434.3505859375 226.85234375 1434.2 226.3 1433 222.05 1429.3 218.55
M 1513.75 197.55
Q 1517.87890625 193.0822265625 1521 189.45 1540.3 167.1 1555.55 141.7 1570.8 116.25 1581.25 88.7 1522.262109375 127.622265625 1464.65 168.65 1440.645703125 185.79140625 1416.85 203.25
L 1418.15 205
Q 1424.9 204 1427.25 204 1438.75 204 1444.2 208.05 1450.25 212.6 1450.25 223 1450.25 243.1 1440.8 264 1440.6408203125 264.3517578125 1440.45 264.7 1438.5560546875 268.884765625 1436.35 272.9 1439.7498046875 270.0171875 1443.3 266.85 1466.3357421875 246.6330078125 1496.55 215.6 1506.645703125 205.3138671875 1513.75 197.55
M 1421.55 242.1
Q 1420.6 237.1 1418.25 233.2 1415.6 228.8 1411.65 226.65 1409.9 225.6 1406.75 224.7 1400.5 222.95 1394.7 223.3 1391.20390625 223.5185546875 1388.15 224.55 1384.8923828125 227.033984375 1381.6 229.5 1382.6041015625 230.1279296875 1384.2 229.9 1384.85 229.8 1387.4 228.7 1392.7 226.3 1398.7 226.3 1404.65 226.3 1409.95 228.7 1413.05 230.05 1414.65 231.8 1416.35 233.65 1417.85 237.35 1421.1 245 1420.65 250.45 1420.45 252.65 1419.65 255.35 1419.2 256.9 1418 260.05 1412.8 273.7 1409.8 279.95 1406.85 286 1399.15 299
L 1396.9 302.75
Q 1399.1556640625 301.2560546875 1401.4 299.7
L 1403.2 296.6
Q 1408.2 287.9 1410.4 283.4 1411.7955078125 280.5509765625 1413.2 277.2 1414.224609375 274.8369140625 1415.25 272.2 1416.75 268.4 1419.5 260.75 1421.2 255.85 1421.65 253.65 1422.75 248.15 1421.55 242.1
M 1345.95 143.75
Q 1342.05 141.15 1339.25 140.45 1336.75 139.85 1333.15 140 1329.55 140.15 1325 141 1322.45 141.45 1317 142.75 1310.5 144.35 1307.15 145.75 1305.9583984375 146.2541015625 1304.9 146.8 1301.74375 150.5365234375 1298.7 154.1 1299.06015625 154.531640625 1299.8 154.65 1300.9 154.85 1302.1 154.4 1303.05 154 1306.3 152.4 1308.9 151.1 1310.6 150.65 1312.3 150.2 1315.3 149.95 1318.7 149.7 1320 149.45 1320.9595703125 149.2580078125 1322.45 148.75 1323.2912109375 148.5103515625 1324.3 148.15 1327.15 147.1 1328.55 146.8 1334.45 145.5 1340.5 148.25 1346.35 151 1349.75 156.3 1351.25 158.65 1352.5 161.85 1352.9060546875 162.878515625 1353.45 164.5 1353.85390625 165.702734375 1354.3 167.2 1354.3408203125 167.2486328125 1354.35 167.3 1354.428125 167.5201171875 1354.5 167.75 1356.4 173.7 1356.8 176.9 1357.75 183.95 1355.15 193.6 1353.7 199.1 1350.15 210.1 1349.85 211.3 1349.2 213.65 1348.6 215.65 1347.95 217.05 1347.3 218.5 1345.8 221.4 1344.65 223.95 1344.75 225.9 1344.842578125 227.753125 1345.9 228.45 1349.077734375 224.52578125 1352.15 220.55
L 1355.85 209.45
Q 1359.3 199.35 1360.55 193.75 1362.55 184.85 1362 177.6 1361.7 173.9 1360.6 169.4 1359.95 166.7 1358.35 161.35 1356.6 155.45 1355.1 152.85 1352.3 148 1345.95 143.75
M 1450.05 -14.05
Q 1451.15 -21.1 1451.6 -26.7
L 1377 61.6
Q 1358.5552734375 83.4373046875 1342.1 102.9 1327.1974609375 120.4962890625 1313.9 136.15
L 1314.75 136.8
Q 1323.891015625 132.178515625 1331 130.7 1334.3505859375 130 1337.25 130 1357.1 130 1364.25 140.05 1370.25 148.5 1370.25 170 1370.25 180.3 1367.25 191.7 1366.8130859375 193.3673828125 1366.45 195 1365.494921875 199.19921875 1364.95 203.3 1368.1232421875 198.8408203125 1371.2 194.3 1391.6154296875 164.3474609375 1407.75 131.85 1414.8 117.8 1418.95 107.05 1419.0736328125 106.7294921875 1419.2 106.4 1423.42109375 95.3150390625 1429.2 75.55 1436.45 50.5 1441.1 31.05 1446.9 7 1450.05 -14.05
M 1317.7 157.5
Q 1324.45 155.85 1329 155.7 1335.3 155.5 1339.75 157.95 1343.25 159.85 1346.1 163.5 1348.65 166.6 1349.7 169.95 1350.6 172.9 1350.4 176.7 1350.25 179.25 1349.5 183.6
L 1348.8 187.45
Q 1347.95 192.2 1347.35 194.85 1344.15 209.85 1337.7 223.95 1336.42109375 226.7267578125 1335.1 229.15 1334.9189453125 229.4888671875 1334.7 229.85
L 1321.5 250.5
Q 1320.65 251.8 1320.8 252.6 1321 253.45 1322 253.75 1323 254 1323.8 253.55 1324.346875 253.2517578125 1324.85 252.55 1325.3970703125 251.8314453125 1325.9 250.7 1328.5615234375 244.5041015625 1330.05 241.05 1330.9515625 240.178515625 1331.9 238.7 1337.946484375 229.29453125 1341.95 219.75 1345.4341796875 211.5794921875 1347.4 203.3
L 1350.45 188.65
Q 1351.45 183.6 1351.75 181.35 1352.35 177.25 1352.2 173.95 1352.075390625 170.9830078125 1351.35 168.25 1351.0150390625 166.88125 1350.5 165.55 1350.003125 164.2560546875 1349.35 163 1346.5 157.6 1341.7 155.05 1338.05 153.1 1333.1 152.8 1329.35 152.55 1324 153.2 1307.398046875 155.325 1292 162 1289.8146484375 164.5833984375 1287.65 167.1 1288.295703125 167.0576171875 1289.15 166.7 1303.25 161 1317.7 157.5
M 1298.5 492.55
Q 1298.6537109375 493.0439453125 1298.85 493.6 1299.35 496.7 1295.45 499.9 1289.4 504.7 1282 506 1279.5 506.45 1278.7 507.05 1277.95 507.6 1277.7 508.5 1277.45 509.45 1278 510.1 1278.75 510.95 1280.75 510.75 1287.15 510.05 1292.9 506.75 1298.65 503.5 1302.55 498.35 1304.3 496.1 1304.2 494.35 1304.2 493.976953125 1303.95 493.15 1303.8296875 493.088671875 1303.7 493 1303.25 492.6 1302.95 492.1 1300.6029296875 492.3591796875 1298.5 492.55
M 1284.6 493.75
Q 1284.34140625 493.758203125 1284.05 493.75 1283.80234375 493.790625 1283.5 493.8 1282.467578125 498.041796875 1280.45 500.9 1277.2 505.55 1271.25 507.5 1269.35 508.05 1268.45 508.4 1266.85 508.95 1265.9 509.75 1265.555078125 510.05859375 1265.35 510.35 1267.968359375 510.630859375 1270.55 510.85 1272.7927734375 510.0087890625 1273.85 509.4 1276.9 507.85 1279.15 505.05 1280.6 503.2 1281.9 500.55 1282.65 499.05 1284.05 495.65 1284.4482421875 494.58125 1284.6 493.75
M 1348.85 228.1
Q 1349.0326171875 227.9673828125 1349.2 227.8 1349.4693359375 227.5115234375 1349.75 227 1349.3041015625 227.552734375 1348.85 228.1
M 1341.7 501.85
Q 1345.25 500.05 1347.3 497.5 1341.001171875 496.9671875 1335.55 496.5 1317.7318359375 494.9556640625 1308.95 494.05 1309.25 495.1765625 1309.25 496.5 1309.25 503.5 1300.75 510.45 1300.4169921875 510.72265625 1300.05 510.95 1318.3302734375 509.60390625 1334.9 504.5 1339.15 503.15 1341.7 501.85
M 1302.4 461.3
Q 1302.750390625 461.9740234375 1303.4 463.1 1304.75 465.85 1303.6 469.45 1302.85 471.6 1300.5 475.15 1296.75 480.8 1294.4 483.5 1290.6 487.85 1286.55 489.9 1286.5654296875 490.0380859375 1286.6 490.15 1288.241015625 490.0728515625 1289.9 489.95 1289.94375 489.946484375 1290 489.95 1293.899609375 486.8787109375 1299.55 480 1303.6 475.05 1304.95 472.15 1307.3 467.15 1306.1 462.8 1305.85 461.9 1305.75 461.4 1305.716796875 461.223046875 1305.7 461.05 1304.0517578125 461.183203125 1302.4 461.3
M 1319.2 468.5
Q 1319.75 464.5 1318.75 460.95 1318.542578125 460.281640625 1318.45 459.75 1315.9103515625 460.0861328125 1313.35 460.35 1313.366015625 460.84609375 1313.45 461.4 1313.55 462.3 1313.85 464.1 1314.7 470.35 1310.15 476.75 1308.45 479.2 1305.8 481.85 1304.3 483.35 1300.85 486.45 1299.333203125 487.8583984375 1298.65 489.05 1301.89765625 488.709375 1305.7 488.2 1306.222265625 487.7322265625 1306.95 487.15 1313.75 481.65 1316.85 475.7 1318.7 472.2 1319.2 468.5
M 1329.2 426.35
Q 1328.43203125 426.2833984375 1327.65 426.2 1327.65 426.642578125 1327.75 427.1 1327.85 427.4 1328.3 428.65 1328.6 429.55 1328.65 430.2 1328.75 431.05 1328 432.95 1326.5 436.4 1324.05 440.05 1316.55 451.1 1304.55 456.85 1304.0189453125 457.0978515625 1303.6 457.35 1306.263671875 457.276953125 1308.95 457.15
L 1309 457.15
Q 1309.02734375 457.1609375 1309.05 457.15 1311.3 456.05 1313.2 454.6 1314.6 453.5 1317.7 450.25 1322.7 444.95 1324.55 442.25 1325.5 440.9 1327.95 436.8 1329.7 433.6 1330 431.9 1330.3 430.1 1329.7 427.85 1329.52421875 427.2126953125 1329.2 426.35
M 1373.45 399.25
Q 1374.9 399.1 1376.85 397.25 1376.926953125 397.17734375 1377 397.1 1374.5556640625 397.792578125 1372.1 398.45 1372.150390625 398.6958984375 1372.3 398.9 1372.65 399.35 1373.45 399.25
M 1342.25 429.4
Q 1342.065234375 428.4552734375 1341.7 427.7 1338.83125 427.4296875 1336 427.1 1335.869921875 427.59140625 1335.85 428.15 1335.85 428.5 1336.05 430.6 1336.45 436.95 1328.9 444.3 1323.85 449.2 1318.5 452.95 1316.25 454.55 1315.4 455.4 1314.8203125 455.96171875 1314.4 456.55 1318.834765625 455.99375 1323.25 455.3 1332.2818359375 450.593359375 1338.3 442.15 1343.35 435.15 1342.25 429.4
M 1382.25 455.6
Q 1383.4275390625 454.63984375 1384.55 453.65 1384.41015625 453.7005859375 1384.25 453.7 1384.532421875 453.5689453125 1384.8 453.4 1385.8 452.75 1388.15 451.05 1389.5435546875 450.0484375 1389.55 449.05 1394.4962890625 444.2607421875 1398.15 439.3 1388.7623046875 443.280859375 1379.15 446.6 1372.9599609375 448.75234375 1366.65 450.6 1366.094921875 450.148046875 1364.8 450.55 1346.36953125 455.703125 1327.55 458.55 1328.333203125 459.819921875 1328.8 461.6 1329.25 463.35 1329.25 464.5 1329.25 472.1 1322.8 480.3 1319.6958984375 484.2423828125 1316.2 486.8 1321.367578125 486.084765625 1324.5 485.5 1330.25 484.5 1334.7 483.1 1341.65 481 1349.5 476.85 1355 474 1363.35 468.65 1375.25 461.15 1382.25 455.6
M 1399.95 433.75
L 1399.1 431.7
Q 1368.25 429.8 1352.9 428.65 1351.0380859375 428.5087890625 1349.2 428.35 1351.127734375 437.6115234375 1344.9 446 1341.9482421875 449.9609375 1338.25 452.7 1342.1279296875 451.9556640625 1345.95 451.1 1373.8083984375 444.8541015625 1399.95 433.75
M 1396.55 308.2
L 1397.55 306.45
Q 1395.54453125 307.7423828125 1393.5 309 1393.51171875 309.144921875 1393.55 309.25 1393.75 309.7 1394.3 309.85 1394.8 309.95 1395.25 309.7 1395.8 309.4 1396.55 308.2
M 1416.55 293.2
Q 1416.7033203125 293.3173828125 1416.85 293.4 1417.35 293.65 1418 293.45 1418.55 293.25 1418.95 292.8 1419.5 292.25 1420 290.65 1420.009765625 290.621875 1420 290.6 1419.645703125 290.8890625 1419.25 291.15 1418.648046875 291.648046875 1418 292.1 1417.2982421875 292.6609375 1416.55 293.2 Z"/>
</g>

<path id="Layer3_0_1_STROKES" stroke="#000000" stroke-opacity="0.9686274509803922" stroke-width="1" stroke-linejoin="round" stroke-linecap="round" fill="none" d="
M 1288.2 517.6
Q 1285.778125 518.4677734375 1283.25 519"/>
</defs>

<g transform="matrix( 1, 0, 0, 1, 0,0) ">
<use xlink:href="#Layer3_0_FILL"/>

<use xlink:href="#Layer3_0_1_STROKES"/>
</g>
</svg>
