<?xml version="1.0" encoding="UTF-8" standalone="no"?>
<svg
   version="1.1"
   preserveAspectRatio="none"
   x="0px"
   y="0px"
   width="1920px"
   height="1080px"
   viewBox="0 0 1920 1080"
   id="svg3082"
   sodipodi:docname="eye tickle.svg"
   inkscape:version="1.2.2 (732a01da63, 2022-12-09)"
   xmlns:inkscape="http://www.inkscape.org/namespaces/inkscape"
   xmlns:sodipodi="http://sodipodi.sourceforge.net/DTD/sodipodi-0.dtd"
   xmlns="http://www.w3.org/2000/svg"
   xmlns:svg="http://www.w3.org/2000/svg">
  <sodipodi:namedview
     id="namedview3084"
     pagecolor="#ffffff"
     bordercolor="#666666"
     borderopacity="1.0"
     inkscape:showpageshadow="2"
     inkscape:pageopacity="0.0"
     inkscape:pagecheckerboard="0"
     inkscape:deskcolor="#d1d1d1"
     showgrid="true"
     inkscape:zoom="2.5208333"
     inkscape:cx="998.47934"
     inkscape:cy="482.38017"
     inkscape:window-width="1920"
     inkscape:window-height="1017"
     inkscape:window-x="-8"
     inkscape:window-y="-8"
     inkscape:window-maximized="1"
     inkscape:current-layer="svg3082">
    <inkscape:grid
       type="xygrid"
       id="grid4539" />
  </sodipodi:namedview>
  <defs
     id="defs3074">
    <g
       id="Symbol_2_0_Layer1_0_FILL">
      <path
         fill="#000000"
         stroke="none"
         d=" M 30.4 -41.6 Q 18.75 -43.4 4.85 -47.9 -4.35 -50.85 -19.95 -56.95 -32.6 -61.9 -39.25 -65.85 -47.5 -70.75 -52.35 -76.9 -54.95 -79.15 -57.25 -81.3 -61.2 -85 -63.8 -88.05 -62.45 -78.6 -56 -70.35 -51.8 -64.95 -46.15 -60.85 -47.1 -60.1 -48.05 -59.25 -50.25 -57.3 -52.4 -54.85 -52.85 -54.4 -53.3 -53.8 -54.65 -52.3 -56.3 -50.15 -56.6 -50.3 -56.85 -50.35 -57.1 -50.1 -57.4 -49.85 -58.05 -49.35 -58.85 -48.9 -60.25 -47.35 -61.7 -45.45 -62.45 -44.5 -63.2 -43.45 -63.45 -43.1 -63.7 -42.75 -66.95 -38.1 -69.7 -33.15 -78 -18.3 -81.8 -0.85 -86.8 22.4 -82.85 45.8 -78.4 71.65 -63.65 81.55 -53.75 88.2 -38.8 88.1 -26.35 88.1 -13.85 83.85 -8.9 82.15 -3.95 79.8 0.35 77.7 4.7 75.15 9.9 72.05 15.2 68.15 27.25 59.15 39.7 45.7 48.8 35.95 54.3 27.75 61.2 17.5 64.15 7.45 64.15 7.3 64.2 7.2 66.75 -1.85 66.55 -11.85 66.65 -12.55 66.75 -13.1 67.05 -15.35 67.3 -16.5 67.4 -17 67.55 -17.45 68.5 -17.15 69.4 -17.05 73.65 -16.4 77.9 -19.55 79.7 -20.9 81.05 -22.55 81.1 -22.65 81.15 -22.7 82.25 -24.1 82.3 -24.15 83 -24.9 83.75 -25.15 84.15 -25.3 84.45 -25.5 84.75 -25.8 84.5 -26 76.3 -26.8 68.25 -25.5 68.65 -27.2 68.8 -28.1 69.05 -29.75 68.65 -31.75 68.35 -31.75 68.05 -31.75 68.3 -32.15 68.4 -32.35 68.9 -33.05 69.15 -33.7 70.5 -33.75 72.15 -34.1 74.1 -34.5 78.05 -35.5 78.8 -35.6 80.2 -35.85 81.45 -36.15 82.2 -36.65 83.15 -37.3 83.45 -38.4 83.75 -39.6 83.05 -40.35 82.1 -41.35 79.8 -40.95 77.95 -40.6 72.85 -39 61.55 -39.35 55.15 -39.6 40.3 -40.05 30.4 -41.6 M 53.45 -34.75 Q 53.45 -33.7 53.85 -32.65 54.15 -31.75 54.35 -31.25 54.6 -29.55 54.7 -27.5 54.7 -27.35 54.7 -27.2 54.75 -24.55 54.55 -20.95 54.5 -20.55 54.5 -20.15 54.05 -12.25 52.85 -4.35 52.2 0.1 51.45 3.8 51.25 4.75 51.05 5.75 47.05 22.95 37.6 37.75 35.6 40.85 34.55 42.35 L 27.65 52.65 Q 25 55.45 22.3 58 22.1 58.15 21.95 58.35 20.35 59.8 18.75 61.15 18.25 61.6 17.75 62 10.25 68.3 1.95 73 -0.7 74.45 -3.45 75.8 -6.9 77.45 -10.4 78.85 -18.8 82.1 -27.45 83.5 -39 85.35 -49.15 83.2 -51.05 82.8 -52.8 82.25 -52.5298828125 81.940234375 -52.3 81.6 -53.8552734375 80.640234375 -55.2 79.4 -60.221484375 75.8751953125 -64.45 69.65 -67.7044921875 64.7794921875 -70.05 59.05 -73.10625 53.2298828125 -75.5 46.7 -77.8 31.6 -77.85 15.35 -77.880859375 -1.546875 -71.85 -12.7 -70.721875 -15.750390625 -69.35 -18.45 -69.949609375 -18.033203125 -70.55 -17.55 -70.4673828125 -17.7423828125 -70.4 -17.95 -69.7564453125 -19.35625 -69.1 -20.8 -66.8990234375 -25.47265625 -64.25 -29.95 -61.5 -34.75 -58.2 -39.3 -58.1 -39.5 -57.9 -39.7 -56.65 -41.45 -55.3 -43.2 -54.65 -44.05 -53.95 -44.85 -53.7 -45.25 -53.4 -45.55 -52.6 -46.55 -51.8 -47.5 -51.75 -47.55 -51.7 -47.55 -51.4 -47.95 -51.15 -48.3 L -51.1 -48.35 Q -50.7 -48.8 -50.2 -49.2 -49.3 -50.1 -48.4 -50.95 -47.45 -51.85 -46.55 -52.6 -43.5 -55.3 -40.95 -57.1 -40.75 -57.25 -40.55 -57.35 -39 -56.5 -36.75 -55.45 -34.6 -54.45 -31.75 -53.25 -30.05 -52.55 -28.05 -51.75 -4.15 -42.2 9.4 -38.6 30.65 -32.9 48.2 -34.25 50.35 -34.4 53.45 -34.75 Z"
         id="path3067" />
      <path
         fill="#4FE7DA"
         stroke="none"
         d=" M 33.35 -1.95 Q 33.35 -13 30.9 -17.1 28.75 -20.65 23.1 -21.1 15.05 -20.95 9.45 -21.05 -1.05 -21.3 -10.7 -24.25 -25.3 -28.65 -36.15 -34.45 -44.55 -38.9 -53.4 -45.55 -53.7 -45.25 -53.95 -44.85 -54.65 -44.05 -55.3 -43.2 -56.65 -41.45 -57.9 -39.7 -58.1 -39.5 -58.2 -39.3 -61.5 -34.75 -64.25 -29.95 -66.8990234375 -25.47265625 -69.1 -20.8 -69.7564453125 -19.35625 -70.4 -17.95 -70.4673828125 -17.7423828125 -70.55 -17.55 -69.949609375 -18.033203125 -69.35 -18.45 -70.721875 -15.750390625 -71.85 -12.7 -77.880859375 -1.546875 -77.85 15.35 -77.8 31.6 -75.5 46.7 -73.10625 53.2298828125 -70.05 59.05 -67.7044921875 64.7794921875 -64.45 69.65 -60.221484375 75.8751953125 -55.2 79.4 -53.8552734375 80.640234375 -52.3 81.6 -52.5298828125 81.940234375 -52.8 82.25 -51.05 82.8 -49.15 83.2 -39 85.35 -27.45 83.5 -18.8 82.1 -10.4 78.85 -6.9 77.45 -3.45 75.8 -0.7 74.45 1.95 73 9.3 63.85 16.2 51.9 33.35 22.25 33.35 -1.95 Z"
         id="path3069" />
      <path
         fill="#49D7CB"
         stroke="none"
         d=" M 30.9 -17.1 Q 33.35 -13 33.35 -1.95 33.35 22.25 16.2 51.9 9.3 63.85 1.95 73 10.25 68.3 17.75 62 18.25 61.6 18.75 61.15 20.35 59.8 21.95 58.35 22.1 58.15 22.3 58 25 55.45 27.65 52.65 L 34.55 42.35 Q 35.6 40.85 37.6 37.75 47.05 22.95 51.05 5.75 51.25 4.75 51.45 3.8 52.2 0.1 52.85 -4.35 54.05 -12.25 54.5 -20.15 54.5 -20.55 54.55 -20.95 54.75 -24.55 54.7 -27.2 54.7 -27.35 54.7 -27.5 54.6 -29.55 54.35 -31.25 54.15 -31.75 53.85 -32.65 53.45 -33.7 53.45 -34.75 50.35 -34.4 48.2 -34.25 30.65 -32.9 9.4 -38.6 -4.15 -42.2 -28.05 -51.75 -30.05 -52.55 -31.75 -53.25 -34.6 -54.45 -36.75 -55.45 -39 -56.5 -40.55 -57.35 -40.75 -57.25 -40.95 -57.1 -43.5 -55.3 -46.55 -52.6 -47.45 -51.85 -48.4 -50.95 -49.3 -50.1 -50.2 -49.2 -50.7 -48.8 -51.1 -48.35 L -51.15 -48.3 Q -51.4 -47.95 -51.7 -47.55 -51.75 -47.55 -51.8 -47.5 -52.6 -46.55 -53.4 -45.55 -44.55 -38.9 -36.15 -34.45 -25.3 -28.65 -10.7 -24.25 -1.05 -21.3 9.45 -21.05 15.05 -20.95 23.1 -21.1 28.75 -20.65 30.9 -17.1 Z"
         id="path3071" />
    </g>
  </defs>
  <path
     style="fill:#ffffff;fill-opacity:1;stroke:#ffffff;stroke-width:9.09545;stroke-linecap:round;stroke-linejoin:round;stroke-dasharray:none;stroke-dashoffset:0;stroke-opacity:1"
     id="path3775"
     sodipodi:type="arc"
     sodipodi:cx="1060.3638"
     sodipodi:cy="404.42975"
     sodipodi:rx="52.609299"
     sodipodi:ry="30.791119"
     sodipodi:start="3.660995"
     sodipodi:end="0.31400294"
     sodipodi:arc-type="slice"
     d="m 1014.6928,389.14623 a 52.609299,30.791119 0 0 1 66.9644,-12.87276 52.609299,30.791119 0 0 1 28.7435,37.66668 l -50.0369,-9.5104 z" />
  <path
     style="fill:#ffffff;fill-opacity:0;stroke:#ffffff;stroke-width:30;stroke-linecap:butt;stroke-linejoin:miter;stroke-dasharray:none;stroke-opacity:1"
     d="m 1119.8814,386.79367 c -48.0005,-46.45061 -90.2396,-29.66312 -101.4307,-22.94846 0,0 -12.6579,7.8571 -29.78032,26.53864 -21.4438,23.39648 -28.93015,59.9214 -32.06415,89.95092 1.9771,12.99262 5.21685,46.35778 24.07045,65.51818 l 36.92902,11.38794 c 44.1179,-4.70602 79.6602,-40.78275 94.2937,-61.0311 17.749,-31.42616 19.304,-76.40427 7.982,-109.41612 z"
     id="path1469"
     sodipodi:nodetypes="ccsccccc" />
  <g
     transform="matrix( 1, 0, 0, 1, 1052.15,454.65) "
     id="g3080">
    <g
       transform="matrix( 1, 0, 0, 1, 0,0) "
       id="g3078">
      <g
         id="use3076">
        <path
           fill="#000000"
           stroke="none"
           d="m 30.4,-41.6 q -11.65,-1.8 -25.55,-6.3 -9.2,-2.95 -24.8,-9.05 -12.65,-4.95 -19.3,-8.9 -8.25,-4.9 -13.1,-11.05 -2.6,-2.25 -4.9,-4.4 -3.95,-3.7 -6.55,-6.75 1.35,9.45 7.8,17.7 4.2,5.4 9.85,9.5 -0.95,0.75 -1.9,1.6 -2.2,1.95 -4.35,4.4 -0.45,0.45 -0.9,1.05 -1.35,1.5 -3,3.65 -0.3,-0.15 -0.55,-0.2 -0.25,0.25 -0.55,0.5 -0.65,0.5 -1.45,0.95 -1.4,1.55 -2.85,3.45 -0.75,0.95 -1.5,2 -0.25,0.35 -0.5,0.7 -3.25,4.65 -6,9.6 -8.3,14.85 -12.1,32.3 -5,23.25 -1.05,46.65 4.45,25.85 19.2,35.75 9.9,6.65 24.85,6.55 12.45,0 24.95,-4.25 4.95,-1.7 9.9,-4.05 4.3,-2.1 8.65,-4.65 5.2,-3.1 10.5,-7 12.05,-9 24.5,-22.45 9.1,-9.75 14.6,-17.95 6.9,-10.25 9.85,-20.3 0,-0.15 0.05,-0.25 2.55,-9.05 2.35,-19.05 0.1,-0.7 0.2,-1.25 0.3,-2.25 0.55,-3.4 0.1,-0.5 0.25,-0.95 0.95,0.3 1.85,0.4 4.25,0.65 8.5,-2.5 1.8,-1.35 3.15,-3 0.05,-0.1 0.1,-0.15 1.1,-1.4 1.15,-1.45 0.7,-0.75 1.45,-1 0.4,-0.15 0.7,-0.35 0.3,-0.3 0.05,-0.5 -8.2,-0.8 -16.25,0.5 0.4,-1.7 0.55,-2.6 0.25,-1.65 -0.15,-3.65 -0.3,0 -0.6,0 0.25,-0.4 0.35,-0.6 0.5,-0.7 0.75,-1.35 1.35,-0.05 3,-0.4 1.95,-0.4 5.9,-1.4 0.75,-0.1 2.15,-0.35 1.25,-0.3 2,-0.8 0.95,-0.65 1.25,-1.75 0.3,-1.2 -0.4,-1.95 -0.95,-1 -3.25,-0.6 -1.85,0.35 -6.95,1.95 -11.3,-0.35 -17.7,-0.6 -14.85,-0.45 -24.75,-2 m 23.05,6.85 q 0,1.05 0.4,2.1 0.3,0.9 0.5,1.4 0.25,1.7 0.35,3.75 0,0.15 0,0.3 0.05,2.65 -0.15,6.25 -0.05,0.4 -0.05,0.8 -0.45,7.9 -1.65,15.8 -0.65,4.45 -1.4,8.15 -0.2,0.95 -0.4,1.95 -4,17.2 -13.45,32 -2,3.1 -3.05,4.6 l -6.9,10.3 Q 25,55.45 22.3,58 q -0.2,0.15 -0.35,0.35 -1.6,1.45 -3.2,2.8 -0.5,0.45 -1,0.85 -7.5,6.3 -15.8,11 -2.65,1.45 -5.4,2.8 -3.45,1.65 -6.95,3.05 -8.4,3.25 -17.05,4.65 -11.55,1.85 -21.7,-0.3 -1.9,-0.4 -3.65,-0.95 0.270117,-0.309766 0.5,-0.65 -1.555273,-0.959766 -2.9,-2.2 -5.021484,-3.524805 -9.25,-9.75 -3.254492,-4.870508 -5.6,-10.6 -3.05625,-5.820117 -5.45,-12.35 -2.3,-15.1 -2.35,-31.35 -0.03086,-16.896875 6,-28.05 1.128125,-3.050391 2.5,-5.75 -0.599609,0.416797 -1.2,0.9 0.08262,-0.192383 0.15,-0.4 0.643555,-1.40625 1.3,-2.85 2.200977,-4.672656 4.85,-9.15 2.75,-4.8 6.05,-9.35 0.1,-0.2 0.3,-0.4 1.25,-1.75 2.6,-3.5 0.65,-0.85 1.35,-1.65 0.25,-0.4 0.55,-0.7 0.8,-1 1.6,-1.95 0.05,-0.05 0.1,-0.05 0.3,-0.4 0.55,-0.75 l 0.05,-0.05 q 0.4,-0.45 0.9,-0.85 0.9,-0.9 1.8,-1.75 0.95,-0.9 1.85,-1.65 3.05,-2.7 5.6,-4.5 0.2,-0.15 0.4,-0.25 1.55,0.85 3.8,1.9 2.15,1 5,2.2 1.7,0.7 3.7,1.5 23.9,9.55 37.45,13.15 21.25,5.7 38.8,4.35 2.15,-0.15 5.25,-0.5 z"
           id="path3086" />
      </g>
    </g>
  </g>
</svg>
