<?xml version="1.0" encoding="UTF-8" standalone="no"?>
<svg
   version="1.1"
   preserveAspectRatio="none"
   x="0px"
   y="0px"
   width="1920px"
   height="1080px"
   viewBox="0 0 1920 1080"
   id="svg3024"
   sodipodi:docname="eye idle raw.svg"
   inkscape:version="1.2.2 (732a01da63, 2022-12-09)"
   xmlns:inkscape="http://www.inkscape.org/namespaces/inkscape"
   xmlns:sodipodi="http://sodipodi.sourceforge.net/DTD/sodipodi-0.dtd"
   xmlns="http://www.w3.org/2000/svg"
   xmlns:svg="http://www.w3.org/2000/svg">
  <sodipodi:namedview
     id="namedview3026"
     pagecolor="#ffffff"
     bordercolor="#666666"
     borderopacity="1.0"
     inkscape:showpageshadow="2"
     inkscape:pageopacity="0.0"
     inkscape:pagecheckerboard="0"
     inkscape:deskcolor="#d1d1d1"
     showgrid="false"
     inkscape:zoom="2.5208333"
     inkscape:cx="1165.0909"
     inkscape:cy="393.12397"
     inkscape:window-width="1920"
     inkscape:window-height="1017"
     inkscape:window-x="-8"
     inkscape:window-y="-8"
     inkscape:window-maximized="1"
     inkscape:current-layer="svg3024" />
  <defs
     id="defs3016">
    <g
       id="Symbol_1_0_Layer1_0_FILL">
      <path
         fill="#000000"
         stroke="none"
         d=" M 70.45 -68.25 Q 65.85 -66.45 60.95 -66.95 58.45 -67.25 56.2 -67.75 51.05 -75.55 43.15 -80.6 26.3 -91.4 5.9 -90.9 -14.15 -90.4 -30.3 -78.45 -31.9 -77.25 -33.4 -76.05 -33.45 -76.05 -33.45 -76 -38.9 -71.6 -43.7 -66.65 -50.95 -59.15 -56.7 -50.3 -57.05 -49.85 -57.35 -49.35 -68.05 -32.6 -74.1 -13.75 -79.65 3.55 -80.85 21.55 -82.05 39.8 -78.45 57.8 -76.6 78.9 -58.4 86.3 -39.9 93.85 -20.4 89.1 L -18.8 87.8 Q -17.55 87.65 -15.3 87.1 -14.3 86.8 -13.45 86.55 L -14.55 87.45 Q -12.5 86.55 -10.5 85.65 -10.25 85.5 -9.95 85.4 -8.4 84.65 -6.8 83.9 -5.95 83.45 -5.1 83 2.35 79.25 9.3 74.7 9.85 74.3 10.4 73.95 15.95 70.25 21.2 66.05 32 57.5 40.8 47.15 43.35 44.1 45.7 40.95 46.15 40.35 46.6 39.75 47.3 38.8 47.95 37.85 48.65 36.9 49.3 35.9 55.05 27.5 59.25 18.25 61.9 12.4 63.95 6.25 68.8 -8.2 69.8 -23.15 70.35 -31.2 68.65 -39.15 67.65 -43.9 66.1 -48.4 64.25 -53.55 61.7 -58.4 64.1 -59.15 66.45 -60.4 68.45 -61.35 70.25 -62.75 72.25 -64.3 74.2 -65.95 76.15 -67.65 78.05 -69.45 80.6 -71.8 81.15 -75 79.1 -73.35 76.9 -71.85 75.7 -71.1 74.5 -70.35 72.6 -69.15 70.45 -68.25 M 56.85 -9.95 Q 56.7 -7.7 56.4 -5.45 56.1 -2.9 55.7 -0.35 54.7 5.6 53.15 11.5 51.6 17.35 49.5 23.1 48.4 26.05 47.2 29 47.15 29.05 47.15 29.1 46.4 30.8 45.6 32.55 43.6 36.95 41.15 41.05 34.4 52.2 24.4 60.95 18.75 65.9 12.65 70.15 11.75 70.8 10.8 71.4 5.75 74.75 0.45 77.7 -3.3 79.75 -7.2 81.55 L -7.6 81.9 Q -9.65 82.75 -10.8 83.2 -13 84.05 -14.9 84.65 L -14.4 84.25 Q -16.55 84.85 -18.7 85.45 -35.0333984375 90.5955078125 -51.4 84.6 -52.1951171875 84.513671875 -52.65 84.4 -53.6 84.15 -54.75 83.35 L -56.55 82.25 Q -56.9486328125 82.218359375 -57.35 82.15 L -57.7 81.5 Q -57.8822265625 81.3548828125 -58 81.2 -58.7498046875 81.175 -59.3 80.9 -59.9 80.65 -60.15 79.8 L -63.45 77.5 -63.9 76.55 -64.85 76.1 Q -65.15 75.4 -65.7 74.7 -68.75 70.85 -69.95 66.3 L -71.35 64.45 Q -71.5 62.55 -71.95 61.05 -75.85 47.6 -76.95 32.25 -76.3 24.5 -75.85 17.3 -75.44609375 10.8775390625 -74.25 5.15 -74.441015625 4.3390625 -74.3 3 -73.9310546875 -0.21875 -72.95 -3.25 -73.3943359375 -2.159375 -73.8 -1.05 -69.2 -18.15 -60.65 -33.7 -56.25 -41.8 -50.8 -49.05 -48.15 -52.65 -45.2 -56.05 -42.2 -59.5 -38.95 -62.75 -37.95 -63.8 -36.9 -64.8 -36.45 -65.25 -35.95 -65.65 -32.35 -69 -28.3 -71.55 -25.3 -73.45 -22.1 -74.9 -15.55 -77.85 -8.1 -78.9 10.5 -81.75 27.25 -72.9 45.1 -63.45 52.05 -44.15 55.05 -35.75 56.3 -27.15 57.45 -18.65 56.85 -9.95 Z"
         id="path3009" />
      <path
         fill="#4FE7DA"
         stroke="none"
         d=" M 31.8 -22.85 Q 27.15 -35.45 18.8 -45.6 10.25 -55.95 -0.6 -61.75 -12.15 -67.9 -24.55 -67.9 -30.2 -67.9 -35.65 -65.8 -35.8 -65.75 -35.95 -65.65 -36.45 -65.25 -36.9 -64.8 -37.95 -63.8 -38.95 -62.75 -42.2 -59.5 -45.2 -56.05 -48.15 -52.65 -50.8 -49.05 -56.25 -41.8 -60.65 -33.7 -69.2 -18.15 -73.8 -1.05 -73.3943359375 -2.159375 -72.95 -3.25 -73.9310546875 -0.21875 -74.3 3 -74.441015625 4.3390625 -74.25 5.15 -75.44609375 10.8775390625 -75.85 17.3 -76.3 24.5 -76.95 32.25 -75.85 47.6 -71.95 61.05 -71.5 62.55 -71.35 64.45 L -69.95 66.3 Q -68.75 70.85 -65.7 74.7 -65.15 75.4 -64.85 76.1 L -63.9 76.55 -63.45 77.5 -60.15 79.8 Q -59.9 80.65 -59.3 80.9 -58.7498046875 81.175 -58 81.2 -57.8822265625 81.3548828125 -57.7 81.5 L -57.35 82.15 Q -56.9486328125 82.218359375 -56.55 82.25 L -54.75 83.35 Q -53.6 84.15 -52.65 84.4 -52.1951171875 84.513671875 -51.4 84.6 -35.0333984375 90.5955078125 -18.7 85.45 -16.55 84.85 -14.4 84.25 L -7.2 81.55 Q -3.3 79.75 0.45 77.7 1.35 76.75 2.3 75.7 10.4 66.9 17.4 56.3 17.9 55.5 18.4 54.7 36.55 26.35 36.55 3 36.55 -10 31.8 -22.85 Z"
         id="path3011" />
      <path
         fill="#49D7CB"
         stroke="none"
         d=" M 18.8 -45.6 Q 27.15 -35.45 31.8 -22.85 36.55 -10 36.55 3 36.55 26.35 18.4 54.7 17.9 55.5 17.4 56.3 10.4 66.9 2.3 75.7 1.35 76.75 0.45 77.7 5.75 74.75 10.8 71.4 11.75 70.8 12.65 70.15 18.75 65.9 24.4 60.95 34.4 52.2 41.15 41.05 43.6 36.95 45.6 32.55 46.4 30.8 47.15 29.1 47.15 29.05 47.2 29 48.4 26.05 49.5 23.1 51.6 17.35 53.15 11.5 54.7 5.6 55.7 -0.35 56.1 -2.9 56.4 -5.45 56.7 -7.7 56.85 -9.95 57.45 -18.65 56.3 -27.15 55.05 -35.75 52.05 -44.15 45.1 -63.45 27.25 -72.9 10.5 -81.75 -8.1 -78.9 -15.55 -77.85 -22.1 -74.9 -25.3 -73.45 -28.3 -71.55 -32.35 -69 -35.95 -65.65 -35.8 -65.75 -35.65 -65.8 -30.2 -67.9 -24.55 -67.9 -12.15 -67.9 -0.6 -61.75 10.25 -55.95 18.8 -45.6 Z"
         id="path3013" />
    </g>
  </defs>
  <g
     transform="matrix( 1, 0, 0, 1, 1049.6,454.3) "
     id="g3022">
    <g
       transform="matrix( 1, 0, 0, 1, 0,0) "
       id="g3020">
      <g
         id="use3018">
        <path
           fill="#4fe7da"
           stroke="none"
           d="m 31.8,-22.85 q -4.65,-12.6 -13,-22.75 -8.55,-10.35 -19.4,-16.15 -11.55,-6.15 -23.95,-6.15 -5.65,0 -11.1,2.1 -0.15,0.05 -0.3,0.15 -0.5,0.4 -0.95,0.85 -1.05,1 -2.05,2.05 -3.25,3.25 -6.25,6.7 -2.95,3.4 -5.6,7 -5.45,7.25 -9.85,15.35 -8.55,15.55 -13.15,32.65 0.405664,-1.109375 0.85,-2.2 -0.981055,3.03125 -1.35,6.25 -0.141016,1.3390625 0.05,2.15 -1.196094,5.727539 -1.6,12.15 -0.45,7.2 -1.1,14.95 1.1,15.35 5,28.8 0.45,1.5 0.6,3.4 l 1.4,1.85 q 1.2,4.55 4.25,8.4 0.55,0.7 0.85,1.4 l 0.95,0.45 0.45,0.95 3.3,2.3 q 0.25,0.85 0.85,1.1 0.550195,0.275 1.3,0.3 0.117773,0.154883 0.3,0.3 l 0.35,0.65 q 0.401367,0.06836 0.8,0.1 l 1.8,1.1 q 1.15,0.8 2.1,1.05 0.454883,0.113672 1.25,0.2 16.366602,5.995508 32.7,0.85 2.15,-0.6 4.3,-1.2 l 7.2,-2.7 q 3.9,-1.8 7.65,-3.85 0.9,-0.95 1.85,-2 8.1,-8.8 15.1,-19.4 0.5,-0.8 1,-1.6 Q 36.55,26.35 36.55,3 q 0,-13 -4.75,-25.85 z"
           id="path3030" />
        <path
           fill="#49d7cb"
           stroke="none"
           d="m 18.8,-45.6 q 8.35,10.15 13,22.75 4.75,12.85 4.75,25.85 0,23.35 -18.15,51.7 -0.5,0.8 -1,1.6 -7,10.6 -15.1,19.4 -0.95,1.05 -1.85,2 5.3,-2.95 10.35,-6.3 0.95,-0.6 1.85,-1.25 6.1,-4.25 11.75,-9.2 10,-8.75 16.75,-19.9 2.45,-4.1 4.45,-8.5 0.8,-1.75 1.55,-3.45 0,-0.05 0.05,-0.1 1.2,-2.95 2.3,-5.9 2.1,-5.75 3.65,-11.6 1.55,-5.9 2.55,-11.85 0.4,-2.55 0.7,-5.1 0.3,-2.25 0.45,-4.5 0.6,-8.7 -0.55,-17.2 -1.25,-8.6 -4.25,-17 -6.95,-19.3 -24.8,-28.75 -16.75,-8.85 -35.35,-6 -7.45,1.05 -14,4 -3.2,1.45 -6.2,3.35 -4.05,2.55 -7.65,5.9 0.15,-0.1 0.3,-0.15 5.45,-2.1 11.1,-2.1 12.4,0 23.95,6.15 10.85,5.8 19.4,16.15 z"
           id="path3032" />
      </g>
    </g>
  </g>
</svg>
