<?xml version="1.0" encoding="UTF-8" standalone="no"?>
<svg
   version="1.1"
   preserveAspectRatio="none"
   x="0px"
   y="0px"
   width="1920px"
   height="1080px"
   viewBox="0 0 1920 1080"
   id="svg17"
   sodipodi:docname="eye mask.svg"
   inkscape:export-filename="eye mask.svg"
   inkscape:export-xdpi="19.35"
   inkscape:export-ydpi="19.35"
   inkscape:version="1.2.2 (732a01da63, 2022-12-09)"
   xmlns:inkscape="http://www.inkscape.org/namespaces/inkscape"
   xmlns:sodipodi="http://sodipodi.sourceforge.net/DTD/sodipodi-0.dtd"
   xmlns="http://www.w3.org/2000/svg"
   xmlns:svg="http://www.w3.org/2000/svg">
  <sodipodi:namedview
     id="namedview19"
     pagecolor="#ffffff"
     bordercolor="#666666"
     borderopacity="1.0"
     inkscape:showpageshadow="2"
     inkscape:pageopacity="0.0"
     inkscape:pagecheckerboard="0"
     inkscape:deskcolor="#d1d1d1"
     showgrid="true"
     inkscape:zoom="2.5208333"
     inkscape:cx="966.34711"
     inkscape:cy="460.95868"
     inkscape:window-width="1920"
     inkscape:window-height="1017"
     inkscape:window-x="-8"
     inkscape:window-y="-8"
     inkscape:window-maximized="1"
     inkscape:current-layer="g13">
    <inkscape:grid
       type="xygrid"
       id="grid356" />
  </sodipodi:namedview>
  <defs
     id="defs9">
    <g
       id="Symbol_1_0_Layer1_0_FILL">
      <path
         fill="#000000"
         stroke="none"
         d=" M 70.45 -68.25 Q 65.85 -66.45 60.95 -66.95 58.45 -67.25 56.2 -67.75 51.05 -75.55 43.15 -80.6 26.3 -91.4 5.9 -90.9 -14.15 -90.4 -30.3 -78.45 -31.9 -77.25 -33.4 -76.05 -33.45 -76.05 -33.45 -76 -38.9 -71.6 -43.7 -66.65 -50.95 -59.15 -56.7 -50.3 -57.05 -49.85 -57.35 -49.35 -68.05 -32.6 -74.1 -13.75 -79.65 3.55 -80.85 21.55 -82.05 39.8 -78.45 57.8 -76.6 78.9 -58.4 86.3 -39.9 93.85 -20.4 89.1 L -18.8 87.8 Q -17.55 87.65 -15.3 87.1 -14.3 86.8 -13.45 86.55 L -14.55 87.45 Q -12.5 86.55 -10.5 85.65 -10.25 85.5 -9.95 85.4 -8.4 84.65 -6.8 83.9 -5.95 83.45 -5.1 83 2.35 79.25 9.3 74.7 9.85 74.3 10.4 73.95 15.95 70.25 21.2 66.05 32 57.5 40.8 47.15 43.35 44.1 45.7 40.95 46.15 40.35 46.6 39.75 47.3 38.8 47.95 37.85 48.65 36.9 49.3 35.9 55.05 27.5 59.25 18.25 61.9 12.4 63.95 6.25 68.8 -8.2 69.8 -23.15 70.35 -31.2 68.65 -39.15 67.65 -43.9 66.1 -48.4 64.25 -53.55 61.7 -58.4 64.1 -59.15 66.45 -60.4 68.45 -61.35 70.25 -62.75 72.25 -64.3 74.2 -65.95 76.15 -67.65 78.05 -69.45 80.6 -71.8 81.15 -75 79.1 -73.35 76.9 -71.85 75.7 -71.1 74.5 -70.35 72.6 -69.15 70.45 -68.25 M 56.85 -9.95 Q 56.7 -7.7 56.4 -5.45 56.1 -2.9 55.7 -0.35 54.7 5.6 53.15 11.5 51.6 17.35 49.5 23.1 48.4 26.05 47.2 29 47.15 29.05 47.15 29.1 46.4 30.8 45.6 32.55 43.6 36.95 41.15 41.05 34.4 52.2 24.4 60.95 18.75 65.9 12.65 70.15 11.75 70.8 10.8 71.4 5.75 74.75 0.45 77.7 -3.3 79.75 -7.2 81.55 L -7.6 81.9 Q -9.65 82.75 -10.8 83.2 -13 84.05 -14.9 84.65 L -14.4 84.25 Q -16.55 84.85 -18.7 85.45 -35.0333984375 90.5955078125 -51.4 84.6 -52.1951171875 84.513671875 -52.65 84.4 -53.6 84.15 -54.75 83.35 L -56.55 82.25 Q -56.9486328125 82.218359375 -57.35 82.15 L -57.7 81.5 Q -57.8822265625 81.3548828125 -58 81.2 -58.7498046875 81.175 -59.3 80.9 -59.9 80.65 -60.15 79.8 L -63.45 77.5 -63.9 76.55 -64.85 76.1 Q -65.15 75.4 -65.7 74.7 -68.75 70.85 -69.95 66.3 L -71.35 64.45 Q -71.5 62.55 -71.95 61.05 -75.85 47.6 -76.95 32.25 -76.3 24.5 -75.85 17.3 -75.44609375 10.8775390625 -74.25 5.15 -74.441015625 4.3390625 -74.3 3 -73.9310546875 -0.21875 -72.95 -3.25 -73.3943359375 -2.159375 -73.8 -1.05 -69.2 -18.15 -60.65 -33.7 -56.25 -41.8 -50.8 -49.05 -48.15 -52.65 -45.2 -56.05 -42.2 -59.5 -38.95 -62.75 -37.95 -63.8 -36.9 -64.8 -36.45 -65.25 -35.95 -65.65 -32.35 -69 -28.3 -71.55 -25.3 -73.45 -22.1 -74.9 -15.55 -77.85 -8.1 -78.9 10.5 -81.75 27.25 -72.9 45.1 -63.45 52.05 -44.15 55.05 -35.75 56.3 -27.15 57.45 -18.65 56.85 -9.95 Z"
         id="path2" />
      <path
         fill="#4FE7DA"
         stroke="none"
         d=" M 31.8 -22.85 Q 27.15 -35.45 18.8 -45.6 10.25 -55.95 -0.6 -61.75 -12.15 -67.9 -24.55 -67.9 -30.2 -67.9 -35.65 -65.8 -35.8 -65.75 -35.95 -65.65 -36.45 -65.25 -36.9 -64.8 -37.95 -63.8 -38.95 -62.75 -42.2 -59.5 -45.2 -56.05 -48.15 -52.65 -50.8 -49.05 -56.25 -41.8 -60.65 -33.7 -69.2 -18.15 -73.8 -1.05 -73.3943359375 -2.159375 -72.95 -3.25 -73.9310546875 -0.21875 -74.3 3 -74.441015625 4.3390625 -74.25 5.15 -75.44609375 10.8775390625 -75.85 17.3 -76.3 24.5 -76.95 32.25 -75.85 47.6 -71.95 61.05 -71.5 62.55 -71.35 64.45 L -69.95 66.3 Q -68.75 70.85 -65.7 74.7 -65.15 75.4 -64.85 76.1 L -63.9 76.55 -63.45 77.5 -60.15 79.8 Q -59.9 80.65 -59.3 80.9 -58.7498046875 81.175 -58 81.2 -57.8822265625 81.3548828125 -57.7 81.5 L -57.35 82.15 Q -56.9486328125 82.218359375 -56.55 82.25 L -54.75 83.35 Q -53.6 84.15 -52.65 84.4 -52.1951171875 84.513671875 -51.4 84.6 -35.0333984375 90.5955078125 -18.7 85.45 -16.55 84.85 -14.4 84.25 L -7.2 81.55 Q -3.3 79.75 0.45 77.7 1.35 76.75 2.3 75.7 10.4 66.9 17.4 56.3 17.9 55.5 18.4 54.7 36.55 26.35 36.55 3 36.55 -10 31.8 -22.85 Z"
         id="path4" />
      <path
         fill="#49D7CB"
         stroke="none"
         d=" M 18.8 -45.6 Q 27.15 -35.45 31.8 -22.85 36.55 -10 36.55 3 36.55 26.35 18.4 54.7 17.9 55.5 17.4 56.3 10.4 66.9 2.3 75.7 1.35 76.75 0.45 77.7 5.75 74.75 10.8 71.4 11.75 70.8 12.65 70.15 18.75 65.9 24.4 60.95 34.4 52.2 41.15 41.05 43.6 36.95 45.6 32.55 46.4 30.8 47.15 29.1 47.15 29.05 47.2 29 48.4 26.05 49.5 23.1 51.6 17.35 53.15 11.5 54.7 5.6 55.7 -0.35 56.1 -2.9 56.4 -5.45 56.7 -7.7 56.85 -9.95 57.45 -18.65 56.3 -27.15 55.05 -35.75 52.05 -44.15 45.1 -63.45 27.25 -72.9 10.5 -81.75 -8.1 -78.9 -15.55 -77.85 -22.1 -74.9 -25.3 -73.45 -28.3 -71.55 -32.35 -69 -35.95 -65.65 -35.8 -65.75 -35.65 -65.8 -30.2 -67.9 -24.55 -67.9 -12.15 -67.9 -0.6 -61.75 10.25 -55.95 18.8 -45.6 Z"
         id="path6" />
    </g>
  </defs>
  <g
     transform="matrix( 1, 0, 0, 1, 1049.6,454.3) "
     id="g15">
    <g
       transform="matrix( 1, 0, 0, 1, 0,0) "
       id="g13">
      <path
         style="fill:#ffffff;stroke:#ffffff;stroke-width:30;stroke-linecap:butt;stroke-linejoin:miter;stroke-dasharray:none;stroke-opacity:1;fill-opacity:0"
         d="m -57.374937,-45.500772 c -48.000513,-46.450605 -90.239603,-29.663113 -101.430693,-22.948459 0,0 -12.65789,7.857102 -29.78025,26.538643 -21.44378,23.396482 -25.35988,60.516437 -28.49392,90.545959 1.9771,12.99262 1.64656,45.76274 20.50023,64.923139 l 36.92901,11.38794 c 44.1179,-4.70602 79.660146,-40.782745 94.293617,-61.031099 17.749014,-31.426163 19.304042,-76.404267 7.982006,-109.416123 z"
         id="path1469"
         sodipodi:nodetypes="ccsccccc" />
      <g
         id="use11"
         transform="translate(26.367486,32.538599)">
        <path
           fill="#000000"
           stroke="none"
           d="m -80.742287,-81.714248 q -4.6,1.8 -9.5,1.3 -2.5,-0.3 -4.75,-0.8 -5.150003,-7.8 -13.050003,-12.85 -16.85,-10.800002 -37.25,-10.300002 -20.05,0.5 -36.2,12.450002 -1.6,1.2 -3.1,2.4 -0.05,0 -0.05,0.05 -5.45,4.4 -10.25,9.35 -7.25,7.5 -13,16.35 -0.35,0.45 -0.65,0.95 -10.7,16.75 -16.75,35.6 -5.55,17.2999999 -6.75,35.2999999 -1.2,18.2500001 2.4,36.2500001 1.85,21.1 20.05,28.5 18.5,7.55 38,2.8 l 1.6,-1.3 q 1.25,-0.15 3.5,-0.7 1,-0.3 1.85,-0.55 l -1.1,0.9 q 2.05,-0.9 4.05,-1.8 0.25,-0.15 0.55,-0.25 1.55,-0.75 3.15,-1.5 0.85,-0.45 1.7,-0.9 7.45,-3.75 14.4,-8.3 0.55,-0.4 1.1,-0.75 5.55,-3.7 10.8,-7.9 10.8,-8.55 19.6,-18.9 2.55,-3.05 4.9,-6.2 0.45,-0.6 0.9,-1.2 0.7,-0.95 1.35,-1.9 0.7,-0.95 1.35,-1.95 5.750003,-8.4 9.950003,-17.6500001 2.65,-5.85 4.7,-12 4.85,-14.4499999 5.85,-29.3999999 0.55,-8.05 -1.15,-16 -1,-4.75 -2.55,-9.25 -1.85,-5.15 -4.4,-10 2.4,-0.75 4.75,-2 2,-0.95 3.8,-2.35 2,-1.55 3.95,-3.2 1.95,-1.7 3.85,-3.5 2.55,-2.35 3.1,-5.55 -2.05,1.65 -4.25,3.15 -1.2,0.75 -2.4,1.5 -1.9,1.2 -4.05,2.1 m -13.6,58.3 q -0.15,2.25 -0.45,4.5 -0.3,2.55 -0.7,5.1 -1,5.9499999 -2.55,11.8499999 -1.55,5.85 -3.650003,11.6 -1.1,2.9500001 -2.3,5.9000001 -0.05,0.05 -0.05,0.1 -0.75,1.7 -1.55,3.45 -2,4.4 -4.45,8.5 -6.75,11.15 -16.75,19.9 -5.65,4.95 -11.75,9.2 -0.9,0.65 -1.85,1.25 -5.05,3.35 -10.35,6.3 -3.75,2.05 -7.65,3.85 l -0.4,0.35 q -2.05,0.85 -3.2,1.3 -2.2,0.85 -4.1,1.45 l 0.5,-0.4 q -2.15,0.6 -4.3,1.2 -16.33339,5.145508 -32.7,-0.85 -0.79511,-0.08633 -1.25,-0.2 -0.95,-0.25 -2.1,-1.05 l -1.8,-1.1 q -0.39863,-0.03164 -0.8,-0.1 l -0.35,-0.65 q -0.18222,-0.145117 -0.3,-0.3 -0.7498,-0.025 -1.3,-0.3 -0.6,-0.25 -0.85,-1.1 l -3.3,-2.3 -0.45,-0.95 -0.95,-0.45 q -0.3,-0.7 -0.85,-1.4 -3.05,-3.85 -4.25,-8.4 l -1.4,-1.85 q -0.15,-1.9 -0.6,-3.4 -3.9,-13.45 -5,-28.8 0.65,-7.75 1.1,-14.9500001 0.40391,-6.422461 1.6,-12.15 -0.19101,-0.8109375 -0.05,-2.1499999 0.36895,-3.21875 1.35,-6.25 -0.44433,1.090625 -0.85,2.2 4.6,-17.1 13.15,-32.65 4.4,-8.1 9.85,-15.35 2.65,-3.6 5.6,-7 3,-3.45 6.25,-6.7 1,-1.05 2.05,-2.05 0.45,-0.45 0.95,-0.85 3.6,-3.35 7.65,-5.9 3,-1.9 6.2,-3.35 6.55,-2.95 14,-4 18.6,-2.85 35.35,6 17.85,9.45 24.800003,28.75 3,8.4 4.25,17 1.15,8.5 0.55,17.2 z"
           id="path283" />
      </g>
    </g>
  </g>
</svg>
