
<svg xmlns="http://www.w3.org/2000/svg" version="1.1" xmlns:xlink="http://www.w3.org/1999/xlink" preserveAspectRatio="none" x="0px" y="0px" width="1920px" height="1080px" viewBox="0 0 1920 1080">
<defs>
<g id="Symbol_1_0_Layer1_0_FILL">
<path fill="#000000" stroke="none" d="
M 70.45 -68.25
Q 65.85 -66.45 60.95 -66.95 58.45 -67.25 56.2 -67.75 51.05 -75.55 43.15 -80.6 26.3 -91.4 5.9 -90.9 -14.15 -90.4 -30.3 -78.45 -31.9 -77.25 -33.4 -76.05 -33.45 -76.05 -33.45 -76 -38.9 -71.6 -43.7 -66.65 -50.95 -59.15 -56.7 -50.3 -57.05 -49.85 -57.35 -49.35 -68.05 -32.6 -74.1 -13.75 -79.65 3.55 -80.85 21.55 -82.05 39.8 -78.45 57.8 -76.6 78.9 -58.4 86.3 -39.9 93.85 -20.4 89.1
L -18.8 87.8
Q -17.55 87.65 -15.3 87.1 -14.3 86.8 -13.45 86.55
L -14.55 87.45
Q -12.5 86.55 -10.5 85.65 -10.25 85.5 -9.95 85.4 -8.4 84.65 -6.8 83.9 -5.95 83.45 -5.1 83 2.35 79.25 9.3 74.7 9.85 74.3 10.4 73.95 15.95 70.25 21.2 66.05 32 57.5 40.8 47.15 43.35 44.1 45.7 40.95 46.15 40.35 46.6 39.75 47.3 38.8 47.95 37.85 48.65 36.9 49.3 35.9 55.05 27.5 59.25 18.25 61.9 12.4 63.95 6.25 68.8 -8.2 69.8 -23.15 70.35 -31.2 68.65 -39.15 67.65 -43.9 66.1 -48.4 64.25 -53.55 61.7 -58.4 64.1 -59.15 66.45 -60.4 68.45 -61.35 70.25 -62.75 72.25 -64.3 74.2 -65.95 76.15 -67.65 78.05 -69.45 80.6 -71.8 81.15 -75 79.1 -73.35 76.9 -71.85 75.7 -71.1 74.5 -70.35 72.6 -69.15 70.45 -68.25
M 56.85 -9.95
Q 56.7 -7.7 56.4 -5.45 56.1 -2.9 55.7 -0.35 54.7 5.6 53.15 11.5 51.6 17.35 49.5 23.1 48.4 26.05 47.2 29 47.15 29.05 47.15 29.1 46.4 30.8 45.6 32.55 43.6 36.95 41.15 41.05 34.4 52.2 24.4 60.95 18.75 65.9 12.65 70.15 11.75 70.8 10.8 71.4 5.75 74.75 0.45 77.7 -3.3 79.75 -7.2 81.55
L -7.6 81.9
Q -9.65 82.75 -10.8 83.2 -13 84.05 -14.9 84.65
L -14.4 84.25
Q -16.55 84.85 -18.7 85.45 -35.0333984375 90.5955078125 -51.4 84.6 -52.1951171875 84.513671875 -52.65 84.4 -53.6 84.15 -54.75 83.35
L -56.55 82.25
Q -56.9486328125 82.218359375 -57.35 82.15
L -57.7 81.5
Q -57.8822265625 81.3548828125 -58 81.2 -58.7498046875 81.175 -59.3 80.9 -59.9 80.65 -60.15 79.8
L -63.45 77.5 -63.9 76.55 -64.85 76.1
Q -65.15 75.4 -65.7 74.7 -68.75 70.85 -69.95 66.3
L -71.35 64.45
Q -71.5 62.55 -71.95 61.05 -75.85 47.6 -76.95 32.25 -76.3 24.5 -75.85 17.3 -75.44609375 10.8775390625 -74.25 5.15 -74.441015625 4.3390625 -74.3 3 -73.9310546875 -0.21875 -72.95 -3.25 -73.3943359375 -2.159375 -73.8 -1.05 -69.2 -18.15 -60.65 -33.7 -56.25 -41.8 -50.8 -49.05 -48.15 -52.65 -45.2 -56.05 -42.2 -59.5 -38.95 -62.75 -37.95 -63.8 -36.9 -64.8 -36.45 -65.25 -35.95 -65.65 -32.35 -69 -28.3 -71.55 -25.3 -73.45 -22.1 -74.9 -15.55 -77.85 -8.1 -78.9 10.5 -81.75 27.25 -72.9 45.1 -63.45 52.05 -44.15 55.05 -35.75 56.3 -27.15 57.45 -18.65 56.85 -9.95 Z"/>

<path fill="#4FE7DA" stroke="none" d="
M 31.8 -22.85
Q 27.15 -35.45 18.8 -45.6 10.25 -55.95 -0.6 -61.75 -12.15 -67.9 -24.55 -67.9 -30.2 -67.9 -35.65 -65.8 -35.8 -65.75 -35.95 -65.65 -36.45 -65.25 -36.9 -64.8 -37.95 -63.8 -38.95 -62.75 -42.2 -59.5 -45.2 -56.05 -48.15 -52.65 -50.8 -49.05 -56.25 -41.8 -60.65 -33.7 -69.2 -18.15 -73.8 -1.05 -73.3943359375 -2.159375 -72.95 -3.25 -73.9310546875 -0.21875 -74.3 3 -74.441015625 4.3390625 -74.25 5.15 -75.44609375 10.8775390625 -75.85 17.3 -76.3 24.5 -76.95 32.25 -75.85 47.6 -71.95 61.05 -71.5 62.55 -71.35 64.45
L -69.95 66.3
Q -68.75 70.85 -65.7 74.7 -65.15 75.4 -64.85 76.1
L -63.9 76.55 -63.45 77.5 -60.15 79.8
Q -59.9 80.65 -59.3 80.9 -58.7498046875 81.175 -58 81.2 -57.8822265625 81.3548828125 -57.7 81.5
L -57.35 82.15
Q -56.9486328125 82.218359375 -56.55 82.25
L -54.75 83.35
Q -53.6 84.15 -52.65 84.4 -52.1951171875 84.513671875 -51.4 84.6 -35.0333984375 90.5955078125 -18.7 85.45 -16.55 84.85 -14.4 84.25
L -7.2 81.55
Q -3.3 79.75 0.45 77.7 1.35 76.75 2.3 75.7 10.4 66.9 17.4 56.3 17.9 55.5 18.4 54.7 36.55 26.35 36.55 3 36.55 -10 31.8 -22.85 Z"/>

<path fill="#49D7CB" stroke="none" d="
M 18.8 -45.6
Q 27.15 -35.45 31.8 -22.85 36.55 -10 36.55 3 36.55 26.35 18.4 54.7 17.9 55.5 17.4 56.3 10.4 66.9 2.3 75.7 1.35 76.75 0.45 77.7 5.75 74.75 10.8 71.4 11.75 70.8 12.65 70.15 18.75 65.9 24.4 60.95 34.4 52.2 41.15 41.05 43.6 36.95 45.6 32.55 46.4 30.8 47.15 29.1 47.15 29.05 47.2 29 48.4 26.05 49.5 23.1 51.6 17.35 53.15 11.5 54.7 5.6 55.7 -0.35 56.1 -2.9 56.4 -5.45 56.7 -7.7 56.85 -9.95 57.45 -18.65 56.3 -27.15 55.05 -35.75 52.05 -44.15 45.1 -63.45 27.25 -72.9 10.5 -81.75 -8.1 -78.9 -15.55 -77.85 -22.1 -74.9 -25.3 -73.45 -28.3 -71.55 -32.35 -69 -35.95 -65.65 -35.8 -65.75 -35.65 -65.8 -30.2 -67.9 -24.55 -67.9 -12.15 -67.9 -0.6 -61.75 10.25 -55.95 18.8 -45.6 Z"/>
</g>
</defs>

<g transform="matrix( 1, 0, 0, 1, 1049.6,454.3) ">
<g transform="matrix( 1, 0, 0, 1, 0,0) ">
<use xlink:href="#Symbol_1_0_Layer1_0_FILL"/>
</g>
</g>
</svg>
