
<svg xmlns="http://www.w3.org/2000/svg" version="1.1" xmlns:xlink="http://www.w3.org/1999/xlink" preserveAspectRatio="none" x="0px" y="0px" width="1920px" height="1080px" viewBox="0 0 1920 1080">
<defs>
<g id="Layer4_0_FILL">
<path fill="#000000" stroke="none" d="
M 1054.6 408.6
Q 1056.3 409 1056.75 408.4 1055.65 407.9 1054.55 407.6 1048.55 405.45 1041.1 406.25 1037.55 406.65 1033.25 407.75 1030.55 408.4 1025.5 409.85
L 1018.85 411.8
Q 1020.5 413 1023 412.25 1023.5 412.1 1024.2 411.85 1025.3 411.5 1026.9 410.75 1028.15 410.2 1031.8 409.45 1039.4 407.9 1043.25 407.5 1049.7 407 1054.6 408.6
M 1101.1 434.9
L 1109.05 437.85
Q 1109.55 437.95 1110.1 437.8 1110.55 437.8 1110.4 437.45 1101.85 434.9 1093.15 428.65 1086.85 424.1 1078.1 415.65 1077.25 414.9 1076.5 414.6 1076 414.5 1075.65 414.5 1075.15 414.55 1074.9 414.85 1074.15 415.8 1075.4 417.45 1080.4 424.65 1087.75 428.95 1090.55 430.7 1094.3 432.25 1096.5 433.2 1101.1 434.9
M 1117.75 387.1
Q 1105 387.9 1096.4 390 1087.2 392.3 1080.45 396.7 1078.2 397.5 1075.9 398.35 1074.9 398.8 1074.25 399.15 1074.2 399.15 1074.2 399.2 1072.7 400.15 1072.4 401.25 1072.35 401.35 1072.3 401.5 1072.3 401.65 1072.35 401.85 1072.25 402 1072.3 402.1 1072.5 403.15 1073.25 403.75 1074.1 404.45 1075.1 404.5 1075.45 404.6 1075.9 404.55 1077.05 404.45 1079.05 403.8 1094.75 398.45 1111.4 397.7 1117.9 397.4 1132.65 398.1
L 1155.5 399.2
Q 1171.1 400 1179 400.8 1192.05 402.15 1202.15 404.85 1203.4 405.25 1211.05 407.4 1216.4 409 1220 409.65 1222.35 410.15 1224.65 410.4 1225.95 410.55 1227.2 410.65 1227.65 410.75 1228.15 410.8 1227.4 410.3 1226.85 409.3 1226.6 408.8 1226.3 408.4 1226.1 407.9 1225.9 407.5 1226.05 407.45 1226.3 407.45 1227.85 407.35 1230.05 407.15 1230.35 407.15 1230.75 407.05 1234.3 406.7 1236.5 406.25 1237.3 406.05 1237.85 405.9 1239.85 405.5 1241.55 404.8 1243.2 404.05 1244.55 403.2 1245.65 402.5 1248.9 399.65 1251.6 397.25 1253.5 396.5 1254.45 395.95 1254.5 396 1255.05 395.35 1254.7 394.8 1252.75 395.5 1250.1 395.9 1247.05 396.05 1245.5 396.3 1243.65 396.55 1239.65 397.4 1239.45 397.45 1239.2 397.5 1238.05 397.75 1237.05 397.95 1234.15 398.5 1232.4 398.8 1232.05 398.85 1231.75 398.9 1230.3 399.1 1229 399.2 1227.45 399.3 1226.15 399.25 1224.9 399.25 1223.75 399.15 1223.4 399.05 1223.05 399 1222.15 398.7 1221.2 398.45 1205.6 393.85 1197.55 391.9 1184.2 388.6 1173.35 387.55 1167.1 387 1154.6 386.8 1132.65 386.4 1117.75 387.1
M 1071.4 394.9
Q 1071.5 395.2 1071.7 395.55 1071.85 395.85 1072.15 395.75 1072.2 394.6 1073.2 392.55
L 1074.15 390.95
Q 1075.65 388.1 1076.6 386.75 1078 384.75 1078.9 383.55 1081.05 381.05 1085.45 377.2 1090.4 372.5 1093.6 370.25 1097.1 367.7 1103.25 364.3 1106.45 362.4 1108.5 361.8 1109.2 361.7 1110.65 361.25 1111.9 360.85 1112.75 360.3
L 1112.35 359.6
Q 1107.1 360.4 1102.2 362.65 1101.5 362.85 1100.9 363.2 1100.35 363.4 1099.85 363.65 1095.9 365.7 1091.35 369.25 1089.1 371.05 1086.95 373.05 1083.05 376.5 1079.75 380.2 1077.75 382.4 1076.5 384.05
L 1075.2 385.95
Q 1074.1 387.5 1073.4 389.15 1073.15 389.4 1073 389.8
L 1071.9 392.95
Q 1071.4 394.35 1071.4 394.9
M 1087.7 318.85
Q 1087.1 317.9 1085.9 317.65 1084.65 317.3 1083.65 317.75 1081.75 318.35 1080.1 320.75 1078 323.75 1077.1 327.1 1076.3 330.75 1076.9 334 1077.65 337.5 1080.1 340.15 1082.6 342.95 1086 343.7 1086.75 343.85 1088.35 344.15 1089.65 344.55 1090.2 345.45 1090.95 346.75 1091.5 346.4 1090.1 342.25 1087.35 339.1 1086.2 337.8 1085.5 337.2 1084.6 336.05 1083.95 335.1 1082.65 333.1 1082.75 330.15 1082.7 327.1 1084.15 324.05 1085.5 321.25 1087.7 318.85
M 1098.15 320
Q 1096.75 319.7 1095.5 321.15 1095 321.7 1094.55 322.4 1093.55 324.1 1093.4 326.4 1093.25 329.4 1094.65 332.15 1097 336.3 1103.25 339.85 1108.65 342.9 1119.25 346.3 1121.1 346.95 1125.25 348.3 1129 349.45 1134.7 351.3 1138.05 352.3 1142.1 353.6 1150.8 356.2 1162.5 359.85 1188.85 368.05 1205.4 374.35 1210.2 376.2 1213.2 377.35 1217.45 378.9 1217.9 379.1 1218.55 379.35 1219.3 379.6 1223.55 381.15 1227.4 382.25 1229 382.75 1230.6 383.1 1230.7 383.15 1230.85 383.2 1231.9 383.45 1233.05 383.8 1235 384.2 1237 384.6 1245.2 386.15 1253.7 386.1 1245.9 384.7 1236.65 381.8 1235.45 381.5 1234.3 381.1 1232.8 380.65 1231.05 380.1 1229.3 379.5 1227.35 378.85 1222.2 377.1 1215.45 374.6 1215.4 374.6 1215.35 374.6
L 1120.9 340.1
Q 1114.9 338 1111.95 336.6 1107.2 334.4 1103.8 331.8 1099.9 328.65 1099.7 325.65 1099.85 323.35 1099.6 322.2 1099.35 320.3 1098.15 320
M 1010.4 394
Q 1010.25 394 1010.05 394.05 1006.75 394.85 1005.6 396.3 1005.35 396.75 1005.3 397.2 1005.25 397.8 1005.65 398 1007.2 398.4 1009.15 398.05 1010.05 397.9 1011.35 397.55 1011.95 397.4 1012.75 397.2
L 1021.85 394.45
Q 1022.65 394.25 1023.35 394.1 1025.7 393.45 1027 393.4 1027.55 393.4 1030.8 393.65 1032.85 393.95 1034.3 393.5 1035.6 393.2 1035.9 393.25 1036.2 393.3 1037.05 393.65 1038.05 394.15 1039.65 394.45 1040.6 394.6 1042.35 394.75 1044.3 395.05 1046.5 395.6
L 1048.55 396.1
Q 1051.75 396.85 1053.1 397.5 1053.9 397.8 1055.2 398.6 1056.4 399.3 1057.35 399.45 1057.7 398.45 1056.75 397.6 1056.15 397.05 1054.95 396.6 1047.65 393.85 1039.85 393 1038.15 392.75 1037.35 392.6 1035.9 392.3 1035.05 391.45 1034.65 392.1 1033.45 392 1027.1 391.55 1026.1 391.55 1024.55 391.45 1023.25 391.5 1020.8 391.45 1018.75 391.8 1015.55 392.25 1010.4 394 Z"/>
</g>
</defs>

<g transform="matrix( 1, 0, 0, 1, 0,0) ">
<use xlink:href="#Layer4_0_FILL"/>
</g>
</svg>
