
<svg xmlns="http://www.w3.org/2000/svg" version="1.1" xmlns:xlink="http://www.w3.org/1999/xlink" preserveAspectRatio="none" x="0px" y="0px" width="1920px" height="1080px" viewBox="0 0 1920 1080">
<defs>
<g id="Layer4_0_FILL">
<path fill="#000000" stroke="none" d="
M 1010.9 487.75
Q 1010.45 488.85 1012.05 490.15 1018.7 495.75 1026.95 498 1030.1 499 1034.15 499.5 1036.45 499.9 1041.4 500.4
L 1049.85 501.15
Q 1050.35 501.15 1050.8 500.9 1051.25 500.75 1051 500.45 1042.15 500.2 1032.1 496.35 1024.85 493.55 1014.2 487.7 1013.2 487.1 1012.35 487.1 1011.83125 487.0505859375 1011.45 487.2 1011.10234375 487.3705078125 1010.9 487.75
M 1017.5 439.85
Q 1020.2 436.4 1025.25 431.6 1027.85 428.95 1029.7 427.8 1030.35 427.5 1031.65 426.7 1032.75 426 1033.4 425.3
L 1032.85 424.75
Q 1028.041015625 426.7876953125 1023.75 430.2 1023.2248046875 430.658984375 1022.65 431.1 1022.2646484375 431.476171875 1021.85 431.85 1018.5 434.8 1015.05 439.45 1013.35 441.75 1011.75 444.25 1008.9 448.55 1006.65 453 1005.3 455.65 1004.5 457.55
L 1003.75 459.75
Q 1003.1091796875 461.5525390625 1002.8 463.2 1002.7095703125 463.6423828125 1002.65 464.05
L 1002.35 467.35
Q 1002.25 468.8 1002.4 469.35 1002.55 469.65 1002.85 469.9 1003.05 470.15 1003.35 470 1003.1 468.85 1003.55 466.65
L 1004.05 464.85
Q 1004.8 461.7 1005.3 460.15 1006.15 457.9 1006.75 456.5 1008.15 453.5 1011.35 448.6 1015 442.85 1017.5 439.85
M 1179.45 422.05
Q 1177.8 423.2 1175.3 424.25 1172.4 425.3 1170.95 425.9 1169.25 426.6 1165.6 428.45 1165.3796875 428.563671875 1165.15 428.65 1164.1482421875 429.200390625 1163.2 429.65 1160.6205078125 430.9537109375 1158.85 431.7 1158.5759765625 431.836328125 1158.3 431.95 1157.005078125 432.4775390625 1155.75 432.9 1154.3603515625 433.3787109375 1153 433.7 1151.84140625 434.041015625 1150.7 434.25 1150.341796875 434.25 1149.95 434.25 1149.0630859375 434.2357421875 1148.1 434.2 1131.8 433.8 1123.5 433.95 1109.75 434.2 1099 436 1092.8 437.1 1080.7 440.1 1059.35 445.35 1045.15 449.9 1033.05 453.95 1025.3 458.2 1017 462.8 1011.55 468.75 1009.6 470.15 1007.6 471.55 1006.786328125 472.17578125 1006.2 472.75 1006.20234375 472.7994140625 1006.15 472.8 1005.0349609375 474.0763671875 1005 475.2 1004.9935546875 475.3677734375 1005 475.5 1005.02265625 475.70546875 1005.05 475.9 1005.103125 476.0271484375 1005.15 476.15 1005.55 477.05 1006.45 477.45 1007.45 477.9 1008.45 477.7 1008.7787109375 477.662109375 1009.15 477.55 1010.3314453125 477.170703125 1012.05 476.05 1025.85 466.75 1041.75 461.8 1047.95 459.8 1062.35 456.7
L 1084.8 451.85
Q 1100.05 448.6 1107.85 447.35 1120.85 445.25 1131.25 445.25 1132.6 445.3 1140.5 445.45 1146.1 445.6 1149.75 445.3 1152.1583984375 445.130078125 1154.45 444.8 1155.7453125 444.66015625 1157 444.45 1157.4509765625 444.3806640625 1157.9 444.3 1157.106640625 444.0115234375 1156.2 443.15 1155.8984375 442.8541015625 1155.55 442.45 1155.2 442.05 1154.9 441.7 1155.0640625 441.6482421875 1155.2 441.6 1156.770703125 441.0974609375 1158.75 440.35 1159.1037109375 440.2306640625 1159.45 440.1 1162.732421875 438.79453125 1164.8 437.8 1165.528515625 437.4546875 1166.1 437.15 1167.9009765625 436.1861328125 1169.35 435.05 1170.766015625 434.0072265625 1171.85 432.8 1172.7 431.85 1175.15 428.25 1177.1 425.3 1178.75 424 1179.55 423.2 1179.6 423.2 1179.95 422.45 1179.45 422.05
M 961.9 495.6
L 955.95 499.25
Q 957.9 499.95 960.1 498.6 960.566796875 498.3572265625 961.15 497.95 962.133984375 497.2591796875 963.45 496.1 964.5 495.3 967.85 493.55 974.85 490.15 978.45 488.8 984.5 486.65 989.7 486.9 991.4 486.9 991.7 486.2 990.5494140625 486.004296875 989.35 485.9 983.05078125 485.4509765625 976.05 488.15 972.7 489.45 968.8 491.6 966.35 492.95 961.9 495.6
M 950.7 479.95
Q 947.6865234375 481.213671875 943.15 484.1 943.03125 484.21484375 942.9 484.3 939.9 486 939.2 487.7 939.05 488.2 939.15 488.65 939.25 489.2 939.65 489.3 941.3 489.3 943.05 488.45 943.8865234375 488.0484375 945 487.4 945.605078125 487.08046875 946.25 486.7
L 954.4 481.7
Q 955.1109375 481.26875 955.75 480.9 957.8462890625 479.7333984375 959.15 479.35 959.65 479.2 962.85 478.65 964.9 478.35 966.15 477.6 967.3 476.95 967.6 476.9 967.95 476.9 968.85 477 969.95 477.25 971.65 477.1 972.55 477 974.3 476.7 976.2 476.5 978.5 476.45
L 980.6 476.4
Q 983.9 476.3 985.35 476.6 986.2 476.75 987.7 477.15 989.05 477.5 990 477.4 990.1 476.35 988.95 475.75 988.2 475.3 986.95 475.2 979.15 474.45 971.4 475.6 969.7 475.9 968.85 475.95 967.4 476 966.35 475.4 966.15 476.15 965 476.35 958.75 477.5 957.75 477.75 956.2728515625 478.0703125 954.95 478.45 952.5677734375 479.1126953125 950.7 479.95
M 1008.9 390.15
Q 1007.55 390.2 1006.65 391.9 1006.2865234375 392.58515625 1006.05 393.3 1005.5318359375 395.230859375 1006 397.5 1006.65 400.4 1008.7 402.7 1012.05 406.15 1019 407.95 1025.05 409.45 1036.1 410.1 1038.005859375 410.226171875 1042.4 410.4 1046.3453125 410.621484375 1052.3 410.85 1055.819140625 411.0255859375 1060.05 411.2 1069.0841796875 411.571484375 1081.35 412.05 1108.95 413.15 1126.6 414.95 1131.6849609375 415.521875 1134.8 415.85 1139.3767578125 416.3705078125 1139.85 416.4 1140.5708984375 416.46171875 1141.25 416.5 1145.9212890625 416.8849609375 1149.8 416.95 1151.56015625 417.0138671875 1153.15 417 1153.274609375 417 1153.4 417 1154.550390625 416.9974609375 1155.7 416.95 1157.70703125 416.9150390625 1159.7 416.75 1168.03046875 416.1396484375 1176.25 413.95 1168.3337890625 414.57265625 1158.6 414.2 1157.432421875 414.1607421875 1156.2 414.1 1154.62734375 414.03359375 1152.75 413.9 1150.9951171875 413.81796875 1148.95 413.65 1143.551171875 413.278125 1136.3 412.6 1136.2873046875 412.603515625 1136.25 412.6
L 1036.1 403.7
Q 1029.75 403.15 1026.55 402.6 1021.35 401.7 1017.4 400 1012.9 398.05 1011.9 395.15 1011.4 392.9 1010.95 391.9 1010.2 390.1 1008.9 390.15
M 994.35 391.7
Q 992.7 392.75 991.75 395.45 990.45 398.9 990.45 402.35 990.6 406.1 992.05 409.1 993.65 412.3 996.7 414.2 999.8 416.3 1003.3 416.1 1004.1 416.1 1005.65 416 1007.05 416.05 1007.8 416.75 1008.85 417.75 1009.3 417.35 1006.9 413.65 1003.35 411.35 1001.95 410.4 1001.2 410 999.95 409.15 999.15 408.4 997.35 406.75 996.65 403.9 995.85 401 996.45 397.65 997 394.55 998.55 391.75 997.75 390.95 996.5 391 995.25 391 994.35 391.7 Z"/>
</g>
</defs>

<g transform="matrix( 1, 0, 0, 1, 0,0) ">
<use xlink:href="#Layer4_0_FILL"/>
</g>
</svg>
