
<svg xmlns="http://www.w3.org/2000/svg" version="1.1" xmlns:xlink="http://www.w3.org/1999/xlink" preserveAspectRatio="none" x="0px" y="0px" width="1920px" height="1080px" viewBox="0 0 1920 1080">
<defs>
<g id="Layer8_0_FILL">
<path fill="#5B5D5E" stroke="none" d="
M 1413 329.5
Q 1410.55 330.95 1407.9 330.6
L 1402.5 335.35
Q 1421 335 1438.85 330.3 1457.45 325.4 1474.8 317.65 1491.65 310.25 1507.7 301.05 1519.6 294.15 1531.25 286.55
L 1542.35 277.9 1529.8 281.6
Q 1512.25 286.2 1494.05 289.35 1475.85 292.5 1457.55 294.55 1439.35 296.5 1421 297 1433.35 317.3 1413 329.5
M 1392.4 333.9
Q 1392.15 333.95 1391.8 334.05 1390.55 334.15 1389.65 335.1 1389.55 335.2 1389.45 335.4
L 1395 335.4
Q 1394.55 334.7 1394 334.35 1393.35 333.9 1392.4 333.9
M 1400.25 300.5
Q 1399.5 298.9 1398.65 297.6 1396.9 297.6 1395.1 297.65 1395.15 297.85 1395.35 298 1399.05 303.7 1398.35 310.95 1397.7 318.3 1392.95 323.05 1391.65 324.5 1387.85 327.3
L 1381.2 332.3
Q 1380.1 333.1 1379.5 333.75 1379.3 334.15 1378.95 335.5
L 1382.3 335.4
Q 1382.65 334.45 1383.4 333.75 1384.85 332.15 1387.3 330.55 1390.35 328.95 1391.8 328 1398.4 323.8 1400.85 315.75 1403.35 307.6 1400.25 300.5
M 1415.85 302.8
Q 1414.85 299.4 1412.65 297.3 1408.75 297.4 1404.9 297.6 1404.9 298.35 1405.05 299.25 1405.2 299.8 1406.25 302.3 1407.6 305.95 1406.9 310.8 1406.45 314.15 1404.6 319.5 1403.6 323.05 1402.15 324.45 1401.85 324.8 1399.45 326.55 1397.85 327.85 1397.4 329.15 1395.7 329.65 1394.4 330.9 1393.05 331.95 1392.4 333.7 1395.5 331.9 1399.25 330.95 1400.8 330.5 1401.65 330.3 1403.15 329.8 1404 329.35 1406.3 328.25 1408.45 325.9 1409.4 324.8 1410.3 323.6 1415.55 316.35 1416.4 310.25 1416.95 306.3 1415.85 302.8
M 1358.65 372
L 1358.6 372.65
Q 1377.25 373.1 1395.5 369.85 1413.25 366.9 1429.95 360.7 1448.4 354.15 1465.6 344.7 1480.2 336.75 1492.85 326.6 1470.6 334.8 1447.25 338.7 1429.65 341.6 1411.55 342.15
L 1403.05 343.15
Q 1402.8 361.15 1384.5 366.15 1381.8 366.9 1379.1 367.5 1369.05 370.1 1358.65 372
M 1329.2 377.45
Q 1328.25 377.95 1327.65 378.95 1333.85 379.65 1340.3 379.4 1345.6 379.2 1351 378.6
L 1355.1 377.9
Q 1356 377.9 1356.55 377.6 1347.85 377.5 1339.5 375.85 1338.6 375.65 1337.7 375.5 1335.6 376.3 1333.3 376.65 1331.75 376.65 1331.15 376.8 1329.95 376.95 1329.2 377.45
M 1321.15 370.25
Q 1320.75 370.15 1320.5 370.05 1319.55 369.6 1318.75 369.25 1317.95 371.95 1312.95 372.2 1310.65 372.3 1309.35 372.8 1308.9 372.9 1308.5 373.1 1309.6 373.8 1310.75 374.5 1313 374.15 1315.55 373.8 1319.35 373.35 1320.45 371.7 1320.65 371.3 1321.15 370.25
M 1333.25 368.25
Q 1333.05 368.7 1333.2 369.25 1335.85 370 1338.6 370.5 1339.4 370.65 1340.25 370.85
L 1344.95 370.2
Q 1348.15 369.85 1350.65 369.4 1352.4 368.9 1356.7 367.65
L 1372.65 362.4
Q 1376.15 361.1 1377.25 360.45 1379.7 358.85 1379.95 358.65 1380.2 358.6 1382.15 357.95 1384.35 357.15 1387.9 354.2 1391.3 351.6 1393.05 349.35 1395.55 346.35 1396 343.25 1396.05 342.5 1396.25 341.9 1391.8 341.45 1387.45 340.7 1386.95 343.4 1386.7 344.3 1385.95 346.3 1383.7 348.7 1381.8 350.65 1377.45 353.9 1375.45 355.5 1374.3 356.1 1373.85 356.3 1371.85 357.05 1370.45 357.65 1369.8 358.25
L 1367.15 360
Q 1366.45 360.55 1364.95 361.35
L 1356.35 366
Q 1355.05 366.45 1352.35 367.35 1349.45 368.1 1347.95 368.3 1345.3 368.45 1343.9 368.65 1341.95 368.95 1341.5 368.95 1340.25 369 1337.3 368.45 1334.75 368 1333.25 368.25
M 1321.95 364.85
Q 1321.6 364.8 1321.4 364.8 1322.7 365.5 1324.15 366.15 1325.8 366.8 1327.5 367.45 1341 364.6 1350.75 361 1359.65 357.65 1366.7 353.3 1370.55 350.75 1374 347.95 1378.95 343.75 1380.45 339.95 1380.55 339.5 1380.75 339 1379.3 338.6 1377.95 338.1 1376.65 341.2 1373.85 344 1371.25 346.8 1366.95 349.7 1356.95 356.4 1345.4 360.2 1333.9 364.05 1321.95 364.85 Z"/>

<path fill="#FFFFFF" stroke="none" d="
M 1412.65 297.3
Q 1414.85 299.4 1415.85 302.8 1416.95 306.3 1416.4 310.25 1415.55 316.35 1410.3 323.6 1409.4 324.8 1408.45 325.9 1406.3 328.25 1404 329.35 1403.15 329.8 1401.65 330.3 1400.8 330.5 1399.25 330.95 1395.5 331.9 1392.4 333.7 1393.05 331.95 1394.4 330.9 1395.7 329.65 1397.4 329.15 1397.85 327.85 1399.45 326.55 1401.85 324.8 1402.15 324.45 1403.6 323.05 1404.6 319.5 1406.45 314.15 1406.9 310.8 1407.6 305.95 1406.25 302.3 1405.2 299.8 1405.05 299.25 1404.9 298.35 1404.9 297.6 1401.75 297.55 1398.65 297.6 1399.5 298.9 1400.25 300.5 1403.35 307.6 1400.85 315.75 1398.4 323.8 1391.8 328 1390.35 328.95 1387.3 330.55 1384.85 332.15 1383.4 333.75 1382.65 334.45 1382.3 335.4
L 1389.45 335.4
Q 1389.55 335.2 1389.65 335.1 1390.55 334.15 1391.8 334.05 1392.15 333.95 1392.4 333.9 1393.35 333.9 1394 334.35 1394.55 334.7 1395 335.4
L 1402.5 335.35 1407.9 330.6
Q 1410.55 330.95 1413 329.5 1433.35 317.3 1421 297 1416.8 297.15 1412.65 297.3
M 1344.95 370.2
L 1340.25 370.85
Q 1349.3 372.5 1358.6 372.65
L 1358.65 372
Q 1369.05 370.1 1379.1 367.5 1381.8 366.9 1384.5 366.15 1402.8 361.15 1403.05 343.15
L 1411.55 342.15
Q 1403.75 342.75 1396.25 341.9 1396.05 342.5 1396 343.25 1395.55 346.35 1393.05 349.35 1391.3 351.6 1387.9 354.2 1384.35 357.15 1382.15 357.95 1380.2 358.6 1379.95 358.65 1379.7 358.85 1377.25 360.45 1376.15 361.1 1372.65 362.4
L 1356.7 367.65
Q 1352.4 368.9 1350.65 369.4 1348.15 369.85 1344.95 370.2
M 1312.2 375.15
Q 1314 376 1315.9 376.6 1320.05 377.35 1324.15 377.45 1324.25 378.05 1323.8 378.45 1325.75 378.8 1327.65 378.95 1328.25 377.95 1329.2 377.45 1329.95 376.95 1331.15 376.8 1331.75 376.65 1333.3 376.65 1335.6 376.3 1337.7 375.5 1329.15 373.5 1321.15 370.25 1320.65 371.3 1320.45 371.7 1319.35 373.35 1315.55 373.8 1313 374.15 1310.75 374.5 1311.45 374.8 1312.2 375.15
M 1333.2 369.25
Q 1333.05 368.7 1333.25 368.25 1334.75 368 1337.3 368.45 1340.25 369 1341.5 368.95 1341.95 368.95 1343.9 368.65 1345.3 368.45 1347.95 368.3 1349.45 368.1 1352.35 367.35 1355.05 366.45 1356.35 366
L 1364.95 361.35
Q 1366.45 360.55 1367.15 360
L 1369.8 358.25
Q 1370.45 357.65 1371.85 357.05 1373.85 356.3 1374.3 356.1 1375.45 355.5 1377.45 353.9 1381.8 350.65 1383.7 348.7 1385.95 346.3 1386.7 344.3 1386.95 343.4 1387.45 340.7 1384.15 339.9 1380.75 339 1380.55 339.5 1380.45 339.95 1378.95 343.75 1374 347.95 1370.55 350.75 1366.7 353.3 1359.65 357.65 1350.75 361 1341 364.6 1327.5 367.45 1330.3 368.4 1333.2 369.25
M 1376.05 337.5
Q 1372.55 336.25 1368.8 335.5
L 1378.95 335.5
Q 1379.3 334.15 1379.5 333.75 1380.1 333.1 1381.2 332.3
L 1387.85 327.3
Q 1391.65 324.5 1392.95 323.05 1397.7 318.3 1398.35 310.95 1399.05 303.7 1395.35 298 1395.15 297.85 1395.1 297.65 1388.45 297.8 1381.8 297.8 1363 297.9 1344.15 297.45 1325.35 297.1 1306.65 295.4 1288.05 293.95 1269.65 290.8 1252.7 287.95 1235.8 284.55 1222.7 281.75 1209.9 278.7 1198.5 277.1 1187.5 275.15 1181.45 273.95 1175.5 272.7 1169.3 271.35 1165.2 270.35 1159.65 268.8 1155.4 266.7 1155.15 266.65 1155 266.5 1157.45 273.45 1175.85 300.2 1195.25 328.6 1202.95 337.1
L 1208.85 339.05
Q 1215.95 349.5 1228 358.5 1230.6 360.55 1233.8 362.5 1241.5 367.6 1251.6 372.8 1255.55 374.85 1259.35 376.65 1271.15 382.1 1281.1 385.1 1297.65 390.05 1312.3 389.2
L 1293.5 376.7
Q 1291.05 375.05 1290.3 373.75 1289.8 372.7 1290 371.65 1290.15 370.35 1291 369.85 1292.45 368.95 1295.3 370.35 1302.85 373.85 1310.75 375.6 1308.75 373.8 1306.9 372 1307.65 372.65 1308.5 373.1 1308.9 372.9 1309.35 372.8 1310.65 372.3 1312.95 372.2 1317.95 371.95 1318.75 369.25 1313 366.6 1307.85 363.1 1305.7 361.5 1307 359.65 1308.15 357.95 1310.15 359 1315.5 362.3 1321.4 364.8 1321.6 364.8 1321.95 364.85 1333.9 364.05 1345.4 360.2 1356.95 356.4 1366.95 349.7 1371.25 346.8 1373.85 344 1376.65 341.2 1377.95 338.1 1377.05 337.8 1376.05 337.5 Z"/>

<path fill="#000000" stroke="none" d="
M 1450.9 290.6
Q 1437.35 291.4 1424 291.8 1407.7 292.2 1391.3 292.55 1375.65 292.9 1360.3 292.8 1342.5 292.6 1324.8 291.65 1310.65 290.9 1296.75 289.5 1281.8 287.9 1267 285.6 1249.1 282.7 1231.5 278.65 1220.3 276.15 1209.1 273.65 1205.95 272.55 1201.1 271.5
L 1156.8 261.45
Q 1153.45 260.6 1152.45 262.25 1151.85 263.3 1152.85 264.85 1153.6 265.9 1155 266.5 1155.15 266.65 1155.4 266.7 1159.65 268.8 1165.2 270.35 1169.3 271.35 1175.5 272.7 1181.45 273.95 1187.5 275.15 1198.5 277.1 1209.9 278.7 1222.7 281.75 1235.8 284.55 1252.7 287.95 1269.65 290.8 1288.05 293.95 1306.65 295.4 1325.35 297.1 1344.15 297.45 1363 297.9 1381.8 297.8 1388.45 297.8 1395.1 297.65 1396.9 297.6 1398.65 297.6 1401.75 297.55 1404.9 297.6 1408.75 297.4 1412.65 297.3 1416.8 297.15 1421 297 1439.35 296.5 1457.55 294.55 1475.85 292.5 1494.05 289.35 1512.25 286.2 1529.8 281.6
L 1542.35 277.9 1531.25 286.55
Q 1519.6 294.15 1507.7 301.05 1491.65 310.25 1474.8 317.65 1457.45 325.4 1438.85 330.3 1421 335 1402.5 335.35
L 1395 335.4 1389.45 335.4 1382.3 335.4 1378.95 335.5 1368.8 335.5
Q 1372.55 336.25 1376.05 337.5 1377.05 337.8 1377.95 338.1 1379.3 338.6 1380.75 339 1384.15 339.9 1387.45 340.7 1391.8 341.45 1396.25 341.9 1403.75 342.75 1411.55 342.15 1429.65 341.6 1447.25 338.7 1470.6 334.8 1492.85 326.6 1480.2 336.75 1465.6 344.7 1448.4 354.15 1429.95 360.7 1413.25 366.9 1395.5 369.85 1377.25 373.1 1358.6 372.65 1349.3 372.5 1340.25 370.85 1339.4 370.65 1338.6 370.5 1335.85 370 1333.2 369.25 1330.3 368.4 1327.5 367.45 1325.8 366.8 1324.15 366.15 1322.7 365.5 1321.4 364.8 1315.5 362.3 1310.15 359 1308.15 357.95 1307 359.65 1305.7 361.5 1307.85 363.1 1313 366.6 1318.75 369.25 1319.55 369.6 1320.5 370.05 1320.75 370.15 1321.15 370.25 1329.15 373.5 1337.7 375.5 1338.6 375.65 1339.5 375.85 1347.85 377.5 1356.55 377.6 1357.85 377.6 1359.15 377.55 1355 378.2 1351 378.6 1345.6 379.2 1340.3 379.4 1333.85 379.65 1327.65 378.95 1325.75 378.8 1323.8 378.45 1324.25 378.05 1324.15 377.45 1320.05 377.35 1315.9 376.6 1314 376 1312.2 375.15 1311.45 374.8 1310.75 374.5 1309.6 373.8 1308.5 373.1 1307.65 372.65 1306.9 372 1308.75 373.8 1310.75 375.6 1302.85 373.85 1295.3 370.35 1292.45 368.95 1291 369.85 1290.15 370.35 1290 371.65 1289.8 372.7 1290.3 373.75 1291.05 375.05 1293.5 376.7
L 1312.3 389.2
Q 1297.65 390.05 1281.1 385.1 1271.15 382.1 1259.35 376.65 1255.55 374.85 1251.6 372.8 1241.5 367.6 1233.8 362.5 1230.6 360.55 1228 358.5 1215.95 349.5 1208.85 339.05 1208.1 340 1209.25 342.1 1211.8 346.45 1215.2 350.55 1221.35 357.75 1230.6 364.15 1236.3 368.1 1243.9 372 1248.35 374.45 1257.75 378.85
L 1269.15 384.5
Q 1276.5 387.95 1279.75 389.2 1286.9 391.75 1296.25 392.8 1302 393.45 1313.2 393.8 1317.75 393.95 1320.05 393.25 1322.05 392.75 1322.55 391.35 1323.55 388.9 1319.55 386.3
L 1304.55 377.05
Q 1309.8 378.85 1314.95 379.4 1325.7 382.55 1336.75 382.15 1353.2 381.55 1369.8 379.35 1393.6 376.15 1416.7 369.8 1431.6 365.55 1445.55 358.9 1459.2 352.55 1472 344.95 1485.6 336.95 1498 327.1 1500 325.55 1500.35 322.85 1500.6 321.5 1499.45 320.75 1495.75 320.8 1492.15 322.05 1479.2 326.85 1465.75 330.2 1453.85 333.15 1441.6 334.6 1455.6 331 1469.05 325.65 1483.95 319.9 1497.9 312.15 1516.05 302.05 1533.3 290.45 1542.4 284.2 1551.3 277.2 1552.65 276.15 1551.65 274.6 1549.55 273.5 1547.3 273.75 1532.75 276.55 1518.3 279.85 1500.7 283.7 1482.85 286.85 1467 289.6 1450.9 290.6 Z"/>
</g>
</defs>

<g transform="matrix( 1, 0, 0, 1, 0,0) ">
<use xlink:href="#Layer8_0_FILL"/>
</g>
</svg>
