
<svg xmlns="http://www.w3.org/2000/svg" version="1.1" xmlns:xlink="http://www.w3.org/1999/xlink" preserveAspectRatio="none" x="0px" y="0px" width="1920px" height="1080px" viewBox="0 0 1920 1080">
<defs>
<g id="Layer8_0_FILL">
<path fill="#FFFFFF" stroke="none" d="
M 1090.3 191.9
Q 1087.95 192.25 1084.8 193.8 1081.35 195.75 1079.55 196.55 1076.7 197.75 1075.35 198.4 1072.9 199.55 1071.6 200.95 1071.2 201.35 1068.95 204.7 1067.4 206.95 1065.8 207.65 1065.6869140625 207.521875 1065.6 207.35 1065.0064453125 209.6580078125 1064.35 212.1 1056.984375 239.3654296875 1052 254.8 1051.2341796875 257.275 1050.5 259.45 1041.75 285.45 1031 304.5 1028.9875 308.0306640625 1027.15 310.45 1024.7048828125 316.0220703125 1023.65 318.2 1022.45 320.9 1021.3 322.85 1020.2 324.7 1018.35 327.15
L 1007.85 341.55
Q 1005.99765625 344.1345703125 1004.7 345.55 1004.7 345.77109375 1004.7 346 1004.7 351.5 1014.15 352.55 1017.2 352.9 1021.75 352.75 1024.15 352.7 1027.65 352.55 1051.8 352.55 1076.55 344.95 1085.4697265625 342.2150390625 1099.55 337.15 1097.853515625 337.0421875 1096.55 336.6 1094.7 336 1093.25 334.85 1091.7 333.55 1091 331.9 1092.95 333.35 1095.35 333.95 1097.4 334.5 1100 334.55 1101.75 334.55 1104.75 334.25 1107.1478515625 334 1109.2 333.65 1114.1650390625 332.8998046875 1117.2 331.7 1124 328.95 1126.75 323.65 1121.35 327.2 1114.85 328.45 1108.35 329.65 1102.05 328.35 1100.6 328.05 1100.05 327.4 1099.6 326.8 1099.75 325.9 1099.9 325.05 1100.5 324.45 1101.3 323.65 1103.35 323.05 1107.5 321.85 1115.95 319.65 1123.2 317.5 1127.75 314.5 1128.5962890625 313.9455078125 1129.6 313.15 1132.1384765625 311.1990234375 1135.75 307.8 1141.05 302.8 1143.05 300.6 1147.3 296 1152.75 288
L 1133.75 299
Q 1132.71015625 299.6328125 1131.8 300.1 1129.6822265625 301.25078125 1128.25 301.6 1125.8 302.3 1120.7 302 1117.7 301.8 1117.15 300.35 1116.45 298.4 1119.85 296.35 1124.1986328125 293.7130859375 1129.1 288.65 1129.5 288.272265625 1129.9 287.85 1130.6623046875 287.06328125 1131.6 286.05 1130.6955078125 286.139453125 1129.8 286.2 1130.004296875 285.1638671875 1130.6 283.85 1132.4 279.65 1132.7 275.05 1132.65 272.4 1131.05 270.1
L 1129.45 267.95
Q 1128.8138671875 266.91640625 1128.85 266 1128.79609375 266.0546875 1128.75 266.1 1125.8166015625 268.79296875 1123.6 270.85 1124.177734375 271.0001953125 1124.7 271.25 1125.85 271.85 1126.55 272.9 1127.05 273.8 1127.7 275.8 1127.9 276.3 1128.35 277.3 1128.7 278.15 1128.7 278.85 1128.65 279.7 1127.95 281.35 1127.7 282.2 1127.55 284 1127.3833984375 285.2138671875 1126.95 286.35 1125.4599609375 286.412890625 1123.95 286.45 1124.1837890625 285.58671875 1124.35 284.65 1124.75 282.4 1124.85 278.85 1124.85 276.85 1124.6 276.1 1124.2 274.55 1122.85 274.1 1122.75 274.05 1121.5 273.85 1121.11484375 273.773046875 1120.8 273.6 1120.2734375 274.2015625 1119.8 274.7 1114.8 279.8 1112.75 284.6
L 1109.4 284.55
Q 1110 281.3 1112.4 277.7 1112.85 276.95 1117 271.55 1120.75 266.7 1124.6 260.05 1126.95 255.95 1131.15 247.9 1134.55 241.3 1136.05 238.15 1136.34765625 237.5203125 1136.6 236.9 1137.9015625 234.128515625 1138.85 231.6 1137.99375 229.9662109375 1137.75 227.65 1137.65 226.5 1137.7 222.55 1137.85 214.1 1135 205.85 1133.75 202.6 1132.55 201 1130.7 198.55 1127.65 197.45 1124.6 196.3 1121.6 196.95 1118.45 198 1116.85 198.4 1116.5021484375 198.494921875 1116.15 198.55 1115.655859375 199.8474609375 1115.1 201.1 1114.9701171875 202.160546875 1114.8 203.15 1117.6802734375 202.586328125 1121.55 202.9 1129 203.5 1131.9 207.25 1133.5 209.3 1134.35 213.65 1136.05 221.95 1135.45 227.75 1135.3 229.2 1134.9 232.05 1134.7 234.55 1135.25 236.3 1133.95 236 1133.6 233.55 1133.25 231.05 1133.05 227.35 1132.9 223.2 1132.75 221.15 1132.6 218.75 1132.3 216.35 1131.9 213.4 1131.35 212.05 1130.5 209.9 1128.6 208.3 1126.8 206.75 1124.45 206 1120.1 204.7 1115.15 206.5 1114.61171875 206.701953125 1114.15 206.85 1113.4119140625 210.8587890625 1112.5 214.45 1110.85 221.25 1107.1 222.55 1110.048046875 216.21171875 1111.8 208.05 1109.98125 211.1068359375 1107.75 212.95
L 1110.15 205.85
Q 1110.04765625 205.6283203125 1109.9 205.3
L 1109.15 203.5
Q 1107.55 199.5 1106.05 197.9 1104.7 196.45 1102.2 195.1 1095.3 191.25 1090.3 191.9
M 1071.3 195.05
Q 1069.95 196.6 1069.35 197.2 1068.702734375 197.7435546875 1068.05 198.1 1067.229296875 201.3203125 1066.25 204.95 1069.26328125 200.402734375 1072.75 197.8 1074.65 196.45 1078.35 194.55
L 1085.9 190.7
Q 1088.55 189.3 1090.2 188.95 1092.95 188.25 1096.25 189 1100.05 189.8 1103.35 191.95 1106.65 194.1 1108.9 197.25 1110.1427734375 199.0201171875 1111.55 201.85
L 1112.7 198.45
Q 1112.5025390625 198.395703125 1112.3 198.3 1111.25 197.8 1110.3 196.65 1109.95 196.2 1108.75 194.4 1105.65 189.7 1101.2 186.95 1096.3 183.9 1091.25 184.15 1090.38125 184.201953125 1089.5 184.35 1086.9794921875 184.751953125 1084.35 185.9 1076.8 188.95 1071.3 195.05
M 1131.2 263.55
Q 1131.816796875 263.4623046875 1132.45 263.6 1134.35 263.95 1136 266.15 1139.6 270.8 1139.05 276.5 1138.9798828125 277.3181640625 1138.8 278.1 1138.8681640625 278.085546875 1138.9 278.05 1139.1447265625 277.8052734375 1139.35 277.6 1140.5853515625 275.7140625 1141.85 273.45 1142.25 271.262109375 1142.25 269 1142.25 265.35 1140.2 261.9 1138.9724609375 259.8697265625 1136.55 257.3 1133.9259765625 260.6603515625 1131.2 263.55
M 1072.45 180.45
Q 1072.033984375 182.3298828125 1071.6 184.15 1071.2736328125 185.5064453125 1070.9 187.05 1074.053515625 184.271875 1077.6 181.9 1080.85 179.75 1083.3 178.9 1086.35 177.9 1092.9 177.9 1097.15 178 1098.85 178.5 1100.9 179.15 1104.25 181.4 1108.4 184.15 1110.55 186.2 1113.0515625 188.6208984375 1114.3 191.25 1114.659375 187.866015625 1114.9 184.45
L 1113.1 184.5
Q 1113.2763671875 182.9822265625 1112.9 180.95 1112.2 177.05 1109.85 172.95 1104.1 163 1096.75 163 1088.65 163 1080.5 171.05 1075.55859375 176.9673828125 1072.45 180.45
M 1141.3 190
Q 1140.356640625 187.4689453125 1139.2 185.5 1135.370703125 179 1129.25 179 1126.053515625 179 1122.55 180.25 1120.891015625 185.8625 1118.9 191.35 1119.4779296875 191.241796875 1119.95 191.15 1122.8 190.5 1125.15 190.65 1128.35 190.85 1131.3 192.4 1134.2 193.95 1136.35 196.45 1138.4 198.85 1139.85 202.45 1140.9 205.05 1141.95 209.15 1142.763671875 212.292578125 1143.1 214.85 1143.2654296875 214.097265625 1143.4 213.25 1143.7798828125 210.9529296875 1144.2 208.1 1144.2234375 207.9427734375 1144.25 207.75 1144.25 207.640625 1144.25 207.5 1144.25 198 1141.3 190 Z"/>

<path fill="#000000" stroke="none" d="
M 1138.4 105.95
Q 1137.9765625 104.6662109375 1137.55 103.6 1135.75 99 1133.2 95.85 1131.05 93.15 1129.15 94.05 1129.4873046875 107.3515625 1129.5 113.65 1129.5 113.87421875 1129.5 114.1 1129.5 125.35 1128.7 134.15 1127.6 146.85 1124.7 159.45 1123.4 165.35 1121.6 171.5 1120.408984375 175.56953125 1118.2 182.25 1117.5193359375 184.3546875 1116.7 186.7 1116.843359375 185.15859375 1116.95 183.55 1116.9703125 183.2701171875 1117 183 1117.8115234375 171.4048828125 1117.85 159.5 1117.89140625 153.909375 1117.75 148.25 1117.34296875 132.54765625 1115.6 117.75 1113.1974609375 96.9560546875 1108.15 77.95 1104.047265625 62.2927734375 1098.15 47.85 1097.1 45.25 1095.6 43.8 1093.7 41.9 1091.7 42.55 1089.1 43.4 1088.55 48.6 1086.7193359375 66.5978515625 1084.3 84.45 1083.22421875 92.4009765625 1082 100.3 1081.264453125 105.344921875 1080.45 110.35 1079.56796875 115.876171875 1078.6 121.35 1072.287890625 158.43984375 1063.35 194.95 1063.159375 195.7560546875 1062.95 196.5 1057.8794921875 217.257421875 1051.95 237.8 1049.6171875 245.7953125 1047.55 252.05 1045.1240234375 259.617578125 1043.1 264.65 1039.65 273.4 1031.65 289.6
L 1018.1 317.15
Q 1018.1265625 317.1431640625 1018.15 317.1 1017.8705078125 317.619140625 1017.6 318.05 1016.85 319.25 1014.9 321.95
L 1002.6 338.8
Q 1000.45 341.65 999.7 343.6 998.55 346.75 999.7 349.1 1002.05 348.25 1004.3 346 1004.49375 345.79921875 1004.7 345.55 1005.99765625 344.1345703125 1007.85 341.55
L 1018.35 327.15
Q 1020.2 324.7 1021.3 322.85 1022.45 320.9 1023.65 318.2 1024.7048828125 316.0220703125 1027.15 310.45 1028.9875 308.0306640625 1031 304.5 1041.75 285.45 1050.5 259.45 1051.2341796875 257.275 1052 254.8 1056.984375 239.3654296875 1064.35 212.1 1065.0064453125 209.6580078125 1065.6 207.35 1065.9484375 206.15625 1066.25 204.95 1067.229296875 201.3203125 1068.05 198.1 1069.74296875 191.7017578125 1070.9 187.05 1071.2736328125 185.5064453125 1071.6 184.15 1072.033984375 182.3298828125 1072.45 180.45 1073.6501953125 175.27578125 1074.75 169.85 1079.3353515625 148.112109375 1082.75 123.1 1083.0048828125 121.25703125 1083.25 119.4 1083.736328125 115.7396484375 1084.2 111.8 1084.698828125 107.915234375 1085.15 103.75 1086.264453125 94.235546875 1087.3 83.4 1088.6876953125 69.7091796875 1090 53.9 1090.55 47.75 1093.75 47.15 1094.7435546875 49.091796875 1095.7 51.15 1101.1591796875 62.9259765625 1105.35 78.5 1106.06875 81.2115234375 1106.75 84 1110.9123046875 100.8388671875 1113.2 117.85 1117.612890625 150.854296875 1114.9 184.45 1114.659375 187.866015625 1114.3 191.25 1114.2591796875 191.8349609375 1114.2 192.4 1114.0638671875 193.703125 1113.9 194.95
L 1112.7 198.45 1111.55 201.85 1110.15 205.85 1107.75 212.95
Q 1109.98125 211.1068359375 1111.8 208.05 1110.048046875 216.21171875 1107.1 222.55 1110.85 221.25 1112.5 214.45 1113.4119140625 210.8587890625 1114.15 206.85 1114.5048828125 205.0525390625 1114.8 203.15 1114.9701171875 202.160546875 1115.1 201.1 1115.655859375 199.8474609375 1116.15 198.55 1117.60078125 194.9916015625 1118.9 191.35 1120.891015625 185.8625 1122.55 180.25 1126.838671875 166.026171875 1129.15 151.2 1132.179296875 131.6939453125 1131.65 112.25 1131.6580078125 111.2837890625 1131.6 110.3 1131.428125 104.4099609375 1130.9 98.5 1133.65 100 1135.45 103.4 1136.3294921875 105.0236328125 1137.1 107.45 1137.494140625 108.6076171875 1137.85 109.95 1142 125.25 1145.1 149.2 1146.3 158.75 1146.8 165.15 1147.5 173.9 1147.25 181.2 1147.05 187.15 1146.1 194.65 1145.6083984375 198.6322265625 1144.25 207.75 1144.2234375 207.9427734375 1144.2 208.1 1143.7798828125 210.9529296875 1143.4 213.25 1143.2654296875 214.097265625 1143.1 214.85 1142.8259765625 216.73046875 1142.55 218.15 1141.9076171875 221.544921875 1141.1 224.5 1140.6435546875 226.3609375 1140.1 228.05 1139.56171875 229.757421875 1138.85 231.6 1137.9015625 234.128515625 1136.6 236.9 1136.34765625 237.5203125 1136.05 238.15 1134.55 241.3 1131.15 247.9 1126.95 255.95 1124.6 260.05 1120.75 266.7 1117 271.55 1112.85 276.95 1112.4 277.7 1110 281.3 1109.4 284.55
L 1112.75 284.6
Q 1114.8 279.8 1119.8 274.7 1120.2734375 274.2015625 1120.8 273.6 1122.030078125 272.4169921875 1123.6 270.85 1125.8166015625 268.79296875 1128.75 266.1 1128.79609375 266.0546875 1128.85 266 1130.040234375 264.8263671875 1131.2 263.55 1133.9259765625 260.6603515625 1136.55 257.3 1136.56640625 257.2791015625 1136.55 257.25 1141.2125 251.3072265625 1145.55 243.95 1150.45 235.65 1158.45 219 1157.2302734375 233.2310546875 1153.2 246.65 1149.290234375 259.630078125 1142.75 271.85 1142.297265625 272.6798828125 1141.85 273.45 1140.5853515625 275.7140625 1139.35 277.6 1139.1447265625 277.8052734375 1138.9 278.05 1138.8681640625 278.085546875 1138.8 278.1 1134.43046875 283.0490234375 1131.6 286.05 1130.6623046875 287.06328125 1129.9 287.85 1129.5 288.272265625 1129.1 288.65 1124.1986328125 293.7130859375 1119.85 296.35 1116.45 298.4 1117.15 300.35 1117.7 301.8 1120.7 302 1125.8 302.3 1128.25 301.6 1129.6822265625 301.25078125 1131.8 300.1 1132.71015625 299.6328125 1133.75 299
L 1152.75 288
Q 1147.3 296 1143.05 300.6 1141.05 302.8 1135.75 307.8 1132.1384765625 311.1990234375 1129.6 313.15 1128.5962890625 313.9455078125 1127.75 314.5 1123.2 317.5 1115.95 319.65 1107.5 321.85 1103.35 323.05 1101.3 323.65 1100.5 324.45 1099.9 325.05 1099.75 325.9 1099.6 326.8 1100.05 327.4 1100.6 328.05 1102.05 328.35 1108.35 329.65 1114.85 328.45 1121.35 327.2 1126.75 323.65 1124 328.95 1117.2 331.7 1114.1650390625 332.8998046875 1109.2 333.65 1107.1478515625 334 1104.75 334.25 1101.75 334.55 1100 334.55 1097.4 334.5 1095.35 333.95 1092.95 333.35 1091 331.9 1091.7 333.55 1093.25 334.85 1094.7 336 1096.55 336.6 1097.853515625 337.0421875 1099.55 337.15 1101.49140625 337.3404296875 1103.95 337.1 1111.6 336.35 1118.25 332.75 1125.2 328.95 1129.25 322.85 1127.45 321.95 1124.85 322.25 1123.55 322.4 1120.25 323.3 1115.6 324.6 1110.45 325.15 1109.1 325.25 1109.05 324.5 1114.6 322.8 1117.45 321.75 1122 320.05 1125.35 318 1125.95 317.65 1129.45 315.15
L 1138.9 308.25
Q 1147.25 302.2 1151.1 298.25 1157.35 291.9 1159.4 285 1160.15 282.7 1159.5 281.3 1159.1 280.35 1158.15 279.95 1157.15 279.55 1156.4 280.1 1156 280.4 1155.7 281.05 1155.35 281.85 1155.15 282.2 1154.45 283.4 1152.55 284.65 1146.491015625 288.87578125 1139.8 292.05 1135.715625 293.966796875 1131.4 295.5 1128.4 296.5 1126.75 296.4 1131.548046875 291.2755859375 1135.95 285.65 1136.34375 285.595703125 1136.7 285.55 1152.31171875 269.7720703125 1158.85 239.55 1160 234 1161 227.35 1162.35 218 1161.7 211.8 1161.6 210.2 1160.9 209.55 1160.45 209.1 1159.8 209.1 1159.1 209.1 1158.85 209.65 1154.1 226.1 1145.15 241 1136.25 255.85 1123.95 267.8
L 1132.05 252.3
Q 1136.698046875 243.5203125 1139.2 238.15 1139.601953125 237.2798828125 1139.95 236.5 1143.9 227.55 1145.55 219.85 1146.8 214 1147.65 203.2 1148.9 188.85 1149.05 180.55 1149.4 166.7 1147.4 149.8 1145.1 130.85 1140.25 112.15 1139.309375 108.5888671875 1138.4 105.95 Z"/>

<path fill="#5B5D5E" stroke="none" d="
M 1124.45 206
Q 1126.8 206.75 1128.6 208.3 1130.5 209.9 1131.35 212.05 1131.9 213.4 1132.3 216.35 1132.6 218.75 1132.75 221.15 1132.9 223.2 1133.05 227.35 1133.25 231.05 1133.6 233.55 1133.95 236 1135.25 236.3 1134.7 234.55 1134.9 232.05 1135.3 229.2 1135.45 227.75 1136.05 221.95 1134.35 213.65 1133.5 209.3 1131.9 207.25 1129 203.5 1121.55 202.9 1117.6802734375 202.586328125 1114.8 203.15 1114.5048828125 205.0525390625 1114.15 206.85 1114.61171875 206.701953125 1115.15 206.5 1120.1 204.7 1124.45 206
M 1090.2 188.95
Q 1088.55 189.3 1085.9 190.7
L 1078.35 194.55
Q 1074.65 196.45 1072.75 197.8 1069.26328125 200.402734375 1066.25 204.95 1065.9484375 206.15625 1065.6 207.35 1065.6869140625 207.521875 1065.8 207.65 1067.4 206.95 1068.95 204.7 1071.2 201.35 1071.6 200.95 1072.9 199.55 1075.35 198.4 1076.7 197.75 1079.55 196.55 1081.35 195.75 1084.8 193.8 1087.95 192.25 1090.3 191.9 1095.3 191.25 1102.2 195.1 1104.7 196.45 1106.05 197.9 1107.55 199.5 1109.15 203.5
L 1109.9 205.3
Q 1110.04765625 205.6283203125 1110.15 205.85
L 1111.55 201.85
Q 1110.1427734375 199.0201171875 1108.9 197.25 1106.65 194.1 1103.35 191.95 1100.05 189.8 1096.25 189 1092.95 188.25 1090.2 188.95
M 1069.35 197.2
Q 1069.95 196.6 1071.3 195.05 1076.8 188.95 1084.35 185.9 1086.9794921875 184.751953125 1089.5 184.35 1090.38125 184.201953125 1091.25 184.15 1096.3 183.9 1101.2 186.95 1105.65 189.7 1108.75 194.4 1109.95 196.2 1110.3 196.65 1111.25 197.8 1112.3 198.3 1112.5025390625 198.395703125 1112.7 198.45
L 1113.9 194.95
Q 1114.0638671875 193.703125 1114.2 192.4 1114.2591796875 191.8349609375 1114.3 191.25 1113.0515625 188.6208984375 1110.55 186.2 1108.4 184.15 1104.25 181.4 1100.9 179.15 1098.85 178.5 1097.15 178 1092.9 177.9 1086.35 177.9 1083.3 178.9 1080.85 179.75 1077.6 181.9 1074.053515625 184.271875 1070.9 187.05 1069.74296875 191.7017578125 1068.05 198.1 1068.702734375 197.7435546875 1069.35 197.2
M 1124.7 271.25
Q 1124.177734375 271.0001953125 1123.6 270.85 1122.030078125 272.4169921875 1120.8 273.6 1121.11484375 273.773046875 1121.5 273.85 1122.75 274.05 1122.85 274.1 1124.2 274.55 1124.6 276.1 1124.85 276.85 1124.85 278.85 1124.75 282.4 1124.35 284.65 1124.1837890625 285.58671875 1123.95 286.45 1125.4599609375 286.412890625 1126.95 286.35 1127.3833984375 285.2138671875 1127.55 284 1127.7 282.2 1127.95 281.35 1128.65 279.7 1128.7 278.85 1128.7 278.15 1128.35 277.3 1127.9 276.3 1127.7 275.8 1127.05 273.8 1126.55 272.9 1125.85 271.85 1124.7 271.25
M 1119.95 191.15
Q 1119.4779296875 191.241796875 1118.9 191.35 1117.60078125 194.9916015625 1116.15 198.55 1116.5021484375 198.494921875 1116.85 198.4 1118.45 198 1121.6 196.95 1124.6 196.3 1127.65 197.45 1130.7 198.55 1132.55 201 1133.75 202.6 1135 205.85 1137.85 214.1 1137.7 222.55 1137.65 226.5 1137.75 227.65 1137.99375 229.9662109375 1138.85 231.6 1139.56171875 229.757421875 1140.1 228.05 1140.6435546875 226.3609375 1141.1 224.5 1141.9076171875 221.544921875 1142.55 218.15 1142.8259765625 216.73046875 1143.1 214.85 1142.763671875 212.292578125 1141.95 209.15 1140.9 205.05 1139.85 202.45 1138.4 198.85 1136.35 196.45 1134.2 193.95 1131.3 192.4 1128.35 190.85 1125.15 190.65 1122.8 190.5 1119.95 191.15
M 1132.45 263.6
Q 1131.816796875 263.4623046875 1131.2 263.55 1130.040234375 264.8263671875 1128.85 266 1128.8138671875 266.91640625 1129.45 267.95
L 1131.05 270.1
Q 1132.65 272.4 1132.7 275.05 1132.4 279.65 1130.6 283.85 1130.004296875 285.1638671875 1129.8 286.2 1130.6955078125 286.139453125 1131.6 286.05 1134.43046875 283.0490234375 1138.8 278.1 1138.9798828125 277.3181640625 1139.05 276.5 1139.6 270.8 1136 266.15 1134.35 263.95 1132.45 263.6
M 1153.2 246.65
Q 1157.2302734375 233.2310546875 1158.45 219 1150.45 235.65 1145.55 243.95 1141.2125 251.3072265625 1136.55 257.25 1136.56640625 257.2791015625 1136.55 257.3 1138.9724609375 259.8697265625 1140.2 261.9 1142.25 265.35 1142.25 269 1142.25 271.262109375 1141.85 273.45 1142.297265625 272.6798828125 1142.75 271.85 1149.290234375 259.630078125 1153.2 246.65
M 1062.95 196.5
Q 1063.159375 195.7560546875 1063.35 194.95 1063.0798828125 195.4267578125 1063 195.8 1062.914453125 196.1845703125 1062.95 196.5
M 1090 53.9
Q 1088.6876953125 69.7091796875 1087.3 83.4 1086.264453125 94.235546875 1085.15 103.75 1084.698828125 107.915234375 1084.2 111.8 1083.736328125 115.7396484375 1083.25 119.4 1083.0048828125 121.25703125 1082.75 123.1 1079.3353515625 148.112109375 1074.75 169.85 1073.6501953125 175.27578125 1072.45 180.45 1075.55859375 176.9673828125 1080.5 171.05 1088.65 163 1096.75 163 1104.1 163 1109.85 172.95 1112.2 177.05 1112.9 180.95 1113.2763671875 182.9822265625 1113.1 184.5
L 1114.9 184.45
Q 1117.612890625 150.854296875 1113.2 117.85 1110.9123046875 100.8388671875 1106.75 84 1106.06875 81.2115234375 1105.35 78.5 1101.1591796875 62.9259765625 1095.7 51.15 1094.7435546875 49.091796875 1093.75 47.15 1090.55 47.75 1090 53.9
M 1137.85 109.95
Q 1137.494140625 108.6076171875 1137.1 107.45 1136.3294921875 105.0236328125 1135.45 103.4 1133.65 100 1130.9 98.5 1131.428125 104.4099609375 1131.6 110.3 1131.6580078125 111.2837890625 1131.65 112.25 1132.179296875 131.6939453125 1129.15 151.2 1126.838671875 166.026171875 1122.55 180.25 1126.053515625 179 1129.25 179 1135.370703125 179 1139.2 185.5 1140.356640625 187.4689453125 1141.3 190 1144.25 198 1144.25 207.5 1144.25 207.640625 1144.25 207.75 1145.6083984375 198.6322265625 1146.1 194.65 1147.05 187.15 1147.25 181.2 1147.5 173.9 1146.8 165.15 1146.3 158.75 1145.1 149.2 1142 125.25 1137.85 109.95 Z"/>
</g>
</defs>

<g transform="matrix( 1, 0, 0, 1, 0,0) ">
<use xlink:href="#Layer8_0_FILL"/>
</g>
</svg>
