
<svg xmlns="http://www.w3.org/2000/svg" version="1.1" xmlns:xlink="http://www.w3.org/1999/xlink" preserveAspectRatio="none" x="0px" y="0px" width="1920px" height="1080px" viewBox="0 0 1920 1080">
<defs>
<g id="Layer8_0_FILL">
<path fill="#FFFFFF" stroke="none" d="
M 1210.1 184.3
Q 1209.920703125 184.2734375 1209.75 184.25 1205.3873046875 189.26875 1200.95 194.25 1188.45 208.2 1175.6 221.95 1162.7 235.75 1149 248.6 1135.4 261.4 1120.85 272.95 1107.35 283.7 1093.5 294 1082.824609375 301.8759765625 1071.9 309.4 1063.232421875 316.7373046875 1054.2 323.65 1049.4109375 327.362890625 1044.5 330.95 1039.3 334.75 1035.8 337 1030.95 340.1 1026.55 341.95 1026.3513671875 342.0369140625 1026.15 342.1 1032.9875 344.777734375 1065.2 349.1 1099.2 353.6 1110.75 353.6
L 1116.1 350.45
Q 1128.6 352.15 1143.35 349.2 1146.614453125 348.5443359375 1150.15 347.6 1159.0765625 345.260546875 1169.8 341.15 1173.9279296875 339.5689453125 1177.75 337.95 1189.736328125 332.8740234375 1198.65 327.45 1213.45 318.4 1222.55 306.95
L 1200.65 312.6
Q 1197.85 313.3 1196.4 312.95 1195.3 312.7 1194.6 311.8 1193.8 310.9 1193.95 309.85 1194.25 308.25 1197.15 307.05 1204.7701171875 303.7841796875 1211.35 299.1 1208.6845703125 299.40625 1206.15 299.5 1207.1314453125 299.3083984375 1208.05 299.05 1208.197265625 298.60625 1208.4 298.15 1208.95 296.95 1210.35 295.15 1213.5 291.25 1212 288.85 1206.16953125 291.3296875 1200.15 292.9 1197.55 293.4 1197 291.15 1196.5 289.15 1198.6 288.4 1204.699609375 286.5541015625 1210.45 284 1210.6228515625 283.7365234375 1210.85 283.45 1218.3 274.1 1223.1 262.95 1227.95 251.85 1229.65 240 1230.4 234.75 1230.1 230.95 1229.8193359375 227.021484375 1228.35 224 1227.5482421875 224.4796875 1226.7 224.95 1223.4 226.8 1220.35 229
L 1227 221.5
Q 1226.3583984375 220.3474609375 1226.25 219.95 1226.05 219.05 1226.25 217.7
L 1227 209.35
Q 1227.4 204.7 1227.25 202.8 1226.8 196 1221.85 190.65 1216.85 185.3 1210.1 184.3
M 1248.9 208.7
L 1253.8 201.65
Q 1249.05859375 207.82890625 1243.4 213 1243.87265625 213.4748046875 1244.25 213.95 1246.25 216.4 1246.9 220.25 1247.35 223.05 1247.1 227.35 1246.8 231.95 1245.95 234.05 1245.15 236 1245.05 236.2 1244.95 236.55 1244.55 239.3 1244.3 240.7 1242.9 244.15
L 1236.2 259.55
Q 1234.3 263.65 1233.4 265.25 1232.1 267.4 1230.25 270
L 1227.5 273.9
Q 1234.81953125 268.29140625 1241.2 261.45
L 1240.75 261
Q 1246.210546875 252.0177734375 1251.1 242.75 1252.3982421875 240.31171875 1253.65 237.85 1262.2 220.85 1248.9 208.7
M 1238.8 221.6
Q 1238.3771484375 220.7966796875 1236.6 218.55 1233.8697265625 220.6142578125 1230.9 222.45 1231.1728515625 222.8818359375 1231.45 223.35 1233.25 227.05 1233.05 233.5 1232.9076171875 237.893359375 1232.1 242.45 1230.72890625 250.705859375 1227.25 259.5 1223.4419921875 269.155859375 1216.4 281.05 1219.0544921875 279.6548828125 1221.55 278.05 1221.169140625 277.78828125 1220.95 277.35 1221.75 276.1 1223.85 274.5 1226.15 272.7 1226.95 271.75 1227.3 271.35 1228.35 269.7 1229.15 268.6 1230.8 266.5 1231.65 265.25 1233.05 262.45 1234.25 259.95 1234.7 258.65
L 1237 249.2
Q 1237.4 247.5 1237.5 246.65
L 1237.8 243.5
Q 1238 242.55 1238.45 241.15 1239.15 239.2 1239.25 238.8 1239.55 237.5 1239.85 234.9 1240.25 229.5 1240.05 226.75 1239.8 223.55 1238.8 221.6
M 1221.2 170.85
Q 1224.2884765625 170.723828125 1227.4 172.15 1230.8 173.75 1233.3 176.7 1237.3 181.45 1239.2 190.2 1239.51796875 191.703125 1239.65 193.05 1240.025390625 196.368359375 1239.35 198.75 1239.05 199.75 1238.35 201.1 1238 201.85 1237.2 203.35 1235.5 206.75 1234.7 210.25 1233.95 208.7 1233.95 206.9 1233.95 205.1 1234.65 203.5 1234 202.35 1234.15 200.3 1234.4 197.35 1234.35 196.9 1234.25 194.9 1232.35 191.7 1229.55 186.75 1227.45 184.25 1224.3 180.45 1220.6 179.05 1218.1 178.15 1217.6 177.9 1216.702734375 177.4232421875 1216.15 176.8 1214.1203125 179.2044921875 1212.05 181.6 1213.5259765625 181.7572265625 1215.25 182.3 1222.65 184.8 1227.05 192.05 1231.4 199.25 1230.15 207 1229.9 208.7 1229.1 212 1228.5 214.95 1228.75 217.05 1228.8669921875 218.06484375 1229.2 219.05
L 1234 213.7
Q 1233.9599609375 213.49453125 1233.95 213.3 1233.85 212 1234.55 210.95 1234.721484375 210.646484375 1234.9 210.4 1235.503515625 209.7208984375 1236.35 209.5 1236.9529296875 209.33359375 1237.7 209.5
L 1242.75 203.85 1242.75 196.75
Q 1244.85 194.95 1245.4 192.2 1249.95 168.85 1226.5 164.55 1223.8693359375 167.7171875 1221.2 170.85
M 1227.2 282.95
Q 1228.563671875 281.035546875 1229.3 278.85 1222.16875 284.0521484375 1214.35 287.8 1214.8 288.8 1214.9 289.15 1215.4 291.1 1213.3 294.25 1211.86640625 296.3873046875 1210.5 298.25 1211.2458984375 297.964453125 1211.95 297.65 1213.8396484375 296.8642578125 1215.6 295.9 1218.8123046875 293.279296875 1221.75 290.3 1222.23125 290.630859375 1222.3 291.2 1223.7943359375 289.9798828125 1225.2 288.7 1224.8072265625 287.6677734375 1225.05 286.6 1225.25 285.7 1225.9 284.7 1226.3 284.1 1227.2 282.95 Z"/>

<path fill="#000000" stroke="none" d="
M 1296.65 76.55
Q 1298.2 65.6 1298.85 54.35 1298.95 52.65 1297.2 52.3 1294.85 53.1 1293.65 55.05 1285.95 67.7 1278.7 80.6 1269.9 96.3 1260.3 111.65 1251.75 125.3 1241.75 137.95 1233.35 148.55 1224.65 158.8 1214.1 171.15 1203.45 183.6 1193.3 195.45 1182.8 206.9 1170.8 219.95 1158.3 232.45 1148.35 242.5 1138 251.9 1126.8 262 1115.1 271.45 1101 282.8 1086.25 293.35 1076.9505859375 299.9412109375 1067.55 306.5 1064.66875 308.1638671875 1060.65 311.05
L 1023.55 337.35
Q 1020.7 339.3 1021.25 341.1 1021.65 342.4 1023.45 342.55 1024.7638671875 342.6375 1026.15 342.1 1026.3513671875 342.0369140625 1026.55 341.95 1030.95 340.1 1035.8 337 1039.3 334.75 1044.5 330.95 1049.4109375 327.362890625 1054.2 323.65 1063.232421875 316.7373046875 1071.9 309.4 1082.824609375 301.8759765625 1093.5 294 1107.35 283.7 1120.85 272.95 1135.4 261.4 1149 248.6 1162.7 235.75 1175.6 221.95 1188.45 208.2 1200.95 194.25 1205.3873046875 189.26875 1209.75 184.25 1210.9013671875 182.9271484375 1212.05 181.6 1214.1203125 179.2044921875 1216.15 176.8 1218.7146484375 173.84765625 1221.2 170.85 1223.8693359375 167.7171875 1226.5 164.55 1238.45 150.5 1249.15 135.65 1259.9 120.7 1269.65 105.05 1279.4 89.4 1287.7 73.15
L 1293.35 61.45 1292.35 75.5
Q 1290.3 89.2 1287.45 102.7 1283.65 120.75 1277.95 138.25 1272.05 156.35 1263.25 173.5 1254.85 189.85 1242.75 203.85
L 1237.7 209.5 1234 213.7 1229.2 219.05 1227 221.5 1220.35 229
Q 1223.4 226.8 1226.7 224.95 1227.5482421875 224.4796875 1228.35 224 1229.67109375 223.2408203125 1230.9 222.45 1233.8697265625 220.6142578125 1236.6 218.55 1240.1599609375 215.9515625 1243.4 213 1249.05859375 207.82890625 1253.8 201.65 1265.5 187.9 1275.1 172.8 1287.85 152.85 1296.7 130.85 1295.65 147 1291.9 163.1 1287.45 182.25 1280.05 200.4 1273.3 217 1263.75 232.2 1253.9 247.9 1241.2 261.45 1234.81953125 268.29140625 1227.5 273.9 1226.859765625 274.408203125 1226.2 274.9 1223.936328125 276.5564453125 1221.55 278.05 1219.0544921875 279.6548828125 1216.4 281.05 1214.8580078125 281.91953125 1213.25 282.7 1211.858203125 283.3712890625 1210.45 284 1204.699609375 286.5541015625 1198.6 288.4 1196.5 289.15 1197 291.15 1197.55 293.4 1200.15 292.9 1206.16953125 291.3296875 1212 288.85 1212.8513671875 288.4828125 1213.7 288.1 1214.02421875 287.9478515625 1214.35 287.8 1222.16875 284.0521484375 1229.3 278.85 1230.0462890625 278.3755859375 1230.75 277.85 1237.6150390625 272.6794921875 1243.4 266.25 1244.2984375 265.2955078125 1245.15 264.3 1242.9173828125 267.7775390625 1240.55 271.1 1237.3740234375 275.5126953125 1233.95 279.65 1229.845703125 284.526171875 1225.2 288.7 1223.7943359375 289.9798828125 1222.3 291.2 1222.23125 290.630859375 1221.75 290.3 1218.8123046875 293.279296875 1215.6 295.9 1213.8396484375 296.8642578125 1211.95 297.65 1211.2458984375 297.964453125 1210.5 298.25 1209.3212890625 298.70078125 1208.05 299.05 1207.1314453125 299.3083984375 1206.15 299.5 1208.6845703125 299.40625 1211.35 299.1 1204.7701171875 303.7841796875 1197.15 307.05 1194.25 308.25 1193.95 309.85 1193.8 310.9 1194.6 311.8 1195.3 312.7 1196.4 312.95 1197.85 313.3 1200.65 312.6
L 1222.55 306.95
Q 1213.45 318.4 1198.65 327.45 1189.736328125 332.8740234375 1177.75 337.95 1173.9279296875 339.5689453125 1169.8 341.15 1159.0765625 345.260546875 1150.15 347.6 1146.614453125 348.5443359375 1143.35 349.2 1128.6 352.15 1116.1 350.45 1116.4 351.7 1118.65 352.2 1123.5083984375 353.23984375 1128.8 353.35 1138.33125 353.6298828125 1149.3 351 1156 349.35 1164.05 346.4 1168.9 344.65 1178.45 340.75
L 1190.2 335.95
Q 1197.8 332.8 1200.8 331.15 1207.45 327.6 1214.5 321.35 1218.8 317.5 1226.6 309.4 1229.8 306.1 1230.75 303.9 1231.7 302.05 1231 300.75 1229.85 298.4 1225.25 299.75
L 1208.4 304.7
Q 1213.085546875 302.004296875 1217.05 298.35 1226.5787109375 292.5943359375 1233.6 284.1 1244.25 271.35 1253.65 257.55 1267.2 237.7 1277.8 216.3 1284.65 202.4 1289.05 187.6 1293.4 173.2 1296.3 158.55 1299.4 143.1 1300.4 127.3 1300.55 124.8 1298.8 122.7 1297.95 121.6 1296.7 122 1294.25 124.75 1292.8 128.3 1287.65 141.1 1281.15 153.4 1275.4 164.2 1268.35 174.3 1274.95 161.5 1280 147.9 1285.55 132.9 1289.1 117.4 1293.8 97.1 1296.65 76.55 Z"/>

<path fill="#5B5D5E" stroke="none" d="
M 1244.25 213.95
Q 1243.87265625 213.4748046875 1243.4 213 1240.1599609375 215.9515625 1236.6 218.55 1238.3771484375 220.7966796875 1238.8 221.6 1239.8 223.55 1240.05 226.75 1240.25 229.5 1239.85 234.9 1239.55 237.5 1239.25 238.8 1239.15 239.2 1238.45 241.15 1238 242.55 1237.8 243.5
L 1237.5 246.65
Q 1237.4 247.5 1237 249.2
L 1234.7 258.65
Q 1234.25 259.95 1233.05 262.45 1231.65 265.25 1230.8 266.5 1229.15 268.6 1228.35 269.7 1227.3 271.35 1226.95 271.75 1226.15 272.7 1223.85 274.5 1221.75 276.1 1220.95 277.35 1221.169140625 277.78828125 1221.55 278.05 1223.936328125 276.5564453125 1226.2 274.9 1226.859765625 274.408203125 1227.5 273.9
L 1230.25 270
Q 1232.1 267.4 1233.4 265.25 1234.3 263.65 1236.2 259.55
L 1242.9 244.15
Q 1244.3 240.7 1244.55 239.3 1244.95 236.55 1245.05 236.2 1245.15 236 1245.95 234.05 1246.8 231.95 1247.1 227.35 1247.35 223.05 1246.9 220.25 1246.25 216.4 1244.25 213.95
M 1263.75 232.2
Q 1273.3 217 1280.05 200.4 1287.45 182.25 1291.9 163.1 1295.65 147 1296.7 130.85 1287.85 152.85 1275.1 172.8 1265.5 187.9 1253.8 201.65
L 1248.9 208.7
Q 1262.2 220.85 1253.65 237.85 1252.3982421875 240.31171875 1251.1 242.75 1246.210546875 252.0177734375 1240.75 261
L 1241.2 261.45
Q 1253.9 247.9 1263.75 232.2
M 1232.1 242.45
Q 1232.9076171875 237.893359375 1233.05 233.5 1233.25 227.05 1231.45 223.35 1231.1728515625 222.8818359375 1230.9 222.45 1229.67109375 223.2408203125 1228.35 224 1229.8193359375 227.021484375 1230.1 230.95 1230.4 234.75 1229.65 240 1227.95 251.85 1223.1 262.95 1218.3 274.1 1210.85 283.45 1210.6228515625 283.7365234375 1210.45 284 1211.858203125 283.3712890625 1213.25 282.7 1214.8580078125 281.91953125 1216.4 281.05 1223.4419921875 269.155859375 1227.25 259.5 1230.72890625 250.705859375 1232.1 242.45
M 1237.7 209.5
Q 1236.9529296875 209.33359375 1236.35 209.5 1235.503515625 209.7208984375 1234.9 210.4 1234.721484375 210.646484375 1234.55 210.95 1233.85 212 1233.95 213.3 1233.9599609375 213.49453125 1234 213.7
L 1237.7 209.5
M 1227.4 172.15
Q 1224.2884765625 170.723828125 1221.2 170.85 1218.7146484375 173.84765625 1216.15 176.8 1216.702734375 177.4232421875 1217.6 177.9 1218.1 178.15 1220.6 179.05 1224.3 180.45 1227.45 184.25 1229.55 186.75 1232.35 191.7 1234.25 194.9 1234.35 196.9 1234.4 197.35 1234.15 200.3 1234 202.35 1234.65 203.5 1233.95 205.1 1233.95 206.9 1233.95 208.7 1234.7 210.25 1235.5 206.75 1237.2 203.35 1238 201.85 1238.35 201.1 1239.05 199.75 1239.35 198.75 1240.025390625 196.368359375 1239.65 193.05 1239.51796875 191.703125 1239.2 190.2 1237.3 181.45 1233.3 176.7 1230.8 173.75 1227.4 172.15
M 1293.35 61.45
L 1287.7 73.15
Q 1279.4 89.4 1269.65 105.05 1259.9 120.7 1249.15 135.65 1238.45 150.5 1226.5 164.55 1249.95 168.85 1245.4 192.2 1244.85 194.95 1242.75 196.75
L 1242.75 203.85
Q 1254.85 189.85 1263.25 173.5 1272.05 156.35 1277.95 138.25 1283.65 120.75 1287.45 102.7 1290.3 89.2 1292.35 75.5
L 1293.35 61.45
M 1240.55 271.1
L 1242.75 267.6
Q 1243.181640625 266.921875 1243.4 266.25 1237.6150390625 272.6794921875 1230.75 277.85 1230.0462890625 278.3755859375 1229.3 278.85 1228.563671875 281.035546875 1227.2 282.95 1226.3 284.1 1225.9 284.7 1225.25 285.7 1225.05 286.6 1224.8072265625 287.6677734375 1225.2 288.7 1229.845703125 284.526171875 1233.95 279.65 1237.3740234375 275.5126953125 1240.55 271.1
M 1213.7 288.1
Q 1212.8513671875 288.4828125 1212 288.85 1213.5 291.25 1210.35 295.15 1208.95 296.95 1208.4 298.15 1208.197265625 298.60625 1208.05 299.05 1209.3212890625 298.70078125 1210.5 298.25 1211.86640625 296.3873046875 1213.3 294.25 1215.4 291.1 1214.9 289.15 1214.8 288.8 1214.35 287.8 1214.02421875 287.9478515625 1213.7 288.1
M 1209.75 184.25
Q 1209.920703125 184.2734375 1210.1 184.3 1216.85 185.3 1221.85 190.65 1226.8 196 1227.25 202.8 1227.4 204.7 1227 209.35
L 1226.25 217.7
Q 1226.05 219.05 1226.25 219.95 1226.3583984375 220.3474609375 1227 221.5
L 1229.2 219.05
Q 1228.8669921875 218.06484375 1228.75 217.05 1228.5 214.95 1229.1 212 1229.9 208.7 1230.15 207 1231.4 199.25 1227.05 192.05 1222.65 184.8 1215.25 182.3 1213.5259765625 181.7572265625 1212.05 181.6 1210.9013671875 182.9271484375 1209.75 184.25 Z"/>
</g>
</defs>

<g transform="matrix( 1, 0, 0, 1, 0,0) ">
<use xlink:href="#Layer8_0_FILL"/>
</g>
</svg>
