
<svg xmlns="http://www.w3.org/2000/svg" version="1.1" xmlns:xlink="http://www.w3.org/1999/xlink" preserveAspectRatio="none" x="0px" y="0px" width="1920px" height="1080px" viewBox="0 0 1920 1080">
<defs>
<g id="Layer5_0_FILL">
<path fill="#FFFFFF" stroke="none" d="
M 1117.4 292.25
Q 1116.246484375 292.3693359375 1115.15 292.5 1113.787890625 292.735546875 1112.4 292.95 1088.3990234375 297.3609375 1065.2 305.5 1038.55 314.8 1014.05 328.6 999.05 337.1 982.15 348.9 969.5 357.75 951.65 371.4 933.7 385.15 923.75 393.85 887 425.9 861.15 467.05 860.93359375 467.3888671875 860.7 467.7 861.637890625 468.3791015625 862.15 470.8 863.75 479.55 866.75 490.6 868.05 495.35 872.4 510.1 872.95 511.8 872.75 513.25 872.55 515 871.25 515.4 870.73515625 515.590625 870.25 515.5 869.416015625 516.8134765625 868.25 517.8 866.1 519.6 863.7 519.35 862.35 519.2 860.8 518.3 860 517.85 858.2 516.45 854.85 513.85 850.15 511.15 848.837109375 510.3623046875 846.55 509.1 846.549609375 509.088671875 846.5 509.05 844.49140625 507.951171875 841.7 506.45
L 835.4 503.05
Q 833.45 501.95 832.1 501.65 831.15 501.5 828.85 501.7
L 825.15 502.05
Q 820.3 502.55 818.15 503.6 822.6 505.05 831.65 507.7 839.3 510.35 843.55 514.45 845.05 515.95 845.35 517.15 845.55 518 845.25 518.8 845.18203125 518.96484375 845.1 519.1 844.7642578125 519.708203125 844.2 519.95 843.35 520.35 842.2 519.85 841.7 519.65 840.25 518.7 839.2755859375 518.078125 838.1 517.6 836.448828125 517.0134765625 834.4 516.75 832.3 516.45 828.05 516.45 823.45 516.55 821.15 516.95 817.8 517.6 814 519.6 811.6 520.85 807.45 523.65 819.9619140625 521.753125 830.45 523.1 832.9595703125 523.4390625 835.35 523.95 837.55 524.45 838.6 525.2 839.35 525.75 839.75 526.55 840.15 527.4 839.95 528.25 839.7 529.15 838.85 529.75 838.8267578125 529.764453125 838.8 529.75 838.73125 529.9193359375 838.65 530.05 842.7078125 527.27734375 846.65 524.3 842.5626953125 531.0611328125 835.85 536.9 846.9857421875 543.369921875 853.2 556.4 860.1 570.85 860.1 591.1 860.1 640.3 810.6 691.4 802.55 699.75 776.55 723.3 761.1 737.35 761.1 741.6 761.1 742.55703125 761.65 743.95 763.1521484375 745.066015625 764.1 746.4 764.2376953125 746.5966796875 764.55 747.1 765.012109375 747.3056640625 765.55 747.6 767.2 748.65 767.45 749.5 767.815625 750.4994140625 767.1 751.45 767.5212890625 751.9591796875 767.9 752.3 767.291015625 752.1984375 766.65 752 765.90703125 752.775 764.55 753.5 761.4990234375 755.108203125 758.55 756.85 755.1 762.30234375 755.1 765.6 755.1 775.7 780.1 782.15 796.8505859375 786.44609375 811.25 787 811.4318359375 787.0818359375 811.6 787.15 816.25 789.1 818.1 789.1 822.7 789.1 829.45 786.6 831.9587890625 785.677734375 834.2 785.1 847.1783203125 779.1830078125 866.4 770.95 866.9208984375 770.7263671875 867.45 770.5 909.4 752.55 931.35 744.65 937.0177734375 742.6033203125 942.55 740.75 945.5048828125 739.2650390625 949.2 738.1 951.4 737.4 957.6 735.8 962.95 734.4 966 733.3 968.55 732.35 972.95 730.25 977.7 727.95 979.85 727.1 983.9 725.45 989.9 723.8 993.3 722.9 1000.1 721.1 1007.1 719.1 1020.15 714.25 1040.15 706.85 1050.8 702.75 1064.2904296875 697.521484375 1075.55 692.75 1075.74453125 692.5658203125 1075.95 692.35 1082.1 685.9 1085.65 677.8 1086.75 675.25 1087.15 673.55 1087.6 671.9 1088.5 671.9 1088.8 672.25 1088.65 672.85 1088.55 673.1 1088.2 673.9 1087.95 674.5 1087.85 675.4 1087.8 675.9 1087.75 676.9 1087.3244140625 683.33125 1082.15 690.05 1082.7611328125 689.9697265625 1083.35 690.05 1083.4576171875 690.062890625 1083.55 690.05 1085.5869140625 688.6466796875 1087.5 687 1087.6 686.95 1087.75 686.85 1087.9 686.7 1088.05 686.6 1088.75 685.95 1089.5 685.3 1097.45 677.95 1101.7 668.25 1101.65 667.5 1101.55 666.75 1101.2 664.3 1102.5 663.75 1103.15 663.45 1103.9 663.8 1104.55 663.05 1105.35 662.7 1105.15 663.6 1104.95 664.5 1105.75 665.25 1105.75 666 1105.75 666.35 1105.5 666.85 1105.4 667.15 1105.1 667.7 1104.65 668.75 1104.7 670.55 1104.75 672.9 1104.7 673.45 1104.55 674.6 1103.85 676.25 1103.75 676.5 1103.65 676.7 1103.25 680.5 1101.45 683.75 1100.05 685.9 1099.45 686.95 1098.8 688.1 1097.35 691.8 1096.1 694.75 1094.95 696.35 1099.2 695.45 1102.9 692.8 1102.8 692.1 1103.95 691.15 1106.45 689.15 1109.25 686.15 1111 684.35 1114.2 680.6
L 1128.75 663.4
Q 1130.7 660.95 1132.05 658.9 1131.95 658.85 1131.85 658.85 1132.15 658.05 1132.9 657.55 1134.3 655.4 1135.1 653.55 1136.05 651.2 1137.25 646.85 1139.25 639.45 1139.35 635.7 1139.4 634.8 1139.75 634.2 1140.1 633.4 1140.75 633.55 1141.3 633.6 1141.7 634.5 1142.55 636.2 1142.35 638.65 1142.2 640.2 1141.5 643
L 1139.8 649.4
Q 1138.7 653.55 1137.7 656.3
L 1143.9 642.65
Q 1141.2 655 1136.35 666.55 1145.4 659.3 1152.8 650.45 1156.4 646.25 1158.6 642.65 1159.25 641.55 1161.9 636.5
L 1164.45 631.45
Q 1167.8 624.75 1169.45 620.9 1171.95 614.95 1172.95 609.85 1174.4 602.75 1173.25 595.25 1173.45 594.4 1174.5 594.2 1175.5 594.05 1176.2 594.65 1177.25 595.5 1177.55 597.95 1178 602 1178 605.2 1177.95 606.5 1177.9 607.8 1178.35 606.75 1178.5 605.9 1181.15 611.3 1180.3 618.75 1179.9 622.25 1178.3 628.2 1178.2 628.45 1178.15 628.75 1177.75 630.1 1177.3 631.55 1178.45 630.5 1179.55 629.45 1185.1 623.95 1189.5 617.35 1194.8 609.45 1197.9 600.55 1199.9 594.8 1201.3 587.75 1202.3 582.4 1203.25 574.6
L 1203.6 571.15
Q 1203.6 569.8 1203.25 565.4 1203 561.9 1203.3 559.75 1202.4 559.35 1202.3 558.15 1202.2 556.9 1203.05 556.4 1205.85 559.35 1206.75 565.6 1207.1 568 1207.2 570.5 1210.4 574.9 1212.75 581.1 1214.6 586.1 1217 595.8 1221.6 590.2 1223.25 583.1 1223.7 581.35 1224.1 577.65 1225.8 565.15 1224.55 556.85 1223.8 551.7 1221.65 545.85 1220 541.45 1217.15 535.3 1214.65 530.15 1212.7 527.2 1210.85 524.5 1208.9 522.5 1208.85 522.5 1208.8 522.5 1208.62734375 522.5 1208.45 522.45
L 1208.3 522.1
Q 1207.5943359375 520.5880859375 1205.7 518.2 1205.9044921875 518.0365234375 1206.15 517.9 1206.95 517.4 1207.95 517.45 1208.754296875 517.5505859375 1209.55 517.9 1212.0296875 518.9181640625 1214.65 522.1 1215.35 522.9 1216.05 523.75 1217.1 524.25 1218.3 524.8 1225.05 528.1 1228.95 527.95
L 1221.3 519.4
Q 1216.2 513.75 1213.75 510.35 1213.3421875 509.801171875 1212.9 509.2 1205.1294921875 501.3234375 1198.05 493.25 1196.9 491.3 1195.4 488.8
L 1190.25 479.95
Q 1190.0541015625 479.6083984375 1189.85 479.25 1188.8267578125 477.4548828125 1188.1 476.15 1187.8322265625 475.6015625 1187.6 475.15 1187.4810546875 474.90078125 1187.35 474.65 1186.4990234375 472.7177734375 1186.1 470.9 1187.5232421875 470.9458984375 1188.95 471 1192.859375 461.4779296875 1195.95 452.7 1200.925 438.8697265625 1203.9 427 1204.4453125 424.814453125 1204.95 422.6 1208.01640625 409.142578125 1209.25 395.8 1209.9513671875 388.0576171875 1210.05 380.35 1210.05 379.28125 1210.05 378.2 1210.05 356.234375 1203.7 338.25 1202.153515625 333.8447265625 1200.2 329.65 1196.75234375 322.195703125 1190.7 312.45 1190.25703125 311.773046875 1189.8 311.05 1187.5185546875 307.5640625 1185.5 304.5 1182.37890625 299.6576171875 1179.95 295.9 1176.7416015625 295.4322265625 1171.9 294.75
L 1144.95 291.05 1139.7 291.05
Q 1133.4291015625 291.05 1130.35 291.15 1127.350390625 293.4171875 1124 295.35 1124.25 293.4 1126.1 291.55 1126.1833984375 291.4666015625 1126.3 291.35 1124.8458984375 291.4822265625 1123.2 291.65 1122.7482421875 292.01796875 1122.25 292.35 1121.931640625 292.1439453125 1121.85 291.75 1119.777734375 291.972265625 1117.4 292.25
M 1088.35 388.7
Q 1084.9 391.05 1079.25 395.7 1060.15 411.5 1035.45 434.8 1007.15 461.95 992.95 475.45 985.05 482.9 980.5 486.8 976.9759765625 489.84921875 973.65 492.4 970.30078125 494.9744140625 967.15 497.05 967.0533203125 497.1142578125 966.95 497.15 964.546875 499.9607421875 962.8 501.1 960.972265625 502.2826171875 958.8 502.8 958.121484375 502.258984375 957.25 502.15
L 957.25 502.35
Q 956.0490234375 502.0728515625 955.15 503.2 954.97421875 503.2037109375 954.8 503.2 950.55 503.1 946.55 501.1 943.1 499.4 939.6 496.25 937.2 494.05 933.65 490.1 930.8 486.85 930.05 484.8 929.15 482.5 930.4 481.25 931.7 479.85 934.7 481.25 937.85 482.7 943.55 487.45 949.05 492 952.5 493.4
L 960.1 494.8
Q 984.3939453125 477.24375 1020.4 441.65 1043.45 418.8 1051.15 411.55 1068.75 395 1083.65 383.6 1089.55 379.1 1093.9 377.25 1100.05 374.65 1105.2 376 1107.45 376.55 1110 378.05 1111.5 378.95 1114.3 381
L 1120 385.15
Q 1115.6865234375 382.1828125 1109.8 381.8 1104.15 381.45 1098.45 383.45 1093.6 385.15 1088.35 388.7
M 960.55 514.15
Q 959.75 512.7 961.15 510.65 961.65 510 962.35 509.3 964.15 507.6 965.9 505.95 969.864453125 500.323046875 975.95 495.4 977.0294921875 494.5755859375 978.15 493.75 985.3 488.5 996.8 482.9 1010.25 476.55 1030.75 468.55 1042.35 464 1048.35 462.1 1058.8 458.9 1072.35 456.9 1080.6 455.65 1096.8 453.9 1098.15 453.8 1099.4 453.65 1102.8 452.5 1106.6 450.35 1109 448.95 1113.4 445.95 1116.8 443.6 1118.35 442.7 1119.75 441.9 1122.5 440.55 1124.8 439.15 1126.3 437.8 1126.85 438.1 1126.6 438.9 1126.55 438.9 1125.85 439.85 1124.4 441.3 1122.85 444.5 1120.9 448.35 1120.15 449.45 1118.25 452.15 1115 454.5 1112.95 455.95 1108.8 458.3 1106.35 459.65 1104.5 460.5 1104.85 460.8 1105.25 461.15 1106.7 462.4 1107.8 462.65 1104.05 463.85 1099.9 464.7 1096.25 465.5 1090.7 466.05 1082.9 466.95 1081.55 467.05 1071.25 468.4 1058.6 472.2 1051 474.45 1036.35 479.65
L 1014.7 487.4
Q 1000.8 492.4 994.95 495.15 979.85 502.1 967.35 513.15 965.85 514.5 964.75 515.05 964.35 515.2 964 515.25 963.05 515.55 961.95 515.3 961 515 960.55 514.15
M 936.25 517.6
L 934.15 517.95
Q 931.85 518.3 930.05 518.7 928.3 519.25 927.45 519.45 925.8 519.85 924.65 519.75 923.75 519.75 923.4 519.8 923.1 519.9 922.05 520.7 920.9 521.55 918.95 522.1 915.8 523.1 915.3 523.3 914.1 523.85 912.15 525.3 911.55 525.75 910.95 526.25
L 903.55 532.3
Q 902.95 532.75 902.4 533.15 901.35 533.95 900.55 534.45 898.9 535.5 897.3 535.75 896.9 535.7 896.75 535.15 896.55 534.7 896.65 534.2 897.15 532.4 899.85 530.3 900 530.2 900.1 530.15 904.2 526.65 907.05 525 908.8 523.9 911.05 522.95 912.3 522.4 913.75 521.9 914.7 521.55 920.75 519.6 921.85 519.25 921.95 518.45 923.1 518.9 924.55 518.7 925.35 518.5 927 518 934.55 515.85 942.4 515.6 943.6 515.5 944.4 515.85 945.65 516.3 945.65 517.4 944.75 517.6 943.4 517.45 941.85 517.2 940.95 517.2 939.45 517.05 936.25 517.6
M 946.6 526.8
Q 941.4 527.25 935.7 530.2 932.35 531.95 925.8 536.25 922.7 538.45 921.8 539.35 920.65 540.65 919.75 541.5 919.2 541.95 918.8 542.25 916.8 543.9 914.75 543.45
L 920.2 539.05
Q 924.25 535.85 926.5 534.2 930.1 531.6 933.2 529.85 939.8 526.25 946.2 525.9 947.35 525.8 948.5 525.85 948.3 526.6 946.6 526.8
M 969.1 524.05
Q 969.95 523.95 971 524.4 982.3 528.85 989.9 530.65 1000.35 533.2 1009.15 532.3 1009.45 532.55 1009.05 532.75 1008.6 533.05 1008.1 533.15
L 999.6 533.5
Q 994.65 533.6 992.35 533.5 988.25 533.55 985 532.95 976.5 531.8 969.2 527.1 967.45 526.05 967.75 524.9 967.9 524.5 968.25 524.3 968.55 524.1 969.1 524.05 Z"/>

<path fill="#000000" stroke="none" d="
M 971 524.4
Q 969.95 523.95 969.1 524.05 968.55 524.1 968.25 524.3 967.9 524.5 967.75 524.9 967.45 526.05 969.2 527.1 976.5 531.8 985 532.95 988.25 533.55 992.35 533.5 994.65 533.6 999.6 533.5
L 1008.1 533.15
Q 1008.6 533.05 1009.05 532.75 1009.45 532.55 1009.15 532.3 1000.35 533.2 989.9 530.65 982.3 528.85 971 524.4
M 935.7 530.2
Q 941.4 527.25 946.6 526.8 948.3 526.6 948.5 525.85 947.35 525.8 946.2 525.9 939.8 526.25 933.2 529.85 930.1 531.6 926.5 534.2 924.25 535.85 920.2 539.05
L 914.75 543.45
Q 916.8 543.9 918.8 542.25 919.2 541.95 919.75 541.5 920.65 540.65 921.8 539.35 922.7 538.45 925.8 536.25 932.35 531.95 935.7 530.2
M 934.15 517.95
L 936.25 517.6
Q 939.45 517.05 940.95 517.2 941.85 517.2 943.4 517.45 944.75 517.6 945.65 517.4 945.65 516.3 944.4 515.85 943.6 515.5 942.4 515.6 934.55 515.85 927 518 925.35 518.5 924.55 518.7 923.1 518.9 921.95 518.45 921.85 519.25 920.75 519.6 914.7 521.55 913.75 521.9 912.3 522.4 911.05 522.95 908.8 523.9 907.05 525 904.2 526.65 900.1 530.15 900 530.2 899.85 530.3 897.15 532.4 896.65 534.2 896.55 534.7 896.75 535.15 896.9 535.7 897.3 535.75 898.9 535.5 900.55 534.45 901.35 533.95 902.4 533.15 902.95 532.75 903.55 532.3
L 910.95 526.25
Q 911.55 525.75 912.15 525.3 914.1 523.85 915.3 523.3 915.8 523.1 918.95 522.1 920.9 521.55 922.05 520.7 923.1 519.9 923.4 519.8 923.75 519.75 924.65 519.75 925.8 519.85 927.45 519.45 928.3 519.25 930.05 518.7 931.85 518.3 934.15 517.95
M 961.15 510.65
Q 959.75 512.7 960.55 514.15 961 515 961.95 515.3 963.05 515.55 964 515.25 964.35 515.2 964.75 515.05 965.85 514.5 967.35 513.15 979.85 502.1 994.95 495.15 1000.8 492.4 1014.7 487.4
L 1036.35 479.65
Q 1051 474.45 1058.6 472.2 1071.25 468.4 1081.55 467.05 1082.9 466.95 1090.7 466.05 1096.25 465.5 1099.9 464.7 1104.05 463.85 1107.8 462.65 1106.7 462.4 1105.25 461.15 1104.85 460.8 1104.5 460.5 1106.35 459.65 1108.8 458.3 1112.95 455.95 1115 454.5 1118.25 452.15 1120.15 449.45 1120.9 448.35 1122.85 444.5 1124.4 441.3 1125.85 439.85 1126.55 438.9 1126.6 438.9 1126.85 438.1 1126.3 437.8 1124.8 439.15 1122.5 440.55 1119.75 441.9 1118.35 442.7 1116.8 443.6 1113.4 445.95 1109 448.95 1106.6 450.35 1102.8 452.5 1099.4 453.65 1098.15 453.8 1096.8 453.9 1080.6 455.65 1072.35 456.9 1058.8 458.9 1048.35 462.1 1042.35 464 1030.75 468.55 1010.25 476.55 996.8 482.9 985.3 488.5 978.15 493.75 977.0294921875 494.5755859375 975.95 495.4 969.864453125 500.323046875 965.9 505.95 964.15 507.6 962.35 509.3 961.65 510 961.15 510.65
M 1079.25 395.7
Q 1084.9 391.05 1088.35 388.7 1093.6 385.15 1098.45 383.45 1104.15 381.45 1109.8 381.8 1115.6865234375 382.1828125 1120 385.15
L 1114.3 381
Q 1111.5 378.95 1110 378.05 1107.45 376.55 1105.2 376 1100.05 374.65 1093.9 377.25 1089.55 379.1 1083.65 383.6 1068.75 395 1051.15 411.55 1043.45 418.8 1020.4 441.65 984.3939453125 477.24375 960.1 494.8 959.9904296875 494.800390625 959.85 494.8 959.455859375 495.047265625 958.85 495.1 958.236328125 495.1 957.5 494.7 954.94609375 494.42890625 952.5 493.4 949.05 492 943.55 487.45 937.85 482.7 934.7 481.25 931.7 479.85 930.4 481.25 929.15 482.5 930.05 484.8 930.8 486.85 933.65 490.1 937.2 494.05 939.6 496.25 943.1 499.4 946.55 501.1 950.55 503.1 954.8 503.2 954.97421875 503.2037109375 955.15 503.2 956.0490234375 502.0728515625 957.25 502.35
L 957.25 502.15
Q 958.121484375 502.258984375 958.8 502.8 960.972265625 502.2826171875 962.8 501.1 964.546875 499.9607421875 966.95 497.15 967.0533203125 497.1142578125 967.15 497.05 970.30078125 494.9744140625 973.65 492.4 976.9759765625 489.84921875 980.5 486.8 985.05 482.9 992.95 475.45 1007.15 461.95 1035.45 434.8 1060.15 411.5 1079.25 395.7
M 1107.1 289.55
Q 1100.53515625 290.665234375 1094.6 292.25 1071.42890625 295.03515625 1046.5 306 1030.85 312.85 1013.3 323.55 1000.6 331.3 981.85 344.3 937.35 375.15 910.9 399.65 874.8 433.2 855.45 468.95 855.84296875 469.848046875 856.65 469.95 856.3037109375 471.54140625 856.85 474 859.9890625 488.798828125 867.1 511.45 866.450390625 512.973046875 865.8 513.45 864.05 514.75 860.5 512.3 851 505.6 840.7 501.95 830.3 498.2 823.05 500 820.7 500.7 819.55 501.05 817.45 501.65 816 501.7 814.85 501.65 814.3 501.65 813.3 501.65 812.65 501.9 811.85 502.2 811.4 503 810.9 503.85 811.35 504.55 811.7 505 812.7 505.4
L 827.75 511.55
Q 821.1 511.25 812 515.8 802.55 520.6 799 526.4 798.35 527.6 798.4 528.2 798.45 528.95 799.1 529.55 799.75 530.05 800.55 530.15 801.6 530.3 803.7 529.7 810.9 527.65 818.5 527.65 824.5251953125 527.65 830.3 528.95 831.808203125 529.2751953125 833.3 529.7 835.95 530.45 837.05 530.35 837.183984375 530.3365234375 837.3 530.3 836.2978515625 531.3568359375 835.2 532.35 834.136328125 533.1 833 533.8 832.7939453125 534.0373046875 832.4 534.3 832.199609375 534.414453125 832.05 534.5 832.3439453125 534.6435546875 832.6 534.8 832.471875 534.9416015625 832.35 535.05 832.8216796875 535.2705078125 833.25 535.5 832.8216796875 535.2705078125 832.35 535.05 815.4099609375 550.4099609375 788.5 564.9 780.45 569.2 759.8 579.45 741.4 588.6 731.35 594.25 704.55 609.3 680.95 629 642.45 661.1 627.3 695.15 618.2 715.55 617.35 736.9 616.45 759.6 625.3 778.45 625.685546875 779.2724609375 626.1 779.9 626.5095703125 780.7978515625 626.95 781.6 629.35 786.1 634.7 793 637.25 796.25 639.45 795.8 640.6 795.55 641.55 794.35 642.1 793.6 642.85 791.9 644.8 787.95 647.85 784.95 650.1 782.85 651.05 781.65 652.15 780.1 652.8 779.4 653.3 778.9 654.2 778.2 655.4 777.3 655.65 777.1 657.2 775.85 659.4 773.05
L 661.9 769.9
Q 662.5427734375 769.4115234375 663.2 768.9 666.6501953125 766.2423828125 670.25 763.85 670.731640625 764.246875 671.35 764.35 672.55 764.5 674.65 763.6 681.55 760.85 689 759.95 696.45 759.05 703.8 760.05 708.8 760.8 709.6 760.9
L 714.5 761.25
Q 719.6 761.85 723.35 764.15 725.15 765.25 728.4 768.1 728.7560546875 768.4166015625 729.1 768.7 730.6548828125 770.06171875 731.85 770.95 730.9005859375 771.56953125 729.65 772.3 725.8583984375 774.5671875 719.6 777.9 713.9 781.2 701.65 789.7 690.25 797.65 683.55 801.25 682.25 802 679.55 803.4 677.25 804.65 675.7 805.8 674.75 806.5 674.35 807.35 673.8 808.4 674.3 809.15 674.8 809.9 675.95 809.8 676.9 809.75 677.95 809.15 678.2275390625 809.005859375 678.5 808.85 678.53984375 809.3052734375 678.7 809.75 679.35 811.6 682.3 813.3 697.75 822.5 718 824.05 736.1 825.45 755.8 820.65 771.6 816.75 791.4 808.1 792.834765625 807.4623046875 813.85 797.65 819.18515625 795.1443359375 825.8 792.05 845.6326171875 782.7359375 868.55 773.3 888.4638671875 765.1486328125 910.7 756.9 920.646875 753.2103515625 933.85 748.5 933.87890625 748.5580078125 933.9 748.6 934.3 749.5 935.9 749.05 937.9 748.45 940.45 746.9 941.4630859375 746.30625 943.15 745.2 944.6623046875 744.705078125 946.15 744.15 945.8990234375 744.0123046875 945.7 743.7 949.37421875 741.8439453125 955.15 740.2 964.6 737.5 965.9 737.05 968.65 736.05 972.4 734.35 974.5 733.35 978.75 731.35 983.9 729.05 996.25 724.65
L 1071.15 698.2
Q 1070.9259765625 698.676171875 1070.75 699.15 1071.65 700.15 1073.45 698.8 1075.0634765625 697.64765625 1076.7 696.1 1077.4361328125 695.812109375 1078.1 695.5 1077.84921875 695.736328125 1077.6 695.95 1077.7 696.9 1077.85 697.85 1079.3 696.35 1080.7 694.8 1087.65 691.2 1093.45 685.1 1095.8033203125 682.576171875 1097.7 679.9 1096.48828125 682.5880859375 1095.05 685.15 1094.95 685.45 1094.9 685.75 1096.5150390625 682.84296875 1097.8 679.8 1098.6388671875 678.61796875 1099.4 677.4 1100.55 675.55 1101.5 673.7 1101.35 674.5 1101.1 675.7 1101.05 676.05 1101.05 676.4 1100.55 677.15 1100.15 677.8 1098 681.2 1096.85 683.35 1093.65 688.95 1092 694.05 1091.65 695.15 1091.7 695.95 1090.8 697.05 1089.8 698.2
L 1090.7 698.4
Q 1091.25 697.6 1091.8 696.8 1091.9 697.15 1092.05 697.45 1093.25 699.05 1096.75 698
L 1098.65 697.4
Q 1101.1 696.6 1102.4 695.95 1104.35 694.95 1106.35 692.85 1107.55 691.65 1109.75 689.05 1111.85 686.75 1117.15 681.9 1121.95 677.35 1124.35 674.6 1125.65 673.1 1128.55 669.05
L 1131.8 665.25
Q 1135.15 661.15 1136.45 659 1134.45 663.2 1133.2 665.6 1131.2 669.35 1129.05 672.1 1126.9 674.9 1128.2 676.15 1129.4 677.35 1131.95 675.5 1142.15 667.9 1147.8 662.75 1156.15 655.25 1161.2 647.6 1164.1 643.3 1167.95 635.7 1170.95 629.85 1172.65 626.15 1173.3 624.8 1173.75 623.75 1174.8 621.25 1175.6 618.85 1175.25 622.6 1174.9 624.8 1174.8 625.3 1174.7 625.75 1174.55 626.4 1174.5 627 1173.4 631.95 1171.55 635.55 1170.3 637.9 1170.15 638.3 1169.4 639.9 1169.6 641.1 1171.2 641.25 1172.65 639.8 1173.15 639.3 1174.85 636.9 1176.15 635.1 1178.85 632.5
L 1186.75 624.45
Q 1190 621.3 1191.65 619.35 1194.2 616.4 1195.8 613.7 1197.2 611.25 1198.95 606.8 1203.65 595 1205.55 586.5 1206.45 582.35 1206.9 578.3 1209.05 584.7 1211.15 593.25 1212.25 597.8 1212.2 599.85 1212.2 600.75 1212.1 602.65 1212.05 604.3 1212.4 605.35 1212.8 606.65 1214 607.5 1215.3 608.35 1216.45 607.75 1217.35 607.4 1218.25 605.8
L 1222.2 599.05
Q 1226 592.5 1227.35 589.05 1229 584.5 1229.9 577.55 1230.55 571.8 1230.65 566.75 1230.75 554.6 1226.6 543.05 1223.6 534.8 1218.85 527.7 1220.25 528.85 1222 530.4 1225.5 533.25 1230.4 535.85 1233.65 537.55 1239.45 540.2 1240.4919921875 540.734375 1241.3 541 1241.812109375 541.17265625 1242.2 541.25 1242.4439453125 541.28359375 1242.65 541.3 1244.1806640625 541.3712890625 1245.1 540.7 1244.7576171875 540.4013671875 1244.4 540.05 1244.4640625 539.96640625 1244.5 539.85 1244.7 539.15 1244.3 538.3 1244.05 537.85 1243.3 536.9 1242.645703125 536.091796875 1240.7 533 1237.444921875 529.319140625 1232.5 523.55
L 1226.75 516.8
Q 1218.9888671875 509.1896484375 1212.3 501.6 1211.762890625 501.212890625 1211.1 500.55
L 1207.75 497.05
Q 1206.55 495.75 1206.3 495.35
L 1205.55 494.3 1204.75 493.45
Q 1204.15 492.85 1203.05 491.35 1201.5 489.15 1200.7 487.5 1200.634765625 487.36953125 1200.6 487.25 1199.529296875 485.8279296875 1198.5 484.4
L 1192.35 475.65
Q 1192.386328125 475.66484375 1192.4 475.65 1192.5125 475.715625 1192.6 475.75 1192.532421875 475.670703125 1192.45 475.6 1192.407421875 475.5203125 1192.35 475.45 1192.062109375 475.1005859375 1191.8 474.7 1191.78125 474.73671875 1191.75 474.75
L 1189.2 471.05
Q 1189.0732421875 471.041796875 1188.95 471 1187.5232421875 470.9458984375 1186.1 470.9 1186.4990234375 472.7177734375 1187.35 474.65 1187.4810546875 474.90078125 1187.6 475.15 1187.8322265625 475.6015625 1188.1 476.15 1188.8267578125 477.4548828125 1189.85 479.25 1190.0541015625 479.6083984375 1190.25 479.95
L 1195.4 488.8
Q 1196.9 491.3 1198.05 493.25 1205.1294921875 501.3234375 1212.9 509.2 1213.3421875 509.801171875 1213.75 510.35 1216.2 513.75 1221.3 519.4
L 1228.95 527.95
Q 1225.05 528.1 1218.3 524.8 1217.1 524.25 1216.05 523.75 1215.35 522.9 1214.65 522.1 1212.0296875 518.9181640625 1209.55 517.9 1208.754296875 517.5505859375 1207.95 517.45 1206.95 517.4 1206.15 517.9 1205.9044921875 518.0365234375 1205.7 518.2 1207.5943359375 520.5880859375 1208.3 522.1
L 1208.45 522.45
Q 1208.62734375 522.5 1208.8 522.5 1208.85 522.5 1208.9 522.5 1210.85 524.5 1212.7 527.2 1214.65 530.15 1217.15 535.3 1220 541.45 1221.65 545.85 1223.8 551.7 1224.55 556.85 1225.8 565.15 1224.1 577.65 1223.7 581.35 1223.25 583.1 1221.6 590.2 1217 595.8 1214.6 586.1 1212.75 581.1 1210.4 574.9 1207.2 570.5 1207.1 568 1206.75 565.6 1205.85 559.35 1203.05 556.4 1202.2 556.9 1202.3 558.15 1202.4 559.35 1203.3 559.75 1203 561.9 1203.25 565.4 1203.6 569.8 1203.6 571.15
L 1203.25 574.6
Q 1202.3 582.4 1201.3 587.75 1199.9 594.8 1197.9 600.55 1194.8 609.45 1189.5 617.35 1185.1 623.95 1179.55 629.45 1178.45 630.5 1177.3 631.55 1177.75 630.1 1178.15 628.75 1178.2 628.45 1178.3 628.2 1179.9 622.25 1180.3 618.75 1181.15 611.3 1178.5 605.9 1178.35 606.75 1177.9 607.8 1177.95 606.5 1178 605.2 1178 602 1177.55 597.95 1177.25 595.5 1176.2 594.65 1175.5 594.05 1174.5 594.2 1173.45 594.4 1173.25 595.25 1174.4 602.75 1172.95 609.85 1171.95 614.95 1169.45 620.9 1167.8 624.75 1164.45 631.45
L 1161.9 636.5
Q 1159.25 641.55 1158.6 642.65 1156.4 646.25 1152.8 650.45 1145.4 659.3 1136.35 666.55 1141.2 655 1143.9 642.65
L 1137.7 656.3
Q 1138.7 653.55 1139.8 649.4
L 1141.5 643
Q 1142.2 640.2 1142.35 638.65 1142.55 636.2 1141.7 634.5 1141.3 633.6 1140.75 633.55 1140.1 633.4 1139.75 634.2 1139.4 634.8 1139.35 635.7 1139.25 639.45 1137.25 646.85 1136.05 651.2 1135.1 653.55 1134.3 655.4 1132.9 657.55 1132.15 658.05 1131.85 658.85 1131.95 658.85 1132.05 658.9 1130.7 660.95 1128.75 663.4
L 1114.2 680.6
Q 1111 684.35 1109.25 686.15 1106.45 689.15 1103.95 691.15 1102.8 692.1 1102.9 692.8 1099.2 695.45 1094.95 696.35 1096.1 694.75 1097.35 691.8 1098.8 688.1 1099.45 686.95 1100.05 685.9 1101.45 683.75 1103.25 680.5 1103.65 676.7 1103.75 676.5 1103.85 676.25 1104.55 674.6 1104.7 673.45 1104.75 672.9 1104.7 670.55 1104.65 668.75 1105.1 667.7 1105.4 667.15 1105.5 666.85 1105.75 666.35 1105.75 666 1105.75 665.25 1104.95 664.5 1105.15 663.6 1105.35 662.7 1104.55 663.05 1103.9 663.8 1103.15 663.45 1102.5 663.75 1101.2 664.3 1101.55 666.75 1101.65 667.5 1101.7 668.25 1097.45 677.95 1089.5 685.3 1088.75 685.95 1088.05 686.6 1087.9 686.7 1087.75 686.85 1087.6 686.95 1087.5 687 1085.5869140625 688.6466796875 1083.55 690.05 1083.4576171875 690.062890625 1083.35 690.05 1082.7611328125 689.9697265625 1082.15 690.05 1087.3244140625 683.33125 1087.75 676.9 1087.8 675.9 1087.85 675.4 1087.95 674.5 1088.2 673.9 1088.55 673.1 1088.65 672.85 1088.8 672.25 1088.5 671.9 1087.6 671.9 1087.15 673.55 1086.75 675.25 1085.65 677.8 1082.1 685.9 1075.95 692.35 1075.74453125 692.5658203125 1075.55 692.75 1064.2904296875 697.521484375 1050.8 702.75 1040.15 706.85 1020.15 714.25 1007.1 719.1 1000.1 721.1 993.3 722.9 989.9 723.8 983.9 725.45 979.85 727.1 977.7 727.95 972.95 730.25 968.55 732.35 966 733.3 962.95 734.4 957.6 735.8 951.4 737.4 949.2 738.1 945.5048828125 739.2650390625 942.55 740.75 937.0177734375 742.6033203125 931.35 744.65 909.4 752.55 867.45 770.5 866.9208984375 770.7263671875 866.4 770.95 847.1783203125 779.1830078125 834.2 785.1 827.821484375 788.0033203125 822.95 790.35 818.5439453125 792.5162109375 814.75 794.35 811.5447265625 795.9384765625 808.8 797.3 803.863671875 799.6998046875 800.45 801.35 787.2 807.8 777.6 811.55 751.25 821.95 729.8 821.55 716.75 821.35 704.1 817.3 692.36875 813.5142578125 682.15 806.8 689.27890625 802.6060546875 699.95 795 714.35 784.65 721.85 780.65 727.5126953125 777.8185546875 731 775.8 732.3361328125 775.0802734375 733.35 774.45 734.6638671875 773.6568359375 736.15 772.6 736.56484375 772.321875 736.95 772 738.16171875 771.189453125 739.45 770.2 743.4 767.15 745.4 765.65 751.69453125 760.894140625 758.55 756.85 761.4990234375 755.108203125 764.55 753.5 765.90703125 752.775 766.65 752 767.291015625 752.1984375 767.9 752.3 767.5212890625 751.9591796875 767.1 751.45 767.815625 750.4994140625 767.45 749.5 767.2 748.65 765.55 747.6 765.012109375 747.3056640625 764.55 747.1 764.2376953125 746.5966796875 764.1 746.4 763.1521484375 745.066015625 761.65 743.95 761.0650390625 743.48203125 760.35 743.05 758.75 742.05 755.7 740.75 749.5791015625 738.105078125 744.95 736.85 743.481640625 736.4564453125 742.15 736.2 728.95 733.65 712.15 740.15 706.45 742.35 698.25 746.55 684.85 753.4 684.6 753.5 679.7 755.8 677.3 757 674.110546875 758.6140625 671.7 760.15 671.484375 760.2435546875 671.25 760.35 669.9455078125 760.9615234375 669.55 761.65 669.1873046875 761.9181640625 668.75 762.2
L 668.4 761.7
Q 665.4 763 661 765.65 659.9 766.3 658.6 767.25 657.7 767.9 656.55 769.15
L 655.05 770.95
Q 654.15 772.05 653.4 772.6 652.9 773 651.3 773.95 649.95 774.75 649.3 775.4 648.85 775.9 648 777.2 647.25 778.45 646.65 779 646 779.65 644.4 780.75 644.05 781.05 643.1 782.25
L 639.7 786.85
Q 638.95 787.95 638.85 788.45
L 638.3 788.55
Q 635.1515625 785.0958984375 632.4 781.6 632.6607421875 781.209765625 632.7 780.7 631.4 778.95 629.85 775.5 620.65 754.25 623.55 728.8 626.3 705.05 638.8 683.25 649.9 663.9 668.5 645.9 683.8 631.05 705.95 615.65 719.3 606.4 730.1 600.2 741.95 593.35 767.3 581.35 792.25 569.5 804.4 562.4 817 555.1 825.05 547.8 830.448046875 542.8294921875 834.25 537.45 834.2771484375 537.640234375 834.3 537.8 834.3279296875 537.9958984375 834.35 538.2 834.589453125 538.0029296875 834.8 537.8 835.3603515625 537.3548828125 835.85 536.9 842.5626953125 531.0611328125 846.65 524.3 842.7078125 527.27734375 838.65 530.05 838.73125 529.9193359375 838.8 529.75 838.8267578125 529.764453125 838.85 529.75 839.7 529.15 839.95 528.25 840.15 527.4 839.75 526.55 839.35 525.75 838.6 525.2 837.55 524.45 835.35 523.95 832.9595703125 523.4390625 830.45 523.1 819.9619140625 521.753125 807.45 523.65 811.6 520.85 814 519.6 817.8 517.6 821.15 516.95 823.45 516.55 828.05 516.45 832.3 516.45 834.4 516.75 836.448828125 517.0134765625 838.1 517.6 839.2755859375 518.078125 840.25 518.7 841.7 519.65 842.2 519.85 843.35 520.35 844.2 519.95 844.7642578125 519.708203125 845.1 519.1 845.18203125 518.96484375 845.25 518.8 845.55 518 845.35 517.15 845.05 515.95 843.55 514.45 839.3 510.35 831.65 507.7 822.6 505.05 818.15 503.6 820.3 502.55 825.15 502.05
L 828.85 501.7
Q 831.15 501.5 832.1 501.65 833.45 501.95 835.4 503.05
L 841.7 506.45
Q 844.49140625 507.951171875 846.5 509.05 846.549609375 509.088671875 846.55 509.1 848.837109375 510.3623046875 850.15 511.15 854.85 513.85 858.2 516.45 860 517.85 860.8 518.3 862.35 519.2 863.7 519.35 866.1 519.6 868.25 517.8 869.416015625 516.8134765625 870.25 515.5 870.73515625 515.590625 871.25 515.4 872.55 515 872.75 513.25 872.95 511.8 872.4 510.1 868.05 495.35 866.75 490.6 863.75 479.55 862.15 470.8 861.637890625 468.3791015625 860.7 467.7 860.93359375 467.3888671875 861.15 467.05 887 425.9 923.75 393.85 933.7 385.15 951.65 371.4 969.5 357.75 982.15 348.9 999.05 337.1 1014.05 328.6 1038.55 314.8 1065.2 305.5 1088.3990234375 297.3609375 1112.4 292.95 1113.787890625 292.735546875 1115.15 292.5 1116.246484375 292.3693359375 1117.4 292.25 1119.777734375 291.972265625 1121.85 291.75 1122.5556640625 291.70390625 1123.2 291.65 1124.8458984375 291.4822265625 1126.3 291.35 1126.1833984375 291.4666015625 1126.1 291.55 1124.25 293.4 1124 295.35 1127.350390625 293.4171875 1130.35 291.15 1133.4291015625 291.05 1139.7 291.05
L 1144.95 291.05 1171.9 294.75
Q 1176.7416015625 295.4322265625 1179.95 295.9 1181.64453125 296.1427734375 1182.85 296.3 1184.701953125 296.600390625 1185.6 296.75 1183.9927734375 295.6451171875 1182.3 294.65 1180.0322265625 293.3255859375 1177.6 292.2 1177.461328125 292.148828125 1177.3 292.05 1174.644140625 290.8625 1171.85 289.95 1170.13828125 289.3916015625 1168.2 288.9 1166.0361328125 288.3373046875 1163.6 287.85 1160.7107421875 287.3076171875 1157.45 286.85 1157.201171875 286.83828125 1156.9 286.8 1155.6845703125 286.6419921875 1154.4 286.5 1149.55 286 1147 286.55 1146.114453125 286.7271484375 1145.3 287 1140.280078125 286.989453125 1135.8 287.05
L 1135.75 287.05
Q 1135.4404296875 287.09296875 1135.1 287.1 1135.408984375 286.8326171875 1135.7 286.55 1136.0978515625 286.1666015625 1136.5 285.75 1136.5830078125 285.690625 1136.65 285.6 1136.697265625 285.5775390625 1136.7 285.55 1134.7591796875 285.7861328125 1132.8 285.95 1132.1263671875 286.6099609375 1131.45 287.2 1130.5458984375 287.2353515625 1129.65 287.25 1128.041796875 287.3484375 1126.5 287.4 1124.99375 287.5236328125 1123.55 287.6 1123.028515625 287.6599609375 1122.5 287.7 1114.41015625 288.31875 1107.1 289.55
M 684.15 756.15
Q 685.56875 755.5142578125 687 754.9 690.45 753.45 697.4 750.7 701.25 749.05 708.85 745.4 715.6 742.4 720.7 741.3 729.6 739.35 739.6 741.35 740.338671875 741.4986328125 741.05 741.65 749.2927734375 743.54609375 757.55 747.95 761.223046875 749.8646484375 762.25 750.35 753.28828125 755.137890625 744.85 761.4 742.75 763 738.55 766.2 736.712109375 767.6025390625 735.1 768.7
L 729.3 763.75 729.25 763.7
Q 726.2 761.05 724.25 760.1 722.5 759.25 719.4 758.5 715.9 757.7 708.7 756.7
L 705.35 756.2
Q 699.8 755.4 696.85 755.25 690.46640625 754.9296875 684.15 756.15
M 770.55 606.95
Q 770.9 606.95 771.4 607 769.55 606.75 767.9 606.75 769.5 606.9 770.55 606.95
M 1022.1 314.9
L 1021.8 315.5
Q 1023.7015625 314.3455078125 1025.45 312.45 1024.251953125 313.2029296875 1023.05 313.95
L 1022.1 314.9
M 822.35 540.55
Q 821.55 541.15 820.85 541.4
L 820.8 541.4
Q 820.975 541.64765625 821.1 541.9 822.26875 540.83671875 823.2 539.85 822.6908203125 540.3115234375 822.35 540.55 Z"/>

<path fill="#425B63" stroke="none" d="
M 687 754.9
Q 685.56875 755.5142578125 684.15 756.15 690.46640625 754.9296875 696.85 755.25 699.8 755.4 705.35 756.2
L 708.7 756.7
Q 715.9 757.7 719.4 758.5 722.5 759.25 724.25 760.1 726.2 761.05 729.25 763.7
L 729.3 763.75 735.1 768.7
Q 736.712109375 767.6025390625 738.55 766.2 742.75 763 744.85 761.4 753.28828125 755.137890625 762.25 750.35 761.223046875 749.8646484375 757.55 747.95 749.2927734375 743.54609375 741.05 741.65 740.338671875 741.4986328125 739.6 741.35 729.6 739.35 720.7 741.3 715.6 742.4 708.85 745.4 701.25 749.05 697.4 750.7 690.45 753.45 687 754.9 Z"/>

<path fill="#5B5D5E" stroke="none" d="
M 1126.5 287.4
Q 1126.7630859375 286.8939453125 1126.95 286.35 1125.4599609375 286.412890625 1123.95 286.45 1123.778515625 287.055078125 1123.55 287.6 1124.99375 287.5236328125 1126.5 287.4
M 1132.8 285.95
Q 1131.2958984375 286.098828125 1129.8 286.2 1129.669921875 286.780078125 1129.65 287.25 1130.5458984375 287.2353515625 1131.45 287.2 1132.1263671875 286.6099609375 1132.8 285.95
M 755.1 765.6
Q 755.1 762.30234375 758.55 756.85 751.69453125 760.894140625 745.4 765.65 743.4 767.15 739.45 770.2 738.16171875 771.189453125 736.95 772 736.56484375 772.321875 736.15 772.6 734.6638671875 773.6568359375 733.35 774.45 732.3361328125 775.0802734375 731 775.8 727.5126953125 777.8185546875 721.85 780.65 714.35 784.65 699.95 795 689.27890625 802.6060546875 682.15 806.8 692.36875 813.5142578125 704.1 817.3 716.75 821.35 729.8 821.55 751.25 821.95 777.6 811.55 787.2 807.8 800.45 801.35 803.863671875 799.6998046875 808.8 797.3 811.5447265625 795.9384765625 814.75 794.35 818.5439453125 792.5162109375 822.95 790.35 827.821484375 788.0033203125 834.2 785.1 831.9587890625 785.677734375 829.45 786.6 822.7 789.1 818.1 789.1 816.25 789.1 811.6 787.15 811.4318359375 787.0818359375 811.25 787 796.8505859375 786.44609375 780.1 782.15 755.1 775.7 755.1 765.6
M 834.8 537.8
Q 834.589453125 538.0029296875 834.35 538.2 834.3279296875 537.9958984375 834.3 537.8 834.2771484375 537.640234375 834.25 537.45 830.448046875 542.8294921875 825.05 547.8 817 555.1 804.4 562.4 792.25 569.5 767.3 581.35 741.95 593.35 730.1 600.2 719.3 606.4 705.95 615.65 683.8 631.05 668.5 645.9 649.9 663.9 638.8 683.25 626.3 705.05 623.55 728.8 620.65 754.25 629.85 775.5 631.4 778.95 632.7 780.7 632.6607421875 781.209765625 632.4 781.6 635.1515625 785.0958984375 638.3 788.55
L 638.85 788.45
Q 638.95 787.95 639.7 786.85
L 643.1 782.25
Q 644.05 781.05 644.4 780.75 646 779.65 646.65 779 647.25 778.45 648 777.2 648.85 775.9 649.3 775.4 649.95 774.75 651.3 773.95 652.9 773 653.4 772.6 654.15 772.05 655.05 770.95
L 656.55 769.15
Q 657.7 767.9 658.6 767.25 659.9 766.3 661 765.65 665.4 763 668.4 761.7
L 668.75 762.2
Q 669.1873046875 761.9181640625 669.55 761.65 669.9455078125 760.9615234375 671.25 760.35 671.484375 760.2435546875 671.7 760.15 674.110546875 758.6140625 677.3 757 679.7 755.8 684.6 753.5 684.85 753.4 698.25 746.55 706.45 742.35 712.15 740.15 728.95 733.65 742.15 736.2 743.481640625 736.4564453125 744.95 736.85 749.5791015625 738.105078125 755.7 740.75 758.75 742.05 760.35 743.05 761.0650390625 743.48203125 761.65 743.95 761.1 742.55703125 761.1 741.6 761.1 737.35 776.55 723.3 802.55 699.75 810.6 691.4 860.1 640.3 860.1 591.1 860.1 570.85 853.2 556.4 846.9857421875 543.369921875 835.85 536.9 835.3603515625 537.3548828125 834.8 537.8
M 771.4 607
Q 770.9 606.95 770.55 606.95 769.5 606.9 767.9 606.75 769.55 606.75 771.4 607
M 1135.75 287.05
Q 1136.1431640625 286.484375 1136.5 285.75 1136.0978515625 286.1666015625 1135.7 286.55 1135.408984375 286.8326171875 1135.1 287.1 1135.4404296875 287.09296875 1135.75 287.05
M 1123.2 291.65
Q 1122.5556640625 291.70390625 1121.85 291.75 1121.931640625 292.1439453125 1122.25 292.35 1122.7482421875 292.01796875 1123.2 291.65 Z"/>
</g>

<g id="Layer1_0_FILL">
<path fill="#000000" stroke="none" d="
M 478.45 782.8
Q 476.2 783.25 475.85 784.4 478.75 784.75 482.35 784.05 484.55 783.6 488.7 782.3 497.3 779.65 501.75 777.65 506.25 775.7 507.65 775.35 508.85 775 509.2 774.75 510.1 774.05 509.7 773.25 508.1 773.45 506.1 774.15 505.4 774.4 502.65 775.55 490.75 780.45 478.45 782.8
M 456.75 663.25
Q 466.2 663.7 485.05 664.85 501.75 665.7 513.35 665.35 545.95 664.5 568.45 653.95 569.65 653.45 570.3 652.65 571.15 651.7 570.75 650.8 556.6 657 539.1 659.65 524.4 661.9 506.1 661.75 494.85 661.65 473.15 660.35 450.9 658.95 440.15 658.85 415.7 659.2 403.5 659.1 382.05 658.95 367.25 655.85 361.35 654.65 359.45 654.45 355.05 653.95 351.8 655.05
L 352.6 658.65
Q 407.85 663.7 459.95 685 512 706.3 555 741.35 551.9 744.55 547.15 745.15 542.45 745.75 538.65 743.4 528.7 756.35 510.25 765.35 498.5 771.05 475.5 778.05
L 458.05 783.3
Q 480.2 780.45 500.95 771.4 521.65 762.35 538.8 748 543.35 749.85 548.4 749.35 553.4 748.9 557.5 746.25 560.9 744.05 560.7 741.5 560.55 739.5 557.7 737.4 523.65 710.45 484.25 691.4 444.8 672.35 402.5 662.4 438.7 662.4 456.75 663.25
M 561.85 576.15
Q 542.15 549.1 525.95 530.6 505.25 507.05 484.5 490.3 534.95 518.35 559.7 533.6 600.75 558.85 630.7 583.15 633.9 585.8 636 585 614.6 566 585.25 546.95 565.35 534 530.55 514.25 489.15 490.75 475.25 482.25 444.6 463.65 422.7 446.35 418.15 442.75 415.95 441.3 412 438.75 408.4 437.8 406.65 437.4 405.1 437.95 403.3 438.55 403.45 440.05 403.55 441.45 405.95 442.6 459.4 469.35 503.45 511.05 547.45 552.7 577.1 604.65 583.15 615.25 586.45 623.05 590.8 633.4 592.15 642.7 593.65 653.4 591.1 663.2 588.3 673.85 581.3 680.85 586.95 678.3 590.95 672.65 594.7 667.4 596.05 660.85 598.35 650 594.3 635.4 590.2 620.65 580.8 604.45 574.25 593.2 561.85 576.15
M 478.5 485.15
L 479.3 485.5
Q 479.85 485.8 480.9 486.7
L 480.5 487.1
Q 478.75 486.7 478 486.2 477.65 486 477.2 485.45 476.65 484.85 476.4 484.65 477.3 484.6 478.5 485.15
M 848.2 247.8
Q 842.2 251.05 833.05 258.05 786.45 293.55 753.6 328.55 714.7 369.9 691.65 413.85 658.45 477.25 650.05 559.6 648.35 576.45 648.6 588.4 649 604.05 652.7 616.65 650.7 560.05 664.35 504.4 678 448.7 705.95 399.45 733.9 350.2 774.7 309.95 815.55 269.65 865.15 242.4 857.05 243 848.2 247.8
M 802.7 297.75
Q 771.9 326.05 746.7 359.2 703.7 415.8 681.2 481.3 657.75 549.5 660.1 617.5 662.2 563.8 676.7 511.6 691.2 459.35 717.05 412.3 742.95 365.25 779.25 325 815.55 284.8 859.75 254.25 863 252.05 864.45 250.95 866.95 249 868.65 247.05 833.55 269.4 802.7 297.75 Z"/>
</g>

<path id="Layer5_0_1_STROKES" stroke="#000000" stroke-opacity="0.9686274509803922" stroke-width="1" stroke-linejoin="round" stroke-linecap="round" fill="none" d="
M 832.05 534.5
Q 832.00546875 534.89453125 832.35 535.05 832.8216796875 535.2705078125 833.275 535.5"/>
</defs>

<g transform="matrix( 1, 0, 0, 1, 0,0) ">
<use xlink:href="#Layer5_0_FILL"/>

<use xlink:href="#Layer5_0_1_STROKES"/>
</g>

<g transform="matrix( 1, 0, 0, 1, 0,0) ">
<use xlink:href="#Layer1_0_FILL"/>
</g>
</svg>
