
<svg xmlns="http://www.w3.org/2000/svg" version="1.1" xmlns:xlink="http://www.w3.org/1999/xlink" preserveAspectRatio="none" x="0px" y="0px" width="1920px" height="1080px" viewBox="0 0 1920 1080">
<defs>
<g id="Layer5_0_FILL">
<path fill="#FFFFFF" stroke="none" d="
M 1009.3 341.35
Q 1006.05 343.1 1002.8 344.8 976.85 358.15 956.3 378.8 950.25 384.95 946.3 392.65 941.85 401.2 938.2 409.85 934.6 418.35 929.5 426.1 926.6 430.55 922.65 434.1
L 921.85 433
Q 921.5 433.1 921.15 433.25 919.9 433.55 918.7 433.25 916.75 433.1 915.3 432.1 914 431.25 912.7 430.4 910.5 428.9 908.3 427.55 904.85 425.3 901.4 423.15 902.6 425 903.95 426.8 905.2 428.5 906.6 430.15 907.8 431.6 909 433.15 909.45 433.75 909.7 434.55 909.85 435.05 909.75 435.6 909.75 435.75 909.7 435.95 909.6 436.1 909.45 436.15 908.45 437 907.4 436.3 904.15 434.05 900.55 432.75 899.61640625 432.3970703125 898.65 432.1 890.951171875 429.646484375 882.75 430.85 876.25 431.6 869.65 431.65 869.75 431.85 869.9 432.1 870.55 433.1 871.85 433.4 880.1 434.4 887.85 437.7 890.85 439 894.05 439.8 894.7400390625 439.912890625 895.35 440.15 895.67421875 440.2736328125 895.95 440.4 897.30390625 441.141796875 898.1 442.55 898.2 442.75 898.3 443
L 897.85 444.05 901.1 446.85 900.3 447.2 901.45 447.7 901.6 447.65
Q 916.3640625 460.4791015625 925 476.7 935.75 496.85 935.75 520.15 935.75 540.95 927.25 564.15 925.9 567.8 921.4 578.7 918.75 585.15 918.75 587 918.75 589.0916015625 920.55 591.1 926.4767578125 597.6775390625 951.85 603.3 954.3853515625 603.8513671875 957.1 604.4 968.4716796875 606.710546875 981.65 608.5 983.015234375 608.7169921875 984.4 608.9 985.3197265625 609.0212890625 986.15 609.1
L 1010.2 605.25
Q 1012.04921875 604.9109375 1013.85 604.55 1019.540234375 603.428515625 1025.15 602.1 1033.499609375 600.125 1041.75 597.7 1059.5 592.45 1075.8 583.95 1079.55 582.05 1083.25 580.05 1066.65 579.85 1050.05 582 1045.9 582.5 1041.75 583.05 1045.5 579.7 1050.8 579 1077.9 575.25 1105.5 572.85 1122.75 571.5 1139.55 574.85 1144.05 575.9 1148.35 577.6
L 1090.6 579.7
Q 1080.45 588.5 1068.6 594.85 1053.4 602.85 1036.55 607 1036.5 607.05 1036.45 607.05 1033.75 608.75 1031 610.45 1026.05 615.35 1022.05 620.95 1011.2 636.3 1003.65 653.5 1002.961328125 655.0548828125 1002.3 656.6 999.25 663.9734375 997 671.6 994.370703125 680.6310546875 992.85 690.05
L 995.65 689.85
Q 1013.3 687.7 1030.75 685.9 1049.95 683.85 1069.3 682.8 1074.2296875 682.3962890625 1079.15 682.25 1090.1857421875 682.04296875 1101.2 683.25 1102.3193359375 683.407421875 1103.45 683.55 1109.3484375 684.2025390625 1115.25 684.3 1121.0984375 684.4484375 1126.95 684.05 1128.62734375 684.0841796875 1130.2 683.8 1130.7685546875 683.610546875 1131.4 683.4 1131.8810546875 683.2931640625 1132.3 683.25 1134.229296875 682.601953125 1136 681.45 1143.401953125 676.703125 1148.5 669.85 1152.9109375 663.9912109375 1155.6 656.55 1158 659.6 1156.05 663.1 1153.7359375 667.123046875 1151.35 671.05 1150.4146484375 672.6662109375 1149.45 674.25 1147.75 677.05 1145.4 679.35 1143.25 681.4 1140.8 682.9 1139.8060546875 683.678515625 1138.8 684.35
L 1139.15 684.85
Q 1139.9923828125 684.035546875 1141.25 683.5 1148.9166015625 678.8912109375 1155.2 672.85 1158.0802734375 670.073046875 1160.65 667 1163.9689453125 663.0896484375 1166.8 658.7 1169.1 655.1 1171.65 651.7 1171.05 662.25 1163.75 671.05 1161.898828125 673.296484375 1159.9 675.35 1157.0951171875 678.28046875 1154 680.85 1158.38359375 679.0892578125 1162.45 676.9 1175.2556640625 670.1634765625 1185.25 659.45 1190.52578125 653.7845703125 1195.15 647.7 1205.9974609375 633.565625 1213.35 617.25
L 1212.95 616.6 1214.95 616.45
Q 1215.2 617.15 1215.25 617.9 1215.25 618.6 1214.95 619.3 1213.9 622.2 1212.65 625.1
L 1215.45 626.5 1220.15 619.15
Q 1219.6 636.4 1210.05 651 1209.3994140625 652.0251953125 1208.75 653.05 1207.769140625 654.6447265625 1206.8 656.25 1209.008984375 655.3138671875 1211.1 654.2 1223.23125 647.8677734375 1231 636.3 1240.95 621.6 1243.6 604 1244.598046875 597.2740234375 1245.45 590.45 1245.5744140625 589.437109375 1245.7 588.4 1245.8984375 589.258984375 1246.05 590.1 1248.801171875 603.7619140625 1244.85 617.45
L 1246.8 618.1
Q 1247.3609375 616.396484375 1247.95 614.7 1248 614.9 1248 615.1 1247.8 617.15 1248.05 619.4 1248.9 626.95 1247.05 634.2 1245.65 639.55 1243.45 644.9 1244.4 644.4 1245.35 643.9 1250.2 641.2 1253.75 636.65 1260.3 628.3 1263.35 618 1266.35 607.85 1266.7 597.25 1267.0017578125 587.9314453125 1266.95 578.55 1266.9498046875 578.1787109375 1266.95 577.75 1266.942578125 575.1458984375 1266.9 572.5 1266.9 571.65 1267.25 570.8 1267.55 571.1 1267.8 571.55 1269.0962890625 574.1673828125 1269.85 576.95 1270.162109375 577.995703125 1270.35 579.05 1270.7732421875 580.9060546875 1270.95 582.85 1271.95 594.6 1273.85 606.25 1274.55 610.4 1274.55 614.7 1275.3 613.35 1276.05 612.05 1280.05 605.05 1281.5 597.1 1282.832421875 589.654296875 1281.9 582.25 1281.6716796875 580.193359375 1281.25 578.15 1280.578515625 574.820703125 1279.25 571.8 1278.259375 569.4021484375 1276.85 567.2 1276.5978515625 566.8138671875 1276.35 566.4 1271.9568359375 559.5763671875 1268.55 552.1 1267.95 550.8 1267.85 549.35
L 1268.2 549 1271.15 553.2
Q 1270.8 552.6 1270.5 552.05 1269.95 551.15 1269.4 550.3 1269.15 549.9 1268.9 549.55 1268.7 549.2 1268.5 548.9 1268.2 548.4 1267.9 547.95 1267.75 547.75 1267.65 547.6 1267.55 547.45 1267.5 547.35 1267.3 546.7 1267.2 546.1 1266.9 544.5 1266.75 542.9 1268.25 544.1 1269.65 545.4 1273.75 548.95 1276.55 553.8 1279.7 559.25 1282.3 565.05 1283.2 565.55 1284.15 566.05 1284.75 566.3 1285.4 566.6 1286.1 566.7 1286.85 566.85 1287.3583984375 566.9396484375 1287.85 567.05 1288.2083984375 567.11953125 1288.55 567.2 1289.5 567.3 1290.5 567.45 1290.2525390625 566.6583984375 1289.9 565.9
L 1289.9 565.9
Q 1288.65 563.45 1287 561.4 1279.7630859375 552.57265625 1273.95 542.8 1272.4921875 540.2796875 1271.1 537.7 1270.0779296875 535.8091796875 1269.15 533.85 1265.9076171875 526.74921875 1264.35 518.95 1264.308984375 518.6638671875 1264.25 518.35 1264.228125 518.20390625 1264.2 518.05 1263.9640625 516.7046875 1263.7 515.35 1263.6443359375 515.05625 1263.55 514.75 1263.9451171875 514.9353515625 1264.3 515.1 1264.8033203125 495.3765625 1268.4 475.8 1272.25 454.7 1272.25 436.5 1272.25 423.451171875 1270.95 409.4 1270.4685546875 404.31171875 1269.8 399.1 1269.6919921875 397.996875 1269.55 396.9 1266.3 372.2 1260.15 352.65 1259.69453125 351.203515625 1259.2 349.8 1248.501953125 317.517578125 1231.8 307 1229.6119140625 305.632421875 1227.3 304.6 1225.341796875 303.7796875 1223.3 303.2 1220.4419921875 302.3931640625 1217.4 302.1 1217.834765625 302.290234375 1218.25 302.45 1218.3931640625 302.5216796875 1218.5 302.6 1216.3896484375 303.812109375 1214.3 305.05 1213.2861328125 305.2845703125 1212.25 305.55 1211.3275390625 305.57578125 1210.35 305.6 1207.1681640625 305.68671875 1203.95 305.65 1202.503125 305.621875 1201.05 305.55 1197.7525390625 305.4541015625 1194.45 305.2 1184.15 304.75 1173.7 305.05 1150.55 305.95 1127.6 309.05 1108.8787109375 311.4115234375 1090.25 314.35 1081.6998046875 315.7513671875 1073.15 317.25
L 1078.95 317.9 1075.15 318.75
Q 1077.55 319.2 1080 319.7 1084.01796875 320.5486328125 1087.9 321.75 1095.2369140625 324.055078125 1102.1 327.65 1111.25 332.45 1119.25 338.65 1128.5 345.75 1136.3 354.25 1137.3685546875 355.4091796875 1138.4 356.6 1147.7013671875 367.1107421875 1154.85 379.25 1155.00078125 379.5076171875 1155.15 379.75 1155.8455078125 381.29609375 1156.65 382.85 1157.3703125 384.244140625 1158.1 385.6 1157.622265625 385.708203125 1157.15 385.85 1157.0880859375 385.70859375 1157 385.55 1149.05 371.35 1138.1 359.15 1137.8119140625 358.82734375 1137.5 358.5 1128.583203125 348.6607421875 1117.3 341.3 1102.35 331.55 1084.95 327.5 1069.6 324.15 1054 326.5 1030.4 329.85 1009.3 341.35
M 1122.05 385.1
Q 1123.1140625 384.57265625 1124.1 383.95 1125.31328125 383.2115234375 1126.5 382.4 1128.675390625 380.9533203125 1130.75 379.3 1130.2 382.5 1127.65 384.85 1126.7587890625 385.6826171875 1125.85 386.5 1123.80390625 385.7640625 1122.05 385.1 Z"/>

<path fill="#000000" stroke="none" d="
M 1048.2 319.1
Q 1045.6060546875 320.4048828125 1042.9 321.45 1042.00234375 321.821875 1041.1 322.15 1040.92421875 322.21328125 1040.75 322.25 1040.448046875 322.3853515625 1040.15 322.5 1038.09140625 323.2328125 1036 323.95 1024.8552734375 328.0517578125 1013.85 332.25 1000.05 337.4 987.35 344.85 970.7 354.55 957.65 368.4 949.05 377.5 942.75 388.55 936.5 399.65 930.95 410.75 927.95 416.8 923.75 421.95 921.15 425.1 918.05 427.75
L 893.75 412.7
Q 893.6 413.05 893.6 413.4 893.6 414.55 894.05 415.65 896 420.1 898.25 424.5 899.05 426.1 899.95 427.7 900.4 428.5 900.95 429.3 891.15 427.25 881.4 427.1 873.1 426.95 866.9 431.5 865.2 432.75 866.65 433.8 872.05 437.95 879.15 439.45 884.55 440.75 889.85 442.8 889.2693359375 443.007421875 888.7 443.2 889.7228515625 443.33828125 890.65 443.55 892.4015625 443.98671875 893.85 444.8 895.1953125 445.5541015625 896.15 446.65 896.2228515625 446.703125 896.25 446.75 896.6796875 447.230078125 897 447.75 896.4005859375 448.1509765625 895.75 448.5 892.395703125 450.5025390625 888.8 452.35 878.453125 457.6962890625 866.3 461.95 851.55 467.1 830.05 471.9 805.25 477.1 792.85 479.85 771.1 484.65 756.3 489.7 734.3 497.2 714.2 509.15 694.1 521.1 677.05 536.85 661.8 550.9 653.25 564.45 644.6 578.1 637.6 599.85 623.4 644.4 627.25 681.55 627.3216796875 682.3150390625 627.4 683 627.0541015625 686.8306640625 627.25 688.75 627.35 690.25 627.85 693
L 628.75 697.85
Q 629.3 700.75 629.8 702.3 630.025 702.9482421875 630.25 703.5 631.550390625 709.385546875 634.15 714.9 634.75 713.9 635.35 712.9 637.10078125 710.10625 639.1 707.45 639.7859375 706.5796875 640.5 705.7 644.95 700.1 649.9 694.9 651.55 698.2 654.65 700.45 665.55 708.05 678.45 712 694.3390625 716.8861328125 710.8 719.15 715.5 719.812890625 720.2 720.25 721.611328125 720.3658203125 723 720.45 723.2560546875 720.4814453125 723.5 720.5 729.8009765625 720.9990234375 736.1 721.3 755.0384765625 722.2005859375 773.95 721.3 795.2 720.55 816.4 718.55 835.85 716.8 855.05 714.25 874.95 711.7 894.95 708.65 912.2 706.15 929.5 703.5 946.55 700.85 963.75 698.85 972.887890625 697.5580078125 981.85 695.95 987.1673828125 695.0353515625 992.4 694 993.15 694.05 993.95 694.1 1009.85 692.3 1025.6 690.5 1039.2111328125 689.035546875 1052.85 688.05 1052.8876953125 688.052734375 1052.9 688.05 1052.888671875 688.079296875 1052.85 688.1
L 1124.2 687.75
Q 1125.2224609375 687.9689453125 1126.15 688.25 1127.225390625 688.5861328125 1127.8 689 1133.5470703125 687.9240234375 1138.8 684.35 1139.8060546875 683.678515625 1140.8 682.9 1143.25 681.4 1145.4 679.35 1147.75 677.05 1149.45 674.25 1150.4146484375 672.6662109375 1151.35 671.05 1153.7359375 667.123046875 1156.05 663.1 1158 659.6 1155.6 656.55 1152.9109375 663.9912109375 1148.5 669.85 1143.401953125 676.703125 1136 681.45 1134.229296875 682.601953125 1132.3 683.25 1131.8810546875 683.2931640625 1131.4 683.4 1130.7685546875 683.610546875 1130.2 683.8 1128.62734375 684.0841796875 1126.95 684.05 1121.0984375 684.4484375 1115.25 684.3 1109.3484375 684.2025390625 1103.45 683.55 1102.3193359375 683.407421875 1101.2 683.25 1090.1857421875 682.04296875 1079.15 682.25 1074.2296875 682.3962890625 1069.3 682.8 1049.95 683.85 1030.75 685.9 1013.3 687.7 995.65 689.85
L 992.85 690.05
Q 990.85 690.45 988.8 690.85 986.3626953125 691.1962890625 983.9 691.55 968.76953125 693.703125 953.65 695.9 933.25 698.7 912.55 701.9 879.45 706.85 846.35 710.85 820.75 713.85 795 715.35 782.3 716.15 769.65 716.4 755.6 716.65 741.45 716.1 737.65 715.85 733.85 715.65 732.0220703125 715.4859375 730.2 715.3 728.1220703125 715.159375 726.05 715 723.60703125 714.7654296875 721.15 714.45 699.7998046875 711.9248046875 679.55 705.1 665.3 700.2 652.4 692.45 659.1 686.3 666.45 681.2 674.85 675.35 684.15 670.45 686 669.5 687.85 668.6 689.7 667.65 691.6 666.85 713.25 657.6 736.15 652.7 761.75 647.45 787.55 644.15
L 958.5 620.5
Q 967.675390625 619.4083984375 976.8 618.15 985.2474609375 616.9703125 993.65 615.65 1001.6443359375 614.4201171875 1009.55 612.9 1015.441796875 611.8234375 1021.25 610.55 1027.4029296875 609.2701171875 1033.5 607.8
L 1031 610.45
Q 1033.75 608.75 1036.45 607.05 1036.5 607.05 1036.55 607 1053.4 602.85 1068.6 594.85 1080.45 588.5 1090.6 579.7
L 1148.35 577.6
Q 1144.05 575.9 1139.55 574.85 1122.75 571.5 1105.5 572.85 1077.9 575.25 1050.8 579 1045.5 579.7 1041.75 583.05 1045.9 582.5 1050.05 582 1066.65 579.85 1083.25 580.05 1079.55 582.05 1075.8 583.95 1059.5 592.45 1041.75 597.7 1033.499609375 600.125 1025.15 602.1 1019.540234375 603.428515625 1013.85 604.55 1012.04921875 604.9109375 1010.2 605.25
L 986.15 609.1 978.5 610.35 975.2 611.05 773.35 641.5
Q 770.25 642 767.2 642.5 750.4 645.05 733.45 648.3 715.1 652.1 697.75 658.4 680.15 664.75 665.05 675.15 650.504296875 685.25390625 639.45 699.25 639.2162109375 699.6064453125 638.95 699.95 636.90859375 702.5896484375 635.3 705.5 635.22578125 704.6720703125 634.65 703.5 633.2517578125 700.5580078125 632.3 697.55 631.6494140625 692.9677734375 631.1 688.3 632.6732421875 680.245703125 632.8 668.25 633 649.35 633.4 645 634.1 637.45 636.25 628.15 637.5 622.55 640.55 611.6 645.4 594.2 648.5 585.65 653.65 571.45 660.25 561.35 665.25 553.7 672.6 546.05 678.5 539.85 687 532.5 716.2 507.35 743.55 496.05 759.25 489.6 781.35 485 785.95 484.05 820.55 478 844.25 473.9 858.95 469.5 876.7525390625 464.163671875 890.5 456.15 892.3482421875 455.0705078125 894.1 453.95 894.237109375 453.8720703125 894.35 453.8 899.315234375 450.68125 899.85 447.4 899.909375 447.4138671875 899.95 447.4 900.15 447.3 900.3 447.2
L 901.1 446.85 897.85 444.05 898.3 443
Q 898.2 442.75 898.1 442.55 897.30390625 441.141796875 895.95 440.4 895.67421875 440.2736328125 895.35 440.15 894.7400390625 439.912890625 894.05 439.8 890.85 439 887.85 437.7 880.1 434.4 871.85 433.4 870.55 433.1 869.9 432.1 869.75 431.85 869.65 431.65 876.25 431.6 882.75 430.85 890.951171875 429.646484375 898.65 432.1 899.61640625 432.3970703125 900.55 432.75 904.15 434.05 907.4 436.3 908.45 437 909.45 436.15 909.6 436.1 909.7 435.95 909.75 435.75 909.75 435.6 909.85 435.05 909.7 434.55 909.45 433.75 909 433.15 907.8 431.6 906.6 430.15 905.2 428.5 903.95 426.8 902.6 425 901.4 423.15 904.85 425.3 908.3 427.55 910.5 428.9 912.7 430.4 914 431.25 915.3 432.1 916.75 433.1 918.7 433.25 919.9 433.55 921.15 433.25 921.5 433.1 921.85 433
L 922.65 434.1
Q 926.6 430.55 929.5 426.1 934.6 418.35 938.2 409.85 941.85 401.2 946.3 392.65 950.25 384.95 956.3 378.8 976.85 358.15 1002.8 344.8 1006.05 343.1 1009.3 341.35 1030.4 329.85 1054 326.5 1069.6 324.15 1084.95 327.5 1102.35 331.55 1117.3 341.3 1128.583203125 348.6607421875 1137.5 358.5 1137.8119140625 358.82734375 1138.1 359.15 1149.05 371.35 1157 385.55 1157.0880859375 385.70859375 1157.15 385.85 1157.622265625 385.708203125 1158.1 385.6 1157.3703125 384.244140625 1156.65 382.85 1155.8455078125 381.29609375 1155.15 379.75 1155.00078125 379.5076171875 1154.85 379.25 1147.7013671875 367.1107421875 1138.4 356.6 1137.3685546875 355.4091796875 1136.3 354.25 1128.5 345.75 1119.25 338.65 1111.25 332.45 1102.1 327.65 1095.2369140625 324.055078125 1087.9 321.75 1084.01796875 320.5486328125 1080 319.7 1077.55 319.2 1075.15 318.75
L 1078.95 317.9 1073.15 317.25
Q 1081.6998046875 315.7513671875 1090.25 314.35 1108.8787109375 311.4115234375 1127.6 309.05 1150.55 305.95 1173.7 305.05 1184.15 304.75 1194.45 305.2 1197.7525390625 305.4541015625 1201.05 305.55 1202.503125 305.621875 1203.95 305.65 1207.1681640625 305.68671875 1210.35 305.6 1211.3275390625 305.57578125 1212.25 305.55 1213.2861328125 305.2845703125 1214.3 305.05 1216.3896484375 303.812109375 1218.5 302.6 1218.3931640625 302.5216796875 1218.25 302.45 1217.834765625 302.290234375 1217.4 302.1 1217.184765625 302.040234375 1216.95 301.95 1216.2 301.7 1215.5 301.5 1214.75 301.35 1214.05 301.25 1213.15 301.1 1212.3 301 1212.9330078125 300.690625 1213.55 300.35 1211.1708984375 299.9603515625 1209.65 299.4 1209.522265625 299.3525390625 1209.4 299.3 1207.7515625 299.4412109375 1206.15 299.5 1203.6333984375 300.0041015625 1200.95 300.05 1200.2203125 300.0619140625 1199.5 300.05 1199.4115234375 300.0763671875 1199.3 300.05 1184.779296875 300.31328125 1170.2 300.55 1154.05 300.85 1137.9 302.55 1120 304.1 1102.1 307.05 1083.388671875 310.1353515625 1064.65 314.45 1063.9193359375 314.71953125 1063.05 315
L 1052.2 318.55
Q 1050 319.3 1048.7 319.2 1048.4466796875 319.174609375 1048.2 319.1
M 634.4 707.2
Q 634.235546875 707.601171875 634.05 708 633.9701171875 707.660546875 633.9 707.3 634.16875 707.3177734375 634.4 707.2
M 1297.35 571.85
Q 1299.15 571.45 1299.05 569.7 1298.85 565.85 1296.1 562.85 1295.99375 562.7341796875 1295.9 562.6 1295.085546875 561.734375 1294.25 560.8 1283.765234375 549.05234375 1275.25 535.75 1273.5201171875 533.035546875 1272 530.2 1268.8080078125 524.273046875 1266.5 517.8 1266.1755859375 516.8548828125 1265.85 515.85 1265.081640625 515.499609375 1264.3 515.1 1263.9451171875 514.9353515625 1263.55 514.75 1263.6443359375 515.05625 1263.7 515.35 1263.9640625 516.7046875 1264.2 518.05 1264.228125 518.20390625 1264.25 518.35 1264.308984375 518.6638671875 1264.35 518.95 1265.9076171875 526.74921875 1269.15 533.85 1270.0779296875 535.8091796875 1271.1 537.7 1272.4921875 540.2796875 1273.95 542.8 1279.7630859375 552.57265625 1287 561.4 1288.65 563.45 1289.9 565.9
L 1289.9 565.9
Q 1290.2525390625 566.6583984375 1290.5 567.45 1289.5 567.3 1288.55 567.2 1288.2083984375 567.11953125 1287.85 567.05 1287.3583984375 566.9396484375 1286.85 566.85 1286.1 566.7 1285.4 566.6 1284.75 566.3 1284.15 566.05 1283.2 565.55 1282.3 565.05 1279.7 559.25 1276.55 553.8 1273.75 548.95 1269.65 545.4 1268.25 544.1 1266.75 542.9 1266.9 544.5 1267.2 546.1 1267.3 546.7 1267.5 547.35 1267.55 547.45 1267.65 547.6 1267.75 547.75 1267.9 547.95 1268.2 548.4 1268.5 548.9 1268.7 549.2 1268.9 549.55 1269.15 549.9 1269.4 550.3 1269.95 551.15 1270.5 552.05 1270.8 552.6 1271.15 553.2
L 1268.2 549 1267.85 549.35
Q 1267.95 550.8 1268.55 552.1 1271.9568359375 559.5763671875 1276.35 566.4 1276.5978515625 566.8138671875 1276.85 567.2 1278.259375 569.4021484375 1279.25 571.8 1280.578515625 574.820703125 1281.25 578.15 1281.6716796875 580.193359375 1281.9 582.25 1282.832421875 589.654296875 1281.5 597.1 1280.05 605.05 1276.05 612.05 1275.3 613.35 1274.55 614.7 1274.55 610.4 1273.85 606.25 1271.95 594.6 1270.95 582.85 1270.7732421875 580.9060546875 1270.35 579.05 1270.162109375 577.995703125 1269.85 576.95 1269.0962890625 574.1673828125 1267.8 571.55 1267.55 571.1 1267.25 570.8 1266.9 571.65 1266.9 572.5 1266.942578125 575.1458984375 1266.95 577.75 1266.9498046875 578.1787109375 1266.95 578.55 1267.0017578125 587.9314453125 1266.7 597.25 1266.35 607.85 1263.35 618 1260.3 628.3 1253.75 636.65 1250.2 641.2 1245.35 643.9 1244.4 644.4 1243.45 644.9 1245.65 639.55 1247.05 634.2 1248.9 626.95 1248.05 619.4 1247.8 617.15 1248 615.1 1248 614.9 1247.95 614.7 1247.3609375 616.396484375 1246.8 618.1 1243.74453125 627.227734375 1241.3 636.5 1240 641.35 1237.35 645.5 1236.36015625 647.0177734375 1236.4 648.6 1236.7509765625 648.92421875 1237.1 649.25 1238.026171875 650.1048828125 1238.2 651.7 1238.8146484375 651.8375 1239.6 651.6 1244.65 649.9 1248.95 646.75 1256.85 640.9 1261.3 632.35 1265.6 624.1 1268.05 614.95 1268.6 612.95 1269.15 610.95 1269.15 616.25 1267.45 621.35 1266.45 624.25 1266.3 627.25 1266.2 629.15 1267.9 629.55 1272.95 630.5 1276 625.25 1279.55 619 1282.65 612.4 1287.1 602.95 1287.5 592.55 1287.764453125 586.4666015625 1286.75 580.5 1286.451953125 578.60546875 1286 576.7 1285.5 574.45 1284.95 572.2 1289.0333984375 573.1548828125 1293.1 572.7 1295.2333984375 572.464453125 1297.35 571.85
M 1212.65 625.1
Q 1213.9 622.2 1214.95 619.3 1215.25 618.6 1215.25 617.9 1215.2 617.15 1214.95 616.45
L 1212.95 616.6 1213.35 617.25
Q 1205.9974609375 633.565625 1195.15 647.7 1190.52578125 653.7845703125 1185.25 659.45 1175.2556640625 670.1634765625 1162.45 676.9 1158.38359375 679.0892578125 1154 680.85 1157.0951171875 678.28046875 1159.9 675.35 1161.898828125 673.296484375 1163.75 671.05 1171.05 662.25 1171.65 651.7 1169.1 655.1 1166.8 658.7 1163.9689453125 663.0896484375 1160.65 667 1158.0802734375 670.073046875 1155.2 672.85 1148.9166015625 678.8912109375 1141.25 683.5 1139.9923828125 684.035546875 1139.15 684.85 1138.3513671875 685.670703125 1138 686.8 1137.6 688.05 1138.65 687.9 1153.2556640625 687.242578125 1165.95 679.2 1166.7861328125 678.699609375 1167.6 678.15 1182.9 667.85 1194.6 653.4 1196.4748046875 651.0890625 1198.25 648.7 1206.6275390625 637.5251953125 1212.65 625.1
M 1245.7 588.4
Q 1245.5744140625 589.437109375 1245.45 590.45 1244.598046875 597.2740234375 1243.6 604 1240.95 621.6 1231 636.3 1223.23125 647.8677734375 1211.1 654.2 1209.008984375 655.3138671875 1206.8 656.25 1207.769140625 654.6447265625 1208.75 653.05 1209.3994140625 652.0251953125 1210.05 651 1219.6 636.4 1220.15 619.15
L 1215.45 626.5
Q 1211.456640625 639.710546875 1204.15 650.95 1200.8544921875 656.0322265625 1196.9 660.7 1194.1 663.95 1197.7 664 1204.25 664.05 1210.2 660.4 1213.0140625 658.6619140625 1215.7 656.8 1222.834765625 651.8791015625 1229.2 646.05 1240.2 633.6 1244.85 617.45 1248.801171875 603.7619140625 1246.05 590.1 1245.8984375 589.258984375 1245.7 588.4
M 1238.25 653.1
L 1238.25 653.15
Q 1240.2560546875 655.0587890625 1242.45 656.75 1240.3779296875 654.9228515625 1238.25 653.1
M 1484.95 431.05
Q 1484.4083984375 431.2193359375 1483.85 431.35 1483.995703125 431.4556640625 1484.1 431.5 1484.552734375 431.29921875 1484.95 431.05
M 1482.05 431.85
Q 1481.711328125 431.9517578125 1481.35 432.05
L 1481.4 432.15 1482.05 431.85 Z"/>

<path fill="#5B5D5E" stroke="none" d="
M 901.6 447.65
L 901.45 447.7 900.3 447.2
Q 900.15 447.3 899.95 447.4 899.909375 447.4138671875 899.85 447.4 899.315234375 450.68125 894.35 453.8 894.237109375 453.8720703125 894.1 453.95 892.3482421875 455.0705078125 890.5 456.15 876.7525390625 464.163671875 858.95 469.5 844.25 473.9 820.55 478 785.95 484.05 781.35 485 759.25 489.6 743.55 496.05 716.2 507.35 687 532.5 678.5 539.85 672.6 546.05 665.25 553.7 660.25 561.35 653.65 571.45 648.5 585.65 645.4 594.2 640.55 611.6 637.5 622.55 636.25 628.15 634.1 637.45 633.4 645 633 649.35 632.8 668.25 632.6732421875 680.245703125 631.1 688.3 631.6494140625 692.9677734375 632.3 697.55 633.2517578125 700.5580078125 634.65 703.5 635.22578125 704.6720703125 635.3 705.5 636.90859375 702.5896484375 638.95 699.95 639.2162109375 699.6064453125 639.45 699.25 650.504296875 685.25390625 665.05 675.15 680.15 664.75 697.75 658.4 715.1 652.1 733.45 648.3 750.4 645.05 767.2 642.5 770.25 642 773.35 641.5
L 975.2 611.05 975.4 610.65 978.5 610.35 986.15 609.1
Q 985.3197265625 609.0212890625 984.4 608.9 983.015234375 608.7169921875 981.65 608.5 968.4716796875 606.710546875 957.1 604.4 954.3853515625 603.8513671875 951.85 603.3 926.4767578125 597.6775390625 920.55 591.1 918.75 589.0916015625 918.75 587 918.75 585.15 921.4 578.7 925.9 567.8 927.25 564.15 935.75 540.95 935.75 520.15 935.75 496.85 925 476.7 916.3640625 460.4791015625 901.6 447.65
M 787.55 644.15
Q 761.75 647.45 736.15 652.7 713.25 657.6 691.6 666.85 689.7 667.65 687.85 668.6 686 669.5 684.15 670.45 674.85 675.35 666.45 681.2 659.1 686.3 652.4 692.45 665.3 700.2 679.55 705.1 699.7998046875 711.9248046875 721.15 714.45 723.60703125 714.7654296875 726.05 715 728.1220703125 715.159375 730.2 715.3 732.0220703125 715.4859375 733.85 715.65 737.65 715.85 741.45 716.1 755.6 716.65 769.65 716.4 782.3 716.15 795 715.35 820.75 713.85 846.35 710.85 879.45 706.85 912.55 701.9 933.25 698.7 953.65 695.9 968.76953125 693.703125 983.9 691.55 986.3626953125 691.1962890625 988.8 690.85 990.85 690.45 992.85 690.05 994.370703125 680.6310546875 997 671.6 999.25 663.9734375 1002.3 656.6 1002.961328125 655.0548828125 1003.65 653.5 1011.2 636.3 1022.05 620.95 1026.05 615.35 1031 610.45
L 1033.5 607.8
Q 1027.4029296875 609.2701171875 1021.25 610.55 1015.441796875 611.8234375 1009.55 612.9 1001.6443359375 614.4201171875 993.65 615.65 985.2474609375 616.9703125 976.8 618.15 967.675390625 619.4083984375 958.5 620.5
L 787.55 644.15 Z"/>

<path fill="#666666" stroke="none" d="
M 978.5 610.35
L 975.4 610.65 975.2 611.05 978.5 610.35 Z"/>
</g>
</defs>

<g transform="matrix( 1, 0, 0, 1, 0,0) ">
<use xlink:href="#Layer5_0_FILL"/>
</g>
</svg>
