
<svg xmlns="http://www.w3.org/2000/svg" version="1.1" xmlns:xlink="http://www.w3.org/1999/xlink" preserveAspectRatio="none" x="0px" y="0px" width="1920px" height="1080px" viewBox="0 0 1920 1080">
<defs>
<g id="Layer5_0_FILL">
<path fill="#000000" stroke="none" d="
M 1118.15 674.45
Q 1117.65 674.45 1117.35 674.5 1117 674.5 1116.8 674.75 1116.6 675 1116.65 675.3 1117.25 674.95 1118.9 674.5 1118.5 674.55 1118.15 674.45
M 1313.35 504.7
L 1313.3 504.5
Q 1313 504.1 1312.55 504.05 1312.15 503.9 1311.75 504.2 1312.45 505.15 1311.7 507.6 1311.55 508.1 1311.45 508.6 1311.05 510.6 1311.05 513.1 1311.05 515 1311.45 518.55
L 1312.4 528.75
Q 1313 535.1 1313.45 538.3 1314.15 543.65 1315.3 547.8 1316.4 551.9 1319 559.05
L 1322.95 569.85
Q 1319.25 568.55 1314.15 563 1313.3 562 1312.45 561.15 1312.2 560.15 1311.8 559.1 1310.15 553.85 1307.3 552.25 1306.45 551.85 1305.5 552.05 1304.45 552.15 1304.3 553 1304.2 553.6 1304.9 554.65 1305.25 555.2 1305.6 555.75 1305.35 555.85 1305.3 556.05 1305.15 556.3 1305.3 556.6 1305.5 556.95 1306.2 557.25 1306.25 557.25 1306.3 557.35 1307.4 560 1308.05 563.15 1308.85 566.65 1309.2 572.3 1309.65 579.1 1309.55 583.75 1309.4 589.95 1308.2 595.1 1306.25 603.2 1300.1 614.3 1298.35 617.45 1297.3 619 1293.15 625.05 1286.8 628.5 1288.15 618.55 1288.25 613.3 1288.4 606.65 1287.05 601.35 1287.8 598.95 1288.4 596.7 1289.85 590.45 1288.4 586.7 1287.4 586.9 1287.05 588.05 1286.75 589.15 1287.4 589.9 1286.3 591.85 1285.25 595.15 1283.95 599.3 1283.4 600.65
L 1281.85 603.65
Q 1278.05 610.6 1275.15 615.15 1271.25 621.25 1267.3 625.9 1261.15 633 1253.25 638.35 1246.8 642.9 1239.55 645.9 1238.15 646.5 1236.7 647.05 1237.65 645.8 1238.5 644.7 1238.65 644.5 1238.85 644.35 1242.55 639.4 1244.2 636.3 1247.75 629.7 1247.3 623.65 1246.9 624.45 1246.1 625.15 1246.6 624 1247.1 622.85 1248.3 619.8 1249.4 615.9 1250 613.55 1249.3 612.35 1248.9 611.55 1247.95 611.35 1246.9 611.1 1246.35 611.8 1244.65 619.15 1240.7 625.3 1237.85 629.6 1233.3 634.25 1230.4 637.25 1224.8 642.25
L 1220.55 645.95
Q 1216.25 649.7 1215.3 650.5 1211.95 653 1207 655.65 1196.8 661.05 1185.75 664.5 1194.5 655.55 1201.6 645
L 1190.7 655.4
Q 1192.75 653.25 1195.3 649.8
L 1199.2 644.45
Q 1200.9 642.1 1201.55 640.8 1202.7 638.6 1202.5 636.6 1202.45 635.65 1202 635.35 1201.45 635 1200.85 635.65 1200.3 636.1 1199.95 636.9 1198.45 640.3 1193.85 646.5 1191.1 650.15 1189.35 651.95 1187.9 653.35 1185.9 654.9 1184.95 655.05 1184.35 655.65 1184.45 655.7 1184.55 655.75 1182.55 657.15 1179.8 658.7
L 1159.95 669.35
Q 1155.55 671.65 1153.3 672.65 1149.6 674.4 1146.55 675.35 1145.15 675.8 1144.95 676.5 1140.55 677.6 1136.3 676.9 1137.85 675.85 1140.15 673.5 1142.9 670.65 1143.9 669.85 1144.9 669.1 1146.95 667.55 1150.4 664.7 1152.25 660.2 1153 659.85 1153.35 659.1 1153.75 658.25 1153.65 657.45
L 1150.75 659.5
Q 1149.25 660.65 1147.95 661.6 1144.7 663.95 1142.85 665.5 1137.75 669.55 1134.35 673.65 1133.65 674.55 1133.4 675.35 1133.2 675.4 1133.1 675.5 1133.148046875 675.7884765625 1133.05 676.15 1133.069140625 676.15 1133.1 676.15 1133.1 676.5 1133.15 676.8 1133.7 678.8 1137.3 679.05
L 1139.25 679.25
Q 1141.9 679.4 1143.35 679.25 1145.5 679.05 1148.15 677.85 1149.7 677.15 1152.75 675.55 1155.5 674.15 1162.25 671.6 1168.35 669.25 1171.55 667.5 1173.45 666.6 1177.6 663.9
L 1181.95 661.5
Q 1186.6 658.95 1188.6 657.45 1185.2 660.65 1183.2 662.4 1179.95 665.2 1176.95 666.95 1173.85 668.8 1174.6 670.45 1175.35 672 1178.3 671.2 1190.6 667.9 1197.85 665.15 1208.3 661.25 1215.85 656 1220.1 653.1 1226.5 647.5 1231.4 643.15 1234.4 640.4 1235.5 639.35 1236.25 638.5 1238.15 636.55 1239.75 634.65 1238.05 638 1236.95 639.9 1236.65 640.4 1236.45 640.75 1236.05 641.25 1235.75 641.8 1232.95 646 1229.9 648.55 1227.9 650.35 1227.55 650.65 1226.3 651.85 1226 653.15 1227.4 653.85 1229.35 653.05 1230.05 652.7 1232.45 651.1 1234.3 649.85 1237.8 648.45
L 1248.15 644
Q 1252.25 642.15 1254.55 641 1258 639.3 1260.5 637.3 1262.7 635.55 1266.05 632 1274.65 622.8 1279.6 615.55 1282.05 612.05 1283.85 608.55 1283.5 615.25 1282.35 623.95 1281.7 628.6 1280.85 630.55 1280.55 631.25 1279.7 633 1279.05 634.5 1278.95 635.65 1278.85 637.05 1279.75 638.25 1280.65 639.55 1281.9 639.45 1282.85 639.4 1284.3 638.25
L 1290.4 633.45
Q 1296.4 628.8 1298.95 626 1302.15 622.4 1305.5 616.25 1308.3 611.2 1310.25 606.5 1314.75 595.3 1315.2 583 1315.45 574.25 1313.65 565.85 1314.55 567.4 1315.55 569.5 1317.8 573.45 1321.4 577.7 1323.7 580.45 1328.2 585.05 1329.65 586.7 1330.8 587.25 1332.7 588.15 1334.1 587.3 1335.65 586.4 1335.5 584.2 1335.45 583 1334.45 580.7 1321.95 551.4 1317.15 526.1
L 1313.35 504.7
M 1102.85 591.5
L 1098.9 579.8
Q 1098.55 580.95 1098.95 583.3 1099.9 588.95 1100.45 599.05 1100.7 602.3 1100.65 604.3 1100.65 610.7 1098.8 616.45 1097.8 619.5 1096.7 621.25 1094.7 624.5 1090.65 626.95 1090.4 627 1090.2 627.15 1090 627.25 1089.75 627.4 1089 627.8 1088.25 628.25 1088.05 628.3 1087.95 628.45 1086.95 628.85 1085.95 629.2 1082 630.7 1077.75 630.85 1074.75 631.05 1069.6 630.3
L 1064.3 629.6
Q 1058.35 628.8 1055.6 627.75 1054.15 627.1 1053.85 628.05 1063.9 632.2 1069 634.1 1073.7 635.95 1076.85 636.7 1082.05 638.05 1085.75 637.05 1088.15 636.45 1090.55 634.7 1092.25 633.45 1094.6 631.15 1099.2 626.35 1100.95 622.55 1101.45 621.55 1102.3 619.15 1104.4 612.35 1104.4 605.35 1104.8 598.2 1102.85 591.5
M 716.95 545.55
Q 716.8 547.65 717.6 550.6 723.2 571 729.25 583.45 737.75 600.8 750.05 610.3 763.95 621.15 786.45 625.4 794.65 626.85 806.15 627.8 812.75 628.4 826 629.4 852.05 631.65 883.3 638 904.95 642.45 939.9 651.3 954.5 654.95 965.6 657.7 971.8 659.25 977.05 660.5 986.15 662.75 991.95 664.15 994.55 664.75 996.45 665.2 1000.9 666.25 1005.35 667.2 1008.85 667.95 1012.2 668.65 1034.9 673.5 1053.6 676.1 1067.8 678.15 1078.1 678.55 1091.45 679 1102.55 677 1110.05 675.65 1116.85 673.15 1118.05 672.65 1119.25 672.2
L 1119.3 672.15
Q 1119.55 672.05 1119.85 672 1121.7 671.1 1123.55 670.15 1131.4 669.35 1139 665.85 1143.6 663.65 1147.45 660.85 1153.85 656.15 1158.35 649.45 1157.05 649.55 1155.75 650.55 1154.95 651.05 1153.45 652.55 1145.85 660.45 1135.2 664.6 1134.35 664.95 1133.4 665.3 1133.2 665.35 1133.05 665.4 1132.9 665.5 1132.85 665.5 1127.85 667.15 1122.8 667.85 1122.05 668.85 1121.3 669.8 1121.25 669.75 1121.15 669.8 1120.65 669.95 1120.35 670.1 1111.25 673.05 1100.05 673.35 1088.2 673.65 1068.1 670.65 1040.75 666.6 1014.05 662 1010.9 661.5 1007.9 660.9 1000.1 659.6 992.4 658.2 992.2 658.1 992 658.15 985.75 657 979.6 655.8 978.7 655.65 977.9 655.55 972.35 654.45 967.1 653.4 938.45 647.7 918.05 642.4 900.95 637.85 892.4 635.75 877.55 632.1 866.55 630.4 856.5 629.05 838.4 627.8 818.6 626.6 810.3 625.65 794.65 623.65 782.55 619.75 768.15 614.9 757.6 606.85 748.1 599.35 738.9 586.3 722.45 563.55 719.2 541.75 717.25 542.75 716.95 545.55
M 676.8 426.7
Q 677 426.5 677.25 426.35 677.4 426.15 677.6 426.05 677.8 425.85 678 425.7 677.85 425.7 677.65 425.75 677.5 425.75 677.35 425.85 677.2 425.8 677.05 425.9 676.9 426.25 676.8 426.7
M 787.6 412.65
Q 787.55 412.65 787.45 412.65 786.95 412.8 787.1 413.15 787.15 413.15 787.2 413.15 787.35 412.8 787.6 412.65
M 899.3 428.85
Q 904.15 425.2 906.95 421.95 906.6 421.4 905.95 421.6 905.35 421.8 904.8 422.3 895.5 432.05 882.65 435.9 878.35 437.1 872.3 438.15 869.5 438.6 867.85 438.55 866.2 438.55 864.05 438.1
L 848.75 435.5
Q 846.5 435.15 845.4 434.75 844.65 434.45 843.55 433.8 842.35 433.2 841.8 432.85 839.2 431.5 833.9 430.25 832.4 429.8 831.9 430.55 833.25 431.4 836 432 839.1 432.7 840.15 433.2 841 433.55 842.65 434.65 844.2 435.65 845.05 436.05 845.85 436.35 848.2 436.9
L 864.2 439.7
Q 866.4 440.05 867.6 440.15 869.1 440.2 871.4 439.8 880.85 438.2 887.35 435.55 893.25 433.15 899.3 428.85
M 789.15 384.6
Q 781.7 390.65 777.3 395.2 771.3 401.4 767.7 407.35 767.45 407.65 767.25 408.05 764.85 411.85 765.15 414.05 765.85 413.05 766.6 411.95 766.95 412.35 767.45 412.4 768.25 412.5 769.2 412.3 769.75 412.2 770.4 412 778.3 409.05 786.95 408.15 787.05 408.1 787.2 408.15 787.25 408.1 787.35 408.1 795 407.4 803.1 408.25 804 408.35 804.75 408.45 811.6 409.35 817.85 411.1 824.7 412.8 838.25 416.85 848.9 418.95 858.05 416.75 859.3 416.4 860.65 416.05 869.5 413.2 878.2 406 886.9 398.8 892.95 389.25 895.9 384.75 897.65 380.55 899.75 375.25 900.05 370 900.1 369.15 900.15 368.45 905.2 372.8 908.75 378.75 910.7 382.05 912.75 386.55 913.25 387.7 913.75 388.95 914.9 387.4 915.35 385.65 915.55 384.55 915.5 383.3 915.35 380.85 914.15 378.25 910.3 370.25 904.45 364.25 898.45 358.3 891 354.55 883.3 351.15 875.75 350.45 870.3 350 859.35 350.85 848.35 351.85 843.1 353.1 830.55 356.05 815.9 365 814.75 365.7 813.45 366.55 802.5 373.45 789.15 384.6
M 787.5 389.45
Q 797.5 380.8 807.25 374.45 809.8 372.75 812.35 371.35 827.55 362.3 843.05 358.5 861.1 353.95 876.55 356.95 879.45 357.55 882.2 358.55 888.4 360.35 893.55 363.6 893.4 364.8 893.55 366.4 893.75 367.25 894.1 368.9 894.75 372.4 893.85 376.8 892.95 380.95 890.95 385.15 887.15 393.05 879.85 400.25 869.85 410.15 859.8 412.85 854.25 414.3 846.8 413.35 841.55 412.85 834.3 411.15 831.05 410.3 828.3 409.75
L 840.2 405.6
Q 844.6 404.05 846.4 403.25 847.5 402.6 849.75 401.45 850.1 401.35 851.2 400.95 852.25 400.65 853 400.25 854.4 399.65 856.8 397.4
L 864.3 390.6
Q 867.55 387.6 869.1 385.6 870.55 383.7 871.3 382.6 872.6 380.95 873.65 380.05 874.25 379.65 874.55 379.35 875.15 379 875.35 378.55 875.6 378.05 875.9 377.35 876.3 376.4 876.45 376.25 876.75 375.4 877.55 374.35 878.5 373.15 878.9 372.45 879.3 371.8 879.65 370.6 880.05 369 880.35 368.4 881.4 366.35 881.75 365.25 882.4 363.5 882.45 359.75 882.35 359.1 882.05 358.65 881.6 358.25 881 358.75 880.75 359.1 880.5 360.05 880.25 363.1 879.2 366.2 878 369.8 876.1 373.1 875.15 374.5 873.2 377.05
L 868.55 383.55
Q 866.65 386.05 865.15 387.5 864.8 387.8 862.6 389.85
L 858.4 393.5
Q 857.65 394.15 856.15 395.65 854.85 396.9 853.9 397.7 851.75 399.2 848.85 400.6 845.6 402.25 838.05 404.85
L 825.7 409
Q 823.6 408.5 822.1 408.25 813.5 406.45 805.4 405.65 804.55 405.55 803.85 405.55 794.25 404.85 786.4 405.65 777.9 406.55 770.1 409.35 768.95 409.8 767.8 410.25 768.4 409.35 769.15 408.55 776.1 399.1 787.5 389.45
M 1313.05 290.95
Q 1309.15 289.15 1304.9 287.6 1294.9 283.9 1280.35 280.5 1257.5 275.15 1229.55 271.2 1209.05 268.3 1178.15 265.3 1152.1 262.75 1136.85 262.3 1114.05 261.6 1095.6 264.25 1065.15 268.45 1048.55 282.7 1044.1 286.6 1037.9 293.85 1029.9 303.15 1027.75 305.45 1022.5 310.75 1017.25 314.1 1009.15 319.3 1001 319.4 999.2 319.45 998.25 319.95 996.9 318.7 996.2 317.95 995.95 317.7 995.65 317.45 993.1 314.55 991.4 311 989.7 307.4 989.15 303.55 989.1 303.15 989.05 302.8 988.85 300.55 988.35 299.7 987.9 298.95 987.1 298.6
L 987.05 298.6
Q 986.3 298.3 985.6 298.65 985.05 299 984.45 300.45 984.35 300.65 984.25 300.9 984.05 301.55 982.4 304.25 981.25 306.25 981.15 307.75 981.05 308.6 981.25 310.1 981.25 310.15 981.3 310.2 981.25 310.85 980.9 312.6 980.6 314.35 980.7 316.5
L 973.95 312.4
Q 972.85 311.65 971.7 311.1 971.5 311 971.35 310.9 970.7 310.55 968.15 309.8 964.95 308.9 963.3 308.5 960.65 307.95 958.5 307.85 958.3 307.8 958.05 307.85 954.6 307.8 948.6 309.05 946.8 309.45 946.35 310.15 945.85 310.9 946.2 311.85 946.6 312.75 947.4 313.25 948.45 313.95 950.85 314.6 952.75 315.4 955.65 318.35
L 955.7 318.35
Q 957.8 320.45 959.25 321.9 959.9 322.55 960.4 323
L 960.45 323.05
Q 961.7 324.1 962.95 325 961.9 325.05 961.05 325.25 959.25 325.45 957.7 325.8 956.95 325.9 956.3 326.05 955 326.3 953.8 326.55 951.7 326.85 950 327.25 949.55 326.75 949.25 326.25 944.8 326.15 939.7 325.85 928 325.15 916.45 324.35 916.9 324.75 917.3 325.35 910.55 321.3 905.35 319.7 900.55 318.2 894.3 317.6 890.35 317.2 882.8 317.1 874.4 316.95 869.9 317 862.7 317.2 857 318.1 855.65 318.3 854.2 318.6 845.35 317.6 836.6 316.5 820.25 314.45 813.85 313.95 801 312.75 790.95 313.3 766.95 314.5 744.65 325.2 722.5 335.95 706.5 353.9 693.6 368.3 682.9 389.9 677.9 399.95 675.6 407.85 673.35 415 673.1 421.55
L 672.8 422.95 670.7 426.8
Q 670.65 426.9 670.65 427.1
L 671.2 428.8
Q 671.2 429.1 671.3 429.4
L 670.95 430.7
Q 670.35 432.9 670.25 434.3 670.2 435.6 670.4 438.1
L 670.85 442.55
Q 671.6 449.2 673.85 452.4 674.75 453.8 675.75 453.9 676.65 453.95 678.05 452.65 681.95 448.95 684.75 446.15 684.95 446 685.15 445.9 685.9 445.35 687.5 444.3 690.95 442.05 695.6 440.5 699.15 439.15 704.35 438.05 710.2 436.8 716.15 435.95 716 436.35 716.05 436.8 716 437.05 715.85 437.4 715.45 437.7 715.15 438.25 714.15 440.1 714.1 442.3 713.95 444.65 714.7 446.55 715.9 449.85 719.15 452.45 723.65 455.7 729.35 455.65 728.85 453.15 728.7 451.9 727.85 447.5 729 443.05 730 438.9 732.25 436.7 733.05 435.85 734.75 434.85 735.4 434.35 735.8 434.1 743.1 433.85 750.65 434.25 750.55 434.45 750.5 434.65
L 749.95 436.9
Q 749.85 437.6 750.1 438.2 749.1 442.6 749.4 444.8 749.65 447.2 751.25 450.55 755.75 459.5 762.65 462.3 764.35 463.05 765.5 462.5 766.05 462.25 766.65 460.85 767.35 459.35 767.5 457.6 767.55 456.75 767.35 453.7 767.15 451.3 767.55 449.95 767.95 448.55 769.3 446.4 771 443.4 772.55 442.55 773.3 442.1 774.95 441.55 775.75 441.1 776.15 440.6
L 776.2 440.55
Q 776.9 440.3 778.85 439.95
L 781.5 439.3
Q 782.35 439.2 783 439 788.9 440.35 794.65 442.15 792.9 445.1 792.8 448.9 792.65 452.55 794.05 456.2 796.3 462.1 802.55 468.3 803.85 469.55 804.7 469.6 805.85 469.85 806.3 469.2 806.7 468.7 806.85 467.25 806.95 464.2 809.35 458.8 810.65 455.6 812.3 454.4 812.65 454.2 814.05 453.55 815.15 452.95 815.55 452.45 816.25 451.65 816.15 450.6 816.1 450.5 816.15 450.45 822.35 453.3 828.3 456.75 830.4 457.85 833 459.55 832.9 459.7 832.85 459.9 831.05 463.25 832.5 467.9 832.95 469.6 834.15 471.65 834.5 472.3 836.2 475.25
L 838.45 478.7
Q 840.45 481.85 842.25 481.55 843.85 481.5 844.75 479.75 845.25 478.75 845.45 476.6
L 846.45 467.5
Q 854.35 472.05 860.6 474.45 873.3 479.35 889.15 480.1 894.8 480.3 901 480 900.85 480.85 902.35 481.9 904.7 483.25 909.15 486.15 913.15 488.75 915.7 490.85 917.8 492.6 921.7 496.6
L 937.25 511.95
Q 938.35 513 939.3 514.1
L 939.35 513.75
Q 942.05 516.95 945.35 520.95 946.25 522.2 947.2 523.45 952.65 531.15 954.5 537.55 955.2 539.75 955.25 539.95 955.75 541.3 956.35 542.15 957.1 543.05 958.15 543.6 947.5 546.45 931.3 550.95 905 558.4 887.55 560.55 863.1 563.75 843.5 559.1 832.65 556.55 819.85 550.75 812 547.2 797.4 539.35 797.4 539.5 797.5 539.8 798.25 542.25 801.55 544.85 812.8 553.95 827.25 559.55 841 564.7 856.3 566.3 882.9 569.05 915.3 560.95 930.75 557.05 960.55 547.6 961.25 548.15 962.15 548.35 962.45 547.75 962.6 546.85 963.3 546.6 964.1 546.4
L 964.1 546.35
Q 976.6 542.75 987.6 540.85 988.7 540.65 989.85 540.45 1002.95 538.2 1013.7 538.35 1015.85 538.45 1018.15 538.6 1018.95 538.6 1019.65 538.7 1034.15 539.8 1049 544.6 1064.3 549.6 1079.45 558.45 1079.7 559.6 1080.05 560.8 1081.2 565.35 1082.05 569.75 1081.05 570 1081.2 571.3 1081.25 571.75 1081.75 573.1 1082.5 574.75 1082.9 577.2 1083.1 578.55 1083.55 581.55 1083.6 581.8 1083.7 582.1 1084.5 593.85 1082.65 604.75 1082 604.95 1081.4 605.25 1081.25 605.75 1080.9 606.55 1079.85 609 1078.45 610.25 1077.8 610.7 1076.7 611.35 1075.45 612.15 1075 612.45 1073.55 613.65 1072.8 614.1 1071.75 614.05 1070.6 613.95 1068.2 613.8 1067.2 613.8 1067 613.7 1066.9 613.5 1066.2 613.45 1065.5 613.45 1065.35 613.45 1065.25 613.45 1065.15 613.45 1065.05 613.5 1064.15 613.35 1063.3 613.3 1058.75 612.8 1051.75 610.25 1038.25 605.2 1026.1 601.2 1024.25 600.6 1022.5 600.05 1022.25 600 1022.05 599.9 1021.05 599.55 1020.05 599.25 1012.7 596.9 1005.9 595.05 999.15 593.1 992.55 591.45 997.05 591.3 1003.85 591.15 1004.8 591.15 1005.85 591.15 1012 591.1 1022.45 591.75
L 1022.55 591.75
Q 1023.55 591.8 1024.7 591.9 1026.7 592 1028.6 592.15 1034.3 592.6 1037.5 593 1044.5 593.95 1049.7 596.1 1051.85 596.95 1057.65 599.9 1062.6 602.55 1065.8 603.5
L 1057.4 598.3
Q 1051.4 594.75 1048.4 593.3 1043.35 591.05 1036.45 589.9 1033.6 589.4 1029.2 588.95 1026.85 588.7 1024.1 588.45 1023.3 588.4 1022.55 588.4 1011.8 587.4 1004.5 587.4 1001.3 587.35 994.5 587.35
L 976.7 587.6
Q 967.5 585.7 958.75 584.4 936.3 580.8 902.55 579.3 877.35 578.25 864.75 577.55 847.1 576.75 833.45 575.5 833.35 575.4 833.3 575.4 832.6 574.8 831.45 574.25 831.4 574.25 829.5 573.55 827.5 572.85 824 571.2 817.65 568.05 813.4 565.15 808 561.45 804.65 557.1 802.9 554.8 799.6 548.6
L 797.85 545.3
Q 797.1 543.6 797.05 543.25 796.65 542.1 796.85 540 796.5 539.7 796.25 540.45 795.1 543.85 795.15 545.6 795.15 547.8 796.65 551.5 798.5 556.4 799.65 558.5 802.7 563.95 807.45 567.75 809.5 569.4 812.9 571.55 814.7 572.7 816.35 573.65 780.4 568.75 754.15 557.8 746.25 554.65 736.75 549.85 730.95 546.85 719.9 540.75 720 540.95 720.15 541.1 723.4 545.65 728.6 549.6 732.95 552.9 739.15 556.3 763.55 570 796.35 576.3 821.45 581.1 857.45 582.5 877.75 583.35 918.7 584.5 953.95 586.35 979.2 592.15 980.4 592.45 981.75 592.8 982.1 592.9 982.45 592.95 996.25 596.4 1013.75 602.6 1014.35 602.85 1015.15 603.1 1018.35 604.2 1022.3 605.7 1023.5 606.05 1024.75 606.45 1034.15 609.9 1047.7 614.9 1054.6 617.45 1058.6 618.35 1061.4 619.05 1064.05 619.25 1064.6 619.65 1065.4 619.85 1067.5 620.5 1070.9 620.7 1073.05 620.8 1074.45 620.85 1077 621.55 1079.7 621.95 1082.15 622.35 1083.5 622 1083.7 622.05 1083.85 622 1084.1 622 1084.25 622 1085.65 622.4 1085.8 622.4 1086.35 622.45 1087 622 1087.65 621.45 1088.4 620.5 1087.6 620 1086.9 619.55 1087.45 618.7 1087.85 617.7 1088.55 615.65 1088.85 611.4
L 1089.2 604.15
Q 1089.4 600.95 1089.35 599.45 1089.3 599.35 1088.65 595.45 1088.4 593.1 1088.2 592 1087.55 582.85 1085.2 572.9 1083.9 567.1 1081.6 559.65 1081.65 559.75 1081.7 559.75 1081.6 559.4 1081.4 559.15 1078.4 549.9 1074.15 538.25 1071 530.1 1068.45 523.75 1068.75 523.8 1069.15 523.8 1068.8 522.9 1068.35 522.05 1066.45 517.75 1064.45 513.95 1060.55 506.2 1056.4 499.95 1048.85 488.85 1039.85 480.95 1032.85 474.9 1025.35 471.1 1024.05 470.4 1022.7 469.8 1020.55 468.85 1018.45 468.1 1015.85 467.2 1013.1 466.5 1012.5 466.3 1011.8 466.2
L 1011.7 466.2
Q 1011.65 466.2 1011.6 466.15
L 1011.55 466.15
Q 1007.1 465.05 1002.15 464.55 995.45 463.9 988.05 464.25 985.1 464.4 982.15 464.7 980.5 464.85 978.85 465.05 978.35 465.1 977.9 465.2 974.85 465.55 971.7 466.05 968.15 466.7 961.4 468.1 956.55 469.1 950.05 470.55 949.85 470.6 949.6 470.65 949.2 470.7 948.85 470.85 948.8 470.8 948.7 470.8 936.7 473.45 928.8 474.65 927.9 474.25 927.3 474.35 926.4 474.4 925.65 475.05 925.6 475.05 925.45 475.15 909.9 477.15 894.95 475.7 879.2 474.25 865.3 469.1 859.15 466.75 850.3 462.7 836.95 456.15 835.8 455.75 822.25 449.55 801.75 443.15 791.2 439.8 782.9 437.6 782.6 437.35 782.15 437.25 781.8 437.15 781.2 437.15 779.7 436.75 778.4 436.45 772.75 435.1 767.5 434.2 760.75 433.1 754.55 432.5 754.05 432.5 753.65 432.45 753.4 432.05 753 431.95 753.05 432.1 752.7 431.95 752.35 431.8 751.85 432.1 751.65 432.2 751.5 432.3 736.95 431.5 719.3 433.6 719.15 433.45 719.1 433.25 718.7 432.9 718.1 433 717.5 433.05 717.25 433.45
L 717.15 433.9
Q 708.35 435.05 694.45 437.6 693.15 437 690.5 437.85 688.95 438.45 687.9 438.9 687 439 686.15 439.25 683.8 441.2 681.55 443.5
L 678.45 446.35
Q 677.65 447.2 677.05 446.8 675.95 443.55 675.75 439.25 675.6 436.5 675.8 431.55
L 676.1 425.1
Q 676.2 422.5 676.35 420.4 677.45 414.85 679.7 409.55
L 678.6 411.8
Q 692 378.8 713.5 356.15 728.05 340.85 745.85 331.05 764.55 320.85 784.45 318.05 798.1 316.15 815.55 317.7 824.3 318.35 843.85 321.35 837.85 323.25 831.55 326 822.65 330.05 807.9 338.6 805.65 339.85 806.2 341.25 806.5 342.1 807.65 342 808.55 342 809.6 341.4 814.65 338.85 824.75 333.25 833.65 328.55 840.4 326.25 850.25 323 863 322.3 871.8 321.75 886.25 322.5 897.25 323 903 324.7 909.4 326.55 918.4 332.4 925.4 336.9 929.8 340.65 935.65 345.65 939.25 351 945.05 359.6 946.15 370.85 947.25 381.35 944 391.85 941.8 398.95 937.8 405.45 943.4 399.55 946.75 392.05 950.15 384.5 950.6 376.4 951.2 368.35 948.9 360.35 946.7 352.5 941.95 345.85 938.1 340.6 932.25 335.8 928.95 332.95 924.7 330 939.7 330.55 953.35 329.95 953.9 329.9 954.6 329.85 953.95 329.7 953.45 329.55 954 329.5 954.7 329.45 955.25 329.45 955.8 329.45 957.7 329.3 960.65 328.9 961.2 328.8 961.85 328.7 963.15 328.6 964.8 328.3 965.4 328.2 965.9 328.1 968.15 327.65 969.3 327.2 970.3 326.7 970.7 326.2 971.3 325.25 970.7 324.65 970.2 323.95 968.65 324.15
L 968.6 324.2 955.15 312.95
Q 954.55 312.45 954.65 312.05 955.9 311.8 957.3 311.7 958.7 311.55 960.1 311.65 961.65 311.6 963.4 311.85 965.85 312.25 968.25 313.05 970 313.7 971.6 314.55 971.9 314.65 972.15 314.9 974.6 316.25 978.05 318.8 981.1 321 981.95 322.75 982.15 323 982.65 324.25 983.05 325.25 983.4 325.65 984 326.35 984.85 326.55 985.75 326.7 986.3 326.15 987.15 325.35 986.1 322.95 984.6 319.7 984.4 316.5 984.35 315.35 984.35 312.55
L 984.4 309.85
Q 984.3 307.65 984.5 306.7 984.8 304.85 985.95 304.1 985.95 306.2 986.7 308.5 987.2 309.95 988 311.55 988.95 313.6 991.05 316.45 991.6 317.35 992.35 318.3 993.05 319.3 993.6 320.05 994.2 320.85 994.7 321.35 995.6 322.2 996.5 322.6 997.2 322.9 997.9 323.05 998.1 323.05 998.25 323.1 998.35 323.1 998.45 323.2 999.05 323.6 999.8 323.95 999.8 324 999.8 324.05 999.95 324.05 1000.1 324 1000.95 324.35 1001.9 324.25 1009.85 323.95 1017.95 319.65 1021.55 317.75 1025.2 315 1031.55 310.2 1044.95 296 1057 283.15 1065.45 278.05 1073.55 273 1084.25 270.15 1093.1 267.8 1104.45 266.85 1117.1 265.75 1132.45 266.15 1143.35 266.55 1160.45 267.85 1208.4 271.6 1245.1 278.05 1281.95 284.4 1313.5 294.35 1320.55 296.55 1327.4 298.95
L 1327.45 298.95
Q 1327.35 298.85 1327.15 298.75 1325.95 298 1324.75 297.2 1319.35 293.75 1313.05 290.95
M 906.05 479.75
Q 905.85 479.75 905.8 479.7 911.15 479.2 917 478.35 917.05 478.9 917.35 479.75 919.25 483.2 921.3 483.45 923.15 483.8 924.85 482.1 925.85 481 926.85 478.55 928.85 479.45 932.1 483.8 934.95 487.65 937.55 487.95 939.8 488.15 942.65 486.5 943.4 486.05 944.05 485.6 947.85 483 950.5 479.25 952.2 476.65 953.35 473.65 953.6 473.15 953.7 472.75 953.65 472.6 953.6 472.45 953.5 472.3 953.35 472.15 957.2 471.5 960.7 471 960.95 470.9 961.25 470.9 964.9 470.35 968.05 469.95 968.05 470.05 968.05 470.3 968.05 470.85 968.45 471.05 969.5 471 970.65 471.1 972.35 471.25 974.1 471.8 976.75 472.8 979.05 474.65 980.45 475.95 981.65 477.4 981.65 477.45 981.7 477.5 981.6 477.85 981.55 478.2 981.4 478.35 981.35 478.55 980.45 480.9 978.95 483.5 978.45 484.35 977.8 485.25 976.7 487.05 974.35 490.15 973.85 490.7 973.35 491.35 973.2 491.6 973.05 491.7 972.25 492.45 971.7 492.5 971.1 492.5 970.25 491.55 969.05 490.15 967.85 488.25 967.45 487.3 966.85 486.35 965.85 484.5 964.35 480.5 963.2 477.75 962.8 476.25 962.55 475.15 962.35 474.2 962.15 472.9 962.35 471.75
L 961.25 471.15
Q 960.8 471.8 960.55 472.6 960.15 473.35 960 474.25 959.4 478 961.25 483.3 961.7 484.55 962.2 485.75 962.85 487.2 963.55 488.5 965.6 492.55 968.4 495.65 969.4 496.75 970.25 497.05 971 497.15 971.9 496.75 972.7 496.4 973.55 495.55 974.1 495 974.6 494.3
L 983.95 481.1
Q 984.65 482.45 985.25 484
L 985.3 484.05 985.55 486.05
Q 985.85 488.1 986.5 490.95 986.95 492.5 987.75 495.8
L 989.2 502.25
Q 989.9 505.25 990 506.9 990.05 508.75 989.7 509.9 990.6 510.3 991.75 509.8 992.4 509.45 993.55 508.5 994.4 507.8 996.05 506.7 997.85 505.5 998.6 504.9
L 1001.85 502.1
Q 1001.95 502.1 1002.05 502 1002.6 501.5 1003.45 501 1004.05 500.55 1004.75 500 1006.5 498.7 1007.55 497.65 1009.4 495.55 1011.15 491.2 1012.15 488.6 1012.85 486.3 1013 485.55 1013.2 484.9
L 1014.55 479.5
Q 1015.55 475.75 1015.4 474 1015.3 473.35 1015.3 472.95 1017.1 473.5 1018.8 474.05 1021.85 475.1 1024.65 476.5 1029.15 478.65 1033.15 481.3 1043.45 488.3 1052.4 500.45 1057.1 507 1062.25 516.45 1063.2 518 1064.1 519.8 1070.25 531.95 1074.4 543.15 1074.4 543.25 1074.5 543.35 1076.85 549.55 1078.6 555.5 1076.9 553.65 1074.8 552 1071.25 549.4 1065.6 546.65 1043.6 536.1 1019.3 534.8 1018.9 534.8 1018.5 534.75 1017.45 534.7 1016.5 534.7 1003.15 534.3 987.45 536.85 987 537 986.55 537.05 980.7 538 974.55 539.35 970.95 540.1 963.8 542 963 542.2 962.2 542.45 962.15 542 962.05 541.55 960.6 536.05 959.95 533.9 958.9 531.15 957.05 527.9 955.8 525.5 954.25 523.05 954.05 522.75 953.8 522.45 953.8 522.55 953.8 522.65 952.6 520.95 951.2 519 946.85 513.05 944.5 510.1 941.05 506 937.7 503.15 937.15 502.7 936.6 502.2 934.7 500.7 933.4 501.2 931.85 499.65 930.15 497.85
L 924.8 492.45
Q 920.65 488.45 918.8 487.05 914.2 483.45 906.05 479.75
M 924.05 477.3
Q 923.95 477.5 923.8 477.65 923.15 478.85 922.35 479 921.55 479.3 919.9 478.2 919.8 478.1 919.75 478 921.25 477.7 924.05 477.3
M 947.6 473.05
Q 947.95 472.95 948.25 473 948.85 472.85 949.5 472.75 949.85 472.65 950.2 472.6 949.95 472.9 949.5 473.55 948.6 474.75 946.9 477.05 946.65 477.45 946.3 477.85 943.95 481.2 941.75 482.5 939.35 483.9 937.45 483.25 936.2 482.85 935 481.4 934.8 481.2 933.1 478.8 932.15 477.35 930.9 476.1 937.45 474.95 947.6 473.05
M 835.55 461.35
Q 835.55 461.2 835.65 461.05 839.35 463.3 844.15 466.25 844.65 466.5 845.1 466.75 843.8 468.45 843.25 470.9 842.8 473.05 842.6 476.9 839.05 471.9 836.6 466.45 835.2 463.15 835.55 461.35
M 777.8 437.85
Q 776.5 438.25 775.35 439.05 775.2 439 775.05 439.05 774.3 438.95 773.35 439.3 771.75 439.9 770.45 441.4 767.2 445.15 766.45 450.95 765.95 454.65 766.6 458.55 764.8 459.65 761.85 457.9 756.8 454.6 754.35 448.8 751.9 443 752.95 437.25 753.2 436.15 753 435.75 752.9 435.65 752.8 435.6 752.85 435.3 753 435.05 753.15 434.7 753.3 434.5 760.7 434.95 768.1 436 771.75 436.6 775.4 437.35 776.6 437.6 777.8 437.85
M 733.1 434.15
Q 731 435.85 729.55 438.45 727.55 442.2 726.9 448 726.55 451.65 727.5 453.75 726.45 453.6 725.35 452.9 724.8 452.5 723.55 451.45 720.15 447.95 718.95 446.05 717.3 443.5 717.35 440.95 717.75 440.2 717.8 439.4 717.8 438.4 717.8 437.9 717.8 437.2 718.1 436.6 718.25 436.3 718.6 435.9 718.85 435.65 719 435.45 726 434.5 733.1 434.15
M 796.85 455
Q 795.55 451.95 795.3 448.7 795.05 445.45 795.8 442.55 805.15 445.5 814.35 449.6 810.2 451.1 807.85 455.8 806.25 458.8 804.9 465.35 803.7 464.85 802.05 462.95 798.25 458.1 796.85 455
M 974.7 469.2
Q 975.65 469.15 976.65 469.1 979.05 468.95 981.4 468.9 981.9 468.85 982.35 468.85 986.5 468.8 990.4 468.9 991.05 468.9 991.75 468.95 991.45 469.3 991.1 469.7 990.95 469.85 990.8 469.95 990.15 470.7 989.65 471.65 988.85 472.8 988.3 473.9 988.25 474.05 988.25 474.25 988 474.6 987.8 474.85 987.45 475.35 987.25 475.85 987.2 476 987.1 476.2
L 986.45 477.1
Q 985.8 478.15 985.55 479.5 985.4 479.65 985.25 479.8 985.15 479.65 985.1 479.45 985.85 478.4 986.05 477.35 986.25 476.55 986 476 985.9 475.55 985.6 475.3 985 475 984.2 475.1 983.45 475.2 982.95 475.6 982.95 475.55 982.9 475.55 980.7 472.55 977.65 470.6 976.15 469.7 974.7 469.2
M 991.4 472.55
Q 991.55 472.3 991.75 472.15 993.5 470.35 995.6 469.15 1002.5 469.7 1008.95 471.2 1010.05 471.4 1011.15 471.7 1012.35 472.05 1013.4 472.4
L 1013.4 472.45
Q 1013.35 472.85 1013.2 474.35 1013.2 474.4 1013.2 474.5 1013.05 475.6 1012.7 476.2 1012.6 476.4 1012.55 476.7 1012.3 477.25 1011.85 478.1 1011.75 478.5 1011.55 479.3 1011.4 480.1 1011.2 480.55 1011.1 480.95 1010.1 482.6 1009.95 482.95 1009.65 483.5 1009.55 483.75 1009.5 484 1009.25 484.4 1009.05 484.9
L 1008 487.55
Q 1006.5 492.1 1005.15 494.8 1003.55 497.7 1001.35 500.15 1000.95 500.6 1000.65 500.95 999.9 501.65 999.1 502.35 995.5 505.7 991.05 507.5 991.25 506.75 991.7 505.05 992.3 503.5 992.35 502.55 992.4 502.25 992.2 499.7
L 992.15 496.75
Q 992.1 495.55 991.5 493.4
L 989.25 483.65
Q 988.95 481.9 988.8 481.25 988.6 478.6 989.4 475.9
L 989.4 475.85
Q 989.4 475.8 989.45 475.75 989.75 474.9 990.15 474.05 990.75 473.25 991.4 472.55 Z"/>

<path fill="#FFFFFF" stroke="none" d="
M 1342.85 346.35
Q 1341.25 332.4 1340.25 327 1336.55 306.65 1327.4 298.95 1320.55 296.55 1313.5 294.35 1281.95 284.4 1245.1 278.05 1208.4 271.6 1160.45 267.85 1143.35 266.55 1132.45 266.15 1117.1 265.75 1104.45 266.85 1093.1 267.8 1084.25 270.15 1073.55 273 1065.45 278.05 1057 283.15 1044.95 296 1031.55 310.2 1025.2 315 1021.55 317.75 1017.95 319.65 1009.85 323.95 1001.9 324.25 1000.95 324.35 1000.1 324 999.95 324.05 999.8 324.05 999.8 324 999.8 323.95 999.05 323.6 998.45 323.2 998.35 323.1 998.25 323.1 998.1 323.05 997.9 323.05 997.2 322.9 996.5 322.6 995.6 322.2 994.7 321.35 994.2 320.85 993.6 320.05 993.05 319.3 992.35 318.3 991.6 317.35 991.05 316.45 988.95 313.6 988 311.55 987.2 309.95 986.7 308.5 985.95 306.2 985.95 304.1 984.8 304.85 984.5 306.7 984.3 307.65 984.4 309.85
L 984.35 312.55
Q 984.35 315.35 984.4 316.5 984.6 319.7 986.1 322.95 987.15 325.35 986.3 326.15 985.75 326.7 984.85 326.55 984 326.35 983.4 325.65 983.05 325.25 982.65 324.25 982.15 323 981.95 322.75 981.1 321 978.05 318.8 974.6 316.25 972.15 314.9 971.9 314.65 971.6 314.55 970 313.7 968.25 313.05 965.85 312.25 963.4 311.85 961.65 311.6 960.1 311.65 958.7 311.55 957.3 311.7 955.9 311.8 954.65 312.05 954.55 312.45 955.15 312.95
L 968.6 324.2 968.65 324.15
Q 970.2 323.95 970.7 324.65 971.3 325.25 970.7 326.2 970.3 326.7 969.3 327.2 968.15 327.65 965.9 328.1 965.4 328.2 964.8 328.3 963.15 328.6 961.85 328.7 961.2 328.8 960.65 328.9 971.8 340.7 979.1 353 980.2 354.75 981.1 356.45 983.7 361.05 985.8 365.8 996.65 390.85 990.45 413.85 989.05 419.3 984.85 428.7 983.3 431.9 981.5 435.65 980.55 437.65 979.65 439.5 976.1 446.65 973.6 450.75 972.45 452.65 971.55 453.85
L 971.35 454.8
Q 973.5 454.1 975.8 453.9 977.5 453.8 979.3 454.05 979.85 454.05 981.2 454.45 983.35 454.9 987.55 456.05 993.25 457.55 1003.5 462.3 1008.25 464.55 1011.6 466.15 1011.65 466.2 1011.7 466.2
L 1011.8 466.2
Q 1012.5 466.3 1013.1 466.5 1015.85 467.2 1018.45 468.1 1020.55 468.85 1022.7 469.8 1024.05 470.4 1025.35 471.1 1032.85 474.9 1039.85 480.95 1048.85 488.85 1056.4 499.95 1060.55 506.2 1064.45 513.95 1066.45 517.75 1068.35 522.05 1068.8 522.9 1069.15 523.8 1068.75 523.8 1068.45 523.75 1071 530.1 1074.15 538.25 1078.4 549.9 1081.4 559.15 1081.6 559.4 1081.7 559.75 1081.65 559.75 1081.6 559.65 1083.9 567.1 1085.2 572.9 1087.55 582.85 1088.2 592 1088.4 593.1 1088.65 595.45 1089.3 599.35 1089.35 599.45 1089.4 600.95 1089.2 604.15
L 1088.85 611.4
Q 1088.55 615.65 1087.85 617.7 1087.45 618.7 1086.9 619.55 1087.6 620 1088.4 620.5 1087.65 621.45 1087 622 1086.35 622.45 1085.8 622.4 1085.65 622.4 1084.25 622 1084.1 622 1083.85 622 1083.7 622.05 1083.5 622 1082.15 622.35 1079.7 621.95 1077 621.55 1074.45 620.85 1073.05 620.8 1070.9 620.7 1067.5 620.5 1065.4 619.85 1064.6 619.65 1064.05 619.25 1061.4 619.05 1058.6 618.35 1054.6 617.45 1047.7 614.9 1034.15 609.9 1024.75 606.45 1023.5 606.05 1022.3 605.7 1018.35 604.2 1015.15 603.1 1014.35 602.85 1013.75 602.6
L 1014.9 603.45
Q 1011.4 607.85 1005.25 618.05 996.35 632.7 995.15 637.15 993.25 644.3 992.55 654.75
L 992 658.15
Q 992.2 658.1 992.4 658.2 1000.1 659.6 1007.9 660.9 1010.9 661.5 1014.05 662 1040.75 666.6 1068.1 670.65 1088.2 673.65 1100.05 673.35 1111.25 673.05 1120.35 670.1 1120.65 669.95 1121.15 669.8
L 1122.8 667.85
Q 1127.85 667.15 1132.85 665.5 1132.9 665.5 1133.05 665.4 1133.2 665.35 1133.4 665.3 1134.35 664.95 1135.2 664.6 1145.85 660.45 1153.45 652.55 1154.95 651.05 1155.75 650.55 1157.05 649.55 1158.35 649.45 1153.85 656.15 1147.45 660.85
L 1147.95 661.6
Q 1149.25 660.65 1150.75 659.5
L 1153.65 657.45
Q 1153.75 658.25 1153.35 659.1 1153 659.85 1152.25 660.2 1150.4 664.7 1146.95 667.55 1144.9 669.1 1143.9 669.85 1142.9 670.65 1140.15 673.5 1137.85 675.85 1136.3 676.9 1140.55 677.6 1144.95 676.5 1145.15 675.8 1146.55 675.35 1149.6 674.4 1153.3 672.65 1155.55 671.65 1159.95 669.35
L 1179.8 658.7
Q 1182.55 657.15 1184.55 655.75 1184.45 655.7 1184.35 655.65 1184.95 655.05 1185.9 654.9 1187.9 653.35 1189.35 651.95 1191.1 650.15 1193.85 646.5 1198.45 640.3 1199.95 636.9 1200.3 636.1 1200.85 635.65 1201.45 635 1202 635.35 1202.45 635.65 1202.5 636.6 1202.7 638.6 1201.55 640.8 1200.9 642.1 1199.2 644.45
L 1195.3 649.8
Q 1192.75 653.25 1190.7 655.4
L 1201.6 645
Q 1194.5 655.55 1185.75 664.5 1196.8 661.05 1207 655.65 1211.95 653 1215.3 650.5 1216.25 649.7 1220.55 645.95
L 1224.8 642.25
Q 1230.4 637.25 1233.3 634.25 1237.85 629.6 1240.7 625.3 1244.65 619.15 1246.35 611.8 1246.9 611.1 1247.95 611.35 1248.9 611.55 1249.3 612.35 1250 613.55 1249.4 615.9 1248.3 619.8 1247.1 622.85 1246.6 624 1246.1 625.15 1246.9 624.45 1247.3 623.65 1247.75 629.7 1244.2 636.3 1242.55 639.4 1238.85 644.35 1238.65 644.5 1238.5 644.7
L 1239.55 645.9
Q 1246.8 642.9 1253.25 638.35 1261.15 633 1267.3 625.9 1271.25 621.25 1275.15 615.15 1278.05 610.6 1281.85 603.65
L 1283.4 600.65
Q 1283.95 599.3 1285.25 595.15 1286.3 591.85 1287.4 589.9 1286.75 589.15 1287.05 588.05 1287.4 586.9 1288.4 586.7 1289.85 590.45 1288.4 596.7 1287.8 598.95 1287.05 601.35 1288.4 606.65 1288.25 613.3 1288.15 618.55 1286.8 628.5 1293.15 625.05 1297.3 619 1298.35 617.45 1300.1 614.3 1306.25 603.2 1308.2 595.1 1309.4 589.95 1309.55 583.75 1309.65 579.1 1309.2 572.3 1308.85 566.65 1308.05 563.15 1307.4 560 1306.3 557.35 1306.25 557.25 1306.2 557.25 1305.5 556.95 1305.3 556.6 1305.15 556.3 1305.3 556.05 1305.35 555.85 1305.6 555.75 1305.25 555.2 1304.9 554.65 1304.2 553.6 1304.3 553 1304.45 552.15 1305.5 552.05 1306.45 551.85 1307.3 552.25 1310.15 553.85 1311.8 559.1 1312.2 560.15 1312.45 561.15 1313.3 562 1314.15 563 1319.25 568.55 1322.95 569.85
L 1319 559.05
Q 1316.4 551.9 1315.3 547.8 1314.15 543.65 1313.45 538.3 1313 535.1 1312.4 528.75
L 1311.45 518.55
Q 1311.05 515 1311.05 513.1 1311.05 510.6 1311.45 508.6 1311.55 508.1 1311.7 507.6 1312.45 505.15 1311.75 504.2 1312.15 503.9 1312.55 504.05 1313 504.1 1313.3 504.5
L 1313.35 504.7
Q 1313.6 501.1 1314.25 498.9 1316.1 492 1324.8 470.9 1333.45 449.75 1335.55 441.95 1339.75 426.25 1343.45 399.05 1347.3 370.45 1345.6 363.6 1344.25 358.1 1342.85 346.35
M 1098.9 579.8
L 1102.85 591.5
Q 1104.8 598.2 1104.4 605.35 1104.4 612.35 1102.3 619.15 1101.45 621.55 1100.95 622.55 1099.2 626.35 1094.6 631.15 1092.25 633.45 1090.55 634.7 1088.15 636.45 1085.75 637.05 1082.05 638.05 1076.85 636.7 1073.7 635.95 1069 634.1 1063.9 632.2 1053.85 628.05 1054.15 627.1 1055.6 627.75 1058.35 628.8 1064.3 629.6
L 1069.6 630.3
Q 1074.75 631.05 1077.75 630.85 1082 630.7 1085.95 629.2 1086.95 628.85 1087.95 628.45 1088.05 628.3 1088.25 628.25 1089 627.8 1089.75 627.4 1090 627.25 1090.2 627.15 1090.4 627 1090.65 626.95 1094.7 624.5 1096.7 621.25 1097.8 619.5 1098.8 616.45 1100.65 610.7 1100.65 604.3 1100.7 602.3 1100.45 599.05 1099.9 588.95 1098.95 583.3 1098.55 580.95 1098.9 579.8
M 991.75 472.15
Q 991.55 472.3 991.4 472.55 990.75 473.25 990.15 474.05 989.75 474.9 989.45 475.75 989.4 475.8 989.4 475.85
L 989.4 475.9
Q 988.6 478.6 988.8 481.25 988.95 481.9 989.25 483.65
L 991.5 493.4
Q 992.1 495.55 992.15 496.75
L 992.2 499.7
Q 992.4 502.25 992.35 502.55 992.3 503.5 991.7 505.05 991.25 506.75 991.05 507.5 995.5 505.7 999.1 502.35 999.9 501.65 1000.65 500.95 1000.95 500.6 1001.35 500.15 1003.55 497.7 1005.15 494.8 1006.5 492.1 1008 487.55
L 1009.05 484.9
Q 1009.25 484.4 1009.5 484 1009.55 483.75 1009.65 483.5 1009.95 482.95 1010.1 482.6 1011.1 480.95 1011.2 480.55 1011.4 480.1 1011.55 479.3 1011.75 478.5 1011.85 478.1 1012.3 477.25 1012.55 476.7 1012.6 476.4 1012.7 476.2 1013.05 475.6 1013.2 474.5 1013.2 474.4 1013.2 474.35 1013.35 472.85 1013.4 472.45
L 1013.4 472.4
Q 1012.35 472.05 1011.15 471.7 1010.05 471.4 1008.95 471.2 1002.5 469.7 995.6 469.15 993.5 470.35 991.75 472.15
M 795.3 448.7
Q 795.55 451.95 796.85 455 798.25 458.1 802.05 462.95 803.7 464.85 804.9 465.35 806.25 458.8 807.85 455.8 810.2 451.1 814.35 449.6 805.15 445.5 795.8 442.55 795.05 445.45 795.3 448.7
M 729.55 438.45
Q 731 435.85 733.1 434.15 726 434.5 719 435.45 718.85 435.65 718.6 435.9 718.25 436.3 718.1 436.6 717.8 437.2 717.8 437.9 717.8 438.4 717.8 439.4 717.75 440.2 717.35 440.95 717.3 443.5 718.95 446.05 720.15 447.95 723.55 451.45 724.8 452.5 725.35 452.9 726.45 453.6 727.5 453.75 726.55 451.65 726.9 448 727.55 442.2 729.55 438.45
M 775.35 439.05
Q 776.5 438.25 777.8 437.85 776.6 437.6 775.4 437.35 771.75 436.6 768.1 436 760.7 434.95 753.3 434.5 753.15 434.7 753 435.05 752.85 435.3 752.8 435.6 752.9 435.65 753 435.75 753.2 436.15 752.95 437.25 751.9 443 754.35 448.8 756.8 454.6 761.85 457.9 764.8 459.65 766.6 458.55 765.95 454.65 766.45 450.95 767.2 445.15 770.45 441.4 771.75 439.9 773.35 439.3 774.3 438.95 775.05 439.05 775.2 439 775.35 439.05
M 835.65 461.05
Q 835.55 461.2 835.55 461.35 835.2 463.15 836.6 466.45 839.05 471.9 842.6 476.9 842.8 473.05 843.25 470.9 843.8 468.45 845.1 466.75 844.65 466.5 844.15 466.25 839.35 463.3 835.65 461.05
M 948.25 473
Q 947.95 472.95 947.6 473.05 937.45 474.95 930.9 476.1 932.15 477.35 933.1 478.8 934.8 481.2 935 481.4 936.2 482.85 937.45 483.25 939.35 483.9 941.75 482.5 943.95 481.2 946.3 477.85 946.65 477.45 946.9 477.05 948.6 474.75 949.5 473.55 949.95 472.9 950.2 472.6 949.85 472.65 949.5 472.75 948.85 472.85 948.25 473
M 923.8 477.65
Q 923.95 477.5 924.05 477.3 921.25 477.7 919.75 478 919.8 478.1 919.9 478.2 921.55 479.3 922.35 479 923.15 478.85 923.8 477.65
M 962.35 471.75
Q 962.15 472.9 962.35 474.2 962.55 475.15 962.8 476.25 963.2 477.75 964.35 480.5 965.85 484.5 966.85 486.35 967.45 487.3 967.85 488.25 969.05 490.15 970.25 491.55 971.1 492.5 971.7 492.5 972.25 492.45 973.05 491.7 973.2 491.6 973.35 491.35 973.85 490.7 974.35 490.15 976.7 487.05 977.8 485.25 978.45 484.35 978.95 483.5 980.45 480.9 981.35 478.55 981.4 478.35 981.55 478.2 981.6 477.85 981.7 477.5 981.65 477.45 981.65 477.4 980.45 475.95 979.05 474.65 976.75 472.8 974.1 471.8 972.35 471.25 970.65 471.1 969.5 471 968.45 471.05 968.05 470.85 968.05 470.3 968.05 470.05 968.05 469.95 964.9 470.35 961.25 470.9
L 961.25 471.15 962.35 471.75 Z"/>

<path fill="#5B5D5E" stroke="none" d="
M 918.7 584.5
Q 877.75 583.35 857.45 582.5 821.45 581.1 796.35 576.3 763.55 570 739.15 556.3 732.95 552.9 728.6 549.6 723.4 545.65 720.15 541.1
L 719.2 541.75
Q 722.45 563.55 738.9 586.3 748.1 599.35 757.6 606.85 768.15 614.9 782.55 619.75 794.65 623.65 810.3 625.65 818.6 626.6 838.4 627.8 856.5 629.05 866.55 630.4 877.55 632.1 892.4 635.75 900.95 637.85 918.05 642.4 938.45 647.7 967.1 653.4 972.35 654.45 977.9 655.55 978.7 655.65 979.6 655.8 985.75 657 992 658.15
L 992.55 654.75
Q 993.25 644.3 995.15 637.15 996.35 632.7 1005.25 618.05 1011.4 607.85 1014.9 603.45
L 1013.75 602.6
Q 996.25 596.4 982.45 592.95 982.1 592.9 981.75 592.8 980.4 592.45 979.2 592.15 953.95 586.35 918.7 584.5
M 985.8 365.8
Q 983.7 361.05 981.1 356.45 980.2 354.75 979.1 353 971.8 340.7 960.65 328.9 957.7 329.3 955.8 329.45 955.25 329.45 954.7 329.45 954 329.5 953.45 329.55 953.95 329.7 954.6 329.85 953.9 329.9 953.35 329.95 939.7 330.55 924.7 330 928.95 332.95 932.25 335.8 938.1 340.6 941.95 345.85 946.7 352.5 948.9 360.35 951.2 368.35 950.6 376.4 950.15 384.5 946.75 392.05 943.4 399.55 937.8 405.45 941.8 398.95 944 391.85 947.25 381.35 946.15 370.85 945.05 359.6 939.25 351 935.65 345.65 929.8 340.65 925.4 336.9 918.4 332.4 909.4 326.55 903 324.7 897.25 323 886.25 322.5 871.8 321.75 863 322.3 850.25 323 840.4 326.25 833.65 328.55 824.75 333.25 814.65 338.85 809.6 341.4 808.55 342 807.65 342 806.5 342.1 806.2 341.25 805.65 339.85 807.9 338.6 822.65 330.05 831.55 326 837.85 323.25 843.85 321.35 824.3 318.35 815.55 317.7 798.1 316.15 784.45 318.05 764.55 320.85 745.85 331.05 728.05 340.85 713.5 356.15 692 378.8 678.6 411.8
L 679.7 409.55
Q 677.45 414.85 676.35 420.4 676.2 422.5 676.1 425.1
L 675.8 431.55
Q 675.6 436.5 675.75 439.25 675.95 443.55 677.05 446.8 677.65 447.2 678.45 446.35
L 681.55 443.5
Q 683.8 441.2 686.15 439.25 687 439 687.9 438.9 688.95 438.45 690.5 437.85 693.15 437 694.45 437.6 708.35 435.05 717.15 433.9
L 717.25 433.45
Q 717.5 433.05 718.1 433 718.7 432.9 719.1 433.25 719.15 433.45 719.3 433.6 736.95 431.5 751.5 432.3 751.65 432.2 751.85 432.1 752.35 431.8 752.7 431.95 753.05 432.1 753 431.95 753.4 432.05 753.65 432.45 754.05 432.5 754.55 432.5 760.75 433.1 767.5 434.2 772.75 435.1 778.4 436.45 779.7 436.75 781.2 437.15 781.8 437.15 782.15 437.25 782.6 437.35 782.9 437.6 791.2 439.8 801.75 443.15 822.25 449.55 835.8 455.75 836.95 456.15 850.3 462.7 859.15 466.75 865.3 469.1 879.2 474.25 894.95 475.7 909.9 477.15 925.45 475.15 925.6 475.05 925.65 475.05 926.4 474.4 927.3 474.35 927.9 474.25 928.8 474.65 936.7 473.45 948.7 470.8 948.8 470.8 948.85 470.85 949.2 470.7 949.6 470.65 949.85 470.6 950.05 470.55 956.55 469.1 961.4 468.1 968.15 466.7 971.7 466.05 974.85 465.55 977.9 465.2 978.35 465.1 978.85 465.05 980.5 464.85 982.15 464.7 985.1 464.4 988.05 464.25 995.45 463.9 1002.15 464.55 1007.1 465.05 1011.55 466.15
L 1011.6 466.15
Q 1008.25 464.55 1003.5 462.3 993.25 457.55 987.55 456.05 983.35 454.9 981.2 454.45 979.85 454.05 979.3 454.05 977.5 453.8 975.8 453.9 973.5 454.1 971.35 454.8
L 971.55 453.85
Q 972.45 452.65 973.6 450.75 976.1 446.65 979.65 439.5 980.55 437.65 981.5 435.65 983.3 431.9 984.85 428.7 989.05 419.3 990.45 413.85 996.65 390.85 985.8 365.8
M 777.3 395.2
Q 781.7 390.65 789.15 384.6 802.5 373.45 813.45 366.55 814.75 365.7 815.9 365 830.55 356.05 843.1 353.1 848.35 351.85 859.35 350.85 870.3 350 875.75 350.45 883.3 351.15 891 354.55 898.45 358.3 904.45 364.25 910.3 370.25 914.15 378.25 915.35 380.85 915.5 383.3 915.55 384.55 915.35 385.65 914.9 387.4 913.75 388.95 913.25 387.7 912.75 386.55 910.7 382.05 908.75 378.75 905.2 372.8 900.15 368.45 900.1 369.15 900.05 370 899.75 375.25 897.65 380.55 895.9 384.75 892.95 389.25 886.9 398.8 878.2 406 869.5 413.2 860.65 416.05 859.3 416.4 858.05 416.75 848.9 418.95 838.25 416.85 824.7 412.8 817.85 411.1 811.6 409.35 804.75 408.45 804 408.35 803.1 408.25 795 407.4 787.35 408.1 787.25 408.1 787.2 408.15 787.05 408.1 786.95 408.15 778.3 409.05 770.4 412 769.75 412.2 769.2 412.3 768.25 412.5 767.45 412.4 766.95 412.35 766.6 411.95 765.85 413.05 765.15 414.05 764.85 411.85 767.25 408.05 767.45 407.65 767.7 407.35 771.3 401.4 777.3 395.2
M 906.95 421.95
Q 904.15 425.2 899.3 428.85 893.25 433.15 887.35 435.55 880.85 438.2 871.4 439.8 869.1 440.2 867.6 440.15 866.4 440.05 864.2 439.7
L 848.2 436.9
Q 845.85 436.35 845.05 436.05 844.2 435.65 842.65 434.65 841 433.55 840.15 433.2 839.1 432.7 836 432 833.25 431.4 831.9 430.55 832.4 429.8 833.9 430.25 839.2 431.5 841.8 432.85 842.35 433.2 843.55 433.8 844.65 434.45 845.4 434.75 846.5 435.15 848.75 435.5
L 864.05 438.1
Q 866.2 438.55 867.85 438.55 869.5 438.6 872.3 438.15 878.35 437.1 882.65 435.9 895.5 432.05 904.8 422.3 905.35 421.8 905.95 421.6 906.6 421.4 906.95 421.95
M 787.45 412.65
Q 787.55 412.65 787.6 412.65 787.35 412.8 787.2 413.15 787.15 413.15 787.1 413.15 786.95 412.8 787.45 412.65
M 677.25 426.35
Q 677 426.5 676.8 426.7 676.9 426.25 677.05 425.9 677.2 425.8 677.35 425.85 677.5 425.75 677.65 425.75 677.85 425.7 678 425.7 677.8 425.85 677.6 426.05 677.4 426.15 677.25 426.35 Z"/>

<path fill="#77A7B5" stroke="none" d="
M 831.45 574.25
Q 832.6 574.8 833.3 575.4 833.35 575.4 833.45 575.5 847.1 576.75 864.75 577.55 877.35 578.25 902.55 579.3 936.3 580.8 958.75 584.4 967.5 585.7 976.7 587.6
L 994.5 587.35
Q 1001.3 587.35 1004.5 587.4 1011.8 587.4 1022.55 588.4 1023.3 588.4 1024.1 588.45 1026.85 588.7 1029.2 588.95 1033.6 589.4 1036.45 589.9 1043.35 591.05 1048.4 593.3 1051.4 594.75 1057.4 598.3
L 1065.8 603.5
Q 1062.6 602.55 1057.65 599.9 1051.85 596.95 1049.7 596.1 1044.5 593.95 1037.5 593 1034.3 592.6 1028.6 592.15 1026.7 592 1024.7 591.9 1023.55 591.8 1022.55 591.75
L 1022.45 591.75
Q 1012 591.1 1005.85 591.15 1004.8 591.15 1003.85 591.15 997.05 591.3 992.55 591.45 999.15 593.1 1005.9 595.05 1012.7 596.9 1020.05 599.25 1021.05 599.55 1022.05 599.9 1022.25 600 1022.5 600.05 1024.25 600.6 1026.1 601.2 1038.25 605.2 1051.75 610.25 1058.75 612.8 1063.3 613.3 1064.15 613.35 1065.05 613.5 1065.15 613.45 1065.25 613.45 1065.35 613.45 1065.5 613.45 1066.2 613.45 1066.9 613.5 1067 613.7 1067.2 613.8 1068.2 613.8 1070.6 613.95 1071.75 614.05 1072.8 614.1 1073.55 613.65 1075 612.45 1075.45 612.15 1076.7 611.35 1077.8 610.7 1078.45 610.25 1079.85 609 1080.9 606.55 1081.25 605.75 1081.4 605.25 1082 604.95 1082.65 604.75 1084.5 593.85 1083.7 582.1 1083.6 581.8 1083.55 581.55 1083.1 578.55 1082.9 577.2 1082.5 574.75 1081.75 573.1 1081.25 571.75 1081.2 571.3 1081.05 570 1082.05 569.75 1081.2 565.35 1080.05 560.8 1079.7 559.6 1079.45 558.45 1064.3 549.6 1049 544.6 1034.15 539.8 1019.65 538.7 1018.95 538.6 1018.15 538.6 1015.85 538.45 1013.7 538.35 1002.95 538.2 989.85 540.45 988.7 540.65 987.6 540.85 976.6 542.75 964.1 546.35
L 964.1 546.4
Q 963.3 546.6 962.6 546.85 962.45 547.75 962.15 548.35 961.25 548.15 960.55 547.6 930.75 557.05 915.3 560.95 882.9 569.05 856.3 566.3 841 564.7 827.25 559.55 812.8 553.95 801.55 544.85 798.25 542.25 797.5 539.8
L 796.85 540
Q 796.65 542.1 797.05 543.25 797.1 543.6 797.85 545.3
L 799.6 548.6
Q 802.9 554.8 804.65 557.1 808 561.45 813.4 565.15 817.65 568.05 824 571.2 827.5 572.85 829.5 573.55 831.4 574.25 831.45 574.25 Z"/>

<path fill="#303030" stroke="none" d="
M 882.2 358.55
L 882.05 358.65
Q 882.35 359.1 882.45 359.75 882.4 363.5 881.75 365.25 881.4 366.35 880.35 368.4 880.05 369 879.65 370.6 879.3 371.8 878.9 372.45 878.5 373.15 877.55 374.35 876.75 375.4 876.45 376.25 876.3 376.4 875.9 377.35 875.6 378.05 875.35 378.55 875.15 379 874.55 379.35 874.25 379.65 873.65 380.05 872.6 380.95 871.3 382.6 870.55 383.7 869.1 385.6 867.55 387.6 864.3 390.6
L 856.8 397.4
Q 854.4 399.65 853 400.25 852.25 400.65 851.2 400.95 850.1 401.35 849.75 401.45 847.5 402.6 846.4 403.25 844.6 404.05 840.2 405.6
L 828.3 409.75
Q 831.05 410.3 834.3 411.15 841.55 412.85 846.8 413.35 854.25 414.3 859.8 412.85 869.85 410.15 879.85 400.25 887.15 393.05 890.95 385.15 892.95 380.95 893.85 376.8 894.75 372.4 894.1 368.9 893.75 367.25 893.55 366.4 893.4 364.8 893.55 363.6 888.4 360.35 882.2 358.55 Z"/>

<path fill="#141414" stroke="none" d="
M 807.25 374.45
Q 797.5 380.8 787.5 389.45 776.1 399.1 769.15 408.55 768.4 409.35 767.8 410.25 768.95 409.8 770.1 409.35 777.9 406.55 786.4 405.65 794.25 404.85 803.85 405.55 804.55 405.55 805.4 405.65 813.5 406.45 822.1 408.25 823.6 408.5 825.7 409
L 838.05 404.85
Q 845.6 402.25 848.85 400.6 851.75 399.2 853.9 397.7 854.85 396.9 856.15 395.65 857.65 394.15 858.4 393.5
L 862.6 389.85
Q 864.8 387.8 865.15 387.5 866.65 386.05 868.55 383.55
L 873.2 377.05
Q 875.15 374.5 876.1 373.1 878 369.8 879.2 366.2 880.25 363.1 880.5 360.05 880.75 359.1 881 358.75 881.6 358.25 882.05 358.65
L 882.2 358.55
Q 879.45 357.55 876.55 356.95 861.1 353.95 843.05 358.5 827.55 362.3 812.35 371.35 809.8 372.75 807.25 374.45 Z"/>

<path fill="#624948" stroke="none" d="
M 976.65 469.1
Q 975.65 469.15 974.7 469.2 976.15 469.7 977.65 470.6 980.7 472.55 982.9 475.55 982.95 475.55 982.95 475.6 983.45 475.2 984.2 475.1 985 475 985.6 475.3 985.9 475.55 986 476 986.25 476.55 986.05 477.35 985.85 478.4 985.1 479.45 985.15 479.65 985.25 479.8 985.4 479.65 985.55 479.5 985.8 478.15 986.45 477.1
L 987.1 476.2
Q 987.2 476 987.25 475.85 987.45 475.35 987.8 474.85 988 474.6 988.25 474.25 988.25 474.05 988.3 473.9 988.85 472.8 989.65 471.65 990.15 470.7 990.8 469.95 990.95 469.85 991.1 469.7 991.45 469.3 991.75 468.95 991.05 468.9 990.4 468.9 986.5 468.8 982.35 468.85 981.9 468.85 981.4 468.9 979.05 468.95 976.65 469.1 Z"/>

<path fill="#425B63" stroke="none" d="
M 986.5 490.95
Q 985.85 488.1 985.55 486.05
L 985.3 484.05 985.25 484
Q 984.65 482.45 983.95 481.1
L 974.6 494.3
Q 974.1 495 973.55 495.55 972.85 505.5 977.4 518.55 981.45 530.6 986.55 537.05 987 537 987.45 536.85 1003.15 534.3 1016.5 534.7 1017.45 534.7 1018.5 534.75 1018.9 534.8 1019.3 534.8 1043.6 536.1 1065.6 546.65 1071.25 549.4 1074.8 552 1076.9 553.65 1078.6 555.5 1076.85 549.55 1074.5 543.35 1074.4 543.25 1074.4 543.15 1070.25 531.95 1064.1 519.8 1063.2 518 1062.25 516.45 1057.1 507 1052.4 500.45 1043.45 488.3 1033.15 481.3 1029.15 478.65 1024.65 476.5 1021.85 475.1 1018.8 474.05 1017.1 473.5 1015.3 472.95 1015.3 473.35 1015.4 474 1015.55 475.75 1014.55 479.5
L 1013.2 484.9
Q 1013 485.55 1012.85 486.3 1012.15 488.6 1011.15 491.2 1009.4 495.55 1007.55 497.65 1006.5 498.7 1004.75 500 1004.05 500.55 1003.45 501 1002.6 501.5 1002.05 502 1001.95 502.1 1001.85 502.1
L 998.6 504.9
Q 997.85 505.5 996.05 506.7 994.4 507.8 993.55 508.5 992.4 509.45 991.75 509.8 990.6 510.3 989.7 509.9 990.05 508.75 990 506.9 989.9 505.25 989.2 502.25
L 987.75 495.8
Q 986.95 492.5 986.5 490.95 Z"/>

<path fill="#557580" stroke="none" d="
M 905.8 479.7
Q 905.85 479.75 906.05 479.75 914.2 483.45 918.8 487.05 920.65 488.45 924.8 492.45
L 930.15 497.85
Q 931.85 499.65 933.4 501.2 934.7 500.7 936.6 502.2 937.15 502.7 937.7 503.15 941.05 506 944.5 510.1 946.85 513.05 951.2 519 952.6 520.95 953.8 522.65 953.8 522.55 953.8 522.45 954.05 522.75 954.25 523.05 955.8 525.5 957.05 527.9 958.9 531.15 959.95 533.9 960.6 536.05 962.05 541.55 962.15 542 962.2 542.45 963 542.2 963.8 542 970.95 540.1 974.55 539.35 980.7 538 986.55 537.05 981.45 530.6 977.4 518.55 972.85 505.5 973.55 495.55 972.7 496.4 971.9 496.75 971 497.15 970.25 497.05 969.4 496.75 968.4 495.65 965.6 492.55 963.55 488.5 962.85 487.2 962.2 485.75 961.7 484.55 961.25 483.3 959.4 478 960 474.25 960.15 473.35 960.55 472.6 960.8 471.8 961.25 471.15
L 961.25 470.9
Q 960.95 470.9 960.7 471 957.2 471.5 953.35 472.15 953.5 472.3 953.6 472.45 953.65 472.6 953.7 472.75 953.6 473.15 953.35 473.65 952.2 476.65 950.5 479.25 947.85 483 944.05 485.6 943.4 486.05 942.65 486.5 939.8 488.15 937.55 487.95 934.95 487.65 932.1 483.8 928.85 479.45 926.85 478.55 925.85 481 924.85 482.1 923.15 483.8 921.3 483.45 919.25 483.2 917.35 479.75 917.05 478.9 917 478.35 911.15 479.2 905.8 479.7 Z"/>
</g>

<g id="Layer1_0_FILL">
<path fill="#000000" stroke="none" d="
M 836.25 286.85
Q 835.95 288 836.85 288.2 839.6 285.95 844 284.95 846.8 284.35 852.05 284.05 870.4 283 880.45 283.8 896.15 285.05 907.4 290.75 900.9 283.6 889.05 280.95 882.2 279.45 868.05 279.25 857.65 279.1 852.1 279.9 843.3 281.15 837.5 285.15 836.55 285.75 836.25 286.85
M 866.35 291.15
Q 862.45 291.4 855.6 292.05 845.2 293.1 839.2 294.3 830.25 296.05 823.6 299.25 822.1 299.9 821.55 300.8 821.2 301.4 821.35 302.05 821.45 302.75 822 303.05 823.2 302.15 825.35 301.95 826.55 301.8 829 301.7 830.4 301.55 834.35 300.45 841.05 298.6 849.7 297.5 855.1 296.8 865.3 296 871.55 295.5 874.7 295.45 879.95 295.3 884.1 295.95 890.2 296.9 900.5 301.05 911.75 305.6 916.8 306.75
L 917.1 305.7
Q 915 304.65 911.9 302.7 907.5 299.9 906.85 299.5 893.95 291.85 877.1 291.05 872.25 290.8 866.35 291.15 Z"/>
</g>
</defs>

<g transform="matrix( 1, 0, 0, 1, 0,0) ">
<use xlink:href="#Layer5_0_FILL"/>
</g>

<g transform="matrix( 1, 0, 0, 1, 0,0) ">
<use xlink:href="#Layer1_0_FILL"/>
</g>
</svg>
