
<svg xmlns="http://www.w3.org/2000/svg" version="1.1" xmlns:xlink="http://www.w3.org/1999/xlink" preserveAspectRatio="none" x="0px" y="0px" width="1920px" height="1080px" viewBox="0 0 1920 1080">
<defs>
<g id="Layer5_0_FILL">
<path fill="#000000" stroke="none" d="
M 1212.65 625.1
Q 1213.9 622.2 1214.95 619.3 1215.25 618.6 1215.25 617.9 1215.2 617.15 1214.95 616.45
L 1212.95 616.6 1213.35 617.25
Q 1202.85 640.55 1185.25 659.45 1175.2533203125 670.1662109375 1162.45 676.9 1158.3802734375 679.090625 1154 680.85 1157.0935546875 678.2818359375 1159.9 675.35 1161.8974609375 673.298046875 1163.75 671.05 1171.05 662.25 1171.65 651.7 1169.1 655.1 1166.8 658.7 1163.9587890625 663.10546875 1160.65 667 1157.8986328125 670.280078125 1154.8 673.2 1148.9166015625 678.80859375 1141.8 683.15 1141.5525390625 683.356640625 1141.25 683.5 1139.9923828125 684.035546875 1139.15 684.85 1138.3513671875 685.670703125 1138 686.8 1137.6 688.05 1138.65 687.9 1153.255859375 687.242578125 1165.95 679.2 1166.786328125 678.6994140625 1167.6 678.15 1182.9 667.85 1194.6 653.4 1205.35 640.15 1212.65 625.1
M 1082.1 617.75
Q 1081.65 616.3 1081.65 612.85
L 1080.75 613.1
Q 1081 614 1080.65 616.25 1080.35 618.3 1080.85 619.3 1081.45 620.45 1081.4 620.75 1081.35 621.15 1081 621.6 1080.6 622.1 1080.4 622.35 1080.15 622.75 1079.95 623.55 1079.75 624.4 1079.55 624.75 1078.95 625.75 1076.95 626.35 1074.95 627 1073.7 626.85 1072.9 626.75 1071.4 625.95
L 1066.15 623.2
Q 1063.7 621.85 1062.7 623.1 1066.2 627.45 1071.1 629.85 1073.3 631 1075 631 1076.55 631.05 1079.65 629.7 1082.05 628.55 1082.6 627.4 1082.85 626.85 1082.9 626.05 1082.95 625.1 1082.95 624.6 1083.1 623.2 1083.15 622.5 1083.25 621.2 1083.05 620.4 1082.95 619.85 1082.6 619.05 1082.2 618 1082.1 617.75
M 1168.75 307.5
L 1164.3 307.8 1164.4 308.45 1168.75 307.5
M 1042.9 321.45
Q 1042.9111328125 321.47109375 1042.9 321.45 1055.1775390625 317.0705078125 1069.85 315.4 1067.7142578125 315.843359375 1065.55 316.15 1062.3 316.6 1060.65 316.85 1057.8 317.25 1055.8 317.8 1053.9189453125 318.3423828125 1052.35 319.1 1047.7705078125 320.183984375 1043 321.7 1043.013671875 321.7287109375 1043 321.7 1039.9673828125 322.7177734375 1036.85 323.9 1036.5955078125 324.0068359375 1036.3 324.1 1028.634765625 327.090234375 1020.6 331.25 1020.3748046875 331.17421875 1020.15 331.05 1018.91015625 331.5974609375 1017.65 332.15 1010 335.45 995.95 342.6 983.55 348.9 977.65 352.65 965.25 360.55 955.5 371.8 945.7 383.05 939.55 396.45 937.95 400 934.95 407.25 932.2 413.6 929.6 417.6 927.2 421.35 924.35 423.5 920.876171875 426.08046875 917.35 425.95 916.2421875 425.422265625 913.8 424.55 907.4 422.25 902.1 418.6 899.65 416.9 898.55 416.4 896.45 415.4 894.65 415.65 893.9 416.65 894.8 419.2
L 895.3 421.3 895.65 424.15
Q 896.25 426.95 898.2 428.95
L 886.05 427.7
Q 881 427.25 879 427.4 876.15 427.55 870.55 428.95 868.9 429.35 868.05 429.9 866.75 430.75 866.75 432.15 866.85 433.6 868.35 434.3 869.4 434.8 871.05 434.9 874.8 435.2 876.3 435.85 876.85 436.05 877.9 436.7 878.95 437.25 879.55 437.5 879.65 437.55 882.35 438.4 884.9 439.2 888.2 441.45 889.5572265625 442.3986328125 890.55 443.1 890.837109375 443.2837890625 891.05 443.45 891.521484375 443.4888671875 891.95 443.55 894.8248046875 443.9314453125 896.5 445.35 896.6326171875 445.4177734375 896.7 445.5 896.67890625 445.7025390625 896.65 445.9 896.653125 445.9619140625 896.65 446 896.60546875 446.415625 896.55 446.75 896.39609375 447.53359375 896.15 447.85 895.35 448.5 895.05 448.95 892.010546875 450.700390625 888.8 452.35 878.453125 457.6962890625 866.3 461.95 851.55 467.1 830.05 471.9 805.25 477.1 792.85 479.85 771.1 484.65 756.3 489.7 734.3 497.2 714.2 509.15 694.1 521.1 677.05 536.85 661.8 550.9 653.25 564.45 644.6 578.1 637.6 599.85 623.4 644.4 627.25 681.55 627.3216796875 682.3150390625 627.4 683 627.0541015625 686.8306640625 627.25 688.75 627.35 690.25 627.85 693
L 628.75 697.85
Q 629.3 700.75 629.8 702.3 630.025 702.9482421875 630.25 703.5 630.878125 706.29609375 631.75 709 630.9888671875 709.917578125 629.9 710.4 629.8296875 710.428515625 629.75 710.45 629.8291015625 710.5798828125 629.9 710.7 630.76484375 712.115234375 631.8 713 631.1693359375 715.7896484375 632.05 717.75 634.05 717.1 635.8 715 636.8 713.8 638.45 710.9 643.0865234375 702.7794921875 648.95 695.75 649.9228515625 696.940625 651 698.05 651.070703125 697.8435546875 651.15 697.65 653.8521484375 700.3078125 657.65 702.5 662.1 705.1 669.5 707.65 682.05 711.95 702.85 717.15 707.696484375 718.3908203125 711.05 719.05 710.9322265625 719.1173828125 710.8 719.15 712.2462890625 719.3689453125 713.65 719.55 716.85078125 719.9326171875 720.05 720.2 720.1408203125 720.2421875 720.2 720.25 721.611328125 720.3658203125 723 720.45 723.2560546875 720.4814453125 723.5 720.5 729.8009765625 720.9990234375 736.1 721.3 755.0384765625 722.2005859375 773.95 721.3 795.2 720.55 816.4 718.55 835.85 716.8 855.05 714.25 874.95 711.7 894.95 708.65 912.2 706.15 929.5 703.5 946.55 700.85 963.75 698.85 972.887890625 697.5580078125 981.85 695.95 982.1708984375 695.9224609375 982.45 695.85 987.0337890625 695.0541015625 991.55 694.15 991.97890625 694.0833984375 992.4 694 993.15 694.05 993.95 694.1 1002.2384765625 693.16171875 1010.45 692.2 1018.0603515625 691.36171875 1025.6 690.5 1041.4 688.8 1057.25 687.75
L 1057.4 688.05
Q 1061.4189453125 687.5 1067.8 687.5 1076.15 687.55 1079 687.3 1080 687.25 1081.95 687.05 1082.1529296875 687.0326171875 1082.35 687 1081.2765625 686.778515625 1080.2 686.55
L 1119.15 686.4 1112 688.45
Q 1113.95 688.4 1115.8 688.8 1128.301953125 691.4919921875 1138.8 684.35 1139.8119140625 683.673828125 1140.8 682.9 1143.25 681.4 1145.4 679.35 1147.75 677.05 1149.45 674.25 1150.4140625 672.6673828125 1151.35 671.05 1153.73515625 667.12421875 1156.05 663.1 1157.02109375 661.35703125 1156.9 659.7 1156.8048828125 658.08125 1155.6 656.55 1152.912109375 663.987890625 1148.5 669.85 1144.24375 675.575 1138.35 679.8 1138.2796875 679.9 1138.15 679.95 1137.9646484375 680.124609375 1137.75 680.25 1137.6251953125 680.3634765625 1137.5 680.45 1137.3044921875 680.5865234375 1137.1 680.7 1136.6513671875 681.0326171875 1136.2 681.3 1136.09609375 681.3884765625 1136 681.45 1131.85 684.15 1126.95 684.05 1124.675 684.2048828125 1122.4 684.25 1118.824609375 684.400390625 1115.25 684.3 1114.258203125 684.3044921875 1113.25 684.25 1112.708984375 684.2494140625 1112.15 684.2 1107.79921875 684.03125 1103.45 683.55 1102.3193359375 683.407421875 1101.2 683.25 1085.266015625 681.4927734375 1069.3 682.8 1049.95 683.85 1030.75 685.9 1021.722265625 686.83125 1012.65 687.85 1004.181640625 688.8251953125 995.65 689.85
L 992.85 690.05
Q 992.513671875 690.121484375 992.15 690.2 990.4841796875 690.521484375 988.8 690.85 986.45546875 691.183203125 984.1 691.5 984.0177734375 691.5365234375 983.9 691.55 968.76953125 693.703125 953.65 695.9 933.25 698.7 912.55 701.9 903.188671875 703.3 893.8 704.6 870.088671875 707.98125 846.35 710.85 820.75 713.85 795 715.35 782.3 716.15 769.65 716.4 755.6 716.65 741.45 716.1 737.65 715.85 733.85 715.65 732.1556640625 715.4978515625 730.45 715.35 730.030859375 715.2328125 729.7 715.15 727.95 714.7 725.5 714.45 725.226171875 714.430859375 724.95 714.4 722.5107421875 714.235546875 721.2 714.1 713.65 713.55 704.55 711.4 698.7 710.05 688.15 707 675.55 703.4 669.2 700.95 660.374609375 697.52265625 653.85 693.25 653.8931640625 693.2126953125 653.9 693.15 653.0796875 692.61171875 652.25 692 655.9154296875 688.062109375 660 684.5 676.15 670.3 700.9 660.95 718.05 654.45 747.15 647.9 767 643.4 797.8 637.05 834.1 629.55 853.4 626.95 884.5 622.75 909.55 624.5 917.4 625.05 933.15 626.45 946.75 627.1 956.4 624.9 959.05078125 624.2794921875 965.5 621.9 970.1400390625 620.2484375 976.65 617.7 977.2517578125 617.483984375 977.85 617.25 978.0828125 617.159375 978.3 617.05 991.1037109375 612.147265625 999.6 612 1002.2640625 611.97109375 1006.4 612.45 1009.4123046875 612.81875 1013.2 613.45 1019.4056640625 614.512890625 1023.45 614.8 1025.3357421875 614.965625 1026.75 614.95 1026.887890625 614.9482421875 1027 614.95 1029.52734375 614.8923828125 1033 614.45 1034.948046875 614.2138671875 1037.2 613.85 1044.95 612.55 1047.6 612.3 1053.4 611.8 1058.2 612.95 1063.8 614.3 1067.25 617.75 1068.95 619.45 1070 620.05 1071.7 621 1072.9 620.15 1074.3 619.2 1073.6 617.2 1073 615.4 1071.35 614.2 1063.1 607.9 1048.4 608.45 1045.05 608.6 1036.4 609.55 1031.7251953125 610.0728515625 1028.25 610.25 1026.0626953125 610.4 1024.35 610.4 1023.9208984375 610.4 1023.4 610.35 1019.0283203125 610.25703125 1008.3 609.05 1001.0830078125 608.26015625 995.95 608.35 993.94140625 608.416796875 992.25 608.6 991.3388671875 608.7005859375 990.35 608.85 990.2791015625 608.8626953125 990.2 608.85 989.349609375 609.015625 988.45 609.2 987.175390625 609.45703125 985.8 609.8 980.85546875 611.01484375 974.55 613.3 972.57890625 614.016015625 970.8 614.65 970.626953125 614.711328125 970.45 614.75 970.1794921875 614.8705078125 969.9 614.95 960.83515625 618.15234375 957 619 956.111328125 619.1974609375 955.2 619.35 947.2236328125 620.863671875 936.65 620.55 922.95 619.65 916.1 619.25 886.15 617.5 848.95 622.65 826.35 625.8 782.45 634.85 753.35 640.9 740.8 643.9 722.65 648.25 709.7 652.55 693.15 658.05 680.1 664.95 665.1 672.9 653.65 683.35 645.4822265625 690.801953125 639.45 699.1 639.479296875 699.2017578125 639.45 699.25 639.2162109375 699.6064453125 638.95 699.95 638.7533203125 700.204296875 638.55 700.45 636.7537109375 702.8701171875 635.3 705.5 635.22578125 704.6720703125 634.65 703.5 633.2517578125 700.5580078125 632.3 697.55 631.6494140625 692.9677734375 631.1 688.3 632.6732421875 680.245703125 632.8 668.25 633 649.35 633.4 645 634.1 637.45 636.25 628.15 637.5 622.55 640.55 611.6 645.4 594.2 648.5 585.65 653.65 571.45 660.25 561.35 665.25 553.7 672.6 546.05 678.5 539.85 687 532.5 716.2 507.35 743.55 496.05 759.25 489.6 781.35 485 785.95 484.05 820.55 478 844.25 473.9 858.95 469.5 876.7525390625 464.163671875 890.5 456.15 892.3482421875 455.0705078125 894.1 453.95
L 894.3 453.65 894.4 453.35
Q 894.643359375 453.28671875 894.95 453.25 896.25 453.05 896.7 452.65 897.05859375 452.336328125 897.45 451.5 897.503515625 451.403515625 897.55 451.3 897.8 450.95 898.45 450.4 899.15 449.85 899.4 449.5 900.05 448.65 900.05 447 900.05 446.866015625 900.05 446.75 899.98984375 445.476171875 899.4 444.75 899.101171875 444.413671875 898.7 444.25 898.7205078125 444.19765625 898.75 444.15 897.7408203125 443.1705078125 896.25 443 896.069921875 442.498046875 895.65 441.95 895.0763671875 441.257421875 894.1 440.5 892.81875 439.4794921875 891.8 438.7 890.4986328125 437.715625 889.65 437.15 887.1 435.45 884.75 434.6 882.55 433.9 881.5 433.5 879.65 432.75 878.7 431.65 878.7 430.85 880.2 430.85 888.35 430.85 892.8 431.55 896.4931640625 432.1056640625 900.45 433.4 902.56796875 434.0994140625 904.75 435 905.0171875 435.102734375 905.25 435.15 905.47734375 435.250390625 905.65 435.3 906.8947265625 435.5943359375 907.45 435.15 908 434.75 908 434 908.05 433.3 907.65 432.7 907.5330078125 432.4951171875 907.3 432.25 906.7818359375 431.6927734375 905.65 430.95 902.3 428.65 899.95 425.4 899 424.05 898.45 422.75 898.15 421.95 898 421.55 897.7 420.85 897.35 420.4 896.7 419.65 896.65 419.5 896.35 418.95 896.55 418.55 902.3 424.45 909.4 427.85 910.04609375 428.162890625 910.65 428.4 910.6701171875 428.6 910.7 428.75 911.0970703125 430.0763671875 913.2 431.05 917.05 432.7 921.6 431.7 923.2490234375 431.3587890625 924.75 430.7 927.2578125 429.70078125 929.4 427.9 935.05 423.3 938.55 413.45 939.45 411.05 941.2 405.2 942.85 399.9 944 397 950.65 380.55 968.3 367.25 975.25 362.05 984.65 356.75 990.6 353.4 1001.9 347.75 1015 341.15 1022.05 337.9 1027.1890625 335.5474609375 1031.95 333.6 1031.81875 333.5935546875 1031.65 333.55 1042.04375 329.1720703125 1048.3 327.55 1049.65 327.2 1056.8 325.65 1062 324.5 1065.2 323.4 1065.75 323.2 1072.95 320.2 1073.8935546875 319.814453125 1074.75 319.45 1083.2177734375 317.5328125 1091.55 315.05 1090.459375 315.0888671875 1089 314.35 1089.63828125 314.3701171875 1090.25 314.35 1108.8787109375 311.4115234375 1127.6 309.05 1145.8119140625 306.5900390625 1164.15 305.5 1166.3740234375 305.3849609375 1168.6 305.25
L 1168.65 305.25
Q 1171.173828125 305.1482421875 1173.7 305.05 1184.15 304.75 1194.45 305.2 1195.7009765625 305.2962890625 1196.95 305.35 1201.2482421875 305.632421875 1205.5 305.65 1208.0669921875 305.6705078125 1210.6 305.6 1214.780859375 304.130078125 1219.1 302.9 1218.68515625 302.667578125 1218.25 302.45 1217.6 302.2 1216.95 301.95 1216.2 301.7 1215.5 301.5 1214.75 301.35 1214.05 301.25 1213.15 301.1 1212.3 301 1212.6779296875 300.815234375 1213.05 300.6 1208.312109375 300.3265625 1203.55 299.9 1203.065234375 299.95 1202.55 299.95 1201.7552734375 300.0361328125 1200.95 300.05 1197.817578125 300.1009765625 1194.65 300.15 1182.4572265625 300.3509765625 1170.2 300.55 1154.05 300.85 1137.9 302.55 1120 304.1 1102.1 307.05 1083.3 310.15 1064.5 314.5 1063.873046875 314.7986328125 1063.25 315.1 1059.85 314.75 1058.05 315.75 1054.9427734375 317.4873046875 1052.05 317.05 1047.6505859375 319.59609375 1042.9 321.45
M 634 707.75
Q 633.9478515625 707.553515625 633.9 707.3 634.103125 707.31953125 634.3 707.25 634.148828125 707.516796875 634 707.75
M 1297.35 571.85
Q 1299.15 571.45 1299.05 569.7 1298.85 565.85 1296.1 562.85 1287.948828125 553.9611328125 1280.95 544.15 1278.0001953125 540.0462890625 1275.25 535.75 1271.4978515625 529.8626953125 1268.7 523.4 1266.9341796875 519.2974609375 1265.55 514.95 1265.3970703125 514.4658203125 1265.25 514 1264.896875 513.8318359375 1264.55 513.65 1264.2466796875 513.5189453125 1263.95 513.35 1263.6029296875 513.2171875 1263.25 513.05 1263.5203125 514.3716796875 1263.75 515.7 1263.993359375 516.8720703125 1264.2 518.05 1266.1 528.45 1271.1 537.7 1272.4921875 540.2796875 1273.95 542.8 1274.2263671875 543.2244140625 1274.45 543.65 1276.5341796875 547.0599609375 1278.75 550.35 1282.616015625 556.0525390625 1287 561.4 1288.65 563.45 1289.9 565.9 1290.25 566.65 1290.5 567.45 1289.5 567.3 1288.55 567.2 1287.7 567 1286.85 566.85 1286.1 566.7 1285.4 566.6 1284.75 566.3 1284.15 566.05 1283.2 565.55 1282.3 565.05 1279.8439453125 559.5708984375 1276.9 554.4 1276.72421875 554.1015625 1276.55 553.8 1274.0474609375 549.465234375 1270.5 546.15 1270.085546875 545.7771484375 1269.65 545.4 1268.25 544.1 1266.75 542.9 1266.9 544.5 1267.2 546.1 1267.3 546.7 1267.5 547.35 1267.55 547.45 1267.65 547.6 1267.75 547.75 1267.9 547.95 1268.2 548.4 1268.5 548.9 1268.7 549.2 1268.9 549.55 1269.15 549.9 1269.4 550.3 1269.95 551.15 1270.5 552.05 1270.8 552.6 1271.15 553.2
L 1268.2 549 1267.85 549.35
Q 1267.95 550.8 1268.55 552.1 1270.61796875 556.6380859375 1273.05 560.95 1274.6234375 563.7333984375 1276.35 566.4 1276.5978515625 566.8138671875 1276.85 567.2 1280.05 572.2 1281.25 578.15 1283.2 587.6 1281.5 597.1 1280.05 605.05 1276.05 612.05 1275.3 613.35 1274.55 614.7 1274.55 610.4 1273.85 606.25 1271.95 594.6 1270.95 582.85 1270.4 576.8 1267.8 571.55 1267.586328125 571.165234375 1267.3 570.9 1267.2935546875 570.8435546875 1267.25 570.8 1267.070703125 571.235546875 1266.95 571.65 1266.9 572.085546875 1266.9 572.5 1267.1 584.9 1266.7 597.25 1266.35 607.85 1263.35 618 1260.3 628.3 1253.75 636.65 1250.2 641.2 1245.35 643.9 1244.4 644.4 1243.45 644.9 1245.65 639.55 1247.05 634.2 1248.9 626.95 1248.05 619.4 1247.8 617.15 1248 615.1 1248 614.9 1247.95 614.7 1247.3609375 616.396484375 1246.8 618.1 1243.74453125 627.227734375 1241.3 636.5 1240 641.35 1237.35 645.5 1236.5970703125 646.654296875 1236.4 647.85 1236.2765625 649.0296875 1236.7 650.25 1236.73046875 650.33125 1236.75 650.4 1237.1533203125 650.9212890625 1237.55 651.4 1238.3205078125 651.9869140625 1239.6 651.6 1244.65 649.9 1248.95 646.75 1256.85 640.9 1261.3 632.35 1265.6 624.1 1268.05 614.95 1268.6 612.95 1269.15 610.95 1269.15 616.25 1267.45 621.35 1266.45 624.25 1266.3 627.25 1266.2 629.15 1267.9 629.55 1272.95 630.5 1276 625.25 1279.55 619 1282.65 612.4 1287.1 602.95 1287.5 592.55 1287.85 584.5 1286 576.7 1285.5 574.45 1284.95 572.2 1291.15 573.65 1297.35 571.85
M 1243.6 604
Q 1240.95 621.6 1231 636.3 1221.9 649.85 1206.8 656.25 1208.4 653.6 1210.05 651 1219.6 636.4 1220.15 619.15
L 1215.45 626.5
Q 1209.65 645.65 1196.9 660.7 1194.1 663.95 1197.7 664 1204.25 664.05 1210.2 660.4 1220.4 654.1 1229.2 646.05 1240.2 633.6 1244.85 617.45 1249.05 602.9 1245.7 588.4 1244.75 596.25 1243.6 604
M 1113.55 681.5
Q 1113.4958984375 681.6390625 1113.45 681.75 1113.2095703125 682.3509765625 1112.9 682.95 1117.4046875 683.13671875 1122.4 683.35 1118.0349609375 682.351953125 1113.55 681.5
M 896.25 446.75
L 896.3 446.65
Q 896.2330078125 446.64453125 896.15 446.65 896.2228515625 446.703125 896.25 446.75
M 1036 323.95
Q 1036.1619140625 324.0443359375 1036.3 324.1 1036.576171875 323.97734375 1036.85 323.85 1038.482421875 323.146875 1040.15 322.5 1038.09140625 323.2328125 1036 323.95
M 780 470.25
Q 781.178515625 470.3001953125 782.1 469.85 782.6287109375 469.65625 783.05 469.3 781.269140625 469.7197265625 779.45 470.15 779.7390625 470.2298828125 780 470.25 Z"/>

<path fill="#FFFFFF" stroke="none" d="
M 1031.65 333.55
Q 1031.81875 333.5935546875 1031.95 333.6 1027.1890625 335.5474609375 1022.05 337.9 1015 341.15 1001.9 347.75 990.6 353.4 984.65 356.75 975.25 362.05 968.3 367.25 950.65 380.55 944 397 942.85 399.9 941.2 405.2 939.45 411.05 938.55 413.45 935.05 423.3 929.4 427.9 927.2578125 429.70078125 924.75 430.7 923.2490234375 431.3587890625 921.6 431.7 917.05 432.7 913.2 431.05 911.0970703125 430.0763671875 910.7 428.75 910.6701171875 428.6 910.65 428.4 910.04609375 428.162890625 909.4 427.85 902.3 424.45 896.55 418.55 896.35 418.95 896.65 419.5 896.7 419.65 897.35 420.4 897.7 420.85 898 421.55 898.15 421.95 898.45 422.75 899 424.05 899.95 425.4 902.3 428.65 905.65 430.95 906.7818359375 431.6927734375 907.3 432.25 907.5330078125 432.4951171875 907.65 432.7 908.05 433.3 908 434 908 434.75 907.45 435.15 906.8947265625 435.5943359375 905.65 435.3 905.47734375 435.250390625 905.25 435.15 905.0171875 435.102734375 904.75 435 902.56796875 434.0994140625 900.45 433.4 896.4931640625 432.1056640625 892.8 431.55 888.35 430.85 880.2 430.85 878.7 430.85 878.7 431.65 879.65 432.75 881.5 433.5 882.55 433.9 884.75 434.6 887.1 435.45 889.65 437.15 890.4986328125 437.715625 891.8 438.7 892.81875 439.4794921875 894.1 440.5 895.0763671875 441.257421875 895.65 441.95 896.069921875 442.498046875 896.25 443 897.7408203125 443.1705078125 898.75 444.15 898.7205078125 444.19765625 898.7 444.25 899.101171875 444.413671875 899.4 444.75 899.98984375 445.476171875 900.05 446.75 917.565234375 463.3798828125 924.8 476.85 934.8 495.45 934.8 522.15 934.8 541.15 926.55 563.25 924.45 568.75 920.85 577.5 918.25 584.1 918.25 586.75 918.25 593.85 948.3 602.35 959.5 605.5 971.15 607.7 981.56328125 609.7248046875 985.8 609.8 987.175390625 609.45703125 988.45 609.2 989.349609375 609.015625 990.2 608.85 990.2791015625 608.8626953125 990.35 608.85 991.3388671875 608.7005859375 992.25 608.6 993.94140625 608.416796875 995.95 608.35 1001.0830078125 608.26015625 1008.3 609.05 1019.0283203125 610.25703125 1023.4 610.35 1023.9208984375 610.4 1024.35 610.4 1026.0626953125 610.4 1028.25 610.25 1031.7251953125 610.0728515625 1036.4 609.55 1045.05 608.6 1048.4 608.45 1063.1 607.9 1071.35 614.2 1073 615.4 1073.6 617.2 1074.3 619.2 1072.9 620.15 1071.7 621 1070 620.05 1068.95 619.45 1067.25 617.75 1063.8 614.3 1058.2 612.95 1053.4 611.8 1047.6 612.3 1044.95 612.55 1037.2 613.85 1034.948046875 614.2138671875 1033 614.45 1029.52734375 614.8923828125 1027 614.95 1026.887890625 614.9482421875 1026.75 614.95 1025.3357421875 614.965625 1023.45 614.8 1022.4640625 616.476953125 1021.4 618.25 1017.8537109375 624.4724609375 1013.9 632.45 1013.257421875 633.8380859375 1012.55 635.25 1009.0326171875 642.6591796875 1005.2 651.5 1000.4345703125 662.5169921875 997.3 671.55 997.1609375 671.5810546875 997 671.6 996.355859375 673.876953125 995.75 676.15 993.9935546875 683.005859375 992.85 690.05
L 995.65 689.85
Q 1004.181640625 688.8251953125 1012.65 687.85 1021.722265625 686.83125 1030.75 685.9 1049.95 683.85 1069.3 682.8 1085.266015625 681.4927734375 1101.2 683.25 1102.3193359375 683.407421875 1103.45 683.55 1107.79921875 684.03125 1112.15 684.2 1112.708984375 684.2494140625 1113.25 684.25
L 1112.9 682.95
Q 1113.2095703125 682.3509765625 1113.45 681.75 1113.4958984375 681.6390625 1113.55 681.5 1118.0349609375 682.351953125 1122.4 683.35
L 1122.4 684.25
Q 1124.675 684.2048828125 1126.95 684.05 1131.85 684.15 1136 681.45 1136.09609375 681.3884765625 1136.2 681.3 1136.6513671875 681.0326171875 1137.1 680.7 1137.3044921875 680.5865234375 1137.5 680.45 1137.6251953125 680.3634765625 1137.75 680.25 1137.9646484375 680.124609375 1138.15 679.95 1138.2796875 679.9 1138.35 679.8 1144.24375 675.575 1148.5 669.85 1152.912109375 663.987890625 1155.6 656.55 1156.8048828125 658.08125 1156.9 659.7 1157.02109375 661.35703125 1156.05 663.1 1153.73515625 667.12421875 1151.35 671.05 1150.4140625 672.6673828125 1149.45 674.25 1147.75 677.05 1145.4 679.35 1143.25 681.4 1140.8 682.9 1139.8119140625 683.673828125 1138.8 684.35
L 1139.15 684.85
Q 1139.9923828125 684.035546875 1141.25 683.5 1141.5525390625 683.356640625 1141.8 683.15 1148.9166015625 678.80859375 1154.8 673.2 1157.8986328125 670.280078125 1160.65 667 1163.9587890625 663.10546875 1166.8 658.7 1169.1 655.1 1171.65 651.7 1171.05 662.25 1163.75 671.05 1161.8974609375 673.298046875 1159.9 675.35 1157.0935546875 678.2818359375 1154 680.85 1158.3802734375 679.090625 1162.45 676.9 1175.2533203125 670.1662109375 1185.25 659.45 1202.85 640.55 1213.35 617.25
L 1212.95 616.6 1214.95 616.45
Q 1215.2 617.15 1215.25 617.9 1215.25 618.6 1214.95 619.3 1213.9 622.2 1212.65 625.1
L 1215.45 626.5 1220.15 619.15
Q 1219.6 636.4 1210.05 651 1208.4 653.6 1206.8 656.25 1221.9 649.85 1231 636.3 1240.95 621.6 1243.6 604 1244.75 596.25 1245.7 588.4 1249.05 602.9 1244.85 617.45
L 1246.8 618.1
Q 1247.3609375 616.396484375 1247.95 614.7 1248 614.9 1248 615.1 1247.8 617.15 1248.05 619.4 1248.9 626.95 1247.05 634.2 1245.65 639.55 1243.45 644.9 1244.4 644.4 1245.35 643.9 1250.2 641.2 1253.75 636.65 1260.3 628.3 1263.35 618 1266.35 607.85 1266.7 597.25 1267.1 584.9 1266.9 572.5 1266.9 572.085546875 1266.95 571.65 1267.070703125 571.235546875 1267.25 570.8 1267.2935546875 570.8435546875 1267.3 570.9 1267.586328125 571.165234375 1267.8 571.55 1270.4 576.8 1270.95 582.85 1271.95 594.6 1273.85 606.25 1274.55 610.4 1274.55 614.7 1275.3 613.35 1276.05 612.05 1280.05 605.05 1281.5 597.1 1283.2 587.6 1281.25 578.15 1280.05 572.2 1276.85 567.2 1276.5978515625 566.8138671875 1276.35 566.4 1274.6234375 563.7333984375 1273.05 560.95 1270.61796875 556.6380859375 1268.55 552.1 1267.95 550.8 1267.85 549.35
L 1268.2 549 1271.15 553.2
Q 1270.8 552.6 1270.5 552.05 1269.95 551.15 1269.4 550.3 1269.15 549.9 1268.9 549.55 1268.7 549.2 1268.5 548.9 1268.2 548.4 1267.9 547.95 1267.75 547.75 1267.65 547.6 1267.55 547.45 1267.5 547.35 1267.3 546.7 1267.2 546.1 1266.9 544.5 1266.75 542.9 1268.25 544.1 1269.65 545.4 1270.085546875 545.7771484375 1270.5 546.15 1274.0474609375 549.465234375 1276.55 553.8 1276.72421875 554.1015625 1276.9 554.4 1279.8439453125 559.5708984375 1282.3 565.05 1283.2 565.55 1284.15 566.05 1284.75 566.3 1285.4 566.6 1286.1 566.7 1286.85 566.85 1287.7 567 1288.55 567.2 1289.5 567.3 1290.5 567.45 1290.25 566.65 1289.9 565.9 1288.65 563.45 1287 561.4 1282.616015625 556.0525390625 1278.75 550.35 1276.5341796875 547.0599609375 1274.45 543.65 1274.2263671875 543.2244140625 1273.95 542.8 1272.4921875 540.2796875 1271.1 537.7 1266.1 528.45 1264.2 518.05 1263.993359375 516.8720703125 1263.75 515.7 1263.5203125 514.3716796875 1263.25 513.05 1263.6029296875 513.2171875 1263.95 513.35 1263.75 510.398828125 1263.75 504.15 1263.75 503.25 1267.5 471.05 1271.25 438.85 1271.25 431.05 1271.25 415.9 1266.6 395.1 1264.46015625 385.458984375 1261.6 376 1258.45234375 365.3587890625 1254.4 354.95 1246.4 334.2 1237.25 320.35 1229.034375 307.9857421875 1221.15 303.1 1220.3138671875 302.594921875 1219.45 302.15
L 1219.1 302.9
Q 1214.780859375 304.130078125 1210.6 305.6 1208.0669921875 305.6705078125 1205.5 305.65 1201.2482421875 305.632421875 1196.95 305.35 1195.7009765625 305.2962890625 1194.45 305.2 1184.15 304.75 1173.7 305.05 1171.173828125 305.1482421875 1168.65 305.25
L 1168.6 305.25
Q 1166.3740234375 305.3849609375 1164.15 305.5 1145.8119140625 306.5900390625 1127.6 309.05 1108.8787109375 311.4115234375 1090.25 314.35 1089.63828125 314.3701171875 1089 314.35 1090.459375 315.0888671875 1091.55 315.05 1083.2177734375 317.5328125 1074.75 319.45 1073.8935546875 319.814453125 1072.95 320.2 1065.75 323.2 1065.2 323.4 1062 324.5 1056.8 325.65 1049.65 327.2 1048.3 327.55 1042.04375 329.1720703125 1031.65 333.55
M 1164.3 307.8
L 1168.75 307.5 1164.4 308.45 1164.3 307.8
M 1081.65 612.85
Q 1081.65 616.3 1082.1 617.75 1082.2 618 1082.6 619.05 1082.95 619.85 1083.05 620.4 1083.25 621.2 1083.15 622.5 1083.1 623.2 1082.95 624.6 1082.95 625.1 1082.9 626.05 1082.85 626.85 1082.6 627.4 1082.05 628.55 1079.65 629.7 1076.55 631.05 1075 631 1073.3 631 1071.1 629.85 1066.2 627.45 1062.7 623.1 1063.7 621.85 1066.15 623.2
L 1071.4 625.95
Q 1072.9 626.75 1073.7 626.85 1074.95 627 1076.95 626.35 1078.95 625.75 1079.55 624.75 1079.75 624.4 1079.95 623.55 1080.15 622.75 1080.4 622.35 1080.6 622.1 1081 621.6 1081.35 621.15 1081.4 620.75 1081.45 620.45 1080.85 619.3 1080.35 618.3 1080.65 616.25 1081 614 1080.75 613.1
L 1081.65 612.85 Z"/>

<path fill="#5B5D5E" stroke="none" d="
M 900.05 446.75
Q 900.05 446.866015625 900.05 447 900.05 448.65 899.4 449.5 899.15 449.85 898.45 450.4 897.8 450.95 897.55 451.3 897.503515625 451.403515625 897.45 451.5 897.05859375 452.336328125 896.7 452.65 896.25 453.05 894.95 453.25 894.643359375 453.28671875 894.4 453.35
L 894.3 453.65 894.1 453.95
Q 892.3482421875 455.0705078125 890.5 456.15 876.7525390625 464.163671875 858.95 469.5 844.25 473.9 820.55 478 785.95 484.05 781.35 485 759.25 489.6 743.55 496.05 716.2 507.35 687 532.5 678.5 539.85 672.6 546.05 665.25 553.7 660.25 561.35 653.65 571.45 648.5 585.65 645.4 594.2 640.55 611.6 637.5 622.55 636.25 628.15 634.1 637.45 633.4 645 633 649.35 632.8 668.25 632.6732421875 680.245703125 631.1 688.3 631.6494140625 692.9677734375 632.3 697.55 633.2517578125 700.5580078125 634.65 703.5 635.22578125 704.6720703125 635.3 705.5 636.7537109375 702.8701171875 638.55 700.45 638.7533203125 700.204296875 638.95 699.95 639.2162109375 699.6064453125 639.45 699.25 639.479296875 699.2017578125 639.45 699.1 645.4822265625 690.801953125 653.65 683.35 665.1 672.9 680.1 664.95 693.15 658.05 709.7 652.55 722.65 648.25 740.8 643.9 753.35 640.9 782.45 634.85 826.35 625.8 848.95 622.65 886.15 617.5 916.1 619.25 922.95 619.65 936.65 620.55 947.2236328125 620.863671875 955.2 619.35 956.111328125 619.1974609375 957 619 960.83515625 618.15234375 969.9 614.95 970.1794921875 614.8705078125 970.45 614.75 970.626953125 614.711328125 970.8 614.65 972.57890625 614.016015625 974.55 613.3 980.85546875 611.01484375 985.8 609.8 981.56328125 609.7248046875 971.15 607.7 959.5 605.5 948.3 602.35 918.25 593.85 918.25 586.75 918.25 584.1 920.85 577.5 924.45 568.75 926.55 563.25 934.8 541.15 934.8 522.15 934.8 495.45 924.8 476.85 917.565234375 463.3798828125 900.05 446.75
M 797.8 637.05
Q 767 643.4 747.15 647.9 718.05 654.45 700.9 660.95 676.15 670.3 660 684.5 655.9154296875 688.062109375 652.25 692 653.0796875 692.61171875 653.9 693.15 653.8931640625 693.2126953125 653.85 693.25 660.374609375 697.52265625 669.2 700.95 675.55 703.4 688.15 707 698.7 710.05 704.55 711.4 713.65 713.55 721.2 714.1 722.5107421875 714.235546875 724.95 714.4 725.226171875 714.430859375 725.5 714.45 727.95 714.7 729.7 715.15 730.030859375 715.2328125 730.45 715.35 732.1556640625 715.4978515625 733.85 715.65 737.65 715.85 741.45 716.1 755.6 716.65 769.65 716.4 782.3 716.15 795 715.35 820.75 713.85 846.35 710.85 870.088671875 707.98125 893.8 704.6 903.188671875 703.3 912.55 701.9 933.25 698.7 953.65 695.9 968.76953125 693.703125 983.9 691.55 984.0177734375 691.5365234375 984.1 691.5 986.45546875 691.183203125 988.8 690.85 990.4841796875 690.521484375 992.15 690.2 992.513671875 690.121484375 992.85 690.05 993.9935546875 683.005859375 995.75 676.15 996.355859375 673.876953125 997 671.6 997.1609375 671.5810546875 997.3 671.55 1000.4345703125 662.5169921875 1005.2 651.5 1009.0326171875 642.6591796875 1012.55 635.25 1013.257421875 633.8380859375 1013.9 632.45 1017.8537109375 624.4724609375 1021.4 618.25 1022.4640625 616.476953125 1023.45 614.8 1019.4056640625 614.512890625 1013.2 613.45 1009.4123046875 612.81875 1006.4 612.45 1002.2640625 611.97109375 999.6 612 991.1037109375 612.147265625 978.3 617.05 978.0828125 617.159375 977.85 617.25 977.2517578125 617.483984375 976.65 617.7 970.1400390625 620.2484375 965.5 621.9 959.05078125 624.2794921875 956.4 624.9 946.75 627.1 933.15 626.45 917.4 625.05 909.55 624.5 884.5 622.75 853.4 626.95 834.1 629.55 797.8 637.05 Z"/>
</g>

<g id="Layer1_0_FILL">
<path fill="#000000" stroke="none" d="
M 679.65 517.9
Q 680.45 516.95 681.95 514.85 684.95 511.1 689.4 509.25 689 508.6 688.05 508.55 687.2 508.45 686.35 508.85 683.8 509.95 680.8 513.6 677.3 517.9 675.6 519.05 674.7 519.65 671.55 521.2 668.95 522.4 667.7 523.6 667.05 524.25 666.05 525.7 664.95 527.15 664.35 527.8 664 528.15 661.3 530.35 659.25 531.95 657.95 533.25 655.35 535.8 651.5 540.9
L 647.85 545.6
Q 645.95 548.15 645.4 549.4 644.65 551.15 644.45 553.5 644.35 555 644.5 557.7 642.95 557.65 641.65 559.25 640.25 561.35 639.55 562.35 638.8 563.5 637.45 564.8 635.85 566.3 635.05 567.05 633.3 568.6 632.7 570 632.2 571.1 632.2 572.7 632.2 573.65 632.3 575.5 632.4 579.2 630.6 580.6 631.7 580.4 632.55 579.55 633.35 578.7 633.55 577.6 633.7 576.65 633.35 574.95 632.9 573.1 632.95 572.3 633.15 570.3 635.5 568.2 638.95 565.1 639.35 564.55 640 563.65 641.1 561.6 642.15 559.9 643.4 559.35 643.75 559.2 644.45 558.95 645.05 558.7 645.35 558.3 645.65 557.9 645.6 557 645.55 556 645.65 555.65 645.7 555.45 646.15 554.65 646.5 554.05 646.45 553.65 646.4 553.25 646.05 552.75 645.55 552 645.5 551.9 645.1 550.9 645.95 549.7 646.3 549.25 647.8 547.8 648.65 546.95 649.6 545.55 650.1 544.75 651.1 543.1 652.65 540.7 656.45 536.4 660 532.45 661.8 531 662.5 530.5 663.85 529.45 665.05 528.55 665.75 527.75 666.1 527.35 667.5 525.65 668.55 524.3 669.4 523.65 670.55 522.8 673.15 522.05 675.9 521.2 677 520.5 678.3 519.65 679.65 517.9
M 815.85 465.25
Q 814.75 466.3 814 466.75 811.2 468.5 805.7 467.6 798.9 466.45 796.75 466.8 795.5 467 793.65 467.7 791.2 468.6 790.55 468.8 788.6 469.4 785.85 469.6 782.65 469.75 781.05 469.8 777.05 470.05 771 470.85 764.7 471.65 761.7 472.4 756.3 473.85 750.55 477.05 745.8 479.75 742.3 482.7 740.5 484.25 739.75 484.75 738.3 485.75 736.9 486.1 735.75 486.35 733.6 486.2 731.2 485.95 730.2 486.1 727.95 486.35 724.45 488.6 716.85 493.3 713.15 496 707.05 500.45 703 504.9 704.7 504.45 706.65 502.75 707.7 501.75 709.8 499.7 711.2 498.45 713.75 497 717.4 494.9 717.9 494.6 720.35 493.05 725.1 489.45 729.35 486.7 732.9 486.85 733.15 486.85 735.05 487.05 736.3 487.2 737.1 487.05 738.2 486.8 739.45 486 739.95 485.65 741.45 484.45 749.4 477.95 761.9 474.4 771.95 471.5 781.95 470.9 786.5 470.6 786.7 470.6 789.4 470.35 791.35 469.8 792.75 469.4 795.4 468.4 797.85 467.55 799.55 467.45 801.25 467.35 806.05 468.6 810.1 469.6 812.4 468.85 814 468.35 817.15 465.65 820 463.2 822.05 463 821.1 462.4 819.8 462.65 818.65 462.85 817.6 463.65 817.1 464.05 815.85 465.25 Z"/>
</g>
</defs>

<g transform="matrix( 1, 0, 0, 1, 0,0) ">
<use xlink:href="#Layer5_0_FILL"/>
</g>

<g transform="matrix( 1, 0, 0, 1, 0,0) ">
<use xlink:href="#Layer1_0_FILL"/>
</g>
</svg>
