
<svg xmlns="http://www.w3.org/2000/svg" version="1.1" xmlns:xlink="http://www.w3.org/1999/xlink" preserveAspectRatio="none" x="0px" y="0px" width="1920px" height="1080px" viewBox="0 0 1920 1080">
<defs>
<g id="Layer5_0_FILL">
<path fill="#5B5D5E" stroke="none" d="
M 905.25 455.45
Q 903.88828125 454.0380859375 902.45 452.65 892.1603515625 442.67734375 878.35 434.15 875.66171875 435.2896484375 873.8 435.9 873.2705078125 436.0654296875 872.75 436.2 872.144140625 436.38125 871.55 436.5 872.1041015625 436.5912109375 872.7 436.6 872.774609375 436.6228515625 872.8 436.6 872.7744140625 436.6412109375 872.7 436.65 872.1216796875 436.84296875 871.5 437 858.5326171875 441.1263671875 843.85 444.45 848.821484375 446.2166015625 852.7 448.05 859.6 451.25 864.65 455.35 870.95 460.5 875.15 467.55 879.4 474.65 880.95 482.6 882.5 490.55 881.2 498.7 879.9 506.85 876 513.95 878.2 506.65 878.5 499.25 878.95 488.3 875.15 478.35 871.2 467.85 863.4 461 858.55 456.75 851.65 453.45 846.3 450.9 838.4 448.35 828.2 445.05 821.55 444.9 815.6 444.75 804.8 447.1 790.65 450.15 782.35 452.9 770.2 456.85 761.5 462.55 755.55 466.45 748.15 473.35 739.9 481.3 735.65 485.15 734.75 485.95 733.9 486.2 732.8 486.55 732.25 485.85 731.4 484.65 733.2 482.85 745.3 470.8 752.9 464.6 758.25078125 460.249609375 763.5 456.85 743.8869140625 459.11328125 735.3 460.7 718.05 463.7 705.3 469.05 686.85 476.85 671.4 491.55 656.7 505.6 646.6 524.15 631.6 551.55 627.2 586.9
L 627.7 584.45
Q 626.9025390625 590.164453125 627.2 595.85 627.6384765625 597.8357421875 628.2 600.35
L 629.6 606.65
Q 630.65 611.55 631.5 614.15 632.85 618.2 634.75 621.05 635.4 621.3 635.95 620.3
L 638.15 616.75
Q 639.743359375 613.998828125 641.6 611.45 642.3642578125 611.074609375 643.1 610.7 644.0986328125 609.9314453125 645.4 609.05 647.735546875 607.49296875 649.15 607.75 661.9609375 601.636328125 670.1 598.3
L 670.1 597.85
Q 670.2 597.35 670.8 597.15 671.35 596.95 671.8 597.2 671.9689453125 597.3267578125 672.1 597.5 688.6482421875 590.8384765625 702.9 587.9 703.0037109375 587.778125 703.15 587.65 703.55 587.25 704 587.3 704.4 587.3 704.3 587.15 704.7716796875 587.199609375 705 587.5 705.46796875 587.4275390625 705.9 587.35 712.0029296875 586.225 718.85 585.6 724.1748046875 585.153125 729.95 585 731.351171875 584.9650390625 732.8 584.95 733.3970703125 584.8 733.8 584.8 734.258984375 584.8 734.65 584.9 743.1810546875 584.90625 754.25 585.45 775.75 586.35 790.4 588.8 791.65 588.95 806.25 591.8 815.85 593.5 822.3 594.15 837.1 595.55 852.7 592.9 867.5 590.45 882 584.5 882.15 584.4 882.2 584.4 882.75 583.55 883.55 583.25 884.2 583 885.1 583.15 892.45 579.95 903.35 574.3 903.431640625 574.2591796875 903.5 574.2 903.854296875 574.0544921875 904.2 573.85 904.3984375 573.79296875 904.6 573.7 910.478515625 570.6357421875 914.9 568.4 921.0763671875 565.2869140625 924.4 563.8 927.3 562.5 930.15 561.35 930.55 561.15 931 561 932.5384765625 560.3833984375 934.05 559.8 936.901953125 558.7568359375 939.65 557.85
L 939.7 557.85
Q 946.8189453125 555.6134765625 953.45 554.55 958.3 553.75 962.9 553.6 963.03125 553.59453125 963.15 553.6 959.4890625 552.9431640625 954.15 552 943 550 937.1 550 932.787109375 550 930.55 550.05 929.132421875 550.122265625 928.55 550.2 926.8076171875 550.4263671875 925.1 551 923.0708984375 551.7408203125 921.1 553
L 921.1 552
Q 921.6517578125 550.5810546875 922.25 548.5 923.601953125 543.9087890625 925.2 536.05 925.6208984375 534.0708984375 926.05 531.85 926.8236328125 527.8298828125 927.4 524.35 929.1 514.0978515625 929.1 508.5 929.1 484.7 912.15 463.3 908.9509765625 459.2736328125 905.25 455.45
M 833.15 482.75
Q 840.4 487.05 846.15 493.8 848 495.95 848.75 498.3 849.11640625 499.4763671875 849.15 500.6 849.237109375 502.4685546875 848.5 504.25 847.700390625 503.1904296875 846.9 502.2 843.8103515625 498.290234375 841.05 495.65 836.1 490.85 830.1 487.9 830.25 488.65 830.4 489.45 831.45 494.6 830.8 500.3 830.2 504.75 828.5 509.9 825.1 520.65 818.55 529.9 812 539.05 804.2 544.1 803.05 544.8 801.85 545.5 793.55 549.95 782.8 550.6 768.6 550.2 761.55 550.3 755.05 550.2 748.25 551.15 747.45 551.25 746.6 551.4 738.5 552.6 731.3 555.25 731.2 555.3 731.15 555.35 731 555.35 730.9 555.45 722.8 558.5 715.9 563.45 715.35859375 563.79296875 714.85 564.05 713.966796875 564.472265625 713.2 564.6 712.65 564.65 712.25 564.4 711.8 565.65 711.4 566.8 710.55 564.75 711.85 560.4 711.965234375 559.9865234375 712.1 559.55 714.0658203125 552.93046875 718.3 545.45 721.35 539.85 726.95 532.1 737.05 517.9 745.85 508.4 746.85 507.3 747.8 506.3 759.7 493.9 771 487.8 775.8 485.25 786.15 481.45 796.45 477.75 801.85 476.8 809.4 475.5 817.7 476.85 825.85 478.55 833.15 482.75
M 849.4 537.8
Q 850 537.45 850.4 537.85 848.65 541.75 844.85 546.45 840.1 552.2 835.05 556.05 829.4 560.35 820.65 564.25 818.6 565.25 817.05 565.6 815.9 565.85 813.7 566.05
L 797.55 567.4
Q 795.1 567.5 794.3 567.4 793.3 567.3 791.6 566.7 789.7 566.1 788.85 565.95 787.65 565.75 784.45 565.9 781.65 566 780.15 565.5 780.4 564.65 782 564.65 787.4 564.55 790.3 565.2 790.95 565.35 792.25 565.7 793.45 566 794.3 566.1 795.4 566.2 797.7 566
L 813.15 564.55
Q 815.35 564.4 816.9 564 818.6 563.6 821.2 562.4 826.7 559.9 830.55 557.6 842 550.55 848.5 538.8 848.85 538.15 849.4 537.8
M 732.75 559.65
Q 732.6 559.9 732.45 560.25 732.4 560.25 732.35 560.25 732.15 559.95 732.6 559.7 732.7 559.65 732.75 559.65
M 630.2 600.45
Q 630.05 600.657421875 629.9 600.85 629.7625 601.0576171875 629.6 601.25 629.462109375 601.483984375 629.3 601.7 629.3048828125 601.26875 629.35 600.85 629.4740234375 600.81015625 629.6 600.75 629.75078125 600.672265625 629.9 600.6 630.05078125 600.522265625 630.2 600.45
M 722.95 710.95
Q 716.05 709.2 711.05 707.15 704.95 704.7 700.6 701.15
L 699.9 702
Q 708.65 722.25 730.35 740 742.6 750.2 753.8 755 766 760.05 781.2 761.05 793.9 761.7 809.5 759.55 817.8 758.35 837.25 754.4 855.05 750.9 865.1 749.7 876.15 748.45 891.45 748.2 900.25 748.05 917.95 748.05 939.05 747.85 968.15 746 973.4828125 745.655859375 979.05 745.25 979.9837890625 745.169921875 980.9 745.1 987.15 744.65 993.45 744.15
L 993.15 740.75
Q 991.1 730.5 991.1 723.1 991.1 718.45 995.95 702 999.3 690.55 1001.5 685.4
L 1000.15 684.9
Q 981.709375 683.4365234375 967.45 683.65 967.1025390625 683.6927734375 966.75 683.7 965.4 683.7 964.1 683.75 938.2 684.6 903.65 691.9 863.85 701.35 844 705.8 808.85 713.7 783.35 715.45 750.05 717.8 722.95 710.95 Z"/>

<path fill="#000000" stroke="none" d="
M 629.9 600.85
Q 630.05 600.657421875 630.2 600.45 630.05078125 600.522265625 629.9 600.6 629.75078125 600.672265625 629.6 600.75 629.4740234375 600.81015625 629.35 600.85 629.3048828125 601.26875 629.3 601.7 629.462109375 601.483984375 629.6 601.25 629.7625 601.0576171875 629.9 600.85
M 732.45 560.25
Q 732.6 559.9 732.75 559.65 732.7 559.65 732.6 559.7 732.15 559.95 732.35 560.25 732.4 560.25 732.45 560.25
M 850.4 537.85
Q 850 537.45 849.4 537.8 848.85 538.15 848.5 538.8 842 550.55 830.55 557.6 826.7 559.9 821.2 562.4 818.6 563.6 816.9 564 815.35 564.4 813.15 564.55
L 797.7 566
Q 795.4 566.2 794.3 566.1 793.45 566 792.25 565.7 790.95 565.35 790.3 565.2 787.4 564.55 782 564.65 780.4 564.65 780.15 565.5 781.65 566 784.45 565.9 787.65 565.75 788.85 565.95 789.7 566.1 791.6 566.7 793.3 567.3 794.3 567.4 795.1 567.5 797.55 567.4
L 813.7 566.05
Q 815.9 565.85 817.05 565.6 818.6 565.25 820.65 564.25 829.4 560.35 835.05 556.05 840.1 552.2 844.85 546.45 848.65 541.75 850.4 537.85
M 846.15 493.8
Q 840.4 487.05 833.15 482.75 825.85 478.55 817.7 476.85 809.4 475.5 801.85 476.8 796.45 477.75 786.15 481.45 775.8 485.25 771 487.8 759.7 493.9 747.8 506.3 746.85 507.3 745.85 508.4 737.05 517.9 726.95 532.1 721.35 539.85 718.3 545.45 714.0658203125 552.93046875 712.1 559.55 711.965234375 559.9865234375 711.85 560.4 710.55 564.75 711.4 566.8 711.8 565.65 712.25 564.4 712.65 564.65 713.2 564.6 713.966796875 564.472265625 714.85 564.05 715.35859375 563.79296875 715.9 563.45 722.8 558.5 730.9 555.45 731 555.35 731.15 555.35 731.2 555.3 731.3 555.25 738.5 552.6 746.6 551.4 747.45 551.25 748.25 551.15 755.05 550.2 761.55 550.3 768.6 550.2 782.8 550.6 793.55 549.95 801.85 545.5 803.05 544.8 804.2 544.1 812 539.05 818.55 529.9 825.1 520.65 828.5 509.9 830.2 504.75 830.8 500.3 831.45 494.6 830.4 489.45 830.25 488.65 830.1 487.9 836.1 490.85 841.05 495.65 843.8103515625 498.290234375 846.9 502.2 847.700390625 503.1904296875 848.5 504.25 849.237109375 502.4685546875 849.15 500.6 849.11640625 499.4763671875 848.75 498.3 848 495.95 846.15 493.8
M 810.75 484.05
Q 810.5 483.45 810.1 483.15 809.55 482.85 809.15 483.45 808.95 483.85 809 484.9 809.5 487.9 809.3 491.15 809.05 494.95 808.05 498.6 807.55 500.2 806.3 503.2
L 803.45 510.65
Q 802.25 513.55 801.2 515.35 800.95 515.75 799.3 518.3
L 796.2 522.85
Q 795.65 523.7 794.6 525.5 793.6 527.1 792.9 528.05 791.25 530.15 788.8 532.2 786.1 534.65 779.5 539.1
L 768.6 546.3
Q 766.45 546.35 764.95 546.45 756.15 546.95 748.1 548.3 747.3 548.4 746.55 548.6 737.15 550.35 729.75 553.15 721.7908203125 556.2111328125 714.95 561 713.958984375 561.6791015625 713 562.4 713.369921875 561.412109375 713.75 560.4 718.1734375 549.519140625 726.6 537.2 734.1 526.3 741.9 517.6 743.95 515.35 746 513.35 758.35 500.65 772.35 493 788.65 483.95 804.35 482.9 807.3 482.75 810.2 482.95 816.6 483.1 822.5 484.95 822.6 486.1 823.2 487.65 823.6 488.4 824.4 489.95 825.9 493.1 826.15 497.6 826.4 501.85 825.5 506.5 823.85 515.05 818.7 523.9 811.55 536.05 802.5 541.15 797.6 544 790.1 545.1 784.95 545.9 777.45 546.15 774.1 546.15 771.3 546.35
L 781.8 539.3
Q 785.6 536.65 787.1 535.35 788.05 534.5 789.85 532.8 790.15 532.6 791.2 531.95 792.1 531.4 792.7 530.85 793.9 529.9 795.65 527.05
L 801.15 518.55
Q 803.55 514.85 804.5 512.5 805.4 510.3 805.85 509 806.65 507.05 807.45 505.95 807.95 505.4 808.15 505.05 808.65 504.55 808.8 504.05 808.9 503.5 809 502.8 809.1 501.7 809.2 501.55 809.3 500.7 809.8 499.45 810.4 498.05 810.6 497.3 810.8 496.5 810.85 495.3 810.85 493.6 810.95 493 811.4 490.75 811.5 489.55 811.7 487.7 810.75 484.05
M 982.65 345.55
Q 990.6 341 1001.35 337.1 1013.3 332.8 1028.25 329.25 1038.8 326.8 1055.7 323.65 1103 314.95 1140.1 311.7 1177.3453125 308.3955078125 1210.4 309.8 1217.8037109375 310.142578125 1225 310.7 1225.0501953125 310.69609375 1225.1 310.7 1224.8978515625 310.6283203125 1224.7 310.55 1223.354296875 310.0822265625 1221.95 309.65 1215.9091796875 307.777734375 1209.05 306.65 1204.8560546875 305.9595703125 1200.35 305.55 1189.7 304.55 1174.85 305 1151.35 305.7 1123.3 309.1 1102.8 311.6 1072.1 316.65 1046.35 320.9 1031.45 324.4 1009.2 329.6 992.1 336.85 963.8 348.8 951.45 366.85 948.1 371.75 944 380.35 938.7 391.35 937.1 394.15 933.4478515625 400.6732421875 929.25 405.2 922.7306640625 412.2953125 914.9 414.55 913.14375 415.0703125 912.35 415.8 910.79296875 414.9056640625 909.95 414.4 909.601953125 414.19296875 909.25 413.95 905.9865234375 411.889453125 903.45 408.9 900.826953125 405.8626953125 899.35 402.2 899.2193359375 401.918359375 899.1 401.6 898.25 399.45 897.6 398.8 897 398.2 896.15 398.05
L 896.1 398.05
Q 895.2330078125 397.9654296875 894.7 398.45 894.183984375 398.966015625 894.05 400.45 894.0140625 400.7267578125 894 401 893.95 401.65 893.05 404.7 892.4 406.95 892.7 408.4 892.9 409.2 893.45 410.7 893.462109375 410.736328125 893.45 410.75 893.6560546875 411.4150390625 893.75 413.2 893.9 414.9 894.55 417
L 887 414.75
Q 885.7107421875 414.3498046875 884.4 414.05 884.2607421875 414.033203125 884.1 414 883.35 413.85 880.65 413.75 877.35 413.7 875.7 413.75 872.95 413.9 870.8 414.35 870.63203125 414.389453125 870.45 414.4 867.113671875 415.2931640625 861.6 418.05 860 418.9 859.75 419.7 859.45 420.5 860.05 421.35 860.65 422.15 861.55 422.45 862.7 422.85 865.2 422.85 867.2384765625 423.0986328125 870.8 425.15
L 870.85 425.2
Q 873.4193359375 426.7212890625 875.15 427.65 876.0021484375 428.126171875 876.65 428.45
L 876.7 428.45
Q 878.167578125 429.1947265625 879.5 429.7 878.6513671875 430.10546875 877.8 430.45 876.1572265625 431.2111328125 874.65 431.9 874.0109375 432.1916015625 873.4 432.45 872.1873046875 433.0369140625 871.05 433.55 869.2078125 434.4677734375 867.65 435.25 867.113671875 434.9337890625 866.65 434.5 862.2884765625 435.54453125 857.35 436.55 845.9201171875 438.903515625 834.45 441.05 835.0529296875 441.4068359375 835.55 441.8 828.0001953125 439.738671875 822.55 439.5 817.5 439.25 811.3 440.3 807.4 440.95 800.15 442.75 791.95 444.75 787.6 446.05 780.7 448.05 775.4 450.4 774.1490234375 450.9515625 772.9 451.55 764.123828125 452.8845703125 755.35 454.1 738.95 456.4 732.65 457.45 719.95 459.7 710.35 462.75 687.5 470.15 668.75 486.2 650.05 502.25 639.2 523.75 630.5 540.95 625.75 564.6 623.5 575.6 623.3 583.85 623.0185546875 591.3087890625 624.4 597.7
L 624.45 599.2 623.4 603.35
Q 623.4697265625 603.52109375 623.5 603.65
L 624.4 605.25
Q 624.5158203125 605.508203125 624.6 605.75
L 624.65 607.1
Q 624.65 609.35 624.95 610.8 625.2 612.05 626.1 614.45
L 627.65 618.55
Q 630.05 624.75 633.1 627.35 634.3 628.45 635.3 628.25 636.15 628.1 637.2 626.5 639.945703125 621.923828125 641.9 618.45 642.0888671875 618.3046875 642.25 618.15 642.9 617.45 644.15 615.95 646.9 612.9 651 610.2 654.1 608.05 658.9 605.65 664.1724609375 602.8474609375 669.6 600.5 669.6552734375 600.8763671875 669.75 601.35 669.7775390625 601.5974609375 669.75 602 669.4384765625 602.4271484375 669.3 603.05 668.85 605.1 669.35 607.25 669.8 609.5 671.05 611.15 673 614.05 676.85 615.65 682.05 617.7 687.5 616.2 686.4 613.9 685.95 612.7 684 608.7 683.9 604.1 683.85 599.85 685.4 597.1 686 596.1 687.35 594.65 687.85 594.05 688.15 593.7 695.228515625 591.5673828125 702.55 590.05 702.55 590.2357421875 702.55 590.45
L 702.55 592.8
Q 702.6888671875 593.47109375 702.95 593.9 703.187890625 598.4375 704.1 600.55 704.95 602.8 707.35 605.6 714.05 613.1 721.35 614.05 723.25 614.35 724.15 613.5 724.7 613.1 724.95 611.6 725.25 609.95 724.9 608.25 724.75 607.35 723.7 604.5 722.95 602.25 722.95 600.85 722.95 599.4 723.75 596.95 724.6 593.65 725.9 592.4 726.5 591.75 728 590.75 728.646484375 590.1552734375 728.85 589.5 728.8759765625 589.5166015625 728.9 589.5 729.5 589.1 731.3 588.2
L 733.7 587
Q 734.5193359375 586.61953125 735.05 586.2 741.1267578125 586.05546875 747.15 586.3 746.25 589.6 747.1 593.35 747.9 596.9 750.2 600.05 753.85 605.2 761.55 609.5 763.05 610.4 763.95 610.25 765.1 610.15 765.4 609.4 765.65 608.85 765.4 607.4 764.75 604.45 765.6 598.65 766.05 595.15 767.35 593.6 767.65 593.3 768.75 592.3 769.65 591.5 770 590.9 770.45 589.95 770.1 588.9 770.05 588.85 770.05 588.8 776.8 590 783.4 591.75 785.7 592.3 788.65 593.25 788.6 593.4 788.6 593.65 787.75 597.35 790.3 601.45 791.25 602.95 792.9 604.65 793.4 605.2 795.8 607.55
L 798.85 610.35
Q 801.6 612.9 803.3 612.15 804.8 611.7 805.2 609.75 805.45 608.65 805.05 606.5
L 803.7 597.5
Q 812.55 599.85 819.15 600.55 832.75 602 848.25 598.6 853.7 597.35 859.65 595.45 859.75 596.35 861.45 596.95 864.05 597.65 869.15 599.35 873.6 600.85 876.65 602.2 879.15 603.35 883.95 606.15
L 902.9 617.05
Q 904.2314453125 617.8095703125 905.45 618.5
L 905.45 618.2
Q 908.7912109375 620.6568359375 913.05 623.65 914.3181640625 624.6201171875 915.45 625.55 922.754296875 631.5716796875 926.2 637.3 927.4 639.25 927.5 639.45 928.3 640.6 929.15 641.3 930.100390625 642.0240234375 931.2 642.15 921.7046875 647.7236328125 907.2 656.25 883.7 670.2 867.4 676.85 844.6 686.15 824.5 686.7 813.35 687.05 799.45 684.8 791 683.35 774.8 679.5 774.9 679.7 775.05 679.95 776.45 682.05 780.25 683.8 793.45 689.65 808.9 691.3 823.45 692.8 838.65 690.4 865.1 686.25 894.35 670.05 908.3 662.3 934.6 645.45 935.45 645.8 936.35 645.8 936.45 645.1 936.4 644.25 937.0328125 643.8119140625 937.7 643.35
L 937.75 643.35
Q 948.912890625 636.66953125 958.95 631.95 960.0158203125 631.44609375 961.05 630.95 973.1427734375 625.4708984375 983.6 622.85 985.74765625 622.3337890625 987.9 621.9 988.669921875 621.7517578125 989.4 621.6 1003.6732421875 618.97109375 1019.3 619.8 1035.4 620.7 1052.3 625.3 1052.85 626.35 1053.45 627.4 1055.75 631.5 1057.7 635.6 1056.85 636.1 1057.3 637.25 1057.45 637.75 1058.3 638.85 1059.45 640.25 1060.45 642.55 1061.05 643.8 1062.2 646.55 1062.3 646.8 1062.45 647.05 1066.25 658.25 1067.3 669.25 1066.7 669.6 1066.2 670.05 1066.2 670.55 1066.05 671.45 1065.7 674.1 1064.65 675.6 1064.15 676.2 1063.25 677.15 1062.3 678.2 1061.9 678.6 1060.870703125 680.1439453125 1060.2 680.75 1059.18203125 681.0046875 1058.1 681.2 1055.639453125 681.661328125 1054.65 681.95 1054.4505859375 681.8337890625 1054.3 681.7 1053.656640625 681.8703125 1053 682 1052.874609375 682.04765625 1052.75 682.05 1052.6376953125 682.099609375 1052.5 682.1 1051.67421875 682.304296875 1050.8 682.45 1046.35 683.15 1038.8 682.45 1024.5 681.1 1011.8 680.4 1009.8671875 680.287890625 1007.95 680.2 1007.748046875 680.185546875 1007.5 680.15 1006.4568359375 680.1201171875 1005.4 680.05 997.710546875 679.7064453125 990.65 679.6 983.6 679.5 976.85 679.55 981.15 678.25 987.65 676.35 988.55 676.1 989.55 675.85 995.5599609375 674.268359375 1005.75 672.15 1005.8248046875 672.1400390625 1005.85 672.1 1006.9162109375 671.9205078125 1008 671.7 1010 671.3 1011.8 671 1017.45 669.95 1020.6 669.55 1027.65 668.65 1033.2 669.35 1035.55 669.65 1041.9 671 1047.35 672.25 1050.65 672.35
L 1041.25 669.5
Q 1034.55 667.6 1031.3 667 1025.85 666.1 1018.85 666.75 1015.95 667 1011.6 667.75 1009.25 668.1 1006.55 668.6 1005.75078125 668.7376953125 1004.95 668.85 994.423046875 670.7376953125 987.3 672.6 984.2 673.35 977.7 675.15
L 960.5 679.95
Q 951.15 680.5 942.35 681.45 919.7 683.8 886.7 691 862.1 696.5 849.75 699.1 832.45 702.85 819 705.15 818.85 705.1 818.8 705.1 818 704.7 816.7 704.5 816.65 704.5 814.65 704.3 812.6 704.15 808.65 703.45 801.75 702.05 796.95 700.35 790.75 698.2 786.4 694.8 784.1 693 779.35 687.9
L 776.85 685.15
Q 775.7 683.75 775.5 683.4 774.85 682.35 774.45 680.3 774.1 680.1 774 680.85 773.85 684.5 774.3 686.2 774.85 688.25 777.25 691.4 780.3 695.7 781.95 697.4 786.3 701.95 791.85 704.4 794.3 705.4 798.1 706.6 800.15 707.3 801.95 707.75 766 712.3 737.8 708.55 729.35 707.45 718.95 705.25 712.55 703.9 700.3 700.9 700.45 701 700.6 701.15 704.95 704.7 711.05 707.15 716.05 709.2 722.95 710.95 750.05 717.8 783.35 715.45 808.85 713.7 844 705.8 863.85 701.35 903.65 691.9 938.2 684.6 964.1 683.75 965.4 683.7 966.75 683.7 967.1025390625 683.6927734375 967.45 683.65 981.709375 683.4365234375 1000.15 684.9 1000.85 684.95 1001.65 685 1005.019921875 685.232421875 1009.25 685.6 1010.4931640625 685.7259765625 1011.8 685.85 1021.8 686.7 1036.1 688.05 1043.5 688.75 1047.55 688.6 1050.4666015625 688.502734375 1053 688.05 1053.65234375 688.25 1054.5 688.25 1056.7 688.35 1060.05 687.65 1062.1638671875 687.2181640625 1063.5 686.95 1066.131640625 686.9486328125 1068.85 686.65 1071.35 686.4 1072.55 685.75 1072.7267578125 685.6466796875 1072.9 685.5 1073.1375 685.5 1073.3 685.5 1074.7 685.5 1074.85 685.45 1075.4216796875 685.32578125 1075.95 684.7 1076.472265625 684.1064453125 1076.95 683 1076.0541015625 682.725390625 1075.2 682.4 1075.5541015625 681.5087890625 1075.7 680.4 1075.85 678.25 1075.05 674.1
L 1073.55 666.95
Q 1072.9 663.8 1072.4 662.35 1072.35 662.25 1070.75 658.7 1069.9 656.5 1069.35 655.45 1066.4 646.85 1061.6 637.8 1058.85 632.55 1054.65 625.95 1054.75 626 1054.85 626 1054.6 625.7 1054.35 625.5 1049.1 617.35 1041.9 607.15 1036.8294921875 600.0388671875 1032.7 594.6 1033.05625 594.5443359375 1033.4 594.5 1032.8 593.7 1032.2 593 1029.243359375 589.3712890625 1026.3 586.1 1020.5609375 579.696875 1014.95 574.75 1004.85 565.95 994.05 560.65 985.7197265625 556.569921875 977.5 554.85 976.047265625 554.532421875 974.6 554.3 972.3 553.95 970.05 553.75 967.312109375 553.515234375 964.45 553.55 963.81484375 553.573828125 963.15 553.6 963.03125 553.59453125 962.9 553.6 958.3 553.75 953.45 554.55 946.8189453125 555.6134765625 939.7 557.85
L 939.65 557.85
Q 936.901953125 558.7568359375 934.05 559.8 932.5384765625 560.3833984375 931 561 930.55 561.15 930.15 561.35 927.3 562.5 924.4 563.8 921.0763671875 565.2869140625 914.9 568.4 910.478515625 570.6357421875 904.6 573.7 904.3984375 573.79296875 904.2 573.85 903.854296875 574.0544921875 903.5 574.2 903.431640625 574.2591796875 903.35 574.3 892.45 579.95 885.1 583.15 884.2 583 883.55 583.25 882.75 583.55 882.2 584.4 882.15 584.4 882 584.5 867.5 590.45 852.7 592.9 837.1 595.55 822.3 594.15 815.85 593.5 806.25 591.8 791.65 588.95 790.4 588.8 775.75 586.35 754.25 585.45 743.1810546875 584.90625 734.65 584.9 734.258984375 584.8 733.8 584.8 733.3970703125 584.8 732.8 584.95 731.351171875 584.9650390625 729.95 585 724.1748046875 585.153125 718.85 585.6 712.0029296875 586.225 705.9 587.35 705.46796875 587.4275390625 705 587.5 704.7716796875 587.199609375 704.3 587.15 704.4 587.3 704 587.3 703.55 587.25 703.15 587.65 703.0037109375 587.778125 702.9 587.9 688.6482421875 590.8384765625 672.1 597.5 671.9689453125 597.3267578125 671.8 597.2 671.35 596.95 670.8 597.15 670.2 597.35 670.1 597.85
L 670.1 598.3
Q 661.9609375 601.636328125 649.15 607.75 647.735546875 607.49296875 645.4 609.05 644.0986328125 609.9314453125 643.1 610.7 642.3642578125 611.074609375 641.6 611.45 639.743359375 613.998828125 638.15 616.75
L 635.95 620.3
Q 635.4 621.3 634.75 621.05 632.85 618.2 631.5 614.15 630.65 611.55 629.6 606.65
L 628.2 600.35
Q 627.6384765625 597.8357421875 627.2 595.85 626.9025390625 590.164453125 627.7 584.45
L 627.2 586.9
Q 631.6 551.55 646.6 524.15 656.7 505.6 671.4 491.55 686.85 476.85 705.3 469.05 718.05 463.7 735.3 460.7 743.8869140625 459.11328125 763.5 456.85 758.25078125 460.249609375 752.9 464.6 745.3 470.8 733.2 482.85 731.4 484.65 732.25 485.85 732.8 486.55 733.9 486.2 734.75 485.95 735.65 485.15 739.9 481.3 748.15 473.35 755.55 466.45 761.5 462.55 770.2 456.85 782.35 452.9 790.65 450.15 804.8 447.1 815.6 444.75 821.55 444.9 828.2 445.05 838.4 448.35 846.3 450.9 851.65 453.45 858.55 456.75 863.4 461 871.2 467.85 875.15 478.35 878.95 488.3 878.5 499.25 878.2 506.65 876 513.95 879.9 506.85 881.2 498.7 882.5 490.55 880.95 482.6 879.4 474.65 875.15 467.55 870.95 460.5 864.65 455.35 859.6 451.25 852.7 448.05 848.821484375 446.2166015625 843.85 444.45 858.5326171875 441.1263671875 871.5 437 872.1216796875 436.84296875 872.7 436.65 872.7744140625 436.6412109375 872.8 436.6 872.774609375 436.6228515625 872.7 436.6 872.1041015625 436.5912109375 871.55 436.5 872.144140625 436.38125 872.75 436.2 873.2705078125 436.0654296875 873.8 435.9 875.66171875 435.2896484375 878.35 434.15 878.9244140625 433.9228515625 879.5 433.65 880.7654296875 433.1435546875 882.2 432.5 882.7546875 432.241796875 883.25 432 885.319921875 430.9779296875 886.25 430.25 887.15 429.55 887.35 428.95 887.75 427.9 887 427.35 886.3 426.85 884.85 427.45
L 884.8 427.45 868.95 420.15
Q 868.2 419.85 868.2 419.45 869.41484375 418.8578125 870.65 418.4 871.9853515625 417.9140625 873.35 417.55 874.962890625 417.15859375 876.65 416.95 879.121875 416.68828125 881.6 416.9 883.430078125 417.0525390625 885.25 417.45 885.5455078125 417.5173828125 885.85 417.6 888.5666015625 418.2865234375 892.6 419.9 896.1 421.2 897.4 422.65 897.6 422.9 898.4 423.95 899.05 424.8 899.55 425.15 900.25 425.65 901.1 425.65 902.05 425.6 902.45 424.9 903.05 423.85 901.4 421.85 899.15 419.05 898.15 416.05 897.75 414.9 897.1 412.25
L 896.4 409.65
Q 895.75 407.45 895.65 406.5 895.5 404.65 896.4 403.65 896.9904296875 405.6572265625 898.25 407.6 899.1416015625 408.9982421875 900.35 410.35 901.802734375 411.99375 904.45 414.25 905.308203125 414.984765625 906.25 415.75 907.1451171875 416.5 907.9 417.05 908.7046875 417.638671875 909.35 418 910.4232421875 418.580078125 911.4 418.75 912.1572265625 418.912890625 912.85 418.85 913.02734375 418.8302734375 913.2 418.8 913.29140625 418.8609375 913.4 418.9 914.127734375 419.1703125 914.85 419.2 914.9234375 419.2880859375 914.95 419.35 915.0685546875 419.3076171875 915.15 419.25 916.0908203125 419.277734375 917.05 419 924.611328125 416.7107421875 931.3 410.4 934.297265625 407.653125 937.1 404.1 942.05 397.8 951.35 380.6 959.7 365.15 966.5 357.95 973.05 351 982.65 345.55
M 864.45 593.95
Q 864.3 594 864.2 593.95 869.25 592.1 874.65 589.8 874.9 590.3 875.45 591 878.15 593.85 880.15 593.6 882.05 593.45 883.2 591.35 883.9 590.1 884.3 587.45 886.4 587.75 890.7 591.15 894.45 594.1 897.05 593.75 899.25 593.35 901.55 591 902.1283203125 590.4169921875 902.65 589.8 905.7556640625 586.280078125 907.3 582 908.3228515625 579.1171875 908.65 575.9 908.75 575.35 908.7 574.95 908.65 574.8 908.55 574.65 908.4 574.45 908.2 574.35 911.7619140625 572.7458984375 915 571.35 915.2388671875 571.251171875 915.45 571.15 918.8392578125 569.7091796875 921.85 568.5 921.85 568.65 921.95 568.85 922.1 569.4 922.5 569.45 923.55 569.1 924.65 568.95 926.35 568.65 928.15 568.75 931 569 933.65 570.2 935.35625 571.0775390625 936.9 572.25 936.94296875 572.2755859375 936.95 572.3
L 937 572.3
Q 937 572.6646484375 936.95 573 936.9392578125 573.20390625 936.9 573.4 936.6392578125 575.894921875 935.85 578.75 935.5818359375 579.76640625 935.25 580.8 934.5822265625 582.7619140625 933.1 586.35 932.8220703125 587.0736328125 932.5 587.85 932.386328125 588.096484375 932.25 588.3 931.7673828125 589.187890625 931.2 589.35 930.6 589.5 929.6 588.8 928.01171875 587.7642578125 926.4 586.15 925.6771484375 585.4701171875 924.95 584.65 923.5 583.15 920.95 579.65 919.15 577.25 918.4 575.95 917.85 575 917.45 574.1 916.95 572.85 916.8 571.7
L 915.55 571.35
Q 915.301171875 572.1462890625 915.2 573 915.124609375 573.870703125 915.2 574.8 915.55 578.5 918.7 583.15 919.461328125 584.233984375 920.25 585.2 921.2326171875 586.478515625 922.25 587.6 925.365234375 591.0208984375 928.85 593.25 930.1 594.1 930.95 594.1 931.76015625 594.0595703125 932.45 593.45 933.1544921875 592.87265625 933.75 591.8 934.0857421875 591.18046875 934.4 590.4
L 940.1 575.2
Q 941.15 576.3 942.1 577.7
L 942.15 577.7 942.9 579.55
Q 943.7 581.45 945.1 584.05 945.9 585.45 947.55 588.4
L 950.6 594.25
Q 952 597 952.55 598.5 953.1 600.3 953.1 601.55 954.05 601.7 955 600.9 955.55 600.4 956.4 599.2 957.05 598.3 958.4 596.8 959.85 595.1 960.4 594.35
L 962.8 590.9
Q 962.88125 590.7970703125 962.95 590.65 963.4080078125 590.131640625 964.05 589.35 964.498046875 588.7806640625 965.05 588.1 966.4 586.4 967.1 585.1 968.4 582.6 968.95 577.95 969.254296875 575.17265625 969.3 572.75 969.3119140625 572.0171875 969.3 571.3
L 969.3 565.8
Q 969.3 561.85 968.7 560.2 968.4 559.55 968.3 559.2 970.15 559.25 972 559.35 975.1814453125 559.6603515625 978.25 560.25 983.1099609375 561.1587890625 987.7 562.75 999.45 566.8 1011.2 576.3 1017.4390625 581.3947265625 1024.9 589.1 1026.1806640625 590.4650390625 1027.5 591.85 1036.5453125 602.1703125 1043.4 611.75 1043.5173828125 611.8845703125 1043.6 612 1047.498046875 617.436328125 1050.7 622.65 1048.6 621.35 1046.15 620.35 1042 618.7 1035.85 617.5 1011.9072265625 612.927734375 988.1 617.95 987.7046875 618.061328125 987.3 618.15 986.316796875 618.365234375 985.3 618.6 972.362890625 621.6736328125 957.8 628.15 957.4134765625 628.3384765625 957 628.5 951.5787109375 630.94765625 945.95 633.85 942.7359375 635.5703125 936.25 639.25 935.6095703125 639.6431640625 934.9 640.05 934.7 639.65 934.5 639.25 931.75 634.25 930.45 632.4 928.75 630 926.15 627.35 924.2884765625 625.374609375 922.15 623.4 921.8810546875 623.1326171875 921.6 622.85 921.6060546875 622.99609375 921.6 623.1 920.04140625 621.7529296875 918.2 620.25 912.5 615.6 909.4 613.4 905.0443359375 610.294921875 901.05 608.35 900.4255859375 608.075 899.8 607.8 897.55 606.7810546875 896.4 607.55 894.5515625 606.48125 892.4 605.25
L 885.8 601.4
Q 880.85 598.6 878.7 597.7 873.3 595.4 864.45 593.95
M 877.45 588.85
Q 877.35 588.8 877.25 588.75 878.65 588.05 881.25 586.95 881.2 587.15 881.1 587.35 880.75 588.65 880.05 589.05 879.3 589.5 877.45 588.85
M 890.4 586.05
Q 889.1 584.95 887.5 584.05 893.6 581.25 902.9 576.75 903.169140625 576.6302734375 903.4 576.5 904.0541015625 576.241015625 904.65 575.95 905.0853515625 575.782421875 905.5 575.6 905.4 575.65 905.35 575.7 905.1701171875 576.0595703125 904.85 576.75 904.2818359375 578.1283203125 903.2 580.8 903.04453125 581.2984375 902.85 581.8 901.45 585.6 899.7 587.4 897.7 589.35 895.7 589.25 894.4 589.15 892.9 588.1 892.65 587.95 890.4 586.05
M 705.6 592.3
Q 705.55 591.2 705.25 590.85 705.156640625 590.7681640625 705.05 590.7 705.0654296875 590.4650390625 705.1 590.2 705.1595703125 589.8185546875 705.2 589.5 712.4455078125 588.0833984375 719.9 587.25 723.6 586.85 727.3 586.6 728.50703125 586.515625 729.7 586.45 728.624609375 587.21875 727.7 588.25 727.56328125 588.2673828125 727.4 588.3 726.65 588.45 725.8 589 724.4 590.05 723.55 591.75 721.35 596.3 722.15 602.1 722.6 605.8 724.25 609.4 722.8 610.95 719.55 610 713.8 608.1 709.95 603.1 706.1 598.15 705.6 592.3
M 749.45 592.45
Q 748.35 589.4 748.35 586.35 758.2 586.9 768.05 588.45 764.5 591 763.4 596.15 762.65 599.4 763.05 606.1 761.75 605.95 759.7 604.5 754.65 600.75 752.6 598.15 750.5 595.55 749.45 592.45
M 801.2 596.85
Q 801.7 596.95 802.2 597.15 801.4 599.05 801.5 601.55 801.6 603.8 802.4 607.5 797.7 603.6 794 599 791.75 596.15 791.65 594.3 791.6 594.15 791.65 594 795.75 595.2 801.2 596.85
M 685.55 594.45
Q 684 596.6 683.3 599.5 682.3 603.65 683.2 609.4 683.8 613 685.2 614.8 684.2 614.95 682.95 614.55 682.3 614.3 680.85 613.6 676.65 611.1 675 609.6 672.7697265625 607.479296875 672.15 605.05 672.2919921875 604.2734375 672.15 603.45 671.9 602.5 671.8 602.05 671.6 601.25 671.75 600.65 671.8 600.35 672.05 599.85 672.209375 599.5578125 672.3 599.35 678.83125 596.603515625 685.55 594.45
M 931.25 566.65
Q 929.6 566.15 928.05 566.1 929 565.8 929.95 565.45 932.2 564.7 934.45 564.05 934.9462890625 563.9005859375 935.45 563.75 939.3712890625 562.598828125 943.15 561.7 943.830859375 561.5501953125 944.5 561.4 944.3 561.85 944.05 562.3 943.958984375 562.4591796875 943.85 562.6 943.396875 563.53203125 943.1 564.55 942.65 565.9 942.45 567.1 942.4 567.25 942.45 567.45 942.3 567.8 942.2 568.15 942.023046875 568.7162109375 941.95 569.25 941.9146484375 569.480859375 941.9 569.7
L 941.5 570.7
Q 941.15 571.85 941.25 573.25 941.15 573.4 941 573.6 940.9 573.45 940.8 573.3 941.25 572.1 941.2 571 941.1703125 570.19921875 940.8 569.7 940.5568359375 569.3830078125 940.15 569.2 939.55 569 938.8 569.3 938.15 569.6 937.75 570.15 937.70625 570.1150390625 937.65 570.05 934.698828125 567.733984375 931.25 566.65
M 963.95 559.1
Q 965.2 559.1 966.3 559.15
L 966.3 559.2
Q 966.3 559.6 966.6 561.1 966.6 561.15 966.6 561.25 966.75 562.35 966.6 563.05 966.55 563.25 966.55 563.55 966.45 564.15 966.25 565.1 966.25 565.5 966.3 566.35 966.35 567.2 966.3 567.65 966.25 568.05 965.75 569.9 965.65 570.25 965.55 570.9 965.5125 571.1251953125 965.45 571.4 965.4125 571.837890625 965.35 572.4
L 965 575.25
Q 964.7 580 964.05 582.95 963.3021484375 586.179296875 961.8 589.1 961.56328125 589.6109375 961.25 590.1 960.79609375 590.9708984375 960.25 591.8 957.55 596 953.75 598.9 953.7 598.1 953.75 596.35 953.9 594.65 953.75 593.75 953.7 593.45 952.85 591.05
L 952 588.2
Q 951.65 587.1 950.55 585.15
L 945.85 576.25
Q 945.1 574.7 944.8 574.05 943.95 571.55 944.05 568.8 944.05 568.7568359375 944.05 568.7 944.05 568.6783203125 944.05 568.65 944.1 567.7 944.25 566.75 944.65 565.85 945.05 564.95 945.16796875 564.723046875 945.3 564.5 946.5224609375 562.28671875 948.25 560.65 955.1 559.4 961.65 559.15 962.8 559.1 963.95 559.1
M 1088.55 664.2
Q 1086.95 657.2 1083.4 651.25
L 1076.6 640.95
Q 1076.5 642.1 1077.5 644.3 1079.9 649.5 1083 659.15 1084.1 662.3 1084.55 664.15 1086.2 670.35 1085.9 676.35 1085.75 679.6 1085.15 681.55 1084.0189453125 685.21484375 1080.7 688.6 1080.5642578125 688.762109375 1080.4 688.9 1080.200390625 689.1099609375 1080 689.3 1079.3875 689.9125 1078.75 690.45 1078.610546875 690.598046875 1078.45 690.7 1077.67890625 691.397265625 1076.85 692 1073.35 694.45 1069.25 695.75 1066.45 696.65 1061.3 697.25
L 1056 698
Q 1050 698.75 1047.1 698.4 1045.5 698.2 1045.5 699.15 1056.25 700.6 1061.7 701.15 1066.7 701.7 1069.95 701.6 1075.3 701.6 1078.65 699.65 1080.8 698.5 1082.7 696.15 1084 694.5 1085.65 691.6 1088.85 685.85 1089.6 681.75 1089.8 680.65 1089.95 678.1 1090.25 671 1088.55 664.2
M 1299.5 587
Q 1301.35 588.2 1302.55 588.45 1304.65 588.8 1305.75 587.65 1307.05 586.35 1306.3 584.25 1305.95 583.05 1304.45 581.15 1284.8 556.05 1273.6 532.85
L 1264.4 513.1 1264.35 512.95
Q 1264 512.65 1263.55 512.7 1263.1 512.7 1262.8 513.05 1263.7 513.8 1263.6 516.35 1263.6 516.8373046875 1263.6 517.35 1263.755859375 519.425 1264.4 521.8 1264.95 523.65 1266.2 527.05
L 1269.75 536.6
Q 1272 542.65 1273.25 545.6 1275.3 550.55 1277.45 554.3 1279.55 558 1283.9 564.2
L 1290.5 573.6
Q 1286.6 573.3 1280.3 569.25 1279.171484375 568.5234375 1278.1 567.9 1277.581640625 566.9947265625 1277 566.1 1274.05 561.45 1270.85 560.7 1269.9 560.5 1269.05 560.9 1268.1 561.3 1268.15 562.15 1268.2 562.75 1269.15 563.6 1269.59140625 564.0193359375 1270 564.45 1269.88203125 564.5751953125 1269.85 564.8 1269.75 565.1 1270 565.35 1270.3 565.7 1271.1 565.8 1271.14140625 565.8076171875 1271.15 565.8 1272.9611328125 568.0369140625 1274.45 570.95 1276.05 574.1 1277.9 579.5 1280.05 585.95 1281.15 590.5 1282.6 596.55 1282.75 601.8 1283 610.15 1279.9 622.4 1279 626 1278.35 627.7 1275.9 634.6 1270.65 639.55 1269.45 629.65 1268.2 624.5 1266.601171875 618.0654296875 1263.85 613.3 1264.0876953125 610.8080078125 1264.05 608.4 1263.85 602.05 1261.45 598.85 1260.55 599.25 1260.5 600.45 1260.45 601.65 1261.3 602.15 1260.75 604.25 1260.6 607.8 1260.45 612.15 1260.25 613.55
L 1259.55 616.9
Q 1257.65 624.55 1256 629.75 1253.8 636.6 1251.15 642.1 1247.05 650.55 1240.85 657.75 1235.7173828125 663.8005859375 1229.55 668.55 1228.315625 669.506640625 1227.05 670.4 1227.6625 669.0087890625 1228.2 667.7 1228.312890625 667.44765625 1228.4 667.15 1230.762890625 661.52421875 1231.55 658.1 1233.25 650.8 1231.25 645.1 1231.05 645.9 1230.45 646.9
L 1230.4 646.95
Q 1230.6720703125 645.66171875 1230.85 644.35 1231.25 641.15 1231.25 637.1 1231.25 634.65 1230.3 633.65 1229.7 632.95 1228.65 633 1227.6 633.05 1227.3 633.9 1227.55 641.45 1225.3 648.35 1223.7 653.3 1220.5 658.95 1218.45 662.55 1214.3 668.8
L 1211.2 673.55
Q 1208 678.25 1207.2 679.25 1204.6 682.55 1200.55 686.35 1192.1 694.25 1182.3 700.4 1188.45 689.5 1192.6 677.5
L 1184.8 690.3
Q 1186.1615234375 687.7529296875 1187.75 683.75
L 1190.15 677.6
Q 1191.2 674.9 1191.5 673.4 1192 671 1191.35 669.15 1191.05 668.25 1190.55 668.1 1189.9 667.9 1189.45 668.65 1189.05 669.2 1188.9 670.1 1188.35 673.8 1185.5 680.95 1183.8 685.15 1182.55 687.35 1181.5603515625 689.037109375 1179.95 691 1179.1625 691.466796875 1178.75 692.2 1178.854296875 692.2 1178.95 692.2 1177.2888671875 694.1611328125 1175.1 696.35
L 1158.65 711.75
Q 1155 715.1 1153.1 716.7 1149.95 719.3 1147.2 721 1145.97734375 721.846484375 1146 722.55 1142.0673828125 724.737890625 1137.7 725.15 1139 723.7 1140.6 720.85 1142.5 717.4 1143.25 716.35 1144 715.35 1145.6 713.35 1148.25 709.7 1148.9 704.9 1149.5 704.4 1149.65 703.5 1149.85 702.65 1149.5 701.9
L 1147.25 704.6
Q 1146.04609375 706.0619140625 1145 707.3 1142.491015625 710.4740234375 1141.1 712.4 1137.25 717.6 1135.05 722.5 1134.6080078125 723.5470703125 1134.5 724.35 1134.399609375 724.4478515625 1134.3 724.55 1134.391015625 724.9025390625 1134.4 725.3 1134.4572265625 725.247265625 1134.5 725.2 1134.5462890625 725.568359375 1134.7 725.85 1135.7 727.6 1139.3 726.95
L 1141.2 726.6
Q 1143.8 726.1 1145.15 725.6 1147.15 724.85 1149.45 723 1150.75 721.95 1153.25 719.6 1155.6 717.55 1161.4 713.35 1166.75 709.45 1169.4 707 1170.936328125 705.5953125 1174.25 701.95
L 1177.9 698.55
Q 1181.7578125 694.8876953125 1183.2 692.9 1180.8162109375 696.8703125 1179.3 699.05 1176.85 702.55 1174.4 705.05 1171.95 707.6 1173.1 709 1174.15 710.3 1176.85 708.75 1187.9 702.4 1194.15 697.95 1203.3 691.45 1209.2 684.45 1212.55 680.55 1217.3 673.45 1220.96953125 668.0193359375 1223.1 664.5 1223.8779296875 663.261328125 1224.45 662.25 1225.7888671875 659.883984375 1226.85 657.6 1226.045703125 661.2759765625 1225.4 663.45 1225.2837890625 663.970703125 1225.15 664.4 1224.966796875 664.9978515625 1224.75 665.55 1223.169921875 670.35390625 1220.85 673.7 1219.35 675.9 1219.15 676.25 1218.25 677.75 1218.3 679.05 1219.85 679.35 1221.45 678.1 1222.05 677.6 1224 675.45 1225.5 673.8 1228.45 671.55
L 1237.3 664.5
Q 1240.9 661.7 1242.75 660 1245.65 657.4 1247.55 654.85 1249.2 652.6 1251.5 648.35 1257.5 637.2 1260.4 629 1261.80703125 624.9271484375 1262.65 621.05 1264.0275390625 627.6744140625 1265.2 636.35 1265.75 641 1265.45 643.05 1265.35 643.95 1265 645.8 1264.75 647.4 1264.95 648.5 1265.25 649.9 1266.35 650.85 1267.55 651.85 1268.75 651.4 1269.65 651.15 1270.75 649.65
L 1275.45 643.45
Q 1280.05 637.35 1281.75 634.05 1283.9 629.75 1285.6 622.95 1287 617.35 1287.65 612.3 1289.15 600.3 1286.4 588.3 1284.4099609375 579.7357421875 1280.5 572.1 1281.7470703125 573.4501953125 1283.3 575.2 1286.45 578.45 1291 581.6 1294 583.7 1299.5 587
M 699.9 702
Q 698.25 703.45 698.75 706.25 699.1 708.3 700.6 710.95 711.25 729.25 720.35 739.7 733 754.25 747.35 760.3 763.55 767.2 786.4 765.45 794.7 764.8 806.1 762.75 812.6 761.65 825.65 759.2 851.45 754.65 883.25 752.75 905.35 751.45 941.4 750.95 956.4 750.75 967.85 750.55 974.259375 750.4421875 979.55 750.35 989.0392578125 750.16015625 995 750 997.6 749.9 999.55 749.85 1004.2 749.7 1008.7 749.5 1012.2712890625 749.34296875 1015.75 749.15 1038.8255859375 747.9599609375 1057.6 745.7 1071.9 743.95 1081.9 741.7 1094.95 738.7 1105.15 733.95 1112.1 730.7 1118 726.5 1119.0376953125 725.744140625 1120.05 724.95
L 1120.05 724.95
Q 1120.2974609375 724.77578125 1120.5 724.6 1122.14296875 723.3107421875 1123.7 721.95 1131.0732421875 719.1421875 1137.5 713.75 1141.3583984375 710.509765625 1144.35 706.75 1149.3546875 700.5486328125 1151.95 692.95 1150.75 693.3 1149.7 694.6 1149.1 695.35 1148.1 697.15 1142.75 706.8 1133.55 713.5 1132.7447265625 714.094140625 1131.9 714.65 1131.775 714.7501953125 1131.6 714.85 1131.512890625 714.92578125 1131.4 715 1127.04140625 717.912109375 1122.3 719.8 1121.87578125 720.97578125 1121.4 722.1 1121.340234375 722.1654296875 1121.25 722.2 1120.915234375 722.442578125 1120.55 722.65 1112.569921875 727.88046875 1101.8 731.05 1090.4 734.4 1070.25 736.7 1042.7447265625 739.8408203125 1015.65 742.25 1012.58828125 742.533203125 1009.5 742.8 1001.65 743.5 993.85 744.1 993.65 744.1 993.45 744.15 987.15 744.65 980.9 745.1 979.9837890625 745.169921875 979.05 745.25 973.4828125 745.655859375 968.15 746 939.05 747.85 917.95 748.05 900.25 748.05 891.45 748.2 876.15 748.45 865.1 749.7 855.05 750.9 837.25 754.4 817.8 758.35 809.5 759.55 793.9 761.7 781.2 761.05 766 760.05 753.8 755 742.6 750.2 730.35 740 708.65 722.25 699.9 702
M 1118.4 728.1
Q 1118.2662109375 728.3900390625 1118.35 728.6 1118.841796875 728.159375 1120.3 727.3 1119.951171875 727.3796875 1119.6 727.45 1119.1 727.5 1118.85 727.7 1118.5 727.85 1118.4 728.1 Z"/>

<path fill="#141414" stroke="none" d="
M 810.1 483.15
L 810.2 482.95
Q 807.3 482.75 804.35 482.9 788.65 483.95 772.35 493 758.35 500.65 746 513.35 743.95 515.35 741.9 517.6 734.1 526.3 726.6 537.2 718.1734375 549.519140625 713.75 560.4 713.369921875 561.412109375 713 562.4 713.958984375 561.6791015625 714.95 561 721.7908203125 556.2111328125 729.75 553.15 737.15 550.35 746.55 548.6 747.3 548.4 748.1 548.3 756.15 546.95 764.95 546.45 766.45 546.35 768.6 546.3
L 779.5 539.1
Q 786.1 534.65 788.8 532.2 791.25 530.15 792.9 528.05 793.6 527.1 794.6 525.5 795.65 523.7 796.2 522.85
L 799.3 518.3
Q 800.95 515.75 801.2 515.35 802.25 513.55 803.45 510.65
L 806.3 503.2
Q 807.55 500.2 808.05 498.6 809.05 494.95 809.3 491.15 809.5 487.9 809 484.9 808.95 483.85 809.15 483.45 809.55 482.85 810.1 483.15 Z"/>

<path fill="#303030" stroke="none" d="
M 810.1 483.15
Q 810.5 483.45 810.75 484.05 811.7 487.7 811.5 489.55 811.4 490.75 810.95 493 810.85 493.6 810.85 495.3 810.8 496.5 810.6 497.3 810.4 498.05 809.8 499.45 809.3 500.7 809.2 501.55 809.1 501.7 809 502.8 808.9 503.5 808.8 504.05 808.65 504.55 808.15 505.05 807.95 505.4 807.45 505.95 806.65 507.05 805.85 509 805.4 510.3 804.5 512.5 803.55 514.85 801.15 518.55
L 795.65 527.05
Q 793.9 529.9 792.7 530.85 792.1 531.4 791.2 531.95 790.15 532.6 789.85 532.8 788.05 534.5 787.1 535.35 785.6 536.65 781.8 539.3
L 771.3 546.35
Q 774.1 546.15 777.45 546.15 784.95 545.9 790.1 545.1 797.6 544 802.5 541.15 811.55 536.05 818.7 523.9 823.85 515.05 825.5 506.5 826.4 501.85 826.15 497.6 825.9 493.1 824.4 489.95 823.6 488.4 823.2 487.65 822.6 486.1 822.5 484.95 816.6 483.1 810.2 482.95
L 810.1 483.15 Z"/>

<path fill="#FFFFFF" stroke="none" d="
M 966.3 559.15
Q 965.2 559.1 963.95 559.1 962.8 559.1 961.65 559.15 955.1 559.4 948.25 560.65 946.5224609375 562.28671875 945.3 564.5 945.16796875 564.723046875 945.05 564.95 944.65 565.85 944.25 566.75 944.1 567.7 944.05 568.65 944.05 568.6783203125 944.05 568.7 944.05 568.7568359375 944.05 568.8 943.95 571.55 944.8 574.05 945.1 574.7 945.85 576.25
L 950.55 585.15
Q 951.65 587.1 952 588.2
L 952.85 591.05
Q 953.7 593.45 953.75 593.75 953.9 594.65 953.75 596.35 953.7 598.1 953.75 598.9 957.55 596 960.25 591.8 960.79609375 590.9708984375 961.25 590.1 961.56328125 589.6109375 961.8 589.1 963.3021484375 586.179296875 964.05 582.95 964.7 580 965 575.25
L 965.35 572.4
Q 965.4125 571.837890625 965.45 571.4 965.5125 571.1251953125 965.55 570.9 965.65 570.25 965.75 569.9 966.25 568.05 966.3 567.65 966.35 567.2 966.3 566.35 966.25 565.5 966.25 565.1 966.45 564.15 966.55 563.55 966.55 563.25 966.6 563.05 966.75 562.35 966.6 561.25 966.6 561.15 966.6 561.1 966.3 559.6 966.3 559.2
L 966.3 559.15
M 683.3 599.5
Q 684 596.6 685.55 594.45 678.83125 596.603515625 672.3 599.35 672.209375 599.5578125 672.05 599.85 671.8 600.35 671.75 600.65 671.6 601.25 671.8 602.05 671.9 602.5 672.15 603.45 672.2919921875 604.2734375 672.15 605.05 672.7697265625 607.479296875 675 609.6 676.65 611.1 680.85 613.6 682.3 614.3 682.95 614.55 684.2 614.95 685.2 614.8 683.8 613 683.2 609.4 682.3 603.65 683.3 599.5
M 802.2 597.15
Q 801.7 596.95 801.2 596.85 795.75 595.2 791.65 594 791.6 594.15 791.65 594.3 791.75 596.15 794 599 797.7 603.6 802.4 607.5 801.6 603.8 801.5 601.55 801.4 599.05 802.2 597.15
M 748.35 586.35
Q 748.35 589.4 749.45 592.45 750.5 595.55 752.6 598.15 754.65 600.75 759.7 604.5 761.75 605.95 763.05 606.1 762.65 599.4 763.4 596.15 764.5 591 768.05 588.45 758.2 586.9 748.35 586.35
M 705.25 590.85
Q 705.55 591.2 705.6 592.3 706.1 598.15 709.95 603.1 713.8 608.1 719.55 610 722.8 610.95 724.25 609.4 722.6 605.8 722.15 602.1 721.35 596.3 723.55 591.75 724.4 590.05 725.8 589 726.65 588.45 727.4 588.3 727.56328125 588.2673828125 727.7 588.25 728.624609375 587.21875 729.7 586.45 728.50703125 586.515625 727.3 586.6 723.6 586.85 719.9 587.25 712.4455078125 588.0833984375 705.2 589.5 705.1595703125 589.8185546875 705.1 590.2 705.0654296875 590.4650390625 705.05 590.7 705.156640625 590.7681640625 705.25 590.85
M 887.5 584.05
Q 889.1 584.95 890.4 586.05 892.65 587.95 892.9 588.1 894.4 589.15 895.7 589.25 897.7 589.35 899.7 587.4 901.45 585.6 902.85 581.8 903.04453125 581.2984375 903.2 580.8 904.2818359375 578.1283203125 904.85 576.75 905.1701171875 576.0595703125 905.35 575.7 905.4 575.65 905.5 575.6 905.0853515625 575.782421875 904.65 575.95 904.0541015625 576.241015625 903.4 576.5 903.169140625 576.6302734375 902.9 576.75 893.6 581.25 887.5 584.05
M 877.25 588.75
Q 877.35 588.8 877.45 588.85 879.3 589.5 880.05 589.05 880.75 588.65 881.1 587.35 881.2 587.15 881.25 586.95 878.65 588.05 877.25 588.75
M 921.95 568.85
Q 921.85 568.65 921.85 568.5 918.8392578125 569.7091796875 915.45 571.15
L 915.55 571.35 916.8 571.7
Q 916.95 572.85 917.45 574.1 917.85 575 918.4 575.95 919.15 577.25 920.95 579.65 923.5 583.15 924.95 584.65 925.6771484375 585.4701171875 926.4 586.15 928.01171875 587.7642578125 929.6 588.8 930.6 589.5 931.2 589.35 931.7673828125 589.187890625 932.25 588.3 932.386328125 588.096484375 932.5 587.85 932.8220703125 587.0736328125 933.1 586.35 934.5822265625 582.7619140625 935.25 580.8 935.5818359375 579.76640625 935.85 578.75 936.6392578125 575.894921875 936.9 573.4 936.9392578125 573.20390625 936.95 573 937 572.6646484375 937 572.3
L 936.95 572.3
Q 936.94296875 572.2755859375 936.9 572.25 935.35625 571.0775390625 933.65 570.2 931 569 928.15 568.75 926.35 568.65 924.65 568.95 923.55 569.1 922.5 569.45 922.1 569.4 921.95 568.85
M 1001.35 337.1
Q 990.6 341 982.65 345.55 973.05 351 966.5 357.95 959.7 365.15 951.35 380.6 942.05 397.8 937.1 404.1 934.297265625 407.653125 931.3 410.4 924.611328125 416.7107421875 917.05 419 916.0908203125 419.277734375 915.15 419.25 915.0685546875 419.3076171875 914.95 419.35 914.9234375 419.2880859375 914.85 419.2 914.127734375 419.1703125 913.4 418.9 913.29140625 418.8609375 913.2 418.8 913.02734375 418.8302734375 912.85 418.85 912.1572265625 418.912890625 911.4 418.75 910.4232421875 418.580078125 909.35 418 908.7046875 417.638671875 907.9 417.05 907.1451171875 416.5 906.25 415.75 905.308203125 414.984765625 904.45 414.25 901.802734375 411.99375 900.35 410.35 899.1416015625 408.9982421875 898.25 407.6 896.9904296875 405.6572265625 896.4 403.65 895.5 404.65 895.65 406.5 895.75 407.45 896.4 409.65
L 897.1 412.25
Q 897.75 414.9 898.15 416.05 899.15 419.05 901.4 421.85 903.05 423.85 902.45 424.9 902.05 425.6 901.1 425.65 900.25 425.65 899.55 425.15 899.05 424.8 898.4 423.95 897.6 422.9 897.4 422.65 896.1 421.2 892.6 419.9 888.5666015625 418.2865234375 885.85 417.6 885.5455078125 417.5173828125 885.25 417.45 883.430078125 417.0525390625 881.6 416.9 879.121875 416.68828125 876.65 416.95 874.962890625 417.15859375 873.35 417.55 871.9853515625 417.9140625 870.65 418.4 869.41484375 418.8578125 868.2 419.45 868.2 419.85 868.95 420.15
L 884.8 427.45 884.85 427.45
Q 886.3 426.85 887 427.35 887.75 427.9 887.35 428.95 887.15 429.55 886.25 430.25 885.319921875 430.9779296875 883.25 432 882.7546875 432.241796875 882.2 432.5 880.7654296875 433.1435546875 879.5 433.65 878.9244140625 433.9228515625 878.35 434.15 892.1603515625 442.67734375 902.45 452.65 903.88828125 454.0380859375 905.25 455.45 908.9509765625 459.2736328125 912.15 463.3 929.1 484.7 929.1 508.5 929.1 514.0978515625 927.4 524.35 926.8236328125 527.8298828125 926.05 531.85 925.6208984375 534.0708984375 925.2 536.05 923.601953125 543.9087890625 922.25 548.5 921.6517578125 550.5810546875 921.1 552
L 921.1 553
Q 923.0708984375 551.7408203125 925.1 551 926.8076171875 550.4263671875 928.55 550.2 929.132421875 550.122265625 930.55 550.05 932.787109375 550 937.1 550 943 550 954.15 552 959.4890625 552.9431640625 963.15 553.6 963.81484375 553.573828125 964.45 553.55 967.312109375 553.515234375 970.05 553.75 972.3 553.95 974.6 554.3 976.047265625 554.532421875 977.5 554.85 985.7197265625 556.569921875 994.05 560.65 1004.85 565.95 1014.95 574.75 1020.5609375 579.696875 1026.3 586.1 1029.243359375 589.3712890625 1032.2 593 1032.8 593.7 1033.4 594.5 1033.05625 594.5443359375 1032.7 594.6 1036.8294921875 600.0388671875 1041.9 607.15 1049.1 617.35 1054.35 625.5 1054.6 625.7 1054.85 626 1054.75 626 1054.65 625.95 1058.85 632.55 1061.6 637.8 1066.4 646.85 1069.35 655.45 1069.9 656.5 1070.75 658.7 1072.35 662.25 1072.4 662.35 1072.9 663.8 1073.55 666.95
L 1075.05 674.1
Q 1075.85 678.25 1075.7 680.4 1075.5541015625 681.5087890625 1075.2 682.4 1076.0541015625 682.725390625 1076.95 683 1076.472265625 684.1064453125 1075.95 684.7 1075.4216796875 685.32578125 1074.85 685.45 1074.7 685.5 1073.3 685.5 1073.1375 685.5 1072.9 685.5 1072.7267578125 685.6466796875 1072.55 685.75 1071.35 686.4 1068.85 686.65 1066.131640625 686.9486328125 1063.5 686.95 1062.1638671875 687.2181640625 1060.05 687.65 1056.7 688.35 1054.5 688.25 1053.65234375 688.25 1053 688.05 1050.4666015625 688.502734375 1047.55 688.6 1043.5 688.75 1036.1 688.05 1021.8 686.7 1011.8 685.85 1010.4931640625 685.7259765625 1009.25 685.6 1005.019921875 685.232421875 1001.65 685 1000.85 684.95 1000.15 684.9
L 1001.5 685.4
Q 999.3 690.55 995.95 702 991.1 718.45 991.1 723.1 991.1 730.5 993.15 740.75
L 993.45 744.15
Q 993.65 744.1 993.85 744.1 1001.65 743.5 1009.5 742.8 1012.58828125 742.533203125 1015.65 742.25 1042.7447265625 739.8408203125 1070.25 736.7 1090.4 734.4 1101.8 731.05 1112.569921875 727.88046875 1120.55 722.65 1120.915234375 722.442578125 1121.25 722.2
L 1122.3 719.8
Q 1127.04140625 717.912109375 1131.4 715 1131.512890625 714.92578125 1131.6 714.85 1131.775 714.7501953125 1131.9 714.65 1132.7447265625 714.094140625 1133.55 713.5 1142.75 706.8 1148.1 697.15 1149.1 695.35 1149.7 694.6 1150.75 693.3 1151.95 692.95 1149.3546875 700.5486328125 1144.35 706.75
L 1145 707.3
Q 1146.04609375 706.0619140625 1147.25 704.6
L 1149.5 701.9
Q 1149.85 702.65 1149.65 703.5 1149.5 704.4 1148.9 704.9 1148.25 709.7 1145.6 713.35 1144 715.35 1143.25 716.35 1142.5 717.4 1140.6 720.85 1139 723.7 1137.7 725.15 1142.0673828125 724.737890625 1146 722.55 1145.97734375 721.846484375 1147.2 721 1149.95 719.3 1153.1 716.7 1155 715.1 1158.65 711.75
L 1175.1 696.35
Q 1177.2888671875 694.1611328125 1178.95 692.2 1178.854296875 692.2 1178.75 692.2 1179.1625 691.466796875 1179.95 691 1181.5603515625 689.037109375 1182.55 687.35 1183.8 685.15 1185.5 680.95 1188.35 673.8 1188.9 670.1 1189.05 669.2 1189.45 668.65 1189.9 667.9 1190.55 668.1 1191.05 668.25 1191.35 669.15 1192 671 1191.5 673.4 1191.2 674.9 1190.15 677.6
L 1187.75 683.75
Q 1186.1615234375 687.7529296875 1184.8 690.3
L 1192.6 677.5
Q 1188.45 689.5 1182.3 700.4 1192.1 694.25 1200.55 686.35 1204.6 682.55 1207.2 679.25 1208 678.25 1211.2 673.55
L 1214.3 668.8
Q 1218.45 662.55 1220.5 658.95 1223.7 653.3 1225.3 648.35 1227.55 641.45 1227.3 633.9 1227.6 633.05 1228.65 633 1229.7 632.95 1230.3 633.65 1231.25 634.65 1231.25 637.1 1231.25 641.15 1230.85 644.35 1230.6720703125 645.66171875 1230.4 646.95
L 1230.45 646.9
Q 1231.05 645.9 1231.25 645.1 1233.25 650.8 1231.55 658.1 1230.762890625 661.52421875 1228.4 667.15 1228.312890625 667.44765625 1228.2 667.7
L 1229.55 668.55
Q 1235.7173828125 663.8005859375 1240.85 657.75 1247.05 650.55 1251.15 642.1 1253.8 636.6 1256 629.75 1257.65 624.55 1259.55 616.9
L 1260.25 613.55
Q 1260.45 612.15 1260.6 607.8 1260.75 604.25 1261.3 602.15 1260.45 601.65 1260.5 600.45 1260.55 599.25 1261.45 598.85 1263.85 602.05 1264.05 608.4 1264.0876953125 610.8080078125 1263.85 613.3 1266.601171875 618.0654296875 1268.2 624.5 1269.45 629.65 1270.65 639.55 1275.9 634.6 1278.35 627.7 1279 626 1279.9 622.4 1283 610.15 1282.75 601.8 1282.6 596.55 1281.15 590.5 1280.05 585.95 1277.9 579.5 1276.05 574.1 1274.45 570.95 1272.9611328125 568.0369140625 1271.15 565.8 1271.14140625 565.8076171875 1271.1 565.8 1270.3 565.7 1270 565.35 1269.75 565.1 1269.85 564.8 1269.88203125 564.5751953125 1270 564.45 1269.59140625 564.0193359375 1269.15 563.6 1268.2 562.75 1268.15 562.15 1268.1 561.3 1269.05 560.9 1269.9 560.5 1270.85 560.7 1274.05 561.45 1277 566.1 1277.581640625 566.9947265625 1278.1 567.9 1279.171484375 568.5234375 1280.3 569.25 1286.6 573.3 1290.5 573.6
L 1283.9 564.2
Q 1279.55 558 1277.45 554.3 1275.3 550.55 1273.25 545.6 1272 542.65 1269.75 536.6
L 1266.2 527.05
Q 1264.95 523.65 1264.4 521.8 1263.755859375 519.425 1263.6 517.35 1263.6 516.8373046875 1263.6 516.35 1263.7 513.8 1262.8 513.05 1263.1 512.7 1263.55 512.7 1264 512.65 1264.35 512.95
L 1264.4 513.1
Q 1263.8 509.594921875 1263.8 507.25 1263.8 500.15 1266.8 477.5 1269.75 454.85 1269.75 446.8 1269.75 430.5 1266.3 403.25 1262.65 374.7 1259.3 368.5 1256.6 363.55 1252.2 352.5 1247 339.45 1244.65 334.5 1235.8513671875 315.802734375 1225 310.7 1217.8037109375 310.142578125 1210.4 309.8 1177.3453125 308.3955078125 1140.1 311.7 1103 314.95 1055.7 323.65 1038.8 326.8 1028.25 329.25 1013.3 332.8 1001.35 337.1
M 1083.4 651.25
Q 1086.95 657.2 1088.55 664.2 1090.25 671 1089.95 678.1 1089.8 680.65 1089.6 681.75 1088.85 685.85 1085.65 691.6 1084 694.5 1082.7 696.15 1080.8 698.5 1078.65 699.65 1075.3 701.6 1069.95 701.6 1066.7 701.7 1061.7 701.15 1056.25 700.6 1045.5 699.15 1045.5 698.2 1047.1 698.4 1050 698.75 1056 698
L 1061.3 697.25
Q 1066.45 696.65 1069.25 695.75 1073.35 694.45 1076.85 692 1077.67890625 691.397265625 1078.45 690.7 1078.610546875 690.598046875 1078.75 690.45 1079.3875 689.9125 1080 689.3 1080.200390625 689.1099609375 1080.4 688.9 1080.5642578125 688.762109375 1080.7 688.6 1084.0189453125 685.21484375 1085.15 681.55 1085.75 679.6 1085.9 676.35 1086.2 670.35 1084.55 664.15 1084.1 662.3 1083 659.15 1079.9 649.5 1077.5 644.3 1076.5 642.1 1076.6 640.95
L 1083.4 651.25
M 1050.8 500.9
Q 1050.35 501.15 1049.85 501.15
L 1047.15 500.9
Q 1046.9634765625 500.5392578125 1046.7 500.1 1048.8970703125 500.390625 1051 500.45 1051.25 500.75 1050.8 500.9 Z"/>

<path fill="#624948" stroke="none" d="
M 928.05 566.1
Q 929.6 566.15 931.25 566.65 934.698828125 567.733984375 937.65 570.05 937.70625 570.1150390625 937.75 570.15 938.15 569.6 938.8 569.3 939.55 569 940.15 569.2 940.5568359375 569.3830078125 940.8 569.7 941.1703125 570.19921875 941.2 571 941.25 572.1 940.8 573.3 940.9 573.45 941 573.6 941.15 573.4 941.25 573.25 941.15 571.85 941.5 570.7
L 941.9 569.7
Q 941.9146484375 569.480859375 941.95 569.25 942.023046875 568.7162109375 942.2 568.15 942.3 567.8 942.45 567.45 942.4 567.25 942.45 567.1 942.65 565.9 943.1 564.55 943.396875 563.53203125 943.85 562.6 943.958984375 562.4591796875 944.05 562.3 944.3 561.85 944.5 561.4 943.830859375 561.5501953125 943.15 561.7 939.3712890625 562.598828125 935.45 563.75 934.9462890625 563.9005859375 934.45 564.05 932.2 564.7 929.95 565.45 929 565.8 928.05 566.1 Z"/>

<path fill="#425B63" stroke="none" d="
M 968.3 559.2
Q 968.4 559.55 968.7 560.2 969.3 561.85 969.3 565.8
L 969.3 571.3
Q 969.3119140625 572.0171875 969.3 572.75 969.254296875 575.17265625 968.95 577.95 968.4 582.6 967.1 585.1 966.4 586.4 965.05 588.1 964.498046875 588.7806640625 964.05 589.35 963.4080078125 590.131640625 962.95 590.65 962.88125 590.7970703125 962.8 590.9
L 960.4 594.35
Q 959.85 595.1 958.4 596.8 957.05 598.3 956.4 599.2 955.55 600.4 955 600.9 954.05 601.7 953.1 601.55 953.1 600.3 952.55 598.5 952 597 950.6 594.25
L 947.55 588.4
Q 945.9 585.45 945.1 584.05 943.7 581.45 942.9 579.55
L 942.15 577.7 942.1 577.7
Q 941.15 576.3 940.1 575.2
L 934.4 590.4
Q 934.0857421875 591.18046875 933.75 591.8 935.6578125 601.56796875 943.35 613.05 950.4712890625 623.694140625 957 628.5 957.4134765625 628.3384765625 957.8 628.15 972.362890625 621.6736328125 985.3 618.6 986.316796875 618.365234375 987.3 618.15 987.7046875 618.061328125 988.1 617.95 1011.9072265625 612.927734375 1035.85 617.5 1042 618.7 1046.15 620.35 1048.6 621.35 1050.7 622.65 1047.498046875 617.436328125 1043.6 612 1043.5173828125 611.8845703125 1043.4 611.75 1036.5453125 602.1703125 1027.5 591.85 1026.1806640625 590.4650390625 1024.9 589.1 1017.4390625 581.3947265625 1011.2 576.3 999.45 566.8 987.7 562.75 983.1099609375 561.1587890625 978.25 560.25 975.1814453125 559.6603515625 972 559.35 970.15 559.25 968.3 559.2 Z"/>

<path fill="#557580" stroke="none" d="
M 864.2 593.95
Q 864.3 594 864.45 593.95 873.3 595.4 878.7 597.7 880.85 598.6 885.8 601.4
L 892.4 605.25
Q 894.5515625 606.48125 896.4 607.55 897.55 606.7810546875 899.8 607.8 900.4255859375 608.075 901.05 608.35 905.0443359375 610.294921875 909.4 613.4 912.5 615.6 918.2 620.25 920.04140625 621.7529296875 921.6 623.1 921.6060546875 622.99609375 921.6 622.85 921.8810546875 623.1326171875 922.15 623.4 924.2884765625 625.374609375 926.15 627.35 928.75 630 930.45 632.4 931.75 634.25 934.5 639.25 934.7 639.65 934.9 640.05 935.6095703125 639.6431640625 936.25 639.25 942.7359375 635.5703125 945.95 633.85 951.5787109375 630.94765625 957 628.5 950.4712890625 623.694140625 943.35 613.05 935.6578125 601.56796875 933.75 591.8 933.1544921875 592.87265625 932.45 593.45 931.76015625 594.0595703125 930.95 594.1 930.1 594.1 928.85 593.25 925.365234375 591.0208984375 922.25 587.6 921.2326171875 586.478515625 920.25 585.2 919.461328125 584.233984375 918.7 583.15 915.55 578.5 915.2 574.8 915.124609375 573.870703125 915.2 573 915.301171875 572.1462890625 915.55 571.35
L 915.45 571.15
Q 915.2388671875 571.251171875 915 571.35 911.7619140625 572.7458984375 908.2 574.35 908.4 574.45 908.55 574.65 908.65 574.8 908.7 574.95 908.75 575.35 908.65 575.9 908.3228515625 579.1171875 907.3 582 905.7556640625 586.280078125 902.65 589.8 902.1283203125 590.4169921875 901.55 591 899.25 593.35 897.05 593.75 894.45 594.1 890.7 591.15 886.4 587.75 884.3 587.45 883.9 590.1 883.2 591.35 882.05 593.45 880.15 593.6 878.15 593.85 875.45 591 874.9 590.3 874.65 589.8 869.25 592.1 864.2 593.95 Z"/>

<path fill="#77A7B5" stroke="none" d="
M 775.05 679.95
L 774.45 680.3
Q 774.85 682.35 775.5 683.4 775.7 683.75 776.85 685.15
L 779.35 687.9
Q 784.1 693 786.4 694.8 790.75 698.2 796.95 700.35 801.75 702.05 808.65 703.45 812.6 704.15 814.65 704.3 816.65 704.5 816.7 704.5 818 704.7 818.8 705.1 818.85 705.1 819 705.15 832.45 702.85 849.75 699.1 862.1 696.5 886.7 691 919.7 683.8 942.35 681.45 951.15 680.5 960.5 679.95
L 977.7 675.15
Q 984.2 673.35 987.3 672.6 994.423046875 670.7376953125 1004.95 668.85 1005.75078125 668.7376953125 1006.55 668.6 1009.25 668.1 1011.6 667.75 1015.95 667 1018.85 666.75 1025.85 666.1 1031.3 667 1034.55 667.6 1041.25 669.5
L 1050.65 672.35
Q 1047.35 672.25 1041.9 671 1035.55 669.65 1033.2 669.35 1027.65 668.65 1020.6 669.55 1017.45 669.95 1011.8 671 1010 671.3 1008 671.7 1006.9162109375 671.9205078125 1005.85 672.1 1005.8248046875 672.1400390625 1005.75 672.15 995.5599609375 674.268359375 989.55 675.85 988.55 676.1 987.65 676.35 981.15 678.25 976.85 679.55 983.6 679.5 990.65 679.6 997.710546875 679.7064453125 1005.4 680.05 1006.4568359375 680.1201171875 1007.5 680.15 1007.748046875 680.185546875 1007.95 680.2 1009.8671875 680.287890625 1011.8 680.4 1024.5 681.1 1038.8 682.45 1046.35 683.15 1050.8 682.45 1051.67421875 682.304296875 1052.5 682.1 1052.6376953125 682.099609375 1052.75 682.05 1052.874609375 682.04765625 1053 682 1053.656640625 681.8703125 1054.3 681.7 1054.4505859375 681.8337890625 1054.65 681.95 1055.639453125 681.661328125 1058.1 681.2 1059.18203125 681.0046875 1060.2 680.75 1060.870703125 680.1439453125 1061.9 678.6 1062.3 678.2 1063.25 677.15 1064.15 676.2 1064.65 675.6 1065.7 674.1 1066.05 671.45 1066.2 670.55 1066.2 670.05 1066.7 669.6 1067.3 669.25 1066.25 658.25 1062.45 647.05 1062.3 646.8 1062.2 646.55 1061.05 643.8 1060.45 642.55 1059.45 640.25 1058.3 638.85 1057.45 637.75 1057.3 637.25 1056.85 636.1 1057.7 635.6 1055.75 631.5 1053.45 627.4 1052.85 626.35 1052.3 625.3 1035.4 620.7 1019.3 619.8 1003.6732421875 618.97109375 989.4 621.6 988.669921875 621.7517578125 987.9 621.9 985.74765625 622.3337890625 983.6 622.85 973.1427734375 625.4708984375 961.05 630.95 960.0158203125 631.44609375 958.95 631.95 948.912890625 636.66953125 937.75 643.35
L 937.7 643.35
Q 937.0328125 643.8119140625 936.4 644.25 936.45 645.1 936.35 645.8 935.45 645.8 934.6 645.45 908.3 662.3 894.35 670.05 865.1 686.25 838.65 690.4 823.45 692.8 808.9 691.3 793.45 689.65 780.25 683.8 776.45 682.05 775.05 679.95 Z"/>
</g>

<g id="Layer1_0_FILL">
<path fill="#000000" stroke="none" d="
M 831.1 412
Q 830.8 410.05 827.15 409.5 799.6 405.55 772.85 412.1 764.7 414.05 759.65 416.75 754.7 419.45 750.9 423.4 769.45 414.4 790.1 411.45 810.8 408.5 831.1 412
M 821.3 419.45
Q 819.15 419.25 814.7 419.2
L 803.05 419.15
Q 800.05 419.15 798.6 419.3 796.85 419.5 793.65 420.35 790.3 421.25 788.75 421.5 785.45 421.8 783.8 422.05 782.25 422.25 779.15 423.15 765.2 427 758.05 429.75 752.15 432 748.25 434.5 743.2 437.7 740.4 441.8 738.95 444 740 445.1 750.05 435.3 763.4 431.4 765.4 430.75 765.85 429.95
L 775.7 426.6
Q 780.7 425 782.85 424.65 783.8 424.5 785.95 424.35 788 424.2 789.1 424 790.95 423.7 794.55 422.6 798.3 421.6 803.15 421.3 805.85 421.15 811.85 421.15 818.55 421.15 821.85 421.55 824.05 421.8 825.7 422.2 830.3 423.15 835.75 425.4 838.75 426.7 840.1 427 840.65 427.15 842.85 427.4 844.6 427.65 845.6 428 846.15 426.95 845.5 425.9 841.15 426.45 837.6 424.15 836.75 423.6 836.35 423.35 835.55 422.85 834.95 422.65 834.35 422.45 833.35 422.35 832 422.2 831.7 422.15 830.9 422 827.75 420.8 825 419.8 821.3 419.45 Z"/>
</g>
</defs>

<g transform="matrix( 1, 0, 0, 1, 0,0) ">
<use xlink:href="#Layer5_0_FILL"/>
</g>

<g transform="matrix( 1, 0, 0, 1, 0,0) ">
<use xlink:href="#Layer1_0_FILL"/>
</g>
</svg>
