
<svg xmlns="http://www.w3.org/2000/svg" version="1.1" xmlns:xlink="http://www.w3.org/1999/xlink" preserveAspectRatio="none" x="0px" y="0px" width="1920px" height="1080px" viewBox="0 0 1920 1080">
<defs>
<g id="Layer7_0_FILL">
<path fill="#000000" stroke="none" d="
M 1311 927.25
Q 1306.25 921.55 1301.7 915.7 1301.6 915.7 1301.5 915.8 1300.5 914.2 1300.2 913.8 1298 910.65 1292.8 904.35 1291.3 902.55 1290.05 901 1287.05 897.3 1285.4 894.9 1284.55 893.65 1282.2 889.95 1277.648046875 882.8416015625 1272.75 876.05 1269.84921875 871.971484375 1266.8 868
L 1266.75 867.95
Q 1265.65 866.45 1264.5 865.05 1263.45 863.65 1262.35 862.3 1262.05 862.55 1262.3 863.3 1263.8 867.55 1268.6 876.45
L 1272.9 884.45
Q 1277 891.95 1279.35 895.5 1281.3 898.35 1284.8 902.75 1285.65 903.8 1286.55 904.9 1291.85 911.4 1293.85 914.2 1294.95 915.8 1296.85 918.5 1296.65 918.6 1296.5 918.7 1299 922.05 1301.55 925.4 1313.6 941.05 1326.65 955.75 1339.6 970.45 1353.5 984.05 1367.55 997.75 1382.85 1010.55 1382.9 1010.6 1382.95 1010.65 1397.6 1023 1413.25 1034.15 1423.5 1041.55 1434.3 1048.4 1438.3 1050.9 1442.3 1053.35 1447.55 1056.5 1452.75 1059.6 1463.6 1066 1474.6 1072.2 1484.9 1078.05 1495.35 1083.6 1496.1 1083.95 1496.85 1084.35 1499.95 1084.55 1504.35 1084.85 1503.65 1084.45 1503 1084.05 1499.9 1082.3 1496.8 1080.6 1478.45 1070.35 1460.8 1059.4 1460.55 1059.25 1460.3 1059.1 1457.7 1057.45 1455.05 1055.8 1440.85 1046.7 1427.15 1036.8 1410.4 1024.65 1394.6 1011.5 1393.1 1010.3 1391.7 1009.1 1382.35 1001.25 1373.15 992.85 1362.75 983.45 1352.75 973.35 1330.8 951.25 1311 927.25
M 1622.8 1064.05
Q 1639.6 1073.25 1656.5 1082.25 1666.2 1087.45 1675.85 1092.5 1677.85 1092.55 1679.85 1092.65 1673.5 1088.85 1667 1085.1 1649.55 1075.05 1632.15 1065.2 1626.6 1062.1 1621.1 1058.95 1610.1 1052.7 1599.15 1046.35 1582.7 1036.8 1566.35 1026.9 1550.3 1017.2 1534.65 1006.95 1520.35 997.5 1506.55 987.5 1491.15 976.25 1476.45 964.15 1461.3 951.65 1447.4 937.9 1435.25 925.9 1423.75 913.25 1410.8 899.15 1398.55 884.2 1391.3 875.4 1384.2 866.4 1383.95 865.9 1383.6 865.2 1382.15 863.05 1380.65 860.95 1378.75 858.25 1376.65 855.6
L 1373.55 851.75
Q 1371.024609375 848.5658203125 1367.45 843.55 1364.53046875 839.4716796875 1360.9 834.15
L 1356.3 827.35
Q 1355.85 826.65 1355.45 826 1353.35 823 1351.65 820.8 1350.75 819.55 1349.9 818.55 1349.25 818.55 1348.85 819.1 1348.4 819.65 1348.4 820.35 1348.4 821.15 1348.95 822.25 1349.05 822.55 1349.2 822.85 1350.4 824.95 1352 827.55 1354.1 830.85 1356.9 835 1360.4177734375 840.14140625 1363.85 844.9 1367.4693359375 849.878125 1371 854.45 1373.35 857.55 1375.1 859.45 1376.75 861.25 1377.35 861.95 1376.95 862.2 1376.55 862.5 1376.7 862.7 1376.9 862.9 1383.4 871.25 1390.05 879.4 1401.4 893.35 1413.15 906.85 1426.35 921.9 1440.65 935.75 1452.95 947.75 1465.9 958.85 1480.25 971.2 1495.55 982.85 1510.5 994.35 1526.2 1005.15 1542.6 1016.5 1559.35 1027 1575.25 1036.95 1591.35 1046.3 1602.3 1052.6 1613.25 1058.75 1618.05 1061.4 1622.8 1064.05
M 1609.4 707.8
Q 1606.734765625 705.1427734375 1604.1 702.45 1603.543359375 701.903515625 1603 701.35 1601.3 699.6 1599.65 697.9 1599.3 697.55 1598.95 697.2 1596.85 694.9 1595.3 694.35 1594 693.9 1593.2 694.45 1591.9 695.5 1593.35 698.05 1594.2 699.55 1595.25 701.1 1596.5 702.9 1598.15 704.8 1598.35 705.1 1598.65 705.4 1599.0654296875 705.891015625 1599.55 706.4 1601.475390625 708.6072265625 1604.45 711.6 1604.715234375 711.865234375 1604.95 712.1 1605.4 712.55 1605.9 713.05 1607.55 714.7 1609.65 716.8 1616.1 723.1 1626.3 732.75 1625.95 732.9 1625.55 733.1 1626.25 733.7 1626.9 734.4 1627.05 734.5 1627.25 734.65 1643.3 749.7 1660.85 763.1 1703.8 795.85 1749.65 824.45 1765.3 834.2 1781.2 843.55 1798.7 853.9 1816.65 863.45 1831 871.15 1845.5 878.25 1858.9 884.85 1872.4 891.25 1888.1 898.6 1904.05 905.1 1909.55 907.3 1915.05 909.45 1917.5 910.4 1919.95 911.3 1919.9 909.35 1919.95 907.35 1913.15 904.3 1906.4 901.25 1905.15 900.65 1903.85 900.1 1893.95 895.55 1884 890.9 1871 884.85 1858.05 878.45 1843.85 871.45 1829.75 863.9 1813.3 855.1 1797.25 845.8 1781.1 836.4 1765.25 826.35 1727.85 802.55 1691.65 776.7 1676.7 766 1662.2 754.7 1647.2 742.95 1633.4 729.75 1632.9 729.95 1632.45 730.15 1632.35 730.1 1632.3 730.05 1623.45 721.75 1614.6 713 1614.15 712.55 1613.75 712.1 1611.566796875 709.9572265625 1609.4 707.8
M 1743.15 860.05
L 1742.9 861.25
Q 1762 868.6 1776.5 883.55 1776.7 884.4 1777 885.25 1777.8 887.6 1779.6 889.35
L 1782.15 890
Q 1781.45 886.1 1778.9 883.1 1764.15 865.9 1743.15 860.05
M 1732.45 880.1
Q 1731.25 880.5 1730.15 880.95 1743.8 889.2 1750.55 903.1 1751.35 904.7 1749.8 905.15 1735.2 908.3 1724.15 895 1731.25 910.4 1747.75 910.2 1749.15 910.2 1750.05 909.4 1759.1 901.25 1747.4 890.6
L 1764.2 896.2
Q 1764.35 895.95 1764.5 895.7 1764.6 895.5 1764.7 895.3 1764.8 895.05 1764.85 894.8 1764.9 894.45 1764.9 894.15 1764.9 893.85 1764.85 893.65 1764.75 893.35 1764.65 893.1 1764.45 892.6 1764.15 892.1 1763.75 892.2 1763.35 892.2 1750.25 892 1739.45 883.4 1738.6 882.75 1737.75 882.1 1735.5 880.25 1732.45 880.1
M 1786.8 853.35
Q 1787.3 852.65 1786.95 852.4 1773 843.15 1757 837 1749.95 834.4 1742.85 834
L 1742.6 835.15
Q 1756.1 839.25 1769.2 844.5 1777.55 847.85 1784.65 852.9
L 1777.3 855.25 1759.15 850.25 1758.75 851.2
Q 1760.9 852.1 1763.1 853 1769.05 855.35 1775.1 856.85 1782.25 858.8 1786.8 853.35
M 1504.35 1084.85
Q 1499.95 1084.55 1496.85 1084.35 1503.2 1087.7 1509.7 1090.95 1525.1 1098.75 1541.15 1105.6
L 1529.5 1099.05
Q 1516.95 1091.9 1504.35 1084.85
M 1679.85 1092.65
Q 1677.85 1092.55 1675.85 1092.5 1675.9 1092.55 1675.95 1092.55 1680.35 1094.85 1684.75 1097.15
L 1702.15 1106.2
Q 1699.5 1104.55 1696.85 1102.9 1688.55 1097.75 1680.15 1092.8 1679.95 1092.7 1679.85 1092.65
M 1919.95 911.3
Q 1921 911.7 1922.1 912.15 1938.3 918.15 1954.6 923.5 1957.95 924.6 1961.4 925.7 1950.6 921.05 1940.05 916.35 1930.95 912.3 1921.85 908.25 1920.9 907.8 1919.95 907.35 1919.9 909.35 1919.95 911.3 Z"/>

<path fill="#CCCCCC" stroke="none" d="
M 1656.5 1082.25
Q 1639.6 1073.25 1622.8 1064.05 1618.05 1061.4 1613.25 1058.75 1602.3 1052.6 1591.35 1046.3 1575.25 1036.95 1559.35 1027 1542.6 1016.5 1526.2 1005.15 1510.5 994.35 1495.55 982.85 1480.25 971.2 1465.9 958.85 1452.95 947.75 1440.65 935.75 1426.35 921.9 1413.15 906.85 1401.4 893.35 1390.05 879.4 1383.4 871.25 1376.9 862.9 1376.7 862.7 1376.55 862.5 1376.95 862.2 1377.35 861.95 1376.75 861.25 1375.1 859.45 1373.35 857.55 1371 854.45 1367.4693359375 849.878125 1363.85 844.9 1360.4177734375 840.14140625 1356.9 835 1354.1 830.85 1352 827.55 1343.55 831.3 1335.15 835.25 1291.25 857.05 1266.8 868 1269.84921875 871.971484375 1272.75 876.05 1277.648046875 882.8416015625 1282.2 889.95 1284.55 893.65 1285.4 894.9 1287.05 897.3 1290.05 901 1291.3 902.55 1292.8 904.35 1298 910.65 1300.2 913.8 1300.5 914.2 1301.5 915.8 1301.6 915.7 1301.7 915.7 1306.25 921.55 1311 927.25 1330.8 951.25 1352.75 973.35 1362.75 983.45 1373.15 992.85 1382.35 1001.25 1391.7 1009.1 1393.1 1010.3 1394.6 1011.5 1410.4 1024.65 1427.15 1036.8 1440.85 1046.7 1455.05 1055.8 1457.7 1057.45 1460.3 1059.1 1460.55 1059.25 1460.8 1059.4 1478.45 1070.35 1496.8 1080.6 1499.9 1082.3 1503 1084.05 1503.65 1084.45 1504.35 1084.85 1528.2 1086.25 1589.5 1089.05 1626.95 1090.75 1656.65 1091.85
L 1656.5 1082.25 Z"/>

<path fill="#FFFFFF" stroke="none" d="
M 1527.45 749.4
Q 1500.1609375 765.138671875 1476.2 776.9 1445.84375 791.8451171875 1420.85 800.4 1387.95 811.65 1355.65 825.9
L 1356.3 827.35 1360.9 834.15
Q 1364.53046875 839.4716796875 1367.45 843.55 1371.024609375 848.5658203125 1373.55 851.75
L 1376.65 855.6
Q 1378.75 858.25 1380.65 860.95 1382.15 863.05 1383.6 865.2 1383.95 865.9 1384.2 866.4 1391.3 875.4 1398.55 884.2 1410.8 899.15 1423.75 913.25 1435.25 925.9 1447.4 937.9 1461.3 951.65 1476.45 964.15 1491.15 976.25 1506.55 987.5 1520.35 997.5 1534.65 1006.95 1550.3 1017.2 1566.35 1026.9 1582.7 1036.8 1599.15 1046.35 1610.1 1052.7 1621.1 1058.95 1626.6 1062.1 1632.15 1065.2 1649.55 1075.05 1667 1085.1 1673.5 1088.85 1679.85 1092.65 1713.15 1093.65 1734.15 1093.65 1734.4 1093.65 1824.05 1092.9 1848.25 1092.9 1883.8 1090.3 1915.6 1087.95 1930.85 1087.7 1929.8 1072.15 1927.95 1048.95 1922.45 980.65 1920.5 942.15 1919.8 928.7 1919.95 911.3 1917.5 910.4 1915.05 909.45 1909.55 907.3 1904.05 905.1 1888.1 898.6 1872.4 891.25 1858.9 884.85 1845.5 878.25 1831 871.15 1816.65 863.45 1798.7 853.9 1781.2 843.55 1765.3 834.2 1749.65 824.45 1703.8 795.85 1660.85 763.1 1643.3 749.7 1627.25 734.65 1627.05 734.5 1626.9 734.4 1626.25 733.7 1625.55 733.1 1625.95 732.9 1626.3 732.75 1616.1 723.1 1609.65 716.8 1607.55 714.7 1605.9 713.05 1605.4 712.55 1604.95 712.1 1604.715234375 711.865234375 1604.45 711.6 1601.475390625 708.6072265625 1599.55 706.4 1599.0654296875 705.891015625 1598.65 705.4 1598.35 705.1 1598.15 704.8 1569.25 725.25 1527.45 749.4
M 1786.95 852.4
Q 1787.3 852.65 1786.8 853.35 1782.25 858.8 1775.1 856.85 1769.05 855.35 1763.1 853 1760.9 852.1 1758.75 851.2
L 1759.15 850.25 1777.3 855.25 1784.65 852.9
Q 1777.55 847.85 1769.2 844.5 1756.1 839.25 1742.6 835.15
L 1742.85 834
Q 1749.95 834.4 1757 837 1773 843.15 1786.95 852.4
M 1730.15 880.95
Q 1731.25 880.5 1732.45 880.1 1735.5 880.25 1737.75 882.1 1738.6 882.75 1739.45 883.4 1750.25 892 1763.35 892.2 1763.75 892.2 1764.15 892.1 1764.45 892.6 1764.65 893.1 1764.75 893.35 1764.85 893.65 1764.9 893.85 1764.9 894.15 1764.9 894.45 1764.85 894.8 1764.8 895.05 1764.7 895.3 1764.6 895.5 1764.5 895.7 1764.35 895.95 1764.2 896.2
L 1747.4 890.6
Q 1759.1 901.25 1750.05 909.4 1749.15 910.2 1747.75 910.2 1731.25 910.4 1724.15 895 1735.2 908.3 1749.8 905.15 1751.35 904.7 1750.55 903.1 1743.8 889.2 1730.15 880.95
M 1742.9 861.25
L 1743.15 860.05
Q 1764.15 865.9 1778.9 883.1 1781.45 886.1 1782.15 890
L 1779.6 889.35
Q 1777.8 887.6 1777 885.25 1776.7 884.4 1776.5 883.55 1762 868.6 1742.9 861.25 Z"/>
</g>

<path id="Layer7_0_1_STROKES" stroke="#000000" stroke-opacity="0.9686274509803922" stroke-width="1" stroke-linejoin="round" stroke-linecap="round" fill="none" d="
M 1919.95 907.35
Q 1919.9 906.9 1919.95 906.4 1920.1 888.5 1919.7 883.95
M 1919.95 911.3
Q 1919.8 928.7 1920.5 942.15 1922.45 980.65 1927.95 1048.95 1929.8 1072.15 1930.85 1087.7 1932.65 1087.65 1934.2 1087.65 1934.8 1087.65 1940.85 1087.3 1946.95 1086.9 1949.45 1086.9
L 1950.2 1086.9
M 1919.95 907.35
Q 1919.9 909.35 1919.95 911.3
M 1504.35 1084.85
Q 1528.2 1086.25 1589.5 1089.05 1626.95 1090.75 1656.65 1091.85
M 1679.85 1092.65
Q 1677.85 1092.55 1675.85 1092.5 1666.7 1092.2 1656.65 1091.85
M 1679.85 1092.65
Q 1713.15 1093.65 1734.15 1093.65 1734.4 1093.65 1824.05 1092.9 1848.25 1092.9 1883.8 1090.3 1915.6 1087.95 1930.85 1087.7 1932.3 1109.4 1932.25 1116
M 1490.5 1084.65
Q 1491.25 1084.65 1491.2 1083.9 1493.15 1084.1 1496.85 1084.35 1499.95 1084.55 1504.35 1084.85"/>
</defs>

<g transform="matrix( 1, 0, 0, 1, 0,0) ">
<use xlink:href="#Layer7_0_FILL"/>

<use xlink:href="#Layer7_0_1_STROKES"/>
</g>
</svg>
