
<svg xmlns="http://www.w3.org/2000/svg" version="1.1" xmlns:xlink="http://www.w3.org/1999/xlink" preserveAspectRatio="none" x="0px" y="0px" width="1920px" height="1080px" viewBox="0 0 1920 1080">
<defs>
<g id="Layer7_0_FILL">
<path fill="#000000" stroke="none" d="
M 1309 913.8
Q 1306.95 910.65 1302.05 904.35 1300.652734375 902.5513671875 1299.45 900.95 1296.6958984375 897.2892578125 1295.15 894.9 1294.4791015625 893.8515625 1292.85 891.05 1292.5466796875 890.5466796875 1292.2 889.95 1285.4876953125 878.5271484375 1277.95 868 1277.9185546875 867.9564453125 1277.85 867.9 1276.84609375 866.4705078125 1275.8 865.05 1274.78515625 863.6697265625 1273.75 862.3 1273.45 862.55 1273.65 863.3 1274.95 867.55 1279.3 876.45
L 1283.2 884.45
Q 1286.0833984375 890.2947265625 1288.05 893.75 1288.614453125 894.7166015625 1289.1 895.5 1290.8771484375 898.367578125 1294.15 902.7 1294.9349609375 903.775390625 1295.8 904.9 1300.75 911.4 1302.6 914.2 1303.653125 915.7798828125 1305.4 918.5 1305.2107421875 918.596875 1305 918.7 1307.36640625 922.06484375 1309.75 925.4 1321 941.05 1333.3 955.75 1345.5 970.45 1358.7 984.05 1372.05 997.75 1386.7 1010.55 1386.740234375 1010.5853515625 1386.75 1010.6 1400.8431640625 1022.98203125 1415.9 1034.15 1425.8048828125 1041.5330078125 1436.25 1048.35 1440.0859375 1050.901953125 1444 1053.35 1449.03359375 1056.5001953125 1454.1 1059.6 1464.6310546875 1066.021484375 1475.3 1072.2 1485.2884765625 1078.0439453125 1495.5 1083.55 1496.2064453125 1083.9587890625 1496.9 1084.35 1500.039453125 1084.563671875 1504.45 1084.8 1503.7705078125 1084.4375 1503.1 1084.05 1500.0955078125 1082.323828125 1497.1 1080.6 1479.25 1070.35 1462.15 1059.4 1461.9251953125 1059.2560546875 1461.7 1059.1 1459.14375 1057.4703125 1456.6 1055.8 1442.825390625 1046.7169921875 1429.7 1036.8 1413.55 1024.65 1398.4 1011.5 1397.012109375 1010.2998046875 1395.6 1009.05 1386.6888671875 1001.24921875 1377.9 992.85 1368 983.45 1358.5 973.35 1337.7 951.25 1319.1 927.25 1314.6615234375 921.5509765625 1310.35 915.65 1310.288671875 915.7248046875 1310.2 915.75 1309.26640625 914.2119140625 1309 913.8
M 1623.95 1064.05
Q 1640.25 1073.25 1656.7 1082.25 1666.140234375 1087.4333984375 1675.55 1092.5 1677.5638671875 1092.5650390625 1679.5 1092.6 1673.3255859375 1088.826953125 1667.05 1085.1 1650.15 1075.05 1633.25 1065.2 1627.8658203125 1062.0828125 1622.5 1058.95 1611.7990234375 1052.6828125 1601.2 1046.35 1585.25 1036.8 1569.4 1026.9 1553.8 1017.2 1538.7 1006.95 1524.9 997.5 1511.6 987.5 1496.75 976.25 1482.7 964.15 1468.15 951.65 1454.95 937.9 1443.45 925.9 1432.55 913.25 1420.35 899.15 1408.85 884.2 1402.0435546875 875.3845703125 1395.4 866.35 1395.222265625 865.8873046875 1394.85 865.2 1393.5435546875 863.04453125 1392.15 860.95 1390.34765625 858.2251953125 1388.4 855.6
L 1385.5 851.75
Q 1381.2 845.95 1373.75 834.15
L 1369.5 827.35
Q 1369.0751953125 826.658203125 1368.65 826 1366.7697265625 822.9796875 1365.2 820.75 1364.326171875 819.5322265625 1363.55 818.55 1362.9 818.55 1362.45 819.1 1362 819.65 1361.95 820.35 1361.9103515625 821.1439453125 1362.35 822.25 1362.4955078125 822.541015625 1362.65 822.85 1363.6962890625 824.9427734375 1365.15 827.5 1367.07734375 830.8544921875 1369.7 835 1376.35 845.45 1382.8 854.45 1383.0201171875 854.7603515625 1383.2 855.05 1385.1650390625 857.740234375 1386.65 859.45 1388.216015625 861.2451171875 1388.8 861.9 1388.369921875 862.2025390625 1387.95 862.45 1388.1076171875 862.691015625 1388.25 862.9 1394.34296875 871.2302734375 1400.6 879.4 1411.25 893.35 1422.3 906.85 1434.75 921.9 1448.3 935.75 1460 947.75 1472.4 958.85 1486.1 971.2 1500.8 982.85 1515.2 994.35 1530.35 1005.15 1546.15 1016.5 1562.4 1027 1577.75 1036.95 1593.4 1046.3 1603.983984375 1052.6017578125 1614.65 1058.7 1619.2884765625 1061.4080078125 1623.95 1064.05
M 1748.15 882.1
Q 1746 880.25 1742.95 880.1 1741.75 880.5 1740.6 880.95 1753.85 889.2 1759.9 903.1 1760.6 904.7 1759.05 905.15 1744.25 908.3 1733.9 895 1740.2 910.4 1756.75 910.2 1758.15 910.2 1759.05 909.4 1768.55 901.25 1757.35 890.6
L 1773.9 896.2
Q 1774.05 895.95 1774.2 895.7 1774.35 895.5 1774.45 895.3 1774.55 895.05 1774.6 894.8 1774.7 894.45 1774.7 894.15 1774.7 893.85 1774.65 893.65 1774.6 893.35 1774.5 893.1 1774.3 892.6 1774.05 892.1 1773.65 892.2 1773.25 892.2 1760.15 892 1749.8 883.4 1748.95 882.75 1748.15 882.1
M 1796.55 852.9
L 1789.1 855.25 1771.2 850.25 1770.75 851.2
Q 1772.85 852.1 1775 853 1780.8 855.35 1786.8 856.85 1793.85 858.8 1798.65 853.35 1799.2 852.65 1798.85 852.4 1785.4 843.15 1769.7 837 1762.8 834.4 1755.7 834
L 1755.4 835.15
Q 1768.7 839.25 1781.5 844.5 1789.7 847.85 1796.55 852.9
M 1789.65 889.35
L 1792.15 890
Q 1791.65 886.1 1789.25 883.1 1775.4 865.9 1754.7 860.05
L 1754.35 861.25
Q 1773.1 868.6 1786.85 883.55 1787 884.4 1787.25 885.25 1787.95 887.6 1789.65 889.35
M 1614.9 701.1
Q 1616.0732421875 702.9171875 1617.55 704.8 1617.8056640625 705.100390625 1618.05 705.4 1619.4251953125 707.102734375 1621.55 709.45 1622.6712890625 710.6849609375 1624 712.1 1624.4263671875 712.5537109375 1624.85 713 1626.48125 714.72109375 1628.45 716.75 1634.5767578125 723.0755859375 1644.3 732.75 1643.930078125 732.915625 1643.55 733.05 1644.206640625 733.7177734375 1644.85 734.35 1645.0046875 734.50625 1645.15 734.65 1660.45 749.7 1677.3 763.1 1718.6 795.85 1763 824.45 1778.15 834.2 1793.55 843.55 1810.55 853.9 1828 863.45 1841.95 871.15 1856.1 878.25 1869.15 884.85 1882.35 891.25 1897.643359375 898.58046875 1913.25 905.05 1918.63984375 907.3140625 1924.05 909.45 1926.4326171875 910.3783203125 1928.8 911.3 1928.9244140625 909.3505859375 1929.05 907.35 1922.4330078125 904.3099609375 1915.85 901.25 1914.6025390625 900.6689453125 1913.35 900.05 1903.6525390625 895.551953125 1893.95 890.9 1881.25 884.85 1868.65 878.45 1854.8 871.45 1841.1 863.9 1825.1 855.1 1809.5 845.8 1793.85 836.4 1778.5 826.35 1742.3 802.55 1707.45 776.7 1693 766 1679.1 754.7 1664.7025390625 742.937890625 1651.55 729.75 1651.0568359375 729.953125 1650.55 730.15 1650.5103515625 730.0865234375 1650.45 730 1642.034375 721.75 1633.6 712.95 1633.1919921875 712.5357421875 1632.75 712.1 1629.897265625 709.1009765625 1627 706.05 1624.8091796875 703.7015625 1622.6 701.3 1621.014453125 699.6056640625 1619.4 697.85 1619.1111328125 697.5392578125 1618.8 697.2 1616.8 694.9 1615.25 694.35 1614 693.9 1613.15 694.45 1611.8 695.5 1613.15 698.05 1613.9099609375 699.5486328125 1614.9 701.1
M 1679.5 1092.6
Q 1677.5638671875 1092.5650390625 1675.55 1092.5 1675.6046875 1092.5255859375 1675.65 1092.55 1679.918359375 1094.8533203125 1684.15 1097.1
L 1701.15 1106.2
Q 1698.55 1104.55 1696 1102.9 1687.943359375 1097.773046875 1679.75 1092.75 1679.6556640625 1092.701953125 1679.5 1092.6
M 1504.45 1084.8
Q 1500.039453125 1084.563671875 1496.9 1084.35 1503.142578125 1087.7056640625 1509.45 1090.95 1524.45 1098.75 1540.15 1105.6
L 1528.85 1099
Q 1516.65546875 1091.8890625 1504.45 1084.8
M 1929.05 907.35
Q 1928.9244140625 909.3505859375 1928.8 911.3 1929.9076171875 911.709765625 1931 912.1 1946.838671875 918.1326171875 1962.9 923.5 1966.212890625 924.587890625 1969.55 925.65 1959.019140625 921.0359375 1948.7 916.35 1939.789453125 912.2998046875 1930.9 908.2 1929.9833984375 907.79140625 1929.05 907.35 Z"/>

<path fill="#CCCCCC" stroke="none" d="
M 1656.7 1082.25
Q 1640.25 1073.25 1623.95 1064.05 1619.2884765625 1061.4080078125 1614.65 1058.7 1603.983984375 1052.6017578125 1593.4 1046.3 1577.75 1036.95 1562.4 1027 1546.15 1016.5 1530.35 1005.15 1515.2 994.35 1500.8 982.85 1486.1 971.2 1472.4 958.85 1460 947.75 1448.3 935.75 1434.75 921.9 1422.3 906.85 1411.25 893.35 1400.6 879.4 1394.34296875 871.2302734375 1388.25 862.9 1388.1076171875 862.691015625 1387.95 862.45 1388.369921875 862.2025390625 1388.8 861.9 1388.216015625 861.2451171875 1386.65 859.45 1385.1650390625 857.740234375 1383.2 855.05 1383.0201171875 854.7603515625 1382.8 854.45 1376.35 845.45 1369.7 835 1367.07734375 830.8544921875 1365.15 827.5 1356.5423828125 831.2857421875 1347.95 835.25 1302.9720703125 857.0484375 1277.95 868 1285.4876953125 878.5271484375 1292.2 889.95 1292.5466796875 890.5466796875 1292.85 891.05 1294.4791015625 893.8515625 1295.15 894.9 1296.6958984375 897.2892578125 1299.45 900.95 1300.652734375 902.5513671875 1302.05 904.35 1306.95 910.65 1309 913.8 1309.26640625 914.2119140625 1310.2 915.75 1310.288671875 915.7248046875 1310.35 915.65 1314.6615234375 921.5509765625 1319.1 927.25 1337.7 951.25 1358.5 973.35 1368 983.45 1377.9 992.85 1386.6888671875 1001.24921875 1395.6 1009.05 1397.012109375 1010.2998046875 1398.4 1011.5 1413.55 1024.65 1429.7 1036.8 1442.825390625 1046.7169921875 1456.6 1055.8 1459.14375 1057.4703125 1461.7 1059.1 1461.9251953125 1059.2560546875 1462.15 1059.4 1479.25 1070.35 1497.1 1080.6 1500.0955078125 1082.323828125 1503.1 1084.05 1503.7705078125 1084.4375 1504.45 1084.8 1528.17890625 1086.237109375 1589.35 1089.05 1626.730859375 1090.7712890625 1656.35 1091.85
L 1656.7 1082.25 Z"/>

<path fill="#FFFFFF" stroke="none" d="
M 1618.05 705.4
Q 1617.8056640625 705.100390625 1617.55 704.8 1587.636328125 725.2609375 1544.6 749.4 1480.9 785.1 1435.4 800.4 1401.93046875 811.6703125 1368.9 825.9
L 1369.5 827.35 1373.75 834.15
Q 1381.2 845.95 1385.5 851.75
L 1388.4 855.6
Q 1390.34765625 858.2251953125 1392.15 860.95 1393.5435546875 863.04453125 1394.85 865.2 1395.222265625 865.8873046875 1395.4 866.35 1402.0435546875 875.3845703125 1408.85 884.2 1420.35 899.15 1432.55 913.25 1443.45 925.9 1454.95 937.9 1468.15 951.65 1482.7 964.15 1496.75 976.25 1511.6 987.5 1524.9 997.5 1538.7 1006.95 1553.8 1017.2 1569.4 1026.9 1585.25 1036.8 1601.2 1046.35 1611.7990234375 1052.6828125 1622.5 1058.95 1627.8658203125 1062.0828125 1633.25 1065.2 1650.15 1075.05 1667.05 1085.1 1673.3255859375 1088.826953125 1679.5 1092.6 1712.8111328125 1093.65 1733.8 1093.65 1734.05 1093.65 1823.7 1092.9 1847.9 1092.9 1883.6 1090.3 1915.4970703125 1087.92890625 1930.75 1087.65 1930.5158203125 1072.167578125 1929.85 1048.95 1927.85 980.65 1927.85 942.15 1927.85 928.7080078125 1928.8 911.3 1926.4326171875 910.3783203125 1924.05 909.45 1918.63984375 907.3140625 1913.25 905.05 1897.643359375 898.58046875 1882.35 891.25 1869.15 884.85 1856.1 878.25 1841.95 871.15 1828 863.45 1810.55 853.9 1793.55 843.55 1778.15 834.2 1763 824.45 1718.6 795.85 1677.3 763.1 1660.45 749.7 1645.15 734.65 1645.0046875 734.50625 1644.85 734.35 1644.206640625 733.7177734375 1643.55 733.05 1643.930078125 732.915625 1644.3 732.75 1634.5767578125 723.0755859375 1628.45 716.75 1626.48125 714.72109375 1624.85 713 1624.4263671875 712.5537109375 1624 712.1 1622.6712890625 710.6849609375 1621.55 709.45 1619.4251953125 707.102734375 1618.05 705.4
M 1792.15 890
L 1789.65 889.35
Q 1787.95 887.6 1787.25 885.25 1787 884.4 1786.85 883.55 1773.1 868.6 1754.35 861.25
L 1754.7 860.05
Q 1775.4 865.9 1789.25 883.1 1791.65 886.1 1792.15 890
M 1789.1 855.25
L 1796.55 852.9
Q 1789.7 847.85 1781.5 844.5 1768.7 839.25 1755.4 835.15
L 1755.7 834
Q 1762.8 834.4 1769.7 837 1785.4 843.15 1798.85 852.4 1799.2 852.65 1798.65 853.35 1793.85 858.8 1786.8 856.85 1780.8 855.35 1775 853 1772.85 852.1 1770.75 851.2
L 1771.2 850.25 1789.1 855.25
M 1742.95 880.1
Q 1746 880.25 1748.15 882.1 1748.95 882.75 1749.8 883.4 1760.15 892 1773.25 892.2 1773.65 892.2 1774.05 892.1 1774.3 892.6 1774.5 893.1 1774.6 893.35 1774.65 893.65 1774.7 893.85 1774.7 894.15 1774.7 894.45 1774.6 894.8 1774.55 895.05 1774.45 895.3 1774.35 895.5 1774.2 895.7 1774.05 895.95 1773.9 896.2
L 1757.35 890.6
Q 1768.55 901.25 1759.05 909.4 1758.15 910.2 1756.75 910.2 1740.2 910.4 1733.9 895 1744.25 908.3 1759.05 905.15 1760.6 904.7 1759.9 903.1 1753.85 889.2 1740.6 880.95 1741.75 880.5 1742.95 880.1 Z"/>
</g>

<path id="Layer7_0_1_STROKES" stroke="#000000" stroke-opacity="0.9686274509803922" stroke-width="1" stroke-linejoin="round" stroke-linecap="round" fill="none" d="
M 1929.05 907.35
Q 1929.070703125 906.880078125 1929.1 906.4 1930.2 888.5 1930 883.95
M 1679.525 1092.625
Q 1712.8111328125 1093.65 1733.8 1093.65 1734.05 1093.65 1823.7 1092.9 1847.9 1092.9 1883.6 1090.3 1915.4970703125 1087.92890625 1930.775 1087.675 1930.5158203125 1072.167578125 1929.85 1048.95 1927.85 980.65 1927.85 942.15 1927.85 928.7080078125 1928.825 911.3 1928.9244140625 909.3505859375 1929.05 907.35
M 1504.45 1084.825
Q 1528.17890625 1086.237109375 1589.35 1089.05 1626.730859375 1090.7712890625 1656.35 1091.85
M 1679.525 1092.625
Q 1677.5638671875 1092.5650390625 1675.55 1092.5 1666.396875 1092.2099609375 1656.35 1091.85
M 1930.775 1087.675
Q 1932.5814453125 1087.65 1934.15 1087.65 1934.75 1087.65 1940.8 1087.3 1946.9 1086.9 1949.4 1086.9
L 1950.15 1086.9
M 1930.775 1087.675
Q 1931.15625 1109.3765625 1930.75 1116
M 1490.6 1084.65
Q 1491.35 1084.65 1491.35 1083.9 1493.235546875 1084.0869140625 1496.925 1084.35 1500.039453125 1084.563671875 1504.45 1084.825"/>
</defs>

<g transform="matrix( 1, 0, 0, 1, 0,0) ">
<use xlink:href="#Layer7_0_FILL"/>

<use xlink:href="#Layer7_0_1_STROKES"/>
</g>
</svg>
