
<svg xmlns="http://www.w3.org/2000/svg" version="1.1" xmlns:xlink="http://www.w3.org/1999/xlink" preserveAspectRatio="none" x="0px" y="0px" width="1920px" height="1080px" viewBox="0 0 1920 1080">
<defs>
<g id="Layer7_0_FILL">
<path fill="#000000" stroke="none" d="
M 1626.4 1063.6
Q 1641.85 1072.95 1657.4 1082.15 1666.4 1087.45 1675.3 1092.55 1677.3 1092.6 1679.3 1092.7 1673.45 1088.85 1667.5 1085.05 1651.55 1074.8 1635.6 1064.75 1630.5 1061.6 1625.45 1058.4 1615.35 1052.05 1605.35 1045.55 1590.3 1035.85 1575.4 1025.75 1560.7 1015.85 1546.6 1005.45 1533.7 995.8 1521.35 985.6 1507.55 974.15 1494.65 961.85 1481.3 949.1 1469.4 935.1 1459.05 922.85 1449.35 910 1438.5 895.6 1428.45 880.4 1422.45 871.4 1416.7 862.25 1416.55 861.75 1416.25 861.05 1415.15 858.85 1413.95 856.7 1412.4 853.95 1410.7 851.25
L 1408.15 847.35
Q 1406.3091796875 844.38984375 1403.8 839.9 1401.791796875 836.31875 1399.3 831.7 1398.730859375 830.5921875 1398.1 829.4
L 1394.5 822.5
Q 1394.15 821.75 1393.85 821.1 1392.15 818.05 1390.8 815.8 1390.1 814.55 1389.4 813.5 1388.75 813.5 1388.25 814.05 1387.75 814.65 1387.6 815.35 1387.5 816.15 1387.9 817.3 1387.95 817.6 1388.1 817.9 1388.95 820.05 1390.2 822.7 1391.75 826.05 1393.95 830.25 1394.7794921875 831.8134765625 1395.6 833.35 1397.7833984375 837.3697265625 1399.95 841.15 1402.58203125 845.79921875 1405.2 850.1 1407.1 853.25 1408.6 855.2 1409.95 857 1410.5 857.7 1410.05 858 1409.6 858.3 1409.75 858.5 1409.9 858.7 1415.15 867.2 1420.65 875.5 1429.95 889.7 1439.75 903.45 1450.75 918.8 1462.95 932.9 1473.55 945.1 1484.85 956.45 1497.4 969 1511 980.9 1524.3 992.6 1538.4 1003.6 1553.15 1015.15 1568.4 1025.85 1582.8 1036 1597.55 1045.5 1607.55 1051.95 1617.6 1058.2 1622 1060.9 1626.4 1063.6
M 1808.75 885.65
L 1811.2 886.3
Q 1811.05 882.3 1808.95 879.25 1796.75 861.75 1776.6 855.8
L 1776.1 857
Q 1794.15 864.5 1806.5 879.7 1806.55 880.6 1806.75 881.45 1807.2 883.85 1808.75 885.65
M 1793.35 890.5
Q 1793.35 890.2 1793.35 890 1793.3 889.7 1793.25 889.45 1793.1 888.95 1792.9 888.45 1792.45 888.55 1792.05 888.55 1779 888.35 1769.45 879.55 1768.65 878.9 1767.95 878.25 1765.95 876.35 1762.9 876.2 1761.7 876.6 1760.5 877.1 1772.95 885.5 1777.7 899.65 1778.25 901.25 1776.65 901.75 1761.55 904.95 1752.45 891.4 1757.3 907.1 1773.85 906.85 1775.25 906.85 1776.25 906.05 1786.5 897.75 1776.3 886.9
L 1792.35 892.6
Q 1792.5 892.35 1792.7 892.1 1792.85 891.9 1793 891.7 1793.1 891.45 1793.15 891.2 1793.3 890.85 1793.35 890.5
M 1809 852.55
Q 1815.85 854.5 1821.15 848.95 1821.8 848.25 1821.45 848 1808.9 838.55 1793.8 832.3 1787.15 829.65 1780.05 829.25
L 1779.65 830.4
Q 1792.55 834.6 1804.85 839.95 1812.75 843.35 1819.1 848.5
L 1811.45 850.9 1794 845.8 1793.5 846.75
Q 1795.5 847.7 1797.55 848.6 1803.15 851 1809 852.55
M 1656.8 690.6
Q 1656.45 690.25 1656.2 689.9 1654.4 687.55 1652.9 687 1651.7 686.55 1650.8 687.1 1649.35 688.15 1650.45 690.75 1651.05 692.3 1651.9 693.85 1652.9 695.7 1654.25 697.65 1654.45 697.95 1654.65 698.25 1656.5 700.9 1660 705.1 1660.4 705.55 1660.8 706.05 1662.25 707.75 1664.05 709.85 1668.1392578125 714.6455078125 1674 721.3 1676.05546875 723.5861328125 1678.3 726.1 1677.95 726.25 1677.55 726.45 1678.1 727.1 1678.7 727.8 1678.85 727.9 1679 728.05 1692.85 743.4 1708.4 757.05 1746.6 790.4 1788.25 819.5 1802.5 829.45 1817 839 1833 849.5 1849.55 859.25 1862.8 867.1 1876.25 874.35 1888.65 881.05 1901.25 887.55 1915.85 895.05 1930.9 901.7 1936.05 903.9 1941.25 906.1 1943.55 907.1 1945.85 908 1946.1 906 1946.45 903.95 1940.1 900.85 1933.8 897.75 1932.6 897.15 1931.4 896.6 1922.15 891.95 1912.9 887.2 1900.75 881.05 1888.8 874.55 1875.6 867.4 1862.6 859.7 1847.45 850.75 1832.75 841.25 1818 831.7 1803.6 821.45 1769.65 797.2 1737.25 770.9 1723.85 760 1711 748.45 1697.75 736.5 1685.85 723.05 1685.35 723.25 1684.85 723.45 1684.75 723.4 1684.7 723.35 1682.075390625 720.4318359375 1679.45 717.45 1674.475390625 711.8263671875 1669.5 706 1669.15 705.55 1668.8 705.1 1664.2 699.7 1659.6 694.15 1658.15 692.35 1656.8 690.6
M 1299.05 863.85
Q 1298.1 862.3 1297.2 860.9 1296.8408203125 860.2875 1296.45 859.7 1295.9486328125 858.8796875 1295.4 858.1 1295.1 858.35 1295.2 859.1 1295.3181640625 859.670703125 1295.45 860.3 1296.5591796875 864.6373046875 1299.6 872.5
L 1302.75 880.65
Q 1302.9580078125 881.1802734375 1303.15 881.7 1305.8783203125 888.549609375 1307.6 891.9 1309.15 894.8 1311.95 899.3 1312.65 900.35 1313.4 901.45 1317.75 908.1 1319.35 910.95 1320.2 912.6 1321.7 915.35 1321.5 915.45 1321.35 915.55 1323.35 918.95 1325.4 922.35 1335.15 938.3 1346.05 953.25 1356.85 968.25 1368.75 982.1 1380.8 996.05 1394.25 1009.1 1394.3 1009.15 1394.35 1009.2 1407.2 1021.8 1421.2 1033.15 1430.4 1040.65 1440.2 1047.65 1443.8 1050.2 1447.45 1052.7 1452.2 1055.9 1457 1059.05 1466.9 1065.6 1477 1071.9 1486.4 1077.85 1496.1 1083.5 1496.75 1083.85 1497.45 1084.25 1500.55 1084.45 1504.9 1084.8 1504.25 1084.35 1503.65 1083.95 1500.8 1082.2 1498 1080.45 1481.1 1070 1465.05 1058.85 1464.85 1058.7 1464.65 1058.55 1462.25 1056.85 1459.85 1055.2 1446.95 1045.9 1434.75 1035.85 1419.75 1023.45 1405.85 1010.05 1404.55 1008.85 1403.35 1007.6 1395.15 999.6 1387.15 991.05 1378.15 981.5 1369.6 971.2 1350.9 948.7 1334.6 924.25 1330.7 918.45 1327 912.45 1326.9 912.45 1326.75 912.6 1326 910.95 1325.75 910.55 1324 907.35 1319.7 900.9 1318.5 899.1 1317.5 897.5 1315.05 893.75 1313.7 891.3 1313.05 890 1311.25 886.25 1309.444921875 882.5439453125 1307.55 878.9 1303.5232421875 871.2154296875 1299.1 863.9
L 1299.05 863.85
M 1947.9 908.85
Q 1963.2 914.95 1978.75 920.4 1981.95 921.55 1985.25 922.65 1975.05 917.9 1965.2 913.15 1956.7 909 1948.25 904.9 1947.35 904.45 1946.45 903.95 1946.1 906 1945.85 908 1946.85 908.4 1947.9 908.85
M 1504.9 1084.8
Q 1500.55 1084.45 1497.45 1084.25 1503.35 1087.7 1509.35 1091 1523.6 1098.95 1538.65 1105.9
L 1527.95 1099.25
Q 1516.45 1091.95 1504.9 1084.8
M 1699.6 1106.55
Q 1697.15 1104.85 1694.75 1103.15 1687.2 1097.9 1679.5 1092.9 1679.4 1092.75 1679.3 1092.7 1677.3 1092.6 1675.3 1092.55 1675.35 1092.6 1675.4 1092.6 1679.4 1094.95 1683.5 1097.3
L 1699.6 1106.55 Z"/>

<path fill="#CCCCCC" stroke="none" d="
M 1657.4 1082.15
Q 1641.85 1072.95 1626.4 1063.6 1622 1060.9 1617.6 1058.2 1607.55 1051.95 1597.55 1045.5 1582.8 1036 1568.4 1025.85 1553.15 1015.15 1538.4 1003.6 1524.3 992.6 1511 980.9 1497.4 969 1484.85 956.45 1473.55 945.1 1462.95 932.9 1450.75 918.8 1439.75 903.45 1429.95 889.7 1420.65 875.5 1415.15 867.2 1409.9 858.7 1409.75 858.5 1409.6 858.3 1410.05 858 1410.5 857.7 1409.95 857 1408.6 855.2 1407.1 853.25 1405.2 850.1 1402.58203125 845.79921875 1399.95 841.15 1397.7833984375 837.3697265625 1395.6 833.35 1394.7794921875 831.8134765625 1393.95 830.25 1391.75 826.05 1390.2 822.7 1381.15 826.5 1372.2 830.5 1356.4693359375 837.93125 1343.1 844.1 1316.41640625 856.4740234375 1299.1 863.9 1303.5232421875 871.2154296875 1307.55 878.9 1309.444921875 882.5439453125 1311.25 886.25 1313.05 890 1313.7 891.3 1315.05 893.75 1317.5 897.5 1318.5 899.1 1319.7 900.9 1324 907.35 1325.75 910.55 1326 910.95 1326.75 912.6 1326.9 912.45 1327 912.45 1330.7 918.45 1334.6 924.25 1350.9 948.7 1369.6 971.2 1378.15 981.5 1387.15 991.05 1395.15 999.6 1403.35 1007.6 1404.55 1008.85 1405.85 1010.05 1419.75 1023.45 1434.75 1035.85 1446.95 1045.9 1459.85 1055.2 1462.25 1056.85 1464.65 1058.55 1464.85 1058.7 1465.05 1058.85 1481.1 1070 1498 1080.45 1500.8 1082.2 1503.65 1083.95 1504.25 1084.35 1504.9 1084.8 1528.55 1086.2 1589.4 1089.05 1626.65 1090.8 1656.15 1091.9
L 1657.4 1082.15 Z"/>

<path fill="#FFFFFF" stroke="none" d="
M 1664.05 709.85
Q 1662.25 707.75 1660.8 706.05 1660.4 705.55 1660 705.1 1656.5 700.9 1654.65 698.25 1654.45 697.95 1654.25 697.65 1622.35 718.45 1577 743.05 1509.9 779.45 1462.95 795 1455.8564453125 797.364453125 1448.75 799.85 1421.376953125 809.4814453125 1394.05 821
L 1394.5 822.5 1398.1 829.4
Q 1398.730859375 830.5921875 1399.3 831.7 1401.791796875 836.31875 1403.8 839.9 1406.3091796875 844.38984375 1408.15 847.35
L 1410.7 851.25
Q 1412.4 853.95 1413.95 856.7 1415.15 858.85 1416.25 861.05 1416.55 861.75 1416.7 862.25 1422.45 871.4 1428.45 880.4 1438.5 895.6 1449.35 910 1459.05 922.85 1469.4 935.1 1481.3 949.1 1494.65 961.85 1507.55 974.15 1521.35 985.6 1533.7 995.8 1546.6 1005.45 1560.7 1015.85 1575.4 1025.75 1590.3 1035.85 1605.35 1045.55 1615.35 1052.05 1625.45 1058.4 1630.5 1061.6 1635.6 1064.75 1651.55 1074.8 1667.5 1085.05 1673.45 1088.85 1679.3 1092.7 1712.45 1093.75 1733.45 1093.75 1733.7 1093.75 1823.4 1093 1847.6 1093 1883.55 1090.35 1915.7 1087.95 1931 1087.7 1932.2 1071.85 1933.75 1048.2 1938.25 978.65 1941.9 939.4 1943.2 925.7 1945.85 908 1943.55 907.1 1941.25 906.1 1936.05 903.9 1930.9 901.7 1915.85 895.05 1901.25 887.55 1888.65 881.05 1876.25 874.35 1862.8 867.1 1849.55 859.25 1833 849.5 1817 839 1802.5 829.45 1788.25 819.5 1746.6 790.4 1708.4 757.05 1692.85 743.4 1679 728.05 1678.85 727.9 1678.7 727.8 1678.1 727.1 1677.55 726.45 1677.95 726.25 1678.3 726.1 1676.05546875 723.5861328125 1674 721.3 1668.1392578125 714.6455078125 1664.05 709.85
M 1821.15 848.95
Q 1815.85 854.5 1809 852.55 1803.15 851 1797.55 848.6 1795.5 847.7 1793.5 846.75
L 1794 845.8 1811.45 850.9 1819.1 848.5
Q 1812.75 843.35 1804.85 839.95 1792.55 834.6 1779.65 830.4
L 1780.05 829.25
Q 1787.15 829.65 1793.8 832.3 1808.9 838.55 1821.45 848 1821.8 848.25 1821.15 848.95
M 1793.35 890
Q 1793.35 890.2 1793.35 890.5 1793.3 890.85 1793.15 891.2 1793.1 891.45 1793 891.7 1792.85 891.9 1792.7 892.1 1792.5 892.35 1792.35 892.6
L 1776.3 886.9
Q 1786.5 897.75 1776.25 906.05 1775.25 906.85 1773.85 906.85 1757.3 907.1 1752.45 891.4 1761.55 904.95 1776.65 901.75 1778.25 901.25 1777.7 899.65 1772.95 885.5 1760.5 877.1 1761.7 876.6 1762.9 876.2 1765.95 876.35 1767.95 878.25 1768.65 878.9 1769.45 879.55 1779 888.35 1792.05 888.55 1792.45 888.55 1792.9 888.45 1793.1 888.95 1793.25 889.45 1793.3 889.7 1793.35 890
M 1811.2 886.3
L 1808.75 885.65
Q 1807.2 883.85 1806.75 881.45 1806.55 880.6 1806.5 879.7 1794.15 864.5 1776.1 857
L 1776.6 855.8
Q 1796.75 861.75 1808.95 879.25 1811.05 882.3 1811.2 886.3 Z"/>
</g>

<path id="Layer7_0_1_STROKES" stroke="#000000" stroke-opacity="0.9686274509803922" stroke-width="1" stroke-linejoin="round" stroke-linecap="round" fill="none" d="
M 1946.45 903.95
Q 1946.45 903.5 1946.55 903 1949.35 884.75 1949.6 880.15
M 1679.3 1092.7
Q 1712.45 1093.75 1733.45 1093.75 1733.7 1093.75 1823.4 1093 1847.6 1093 1883.55 1090.35 1915.7 1087.95 1931 1087.7 1932.2 1071.85 1933.75 1048.2 1938.25 978.65 1941.9 939.4 1943.2 925.7 1945.85 908 1946.1 906 1946.45 903.95
M 1504.9 1084.8
Q 1528.55 1086.2 1589.4 1089.05 1626.65 1090.8 1656.15 1091.9
M 1679.3 1092.7
Q 1677.3 1092.6 1675.3 1092.55 1666.15 1092.25 1656.15 1091.9
M 1931 1087.7
Q 1932.8 1087.65 1934.35 1087.65 1934.95 1087.65 1941.05 1087.25 1947.2 1086.85 1949.7 1086.85
L 1950.45 1086.85
M 1931 1087.7
Q 1929.3 1109.8 1928.25 1116.5
M 1491.1 1084.55
Q 1491.85 1084.55 1491.9 1083.8 1493.8 1084 1497.45 1084.25 1500.55 1084.45 1504.9 1084.8"/>
</defs>

<g transform="matrix( 1, 0, 0, 1, 0,0) ">
<use xlink:href="#Layer7_0_FILL"/>

<use xlink:href="#Layer7_0_1_STROKES"/>
</g>
</svg>
