<?xml version="1.0" encoding="UTF-8" standalone="no"?>
<!-- Created with Inkscape (http://www.inkscape.org/) -->

<svg
   width="262.70343mm"
   height="213.92665mm"
   viewBox="0 0 262.70343 213.92665"
   version="1.1"
   id="svg1"
   xml:space="preserve"
   xmlns:inkscape="http://www.inkscape.org/namespaces/inkscape"
   xmlns:sodipodi="http://sodipodi.sourceforge.net/DTD/sodipodi-0.dtd"
   xmlns:xlink="http://www.w3.org/1999/xlink"
   xmlns="http://www.w3.org/2000/svg"
   xmlns:svg="http://www.w3.org/2000/svg"><sodipodi:namedview
     id="namedview1"
     pagecolor="#ffffff"
     bordercolor="#666666"
     borderopacity="1.0"
     inkscape:showpageshadow="2"
     inkscape:pageopacity="0.0"
     inkscape:pagecheckerboard="0"
     inkscape:deskcolor="#d1d1d1"
     inkscape:document-units="mm" /><defs
     id="defs1"><g
       id="Layer7_0_FILL"><path
         fill="#000000"
         stroke="none"
         d="m 1309,913.8 q -2.05,-3.15 -6.95,-9.45 -1.3973,-1.79863 -2.6,-3.4 -2.7541,-3.66074 -4.3,-6.05 -0.6709,-1.04844 -2.3,-3.85 -0.3033,-0.50332 -0.65,-1.1 -6.7123,-11.42285 -14.25,-21.95 -0.031,-0.0435 -0.1,-0.1 -1.0039,-1.42949 -2.05,-2.85 -1.0148,-1.38027 -2.05,-2.75 -0.3,0.25 -0.1,1 1.3,4.25 5.65,13.15 l 3.9,8 q 2.8834,5.84473 4.85,9.3 0.5645,0.9666 1.05,1.75 1.7771,2.86758 5.05,7.2 0.785,1.07539 1.65,2.2 4.95,6.5 6.8,9.3 1.0531,1.57988 2.8,4.3 -0.1893,0.0969 -0.4,0.2 2.3664,3.36484 4.75,6.7 11.25,15.65 23.55,30.35 12.2,14.7 25.4,28.3 13.35,13.7 28,26.5 0.04,0.035 0.05,0.05 14.0932,12.382 29.15,23.55 9.9049,7.383 20.35,14.2 3.8359,2.552 7.75,5 5.0336,3.1502 10.1,6.25 10.5311,6.4215 21.2,12.6 9.9885,5.8439 20.2,11.35 0.7064,0.4088 1.4,0.8 3.1395,0.2137 7.55,0.45 -0.6795,-0.3625 -1.35,-0.75 -3.0045,-1.7262 -6,-3.45 -17.85,-10.25 -34.95,-21.2 -0.2248,-0.1439 -0.45,-0.3 -2.5562,-1.6297 -5.1,-3.3 -13.7746,-9.083 -26.9,-19 -16.15,-12.15 -31.3,-25.3 -1.3879,-1.2002 -2.8,-2.45 -8.9111,-7.8008 -17.7,-16.2 -9.9,-9.4 -19.4,-19.5 -20.8,-22.1 -39.4,-46.1 -4.4385,-5.69902 -8.75,-11.6 -0.061,0.0748 -0.15,0.1 -0.9336,-1.53809 -1.2,-1.95 m 314.95,150.25 q 16.3,9.2 32.75,18.2 9.4402,5.1834 18.85,10.25 2.0139,0.065 3.95,0.1 -6.1744,-3.773 -12.45,-7.5 -16.9,-10.05 -33.8,-19.9 -5.3842,-3.1172 -10.75,-6.25 -10.701,-6.2672 -21.3,-12.6 -15.95,-9.55 -31.8,-19.45 -15.6,-9.7 -30.7,-19.95 -13.8,-9.45 -27.1,-19.45 -14.85,-11.25 -28.9,-23.35 -14.55,-12.5 -27.75,-26.25 -11.5,-12 -22.4,-24.65 -12.2,-14.1 -23.7,-29.05 -6.8064,-8.81543 -13.45,-17.85 -0.1777,-0.4627 -0.55,-1.15 -1.3064,-2.15547 -2.7,-4.25 -1.8023,-2.7248 -3.75,-5.35 l -2.9,-3.85 q -4.3,-5.8 -11.75,-17.6 l -4.25,-6.8 q -0.4248,-0.6918 -0.85,-1.35 -1.8803,-3.02031 -3.45,-5.25 -0.8738,-1.21777 -1.65,-2.2 -0.65,0 -1.1,0.55 -0.45,0.55 -0.5,1.25 -0.04,0.79395 0.4,1.9 0.1455,0.29102 0.3,0.6 1.0463,2.09277 2.5,4.65 1.9273,3.35449 4.55,7.5 6.65,10.45 13.1,19.45 0.2201,0.31035 0.4,0.6 1.965,2.69023 3.45,4.4 1.566,1.79512 2.15,2.45 -0.4301,0.30254 -0.85,0.55 0.1576,0.24102 0.3,0.45 6.093,8.33027 12.35,16.5 10.65,13.95 21.7,27.45 12.45,15.05 26,28.9 11.7,12 24.1,23.1 13.7,12.35 28.4,24 14.4,11.5 29.55,22.3 15.8,11.35 32.05,21.85 15.35,9.95 31,19.3 10.584,6.3018 21.25,12.4 4.6385,2.708 9.3,5.35 m 124.2,-181.95 q -2.15,-1.85 -5.2,-2 -1.2,0.4 -2.35,0.85 13.25,8.25 19.3,22.15 0.7,1.6 -0.85,2.05 -14.8,3.15 -25.15,-10.15 6.3,15.4 22.85,15.2 1.4,0 2.3,-0.8 9.5,-8.15 -1.7,-18.8 l 16.55,5.6 q 0.15,-0.25 0.3,-0.5 0.15,-0.2 0.25,-0.4 0.1,-0.25 0.15,-0.5 0.1,-0.35 0.1,-0.65 0,-0.3 -0.05,-0.5 -0.05,-0.3 -0.15,-0.55 -0.2,-0.5 -0.45,-1 -0.4,0.1 -0.8,0.1 -13.1,-0.2 -23.45,-8.8 -0.85,-0.65 -1.65,-1.3 m 48.4,-29.2 -7.45,2.35 -17.9,-5 -0.45,0.95 q 2.1,0.9 4.25,1.8 5.8,2.35 11.8,3.85 7.05,1.95 11.85,-3.5 0.55,-0.7 0.2,-0.95 -13.45,-9.25 -29.15,-15.4 -6.9,-2.6 -14,-3 l -0.3,1.15 q 13.3,4.1 26.1,9.35 8.2,3.35 15.05,8.4 m -6.9,36.45 2.5,0.65 q -0.5,-3.9 -2.9,-6.9 -13.85,-17.2 -34.55,-23.05 l -0.35,1.2 q 18.75,7.35 32.5,22.3 0.15,0.85 0.4,1.7 0.7,2.35 2.4,4.1 M 1614.9,701.1 q 1.1732,1.81719 2.65,3.7 0.2557,0.30039 0.5,0.6 1.3752,1.70273 3.5,4.05 1.1213,1.23496 2.45,2.65 0.4264,0.45371 0.85,0.9 1.6313,1.72109 3.6,3.75 6.1268,6.32559 15.85,16 -0.3699,0.16562 -0.75,0.3 0.6566,0.66777 1.3,1.3 0.1547,0.15625 0.3,0.3 15.3,15.05 32.15,28.45 41.3,32.75 85.7,61.35 15.15,9.75 30.55,19.1 17,10.35 34.45,19.9 13.95,7.7 28.1,14.8 13.05,6.6 26.25,13 15.2934,7.33047 30.9,13.8 5.3898,2.26406 10.8,4.4 2.3826,0.92832 4.75,1.85 0.1244,-1.94941 0.25,-3.95 -6.617,-3.04004 -13.2,-6.1 -1.2475,-0.58105 -2.5,-1.2 -9.6975,-4.49805 -19.4,-9.15 -12.7,-6.05 -25.3,-12.45 -13.85,-7 -27.55,-14.55 -16,-8.8 -31.6,-18.1 -15.65,-9.4 -31,-19.45 -36.2,-23.8 -71.05,-49.65 -14.45,-10.7 -28.35,-22 -14.3975,-11.76211 -27.55,-24.95 -0.4932,0.20312 -1,0.4 -0.04,-0.0635 -0.1,-0.15 -8.4156,-8.25 -16.85,-17.05 -0.408,-0.41426 -0.85,-0.85 -2.8527,-2.99902 -5.75,-6.05 -2.1908,-2.34844 -4.4,-4.75 -1.5855,-1.69434 -3.2,-3.45 -0.2889,-0.31074 -0.6,-0.65 -2,-2.3 -3.55,-2.85 -1.25,-0.45 -2.1,0.1 -1.35,1.05 0,3.6 0.76,1.49863 1.75,3.05 m 64.6,391.5 q -1.9361,-0.035 -3.95,-0.1 0.055,0.026 0.1,0.05 4.2684,2.3033 8.5,4.55 l 17,9.1 q -2.6,-1.65 -5.15,-3.3 -8.0566,-5.127 -16.25,-10.15 -0.094,-0.048 -0.25,-0.15 m -175.05,-7.8 q -4.4105,-0.2363 -7.55,-0.45 6.2426,3.3557 12.55,6.6 15,7.8 30.7,14.65 l -11.3,-6.6 q -12.1945,-7.1109 -24.4,-14.2 m 424.6,-177.45 q -0.1256,2.00059 -0.25,3.95 1.1076,0.40977 2.2,0.8 15.8387,6.03262 31.9,11.4 3.3129,1.08789 6.65,2.15 -10.5309,-4.61406 -20.85,-9.3 -8.9105,-4.0502 -17.8,-8.15 -0.9166,-0.40859 -1.85,-0.85 z"
         id="path1" /><path
         fill="#cccccc"
         stroke="none"
         d="m 1656.7,1082.25 q -16.45,-9 -32.75,-18.2 -4.6615,-2.642 -9.3,-5.35 -10.666,-6.0982 -21.25,-12.4 -15.65,-9.35 -31,-19.3 -16.25,-10.5 -32.05,-21.85 -15.15,-10.8 -29.55,-22.3 -14.7,-11.65 -28.4,-24 -12.4,-11.1 -24.1,-23.1 -13.55,-13.85 -26,-28.9 -11.05,-13.5 -21.7,-27.45 -6.257,-8.16973 -12.35,-16.5 -0.1424,-0.20898 -0.3,-0.45 0.4199,-0.24746 0.85,-0.55 -0.584,-0.65488 -2.15,-2.45 -1.485,-1.70977 -3.45,-4.4 -0.1799,-0.28965 -0.4,-0.6 -6.45,-9 -13.1,-19.45 -2.6227,-4.14551 -4.55,-7.5 -8.6076,3.78574 -17.2,7.75 -44.9779,21.79844 -70,32.75 7.5377,10.52715 14.25,21.95 0.3467,0.59668 0.65,1.1 1.6291,2.80156 2.3,3.85 1.5459,2.38926 4.3,6.05 1.2027,1.60137 2.6,3.4 4.9,6.3 6.95,9.45 0.2664,0.41191 1.2,1.95 0.089,-0.0252 0.15,-0.1 4.3115,5.90098 8.75,11.6 18.6,24 39.4,46.1 9.5,10.1 19.4,19.5 8.7889,8.3992 17.7,16.2 1.4121,1.2498 2.8,2.45 15.15,13.15 31.3,25.3 13.1254,9.917 26.9,19 2.5438,1.6703 5.1,3.3 0.2252,0.1561 0.45,0.3 17.1,10.95 34.95,21.2 2.9955,1.7238 6,3.45 0.6705,0.3875 1.35,0.75 23.7289,1.4371 84.9,4.25 37.3809,1.7213 67,2.8 z"
         id="path2" /><path
         fill="#ffffff"
         stroke="none"
         d="m 1618.05,705.4 q -0.2443,-0.29961 -0.5,-0.6 -29.9137,20.46094 -72.95,44.6 -63.7,35.7 -109.2,51 -33.4695,11.27031 -66.5,25.5 l 0.6,1.45 4.25,6.8 q 7.45,11.8 11.75,17.6 l 2.9,3.85 q 1.9477,2.6252 3.75,5.35 1.3936,2.09453 2.7,4.25 0.3723,0.6873 0.55,1.15 6.6436,9.03457 13.45,17.85 11.5,14.95 23.7,29.05 10.9,12.65 22.4,24.65 13.2,13.75 27.75,26.25 14.05,12.1 28.9,23.35 13.3,10 27.1,19.45 15.1,10.25 30.7,19.95 15.85,9.9 31.8,19.45 10.599,6.3328 21.3,12.6 5.3658,3.1328 10.75,6.25 16.9,9.85 33.8,19.9 6.2756,3.727 12.45,7.5 33.3111,1.05 54.3,1.05 0.25,0 89.9,-0.75 24.2,0 59.9,-2.6 31.8971,-2.3711 47.15,-2.65 -0.2342,-15.4824 -0.9,-38.7 -2,-68.3 -2,-106.8 0,-13.44199 0.95,-30.85 -2.3674,-0.92168 -4.75,-1.85 -5.4102,-2.13594 -10.8,-4.4 -15.6066,-6.46953 -30.9,-13.8 -13.2,-6.4 -26.25,-13 -14.15,-7.1 -28.1,-14.8 -17.45,-9.55 -34.45,-19.9 -15.4,-9.35 -30.55,-19.1 -44.4,-28.6 -85.7,-61.35 -16.85,-13.4 -32.15,-28.45 -0.1453,-0.14375 -0.3,-0.3 -0.6434,-0.63223 -1.3,-1.3 0.3801,-0.13438 0.75,-0.3 -9.7232,-9.67441 -15.85,-16 -1.9687,-2.02891 -3.6,-3.75 -0.4236,-0.44629 -0.85,-0.9 -1.3287,-1.41504 -2.45,-2.65 -2.1248,-2.34727 -3.5,-4.05 m 174.1,184.6 -2.5,-0.65 q -1.7,-1.75 -2.4,-4.1 -0.25,-0.85 -0.4,-1.7 -13.75,-14.95 -32.5,-22.3 l 0.35,-1.2 q 20.7,5.85 34.55,23.05 2.4,3 2.9,6.9 m -3.05,-34.75 7.45,-2.35 q -6.85,-5.05 -15.05,-8.4 -12.8,-5.25 -26.1,-9.35 l 0.3,-1.15 q 7.1,0.4 14,3 15.7,6.15 29.15,15.4 0.35,0.25 -0.2,0.95 -4.8,5.45 -11.85,3.5 -6,-1.5 -11.8,-3.85 -2.15,-0.9 -4.25,-1.8 l 0.45,-0.95 17.9,5 m -46.15,24.85 q 3.05,0.15 5.2,2 0.8,0.65 1.65,1.3 10.35,8.6 23.45,8.8 0.4,0 0.8,-0.1 0.25,0.5 0.45,1 0.1,0.25 0.15,0.55 0.05,0.2 0.05,0.5 0,0.3 -0.1,0.65 -0.05,0.25 -0.15,0.5 -0.1,0.2 -0.25,0.4 -0.15,0.25 -0.3,0.5 l -16.55,-5.6 q 11.2,10.65 1.7,18.8 -0.9,0.8 -2.3,0.8 -16.55,0.2 -22.85,-15.2 10.35,13.3 25.15,10.15 1.55,-0.45 0.85,-2.05 -6.05,-13.9 -19.3,-22.15 1.15,-0.45 2.35,-0.85 z"
         id="path3" /></g><path
       id="Layer7_0_1_STROKES"
       stroke="#000000"
       stroke-opacity="0.968627"
       stroke-width="1"
       stroke-linejoin="round"
       stroke-linecap="round"
       fill="none"
       d="m 1929.05,907.35 q 0.021,-0.46992 0.05,-0.95 1.1,-17.9 0.9,-22.45 m -250.475,208.675 q 33.2861,1.025 54.275,1.025 0.25,0 89.9,-0.75 24.2,0 59.9,-2.6 31.8971,-2.3711 47.175,-2.625 -0.2592,-15.5074 -0.925,-38.725 -2,-68.3 -2,-106.8 0,-13.44199 0.975,-30.85 0.099,-1.94941 0.225,-3.95 m -424.6,177.475 q 23.7289,1.4121 84.9,4.225 37.3809,1.7213 67,2.8 m 23.175,0.775 q -1.9611,-0.06 -3.975,-0.125 -9.1531,-0.29 -19.2,-0.65 m 274.425,-4.175 q 1.8064,-0.025 3.375,-0.025 0.6,0 6.65,-0.35 6.1,-0.4 8.6,-0.4 h 0.75 m -19.375,0.775 q 0.3813,21.7016 -0.025,28.325 m -440.15,-31.35 q 0.75,0 0.75,-0.75 1.8855,0.1869 5.575,0.45 3.1145,0.2137 7.525,0.475" /><g
       id="Layer6_0_FILL"><path
         fill="#000000"
         stroke="none"
         d="m 1312.2,750.8 q 11.1,16.25 22,32.65 10.95,16.5 21.85,32.9 10.9,16.45 22.25,32.65 1.2984,1.84902 2.6,3.7 2.3838,3.35488 4.8,6.65 1.1203,1.58164 2.25,3.1 0.2529,-0.13926 0.5,-0.3 l 2.55,4.2 q 3,4.85 4.85,7.45 0.8268,1.1625 1.9,2.55 0.9916,1.32754 2.2,2.85 l 10.6,13.1 q 1.3,1.55 2.15,2.25 1.3,1.05 2.65,1.2 0.825,0.1 1.3,-0.15 0.525,-0.2 0.7,-0.75 0.2,-0.65 -0.3,-1.6 -1.05,-2.05 -4.4,-6 -5.5613,-6.70156 -10.9,-13.45 -6.4959,-8.23047 -12.65,-16.55 -1.3824,-1.83066 -2.75,-3.7 -0.5693,-0.75254 -1.1,-1.2 -0.4521,-0.62383 -0.9,-1.25 -9.5295,-13.43242 -18.75,-26.95 -9.45,-13.95 -18.9,-28.15 -9.95,-14.85 -19.8,-29.45 -10.7,-15.8 -21.6,-31.3 -11.5,-16.3 -23.5,-32.35 -11.15,-14.9 -23.1,-29.2 -5.4559,-6.53828 -11.55,-12.5 -1.4527,-1.41543 -3,-2.85 -1.4559,-3.36426 -5.95,-6.9 -0.2459,-1.41152 -1.1,-2.2 -0.349,-0.32578 -0.7,-0.65 0.01,0.61992 0.15,1.25 0.08,0.19922 0.15,0.4 0.032,0.0857 0.05,0.15 -0.31,-0.21641 -0.65,-0.45 -60.35,-41.45 -115.2,-59.55 -11.95,-3.95 -27.3,-7.95 -8.55,-2.25 -27.6,-6.85 -5.1986,-1.24473 -9.65,-2.3 -10.648,-2.44785 -16.8,-3.65 -14.8,-2.9 -26.8,-3.75 -2.4324,-0.16133 -4.65,-0.2 -5.6576,-0.11582 -9.85,0.55 -0.74316,0.10625 -1.45,0.25 0.6541,0.0592 1.3,0.1 4.4596,0.44043 8.9,0.9 24.0291,2.70938 47.65,7.7 29.2336,6.20078 57.85,15.95 56.65,19.3 106.75,51.1 11.2,7.1 17.3,12.45 2.8672,2.5127 5.45,5.25 1.4023,1.5875 2.8,3.15 1.5703,1.74883 3.15,3.5 10.95,12.15 21.1,24.9 10.95,13.85 21.35,28.3 11.05,15.3 21.8,31 m 39.5,-113.75 q 0.6,1.7 1.2,3.45 3.35,9.95 12.65,14.3 1.15,-0.05 2.15,-0.4 3.85,-1.65 4.8,-6 0.9,-4.3 2.9,-7.8 l -0.5,-1.5 q -2.15,0.9 -2.3,2.95 -0.2,3.35 -1.35,6.25 -1.4,3.6 -5.2,4.05 -8.15,-6.4 -12.85,-15.75 l -1.5,0.45 m 33.45,-2.75 q -0.175,2.975 0.15,5.9 0.325,2.975 1.15,5.9 6.15,22 27.65,25.1 1.25,0 2.5,0.05 4.8,-0.5 4.55,-5.3 -1,-20.5 -13.75,-37.9 l -2.7,-0.5 q 6.7,18.5 11.45,37.55 -1.8,0.55 -3.6,-0.15 -20.95,-7.85 -27.4,-30.65 m 38,-13.8 q -0.4,0.6 -0.25,1 8.2,19.7 25.65,33.35 13.45,10.45 25.4,1.25 1.3,-0.95 0.95,-2.5 -3.6373,-16.94902 -15.25,-29.6 -3.8492,-4.17441 -8.6,-7.9 5.25,1.45 8.55,5.5 0.6025,0.7332 1.2,1.4 12.1115,13.75977 29.05,13.95 2.8,-10 -5.1,-17.6 -7.85,-7.6 -15.55,-15.35 -7.25,-7.25 -15.2,-7.35 5.7,4.7 11.3,9.5 5.7,4.85 11.45,9.25 10.25,7.75 11.15,19.5 -17.45,-2.8 -29.25,-17.35 -7.1,-8.8 -14.15,-3.25 4.95,4.45 10.15,8.7 17.25,13.9 16.55,32.95 -11.3,2.6 -20.9,-4.15 -17.5,-12.4 -27.15,-31.3 M 1356.1,342.45 q -27.142,-14.54551 -57.75,-24.35 -33.741,-10.83711 -71.7,-15.9 -3.1,-0.45 -5,-0.3 -2.8,0.25 -4.5,1.65 1.5,1.25 3.85,1.95 0.893,0.28711 2.35,0.6 0.868,0.16895 1.9,0.35 34.6,5.95 60.6,13.2 3.7406,1.04297 7.4,2.1 27.7006,8.32422 50.45,19.5 12.8,6.25 32.25,17.7 25.8,15.25 31.75,18.55 18.2,10 33.3,15.75 0.3373,0.12734 0.65,0.25 18.2082,6.78555 34.85,8.7 -18.6,0.85 -36.9,-2.8 -18.4,-3.7 -35.15,-11.7 -1.35,-0.6 -2.65,-0.45 -1.5,0.15 -1.55,1.3 0,0.95 1.45,1.9 15.35,10.2 43.8,22.25 32.4029,13.71641 43.9,19.8 -1.225,0.27148 -2.5,0.55 2.5844,1.35723 5.1,2.6 8.2,4 16.55,7.6 11.45,4.85 23.75,7.75 23.2,5.7 46.8,9.8 15.2217,2.79844 30.55,5.1 2.749,0.40488 5.5,0.8 4,0.6 8,1.2 -7.25,3.25 -14.65,5.75 -13.3,4.25 -27.2,5.4 -45.75,3.85 -90.8,-6.2 -2.45,-0.6 -2.35,1.75 0.1,3.25 4.1,4.4 8.55,2.3 16.5,6.75 21.7,12.15 42.2,26.6 19,13.35 36.4,28.75 15.85,14.05 30.15,29.6 8.45,9.25 15.15,19.75 1.35,2.05 2.7,4.1 -11.4279,-7.92949 -23.25,-15.75 -0.8477,-0.53965 -1.7,-1.1 -13.25,-8.6 -27,-16.55 -11.15,-6.5 -22.4,-12.85 -16.5,-9.35 -34.1,-16.3 -2,-0.85 -3.1,0.7 -0.1,0.1 -0.1,0.25 0.15,0.45 0.5,0.8 10.75,10.9 21.1,22.3 15,16.65 26.95,35.8 9.75,15.65 17.35,32.5 1.5,3.35 3.05,6.7 -11.1,-11.85 -22.65,-23.05 -12.5,-12.25 -25.25,-24.2 -11.5,-10.7 -23.3,-21.05 -15,-13.1 -30.9,-24.65 -1.9,-1.45 -3.7,0.2 -0.45,0.45 -0.75,1.05 l 1.6,2.4 39.4,33.6 q 2.6,2.05 4.05,4.65 1.1,2.1 2.35,4.25 6,10.05 12.15,20.25 9.05,14.95 18.5,29.65 7.35,11.35 15.2,22.35 7.8,10.95 15.95,21.6 6.6268,8.57578 13.6,16.95 3.7465,4.5334 7.6,9 2.2813,2.63223 4.6,5.25 6.9764,7.83789 14.3,15.45 3.4213,3.57715 6.9,7.1 0.1865,0.16074 0.35,0.3 0.4531,0.47363 0.9,0.9 3.9898,-1.64824 8,-3.3 -0.3285,-0.32617 -0.65,-0.65 -0.1729,-0.17461 -0.35,-0.35 -4.8566,-4.91133 -9.65,-9.95 -6.6371,-6.99746 -13.15,-14.25 -3.6129,-4.02598 -7.2,-8.15 -2.0775,-2.37773 -4.15,-4.8 -10.9434,-12.71465 -21.3,-25.85 -17.9,-22.8 -34.2,-46.6 -4.6354,-6.75098 -9.2,-13.6 -4.9715,-7.56484 -9.85,-15.25 -1.5,-2.35 -2.9,-4.7 9.3,7.9 18.4,16.2 16.55,15.05 30.3,32.45 4.5,5.7 10.15,9.7 0.1,0.05 0.25,0 1.3,-0.65 1.2,-2.1 -0.5,-6.45 -3.1,-12.55 -5.05,-11.85 -11.05,-23.4 -10.2,-19.55 -22.9,-37.2 -3.3266,-4.59785 -6.8,-9.05 -4.7156,-6.05879 -9.7,-11.85 -1.75,-2.05 -3.5,-4.1 10.2,5.2 20.3,10.6 12.55,6.75 24.8,14.1 17.05,10.2 33.15,21.95 8.8,6.4 18.3,10.75 0.75,0.3 1.6,0.5 2.8,-1.1 2.05,-3.8 -1.25,-4.8 -4.25,-8.65 -8.75,-11.2 -18,-21.7 -12.25,-13.8 -25.95,-26.2 -10.35,-9.3 -21.35,-17.9 -17.15,-13.3 -35.2,-25.25 -12.25,-8.15 -24.95,-15.45 -2.65,-1.55 -5.25,-3.1 15.85,2.65 31.8,4.2 20.25,1.9 40.65,0.35 10.9,-0.95 21.3,-3.55 12.85,-3.05 25,-8.4 5.3,-2.3 8.65,-6.6 0.1,-0.1 0.15,-0.3 -0.05,-0.7 -0.8,-0.95 -6.15,-2.75 -13.05,-3.75 -18.8,-2.6 -37.6,-5.45 -16.45,-2.5 -32.7,-5.8 -20.9105,-4.34434 -40.9,-11.7 -0.1041,-0.73281 -0.55,-1.35 -0.95,-1.25 -3.55,-2.3 l -77,-34 q 18.55,5.05 37.65,5.8 5.15,0.2 8.7,-0.15 4.7,-0.5 8.25,-2.2 1.85,-1 1.85,-2.05 0.05,-1.7 -3.1,-2.15 -23.95,-3.3 -46.45,-12.6 -16.4,-6.8 -40.3,-21.05 -33.05,-19.75 -39.35,-23.1 m -45.75,573.2 q -3.8494,-5.29043 -7.6,-10.75 -4.1268,-5.95742 -8.25,-11.9 -2.4957,-3.62637 -5,-7.25 -9.15,-13.2 -18.6,-26.5 -12.65,-17.9 -25.65,-35.75 -11.9,-16.35 -24.05,-32.3 -8.85,-11.6 -17.85,-22.9 -7.5145,-9.50215 -15.55,-18.5 -0.2477,-0.26875 -0.5,-0.55 -3.4145,-3.78809 -7,-7.4 -13.2148,-13.26309 -28.75,-24 -3.3,-2.3 -6.6,-4.5 -13.0592,-8.47324 -27.05,-14.65 -7.2055,-3.17949 -14.65,-5.75 -4.0271,-1.39434 -8.15,-2.6 -1.3861,-0.4207 -2.8,-0.85 -5.1516,-0.65313 -10.3,-1.15 -4.6439,-1.16445 -10.65,-2.3 -36.2293,-6.84121 -72.95,-8.95 -10.90137,-0.61855 -21.85,-0.85 -2.29902,-0.0248 -4.6,-0.05 4.8,1.35 14.35,3.05 5.08066,0.88574 10.2,1.75 9.6385,1.60723 19.4,3.1 16.0781,2.47422 32.5,4.65 13.4516,1.79355 21,2.9 3.3977,0.52773 5.6,0.9 8.6568,1.48652 16.05,3.35 2.468,0.81133 4.9,1.65 9.4541,3.36797 18.55,7.65 16.85,8.05 32.15,18.7 15.1414,10.57402 28.85,23.25 0.1018,0.10879 0.2,0.2 3.2586,3.03496 6.45,6.1 10.3291,10.11738 19.85,20.9 11.8,13.35 22.8,27.5 9.75,12.7 19.1,25.75 6.9045,9.67285 13.75,19.5 3.6568,5.25078 7.3,10.55 11.4,16.75 22,33.75 1.2613,2.00781 2.5,4 7.5682,11.81641 15.55,23.3 0.6916,-0.36953 1.35,-0.75 0.7914,-0.43145 1.55,-0.9 0.2262,-0.0873 0.4,-0.2 1.0477,-0.58281 2.05,-1.2 z"
         id="path1-2" /><path
         fill="#cccccc"
         stroke="none"
         d="m 1334.2,783.45 q -10.9,-16.4 -22,-32.65 -10.75,-15.7 -21.8,-31 -10.4,-14.45 -21.35,-28.3 -10.15,-12.75 -21.1,-24.9 -1.5797,-1.75117 -3.15,-3.5 -1.3977,-1.5625 -2.8,-3.15 -2.5828,-2.7373 -5.45,-5.25 -6.1,-5.35 -17.3,-12.45 -50.1,-31.8 -106.75,-51.1 -28.6164,-9.74922 -57.85,-15.95 -23.6209,-4.99062 -47.65,-7.7 -4.4404,-0.45957 -8.9,-0.9 -7.80508,20.27246 -12.95,39.25 -2.45176,9.17813 -4.3,18.05 -0.70508,3.39863 -1.3,6.65 -4.59199,25.18926 -3,43.85 v 1.85 q 10.94863,0.23145 21.85,0.85 36.7207,2.10879 72.95,8.95 6.0061,1.13555 10.65,2.3 5.1484,0.49687 10.3,1.15 1.4139,0.4293 2.8,0.85 4.1229,1.20566 8.15,2.6 7.4445,2.57051 14.65,5.75 13.9908,6.17676 27.05,14.65 3.3,2.2 6.6,4.5 15.5352,10.73691 28.75,24 3.5855,3.61191 7,7.4 0.2523,0.28125 0.5,0.55 8.0355,8.99785 15.55,18.5 9,11.3 17.85,22.9 12.15,15.95 24.05,32.3 13,17.85 25.65,35.75 9.45,13.3 18.6,26.5 2.5043,3.62363 5,7.25 4.1232,5.94258 8.25,11.9 3.7506,5.45957 7.6,10.75 v 1.2 h 1.95 q 6,1.5 8.9,1.5 10.2,0 37.55,-6.25 27.8338,-6.37266 58.1,-15.85 l -0.2,-0.65 q -0.475,0.25 -1.3,0.15 -1.35,-0.15 -2.65,-1.2 -0.85,-0.7 -2.15,-2.25 l -10.6,-13.1 q -1.2084,-1.52246 -2.2,-2.85 -1.0732,-1.3875 -1.9,-2.55 -1.85,-2.6 -4.85,-7.45 l -2.55,-4.2 q -0.2471,0.16074 -0.5,0.3 -1.1297,-1.51836 -2.25,-3.1 -2.4162,-3.29512 -4.8,-6.65 -1.3016,-1.85098 -2.6,-3.7 -11.35,-16.2 -22.25,-32.65 -10.9,-16.4 -21.85,-32.9 z"
         id="path2-4" /><path
         fill="#ffffff"
         stroke="none"
         d="m 1375.95,358.95 q -19.45,-11.45 -32.25,-17.7 -22.7494,-11.17578 -50.45,-19.5 -3.6594,-1.05703 -7.4,-2.1 -26,-7.25 -60.6,-13.2 -1.032,-0.18105 -1.9,-0.35 -0.9602,0.2832 -1.95,0.6 -1.4307,0.44648 -2.9,0.95 -13.5121,4.70293 -28.3,14.25 -17.4535,11.35273 -36.65,29.5 -17.35,16.45 -40.5,42.4 -11,12.35 -43.3,50 -21.25,24.75 -39.85,56.65 -17.55,30.15 -30.45,62.75 -0.60137,1.52266 -1.2,3.05 4.1924,-0.66582 9.85,-0.55 2.2176,0.0387 4.65,0.2 12,0.85 26.8,3.75 6.152,1.20215 16.8,3.65 4.4514,1.05527 9.65,2.3 19.05,4.6 27.6,6.85 15.35,4 27.3,7.95 54.85,18.1 115.2,59.55 l 0.45,-0.1 q -0.1416,-0.63008 -0.15,-1.25 0.351,0.32422 0.7,0.65 0.8541,0.78848 1.1,2.2 4.4941,3.53574 5.95,6.9 1.5473,1.43457 3,2.85 6.0941,5.96172 11.55,12.5 11.95,14.3 23.1,29.2 12,16.05 23.5,32.35 10.9,15.5 21.6,31.3 9.85,14.6 19.8,29.45 9.45,14.2 18.9,28.15 9.2205,13.51758 18.75,26.95 0.4479,0.62617 0.9,1.25 0.5307,0.44746 1.1,1.2 1.3676,1.86934 2.75,3.7 6.1541,8.31953 12.65,16.55 5.3387,6.74844 10.9,13.45 3.35,3.95 4.4,6 0.5,0.95 0.3,1.6 l 3.6,0.15 q 13.2469,-4.21973 25.35,-8.5 66.2855,-23.42949 98.75,-48.75 45.4,-35.35 69.6,-64.1 15.5934,-18.55937 27.65,-41.8 -3.4787,-3.52285 -6.9,-7.1 -7.3236,-7.61211 -14.3,-15.45 -2.3187,-2.61777 -4.6,-5.25 -3.8535,-4.4666 -7.6,-9 -6.9732,-8.37422 -13.6,-16.95 -8.15,-10.65 -15.95,-21.6 -7.85,-11 -15.2,-22.35 -9.45,-14.7 -18.5,-29.65 -6.15,-10.2 -12.15,-20.25 -1.25,-2.15 -2.35,-4.25 -1.45,-2.6 -4.05,-4.65 l -39.4,-33.6 -1.6,-2.4 q 0.3,-0.6 0.75,-1.05 1.8,-1.65 3.7,-0.2 15.9,11.55 30.9,24.65 11.8,10.35 23.3,21.05 12.75,11.95 25.25,24.2 11.55,11.2 22.65,23.05 -1.55,-3.35 -3.05,-6.7 -7.6,-16.85 -17.35,-32.5 -11.95,-19.15 -26.95,-35.8 -10.35,-11.4 -21.1,-22.3 -0.35,-0.35 -0.5,-0.8 0,-0.15 0.1,-0.25 1.1,-1.55 3.1,-0.7 17.6,6.95 34.1,16.3 11.25,6.35 22.4,12.85 13.75,7.95 27,16.55 0.8523,0.56035 1.7,1.1 11.8221,7.82051 23.25,15.75 -1.35,-2.05 -2.7,-4.1 -6.7,-10.5 -15.15,-19.75 -14.3,-15.55 -30.15,-29.6 -17.4,-15.4 -36.4,-28.75 -20.5,-14.45 -42.2,-26.6 -7.95,-4.45 -16.5,-6.75 -4,-1.15 -4.1,-4.4 -0.1,-2.35 2.35,-1.75 45.05,10.05 90.8,6.2 13.9,-1.15 27.2,-5.4 7.4,-2.5 14.65,-5.75 -4,-0.6 -8,-1.2 -2.751,-0.39512 -5.5,-0.8 -15.3283,-2.30156 -30.55,-5.1 -23.6,-4.1 -46.8,-9.8 -12.3,-2.9 -23.75,-7.75 -8.35,-3.6 -16.55,-7.6 -2.5156,-1.24277 -5.1,-2.6 1.275,-0.27852 2.5,-0.55 -11.4971,-6.08359 -43.9,-19.8 -28.45,-12.05 -43.8,-22.25 -1.45,-0.95 -1.45,-1.9 0.05,-1.15 1.55,-1.3 1.3,-0.15 2.65,0.45 16.75,8 35.15,11.7 18.3,3.65 36.9,2.8 -16.6418,-1.91445 -34.85,-8.7 -0.3127,-0.12266 -0.65,-0.25 -15.1,-5.75 -33.3,-15.75 -5.95,-3.3 -31.75,-18.55 m 46.95,262.55 q -0.15,-0.4 0.25,-1 9.65,18.9 27.15,31.3 9.6,6.75 20.9,4.15 0.7,-19.05 -16.55,-32.95 -5.2,-4.25 -10.15,-8.7 7.05,-5.55 14.15,3.25 11.8,14.55 29.25,17.35 -0.9,-11.75 -11.15,-19.5 -5.75,-4.4 -11.45,-9.25 -5.6,-4.8 -11.3,-9.5 7.95,0.1 15.2,7.35 7.7,7.75 15.55,15.35 7.9,7.6 5.1,17.6 -16.9385,-0.19023 -29.05,-13.95 l -1.15,1 q 11.6127,12.65098 15.25,29.6 0.35,1.55 -0.95,2.5 -11.95,9.2 -25.4,-1.25 -17.45,-13.65 -25.65,-33.35 m -37.6,18.7 q -0.325,-2.925 -0.15,-5.9 6.45,22.8 27.4,30.65 1.8,0.7 3.6,0.15 -4.75,-19.05 -11.45,-37.55 l 2.7,0.5 q 12.75,17.4 13.75,37.9 0.25,4.8 -4.55,5.3 -1.25,-0.05 -2.5,-0.05 -21.5,-3.1 -27.65,-25.1 -0.825,-2.925 -1.15,-5.9 m -32.4,0.3 q -0.6,-1.75 -1.2,-3.45 l 1.5,-0.45 q 4.7,9.35 12.85,15.75 3.8,-0.45 5.2,-4.05 1.15,-2.9 1.35,-6.25 0.15,-2.05 2.3,-2.95 l 0.5,1.5 q -2,3.5 -2.9,7.8 -0.95,4.35 -4.8,6 -1,0.35 -2.15,0.4 -9.3,-4.35 -12.65,-14.3 z"
         id="path3-2" /></g></defs><g
     inkscape:label="Layer 1"
     inkscape:groupmode="layer"
     id="layer1"
     transform="translate(65.511682,9.5529258)"><g
       transform="matrix(0.26458333,0,0,0.26458333,-323.91835,-91.033573)"
       id="g4"><use
         xlink:href="#Layer7_0_FILL"
         id="use3" /><use
         xlink:href="#Layer7_0_1_STROKES"
         id="use4" /></g><use
       xlink:href="#Layer6_0_FILL"
       id="use3-3"
       transform="matrix(0.26458333,0,0,0.26458333,-322.67345,-89.420711)" /></g></svg>
