
<svg xmlns="http://www.w3.org/2000/svg" version="1.1" xmlns:xlink="http://www.w3.org/1999/xlink" preserveAspectRatio="none" x="0px" y="0px" width="1920px" height="1080px" viewBox="0 0 1920 1080">
<defs>
<g id="Layer2_0_FILL">
<path fill="#000000" stroke="none" d="
M 798.7 652.1
Q 798.25 652.05 797.9 652.55 797.6 652.95 797.5 653.6
L 797 656.9
Q 796.4 660.4 795.75 662.05 794.75 664.65 792.85 666.4 791.2 668.1 791.1 668.2 790.2 669.2 790.1 670.3 785.55 674.2 781.85 678.75
L 781.8 678.75
Q 781.6916015625 678.9126953125 781.6 679.05 782.75 679.3 783.95 678.4 784.65 677.8 785.75 676.35 787.25 674.45 789 673.2 790.3 672.25 790.65 671.8 791.1 671.1 791.65 669.55 792.1 668.75 793.4 667.65 794.9 666.4 795.35 665.8 796 664.9 796.5 663.55
L 797.25 661.15
Q 798.6 656.8 798.7 652.1
M 773.65 628.05
Q 780.85 627 788 627.45 792.95 627.75 799.4 628.95 799.05 626.75 796.7 625.5 794.8 624.45 791.95 624.05 783 622.85 773.9 623.7 764.85 624.55 756.2 627.45 747.65 630.4 741.1 634.65 736.5 637.65 728.55 644.5 720.65 651.35 717.35 655.05 709.65 663.65 704.7 676.25 700.65 686.4 697.9 700.5 696.55 707.55 696.4 712.2 696.2 718.7 697.9 723.7 698.9 726.75 700.75 727.5 700.5 726.65 700.3 725.7 700.75 725.7 701.4 725.35 702.4 724.75 703.3 723.5 711.45 711.5 727.85 701.65 733.9 698.05 740.1 695 746.75 691.85 760.5 685.6 770.4 680.3 776 673.9 776.8 672.95 777.5 672 782.4 665.55 783.95 657.35 785.45 649.15 783.25 641.35 782.35 637.7 780.55 634.85 778.35 631.25 774.75 628.8 774.2 628.35 773.65 628.05
M 774.8 635.4
Q 777.2 637.75 778.7 640.8 781.45 646.5 781 653.9 780.4 664.15 774.45 671.15 771.15 675.05 764.65 679.05 760.15 681.9 753.15 685.45 749.9 687.05 747.4 688.3
L 753.75 679.55
Q 756.05 676.3 756.8 674.85 757.25 674 758.15 672.2 758.35 671.85 759 671 759.55 670.25 759.85 669.8 760.4 668.65 760.75 666.15
L 761.65 658.85
Q 762.05 655.55 761.8 653.85 761.5 652.15 761.3 651.25 761.05 649.7 761.25 648.7 761.45 648.15 761.5 647.9 761.6 647.4 761.5 647 761.4 646.7 761.15 646.2 760.65 645.55 760.6 645.45 760.3 644.95 760.2 643.95 760.05 642.8 759.9 642.35 759.65 641.8 759.05 641.05 758.15 640.1 758 639.8 757.3 638.2 756.85 637.5 756.05 636.3 753.25 634.75 752.75 634.4 752.2 634.45 751.55 634.5 751.45 635.05 751.45 635.45 752.1 636 754 637.5 755.55 639.45 757.25 641.65 758.1 644.3 758.45 645.35 758.8 647.65
L 759.7 653.25
Q 760.2 655.5 760.1 657 760.1 657.3 759.8 659.55
L 759.15 663.55
Q 759.05 664.3 758.95 665.85 758.8 667.2 758.6 668.1 758.2 670.05 756.9 672.3 755.45 674.95 751.5 680.45
L 744.8 689.6
Q 742.85 690.6 741.4 691.35 733.25 695.6 726.3 700.15 717.35 705.85 711.3 711.25 704.4 717.45 699.95 724.25 698.3 715.5 700.2 703.6 701.75 694 704.8 685.4 710.3 670.05 721.3 657.4 732.2 644.75 746.6 637 749.3 635.55 752.15 634.25 758.35 631.5 764.9 629.8 765.6 630.5 766.9 631.05 767.7 631.35 769.25 631.8 772.3 632.95 774.8 635.4 Z"/>

<path fill="#141414" stroke="none" d="
M 755.55 639.45
Q 754 637.5 752.1 636 751.45 635.45 751.45 635.05 751.55 634.5 752.2 634.45
L 752.15 634.25
Q 749.3 635.55 746.6 637 732.2 644.75 721.3 657.4 710.3 670.05 704.8 685.4 701.75 694 700.2 703.6 698.3 715.5 699.95 724.25 704.4 717.45 711.3 711.25 717.35 705.85 726.3 700.15 733.25 695.6 741.4 691.35 742.85 690.6 744.8 689.6
L 751.5 680.45
Q 755.45 674.95 756.9 672.3 758.2 670.05 758.6 668.1 758.8 667.2 758.95 665.85 759.05 664.3 759.15 663.55
L 759.8 659.55
Q 760.1 657.3 760.1 657 760.2 655.5 759.7 653.25
L 758.8 647.65
Q 758.45 645.35 758.1 644.3 757.25 641.65 755.55 639.45 Z"/>

<path fill="#303030" stroke="none" d="
M 778.7 640.8
Q 777.2 637.75 774.8 635.4 772.3 632.95 769.25 631.8 767.7 631.35 766.9 631.05 765.6 630.5 764.9 629.8 758.35 631.5 752.15 634.25
L 752.2 634.45
Q 752.75 634.4 753.25 634.75 756.05 636.3 756.85 637.5 757.3 638.2 758 639.8 758.15 640.1 759.05 641.05 759.65 641.8 759.9 642.35 760.05 642.8 760.2 643.95 760.3 644.95 760.6 645.45 760.65 645.55 761.15 646.2 761.4 646.7 761.5 647 761.6 647.4 761.5 647.9 761.45 648.15 761.25 648.7 761.05 649.7 761.3 651.25 761.5 652.15 761.8 653.85 762.05 655.55 761.65 658.85
L 760.75 666.15
Q 760.4 668.65 759.85 669.8 759.55 670.25 759 671 758.35 671.85 758.15 672.2 757.25 674 756.8 674.85 756.05 676.3 753.75 679.55
L 747.4 688.3
Q 749.9 687.05 753.15 685.45 760.15 681.9 764.65 679.05 771.15 675.05 774.45 671.15 780.4 664.15 781 653.9 781.45 646.5 778.7 640.8 Z"/>
</g>
</defs>

<g transform="matrix( 1, 0, 0, 1, 0,0) ">
<use xlink:href="#Layer2_0_FILL"/>
</g>
</svg>
