
<svg xmlns="http://www.w3.org/2000/svg" version="1.1" xmlns:xlink="http://www.w3.org/1999/xlink" preserveAspectRatio="none" x="0px" y="0px" width="1920px" height="1080px" viewBox="0 0 1920 1080">
<defs>
<g id="Layer2_0_FILL">
<path fill="#000000" stroke="none" d="
M 795.3 507.5
Q 796.8884765625 507.9693359375 797.9 508.15 798.2546875 508.21640625 798.65 508.25 796.9330078125 507.797265625 795.3 507.5
M 816.2 561.6
Q 815.05 565 814.2 566.5 812.75 568.9 810.65 570.35 808.7 571.75 808.6 571.8 807.55 572.7 807.3 573.75 802.2103515625 576.90078125 797.8 580.85 797.6873046875 580.9748046875 797.55 581.1 798.65 581.5 799.95 580.75 800.75 580.3 802.1 579.05 803.85 577.45 805.8 576.45 807.2 575.7 807.6 575.3 808.15 574.7 808.95 573.25 809.55 572.5 811 571.65 812.65 570.65 813.2 570.15 814 569.35 814.7 568.05
L 815.8 565.85
Q 817.85 561.75 818.65 557.15 818.2 557 817.8 557.45 817.45 557.8 817.25 558.4
L 816.2 561.6
M 811.9 531.1
Q 816.75 532.2 822.95 534.35 822.95 532.15 820.8 530.5 819.1 529.2 816.35 528.4 807.7 525.8 798.6 525.2 789.5 524.65 780.55 526.15 771.6 527.7 764.5 530.9 759.45 533.15 750.55 538.65 741.65 544.2 737.85 547.3 728.9 554.6 722 566.3 716.45 575.7 711.55 589.2 709.1 595.95 708.25 600.5 707 606.9 707.9 612.1 708.4 615.25 710.1 616.3 709.9876953125 615.3966796875 709.9 614.45 710.414453125 614.5353515625 711.05 614.3 712.2 613.85 713.25 612.75 723.15 602.2 740.95 595 747.45 592.35 754.05 590.35 761.15 588.25 775.65 584.2 786.2853515625 580.5673828125 792.8 575.1 793.75234375 574.3166015625 794.6 573.5 800.45 567.85 803.25 560 806.05 552.1 805.1 544.1 804.7 540.35 803.4 537.25 801.8 533.35 798.65 530.35 798.1453125 529.8697265625 797.6 529.4 804.9537109375 529.54140625 811.9 531.1
M 713.3 592.6
Q 716.35 583.35 720.7 575.35 728.55 561.05 741.35 550.25 754.1 539.45 769.55 534.05 772.473828125 533.0330078125 775.4 532.25 782.023828125 530.4609375 788.75 529.8 789.34140625 530.6248046875 790.55 531.35 791.25 531.75 792.7 532.5 795.55 534.1 797.65 536.9 799.65 539.55 800.65 542.85 802.5 548.9 800.9 556.1 798.7 566.15 791.7 572.15 787.85 575.5 780.8 578.45 775.9 580.5 768.45 582.95 765.01015625 584.0146484375 762.25 584.85
L 769.95 577.25
Q 772.75 574.35 773.7 573.05 774.3 572.25 775.45 570.65 775.7 570.35 776.5 569.6 777.15 568.95 777.5 568.5 778.25 567.5 778.95 565.1
L 781 558
Q 781.9 554.8 781.95 553.1 781.9 551.35 781.85 550.45 781.85 548.9 782.2 547.9 782.45 547.4 782.55 547.15 782.75 546.7 782.7 546.3 782.65 545.95 782.45 545.45 782.1 544.75 782.05 544.6 781.85 544.05 781.9 543.05 781.95 541.9 781.85 541.45 781.7 540.85 781.2 540 780.5 538.95 780.35 538.6 779.9 536.95 779.55 536.2 779 534.85 776.5 532.9 776 532.5 775.45 532.45 774.8 532.4 774.65 532.9 774.55 533.3 775.1 533.95 776.8 535.7 778 537.9 779.3 540.35 779.75 543.05 779.9 544.2 779.9 546.5
L 779.95 552.15
Q 780.05 554.45 779.75 555.9 779.7 556.2 779.05 558.4
L 777.8 562.25
Q 777.6 563 777.25 564.45 776.9 565.8 776.55 566.65 775.8 568.5 774.2 570.55 772.4 572.95 767.6 577.75
L 759.55 585.75
Q 757.4359375 586.4318359375 755.9 586.95 747.2 589.9 739.6 593.3 729.9 597.55 723.05 601.9 715.225 606.946875 709.85 612.9 709.5734375 604.0306640625 713.3 592.6
M 819.35 508.4
Q 824.6 509.7 829.5 512.95 834 515.95 837.3 519.95 840.8 524.15 842.55 529 844.95 535.4 842.5 539.4 841.15 541.55 837 543.95 832.65 546.5 831.3 548.35
L 834.15 546.9
Q 839.5 544.2 842 542.1 846.05 538.65 846.95 534.5 847.7 530.65 845.65 525.5 841.7 515.95 832.15 509.4 826.4 505.4 821.1 504.65 819.3 504.4 816.5 504.45 812.7 504.55 811.9 504.5 807.35 504.1 805.05 503.9 793.1 502.9 779.3 507.05 768.75 510.2 754.95 517.2 752.15 518.65 750.65 519.8 748.5 521.5 747.8 523.55 749.05 523.15 750.6 522.25 750.7 522.15 753.2 520.6 764.6 513.2 773.95 510.55 779.4 508.95 790.9 507.65 793.31796875 507.3736328125 795.3 507.15 799.1263671875 506.8328125 801.45 506.8 805.45 506.75 810.35 507.15 816.4 507.65 819.35 508.4 Z"/>

<path fill="#303030" stroke="none" d="
M 775.4 532.25
L 775.45 532.45
Q 776 532.5 776.5 532.9 779 534.85 779.55 536.2 779.9 536.95 780.35 538.6 780.5 538.95 781.2 540 781.7 540.85 781.85 541.45 781.95 541.9 781.9 543.05 781.85 544.05 782.05 544.6 782.1 544.75 782.45 545.45 782.65 545.95 782.7 546.3 782.75 546.7 782.55 547.15 782.45 547.4 782.2 547.9 781.85 548.9 781.85 550.45 781.9 551.35 781.95 553.1 781.9 554.8 781 558
L 778.95 565.1
Q 778.25 567.5 777.5 568.5 777.15 568.95 776.5 569.6 775.7 570.35 775.45 570.65 774.3 572.25 773.7 573.05 772.75 574.35 769.95 577.25
L 762.25 584.85
Q 765.01015625 584.0146484375 768.45 582.95 775.9 580.5 780.8 578.45 787.85 575.5 791.7 572.15 798.7 566.15 800.9 556.1 802.5 548.9 800.65 542.85 799.65 539.55 797.65 536.9 795.55 534.1 792.7 532.5 791.25 531.75 790.55 531.35 789.34140625 530.6248046875 788.75 529.8 782.023828125 530.4609375 775.4 532.25 Z"/>

<path fill="#141414" stroke="none" d="
M 720.7 575.35
Q 716.35 583.35 713.3 592.6 709.5734375 604.0306640625 709.85 612.9 715.225 606.946875 723.05 601.9 729.9 597.55 739.6 593.3 747.2 589.9 755.9 586.95 757.4359375 586.4318359375 759.55 585.75
L 767.6 577.75
Q 772.4 572.95 774.2 570.55 775.8 568.5 776.55 566.65 776.9 565.8 777.25 564.45 777.6 563 777.8 562.25
L 779.05 558.4
Q 779.7 556.2 779.75 555.9 780.05 554.45 779.95 552.15
L 779.9 546.5
Q 779.9 544.2 779.75 543.05 779.3 540.35 778 537.9 776.8 535.7 775.1 533.95 774.55 533.3 774.65 532.9 774.8 532.4 775.45 532.45
L 775.4 532.25
Q 772.473828125 533.0330078125 769.55 534.05 754.1 539.45 741.35 550.25 728.55 561.05 720.7 575.35 Z"/>
</g>
</defs>

<g transform="matrix( 1, 0, 0, 1, 0,0) ">
<use xlink:href="#Layer2_0_FILL"/>
</g>
</svg>
