
<svg xmlns="http://www.w3.org/2000/svg" version="1.1" xmlns:xlink="http://www.w3.org/1999/xlink" preserveAspectRatio="none" x="0px" y="0px" width="1920px" height="1080px" viewBox="0 0 1920 1080">
<defs>
<g id="Layer2_0_FILL">
<path fill="#000000" stroke="none" d="
M 820.8 554.25
Q 820 554.6 819.7 555.15 816.7 561.25 812.8 566.75 803.604296875 579.753515625 789.7 586.45 788.49453125 587.0396484375 787.25 587.55 790.8896484375 586.1359375 794.35 584.5 814 575.1 820.8 554.25
M 826.45 537.35
L 822.8 534.6 822.65 534.2
Q 817.4 529.95 811.45 527.55 798.8 522.65 785.7 525.6 780.45078125 526.7978515625 775.4 528.45 772.008984375 529.5662109375 768.7 530.9 756.077734375 535.92265625 744.9 543.95 731.7126953125 553.471875 723.25 566.9 721.6662109375 569.4484375 720.25 572.1 709.9 591.45 707.75 613.05
L 705.85 615.45 706.15 616.2 708.85 616.55
Q 713.5 615 716.75 611.2 719.176171875 608.264453125 722.05 605.85 725.073828125 603.3060546875 728.6 601.35 734.9458984375 597.770703125 741.55 594.8 745.6619140625 592.989453125 749.85 591.4 752.0533203125 590.580859375 754.25 589.8 759.3603515625 588.0859375 764.6 586.7 766.4359375 586.208984375 768.25 585.75 770.0615234375 585.3357421875 771.85 584.95 772.4798828125 584.8029296875 773.1 584.65 779.9580078125 582.868359375 786.05 579.35 788.0650390625 578.2021484375 790 576.85 800.1 569.8 805.55 558.55 807.95 553.55 807.95 548.3 808 535.5 796.8 529.45 802.4 529.55 807.8 530.65 817.75 532.55 826.45 537.35
M 717.2 585.05
Q 719.61328125 578.2814453125 723.05 572.2 728.8224609375 562.2357421875 737.45 554.2 751.83125 540.7052734375 770.25 533.35 770.519140625 533.26015625 770.8 533.15 772.5037109375 532.4931640625 774.15 532 776.16640625 531.408984375 778.1 531.05 793.245703125 528.47109375 803.35 541.7 805 543.85 804.85 546.35 803.686328125 565.9931640625 786.8 576.15 785.5861328125 576.89921875 784.25 577.6 782.37421875 578.5935546875 780.45 579.5 780.4501953125 579.5376953125 780.4 579.55 780.4001953125 579.5626953125 780.35 579.55 777.3806640625 581.0341796875 774.3 582.3 772.11796875 583.2654296875 769.85 584.1 767.7662109375 584.9359375 765.6 585.65 760.2037109375 587.5212890625 754.6 588.9 754.3912109375 588.9509765625 754.15 589 751.3421875 589.6837890625 748.45 590.25 747.5263671875 590.44296875 746.6 590.65 733.3439453125 593.76171875 722.2 601.3 719.9779296875 602.7837890625 717.85 604.45
L 711.75 609.55
Q 712.85 597.05 717.2 585.05 Z"/>

<path fill="#303030" stroke="none" d="
M 774.35 532.75
Q 777.05 534.45 780.05 541.95 783 549.3 783 553.85 783 561.1171875 780.05 567.3 778.780078125 569.9509765625 776.95 572.4 776.9365234375 572.4509765625 776.9 572.5 775.980078125 573.736328125 774.9 574.9 774.1900390625 575.747265625 773.4 576.55 770.121875 579.798828125 765.75 582.65 762.873046875 584.4845703125 754.6 588.9 760.2037109375 587.5212890625 765.6 585.65 767.7662109375 584.9359375 769.85 584.1 772.11796875 583.2654296875 774.3 582.3 777.3806640625 581.0341796875 780.35 579.55 780.4001953125 579.5626953125 780.4 579.55 780.4501953125 579.5376953125 780.45 579.5 782.37421875 578.5935546875 784.25 577.6 785.5861328125 576.89921875 786.8 576.15 803.686328125 565.9931640625 804.85 546.35 805 543.85 803.35 541.7 793.245703125 528.47109375 778.1 531.05 776.16640625 531.408984375 774.15 532
L 774.35 532.75 Z"/>

<path fill="#141414" stroke="none" d="
M 723.05 572.2
Q 719.61328125 578.2814453125 717.2 585.05 712.85 597.05 711.75 609.55
L 717.85 604.45
Q 719.9779296875 602.7837890625 722.2 601.3 733.3439453125 593.76171875 746.6 590.65 747.5263671875 590.44296875 748.45 590.25 751.3421875 589.6837890625 754.15 589 754.3912109375 588.9509765625 754.6 588.9 762.873046875 584.4845703125 765.75 582.65 770.121875 579.798828125 773.4 576.55 774.1900390625 575.747265625 774.9 574.9 775.980078125 573.736328125 776.9 572.5 776.9365234375 572.4509765625 776.95 572.4 778.780078125 569.9509765625 780.05 567.3 783 561.1171875 783 553.85 783 549.3 780.05 541.95 777.05 534.45 774.35 532.75
L 774.15 532
Q 772.5037109375 532.4931640625 770.8 533.15 770.519140625 533.26015625 770.25 533.35 751.83125 540.7052734375 737.45 554.2 728.8224609375 562.2357421875 723.05 572.2 Z"/>
</g>
</defs>

<g transform="matrix( 1, 0, 0, 1, 0,0) ">
<use xlink:href="#Layer2_0_FILL"/>
</g>
</svg>
