
<svg xmlns="http://www.w3.org/2000/svg" version="1.1" xmlns:xlink="http://www.w3.org/1999/xlink" preserveAspectRatio="none" x="0px" y="0px" width="1920px" height="1080px" viewBox="0 0 1920 1080">
<defs>
<g id="Symbol_1_1_Layer0_0_FILL">
<path fill="#000000" stroke="none" d="
M 16.1 -13.4
Q 13.6 -15.2 9.6 -17.4 3.1 -21 -0.95 -21.75 -4.1 -22.35 -10.45 -21.95 -15.1 -21.65 -17.05 -20.95 -19.75 -20.1 -23.15 -17.45 -29.25 -12.8 -33.15 -7.25 -36.6 -2.35 -39.2 4.7 -40.75 9 -43.05 17.65 -44.35 22.4 -44.7 24.95 -45.25 28.45 -45.15 33.8 -44.8 45.15 -41.85 53.35 -38.05 63.7 -30.5 69.4 -26.3 72.6 -21 74.2 -15.95 75.8 -10.45 75.7 -0.05 75.55 9.95 69.95 14.55 67.3 17.1 64.55 19.85 61.5 22.55 55.55 27.85 43.7 29.8 30.85 30.55 26.3 30.6 22.35 30.75 12.2 26.55 1.05 24.25 -4.95 21.7 -8.2 19.5 -10.9 16.1 -13.4
M 12.4 -5.5
Q 14.55 -6.1 16.8 -5.1 18.85 -4.1 20.25 -2.15 22.35 0.95 22.6 6.55 23.05 14.2 20.7 19 18.95 22.6 16.25 23.5 14.4 24.15 12.25 23.4 10.25 22.7 8.7 21.15 6.7 19.15 5.85 16.5 4.75 13.35 5.3 8.3 5.85 3.4 7.05 0.4 8.95 -4.5 12.4 -5.5 Z"/>

<path fill="#FFFFFF" stroke="none" d="
M 16.8 -5.1
Q 14.55 -6.1 12.4 -5.5 8.95 -4.5 7.05 0.4 5.85 3.4 5.3 8.3 4.75 13.35 5.85 16.5 6.7 19.15 8.7 21.15 10.25 22.7 12.25 23.4 14.4 24.15 16.25 23.5 18.95 22.6 20.7 19 23.05 14.2 22.6 6.55 22.35 0.95 20.25 -2.15 18.85 -4.1 16.8 -5.1 Z"/>
</g>
</defs>

<g transform="matrix( 1, 0, 0, 1, 1049.6,454.3) ">
<g transform="matrix( 1, 0, 0, 1, 0,0) ">
<use xlink:href="#Symbol_1_1_Layer0_0_FILL"/>
</g>
</g>
</svg>
