
<svg xmlns="http://www.w3.org/2000/svg" version="1.1" xmlns:xlink="http://www.w3.org/1999/xlink" preserveAspectRatio="none" x="0px" y="0px" width="1920px" height="1080px" viewBox="0 0 1920 1080">
<defs>
<g id="Symbol_2_1_Layer0_0_FILL">
<path fill="#000000" stroke="none" d="
M 7.8 -7.05
Q 6.8 -8.4 4.6 -11
L 0.25 -16.2
Q -1.1 -17.8 -2 -18.6 -3.4 -19.8 -4.75 -20.2 -5.1 -20.3 -5.4 -20.35 -6.35 -20.8 -7.55 -21.15 -15.95 -23.7 -25.2 -21 -34.05 -18.35 -40.7 -11.85 -46.95 -5.8 -50.75 2.95 -51.7 5.15 -52.5 7.5 -54.55 13.6 -55.4 20.45 -57.3 35.65 -53.15 52.35 -52.85 53.55 -52.5 54.65 -51.2 58.9 -49.6 61.2 -48.1 63.35 -44.05 66.8 -41.5 68.9 -40.05 69.9 -37.75 71.45 -35.6 72.15 -33.15 72.95 -30 73 -27.95 73 -24.25 72.6 -16.05 71.8 -12.2 70.65 -3.9 68.15 2.7 61.45 8.95 55.05 12.15 46.45 16.6 34.7 15.2 20.1 15.45 18.1 15.05 16.15 14.55 14.05 14.4 13 14.3 12.25 14.25 11.15 14.3 9.95 14.25 9.3 14.15 7.6 13.5 5.05 11.8 -1.6 7.8 -7.05
M -7.65 -1.75
Q -5.75 -5.65 -3.1 -5.45 -1.2 -5.3 0.5 -2.85 4.6 3.1 4.8 14.2 4.9 18.15 3.3 19.7 1.8 21.2 -0.6 20.85 -2.55 20.55 -4.4 19.05 -8.9 15.55 -9.7 9.3 -10.35 3.75 -7.65 -1.75 Z"/>

<path fill="#FFFFFF" stroke="none" d="
M -3.1 -5.45
Q -5.75 -5.65 -7.65 -1.75 -10.35 3.75 -9.7 9.3 -8.9 15.55 -4.4 19.05 -2.55 20.55 -0.6 20.85 1.8 21.2 3.3 19.7 4.9 18.15 4.8 14.2 4.6 3.1 0.5 -2.85 -1.2 -5.3 -3.1 -5.45 Z"/>
</g>
</defs>

<g transform="matrix( 1, 0, 0, 1, 1052.15,454.65) ">
<g transform="matrix( 1, 0, 0, 1, 0,0) ">
<use xlink:href="#Symbol_2_1_Layer0_0_FILL"/>
</g>
</g>
</svg>
