
<svg xmlns="http://www.w3.org/2000/svg" version="1.1" xmlns:xlink="http://www.w3.org/1999/xlink" preserveAspectRatio="none" x="0px" y="0px" width="1920px" height="1080px" viewBox="0 0 1920 1080">
<defs>
<g id="Symbol_1_0_Layer0_0_FILL">
<path fill="#4FE7DA" stroke="none" d="
M -67.65 -12.1
Q -68.0791015625 -10.9556640625 -67.45 -12.3
L -67.65 -12.1
M -67.7 -11.35
L -68.1 -11.15 -69.05 -10.2
Q -69.383984375 -9.5322265625 -69.7 -8.85 -68.7669921875 -10.1501953125 -67.7 -11.35
M -66.5 -12.6
L -66.7 -12.55 -66.85 -12.25
Q -66.6716796875 -12.428125 -66.5 -12.6 Z"/>

<path fill="#000000" stroke="none" d="
M -61.1 -16.75
L -61.55 -15.8 -63.45 -14.9 -63.9 -13.95
Q -64.15 -13.95 -64.35 -13.95 -65.2 -13.9 -65.3 -13
L -66.5 -12.6
Q -66.6716796875 -12.428125 -66.85 -12.25
L -67.15 -11.6 -67.7 -11.35
Q -68.7669921875 -10.1501953125 -69.7 -8.85 -74.9076171875 2.3154296875 -75.85 17.3 -76.3 24.5 -76.95 32.25 -75.85 47.6 -71.95 61.05 -71.5 62.55 -71.35 64.45
L -69.95 66.3
Q -68.75 70.85 -65.7 74.7 -65.15 75.4 -64.85 76.1
L -63.9 76.55 -63.45 77.5 -60.15 79.8
Q -59.9 80.65 -59.3 80.9 -58.7 81.2 -57.85 81.2
L -57.35 82.15
Q -54.08671875 82.7064453125 -51.2 82.55 -48.394921875 80.4732421875 -46.95 77.25 -38.55 58.6 -36.75 38.25 -34.95 17.7 -39.85 -2.25 -42.1 -11.3 -49.7 -16.5 -54.842578125 -19.996875 -60.1 -17.5 -60.3494140625 -17.3712890625 -60.65 -17.25 -61.488671875 -16.769140625 -62.35 -16.15 -63.8265625 -15.0861328125 -65.15 -13.9
L -61 -16.85 -61.1 -16.75
M -45.8 24.8
Q -50.35 35.6 -54.65 26.7 -56.4 23.1 -56.85 18.7 -57.85 8.7 -52.35 3.05
L -52.15 2.65
Q -40.75 9.2 -45.8 24.8 Z"/>

<path fill="#FFFFFF" stroke="none" d="
M -54.65 26.7
Q -50.35 35.6 -45.8 24.8 -40.75 9.2 -52.15 2.65
L -52.35 3.05
Q -57.85 8.7 -56.85 18.7 -56.4 23.1 -54.65 26.7 Z"/>
</g>
</defs>

<g transform="matrix( 1, 0, 0, 1, 1049.6,454.3) ">
<g transform="matrix( 1, 0, 0, 1, 0,0) ">
<use xlink:href="#Symbol_1_0_Layer0_0_FILL"/>
</g>
</g>
</svg>
