
<svg xmlns="http://www.w3.org/2000/svg" version="1.1" xmlns:xlink="http://www.w3.org/1999/xlink" preserveAspectRatio="none" x="0px" y="0px" width="1920px" height="1080px" viewBox="0 0 1920 1080">
<defs>
<g id="Layer0_0_FILL">
<path fill="#CCCCCC" stroke="none" d="
M 739.9 593.8
Q 737.05 594.1 735.65 593.9
L 734.25 593.6
Q 733.35 593.45 732.8 593.45 732.1 593.45 730.9 593.75 730.665625 593.8046875 730.45 593.85 727.9 593.4 725.25 594.6 722.8 595.7 721 597.8 718.15 601.1 716.5 607.4 714.788671875 613.7236328125 714.45 619.5 712.1775390625 626.8796875 711.25 634.3 710.65 639.05 712.25 641.15 713.25 642.45 715.2 643.2 716.55 643.65 718.85 644 721.4 644.45 723 644.3 725.3 644.15 726.7 642.95 728 641.8 728.4 639.75 728.7 637.95 728.25 636 727.95 634.7 727 632.45 726 630 725.7 628.95 724.45 624.8 725.35 618.05 726.65 608.6 726.65 606.95 726.65 603.60546875 726.9 602.1 727.3732421875 600.9287109375 727.9 599.65 728.6177734375 599.4314453125 729.45 599 733.85 596.65 739.25 594.65 739.6 594.55 739.85 594.3 740.1 594 739.9 593.8 Z"/>
</g>
</defs>

<g transform="matrix( 1, 0, 0, 1, 0,0) ">
<use xlink:href="#Layer0_0_FILL"/>
</g>
</svg>
