
<svg xmlns="http://www.w3.org/2000/svg" version="1.1" xmlns:xlink="http://www.w3.org/1999/xlink" preserveAspectRatio="none" x="0px" y="0px" width="1920px" height="1080px" viewBox="0 0 1920 1080">
<defs>
<g id="Layer0_0_FILL">
<path fill="#CCCCCC" stroke="none" d="
M 447.1 713.25
Q 447.024609375 713.3408203125 446.95 713.4 446.16171875 714.0068359375 445.45 714.65 443.3794921875 716.525 442.4 718.35 441.40546875 720.1396484375 441.35 722 441.2537109375 724.019140625 442.35 725.2 444.2009765625 727.3248046875 449.35 726.6 449.92421875 726.544140625 450.55 726.45 450.57421875 726.4068359375 450.65 726.45 461.48984375 724.3998046875 480.65 717.9 501.6224609375 710.8560546875 510.75 708.75 518.4103515625 706.998828125 528.1 705.8 533.477734375 705.13046875 545.45 703.95 547.676171875 703.71484375 549.75 703.55 549.8 703.525 549.85 703.55 549.9 703.5123046875 549.95 703.55 566.8490234375 701.9865234375 575.15 701.05 591.7119140625 699.1966796875 604.85 696.75 604.999609375 696.703515625 605.2 696.65 605.35 696.6623046875 605.5 696.65 613.0177734375 695.2453125 618.05 693.8 625.1484375 691.8103515625 630.7 688.9 630.8244140625 688.791015625 630.95 688.75 631.124609375 688.4033203125 631.3 688
L 633.3 683.8
Q 634.6755859375 680.9681640625 635.95 678.75 624.8927734375 684.0830078125 611.35 686.9 608.2013671875 687.523828125 604.85 688.05 598.406640625 689.101171875 591.05 689.7 590.649609375 689.7033203125 590.3 689.75 582.48828125 690.2921875 569.35 690.55 539.2080078125 691.0015625 534 691.2 513.941015625 691.941796875 498.55 694.15 483.712890625 696.3033203125 472.25 700.25 458.2490234375 705.0294921875 447.85 712.75 447.43671875 713.031640625 447.1 713.25
M 476.4 703.55
Q 477.8693359375 703.1453125 481.85 702.6
L 494.95 701
Q 499.9951171875 700.425 502.2 700.35 506.2326171875 700.2408203125 509.15 701 508.116015625 701.6908203125 506.55 701.65 506.0373046875 701.6091796875 503.8 701.3 500.2990234375 700.8251953125 493.45 702.25 486.5994140625 703.5759765625 483.3 704.7 482.6912109375 704.9490234375 474.6 708.35 469.4009765625 710.583984375 465.8 710.95 464.076171875 711.10546875 463.9 710.15 463.7744140625 709.2474609375 465.45 708.35 468.94921875 706.4533203125 470.8 705.6 473.866015625 704.1908203125 476.4 703.55
M 452.1 713.9
L 455.1 711.85
Q 456.26640625 711.1 456.85 711.2 457.17421875 711.3318359375 457.55 711.75 458.79921875 713.153515625 458.4 714.55 458.28984375 715.013671875 457.8 715.6 457.6271484375 716.0046875 457.1 716.65 456.8267578125 717.1205078125 456.25 718.1 455.5150390625 719.0009765625 454.4 719.4 452.9255859375 719.8931640625 451.35 719.45 449.7275390625 718.9669921875 449.45 717.85 449.1658203125 716.84765625 450.1 715.55 450.68125 714.8953125 452.1 713.9
M 707.15 683.1
Q 705.837890625 683.616796875 704.6 684.7 704.5955078125 684.65078125 704.6 684.6 704.6248046875 684.0248046875 704.4 683.65 703.8 682.65 702.45 683.1 701.3 683.45 700.25 684.45 684.4 699.85 660.75 714.2 646.35 722.9 616.9 737.8
L 547.85 772.75
Q 514.1 789.8 497.4 800.05 470.25 816.7 452.4 834.85 447.5 839.8 445.1 843.9 441.9 849.45 442.3 854.6 442.8 860.6 447.9 865.3 452.5 869.6 459.05 871.3 469.7 874.05 481.65 870.25 492.3 866.9 502.05 859 509.4 853 518.35 842.65 528.25 830.7 533.35 824.9 559.35 795.65 606.5 767.05 619.6 759.1 647.55 743.45 674.8 728.2 688.55 719.8 695.8 715.35 699.8 712.35 705.75 707.9 709.6 703.2 714.5 697.15 714.8 691.65 715 688.3 713.4 685.4 711.7 682.3 708.8 681.25 708.894921875 681.97421875 708.95 682.7 708.0880859375 682.715234375 707.15 683.1
M 457.25 840.15
Q 463.85 834 470.2 834.6 471.85 834.7 473.15 835.4 474.5 836.2 475.2 837.6 476 839.2 475.45 841.4 475.1 842.85 474 844.4 473.35 845.35 471.85 847.05
L 468.55 850.75
Q 466.8 852.7 465.6 853.6 463.8 854.95 462 855 460.45 855.05 457.55 853.75 455.05 852.6 454.2 851.55 453.15 850.35 453 848.6 452.8 846.95 453.4 845.35 454.3 842.95 457.25 840.15
M 529.15 787.55
Q 536.75 782.9 540.7 780.8 544.35 778.85 551.1 775.85
L 563.7 770.15
Q 583.25 761.4 592.9 757.9 592.5 759.9 590.25 761.5 589.4 762.15 586 763.9 583.15 765.45 577.9 769.15 575.7 770.55 572.65 772.2 570.85 773.15 567.25 774.95 562.3 777.5 550.85 783.9
L 536.95 791.8
Q 519.45 801.75 511.15 806.9 497 815.7 486.7 824 485 825.4 484.1 826 482.55 827.05 481.15 827.4 479.45 827.8 477.85 827.25 476.15 826.7 475.45 825.3 473.95 822.2 478.25 817.8 483.05 813 488.75 808.9 495.9 803.85 508.65 797.75 525.05 789.85 529.15 787.55
M 453.6 909.95
Q 452.871484375 909.4240234375 452.4 909.1 450.95 908.1 449.8 907.9 448.1 907.6 446.2 908.6 444.85 909.3 443 910.95 439.35 914.15 437.65 915.9 434.8 918.8 433.05 921.55 431 924.85 430.3 928.3 429.5 932.15 430.5 935.5 431.3 938.25 433.8 941.65 437.5 946.95 441.4 948.65 445 950.25 449.3 949.45 453.35 948.65 456.65 946 462.15 941.6 465.35 932.5 467.75 925.7 466.55 921.05 465.9 918.6 464.3 916.55 462.7935546875 914.6197265625 460.75 913.5 459.7189453125 911.5744140625 458.05 910.65 456.1826171875 909.5828125 453.6 909.95
M 449.7 914.65
Q 451.3 914.65 451.2 913.85 454.65 914.8 456.9 917.8 451.85 924.65 445.55 930.35 444.6 931.3 443.8 931.65 442.65 932.2 441.3 931.9 439.95 931.6 439.05 930.65 437.2 928.7 437.7 925.85 438 923.95 439.45 922 440.45 920.7 442.45 918.75 444.55 916.8 445.8 916 447.85 914.7 449.7 914.65 Z"/>

<path fill="#FFFFFF" stroke="none" d="
M 455.1 711.85
L 452.1 713.9
Q 450.68125 714.8953125 450.1 715.55 449.1658203125 716.84765625 449.45 717.85 449.7275390625 718.9669921875 451.35 719.45 452.9255859375 719.8931640625 454.4 719.4 455.5150390625 719.0009765625 456.25 718.1 456.8267578125 717.1205078125 457.1 716.65 457.6271484375 716.0046875 457.8 715.6 458.28984375 715.013671875 458.4 714.55 458.79921875 713.153515625 457.55 711.75 457.17421875 711.3318359375 456.85 711.2 456.26640625 711.1 455.1 711.85
M 481.85 702.6
Q 477.8693359375 703.1453125 476.4 703.55 473.866015625 704.1908203125 470.8 705.6 468.94921875 706.4533203125 465.45 708.35 463.7744140625 709.2474609375 463.9 710.15 464.076171875 711.10546875 465.8 710.95 469.4009765625 710.583984375 474.6 708.35 482.6912109375 704.9490234375 483.3 704.7 486.5994140625 703.5759765625 493.45 702.25 500.2990234375 700.8251953125 503.8 701.3 506.0373046875 701.6091796875 506.55 701.65 508.116015625 701.6908203125 509.15 701 506.2326171875 700.2408203125 502.2 700.35 499.9951171875 700.425 494.95 701
L 481.85 702.6
M 540.7 780.8
Q 536.75 782.9 529.15 787.55 525.05 789.85 508.65 797.75 495.9 803.85 488.75 808.9 483.05 813 478.25 817.8 473.95 822.2 475.45 825.3 476.15 826.7 477.85 827.25 479.45 827.8 481.15 827.4 482.55 827.05 484.1 826 485 825.4 486.7 824 497 815.7 511.15 806.9 519.45 801.75 536.95 791.8
L 550.85 783.9
Q 562.3 777.5 567.25 774.95 570.85 773.15 572.65 772.2 575.7 770.55 577.9 769.15 583.15 765.45 586 763.9 589.4 762.15 590.25 761.5 592.5 759.9 592.9 757.9 583.25 761.4 563.7 770.15
L 551.1 775.85
Q 544.35 778.85 540.7 780.8
M 470.2 834.6
Q 463.85 834 457.25 840.15 454.3 842.95 453.4 845.35 452.8 846.95 453 848.6 453.15 850.35 454.2 851.55 455.05 852.6 457.55 853.75 460.45 855.05 462 855 463.8 854.95 465.6 853.6 466.8 852.7 468.55 850.75
L 471.85 847.05
Q 473.35 845.35 474 844.4 475.1 842.85 475.45 841.4 476 839.2 475.2 837.6 474.5 836.2 473.15 835.4 471.85 834.7 470.2 834.6
M 451.2 913.85
Q 451.3 914.65 449.7 914.65 447.85 914.7 445.8 916 444.55 916.8 442.45 918.75 440.45 920.7 439.45 922 438 923.95 437.7 925.85 437.2 928.7 439.05 930.65 439.95 931.6 441.3 931.9 442.65 932.2 443.8 931.65 444.6 931.3 445.55 930.35 451.85 924.65 456.9 917.8 454.65 914.8 451.2 913.85 Z"/>
</g>
</defs>

<g transform="matrix( 1, 0, 0, 1, 0,0) ">
<use xlink:href="#Layer0_0_FILL"/>
</g>
</svg>
