
<svg xmlns="http://www.w3.org/2000/svg" version="1.1" xmlns:xlink="http://www.w3.org/1999/xlink" preserveAspectRatio="none" x="0px" y="0px" width="1920px" height="1080px" viewBox="0 0 1920 1080">
<defs>
<g id="Layer0_0_FILL">
<path fill="#CCCCCC" stroke="none" d="
M 810.8 407.55
Q 812.6 407.6 815.3 408.2
L 822.95 409.9
Q 823.45 410.05 823.95 409.95 824.55 409.8 824.55 409.35 823.4 408.85 822.15 408.45 821.05 406.8 818.3 405.6 817.55 405.3 816.75 405.05 816.35 404.75 815.85 404.55 813.45 403.4 810.6 403.45 810.05 403.45 809.5 403.55 805.45 403.2 801.7 404 800.5 403.9 799.15 404.2 795.15 405.05 791.4 407.15 789.9 407.65 788.3 408.7 786.1 410.1 783 413.15 777.3 419 770.65 426.8 766.55 431.75 759 441.2 754.35 447.15 752.5 449.75 747.9 456.5 743.4 465.7 740.7 471.35 736 482.55 732.45 491.1 730.75 495.8 728.05 503.1 726.8 509.35 724.85 518.55 727.15 523.9 728.65 527.35 731.95 529.35 735.45 531.4 738.95 530.35 741.35 529.65 743.15 527.45 744.75 525.45 745.55 522.8 746.15 520.7 746.4 517.7 746.55 514.2 746.7 512.5 747 506.1 748.45 498.25 749.35 493.4 751.5 484
L 754.55 470.75
Q 755.15 468.3 755.65 466.35 756.35 464.15 756.8 462.65 756.9 461.95 757.1 461.35 758.4 457.75 760.85 453.6 762.4 451.05 765.65 446.3 772.6 435.85 776.5 430.35 780.75 424.45 784.7 419.5 788.55 415.65 794.3 412 795 411.55 795.8 411.1 796.6 410.8 796.95 410.6 797.05 410.45 797.2 410.3 797 410.6 796.8 410.8 797.35 411.3 798.2 411 798.65 410.9 799.7 410.25 800.95 409.5 803.9 408.65 808.65 407.45 810.8 407.55
M 741.85 481.75
L 743.45 481.75
Q 742.9 483.2 742.85 485.95 742.8 489.1 742.5 490.2 742.4 490.55 741.2 493.55 740.6 494.95 739.8 497.9 738.5 502.85 738.55 505.35 738.6 506.1 738.7 507.65 738.7 509.05 738.6 509.95 738.5 510.35 737.85 512.3 737.35 513.7 737.45 514.6 737.5 515.25 738.05 516.85 738.5 518.15 738.4 519 738.2 520.1 737.3 520.75 736.35 521.5 735.25 521.35 732.55 520.95 731.8 515.75 731.35 511 731.3 509.25 731.35 507.45 731.6 505.2 731.85 502.95 732.95 498.5 734.1 493.3 735.85 491 736.5 490.1 737.75 488.95 739.3 487.35 739.75 486.9 742.05 484.25 741.85 481.75 Z"/>

<path fill="#FFFFFF" stroke="none" d="
M 743.45 481.75
L 741.85 481.75
Q 742.05 484.25 739.75 486.9 739.3 487.35 737.75 488.95 736.5 490.1 735.85 491 734.1 493.3 732.95 498.5 731.85 502.95 731.6 505.2 731.35 507.45 731.3 509.25 731.35 511 731.8 515.75 732.55 520.95 735.25 521.35 736.35 521.5 737.3 520.75 738.2 520.1 738.4 519 738.5 518.15 738.05 516.85 737.5 515.25 737.45 514.6 737.35 513.7 737.85 512.3 738.5 510.35 738.6 509.95 738.7 509.05 738.7 507.65 738.6 506.1 738.55 505.35 738.5 502.85 739.8 497.9 740.6 494.95 741.2 493.55 742.4 490.55 742.5 490.2 742.8 489.1 742.85 485.95 742.9 483.2 743.45 481.75 Z"/>
</g>
</defs>

<g transform="matrix( 1, 0, 0, 1, 0,0) ">
<use xlink:href="#Layer0_0_FILL"/>
</g>
</svg>
