
<svg xmlns="http://www.w3.org/2000/svg" version="1.1" xmlns:xlink="http://www.w3.org/1999/xlink" preserveAspectRatio="none" x="0px" y="0px" width="1920px" height="1080px" viewBox="0 0 1920 1080">
<defs>
<g id="Layer0_0_FILL">
<path fill="#CCCCCC" stroke="none" d="
M 728.45 561.3
Q 724.35 568.4 720 577.7 717.25 583.5 712.45 594.6 709.5 601.55 708.4 604.5 705.65 612.2 703.7 622.25 702.55 628.4 700.9 640.45 699.65 649.6 699.2 654.6 698.5 662.4 698.85 668.75 699.35 678.1 702.95 682.65 705.35 685.65 709.05 686.7 713 687.8 716.05 685.9 718.15 684.6 719.3 682 720.35 679.7 720.45 676.9 720.55 674.65 720 671.7 719.3 668.3 718.95 666.6 717.6 660.35 717 652.35 716.6 647.55 716.25 637.9
L 715.75 624.25
Q 715.65 621.75 715.65 619.75 715.85 617.4 715.85 615.85 715.8 615.2 715.8 614.6 716.15 610.75 717.45 606.1 718.25 603.25 720.15 597.8 724.2 585.9 726.55 579.6 729.1 572.75 731.65 567 734.45 562.25 739.05 557.3 739.60703125 556.715234375 740.25 556 740.951171875 555.55546875 741.2 555.2 741.309375 555.0359375 741.4 554.9 741.25 555.2 741.15 555.5 741.8 555.8 742.55 555.3 742.95 555.05 743.8 554.2 744.8 553.1 747.4 551.6 751.75 549.15 753.85 548.7 755.55 548.3 758.35 548.2
L 766.2 547.85
Q 766.75 547.85 767.2 547.6 767.7 547.3 767.6 546.85 766.3451171875 546.7244140625 765.05 546.6 763.56796875 545.3578125 760.55 544.95 759.7326171875 544.8501953125 758.9 544.8 758.523828125 544.567578125 757.95 544.5 755.35 544 752.6 544.85 752.0669921875 545.0037109375 751.55 545.2 747.5787109375 545.8982421875 744.05 547.55 742.93828125 547.8640625 741.7 548.5 738.1 550.3 735 553.3 733.65 554.2 732.4 555.6 730.6 557.6 728.45 561.3
M 706.3 638.2
L 707.9 637.75
Q 707.7 639.3 708.35 642 709.1 645 709.1 646.2 709.1 646.55 708.7 649.75 708.5 651.25 708.5 654.3 708.5 659.4 709.2 661.85 709.45 662.6 709.95 664.05 710.35 665.35 710.45 666.25 710.5 666.65 710.35 668.7 710.25 670.2 710.55 671.1 710.75 671.65 711.7 673.05 712.45 674.25 712.55 675.05 712.65 676.15 711.95 677.05 711.25 677.95 710.15 678.1 707.45 678.4 705.4 673.55 703.75 669.1 703.25 667.45 702.8 665.75 702.45 663.45 702.15 661.2 702.05 656.65 701.85 651.3 702.9 648.7 703.3 647.65 704.2 646.15 705.3 644.25 705.6 643.7 707.2 640.5 706.3 638.2 Z"/>

<path fill="#FFFFFF" stroke="none" d="
M 707.9 637.75
L 706.3 638.2
Q 707.2 640.5 705.6 643.7 705.3 644.25 704.2 646.15 703.3 647.65 702.9 648.7 701.85 651.3 702.05 656.65 702.15 661.2 702.45 663.45 702.8 665.75 703.25 667.45 703.75 669.1 705.4 673.55 707.45 678.4 710.15 678.1 711.25 677.95 711.95 677.05 712.65 676.15 712.55 675.05 712.45 674.25 711.7 673.05 710.75 671.65 710.55 671.1 710.25 670.2 710.35 668.7 710.5 666.65 710.45 666.25 710.35 665.35 709.95 664.05 709.45 662.6 709.2 661.85 708.5 659.4 708.5 654.3 708.5 651.25 708.7 649.75 709.1 646.55 709.1 646.2 709.1 645 708.35 642 707.7 639.3 707.9 637.75 Z"/>
</g>
</defs>

<g transform="matrix( 1, 0, 0, 1, 0,0) ">
<use xlink:href="#Layer0_0_FILL"/>
</g>
</svg>
