
<svg xmlns="http://www.w3.org/2000/svg" version="1.1" xmlns:xlink="http://www.w3.org/1999/xlink" preserveAspectRatio="none" x="0px" y="0px" width="1920px" height="1080px" viewBox="0 0 1920 1080">
<defs>
<g id="Layer6_0_FILL">
<path fill="#000000" stroke="none" d="
M 1313.3 889.35
Q 1311.1 885.65 1308.95 881.95 1301.05 868.5 1292.85 854.95 1281.9 836.75 1270.6 818.55 1260.25 801.9 1249.65 785.65 1241.9 773.85 1233.95 762.35 1227.4 752.65 1220.2 743.55 1219.95 743.25 1219.75 742.9 1216.7 739.05 1213.45 735.4 1201.5 721.9 1187 710.95 1183.9 708.6 1180.8 706.35 1168.55 697.75 1155.15 691.45 1148.25 688.15 1141.05 685.55 1137.15 684.15 1133.2 682.9 1131.8 682.5 1130.4 682.1 1125.35 681.4 1120.3 680.9 1115.7 679.7 1109.8 678.55 1074.2 671.55 1037.7 669.45 1026.85 668.8 1015.95 668.6 1013.65 668.55 1011.35 668.5 1016 669.9 1025.4 671.6 1030.4 672.55 1035.45 673.4 1044.95 675.05 1054.55 676.55 1070.4 679.05 1086.6 681.3 1099.9 683.15 1107.3 684.3 1110.65 684.8 1112.85 685.15 1121.35 686.7 1128.6 688.65 1130.95 689.4 1133.3 690.3 1142.45 693.65 1151.15 698.05 1167.2 706.25 1181.5 717.1 1195.65 727.85 1208.15 740.85 1208.25 740.9 1208.3 741 1211.3 744.1 1214.2 747.25 1223.6 757.5 1232.05 768.5 1242.6 782.1 1252.25 796.5 1260.75 809.45 1268.85 822.75 1274.85 832.55 1280.75 842.6 1283.9 847.95 1287.05 853.35 1296.85 870.4 1305.85 887.7 1306.9 889.75 1308 891.8 1314.4 903.8 1321.35 915.55 1322.05 915.15 1322.7 914.75 1323.55 914.3 1324.4 913.9 1324.6 913.75 1324.8 913.65 1325.9 913.05 1327 912.45 1323.6 907 1320.35 901.45 1316.8 895.4 1313.3 889.35
M 1374.7 790.55
Q 1366.15 775.4 1357.7 760.55 1348.5 744.45 1339.05 728.65 1329.1 712.05 1318.65 695.7 1308.9 680.55 1298.35 665.95 1293.5 659.3 1288 653.3 1286.65 651.8 1285.3 650.4 1284.1 646.9 1279.95 643.35 1279.85 641.85 1279.05 641.05 1278.75 640.7 1278.4 640.4 1278.35 641 1278.5 641.65 1278.55 641.85 1278.55 642.05 1278.6 642.2 1278.65 642.3 1278.3 642 1278 641.75 1221.6 599.55 1168.45 581.1 1156.9 577.1 1141.9 573 1133.6 570.7 1115 566.05 1109.9 564.75 1105.6 563.75 1095.15 561.2 1089.1 559.95 1074.55 557 1062.65 556.15 1060.2 556 1058 555.95 1052.4 555.85 1048.1 556.5 1047.35 556.6 1046.65 556.75 1047.3 556.8 1047.95 556.9 1052.35 557.3 1056.75 557.85 1080.55 560.55 1103.65 565.65 1132.3 571.95 1160 581.85 1214.8 601.55 1261.9 633.95 1272.4 641.15 1278 646.6 1280.6 649.15 1283 652 1284.2 653.6 1285.45 655.15 1286.85 656.95 1288.25 658.75 1298.05 671.1 1307 684.1 1316.6 698.2 1325.65 712.9 1335.25 728.5 1344.5 744.5 1354.05 761.05 1363.4 777.75 1372.75 794.55 1382.1 811.25 1391.45 828.05 1401.25 844.55 1402.35 846.4 1403.5 848.3 1405.55 851.7 1407.65 855.1 1408.6 856.7 1409.6 858.3 1409.85 858.1 1410.15 857.95
L 1412.3 862.2
Q 1414.8 867.15 1416.4 869.8 1417.15 870.95 1418.1 872.45 1418.95 873.75 1420 875.3
L 1429.35 888.65
Q 1430.5 890.2 1431.3 890.95 1432.5 892 1433.85 892.15 1434.65 892.25 1435.2 892.05 1435.7 891.8 1435.9 891.25 1436.2 890.55 1435.75 889.6 1434.9 887.5 1431.95 883.5 1427.05 876.65 1422.35 869.85 1416.6 861.4 1411.25 853 1410.05 851.05 1408.85 849.15 1408.35 848.4 1407.85 847.95 1407.45 847.35 1407.1 846.65 1398.8 832.95 1390.9 819.2 1382.8 805 1374.7 790.55
M 1298.05 291.5
Q 1298.85 291.65 1299.85 291.85 1333.9 297.95 1359.2 305.3 1362.85 306.4 1366.4 307.5 1393.3 315.9 1415 327.3 1427.2 333.7 1445.55 345.35 1469.9 360.9 1475.55 364.25 1492.8 374.45 1507.35 380.3 1507.7 380.45 1508 380.55 1525.5 387.45 1542 389.4 1523.3 390.25 1505.35 386.55 1487.3 382.8 1471.3 374.65 1470.05 374 1468.7 374.15 1467.2 374.3 1467.05 375.5 1466.95 376.45 1468.3 377.45 1482.7 387.8 1510 400.1 1541.1 414.05 1552.05 420.25 1550.8 420.5 1549.5 420.8 1551.95 422.2 1554.3 423.45 1562.15 427.55 1570.15 431.2 1581.1 436.15 1593.15 439.1 1615.8 444.9 1639 449.1 1653.95 451.95 1669.1 454.3 1671.8 454.7 1674.5 455.1 1678.45 455.7 1682.4 456.3 1674.85 459.65 1667.2 462.2 1653.5 466.5 1639.45 467.7 1593.35 471.6 1549.25 461.35 1546.85 460.75 1546.75 463.15 1546.55 466.45 1550.45 467.65 1558.75 469.95 1566.3 474.5 1586.85 486.9 1605.95 501.6 1623.7 515.2 1639.6 530.9 1654.1 545.2 1666.95 561.05 1674.5 570.45 1680.2 581.15 1681.35 583.25 1682.5 585.35 1671.85 577.25 1660.75 569.35 1659.95 568.75 1659.2 568.15 1646.75 559.4 1633.75 551.3 1623.2 544.7 1612.6 538.2 1596.95 528.7 1580.05 521.6 1578.1 520.75 1576.85 522.35 1576.75 522.45 1576.75 522.6 1576.85 523.05 1577.15 523.4 1586.85 534.5 1596.15 546.1 1609.55 563.1 1619.7 582.6 1627.95 598.55 1633.95 615.7 1635.1 619.1 1636.35 622.5 1626.35 610.45 1615.9 599.05 1604.55 586.55 1592.95 574.4 1582.45 563.5 1571.65 552.95 1557.9 539.6 1543.1 527.85 1541.35 526.35 1539.4 528.05 1538.9 528.5 1538.55 529.1
L 1539.9 531.55 1576.1 565.8
Q 1578.5 567.85 1579.7 570.5 1580.6 572.65 1581.65 574.85 1586.7 585.1 1591.85 595.45 1599.5 610.7 1607.55 625.65 1613.8 637.25 1620.6 648.45 1627.4 659.6 1634.5 670.45 1640.35 679.2 1646.5 687.7 1649.8 692.35 1653.25 696.9 1655.3 699.6 1657.35 702.25 1663.6 710.2 1670.15 717.95 1673.25 721.65 1676.45 725.2 1676.6 725.35 1676.7 725.55 1677.1 725.95 1677.55 726.45 1681.7 724.75 1685.85 723.05 1685.55 722.7 1685.25 722.4 1685.1 722.25 1684.95 722.05 1680.55 717.05 1676.3 711.95 1670.25 704.75 1664.5 697.45 1661.25 693.25 1658 689.1 1656.15 686.65 1654.35 684.25 1644.6 671.25 1635.5 657.85 1619.75 634.65 1605.75 610.4 1601.7 603.5 1597.85 596.55 1593.6 588.85 1589.45 581 1588.15 578.6 1586.95 576.2 1595.5 584.25 1603.85 592.7 1618.95 608.05 1631.05 625.8 1635 631.6 1640.25 635.65 1640.35 635.7 1640.5 635.65 1641.9 635 1641.9 633.5 1642.05 626.95 1640 620.75 1636.1 608.65 1631.2 596.9 1622.85 577 1611.85 559 1608.9 554.3 1605.9 549.8 1601.75 543.6 1597.3 537.7 1595.75 535.65 1594.2 533.55 1603.9 538.85 1613.5 544.35 1625.4 551.2 1636.95 558.7 1653.05 569.1 1668 581.05 1676.2 587.6 1685.3 592 1686 592.3 1686.85 592.5 1689.75 591.4 1689.25 588.65 1688.45 583.75 1685.85 579.85 1678.15 568.45 1669.9 557.75 1658.95 543.65 1646.45 531.05 1637 521.55 1626.8 512.8 1610.9 499.25 1594 487.1 1582.55 478.8 1570.55 471.35 1568.05 469.75 1565.6 468.2 1581.15 470.9 1597 472.45 1617.05 474.4 1637.6 472.85 1648.6 471.85 1659.25 469.2 1672.35 466.1 1685.05 460.65 1690.55 458.3 1694.3 453.95 1694.4 453.85 1694.5 453.65 1694.5 452.9 1693.8 452.65 1687.9 449.85 1681.1 448.85 1662.55 446.2 1644 443.3 1627.8 440.75 1611.85 437.4 1591.35 432.95 1572.1 425.45 1572.05 424.7 1571.65 424.1 1570.8 422.8 1568.3 421.75
L 1494.55 387.1
Q 1512.65 392.25 1531.65 393 1536.8 393.2 1540.35 392.85 1545.1 392.35 1548.85 390.6 1550.75 389.6 1550.85 388.55 1551.1 386.8 1548 386.35 1524.35 383 1502.75 373.5 1487 366.6 1464.45 352.05 1433.25 331.95 1427.3 328.55 1401.5 313.7 1371.9 303.75 1339.15 292.7 1301.65 287.55 1298.6 287.1 1296.7 287.25 1293.85 287.5 1292.05 288.9 1293.4 290.2 1295.7 290.9 1296.55 291.2 1298.05 291.5
M 1504.2 612.9
Q 1504.7 613.65 1505.3 614.35 1516.05 628.3 1533 628.55 1536.75 618.35 1529.55 610.6 1522.45 602.85 1515.45 594.95 1508.9 587.6 1500.95 587.5 1506.2 592.25 1511.35 597.15 1516.6 602.1 1521.95 606.55 1531.45 614.45 1531.25 626.45 1514.05 623.6 1503.65 608.75 1497.35 599.8 1489.8 605.45 1494.3 610 1499.1 614.3 1515.05 628.5 1512.5 647.9 1501 650.55 1492 643.65 1475.7 631 1467.85 611.75 1467.4 612.4 1467.5 612.8 1473.85 632.85 1490 646.75 1502.45 657.4 1515.25 648.05 1516.65 647.05 1516.45 645.5 1514.4 628.2 1504.05 615.4 1500.55 611.1 1496.15 607.3 1501.3 608.75 1504.2 612.9
M 1428.1 631.9
Q 1428.2 634.9 1428.7 637.85 1432.75 660.25 1453.95 663.4 1455.2 663.4 1456.45 663.45 1461.3 662.95 1461.5 658.05 1462.45 637.2 1451.4 619.45
L 1448.75 618.95
Q 1453.65 637.8 1456.6 657.2 1454.75 657.75 1453 657.05 1432.8 649.05 1428.55 625.85 1428.1 628.9 1428.1 631.9
M 1418.2 632.25
L 1417.85 630.7
Q 1415.6 631.65 1415.25 633.7 1414.75 637.15 1413.3 640.1 1411.55 643.75 1407.7 644.2 1400.2 637.7 1396.35 628.15
L 1394.8 628.65
Q 1395.25 630.35 1395.7 632.15 1398.1 642.3 1407 646.7 1408.15 646.65 1409.15 646.3 1413.2 644.6 1414.55 640.2 1415.85 635.8 1418.2 632.25 Z"/>

<path fill="#CCCCCC" stroke="none" d="
M 1363.4 777.75
Q 1354.05 761.05 1344.5 744.5 1335.25 728.5 1325.65 712.9 1316.6 698.2 1307 684.1 1298.05 671.1 1288.25 658.75 1286.85 656.95 1285.45 655.15 1284.2 653.6 1283 652 1280.6 649.15 1278 646.6 1272.4 641.15 1261.9 633.95 1214.8 601.55 1160 581.85 1132.3 571.95 1103.65 565.65 1080.55 560.55 1056.75 557.85 1052.35 557.3 1047.95 556.9 1038.2 577.5 1031.3 596.9 1027.9 606.2 1025.25 615.25 1024.2 618.7 1023.3 622.05 1016.3 647.7 1016.1 666.7
L 1015.95 668.6
Q 1026.85 668.8 1037.7 669.45 1074.2 671.55 1109.8 678.55 1115.7 679.7 1120.3 680.9 1125.35 681.4 1130.4 682.1 1131.8 682.5 1133.2 682.9 1137.15 684.15 1141.05 685.55 1148.25 688.15 1155.15 691.45 1168.55 697.75 1180.8 706.35 1183.9 708.6 1187 710.95 1201.5 721.9 1213.45 735.4 1216.7 739.05 1219.75 742.9 1219.95 743.25 1220.2 743.55 1227.4 752.65 1233.95 762.35 1241.9 773.85 1249.65 785.65 1260.25 801.9 1270.6 818.55 1281.9 836.75 1292.85 854.95 1301.05 868.5 1308.95 881.95 1311.1 885.65 1313.3 889.35 1316.8 895.4 1320.35 901.45 1323.6 907 1327 912.45
L 1326.85 913.65 1328.75 913.65
Q 1334.65 915.15 1337.55 915.15 1347.75 915.15 1375.7 908.8 1404.15 902.35 1435.35 892.7
L 1435.2 892.05
Q 1434.65 892.25 1433.85 892.15 1432.5 892 1431.3 890.95 1430.5 890.2 1429.35 888.65
L 1420 875.3
Q 1418.95 873.75 1418.1 872.45 1417.15 870.95 1416.4 869.8 1414.8 867.15 1412.3 862.2
L 1410.15 857.95
Q 1409.85 858.1 1409.6 858.3 1408.6 856.7 1407.65 855.1 1405.55 851.7 1403.5 848.3 1402.35 846.4 1401.25 844.55 1391.45 828.05 1382.1 811.25 1372.75 794.55 1363.4 777.75 Z"/>

<path fill="#FFFFFF" stroke="none" d="
M 1298.05 291.5
Q 1297 291.8 1296 292.1 1294.5 292.6 1293.05 293.1 1279.05 297.85 1263.4 307.65 1244.8 319.15 1223.9 337.65 1204.95 354.4 1179.35 380.85 1167.15 393.4 1131.3 431.8 1107.65 457 1086.05 489.5 1065.6 520.2 1049.6 553.4 1048.85 554.95 1048.1 556.5 1052.4 555.85 1058 555.95 1060.2 556 1062.65 556.15 1074.55 557 1089.1 559.95 1095.15 561.2 1105.6 563.75 1109.9 564.75 1115 566.05 1133.6 570.7 1141.9 573 1156.9 577.1 1168.45 581.1 1221.6 599.55 1278 641.75
L 1278.5 641.65
Q 1278.35 641 1278.4 640.4 1278.75 640.7 1279.05 641.05 1279.85 641.85 1279.95 643.35 1284.1 646.9 1285.3 650.4 1286.65 651.8 1288 653.3 1293.5 659.3 1298.35 665.95 1308.9 680.55 1318.65 695.7 1329.1 712.05 1339.05 728.65 1348.5 744.45 1357.7 760.55 1366.15 775.4 1374.7 790.55 1382.8 805 1390.9 819.2 1398.8 832.95 1407.1 846.65 1407.45 847.35 1407.85 847.95 1408.35 848.4 1408.85 849.15 1410.05 851.05 1411.25 853 1416.6 861.4 1422.35 869.85 1427.05 876.65 1431.95 883.5 1434.9 887.5 1435.75 889.6 1436.2 890.55 1435.9 891.25
L 1439.5 891.4
Q 1453.15 887.1 1465.7 882.75 1534.2 858.85 1569.05 833.05 1617.85 797.05 1644.75 767.8 1662.15 748.9 1676.45 725.2 1673.25 721.65 1670.15 717.95 1663.6 710.2 1657.35 702.25 1655.3 699.6 1653.25 696.9 1649.8 692.35 1646.5 687.7 1640.35 679.2 1634.5 670.45 1627.4 659.6 1620.6 648.45 1613.8 637.25 1607.55 625.65 1599.5 610.7 1591.85 595.45 1586.7 585.1 1581.65 574.85 1580.6 572.65 1579.7 570.5 1578.5 567.85 1576.1 565.8
L 1539.9 531.55 1538.55 529.1
Q 1538.9 528.5 1539.4 528.05 1541.35 526.35 1543.1 527.85 1557.9 539.6 1571.65 552.95 1582.45 563.5 1592.95 574.4 1604.55 586.55 1615.9 599.05 1626.35 610.45 1636.35 622.5 1635.1 619.1 1633.95 615.7 1627.95 598.55 1619.7 582.6 1609.55 563.1 1596.15 546.1 1586.85 534.5 1577.15 523.4 1576.85 523.05 1576.75 522.6 1576.75 522.45 1576.85 522.35 1578.1 520.75 1580.05 521.6 1596.95 528.7 1612.6 538.2 1623.2 544.7 1633.75 551.3 1646.75 559.4 1659.2 568.15 1659.95 568.75 1660.75 569.35 1671.85 577.25 1682.5 585.35 1681.35 583.25 1680.2 581.15 1674.5 570.45 1666.95 561.05 1654.1 545.2 1639.6 530.9 1623.7 515.2 1605.95 501.6 1586.85 486.9 1566.3 474.5 1558.75 469.95 1550.45 467.65 1546.55 466.45 1546.75 463.15 1546.85 460.75 1549.25 461.35 1593.35 471.6 1639.45 467.7 1653.5 466.5 1667.2 462.2 1674.85 459.65 1682.4 456.3 1678.45 455.7 1674.5 455.1 1671.8 454.7 1669.1 454.3 1653.95 451.95 1639 449.1 1615.8 444.9 1593.15 439.1 1581.1 436.15 1570.15 431.2 1562.15 427.55 1554.3 423.45 1551.95 422.2 1549.5 420.8 1550.8 420.5 1552.05 420.25 1541.1 414.05 1510 400.1 1482.7 387.8 1468.3 377.45 1466.95 376.45 1467.05 375.5 1467.2 374.3 1468.7 374.15 1470.05 374 1471.3 374.65 1487.3 382.8 1505.35 386.55 1523.3 390.25 1542 389.4 1525.5 387.45 1508 380.55 1507.7 380.45 1507.35 380.3 1492.8 374.45 1475.55 364.25 1469.9 360.9 1445.55 345.35 1427.2 333.7 1415 327.3 1393.3 315.9 1366.4 307.5 1362.85 306.4 1359.2 305.3 1333.9 297.95 1299.85 291.85 1298.85 291.65 1298.05 291.5
M 1417.85 630.7
L 1418.2 632.25
Q 1415.85 635.8 1414.55 640.2 1413.2 644.6 1409.15 646.3 1408.15 646.65 1407 646.7 1398.1 642.3 1395.7 632.15 1395.25 630.35 1394.8 628.65
L 1396.35 628.15
Q 1400.2 637.7 1407.7 644.2 1411.55 643.75 1413.3 640.1 1414.75 637.15 1415.25 633.7 1415.6 631.65 1417.85 630.7
M 1428.7 637.85
Q 1428.2 634.9 1428.1 631.9 1428.1 628.9 1428.55 625.85 1432.8 649.05 1453 657.05 1454.75 657.75 1456.6 657.2 1453.65 637.8 1448.75 618.95
L 1451.4 619.45
Q 1462.45 637.2 1461.5 658.05 1461.3 662.95 1456.45 663.45 1455.2 663.4 1453.95 663.4 1432.75 660.25 1428.7 637.85
M 1505.3 614.35
L 1504.05 615.4
Q 1514.4 628.2 1516.45 645.5 1516.65 647.05 1515.25 648.05 1502.45 657.4 1490 646.75 1473.85 632.85 1467.5 612.8 1467.4 612.4 1467.85 611.75 1475.7 631 1492 643.65 1501 650.55 1512.5 647.9 1515.05 628.5 1499.1 614.3 1494.3 610 1489.8 605.45 1497.35 599.8 1503.65 608.75 1514.05 623.6 1531.25 626.45 1531.45 614.45 1521.95 606.55 1516.6 602.1 1511.35 597.15 1506.2 592.25 1500.95 587.5 1508.9 587.6 1515.45 594.95 1522.45 602.85 1529.55 610.6 1536.75 618.35 1533 628.55 1516.05 628.3 1505.3 614.35 Z"/>
</g>
</defs>

<g transform="matrix( 1, 0, 0, 1, 0,0) ">
<use xlink:href="#Layer6_0_FILL"/>
</g>
</svg>
