
<svg xmlns="http://www.w3.org/2000/svg" version="1.1" xmlns:xlink="http://www.w3.org/1999/xlink" preserveAspectRatio="none" x="0px" y="0px" width="1920px" height="1080px" viewBox="0 0 1920 1080">
<defs>
<g id="Layer6_0_FILL">
<path fill="#000000" stroke="none" d="
M 1299.7 916.85
Q 1300.7 916.25 1301.7 915.7 1297.55 910.35 1293.5 904.9 1289.05 898.95 1284.7 893 1281.95 889.35 1279.3 885.75 1269.45 872.55 1259.35 859.25 1245.75 841.35 1231.85 823.5 1219.1 807.15 1206.15 791.2 1196.7 779.6 1187.15 768.3 1179.15 758.8 1170.65 749.85 1170.4 749.55 1170.1 749.25 1166.55 745.45 1162.75 741.85 1148.85 728.6 1132.75 717.85 1129.35 715.55 1125.95 713.35 1112.45 704.9 1098.15 698.7 1090.8 695.5 1083.2 692.95 1079.1 691.55 1074.95 690.35 1073.5 689.95 1072.1 689.55 1066.9 688.85 1061.75 688.35 1057 687.2 1050.95 686.05 1014.35 679.2 977.55 677.1 966.6 676.5 955.65 676.3 953.35 676.25 951.05 676.2 955.9 677.55 965.55 679.25 970.7 680.15 975.85 681 985.6 682.6 995.4 684.1 1011.65 686.55 1028.15 688.75 1041.7 690.55 1049.3 691.7 1052.7 692.2 1054.95 692.55 1063.65 694.05 1071.2 695.95 1073.65 696.7 1076.15 697.6 1085.75 700.9 1095.1 705.2 1112.35 713.25 1128.2 723.9 1143.85 734.45 1158.2 747.2 1158.3 747.25 1158.45 747.35 1161.85 750.4 1165.2 753.5 1176.05 763.55 1186.1 774.35 1198.6 787.7 1210.3 801.85 1220.7 814.55 1230.7 827.6 1238.1 837.25 1245.45 847.1 1249.4 852.35 1253.3 857.65 1265.55 874.4 1277 891.4 1278.35 893.4 1279.75 895.4 1287.85 907.2 1296.5 918.7 1297.15 918.35 1297.75 917.95 1298.55 917.5 1299.35 917.1 1299.5 916.95 1299.7 916.85
M 1390.95 873.85
Q 1384 865.55 1377.45 857.3 1375.95 855.4 1374.5 853.55 1373.9 852.8 1373.35 852.35 1372.85 851.75 1372.35 851.1 1362.15 837.65 1352.25 824.15 1342.1 810.2 1331.9 796 1321.2 781.15 1310.6 766.55 1299.1 750.75 1287.4 735.25 1275.1 718.95 1262.25 702.9 1250.35 688 1237.65 673.7 1231.9 667.15 1225.55 661.25 1223.95 659.8 1222.4 658.4 1220.7 655 1216.05 651.5 1215.7 650.05 1214.85 649.25 1214.45 648.9 1214.1 648.6 1214.15 649.2 1214.35 649.85 1214.4 650.05 1214.5 650.25 1214.55 650.35 1214.6 650.45 1214.25 650.2 1213.85 649.95 1151.4 608.5 1095.65 590.4 1083.5 586.45 1067.95 582.45 1059.25 580.2 1040 575.6 1034.7 574.35 1030.25 573.35 1019.45 570.85 1013.2 569.65 998.3 566.75 986.25 565.9 983.75 565.75 981.55 565.7 975.9 565.6 971.75 566.25 971 566.35 970.3 566.5 970.95 566.55 971.6 566.65 976.1 567.05 980.55 567.55 1004.75 570.2 1028.6 575.2 1058.15 581.4 1087.25 591.15 1144.9 610.45 1196.6 642.25 1208.2 649.35 1214.55 654.7 1217.55 657.2 1220.35 660 1221.75 661.55 1223.25 663.1 1224.85 664.85 1226.55 666.6 1238.15 678.75 1248.95 691.5 1260.6 705.35 1271.7 719.8 1283.55 735.1 1295.1 750.8 1307.05 767.05 1318.75 783.45 1330.55 799.95 1342.3 816.35 1354.05 832.8 1366.2 849 1367.6 850.85 1369 852.7 1371.55 856.05 1374.15 859.4 1375.3 860.95 1376.55 862.5 1376.8 862.3 1377.05 862.15
L 1379.8 866.35
Q 1383.05 871.2 1385 873.8 1385.95 874.95 1387.05 876.4 1388.1 877.7 1389.4 879.2
L 1400.65 892.3
Q 1402.05 893.85 1402.95 894.55 1404.3 895.6 1405.65 895.75 1406.5 895.85 1407 895.65 1407.45 895.4 1407.6 894.85 1407.75 894.2 1407.2 893.25 1406.05 891.2 1402.5 887.25 1396.6 880.55 1390.95 873.85
M 1338.9 358.95
Q 1365.45 374.2 1371.6 377.5 1390.3 387.5 1405.7 393.25 1406.05 393.4 1406.4 393.5 1424.9 400.3 1441.65 402.2 1423.1 403.05 1404.6 399.4 1386 395.7 1368.85 387.7 1367.45 387.1 1366.2 387.25 1364.7 387.4 1364.7 388.55 1364.75 389.5 1366.25 390.45 1382.1 400.65 1411.2 412.7 1444.25 426.4 1456.15 432.5 1454.9 432.75 1453.65 433.05 1456.3 434.4 1458.85 435.65 1467.25 439.65 1475.8 443.25 1487.5 448.1 1499.95 451 1523.4 456.7 1547.25 460.8 1562.55 463.6 1578.05 465.9 1580.8 466.3 1583.6 466.7 1587.6 467.3 1591.65 467.9 1584.55 471.15 1577.3 473.65 1564.2 477.9 1550.35 479.05 1504.8 482.9 1459.25 472.85 1456.75 472.25 1457 474.6 1457.25 477.85 1461.3 479 1469.95 481.3 1478.15 485.75 1500.45 497.9 1521.7 512.35 1541.4 525.7 1559.55 541.1 1576.15 555.15 1591.25 570.7 1600.15 579.95 1607.4 590.45 1608.85 592.5 1610.3 594.55 1598.45 586.6 1586.25 578.85 1585.35 578.25 1584.5 577.7 1570.8 569.1 1556.65 561.15 1545.15 554.65 1533.6 548.3 1516.6 538.95 1498.65 532 1496.6 531.15 1495.6 532.7 1495.5 532.8 1495.5 532.95 1495.7 533.4 1496.05 533.75 1507.35 544.65 1518.3 556.05 1534.15 572.7 1547.05 591.85 1557.6 607.5 1566.05 624.35 1567.75 627.7 1569.45 631.05 1557.75 619.2 1545.65 608 1532.5 595.75 1519.15 583.8 1507.1 573.1 1494.75 562.75 1479.1 549.65 1462.6 538.1 1460.65 536.65 1458.95 538.3 1458.5 538.75 1458.25 539.35
L 1459.95 541.75 1501.05 575.35
Q 1503.75 577.4 1505.35 580 1506.55 582.1 1507.9 584.25 1514.45 594.3 1521.1 604.5 1530.9 619.45 1541.1 634.15 1549.05 645.5 1557.45 656.5 1565.8 667.45 1574.5 678.1 1581.6 686.7 1588.95 695.05 1592.95 699.6 1597 704.05 1599.45 706.7 1601.9 709.3 1609.3 717.15 1617 724.75 1620.55 728.35 1624.3 731.85 1624.45 732 1624.6 732.2 1625.1 732.6 1625.55 733.1 1629.45 731.4 1633.4 729.75 1633 729.4 1632.7 729.1 1632.55 728.95 1632.35 728.75 1627.25 723.85 1622.2 718.85 1615.15 711.8 1608.35 704.6 1604.5 700.5 1600.7 696.4 1598.45 694 1596.35 691.65 1584.7 678.9 1573.65 665.75 1554.6 642.95 1537.1 619.15 1532.1 612.4 1527.25 605.55 1521.85 598 1516.6 590.3 1514.95 587.95 1513.45 585.6 1523.15 593.5 1532.65 601.8 1550 616.85 1564.6 634.25 1569.4 639.95 1575.25 643.95 1575.35 644 1575.5 643.95 1576.8 643.3 1576.6 641.85 1575.75 635.4 1572.85 629.3 1567.2 617.45 1560.6 605.9 1549.4 586.35 1535.8 568.7 1532.25 564.1 1528.55 559.65 1523.55 553.6 1518.25 547.8 1516.4 545.75 1514.55 543.7 1525 548.9 1535.4 554.3 1548.3 561.05 1560.9 568.4 1578.5 578.6 1595.2 590.35 1604.3 596.75 1614.05 601.1 1614.8 601.4 1615.65 601.6 1618.4 600.5 1617.5 597.8 1616 593 1612.8 589.15 1603.5 577.95 1593.7 567.45 1580.75 553.65 1566.45 541.25 1555.6 531.95 1544.15 523.35 1526.35 510.05 1507.7 498.1 1495 489.95 1481.95 482.65 1479.2 481.1 1476.55 479.55 1492.5 482.2 1508.55 483.75 1528.9 485.65 1549.2 484.1 1560.05 483.15 1570.35 480.55 1583.05 477.5 1594.9 472.15 1600.1 469.85 1603.2 465.55 1603.3 465.45 1603.35 465.25 1603.25 464.55 1602.5 464.3 1596.2 461.55 1589.25 460.55 1570.35 457.95 1551.4 455.1 1534.8 452.6 1518.4 449.3 1497.25 444.95 1476.95 437.6 1476.75 436.85 1476.3 436.25 1475.25 435 1472.6 433.95
L 1393.9 399.95
Q 1412.7 405 1431.8 405.75 1437 405.95 1440.5 405.6 1445.2 405.1 1448.65 403.4 1450.45 402.4 1450.4 401.35 1450.35 399.65 1447.2 399.2 1423.05 395.9 1400.1 386.6 1383.35 379.8 1358.7 365.55 1324.65 345.8 1318.2 342.45 1290.3 327.9 1259.25 318.1 1224.9 307.25 1186.7 302.2 1183.55 301.75 1181.7 301.9 1178.9 302.15 1177.25 303.55 1178.85 304.8 1181.2 305.5 1182.15 305.8 1183.65 306.1 1184.45 306.25 1185.5 306.45 1220.4 312.4 1246.8 319.65 1250.6 320.7 1254.3 321.8 1282.4 330.05 1305.75 341.25 1318.85 347.5 1338.9 358.95
M 1352.1 639.1
Q 1350 640 1349.95 642.05 1349.95 645.4 1348.95 648.3 1347.7 651.9 1343.95 652.35 1335.45 645.95 1330.3 636.6
L 1328.8 637.05
Q 1329.5 638.75 1330.2 640.5 1334.05 650.45 1343.55 654.8 1344.7 654.75 1345.7 654.4 1349.45 652.75 1350.2 648.4 1350.85 644.1 1352.7 640.6
L 1352.1 639.1
M 1384.05 628.05
L 1381.3 627.55
Q 1388.95 646.05 1394.7 665.1 1392.9 665.65 1391.1 664.95 1369.75 657.1 1362.1 634.3 1362.1 637.3 1362.55 640.25 1363.05 643.2 1364 646.1 1371.3 668.1 1392.95 671.2 1394.2 671.2 1395.45 671.25 1400.2 670.75 1399.75 665.95 1397.7 645.45 1384.05 628.05
M 1440.85 606.15
Q 1446.8 611 1452.75 615.4 1463.4 623.15 1464.9 634.9 1447.3 632.1 1434.75 617.55 1427.2 608.75 1420.45 614.3 1425.6 618.75 1431.05 623 1449 636.9 1449.25 655.95 1438.1 658.55 1428.15 651.8 1410.05 639.4 1399.4 620.5 1399.05 621.1 1399.2 621.5 1408.4 641.2 1426.55 654.85 1440.55 665.3 1452.05 656.1 1453.3 655.15 1452.85 653.6 1448.35 636.65 1436.15 624.05 1432.05 619.85 1427.1 616.1 1432.4 617.55 1435.9 621.6 1436.55 622.35 1437.25 623.05 1450 636.75 1466.95 636.95 1469.25 626.95 1460.95 619.35 1452.7 611.75 1444.6 604 1437 596.75 1429.05 596.65 1435 601.35 1440.85 606.15 Z"/>

<path fill="#CCCCCC" stroke="none" d="
M 1379.8 866.35
L 1377.05 862.15
Q 1376.8 862.3 1376.55 862.5 1375.3 860.95 1374.15 859.4 1371.55 856.05 1369 852.7 1367.6 850.85 1366.2 849 1354.05 832.8 1342.3 816.35 1330.55 799.95 1318.75 783.45 1307.05 767.05 1295.1 750.8 1283.55 735.1 1271.7 719.8 1260.6 705.35 1248.95 691.5 1238.15 678.75 1226.55 666.6 1224.85 664.85 1223.25 663.1 1221.75 661.55 1220.35 660 1217.55 657.2 1214.55 654.7 1208.2 649.35 1196.6 642.25 1144.9 610.45 1087.25 591.15 1058.15 581.4 1028.6 575.2 1004.75 570.2 980.55 567.55 976.1 567.05 971.6 566.65 964.85 586.85 960.7 605.9 958.7 615.05 957.3 623.9 956.75 627.3 956.35 630.6 953 655.75 955.55 674.4
L 955.65 676.3
Q 966.6 676.5 977.55 677.1 1014.35 679.2 1050.95 686.05 1057 687.2 1061.75 688.35 1066.9 688.85 1072.1 689.55 1073.5 689.95 1074.95 690.35 1079.1 691.55 1083.2 692.95 1090.8 695.5 1098.15 698.7 1112.45 704.9 1125.95 713.35 1129.35 715.55 1132.75 717.85 1148.85 728.6 1162.75 741.85 1166.55 745.45 1170.1 749.25 1170.4 749.55 1170.65 749.85 1179.15 758.8 1187.15 768.3 1196.7 779.6 1206.15 791.2 1219.1 807.15 1231.85 823.5 1245.75 841.35 1259.35 859.25 1269.45 872.55 1279.3 885.75 1281.95 889.35 1284.7 893 1289.05 898.95 1293.5 904.9 1297.55 910.35 1301.7 915.7
L 1301.75 916.85 1303.65 916.85
Q 1309.75 918.35 1312.65 918.35 1322.85 918.35 1349.85 912.1 1377.4 905.75 1407.2 896.3
L 1407 895.65
Q 1406.5 895.85 1405.65 895.75 1404.3 895.6 1402.95 894.55 1402.05 893.85 1400.65 892.3
L 1389.4 879.2
Q 1388.1 877.7 1387.05 876.4 1385.95 874.95 1385 873.8 1383.05 871.2 1379.8 866.35 Z"/>

<path fill="#FFFFFF" stroke="none" d="
M 1371.6 377.5
Q 1365.45 374.2 1338.9 358.95 1318.85 347.5 1305.75 341.25 1282.4 330.05 1254.3 321.8 1250.6 320.7 1246.8 319.65 1220.4 312.4 1185.5 306.45 1184.45 306.25 1183.65 306.1 1182.65 306.4 1181.7 306.7 1180.25 307.15 1178.85 307.65 1165.55 312.35 1151.3 321.95 1134.4 333.25 1116.1 351.4 1099.6 367.85 1077.75 393.8 1067.4 406.15 1037 443.8 1017 468.55 1000.05 500.45 984.05 530.6 972.8 563.2 972.25 564.7 971.75 566.25 975.9 565.6 981.55 565.7 983.75 565.75 986.25 565.9 998.3 566.75 1013.2 569.65 1019.45 570.85 1030.25 573.35 1034.7 574.35 1040 575.6 1059.25 580.2 1067.95 582.45 1083.5 586.45 1095.65 590.4 1151.4 608.5 1213.85 649.95
L 1214.35 649.85
Q 1214.15 649.2 1214.1 648.6 1214.45 648.9 1214.85 649.25 1215.7 650.05 1216.05 651.5 1220.7 655 1222.4 658.4 1223.95 659.8 1225.55 661.25 1231.9 667.15 1237.65 673.7 1250.35 688 1262.25 702.9 1275.1 718.95 1287.4 735.25 1299.1 750.75 1310.6 766.55 1321.2 781.15 1331.9 796 1342.1 810.2 1352.25 824.15 1362.15 837.65 1372.35 851.1 1372.85 851.75 1373.35 852.35 1373.9 852.8 1374.5 853.55 1375.95 855.4 1377.45 857.3 1384 865.55 1390.95 873.85 1396.6 880.55 1402.5 887.25 1406.05 891.2 1407.2 893.25 1407.75 894.2 1407.6 894.85
L 1411.2 895
Q 1424.25 890.8 1436.15 886.5 1501.2 863.05 1532.4 837.75 1576 802.4 1598.7 773.65 1613.35 755.1 1624.3 731.85 1620.55 728.35 1617 724.75 1609.3 717.15 1601.9 709.3 1599.45 706.7 1597 704.05 1592.95 699.6 1588.95 695.05 1581.6 686.7 1574.5 678.1 1565.8 667.45 1557.45 656.5 1549.05 645.5 1541.1 634.15 1530.9 619.45 1521.1 604.5 1514.45 594.3 1507.9 584.25 1506.55 582.1 1505.35 580 1503.75 577.4 1501.05 575.35
L 1459.95 541.75 1458.25 539.35
Q 1458.5 538.75 1458.95 538.3 1460.65 536.65 1462.6 538.1 1479.1 549.65 1494.75 562.75 1507.1 573.1 1519.15 583.8 1532.5 595.75 1545.65 608 1557.75 619.2 1569.45 631.05 1567.75 627.7 1566.05 624.35 1557.6 607.5 1547.05 591.85 1534.15 572.7 1518.3 556.05 1507.35 544.65 1496.05 533.75 1495.7 533.4 1495.5 532.95 1495.5 532.8 1495.6 532.7 1496.6 531.15 1498.65 532 1516.6 538.95 1533.6 548.3 1545.15 554.65 1556.65 561.15 1570.8 569.1 1584.5 577.7 1585.35 578.25 1586.25 578.85 1598.45 586.6 1610.3 594.55 1608.85 592.5 1607.4 590.45 1600.15 579.95 1591.25 570.7 1576.15 555.15 1559.55 541.1 1541.4 525.7 1521.7 512.35 1500.45 497.9 1478.15 485.75 1469.95 481.3 1461.3 479 1457.25 477.85 1457 474.6 1456.75 472.25 1459.25 472.85 1504.8 482.9 1550.35 479.05 1564.2 477.9 1577.3 473.65 1584.55 471.15 1591.65 467.9 1587.6 467.3 1583.6 466.7 1580.8 466.3 1578.05 465.9 1562.55 463.6 1547.25 460.8 1523.4 456.7 1499.95 451 1487.5 448.1 1475.8 443.25 1467.25 439.65 1458.85 435.65 1456.3 434.4 1453.65 433.05 1454.9 432.75 1456.15 432.5 1444.25 426.4 1411.2 412.7 1382.1 400.65 1366.25 390.45 1364.75 389.5 1364.7 388.55 1364.7 387.4 1366.2 387.25 1367.45 387.1 1368.85 387.7 1386 395.7 1404.6 399.4 1423.1 403.05 1441.65 402.2 1424.9 400.3 1406.4 393.5 1406.05 393.4 1405.7 393.25 1390.3 387.5 1371.6 377.5
M 1452.75 615.4
Q 1446.8 611 1440.85 606.15 1435 601.35 1429.05 596.65 1437 596.75 1444.6 604 1452.7 611.75 1460.95 619.35 1469.25 626.95 1466.95 636.95 1450 636.75 1437.25 623.05
L 1436.15 624.05
Q 1448.35 636.65 1452.85 653.6 1453.3 655.15 1452.05 656.1 1440.55 665.3 1426.55 654.85 1408.4 641.2 1399.2 621.5 1399.05 621.1 1399.4 620.5 1410.05 639.4 1428.15 651.8 1438.1 658.55 1449.25 655.95 1449 636.9 1431.05 623 1425.6 618.75 1420.45 614.3 1427.2 608.75 1434.75 617.55 1447.3 632.1 1464.9 634.9 1463.4 623.15 1452.75 615.4
M 1381.3 627.55
L 1384.05 628.05
Q 1397.7 645.45 1399.75 665.95 1400.2 670.75 1395.45 671.25 1394.2 671.2 1392.95 671.2 1371.3 668.1 1364 646.1 1363.05 643.2 1362.55 640.25 1362.1 637.3 1362.1 634.3 1369.75 657.1 1391.1 664.95 1392.9 665.65 1394.7 665.1 1388.95 646.05 1381.3 627.55
M 1349.95 642.05
Q 1350 640 1352.1 639.1
L 1352.7 640.6
Q 1350.85 644.1 1350.2 648.4 1349.45 652.75 1345.7 654.4 1344.7 654.75 1343.55 654.8 1334.05 650.45 1330.2 640.5 1329.5 638.75 1328.8 637.05
L 1330.3 636.6
Q 1335.45 645.95 1343.95 652.35 1347.7 651.9 1348.95 648.3 1349.95 645.4 1349.95 642.05 Z"/>
</g>
</defs>

<g transform="matrix( 1, 0, 0, 1, 0,0) ">
<use xlink:href="#Layer6_0_FILL"/>
</g>
</svg>
