
<svg xmlns="http://www.w3.org/2000/svg" version="1.1" xmlns:xlink="http://www.w3.org/1999/xlink" preserveAspectRatio="none" x="0px" y="0px" width="1920px" height="1080px" viewBox="0 0 1920 1080">
<defs>
<g id="Layer6_0_FILL">
<path fill="#000000" stroke="none" d="
M 1312.2 750.8
Q 1323.3 767.05 1334.2 783.45 1345.15 799.95 1356.05 816.35 1366.95 832.8 1378.3 849 1379.5984375 850.8490234375 1380.9 852.7 1383.2837890625 856.0548828125 1385.7 859.35 1386.8203125 860.931640625 1387.95 862.45 1388.2029296875 862.3107421875 1388.45 862.15
L 1391 866.35
Q 1394 871.2 1395.85 873.8 1396.6767578125 874.9625 1397.75 876.35 1398.7416015625 877.6775390625 1399.95 879.2
L 1410.55 892.3
Q 1411.85 893.85 1412.7 894.55 1414 895.6 1415.35 895.75 1416.175 895.85 1416.65 895.6 1417.175 895.4 1417.35 894.85 1417.55 894.2 1417.05 893.25 1416 891.2 1412.65 887.25 1407.088671875 880.5484375 1401.75 873.8 1395.2541015625 865.56953125 1389.1 857.25 1387.717578125 855.4193359375 1386.35 853.55 1385.7806640625 852.7974609375 1385.25 852.35 1384.7978515625 851.726171875 1384.35 851.1 1374.8205078125 837.667578125 1365.6 824.15 1356.15 810.2 1346.7 796 1336.75 781.15 1326.9 766.55 1316.2 750.75 1305.3 735.25 1293.8 718.95 1281.8 702.9 1270.65 688 1258.7 673.7 1253.244140625 667.16171875 1247.15 661.2 1245.697265625 659.7845703125 1244.15 658.35 1242.694140625 654.9857421875 1238.2 651.45 1237.9541015625 650.0384765625 1237.1 649.25 1236.7509765625 648.92421875 1236.4 648.6 1236.4083984375 649.219921875 1236.55 649.85 1236.6302734375 650.04921875 1236.7 650.25 1236.7322265625 650.3357421875 1236.75 650.4 1236.4400390625 650.18359375 1236.1 649.95 1175.75 608.5 1120.9 590.4 1108.95 586.45 1093.6 582.45 1085.05 580.2 1066 575.6 1060.8013671875 574.3552734375 1056.35 573.3 1045.701953125 570.8521484375 1039.55 569.65 1024.75 566.75 1012.75 565.9 1010.317578125 565.738671875 1008.1 565.7 1002.4423828125 565.5841796875 998.25 566.25 997.5068359375 566.35625 996.8 566.5 997.4541015625 566.5591796875 998.1 566.6 1002.5595703125 567.0404296875 1007 567.5 1031.0291015625 570.209375 1054.65 575.2 1083.88359375 581.40078125 1112.5 591.15 1169.15 610.45 1219.25 642.25 1230.45 649.35 1236.55 654.7 1239.4171875 657.2126953125 1242 659.95 1243.40234375 661.5375 1244.8 663.1 1246.3703125 664.848828125 1247.95 666.6 1258.9 678.75 1269.05 691.5 1280 705.35 1290.4 719.8 1301.45 735.1 1312.2 750.8
M 1351.7 637.05
Q 1352.3 638.75 1352.9 640.5 1356.25 650.45 1365.55 654.8 1366.7 654.75 1367.7 654.4 1371.55 652.75 1372.5 648.4 1373.4 644.1 1375.4 640.6
L 1374.9 639.1
Q 1372.75 640 1372.6 642.05 1372.4 645.4 1371.25 648.3 1369.85 651.9 1366.05 652.35 1357.9 645.95 1353.2 636.6
L 1351.7 637.05
M 1385.15 634.3
Q 1384.975 637.275 1385.3 640.2 1385.625 643.175 1386.45 646.1 1392.6 668.1 1414.1 671.2 1415.35 671.2 1416.6 671.25 1421.4 670.75 1421.15 665.95 1420.15 645.45 1407.4 628.05
L 1404.7 627.55
Q 1411.4 646.05 1416.15 665.1 1414.35 665.65 1412.55 664.95 1391.6 657.1 1385.15 634.3
M 1423.15 620.5
Q 1422.75 621.1 1422.9 621.5 1431.1 641.2 1448.55 654.85 1462 665.3 1473.95 656.1 1475.25 655.15 1474.9 653.6 1471.2626953125 636.6509765625 1459.65 624 1455.80078125 619.8255859375 1451.05 616.1 1456.3 617.55 1459.6 621.6 1460.2025390625 622.333203125 1460.8 623 1472.9115234375 636.759765625 1489.85 636.95 1492.65 626.95 1484.75 619.35 1476.9 611.75 1469.2 604 1461.95 596.75 1454 596.65 1459.7 601.35 1465.3 606.15 1471 611 1476.75 615.4 1487 623.15 1487.9 634.9 1470.45 632.1 1458.65 617.55 1451.55 608.75 1444.5 614.3 1449.45 618.75 1454.65 623 1471.9 636.9 1471.2 655.95 1459.9 658.55 1450.3 651.8 1432.8 639.4 1423.15 620.5
M 1356.1 342.45
Q 1328.9580078125 327.9044921875 1298.35 318.1 1264.608984375 307.262890625 1226.65 302.2 1223.55 301.75 1221.65 301.9 1218.85 302.15 1217.15 303.55 1218.65 304.8 1221 305.5 1221.89296875 305.787109375 1223.35 306.1 1224.21796875 306.2689453125 1225.25 306.45 1259.85 312.4 1285.85 319.65 1289.590625 320.69296875 1293.25 321.75 1320.9505859375 330.07421875 1343.7 341.25 1356.5 347.5 1375.95 358.95 1401.75 374.2 1407.7 377.5 1425.9 387.5 1441 393.25 1441.3373046875 393.37734375 1441.65 393.5 1459.858203125 400.285546875 1476.5 402.2 1457.9 403.05 1439.6 399.4 1421.2 395.7 1404.45 387.7 1403.1 387.1 1401.8 387.25 1400.3 387.4 1400.25 388.55 1400.25 389.5 1401.7 390.45 1417.05 400.65 1445.5 412.7 1477.9029296875 426.41640625 1489.4 432.5 1488.175 432.771484375 1486.9 433.05 1489.484375 434.4072265625 1492 435.65 1500.2 439.65 1508.55 443.25 1520 448.1 1532.3 451 1555.5 456.7 1579.1 460.8 1594.3216796875 463.5984375 1609.65 465.9 1612.3990234375 466.3048828125 1615.15 466.7 1619.15 467.3 1623.15 467.9 1615.9 471.15 1608.5 473.65 1595.2 477.9 1581.3 479.05 1535.55 482.9 1490.5 472.85 1488.05 472.25 1488.15 474.6 1488.25 477.85 1492.25 479 1500.8 481.3 1508.75 485.75 1530.45 497.9 1550.95 512.35 1569.95 525.7 1587.35 541.1 1603.2 555.15 1617.5 570.7 1625.95 579.95 1632.65 590.45 1634 592.5 1635.35 594.55 1623.9220703125 586.6205078125 1612.1 578.8 1611.25234375 578.2603515625 1610.4 577.7 1597.15 569.1 1583.4 561.15 1572.25 554.65 1561 548.3 1544.5 538.95 1526.9 532 1524.9 531.15 1523.8 532.7 1523.7 532.8 1523.7 532.95 1523.85 533.4 1524.2 533.75 1534.95 544.65 1545.3 556.05 1560.3 572.7 1572.25 591.85 1582 607.5 1589.6 624.35 1591.1 627.7 1592.65 631.05 1581.55 619.2 1570 608 1557.5 595.75 1544.75 583.8 1533.25 573.1 1521.45 562.75 1506.45 549.65 1490.55 538.1 1488.65 536.65 1486.85 538.3 1486.4 538.75 1486.1 539.35
L 1487.7 541.75 1527.1 575.35
Q 1529.7 577.4 1531.15 580 1532.25 582.1 1533.5 584.25 1539.5 594.3 1545.65 604.5 1554.7 619.45 1564.15 634.15 1571.5 645.5 1579.35 656.5 1587.15 667.45 1595.3 678.1 1601.9267578125 686.67578125 1608.9 695.05 1612.646484375 699.5833984375 1616.5 704.05 1618.78125 706.6822265625 1621.1 709.3 1628.0763671875 717.137890625 1635.4 724.75 1638.8212890625 728.3271484375 1642.3 731.85 1642.4865234375 732.0107421875 1642.65 732.15 1643.103125 732.6236328125 1643.55 733.05 1647.53984375 731.4017578125 1651.55 729.75 1651.221484375 729.423828125 1650.9 729.1 1650.7271484375 728.925390625 1650.55 728.75 1645.693359375 723.838671875 1640.9 718.8 1634.262890625 711.8025390625 1627.75 704.55 1624.137109375 700.5240234375 1620.55 696.4 1618.4724609375 694.022265625 1616.4 691.6 1605.456640625 678.8853515625 1595.1 665.75 1577.2 642.95 1560.9 619.15 1556.2646484375 612.3990234375 1551.7 605.55 1546.728515625 597.98515625 1541.85 590.3 1540.35 587.95 1538.95 585.6 1548.25 593.5 1557.35 601.8 1573.9 616.85 1587.65 634.25 1592.15 639.95 1597.8 643.95 1597.9 644 1598.05 643.95 1599.35 643.3 1599.25 641.85 1598.75 635.4 1596.15 629.3 1591.1 617.45 1585.1 605.9 1574.9 586.35 1562.2 568.7 1558.8734375 564.1021484375 1555.4 559.65 1550.684375 553.5912109375 1545.7 547.8 1543.95 545.75 1542.2 543.7 1552.4 548.9 1562.5 554.3 1575.05 561.05 1587.3 568.4 1604.35 578.6 1620.45 590.35 1629.25 596.75 1638.75 601.1 1639.5 601.4 1640.35 601.6 1643.15 600.5 1642.4 597.8 1641.15 593 1638.15 589.15 1629.4 577.95 1620.15 567.45 1607.9 553.65 1594.2 541.25 1583.85 531.95 1572.85 523.35 1555.7 510.05 1537.65 498.1 1525.4 489.95 1512.7 482.65 1510.05 481.1 1507.45 479.55 1523.3 482.2 1539.25 483.75 1559.5 485.65 1579.9 484.1 1590.8 483.15 1601.2 480.55 1614.05 477.5 1626.2 472.15 1631.5 469.85 1634.85 465.55 1634.95 465.45 1635 465.25 1634.95 464.55 1634.2 464.3 1628.05 461.55 1621.15 460.55 1602.35 457.95 1583.55 455.1 1567.1 452.6 1550.85 449.3 1529.939453125 444.9556640625 1509.95 437.6 1509.8458984375 436.8671875 1509.4 436.25 1508.45 435 1505.85 433.95
L 1428.85 399.95
Q 1447.4 405 1466.5 405.75 1471.65 405.95 1475.2 405.6 1479.9 405.1 1483.45 403.4 1485.3 402.4 1485.3 401.35 1485.35 399.65 1482.2 399.2 1458.25 395.9 1435.75 386.6 1419.35 379.8 1395.45 365.55 1362.4 345.8 1356.1 342.45
M 1310.35 915.65
Q 1306.5005859375 910.3595703125 1302.75 904.9 1298.6232421875 898.942578125 1294.5 893 1292.004296875 889.3736328125 1289.5 885.75 1280.35 872.55 1270.9 859.25 1258.25 841.35 1245.25 823.5 1233.35 807.15 1221.2 791.2 1212.35 779.6 1203.35 768.3 1195.835546875 758.7978515625 1187.8 749.8 1187.55234375 749.53125 1187.3 749.25 1183.885546875 745.4619140625 1180.3 741.85 1167.08515625 728.5869140625 1151.55 717.85 1148.25 715.55 1144.95 713.35 1131.8908203125 704.8767578125 1117.9 698.7 1110.69453125 695.5205078125 1103.25 692.95 1099.2228515625 691.5556640625 1095.1 690.35 1093.7138671875 689.929296875 1092.3 689.5 1087.1484375 688.846875 1082 688.35 1077.3560546875 687.185546875 1071.35 686.05 1035.120703125 679.2087890625 998.4 677.1 987.4986328125 676.4814453125 976.55 676.25 974.2509765625 676.2251953125 971.95 676.2 976.75 677.55 986.3 679.25 991.3806640625 680.1357421875 996.5 681 1006.1384765625 682.6072265625 1015.9 684.1 1031.978125 686.57421875 1048.4 688.75 1061.8515625 690.5435546875 1069.4 691.65 1072.79765625 692.177734375 1075 692.55 1083.6568359375 694.0365234375 1091.05 695.9 1093.51796875 696.711328125 1095.95 697.55 1105.4041015625 700.91796875 1114.5 705.2 1131.35 713.25 1146.65 723.9 1161.79140625 734.4740234375 1175.5 747.15 1175.6017578125 747.2587890625 1175.7 747.35 1178.95859375 750.3849609375 1182.15 753.45 1192.4791015625 763.5673828125 1202 774.35 1213.8 787.7 1224.8 801.85 1234.55 814.55 1243.9 827.6 1250.8044921875 837.2728515625 1257.65 847.1 1261.3068359375 852.35078125 1264.95 857.65 1276.35 874.4 1286.95 891.4 1288.211328125 893.4078125 1289.45 895.4 1297.0181640625 907.21640625 1305 918.7 1305.6916015625 918.33046875 1306.35 917.95 1307.14140625 917.5185546875 1307.9 917.05 1308.126171875 916.9626953125 1308.3 916.85 1309.34765625 916.2671875 1310.35 915.65 Z"/>

<path fill="#CCCCCC" stroke="none" d="
M 1334.2 783.45
Q 1323.3 767.05 1312.2 750.8 1301.45 735.1 1290.4 719.8 1280 705.35 1269.05 691.5 1258.9 678.75 1247.95 666.6 1246.3703125 664.848828125 1244.8 663.1 1243.40234375 661.5375 1242 659.95 1239.4171875 657.2126953125 1236.55 654.7 1230.45 649.35 1219.25 642.25 1169.15 610.45 1112.5 591.15 1083.88359375 581.40078125 1054.65 575.2 1031.0291015625 570.209375 1007 567.5 1002.5595703125 567.0404296875 998.1 566.6 990.294921875 586.8724609375 985.15 605.85 982.6982421875 615.028125 980.85 623.9 980.144921875 627.2986328125 979.55 630.55 974.9580078125 655.7392578125 976.55 674.4
L 976.55 676.25
Q 987.4986328125 676.4814453125 998.4 677.1 1035.120703125 679.2087890625 1071.35 686.05 1077.3560546875 687.185546875 1082 688.35 1087.1484375 688.846875 1092.3 689.5 1093.7138671875 689.929296875 1095.1 690.35 1099.2228515625 691.5556640625 1103.25 692.95 1110.69453125 695.5205078125 1117.9 698.7 1131.8908203125 704.8767578125 1144.95 713.35 1148.25 715.55 1151.55 717.85 1167.08515625 728.5869140625 1180.3 741.85 1183.885546875 745.4619140625 1187.3 749.25 1187.55234375 749.53125 1187.8 749.8 1195.835546875 758.7978515625 1203.35 768.3 1212.35 779.6 1221.2 791.2 1233.35 807.15 1245.25 823.5 1258.25 841.35 1270.9 859.25 1280.35 872.55 1289.5 885.75 1292.004296875 889.3736328125 1294.5 893 1298.6232421875 898.942578125 1302.75 904.9 1306.5005859375 910.3595703125 1310.35 915.65
L 1310.35 916.85 1312.3 916.85
Q 1318.3 918.35 1321.2 918.35 1331.4 918.35 1358.75 912.1 1386.5837890625 905.72734375 1416.85 896.25
L 1416.65 895.6
Q 1416.175 895.85 1415.35 895.75 1414 895.6 1412.7 894.55 1411.85 893.85 1410.55 892.3
L 1399.95 879.2
Q 1398.7416015625 877.6775390625 1397.75 876.35 1396.6767578125 874.9625 1395.85 873.8 1394 871.2 1391 866.35
L 1388.45 862.15
Q 1388.2029296875 862.3107421875 1387.95 862.45 1386.8203125 860.931640625 1385.7 859.35 1383.2837890625 856.0548828125 1380.9 852.7 1379.5984375 850.8490234375 1378.3 849 1366.95 832.8 1356.05 816.35 1345.15 799.95 1334.2 783.45 Z"/>

<path fill="#FFFFFF" stroke="none" d="
M 1375.95 358.95
Q 1356.5 347.5 1343.7 341.25 1320.9505859375 330.07421875 1293.25 321.75 1289.590625 320.69296875 1285.85 319.65 1259.85 312.4 1225.25 306.45 1224.21796875 306.2689453125 1223.35 306.1 1222.38984375 306.383203125 1221.4 306.7 1219.9693359375 307.146484375 1218.5 307.65 1204.987890625 312.3529296875 1190.2 321.9 1172.746484375 333.252734375 1153.55 351.4 1136.2 367.85 1113.05 393.8 1102.05 406.15 1069.75 443.8 1048.5 468.55 1029.9 500.45 1012.35 530.6 999.45 563.2 998.8486328125 564.72265625 998.25 566.25 1002.4423828125 565.5841796875 1008.1 565.7 1010.317578125 565.738671875 1012.75 565.9 1024.75 566.75 1039.55 569.65 1045.701953125 570.8521484375 1056.35 573.3 1060.8013671875 574.3552734375 1066 575.6 1085.05 580.2 1093.6 582.45 1108.95 586.45 1120.9 590.4 1175.75 608.5 1236.1 649.95
L 1236.55 649.85
Q 1236.4083984375 649.219921875 1236.4 648.6 1236.7509765625 648.92421875 1237.1 649.25 1237.9541015625 650.0384765625 1238.2 651.45 1242.694140625 654.9857421875 1244.15 658.35 1245.697265625 659.7845703125 1247.15 661.2 1253.244140625 667.16171875 1258.7 673.7 1270.65 688 1281.8 702.9 1293.8 718.95 1305.3 735.25 1316.2 750.75 1326.9 766.55 1336.75 781.15 1346.7 796 1356.15 810.2 1365.6 824.15 1374.8205078125 837.667578125 1384.35 851.1 1384.7978515625 851.726171875 1385.25 852.35 1385.7806640625 852.7974609375 1386.35 853.55 1387.717578125 855.4193359375 1389.1 857.25 1395.2541015625 865.56953125 1401.75 873.8 1407.088671875 880.5484375 1412.65 887.25 1416 891.2 1417.05 893.25 1417.55 894.2 1417.35 894.85
L 1420.95 895
Q 1434.196875 890.7802734375 1446.3 886.5 1512.585546875 863.0705078125 1545.05 837.75 1590.45 802.4 1614.65 773.65 1630.243359375 755.090625 1642.3 731.85 1638.8212890625 728.3271484375 1635.4 724.75 1628.0763671875 717.137890625 1621.1 709.3 1618.78125 706.6822265625 1616.5 704.05 1612.646484375 699.5833984375 1608.9 695.05 1601.9267578125 686.67578125 1595.3 678.1 1587.15 667.45 1579.35 656.5 1571.5 645.5 1564.15 634.15 1554.7 619.45 1545.65 604.5 1539.5 594.3 1533.5 584.25 1532.25 582.1 1531.15 580 1529.7 577.4 1527.1 575.35
L 1487.7 541.75 1486.1 539.35
Q 1486.4 538.75 1486.85 538.3 1488.65 536.65 1490.55 538.1 1506.45 549.65 1521.45 562.75 1533.25 573.1 1544.75 583.8 1557.5 595.75 1570 608 1581.55 619.2 1592.65 631.05 1591.1 627.7 1589.6 624.35 1582 607.5 1572.25 591.85 1560.3 572.7 1545.3 556.05 1534.95 544.65 1524.2 533.75 1523.85 533.4 1523.7 532.95 1523.7 532.8 1523.8 532.7 1524.9 531.15 1526.9 532 1544.5 538.95 1561 548.3 1572.25 554.65 1583.4 561.15 1597.15 569.1 1610.4 577.7 1611.25234375 578.2603515625 1612.1 578.8 1623.9220703125 586.6205078125 1635.35 594.55 1634 592.5 1632.65 590.45 1625.95 579.95 1617.5 570.7 1603.2 555.15 1587.35 541.1 1569.95 525.7 1550.95 512.35 1530.45 497.9 1508.75 485.75 1500.8 481.3 1492.25 479 1488.25 477.85 1488.15 474.6 1488.05 472.25 1490.5 472.85 1535.55 482.9 1581.3 479.05 1595.2 477.9 1608.5 473.65 1615.9 471.15 1623.15 467.9 1619.15 467.3 1615.15 466.7 1612.3990234375 466.3048828125 1609.65 465.9 1594.3216796875 463.5984375 1579.1 460.8 1555.5 456.7 1532.3 451 1520 448.1 1508.55 443.25 1500.2 439.65 1492 435.65 1489.484375 434.4072265625 1486.9 433.05 1488.175 432.771484375 1489.4 432.5 1477.9029296875 426.41640625 1445.5 412.7 1417.05 400.65 1401.7 390.45 1400.25 389.5 1400.25 388.55 1400.3 387.4 1401.8 387.25 1403.1 387.1 1404.45 387.7 1421.2 395.7 1439.6 399.4 1457.9 403.05 1476.5 402.2 1459.858203125 400.285546875 1441.65 393.5 1441.3373046875 393.37734375 1441 393.25 1425.9 387.5 1407.7 377.5 1401.75 374.2 1375.95 358.95
M 1422.9 621.5
Q 1422.75 621.1 1423.15 620.5 1432.8 639.4 1450.3 651.8 1459.9 658.55 1471.2 655.95 1471.9 636.9 1454.65 623 1449.45 618.75 1444.5 614.3 1451.55 608.75 1458.65 617.55 1470.45 632.1 1487.9 634.9 1487 623.15 1476.75 615.4 1471 611 1465.3 606.15 1459.7 601.35 1454 596.65 1461.95 596.75 1469.2 604 1476.9 611.75 1484.75 619.35 1492.65 626.95 1489.85 636.95 1472.9115234375 636.759765625 1460.8 623
L 1459.65 624
Q 1471.2626953125 636.6509765625 1474.9 653.6 1475.25 655.15 1473.95 656.1 1462 665.3 1448.55 654.85 1431.1 641.2 1422.9 621.5
M 1385.3 640.2
Q 1384.975 637.275 1385.15 634.3 1391.6 657.1 1412.55 664.95 1414.35 665.65 1416.15 665.1 1411.4 646.05 1404.7 627.55
L 1407.4 628.05
Q 1420.15 645.45 1421.15 665.95 1421.4 670.75 1416.6 671.25 1415.35 671.2 1414.1 671.2 1392.6 668.1 1386.45 646.1 1385.625 643.175 1385.3 640.2
M 1352.9 640.5
Q 1352.3 638.75 1351.7 637.05
L 1353.2 636.6
Q 1357.9 645.95 1366.05 652.35 1369.85 651.9 1371.25 648.3 1372.4 645.4 1372.6 642.05 1372.75 640 1374.9 639.1
L 1375.4 640.6
Q 1373.4 644.1 1372.5 648.4 1371.55 652.75 1367.7 654.4 1366.7 654.75 1365.55 654.8 1356.25 650.45 1352.9 640.5 Z"/>
</g>
</defs>

<g transform="matrix( 1, 0, 0, 1, 0,0) ">
<use xlink:href="#Layer6_0_FILL"/>
</g>
</svg>
