
<svg xmlns="http://www.w3.org/2000/svg" version="1.1" xmlns:xlink="http://www.w3.org/1999/xlink" preserveAspectRatio="none" x="0px" y="0px" width="1920px" height="1080px" viewBox="0 0 1920 1080">
<defs>
<filter id="Filter_1" x="-20%" y="-22.764007338409947%" width="140%" height="145.5280146768199%" color-interpolation-filters="sRGB">
<feGaussianBlur in="SourceGraphic" stdDeviation="6.666666666666667,6.666666666666667" result="result1"/>
</filter>

<g id="Layer11_0_FILL">
<path fill="#FFFFFF" stroke="none" d="
M 911.9 667.85
Q 914.2 666.55 915.7 664.9 915.9900390625 664.6099609375 916.25 664.35
L 916.55 661.1
Q 913.9875 662.3947265625 911.15 663.15 906.4 664.1 904 664.7 902.8 665 899.65 666.05 896.9 666.9 895.25 667.25 893.1 667.7 890.35 667.85 888.958984375 667.8921875 886.4 667.85 886.3982421875 667.9521484375 886.4 668.05 886.36015625 667.9572265625 886.3 667.85 885.8787109375 667.8572265625 885.4 667.85 868.3 667.65 864.3 667.55 853.900390625 667.1583984375 845.7 666.05
L 845.7 666.35
Q 845.704296875 666.400390625 845.7 666.45
L 845.4 666.45 844.7 666.55 844.7 665.9
Q 844.3771484375 665.852734375 844 665.8 843.659375 665.7556640625 843.3 665.7 839.5 665.1 837.05 664.25 833.8 663.1 831.7 661.15 830.732421875 660.2658203125 830 659.15 828.8787109375 659.9212890625 828.3 661.85 830.8140625 664.409765625 833.65 666.55 836.5 668.75 838.2 670.15
L 854.2 672.15
Q 872.21640625 670.2458984375 890.4 669.5 899.675390625 669.126953125 908.95 669.05 910.83359375 668.39765625 911.9 667.85
M 883.5 722.3
Q 883.875390625 721.158984375 883.7 720.5 883.637109375 720.048828125 883.3 719.75 882.9654296875 719.39609375 882.55 719.55 880.4982421875 722.5328125 879.4 726.45 878.5779296875 729.465234375 878.45 732.25 878.2875 734.0193359375 879.25 734.5 879.6609375 734.726953125 880.2 734.5 880.6966796875 734.3765625 881 733.9 881.3064453125 733.468359375 881.75 731.9 882.7982421875 728.4599609375 884.95 725.7 884.9951171875 726.2826171875 884.75 732 884.671875 735.784765625 885.75 737.85 886.4068359375 739.1171875 887.3 739.25 888.6681640625 739.5740234375 890.05 737.15
L 893.1 731.95 893.8 730.7
Q 894.094921875 732.8013671875 893.75 734.7 894.955078125 734.3205078125 894.95 732.35 894.9419921875 731.284375 894.95 730.75 894.9658203125 729.9736328125 895.2 729.4 895.9873046875 728.3095703125 896.15 727.7 896.4076171875 726.6357421875 895.45 725.85 894.69296875 725.2203125 893.95 725.25 893.750390625 725.274609375 893.55 725.3 892.11171875 725.5748046875 890.25 727.85
L 888.8 729.65
Q 888.51171875 728.76484375 888.5 727.5 888.5546875 726.033203125 888.5 725.25 888.4166015625 722.48984375 887.1 721.25 886.2091796875 721.2169921875 885.65 722.25 885.185546875 723.441015625 884.95 724.1 884.058984375 726.083984375 882 726.7
L 883.5 722.3
M 860.35 709.6
Q 861.4404296875 709.4673828125 862.35 710.1 863.409375 710.8462890625 863.35 711.95 864.16484375 709.9380859375 862.75 707.9 861.27109375 705.8015625 859.2 706.1 857.3951171875 706.36328125 854.95 709.15 850.5509765625 714.062109375 848.7 716.35 845.3529296875 720.4560546875 843.15 724.1 838.0748046875 732.3498046875 837.5 740.5 837.4009765625 741.3375 837.45 742.15 837.4220703125 746.784765625 839.4 748.8 840.505859375 749.9013671875 842.45 750.5 843.2013671875 750.7001953125 844.1 750.8 848.7564453125 751.4048828125 852.15 749.65 854.0423828125 748.5892578125 855.3 746.85 856.6279296875 745.0638671875 856.9 742.95 851.349609375 746.825390625 844.75 746.5 842.3341796875 746.4283203125 841.5 745.2 841.013671875 744.4654296875 840.95 742.9 840.7310546875 734.476171875 845.7 725.85 849.421484375 719.49140625 856.75 712 858.855078125 709.8830078125 860.35 709.6
M 870.55 726.25
Q 868.8734375 728.4044921875 867.3 727.75 866.3337890625 729.6751953125 864.8 731.65 864.127734375 732.6142578125 864.05 733.25 864.027734375 733.9259765625 864.5 734.35 865.0603515625 734.827734375 865.7 734.7 866.148828125 734.577734375 866.85 733.85
L 869.65 731
Q 869.8267578125 731.4966796875 869.75 732.6 869.61171875 733.6658203125 869.85 734.1 870.187890625 734.827734375 871 734.95 871.8087890625 735.077734375 872.5 734.6 873.3435546875 734.06953125 874.4 732.15 875.3126953125 730.429296875 876.9 728.05 876.0423828125 727.854296875 874.7 729 873.29609375 730.2822265625 872.45 730.25
L 873.05 728.4
Q 873.47578125 727.083203125 873.35 726.45 873.15234375 725.2173828125 872.2 725.1 871.5302734375 725.066796875 870.55 726.25
M 862.95 729.6
Q 863.274609375 729.0736328125 863.3 728.75 863.4404296875 727.8095703125 863.65 727.35 864.149609375 726.63515625 864.3 726.25 864.54609375 725.7251953125 864.2 725.1 863.8142578125 724.4587890625 863.25 724.35 862.14453125 724.003125 861.1 725.05 860.453515625 725.7828125 859.85 727.25
L 858.55 727.5
Q 859.5650390625 724.9732421875 860.75 722.85
L 859.55 722.55
Q 859.2337890625 723.18671875 858.2 723.9 857.102734375 724.7650390625 856.75 725.25 856.3474609375 726.591796875 856 727.25 855.7490234375 727.6494140625 855.3 728.15 854.6013671875 728.815234375 854.45 729 854.0521484375 729.53359375 853.55 730.75 853.048046875 731.95390625 852.7 732.45 851.5521484375 733.665234375 851.05 734.35 850.047265625 735.63828125 850.55 736.8 850.8267578125 737.3513671875 851.45 737.6 852.1109375 737.8517578125 852.75 737.7 853.7330078125 737.4546875 854.65 736.2 855.2228515625 735.4439453125 856.25 733.4 858.383984375 729.58203125 861.25 727 861.671875 727.3982421875 861.3 728.1 861.1744140625 728.460546875 860.7 729.1 860.5650390625 729.4728515625 860.55 730.15 860.5474609375 730.9904296875 860.55 731.25 860.50078125 731.606640625 859.85 733 859.3412109375 734.026953125 859.6 734.65
L 860.65 735.2 863.35 731.6
Q 862.961328125 731.65234375 862.7 731.25 862.5265625 730.8376953125 862.6 730.35 862.675390625 730.1263671875 862.95 729.6
M 845.65 577.5
Q 846.4 576.35 849.05 573.45 854.05 568.15 857.35 566.35 859.15 565.35 862.2 564.35 867.45 562.55 871.65 561.85 882.45 560.15 892.55 564.05 892.9 564.6 894 564.9 896.45 565.65 900.95 567.95 903.95 569.55 905.35 570.5 909.25 573.15 913.5 579.25 916.55 583.65 917.45 584.8 919.25546875 587.0107421875 921.1 588.4 921.7423828125 588.90546875 922.4 589.3 921.385546875 587.3345703125 920.3 585.65 919.6904296875 584.6783203125 919.05 583.8 916.95 580.9 912.15 575.6 908.4 571.45 906.2 569.7 904.95 568.65 902.6 567.1 899.4 564.9 897.7 564.2 896.45 563.65 894.45 563.15
L 891.1 562.25
Q 889.3 561.7 885.25 560.05 881.55 558.55 879.4 558 874.9 556.8 870.3 557.4 869.987890625 557.43984375 869.65 557.5 865.34765625 558.159375 861.8 560.4 861.3822265625 560.6703125 860.85 561.05 859.2275390625 562.2619140625 856.55 564.6 850.6 569.95 847.85 573.05 843.35 578.05 841.2 583 840.15 585.45 841.3 586.45
L 843.4 581.8
Q 844.55 579.15 845.65 577.5
M 900.55 839.5
Q 900.5013671875 839.326171875 900.5 839.2 900.9373046875 839.025 901.35 838.8 901.5263671875 836.0478515625 901.9 832.95 900.105078125 834.2927734375 897.65 836 893.8373046875 838.5921875 891.6 839.6 890.233203125 840.258203125 886.05 841.5
L 880.8 842.95
Q 875.21484375 844.5859375 872.45 845.15 868.670703125 845.9923828125 859.35 847.2 857.3841796875 847.395703125 856 847.3 853.7578125 846.7685546875 852.6 846.6 851.5798828125 846.4271484375 850.05 846.35 848.388671875 846.3869140625 847.5 846.35 841.1310546875 846.25078125 835.3 844.5 830.8353515625 843.0970703125 826.25 840.55 822.7130859375 838.5724609375 821.4 838.15 818.6484375 837.5521484375 817.35 837.05 815.94453125 836.4822265625 813.4 834.5 813.0390625 834.238671875 812.75 834.05 812.5017578125 838.525 813.15 840.95 813.6611328125 842.7986328125 814.8 844.5 813.9986328125 845.5671875 813.85 846.9 813.80078125 847.4125 813.8 847.9 815.0533203125 848.6783203125 824.85 855 831.503125 859.283984375 836.3 861.05 840.469921875 862.5125 845.75 863.2 849.622265625 863.65859375 855.4 863.85 864.076953125 864.142578125 869.75 863.35 877.5556640625 862.3099609375 883.15 858.95 884.9021484375 857.9533203125 888 855.6 891.19609375 853.2595703125 892.9 852.25 893.8244140625 851.7048828125 895.65 850.65 897.2900390625 849.66484375 898.25 848.8 898.8642578125 848.2662109375 899.85 847.15 900.9337890625 845.93515625 901.45 845.4 901.426953125 845.35078125 901.45 845.35 901.3029296875 843.837109375 901.3 842.25 901.03671875 842.525 900.7 842.75 900.700390625 842.47578125 900.7 842.2 900.7115234375 841.507421875 900.55 839.5
M 905.65 671.15
Q 907.3755859375 670.5474609375 908.7 670.05 881.2875 670.2916015625 854.3 673.45
L 838.35 671.25
Q 836.64765625 669.7263671875 833.8 667.35 830.9380859375 665.0205078125 828.4 662.25 828.2376953125 662.7974609375 828.1 663.45 827.825390625 664.97109375 827.6 666.7 834.637890625 672.200390625 843.15 674.6 846.334375 675.4962890625 854.3 676.6
L 858.85 677.2
Q 861.3720703125 677.40234375 862.65 677.45 867.548046875 677.7119140625 873.75 677.15 877.22734375 676.7849609375 884.85 675.75 888.26171875 675.2359375 891 674.8 893.8990234375 674.31171875 896.1 673.85 899.50703125 673.0287109375 905.65 671.15 Z"/>

<path fill="#000000" stroke="none" d="
M 836.65 577.3
Q 835.9025390625 579.0439453125 835.45 580.85 835.2912109375 580.79765625 835.15 580.7 833.5767578125 586.133203125 832.2 592.25 830.35 600.4 828.8 610.2 826.85 622.85 825.55 638.8 825.014453125 645.583203125 824.3 657.3 826.1974609375 659.7298828125 828.3 661.85 828.8787109375 659.9212890625 830 659.15 830.732421875 660.2658203125 831.7 661.15 833.8 663.1 837.05 664.25 839.5 665.1 843.3 665.7 843.659375 665.7556640625 844 665.8 844.3771484375 665.852734375 844.7 665.9
L 844.7 666.55 845.4 666.45 845.7 666.45
Q 845.704296875 666.400390625 845.7 666.35
L 845.7 666.05
Q 853.900390625 667.1583984375 864.3 667.55 868.3 667.65 885.4 667.85 885.8787109375 667.8572265625 886.3 667.85 886.36015625 667.9572265625 886.4 668.05 886.3982421875 667.9521484375 886.4 667.85 888.958984375 667.8921875 890.35 667.85 893.1 667.7 895.25 667.25 896.9 666.9 899.65 666.05 902.8 665 904 664.7 906.4 664.1 911.15 663.15 913.9875 662.3947265625 916.55 661.1
L 916.25 664.35
Q 915.9900390625 664.6099609375 915.7 664.9 914.2 666.55 911.9 667.85 910.83359375 668.39765625 908.95 669.05 909.8703125 669.0404296875 910.75 669 910.109375 669.5123046875 909.4 670.05 909.0662109375 670.0580078125 908.7 670.05 907.3755859375 670.5474609375 905.65 671.15 899.50703125 673.0287109375 896.1 673.85 893.8990234375 674.31171875 891 674.8 888.26171875 675.2359375 884.85 675.75 877.22734375 676.7849609375 873.75 677.15 867.548046875 677.7119140625 862.65 677.45 861.3720703125 677.40234375 858.85 677.2
L 854.3 676.6
Q 846.334375 675.4962890625 843.15 674.6 834.637890625 672.200390625 827.6 666.7 827.825390625 664.97109375 828.1 663.45 828.2376953125 662.7974609375 828.4 662.25 826.200390625 659.8921875 824.3 657.3 824.0884765625 662.2765625 823.95 668.15 823.1626953125 671.633203125 822.6 675.5 821.7419921875 680.6974609375 820.8 691.3
L 816.05 743.9
Q 810.813671875 800.6873046875 808.55 831.6 808.2802734375 835.45859375 808.3 837.9 808.3265625 838.3375 808.4 838.75 808.66953125 842.8099609375 810.05 845.6 811.181640625 848.0576171875 813.4 850.1 820.0078125 857.688671875 830.8 863.3 836.19765625 866.126171875 840.3 866.95 842.5134765625 867.3306640625 846.85 867.3 847.6142578125 867.325 848.45 867.3 857.4041015625 867.127734375 863.35 866.45 871.3990234375 865.5294921875 877.8 863.5 880.6908203125 862.5873046875 882.4 861.65 884.5845703125 860.470703125 888.7 857.5 889.6982421875 856.8435546875 893.2 855 895.9333984375 853.39453125 897.55 852.2 899.5958984375 850.6751953125 901.85 848.3 903.1794921875 846.8521484375 905.65 843.8 904.8291015625 843.6556640625 904.05 843.9 904.001953125 843.85078125 904.05 843.85 904.52578125 841.6126953125 905.1 839.3 906.1876953125 838.399609375 907.3 837.4 906.4009765625 837.4275390625 905.4 837.6 908.0201171875 824.637890625 909.35 808.1 909.71875 802.7791015625 911.2 770.7 912.9310546875 733.3080078125 917.05 697.7 918.9978515625 681.360546875 919.4 675.9 919.55234375 672.8599609375 919.7 670.05 919.6166015625 670.075 919.5 670.05 919.580078125 669.6791015625 919.6 669.05 919.77265625 669.0712890625 919.95 669.05 920.0275390625 664.2935546875 919.7 660 920.1310546875 659.4388671875 920.45 658.75 922.015234375 657.6775390625 923.45 656.35 923.7 656.1 923.6 655.65 923.5 655.2 923.15 655 922.63828125 654.6744140625 921.7 654.8 921.969921875 653.1408203125 922.3 649.95 922.85 644.4 924.8 633.7 926.8 622.8 927.35 617.4 928.8 602.95 925.85 589.3 923.117578125 576.8525390625 917 566.65 915.0142578125 567.448046875 913.6 567.75 912.0740234375 566.1087890625 909.8 563.95 905 559.35 902 557.4 897.95 554.85 892.15 553.15 887.7 551.95 884.35 551.55 874.45 550.35 865.05 554.1 862.05 555.25 856.85 558.2 849.4 562.45 845.05 566.25 839.15 571.4 836.65 577.3
M 900.5 839.2
Q 900.5013671875 839.326171875 900.55 839.5 900.7115234375 841.507421875 900.7 842.2 900.700390625 842.47578125 900.7 842.75 901.03671875 842.525 901.3 842.25 901.3029296875 843.837109375 901.45 845.35 901.426953125 845.35078125 901.45 845.4 900.9337890625 845.93515625 899.85 847.15 898.8642578125 848.2662109375 898.25 848.8 897.2900390625 849.66484375 895.65 850.65 893.8244140625 851.7048828125 892.9 852.25 891.19609375 853.2595703125 888 855.6 884.9021484375 857.9533203125 883.15 858.95 877.5556640625 862.3099609375 869.75 863.35 864.076953125 864.142578125 855.4 863.85 849.622265625 863.65859375 845.75 863.2 840.469921875 862.5125 836.3 861.05 831.503125 859.283984375 824.85 855 815.0533203125 848.6783203125 813.8 847.9 813.80078125 847.4125 813.85 846.9 813.9986328125 845.5671875 814.8 844.5 813.6611328125 842.7986328125 813.15 840.95 812.5017578125 838.525 812.75 834.05 813.0390625 834.238671875 813.4 834.5 815.94453125 836.4822265625 817.35 837.05 818.6484375 837.5521484375 821.4 838.15 822.7130859375 838.5724609375 826.25 840.55 830.8353515625 843.0970703125 835.3 844.5 841.1310546875 846.25078125 847.5 846.35 848.388671875 846.3869140625 850.05 846.35 851.5798828125 846.4271484375 852.6 846.6 853.7578125 846.7685546875 856 847.3 857.3841796875 847.395703125 859.35 847.2 868.670703125 845.9923828125 872.45 845.15 875.21484375 844.5859375 880.8 842.95
L 886.05 841.5
Q 890.233203125 840.258203125 891.6 839.6 893.8373046875 838.5921875 897.65 836 900.105078125 834.2927734375 901.9 832.95 901.5263671875 836.0478515625 901.35 838.8 900.9373046875 839.025 900.5 839.2
M 828.5 656.2
Q 828.3732421875 656.3158203125 828.25 656.45 828.3013671875 656.105859375 828.35 655.75 828.4216796875 655.975 828.5 656.2
M 839.7 581.1
Q 839.45546875 581.1669921875 839.2 581.2 842.0697265625 575.254296875 846.85 570.7 849.7 567.9 854 565.05 857.426171875 562.7900390625 860.85 561.05 861.3822265625 560.6703125 861.8 560.4 865.34765625 558.159375 869.65 557.5 880.0310546875 554.3228515625 889 556.6 894.5 558 899.95 561.65 904.4 564.65 909.4 569.5 913.55 573.45 915.6 576.8 917 579.3 917.7 580.15 918.1431640625 580.7408203125 919 581.65 919.7021484375 583.62890625 920.3 585.65 921.385546875 587.3345703125 922.4 589.3 921.7423828125 588.90546875 921.1 588.4 921.975 591.7978515625 922.55 595.2 920.61640625 596.4595703125 916.8 597.55 891.7 604.65 872.3 602.85 868.7 602.5 864.2 601.85 855.35 600.6 850.75 599.65 843.35 598.1 837.7 595.9 836.7544921875 595.5158203125 836.25 595.1 837.7533203125 587.53125 839.7 581.1
M 921.75 597.3
Q 922.40390625 597.07265625 922.8 596.8 924.531640625 608.1453125 923 619.9 922.5 623.6 920.9 632.05 919.35 639.8 918.9 644.15 918.3791015625 649.0982421875 918.45 653.95 918.0724609375 654.034375 917.7 654.55 917.6830078125 654.5732421875 917.65 654.6 917.1453125 655.3341796875 917 656.4
L 916.95 656.75
Q 913.53984375 658.6541015625 912.7 659 910.65 659.85 906.95 660.55 902.55 661.3 901.1 661.75 897.25 663.3 895.25 663.85 892.55 664.6 887.5 664.6 887.0234375 664.5966796875 886.5 664.6 886.685546875 662.3677734375 887.05 659.4
L 892.35 615.3
Q 891.2 616.65 890.8 620.05
L 885.95 659.5
Q 885.6 662.35 885.6 663.85 885.6076171875 664.22109375 885.6 664.55 880.9802734375 664.4884765625 874.65 664.1 874.726171875 663.301171875 874.7 662.2 874.65 659.95 874.85 658.95 875.55 656.95 875.7 655.85 875.8 655.15 875.75 653.95 875.7 652.55 875.75 652.05 875.8 651.4 876.05 650.35 876.4 649 876.45 648.6 876.75 647.15 876.75 644.9 876.7 641.75 876.75 641.15 876.8 639.5 877.3 636.3
L 878.85 627.3
Q 879.45 623.45 879.55 622.6 879.8 618.85 879.9 618.4 880.4 616.35 880.55 615.3 880.65 614.65 880.7 613.3 880.75 611.95 880.85 611.25 881.4 608.75 881.65 607.5 881.942578125 605.891015625 881.65 604.7 902.1783203125 604.347265625 921.75 597.3
M 907.1 672.35
Q 907.257421875 672.55 907.6 672.55 907.95 672.5 908.35 672.2
L 909 671.7
Q 910.616015625 671.166015625 911.55 670.7 912.073828125 670.43984375 912.8 670 912.12578125 670.00703125 911.4 670 912.1908203125 669.4720703125 912.8 669 912.9427734375 669.0251953125 913.05 669 914.2806640625 668.382421875 915.95 667.3
L 915.8 669
Q 916.08828125 669.0287109375 916.35 669
L 916.35 669.1
Q 916.3 669.4 916.3 670 915.9380859375 670.008984375 915.55 670
L 909.45 728.7
Q 909.0337890625 733.048828125 908.25 741.55 907.4427734375 751.38203125 906.7 780.5 906.044140625 804.2076171875 904.05 818.1 903.5556640625 821.6478515625 902.6 828.1 902.4767578125 828.150390625 902.4 828.25 899.1451171875 830.159765625 896.05 832.8 893.933984375 834.650390625 892.9 835.5 891.0373046875 837.040625 889.5 837.8 887.8240234375 838.6984375 884.55 839.45
L 876.45 841.55
Q 866.7939453125 844.101171875 862 844.85 858.7078125 845.26796875 856.75 845.15 855.8546875 845.12265625 854.5 844.9 852.66171875 844.6787109375 852.2 844.65 850.634375 844.4876953125 846.55 844.35 842.9380859375 844.25859375 840.9 843.85 837.9521484375 843.38828125 834.45 842.05 832.403125 841.198046875 828.3 839.3 823.353515625 836.964453125 820.8 835.65 816.7671875 833.4515625 813.7 831.3 813.2771484375 831.0130859375 812.95 830.75
L 824.7 692.9
Q 825.993359375 677.8154296875 827.3 668.55 831.4017578125 673.0240234375 837.95 675.25 843.4876953125 677.099609375 851.4 677.3 854.2484375 677.4072265625 855.35 677.85 855.690625 677.980859375 856.65 678.55 857.523046875 678.954296875 858.05 679.05 858.8244140625 679.2044921875 859.95 679.05 860.612890625 679.0021484375 861.85 678.8 862.8521484375 678.6962890625 864.35 678.85 865.1521484375 678.8986328125 866.85 679.05 869.1373046875 679.156640625 872.65 678.8 885.8345703125 677.66796875 892.85 676.15 897.2798828125 675.250390625 906.1 672.65 906.6349609375 672.5125 907.1 672.35
M 880.6 604.7
Q 880.5666015625 605.1125 880.75 605.8 880.95 606.9 880.5 608.5 879.8 611 879.75 611.2 879.7 611.85 879.7 613.2 879.75 614.5 879.65 615.15 879.5 616.2 878.9 618.3 878.6 619.8 878.5 622.85 878.4 624.5 877.8 627.45
L 876.55 635.1
Q 875.85 639.3 875.8 641.4 875.75 641.9 875.75 645.05 875.7 647.25 875.45 648.65 875.25 649.75 874.8 651.95 874.75 652.6 874.75 653.85 874.75 655.15 874.65 655.75 874.5 656.8 873.9 658.9 873.5333984375 660.64140625 873.75 664.05 871.140234375 663.9046875 868.25 663.7
L 860.05 663.15
Q 858.7912109375 663.0712890625 857.7 662.95
L 857.65 661.05
Q 857.55 658.3 857.85 656.6 857.9 656.2 858.4 654.05 858.85 651.75 858.85 649.35 858.75 647.55 858.7 646.7 858.65 645.15 858.8 644.05 858.9 643.35 859.3 641.65 859.7 640.15 859.75 639.25 859.55 636.8 859.75 635.6 859.85 635.05 860.15 634.15 860.45 633.15 860.55 632.75 860.75 631.95 860.7 630.45 860.65 628.75 860.75 628.05 860.85 627.3 861.2 625.95 861.55 624.55 861.65 623.85 861.8 622.85 861.7 620.9 861.65 618.85 861.75 617.9 861.75 617.8 862.35 615.15 863.15 611.65 862.45 607.85 861.65 607.95 861.55 608.95
L 861.7 610.45
Q 862 612.1 861.4 614.85 860.7 618.25 860.65 619.3 860.65 619.85 860.75 621.6 860.8 623.05 860.7 623.9 860.6 624.55 860.2 625.95 859.85 627.25 859.75 628 859.65 628.7 859.7 630.25 859.75 631.7 859.6 632.5 859.45 633.45 858.85 635.25 858.65 636.3 858.7 638.45 858.7 640 858.05 643.3 857.5 646.45 857.5 648.15
L 857.7 650.7
Q 857.8 652.2 857.65 653.2 857.5 654.1 856.95 655.95 856.65 657.2 856.65 660.4
L 856.65 662.9
Q 854.3158203125 662.713671875 852.85 662.5 848.332421875 661.5466796875 845.65 661.2
L 845.65 658
Q 845.65 655.2 845.9 653.8
L 846.6 650.85
Q 847.1 648.9 847.15 645.8 847.3 640.9 847.3 640.65 847.35 639.85 847.85 636.1
L 848.55 631.8
Q 849.9 624.6 850 622 850.25 617.9 850.35 617.4
L 850.7 615.7
Q 850.9 614.65 850.95 613.95 850.9 612.3 851.05 611.45 851.55 609.95 851.7 609.2 852.1 607.75 851.4 606.95
L 850.65 607.15
Q 850.95 608.3 850.65 609.85 850.55 610.3 849.9 612.55 849.65 613.5 849.2 615.75
L 845.95 635.65
Q 844.95 642.25 845.25 645.5 845.3 646.35 845.45 647.95 845.55 649.4 845.35 650.4
L 844.8 652.7
Q 844.65 653.5 844.65 655.15
L 844.7 661.1 844.65 661.1
Q 842.8 660.95 841.85 660.85 840.2 660.7 839.1 660.4 837.46796875 659.9548828125 835.7 658.85
L 835.65 657.85
Q 835.65 657.75 836.4 655.7 836.85 654.45 836.75 652.4 836.55 649.3 836.55 648.95 836.6 647.7 837.05 645.65 837.6 643.2 837.7 642.3 837.8 641.1 837.7 638.4 837.55 635.85 837.75 634.5 837.85 633.9 838.3 632.1 838.65 630.6 838.7 629.65 838.75 628.95 838.7 627.25 838.6 625.65 838.75 624.8 839.3 622.8 839.5 621.8 839.8 620.25 839.7 616.9 839.6 613.65 839.95 612 840.6 609.8 840.7 608.65 840.75 608.15 840.7 606.55 840.6 605.25 840.85 604.5 841.35 603.25 841.55 602.65 841.9 601.55 841.4 600.95 841.3 600.75 841.05 600.85 840.85 600.95 840.8 601.15 840.75 601.3 840.75 601.95 840.75 602.4 840.45 603 840.25 603.35 839.9 604 839.6 604.75 839.65 606
L 839.75 608.05
Q 839.75 609.6 838.85 612.55 838.6 614 838.7 617 838.85 620.05 838.55 621.5 838.35 622.55 837.8 624.65 837.55 626.2 837.7 629.3 837.55 631 836.8 634.3 836.6 635.7 836.7 638.95 836.8 641.95 836.5 643.55
L 835.85 646.5
Q 835.55 648.1 835.65 650.6 835.75 653.95 835.6 654.85 835.4 655.95 834.7 658.15
L 834.7 658.15
Q 834.5728515625 658.090234375 834.45 658 834.40703125 658 831.3 655.5 831.591796875 655.2568359375 831.9 655.05 831.2998046875 654.976953125 830.75 655.05 830.5068359375 654.8572265625 830.25 654.65 829.347265625 653.876171875 828.6 653.8 829.552734375 647.2724609375 831.05 634.25
L 832.1 624.8
Q 834 608.2 835.35 600 835.5755859375 598.6818359375 835.8 597.4 836.780859375 598.0875 838.75 598.65 850.9 602.15 863.45 603.75
L 869.05 604.3
Q 874.85859375 604.770703125 880.6 604.7
M 873.75 614.8
Q 874 611.4 873.2 608.85 869.6 636.85 868.25 663 869.2 661.5 869.6 657.85 869.8 656 870.85 639.3 871.6 628.05 872.85 620.85 873.65 616.45 873.75 614.8
M 899.55 607.75
Q 897.9 616.7 897.05 633.35 896.15 651.25 895 659.05 894.7 661.2 895.35 662 897.5 651.2 898.65 635.3 899.55 621.5 899.55 607.75
M 921.45 604.85
Q 922.05 602.85 921.45 600.9
L 920.7 601.15
Q 921.05 602.5 920.5 604.55 919.6 607.7 919.55 607.95 919.4 608.8 919.4 610.75 919.4 612.6 919.2 613.55 919.05 614.15 918.55 615.5 918.1 616.7 918 617.4 917.9 618.15 917.95 619.45 918 620.95 917.95 621.5 917.85 622.25 917.45 623.65 917.05 625.05 916.95 625.75 916.85 626.5 916.95 628.2 917.05 629.8 916.9 630.65 916.8 631.25 916.35 632.8 916 634.1 915.95 634.9 915.95 635.3 916 636.35 916.1 637.2 916 637.75 915.95 638.15 915.7 639 915.45 639.8 915.4 640.25 915.3 641.05 915.5 642.6 915.5 643.4 915.2 644.7 914.8 646.25 914.75 646.8 914.65 647.8 914.65 649.75 914.5 650.8 913.8 652.8 913.25 654.65 914 655.85 914.7 655.7 914.7 654.75
L 914.6 653.4
Q 914.65 652.8 915.05 651.9 915.5 650.75 915.6 650.35 915.8 649.65 915.7 648.05 915.6 646.5 915.9 645.75 916.7 644.35 916.85 643.6 916.95 643.15 916.95 642.45 916.9 641.45 916.9 641.25 917 640.6 917.45 639.6 918 638.3 918.1 638.05 918.35 637.3 918.45 636 918.55 634.3 918.6 633.95 919.3 631 919.45 629.5 919.5 628.85 919.45 627.2 919.4 625.7 919.55 624.9 919.65 624.3 920.1 622.6 920.5 621.2 920.5 620.3 920.5 619.85 920.35 618.55 920.25 617.45 920.35 616.8 920.45 616.3 920.8 615.35 921.15 614.4 921.2 613.9 921.35 613 921.15 611.75 920.85 610.35 920.75 609.6 920.45 607.9 920.85 606.5
L 921.45 604.85
M 908.3 603.75
Q 907.35 607.7 906.8 612.7 906.45 615.7 906.05 621.8
L 903.75 657.5
Q 905.3 654.8 906.15 649.8 907.2 643.55 907.6 635.65 907.85 631.3 908.05 621.4
L 908.3 603.75
M 915.25 653.8
Q 915.2900390625 653.873046875 915.3 653.95 915.353125 653.846484375 915.4 653.75 915.3390625 653.7732421875 915.25 653.8 Z"/>

<path fill="#3359FF" stroke="none" d="
M 880.75 605.8
Q 880.5666015625 605.1125 880.6 604.7 874.85859375 604.770703125 869.05 604.3
L 863.45 603.75
Q 850.9 602.15 838.75 598.65 836.780859375 598.0875 835.8 597.4 835.5755859375 598.6818359375 835.35 600 834 608.2 832.1 624.8
L 831.05 634.25
Q 829.552734375 647.2724609375 828.6 653.8 829.347265625 653.876171875 830.25 654.65 830.5068359375 654.8572265625 830.75 655.05 831.2998046875 654.976953125 831.9 655.05 831.591796875 655.2568359375 831.3 655.5 834.40703125 658 834.45 658 834.5728515625 658.090234375 834.7 658.15
L 834.7 658.15
Q 835.4 655.95 835.6 654.85 835.75 653.95 835.65 650.6 835.55 648.1 835.85 646.5
L 836.5 643.55
Q 836.8 641.95 836.7 638.95 836.6 635.7 836.8 634.3 837.55 631 837.7 629.3 837.55 626.2 837.8 624.65 838.35 622.55 838.55 621.5 838.85 620.05 838.7 617 838.6 614 838.85 612.55 839.75 609.6 839.75 608.05
L 839.65 606
Q 839.6 604.75 839.9 604 840.25 603.35 840.45 603 840.75 602.4 840.75 601.95 840.75 601.3 840.8 601.15 840.85 600.95 841.05 600.85 841.3 600.75 841.4 600.95 841.9 601.55 841.55 602.65 841.35 603.25 840.85 604.5 840.6 605.25 840.7 606.55 840.75 608.15 840.7 608.65 840.6 609.8 839.95 612 839.6 613.65 839.7 616.9 839.8 620.25 839.5 621.8 839.3 622.8 838.75 624.8 838.6 625.65 838.7 627.25 838.75 628.95 838.7 629.65 838.65 630.6 838.3 632.1 837.85 633.9 837.75 634.5 837.55 635.85 837.7 638.4 837.8 641.1 837.7 642.3 837.6 643.2 837.05 645.65 836.6 647.7 836.55 648.95 836.55 649.3 836.75 652.4 836.85 654.45 836.4 655.7 835.65 657.75 835.65 657.85
L 835.7 658.85
Q 837.46796875 659.9548828125 839.1 660.4 840.2 660.7 841.85 660.85 842.8 660.95 844.65 661.1
L 844.7 661.1 844.65 655.15
Q 844.65 653.5 844.8 652.7
L 845.35 650.4
Q 845.55 649.4 845.45 647.95 845.3 646.35 845.25 645.5 844.95 642.25 845.95 635.65
L 849.2 615.75
Q 849.65 613.5 849.9 612.55 850.55 610.3 850.65 609.85 850.95 608.3 850.65 607.15
L 851.4 606.95
Q 852.1 607.75 851.7 609.2 851.55 609.95 851.05 611.45 850.9 612.3 850.95 613.95 850.9 614.65 850.7 615.7
L 850.35 617.4
Q 850.25 617.9 850 622 849.9 624.6 848.55 631.8
L 847.85 636.1
Q 847.35 639.85 847.3 640.65 847.3 640.9 847.15 645.8 847.1 648.9 846.6 650.85
L 845.9 653.8
Q 845.65 655.2 845.65 658
L 845.65 661.2
Q 848.332421875 661.5466796875 852.85 662.5 854.3158203125 662.713671875 856.65 662.9
L 856.65 660.4
Q 856.65 657.2 856.95 655.95 857.5 654.1 857.65 653.2 857.8 652.2 857.7 650.7
L 857.5 648.15
Q 857.5 646.45 858.05 643.3 858.7 640 858.7 638.45 858.65 636.3 858.85 635.25 859.45 633.45 859.6 632.5 859.75 631.7 859.7 630.25 859.65 628.7 859.75 628 859.85 627.25 860.2 625.95 860.6 624.55 860.7 623.9 860.8 623.05 860.75 621.6 860.65 619.85 860.65 619.3 860.7 618.25 861.4 614.85 862 612.1 861.7 610.45
L 861.55 608.95
Q 861.65 607.95 862.45 607.85 863.15 611.65 862.35 615.15 861.75 617.8 861.75 617.9 861.65 618.85 861.7 620.9 861.8 622.85 861.65 623.85 861.55 624.55 861.2 625.95 860.85 627.3 860.75 628.05 860.65 628.75 860.7 630.45 860.75 631.95 860.55 632.75 860.45 633.15 860.15 634.15 859.85 635.05 859.75 635.6 859.55 636.8 859.75 639.25 859.7 640.15 859.3 641.65 858.9 643.35 858.8 644.05 858.65 645.15 858.7 646.7 858.75 647.55 858.85 649.35 858.85 651.75 858.4 654.05 857.9 656.2 857.85 656.6 857.55 658.3 857.65 661.05
L 857.7 662.95
Q 858.7912109375 663.0712890625 860.05 663.15
L 868.25 663.7
Q 871.140234375 663.9046875 873.75 664.05 873.5333984375 660.64140625 873.9 658.9 874.5 656.8 874.65 655.75 874.75 655.15 874.75 653.85 874.75 652.6 874.8 651.95 875.25 649.75 875.45 648.65 875.7 647.25 875.75 645.05 875.75 641.9 875.8 641.4 875.85 639.3 876.55 635.1
L 877.8 627.45
Q 878.4 624.5 878.5 622.85 878.6 619.8 878.9 618.3 879.5 616.2 879.65 615.15 879.75 614.5 879.7 613.2 879.7 611.85 879.75 611.2 879.8 611 880.5 608.5 880.95 606.9 880.75 605.8
M 873.2 608.85
Q 874 611.4 873.75 614.8 873.65 616.45 872.85 620.85 871.6 628.05 870.85 639.3 869.8 656 869.6 657.85 869.2 661.5 868.25 663 869.6 636.85 873.2 608.85
M 851.15 820.6
Q 852.69765625 820.9201171875 854.7 821.95 855.8447265625 822.544140625 858.1 823.7 865.7591796875 827.5833984375 874.7 826.6 883.6443359375 825.6150390625 890.3 820.15 888.437890625 819.3896484375 885.85 820.05 884.96796875 820.2251953125 881.3 821.65 873.9828125 824.2455078125 866.25 822.9 864.1005859375 822.542578125 860.45 821.45 856.2544921875 820.1970703125 854.65 819.8 847.4623046875 818.137109375 842.85 820.15 842.291796875 820.38984375 841.95 820.85 841.609375 821.4234375 841.95 821.8 844.9197265625 820.8822265625 846.5 820.65 849.1080078125 820.184375 851.15 820.6
M 889.3 800
Q 886.9017578125 800.5115234375 879.85 802.75 874.030078125 804.5537109375 870.2 805.05 864.8060546875 805.6982421875 860.55 804.4 858.1935546875 803.529296875 857 803.2 854.885546875 802.54375 853.25 802.75 858.66171875 804.96484375 861.45 805.8 866.1443359375 807.1755859375 870 807 872.783203125 806.9791015625 877.65 805.8 888.3212890625 803.2294921875 898.95 799.25 894.723046875 798.7859375 889.3 800
M 877.15 815.95
L 876.9 815.25
Q 872.237109375 816.94453125 863.85 816.8 853.9095703125 816.5591796875 850.6 817.15 849.816796875 817.30234375 849.25 817.7 848.6376953125 818.188671875 848.85 818.75 851.3046875 818.4291015625 854.85 818.45 856.841796875 818.52578125 860.85 818.6 867.6306640625 818.625390625 874.4 817.4 876.59765625 817.00625 877.15 815.95
M 877.9 807.5
Q 874.93828125 808.951953125 870.75 809.1 868.4697265625 809.1447265625 863.2 808.6 848.3806640625 807.1822265625 833.2 808.25 833.17109375 807.9775390625 832.75 808 832.3923828125 808.02734375 832.35 808.3 832.1470703125 808.8146484375 832.6 809.55
L 858.25 810.85
Q 864.0115234375 811.208203125 867.05 811.1 871.954296875 810.9048828125 875.7 809.8 876.694140625 809.53515625 877.35 808.95 878.1123046875 808.2619140625 877.9 807.5
M 880.2 814.05
Q 878.9921875 812.525 876.55 812.4 874.951953125 812.2314453125 872.25 812.75 857.3611328125 815.5833984375 842.35 812.45 841.9130859375 812.351953125 841.45 812.5 841.0330078125 812.6396484375 841.1 813 856.32734375 816.804296875 871.65 814.3 875.0314453125 813.7541015625 875.95 813.7 878.395703125 813.5064453125 880.2 814.05
M 865.55 779.65
Q 864.5134765625 779.7748046875 862.4 779.9 860.744921875 780.0279296875 860.55 781 864.2947265625 782.364453125 867.85 780.5 867.8759765625 780.4685546875 871.45 778.05 873.553515625 776.628515625 875.2 776.55 876.0595703125 776.5755859375 876.45 776.85 876.73359375 777.1279296875 877.2 778.45 877.541015625 779.474609375 878.3 780.25 878.0271484375 780.2626953125 877.85 780.35 877.433203125 780.6501953125 877.7 781
L 879.45 781.15
Q 879.5765625 781.2001953125 879.75 781.35 881.571875 782.246875 883.6 782.2 883.8638671875 782.15 884.2 782.15 885.037109375 781.9998046875 885.85 781.8 886.362890625 781.6 886.9 781.4 888.8240234375 780.459765625 890.15 778.55 891.42421875 776.6375 891.6 774.45 890.3775390625 774.790234375 888.6 776.3 886.6140625 778.0220703125 885.6 778.45 884.5458984375 778.9736328125 883.35 779 882.098828125 779.0736328125 881 778.6 880.3916015625 778.3705078125 877.55 776.45 875.4896484375 775.141015625 873.9 775.35 872.6412109375 775.4400390625 871.1 776.65 868.787890625 778.4212890625 868.5 778.6 867.2671875 779.3736328125 865.55 779.65
M 843.05 788.3
Q 843.5095703125 788.5505859375 843.65 788.95 847.13359375 787.6671875 848.9 787.45 849.2455078125 787.425 851.4 787.3 852.9181640625 787.2740234375 853.9 787 855.1716796875 786.571875 857.55 785.25 859.9783203125 784.2419921875 864.45 784.35 865.7451171875 784.3470703125 865.8 783.6 861.5166015625 782.01171875 857.3 783.8 854.49765625 785.28359375 853 785.65 852.040625 785.8744140625 850.25 785.95 848.2765625 786.025390625 847.5 786.15 845.485546875 786.673828125 844.5 786.85 842.7927734375 787.071484375 841.75 786.4 841.3828125 786.5765625 841.55 787.1 841.7642578125 787.6734375 842.2 787.85 842.4423828125 788.0130859375 843.05 788.3
M 837.9 778.3
Q 836.2361328125 778.1271484375 835.45 778.75 834.9546875 779.2255859375 834.85 779.9 834.7552734375 780.6244140625 835.2 781.05 835.987890625 779.7287109375 837.7 779.6 839.359375 779.47890625 840.35 780.65 840.868359375 781.2150390625 841.7 782.5 842.76796875 783.64375 843.7 783
L 845.35 782.2
Q 849.4876953125 780.217578125 851.95 779.85 855.8048828125 779.3318359375 859.15 781.05 859.56640625 780.275 859.15 779.45 858.05390625 779.573046875 856.4 779 854.3048828125 778.3767578125 853.6 778.25 851.95078125 778.1287109375 848.7 779.35
L 842.45 781.85
Q 842.189453125 780.4142578125 840.75 779.45 839.5107421875 778.5767578125 837.9 778.3
M 887.45 708.1
Q 884.77734375 706.05234375 880.75 705.05 878.09296875 704.4728515625 873.3 704.05 867.2798828125 703.515234375 864.25 703.9 860.5869140625 704.3306640625 854.9 706.65 848.951953125 709.1724609375 846.35 712.05 844.0572265625 714.4638671875 842.5 718.35 841.4923828125 720.8607421875 840.3 725.6
L 838.95 730.9
Q 837.4642578125 737.05625 837.5 739.95 837.4509765625 740.17421875 837.5 740.5 838.0748046875 732.3498046875 843.15 724.1 845.3529296875 720.4560546875 848.7 716.35 850.5509765625 714.062109375 854.95 709.15 857.3951171875 706.36328125 859.2 706.1 861.27109375 705.8015625 862.75 707.9 864.16484375 709.9380859375 863.35 711.95 863.409375 710.8462890625 862.35 710.1 861.4404296875 709.4673828125 860.35 709.6 858.855078125 709.8830078125 856.75 712 849.421484375 719.49140625 845.7 725.85 840.7310546875 734.476171875 840.95 742.9 841.013671875 744.4654296875 841.5 745.2 842.3341796875 746.4283203125 844.75 746.5 851.349609375 746.825390625 856.9 742.95 856.6279296875 745.0638671875 855.3 746.85 854.0423828125 748.5892578125 852.15 749.65 848.7564453125 751.4048828125 844.1 750.8 843.2013671875 750.7001953125 842.45 750.5 842.91328125 750.85 843.45 751.2 846.1388671875 753.101171875 850.5 754.65 858.0037109375 757.4154296875 864.05 757.7 871.662109375 758.01640625 877.45 754.65 879.868359375 753.30234375 882.35 750.95 889.8349609375 743.910546875 892.65 733.7 892.86328125 732.8123046875 893.1 731.95
L 890.05 737.15
Q 888.6681640625 739.5740234375 887.3 739.25 886.4068359375 739.1171875 885.75 737.85 884.671875 735.784765625 884.75 732 884.9951171875 726.2826171875 884.95 725.7 882.7982421875 728.4599609375 881.75 731.9 881.3064453125 733.468359375 881 733.9 880.6966796875 734.3765625 880.2 734.5 879.6609375 734.726953125 879.25 734.5 878.2875 734.0193359375 878.45 732.25 878.5779296875 729.465234375 879.4 726.45 880.4982421875 722.5328125 882.55 719.55 882.9654296875 719.39609375 883.3 719.75 883.637109375 720.048828125 883.7 720.5 883.875390625 721.158984375 883.5 722.3
L 882 726.7
Q 884.058984375 726.083984375 884.95 724.1 885.185546875 723.441015625 885.65 722.25 886.2091796875 721.2169921875 887.1 721.25 888.4166015625 722.48984375 888.5 725.25 888.5546875 726.033203125 888.5 727.5 888.51171875 728.76484375 888.8 729.65
L 890.25 727.85
Q 892.11171875 725.5748046875 893.55 725.3 893.750390625 725.274609375 893.95 725.25 894.0083984375 721.213671875 893 717.35 892.3779296875 714.557421875 891.2 712.45 889.923828125 710.03359375 887.45 708.1
M 863.3 728.75
Q 863.274609375 729.0736328125 862.95 729.6 862.675390625 730.1263671875 862.6 730.35 862.5265625 730.8376953125 862.7 731.25 862.961328125 731.65234375 863.35 731.6
L 860.65 735.2 859.6 734.65
Q 859.3412109375 734.026953125 859.85 733 860.50078125 731.606640625 860.55 731.25 860.5474609375 730.9904296875 860.55 730.15 860.5650390625 729.4728515625 860.7 729.1 861.1744140625 728.460546875 861.3 728.1 861.671875 727.3982421875 861.25 727 858.383984375 729.58203125 856.25 733.4 855.2228515625 735.4439453125 854.65 736.2 853.7330078125 737.4546875 852.75 737.7 852.1109375 737.8517578125 851.45 737.6 850.8267578125 737.3513671875 850.55 736.8 850.047265625 735.63828125 851.05 734.35 851.5521484375 733.665234375 852.7 732.45 853.048046875 731.95390625 853.55 730.75 854.0521484375 729.53359375 854.45 729 854.6013671875 728.815234375 855.3 728.15 855.7490234375 727.6494140625 856 727.25 856.3474609375 726.591796875 856.75 725.25 857.102734375 724.7650390625 858.2 723.9 859.2337890625 723.18671875 859.55 722.55
L 860.75 722.85
Q 859.5650390625 724.9732421875 858.55 727.5
L 859.85 727.25
Q 860.453515625 725.7828125 861.1 725.05 862.14453125 724.003125 863.25 724.35 863.8142578125 724.4587890625 864.2 725.1 864.54609375 725.7251953125 864.3 726.25 864.149609375 726.63515625 863.65 727.35 863.4404296875 727.8095703125 863.3 728.75
M 867.3 727.75
Q 868.8734375 728.4044921875 870.55 726.25 871.5302734375 725.066796875 872.2 725.1 873.15234375 725.2173828125 873.35 726.45 873.47578125 727.083203125 873.05 728.4
L 872.45 730.25
Q 873.29609375 730.2822265625 874.7 729 876.0423828125 727.854296875 876.9 728.05 875.3126953125 730.429296875 874.4 732.15 873.3435546875 734.06953125 872.5 734.6 871.8087890625 735.077734375 871 734.95 870.187890625 734.827734375 869.85 734.1 869.61171875 733.6658203125 869.75 732.6 869.8267578125 731.4966796875 869.65 731
L 866.85 733.85
Q 866.148828125 734.577734375 865.7 734.7 865.0603515625 734.827734375 864.5 734.35 864.027734375 733.9259765625 864.05 733.25 864.127734375 732.6142578125 864.8 731.65 866.3337890625 729.6751953125 867.3 727.75
M 922.8 596.8
Q 922.40390625 597.07265625 921.75 597.3 902.1783203125 604.347265625 881.65 604.7 881.942578125 605.891015625 881.65 607.5 881.4 608.75 880.85 611.25 880.75 611.95 880.7 613.3 880.65 614.65 880.55 615.3 880.4 616.35 879.9 618.4 879.8 618.85 879.55 622.6 879.45 623.45 878.85 627.3
L 877.3 636.3
Q 876.8 639.5 876.75 641.15 876.7 641.75 876.75 644.9 876.75 647.15 876.45 648.6 876.4 649 876.05 650.35 875.8 651.4 875.75 652.05 875.7 652.55 875.75 653.95 875.8 655.15 875.7 655.85 875.55 656.95 874.85 658.95 874.65 659.95 874.7 662.2 874.726171875 663.301171875 874.65 664.1 880.9802734375 664.4884765625 885.6 664.55 885.6076171875 664.22109375 885.6 663.85 885.6 662.35 885.95 659.5
L 890.8 620.05
Q 891.2 616.65 892.35 615.3
L 887.05 659.4
Q 886.685546875 662.3677734375 886.5 664.6 887.0234375 664.5966796875 887.5 664.6 892.55 664.6 895.25 663.85 897.25 663.3 901.1 661.75 902.55 661.3 906.95 660.55 910.65 659.85 912.7 659 913.53984375 658.6541015625 916.95 656.75
L 917 656.4
Q 917.1453125 655.3341796875 917.65 654.6 917.6830078125 654.5732421875 917.7 654.55 918.0724609375 654.034375 918.45 653.95 918.3791015625 649.0982421875 918.9 644.15 919.35 639.8 920.9 632.05 922.5 623.6 923 619.9 924.531640625 608.1453125 922.8 596.8
M 915.3 653.95
Q 915.2900390625 653.873046875 915.25 653.8 915.3390625 653.7732421875 915.4 653.75 915.353125 653.846484375 915.3 653.95
M 906.8 612.7
Q 907.35 607.7 908.3 603.75
L 908.05 621.4
Q 907.85 631.3 907.6 635.65 907.2 643.55 906.15 649.8 905.3 654.8 903.75 657.5
L 906.05 621.8
Q 906.45 615.7 906.8 612.7
M 921.45 600.9
Q 922.05 602.85 921.45 604.85
L 920.85 606.5
Q 920.45 607.9 920.75 609.6 920.85 610.35 921.15 611.75 921.35 613 921.2 613.9 921.15 614.4 920.8 615.35 920.45 616.3 920.35 616.8 920.25 617.45 920.35 618.55 920.5 619.85 920.5 620.3 920.5 621.2 920.1 622.6 919.65 624.3 919.55 624.9 919.4 625.7 919.45 627.2 919.5 628.85 919.45 629.5 919.3 631 918.6 633.95 918.55 634.3 918.45 636 918.35 637.3 918.1 638.05 918 638.3 917.45 639.6 917 640.6 916.9 641.25 916.9 641.45 916.95 642.45 916.95 643.15 916.85 643.6 916.7 644.35 915.9 645.75 915.6 646.5 915.7 648.05 915.8 649.65 915.6 650.35 915.5 650.75 915.05 651.9 914.65 652.8 914.6 653.4
L 914.7 654.75
Q 914.7 655.7 914 655.85 913.25 654.65 913.8 652.8 914.5 650.8 914.65 649.75 914.65 647.8 914.75 646.8 914.8 646.25 915.2 644.7 915.5 643.4 915.5 642.6 915.3 641.05 915.4 640.25 915.45 639.8 915.7 639 915.95 638.15 916 637.75 916.1 637.2 916 636.35 915.95 635.3 915.95 634.9 916 634.1 916.35 632.8 916.8 631.25 916.9 630.65 917.05 629.8 916.95 628.2 916.85 626.5 916.95 625.75 917.05 625.05 917.45 623.65 917.85 622.25 917.95 621.5 918 620.95 917.95 619.45 917.9 618.15 918 617.4 918.1 616.7 918.55 615.5 919.05 614.15 919.2 613.55 919.4 612.6 919.4 610.75 919.4 608.8 919.55 607.95 919.6 607.7 920.5 604.55 921.05 602.5 920.7 601.15
L 921.45 600.9
M 897.05 633.35
Q 897.9 616.7 899.55 607.75 899.55 621.5 898.65 635.3 897.5 651.2 895.35 662 894.7 661.2 895 659.05 896.15 651.25 897.05 633.35
M 849.05 573.45
Q 846.4 576.35 845.65 577.5 844.55 579.15 843.4 581.8
L 841.3 586.45
Q 840.15 585.45 841.2 583 843.35 578.05 847.85 573.05 850.6 569.95 856.55 564.6 859.2275390625 562.2619140625 860.85 561.05 857.426171875 562.7900390625 854 565.05 849.7 567.9 846.85 570.7 842.0697265625 575.254296875 839.2 581.2 839.45546875 581.1669921875 839.7 581.1 837.7533203125 587.53125 836.25 595.1 836.7544921875 595.5158203125 837.7 595.9 843.35 598.1 850.75 599.65 855.35 600.6 864.2 601.85 868.7 602.5 872.3 602.85 891.7 604.65 916.8 597.55 920.61640625 596.4595703125 922.55 595.2 921.975 591.7978515625 921.1 588.4 919.25546875 587.0107421875 917.45 584.8 916.55 583.65 913.5 579.25 909.25 573.15 905.35 570.5 903.95 569.55 900.95 567.95 896.45 565.65 894 564.9 892.9 564.6 892.55 564.05 882.45 560.15 871.65 561.85 867.45 562.55 862.2 564.35 859.15 565.35 857.35 566.35 854.05 568.15 849.05 573.45
M 879.4 558
Q 881.55 558.55 885.25 560.05 889.3 561.7 891.1 562.25
L 894.45 563.15
Q 896.45 563.65 897.7 564.2 899.4 564.9 902.6 567.1 904.95 568.65 906.2 569.7 908.4 571.45 912.15 575.6 916.95 580.9 919.05 583.8 919.6904296875 584.6783203125 920.3 585.65 919.7021484375 583.62890625 919 581.65 918.1431640625 580.7408203125 917.7 580.15 917 579.3 915.6 576.8 913.55 573.45 909.4 569.5 904.4 564.65 899.95 561.65 894.5 558 889 556.6 880.0310546875 554.3228515625 869.65 557.5 869.987890625 557.43984375 870.3 557.4 874.9 556.8 879.4 558 Z"/>

<path fill="#CCCCCC" stroke="none" d="
M 907.6 672.55
Q 907.257421875 672.55 907.1 672.35 906.6349609375 672.5125 906.1 672.65 897.2798828125 675.250390625 892.85 676.15 885.8345703125 677.66796875 872.65 678.8 869.1373046875 679.156640625 866.85 679.05 865.1521484375 678.8986328125 864.35 678.85 862.8521484375 678.6962890625 861.85 678.8 860.612890625 679.0021484375 859.95 679.05 858.8244140625 679.2044921875 858.05 679.05 857.523046875 678.954296875 856.65 678.55 855.690625 677.980859375 855.35 677.85 854.2484375 677.4072265625 851.4 677.3 843.4876953125 677.099609375 837.95 675.25 831.4017578125 673.0240234375 827.3 668.55 825.993359375 677.8154296875 824.7 692.9
L 812.95 830.75
Q 813.2771484375 831.0130859375 813.7 831.3 816.7671875 833.4515625 820.8 835.65 823.353515625 836.964453125 828.3 839.3 832.403125 841.198046875 834.45 842.05 837.9521484375 843.38828125 840.9 843.85 842.9380859375 844.25859375 846.55 844.35 850.634375 844.4876953125 852.2 844.65 852.66171875 844.6787109375 854.5 844.9 855.8546875 845.12265625 856.75 845.15 858.7078125 845.26796875 862 844.85 866.7939453125 844.101171875 876.45 841.55
L 884.55 839.45
Q 887.8240234375 838.6984375 889.5 837.8 891.0373046875 837.040625 892.9 835.5 893.933984375 834.650390625 896.05 832.8 899.1451171875 830.159765625 902.4 828.25 902.4767578125 828.150390625 902.6 828.1 903.5556640625 821.6478515625 904.05 818.1 906.044140625 804.2076171875 906.7 780.5 907.4427734375 751.38203125 908.25 741.55 909.0337890625 733.048828125 909.45 728.7
L 915.55 670
Q 915.9380859375 670.008984375 916.3 670 916.3 669.4 916.35 669.1
L 916.35 669
Q 916.08828125 669.0287109375 915.8 669
L 915.95 667.3
Q 914.2806640625 668.382421875 913.05 669 912.9427734375 669.0251953125 912.8 669 912.1908203125 669.4720703125 911.4 670 912.12578125 670.00703125 912.8 670 912.073828125 670.43984375 911.55 670.7 910.616015625 671.166015625 909 671.7
L 908.35 672.2
Q 907.95 672.5 907.6 672.55
M 880.75 705.05
Q 884.77734375 706.05234375 887.45 708.1 889.923828125 710.03359375 891.2 712.45 892.3779296875 714.557421875 893 717.35 894.0083984375 721.213671875 893.95 725.25 894.69296875 725.2203125 895.45 725.85 896.4076171875 726.6357421875 896.15 727.7 895.9873046875 728.3095703125 895.2 729.4 894.9658203125 729.9736328125 894.95 730.75 894.9419921875 731.284375 894.95 732.35 894.955078125 734.3205078125 893.75 734.7 894.094921875 732.8013671875 893.8 730.7
L 893.1 731.95
Q 892.86328125 732.8123046875 892.65 733.7 889.8349609375 743.910546875 882.35 750.95 879.868359375 753.30234375 877.45 754.65 871.662109375 758.01640625 864.05 757.7 858.0037109375 757.4154296875 850.5 754.65 846.1388671875 753.101171875 843.45 751.2 842.91328125 750.85 842.45 750.5 840.505859375 749.9013671875 839.4 748.8 837.4220703125 746.784765625 837.45 742.15 837.4009765625 741.3375 837.5 740.5 837.4509765625 740.17421875 837.5 739.95 837.4642578125 737.05625 838.95 730.9
L 840.3 725.6
Q 841.4923828125 720.8607421875 842.5 718.35 844.0572265625 714.4638671875 846.35 712.05 848.951953125 709.1724609375 854.9 706.65 860.5869140625 704.3306640625 864.25 703.9 867.2798828125 703.515234375 873.3 704.05 878.09296875 704.4728515625 880.75 705.05
M 835.45 778.75
Q 836.2361328125 778.1271484375 837.9 778.3 839.5107421875 778.5767578125 840.75 779.45 842.189453125 780.4142578125 842.45 781.85
L 848.7 779.35
Q 851.95078125 778.1287109375 853.6 778.25 854.3048828125 778.3767578125 856.4 779 858.05390625 779.573046875 859.15 779.45 859.56640625 780.275 859.15 781.05 855.8048828125 779.3318359375 851.95 779.85 849.4876953125 780.217578125 845.35 782.2
L 843.7 783
Q 842.76796875 783.64375 841.7 782.5 840.868359375 781.2150390625 840.35 780.65 839.359375 779.47890625 837.7 779.6 835.987890625 779.7287109375 835.2 781.05 834.7552734375 780.6244140625 834.85 779.9 834.9546875 779.2255859375 835.45 778.75
M 843.65 788.95
Q 843.5095703125 788.5505859375 843.05 788.3 842.4423828125 788.0130859375 842.2 787.85 841.7642578125 787.6734375 841.55 787.1 841.3828125 786.5765625 841.75 786.4 842.7927734375 787.071484375 844.5 786.85 845.485546875 786.673828125 847.5 786.15 848.2765625 786.025390625 850.25 785.95 852.040625 785.8744140625 853 785.65 854.49765625 785.28359375 857.3 783.8 861.5166015625 782.01171875 865.8 783.6 865.7451171875 784.3470703125 864.45 784.35 859.9783203125 784.2419921875 857.55 785.25 855.1716796875 786.571875 853.9 787 852.9181640625 787.2740234375 851.4 787.3 849.2455078125 787.425 848.9 787.45 847.13359375 787.6671875 843.65 788.95
M 862.4 779.9
Q 864.5134765625 779.7748046875 865.55 779.65 867.2671875 779.3736328125 868.5 778.6 868.787890625 778.4212890625 871.1 776.65 872.6412109375 775.4400390625 873.9 775.35 875.4896484375 775.141015625 877.55 776.45 880.3916015625 778.3705078125 881 778.6 882.098828125 779.0736328125 883.35 779 884.5458984375 778.9736328125 885.6 778.45 886.6140625 778.0220703125 888.6 776.3 890.3775390625 774.790234375 891.6 774.45 891.42421875 776.6375 890.15 778.55 888.8240234375 780.459765625 886.9 781.4 886.362890625 781.6 885.85 781.8 885.037109375 781.9998046875 884.2 782.15 883.8638671875 782.15 883.6 782.2 881.571875 782.246875 879.75 781.35 879.5765625 781.2001953125 879.45 781.15
L 877.7 781
Q 877.433203125 780.6501953125 877.85 780.35 878.0271484375 780.2626953125 878.3 780.25 877.541015625 779.474609375 877.2 778.45 876.73359375 777.1279296875 876.45 776.85 876.0595703125 776.5755859375 875.2 776.55 873.553515625 776.628515625 871.45 778.05 867.8759765625 780.4685546875 867.85 780.5 864.2947265625 782.364453125 860.55 781 860.744921875 780.0279296875 862.4 779.9
M 876.55 812.4
Q 878.9921875 812.525 880.2 814.05 878.395703125 813.5064453125 875.95 813.7 875.0314453125 813.7541015625 871.65 814.3 856.32734375 816.804296875 841.1 813 841.0330078125 812.6396484375 841.45 812.5 841.9130859375 812.351953125 842.35 812.45 857.3611328125 815.5833984375 872.25 812.75 874.951953125 812.2314453125 876.55 812.4
M 870.75 809.1
Q 874.93828125 808.951953125 877.9 807.5 878.1123046875 808.2619140625 877.35 808.95 876.694140625 809.53515625 875.7 809.8 871.954296875 810.9048828125 867.05 811.1 864.0115234375 811.208203125 858.25 810.85
L 832.6 809.55
Q 832.1470703125 808.8146484375 832.35 808.3 832.3923828125 808.02734375 832.75 808 833.17109375 807.9775390625 833.2 808.25 848.3806640625 807.1822265625 863.2 808.6 868.4697265625 809.1447265625 870.75 809.1
M 876.9 815.25
L 877.15 815.95
Q 876.59765625 817.00625 874.4 817.4 867.6306640625 818.625390625 860.85 818.6 856.841796875 818.52578125 854.85 818.45 851.3046875 818.4291015625 848.85 818.75 848.6376953125 818.188671875 849.25 817.7 849.816796875 817.30234375 850.6 817.15 853.9095703125 816.5591796875 863.85 816.8 872.237109375 816.94453125 876.9 815.25
M 879.85 802.75
Q 886.9017578125 800.5115234375 889.3 800 894.723046875 798.7859375 898.95 799.25 888.3212890625 803.2294921875 877.65 805.8 872.783203125 806.9791015625 870 807 866.1443359375 807.1755859375 861.45 805.8 858.66171875 804.96484375 853.25 802.75 854.885546875 802.54375 857 803.2 858.1935546875 803.529296875 860.55 804.4 864.8060546875 805.6982421875 870.2 805.05 874.030078125 804.5537109375 879.85 802.75
M 854.7 821.95
Q 852.69765625 820.9201171875 851.15 820.6 849.1080078125 820.184375 846.5 820.65 844.9197265625 820.8822265625 841.95 821.8 841.609375 821.4234375 841.95 820.85 842.291796875 820.38984375 842.85 820.15 847.4623046875 818.137109375 854.65 819.8 856.2544921875 820.1970703125 860.45 821.45 864.1005859375 822.542578125 866.25 822.9 873.9828125 824.2455078125 881.3 821.65 884.96796875 820.2251953125 885.85 820.05 888.437890625 819.3896484375 890.3 820.15 883.6443359375 825.6150390625 874.7 826.6 865.7591796875 827.5833984375 858.1 823.7 855.8447265625 822.544140625 854.7 821.95 Z"/>
</g>

<g id="Layer10_0_FILL">
<path fill="#937B50" stroke="none" d="
M 927.8 649.7
Q 927.5 650.4 928.45 651.35
L 932.55 655.5
Q 933.85 656.8 934.75 657.05 934.85 657.1 936.1 657.35 936.9 657.5 937.3 657.9 937.5 658.1 937.85 658.55 938.1 658.7 938.65 658.8
L 940.85 659.1
Q 941.9 659.2 942.4 659 942.75 658.8 942.9 658.4 943 657.95 942.8 657.7 941.5 657.6 939.6 656.6 937.2 655.35 936.5 655.1 934.5 654.7 933.65 654.25 932.75 653.8 931.6 652.55
L 929.6 650.45
Q 928.5 649.35 927.8 649.7
M 967.5 606.3
Q 967.55 607.2 968.25 608.15 968.65 608.65 969.75 609.7 972.4 612.15 974.45 615.35 976.15 618.05 975.8 619.9 975.5 621.45 973.65 623 971.25 625 968.1 625.75 964.95 626.5 961.85 625.8 961.3 626.25 961.45 627.1 961.55 627.9 962.15 628.4 962.55 628.8 963.4 629.2 963.85 629.4 964.75 629.8 967.55 631.15 968.65 634.45 969.7 637.65 968.5 640.55 967.3 643.4 964.45 645.15 961.65 646.85 958.5 646.8 955.45 646.75 952.5 645.25 949.75 643.75 947.7 641.25
L 946.05 642.4
Q 949.15 646.45 954.2 648.25 959.25 650.05 964.2 648.85 968.65 645.1 970.2 642.5 971.35 640.5 971.55 638.3 971.75 635.95 970.7 634.1
L 969.3 631.65
Q 968.65 630.2 969.35 629.3 969.8 628.75 970.75 628.55 971.3 628.45 972.45 628.35 974.25 628.1 976.1 626.8 977.35 626 979.2 624.2 981.3 622.2 981.75 620.95 982.2 619.5 981.65 617.1 980.25 610.75 975.8 606.05 973.4 603.5 971.25 603.3 969.85 603.15 968.65 604.05 967.45 604.95 967.5 606.3
M 962.05 508.3
Q 962.35 510.55 967.05 510.45 972.85 510.2 978.35 512.6 983.85 515 987.65 519.45 991.65 524.05 990.45 528 989.3 532.05 982 534.25 979 535.1 977.9 535.55 975.65 536.4 974.15 537.6 972.35 539.05 971.6 541.05 970.75 543.25 971.5 545.15 972.3 547.2 974.9 548.55 975.8 549 979.7 550.45 985.2 552.35 988.6 556.7 992.3 561.45 990.8 566.3 989.8 569.55 986.55 571.65 983.5 573.6 979.8 573.9 976.65 574.15 972.75 573.3 970.45 572.75 965.9 571.3
L 966 574.1
Q 973.45 576.85 978.55 577.2 985.7 577.7 989.85 573.9 994.8 569.4 994.7 559.55 994.7 554.9 993.05 552.35 991.75 550.4 987.25 547.7 982.9 545.2 981.7 542.9 986.3 540.3 989 537.65 992.55 534.2 993.55 530.25 994.6 526.15 992.9 521.7 991.3 517.55 987.9 514.35 985.05 511.6 980.7 509.25 978.1 507.9 972.65 505.5 973.8 503.35 972.85 500.75 971.95 498.3 969.8 496.85 966.55 494.7 960.15 494.8 952.85 494.9 948.95 497.1 946.3 498.6 944.75 501.05 943.1 503.7 943.4 506.5 946.8 502.05 952.15 499.75 957.45 497.45 963 497.95 965.65 498.2 967.55 499.85 969.7 501.6 968.8 503.65 968.1 504.35 964.5 505.65 961.85 506.6 962.05 508.3
M 884.25 503.2
Q 884.45 503.55 883.75 503.9 882.9 504.3 881.4 504.65 879.45 505.1 879 505.25 877.7 505.7 876.85 506.55 875.85 507.5 875.75 508.65
L 878.2 509.15
Q 878.65 508.15 880.65 507.6 884.35 506.6 886.3 506.75 887.8 506.9 889.05 507.65 890.35 508.45 890.9 509.75 891.35 510.8 891.25 513.2 891.2 515.55 891.75 516.65 892.75 516.65 893.1 514.85 893.35 513 893.35 511.55 893.35 508.6 892.2 507.15 891.15 505.75 889.4 505.3 887.75 504.75 887.55 504.6
L 886.6 503.9
Q 885.6 503.1 884.25 503.2
M 771.25 627.7
L 770.25 626.2
Q 769.1 626.4 767.05 627.1 764.85 627.9 763.85 628.1 762.05 628.45 760.45 628.05 758.65 627.6 757.85 626.25 757.1 624.95 757.25 622 757.4 618.95 756.75 617.7 756.4 617.5 755.9 617.7 755.45 617.95 755.3 618.35 755.15 618.85 755.25 620.15 755.3 620.75 755.2 622.85 755.15 624.55 755.4 625.5 755.7 626.7 757.25 629 758.5 630.6 759.15 630.95 759.85 631.3 761.35 631.5 763.4 631.8 764.3 631.35 764.9 631.05 765.95 630.25 766.5 629.95 767.4 629.8 767.95 629.7 769 629.55 771.05 629.15 771.25 627.7
M 748.75 572.7
L 747.75 571.2
Q 747 571.25 746.35 571.7 745.7 572.2 745.45 572.9 745.15 573.7 745.25 575.35 745.4 577.05 745.05 577.8 744.8 578.45 743.9 579.6 742.95 581.25 743.35 585.2 743.45 586.1 743.8 586.5 744.15 586.85 744.95 587.05 746.7 587.55 748.25 588.65
L 748.75 587.65
Q 748.4 587.1 746.65 585.75 745.25 584.65 745.05 583.6 744.85 582.4 745.8 581.2 746.75 579.95 746.85 579.8 747.25 579.1 747.25 578 747.25 577.85 747.2 576 747.2 573.3 748.75 572.7
M 852.65 515.85
Q 851.85 513.65 851.35 512.75 849.7 509.85 846.1 507.85 839.65 504.25 831.85 505.8 824.1 507.4 819.55 513.2 817.4 510.25 814.3 508.45 812.35 507.3 809.7 506.45 808.1 505.9 804.8 505.05 800.5 503.95 797.95 503.55 794.1 502.95 791 503.3 785.85 503.9 778.65 507.9 774.75 510.15 773.05 511.95 770.75 514.3 769.9 517.65 769.05 520.95 769.9 524.15 762.15 526.2 755.85 531.65 749.55 537.05 746.4 544.45 745.55 546.6 745.8 547.9 746.1 549.25 747.8 550.85 751.05 554.15 753.3 555.65 756.65 557.9 759.85 557.95 763 557.95 763.95 555.95 762 554.3 756.65 553.05 751.4 551.85 749.45 550
L 748.4 547.15
Q 749.8 540.5 754.55 535.9 758.4 532.1 766.55 528.65 770.1 527.25 771.45 525.7 772.05 527.85 774.5 528.6 776.95 529.35 778.8 528 780.6 526.7 780.95 524.25 781.3 521.85 780.1 519.9 779.15 518.65 778.65 518 777.85 516.85 777.8 515.9 777.6 514.15 779.7 512.05 783.1 508.65 787.9 507 796.6 504.05 809 508.35 812.85 509.65 814.8 511.15 817.4 513.15 818.55 516.45 819.7 519.7 818.9 522.95 819.8 524.05 821.4 523.5 823 522.95 823.35 521.55 823.65 520.2 822.95 518.8 822.35 517.55 821.1 516.55 823.15 513.95 826 512.05 830.15 509.3 835.05 508.8 840.2 508.3 844.25 510.6 848.55 512.95 852.7 519.65
L 851.75 522.65 854.75 522.6
Q 855.8 521.65 854 518.9 853.35 517.9 852.65 515.85 Z"/>
</g>

<g id="Symbol_3_0_Layer0_0_FILL">
<path fill="#937B50" stroke="none" d="
M -55.5 68.85
Q -56.15 68.85 -57.65 69 -59.5 69.25 -72.05 69.8 -80.8 70.2 -86.2 71.9 -89.2 72.8 -90.75 74.3 -91.75 75.25 -92.2 76.5 -92.7 77.8 -92.35 79 -91.8 81 -89 82.35 -87.45 83.15 -84.2 84.6 -83.65 84.95 -80.95 87.35 -79.05 89.05 -77.45 89.35 -75.6 89.7 -73.35 88.65 -72.6 88.3 -69.55 86.35 -67.95 85.35 -64.55 83.65 -59.15 80.95 -56.9 79.6 -53.25 77.5 -52.1 75.15 -51.35 73.6 -51.7 71.85 -52.1 70.05 -53.55 69.3 -54.35 68.85 -55.5 68.85
M -74.45 40.85
Q -74.7 40.45 -75.4 39.75 -75.7 39.45 -75.95 39.35 -76.25 39.15 -76.8 39.25
L -77.85 39.25
Q -78.3 39.25 -78.5 39.35 -78.85 39.5 -79.15 40.15
L -79.75 41.5
Q -79.9 42.05 -79.85 42.15 -79.85 42.4 -79.55 42.9
L -78.3 44.7
Q -78.1 45.1 -77.8 45.2
L -77.4 45.25
Q -76.85 45.35 -76.45 45.15
L -75.9 44.75
Q -74.85 43.7 -74.25 42.7
L -74 42.2
Q -74 41.9 -74.15 41.65
L -74.45 40.85
M -73.85 18.75
Q -73.9 20.7 -72.15 22.2 -71.1 23.1 -68.7 24.1 -64.85 25.85 -62.55 26.1 -61.45 26.25 -59.2 26.4 -58.8 26.5 -57.5 26.9 -56.45 27.2 -55.75 27.3 -54.5 27.45 -52.45 27.1 -51.25 26.9 -50.9 26.6 -50.05 25.95 -50.45 25.2 -52.35 25.05 -55.7 22.95 -59 20.9 -60.95 20.75 -60.1 20.1 -60.45 19.2 -63.95 18.95 -66.9 17.15 -67.9 16.5 -68.4 16.2 -69.3 15.7 -70.05 15.6 -71.45 15.4 -72.6 16.35 -73.8 17.35 -73.85 18.75
M -26.2 40.45
Q -28.2 38.3 -31.3 37.05 -33 36.4 -37.1 35.3 -40.9 34.3 -42.9 33.4 -44.45 33.4 -45.85 34.1 -47.25 34.85 -48.15 36.1 -49.3 37.75 -49.65 40.6 -50.4 45.45 -48.45 47.9 -47.35 49.25 -45.2 50.1 -44.5 50.35 -41.2 51.2 -39.25 51.75 -35.25 52.9 -31.8 53.65 -29.3 52.9 -27 52.2 -25.45 50.2 -23.85 48.15 -23.9 45.75 -23.95 42.9 -26.2 40.45
M -47.5 -28.4
Q -47.9 -28.7 -48.05 -28.75 -48.35 -28.85 -48.95 -28.75 -49.45 -28.8 -49.7 -28.8 -50.1 -28.8 -50.4 -28.7 -50.8 -28.55 -51.1 -28 -52.35 -25.85 -51.75 -23.5 -51.65 -23.1 -51.4 -22.85
L -49.45 -22 -48.95 -21.85 -47.65 -22.45
Q -47.25 -22.65 -47.15 -22.75 -46.9 -23 -46.7 -23.5 -45.8 -25.6 -46.25 -26.8 -46.45 -27.35 -47.5 -28.4
M -48.85 -51.6
L -49.85 -52.75
Q -50.3 -53.2 -50.45 -53.25 -50.8 -53.35 -51.5 -53.15 -52.2 -52.95 -52.45 -52.65
L -52.7 -52.1 -53.05 -51
Q -53.35 -50.2 -53.3 -49.75 -53.15 -48.7 -51.95 -48.15 -51.55 -47.9 -50.65 -47.6
L -50.1 -47.35
Q -49.85 -47.1 -49.7 -46.6 -49.55 -46 -49.45 -45.8
L -48.45 -45.8
Q -48 -46.65 -47.9 -48.9 -47.9 -49.95 -48.1 -50.45 -48.25 -50.9 -48.85 -51.6
M -15.2 -89.4
Q -16.4 -89.4 -17.4 -88.5 -18.05 -87.75 -18.5 -86.2 -18.8 -85.4 -18.8 -84.9 -18.8 -84.45 -18.55 -83.35 -18.3 -82.35 -18.45 -81.8 -16.9 -81.1 -13.75 -81.7 -13.3 -81.7 -13.05 -81.9 -12.8 -82.05 -12.4 -82.55 -11.8 -83.5 -11.7 -83.85 -11.4 -84.9 -12.1 -86.85 -12.65 -88.05 -12.95 -88.4 -13.8 -89.4 -15.2 -89.4
M -85.8 -47.35
Q -90.25 -47.55 -92.45 -47.35 -96.1 -47.05 -98.65 -45.7 -101.7 -44.1 -103.05 -40.9 -103.3 -40.35 -103.45 -39.75 -103.95 -39.65 -104.4 -39.45 -106.65 -38.45 -107.75 -36.2 -108.9 -33.95 -107.95 -32.1 -111.05 -29.95 -113.3 -26.75 -114.7 -24.9 -114.75 -23.35 -114.85 -22.1 -113.7 -19.6
L -111.45 -15
Q -111.35 -14.8 -111.25 -14.6
L -111.9 -14.3
Q -112.35 -13.4 -111.5 -12.35 -111.05 -11.85 -110.1 -10.8 -109.55 -10 -109.4 -9.9 -109.05 -9.7 -108.6 -9.7
L -105 -9.3
Q -104.05 -10.95 -102.45 -11.8
L -103.45 -13.3
Q -105.45 -12.1 -107.95 -11.8 -107.8 -12.25 -108.7 -12.8 -108.85 -12.85 -108.95 -12.95 -108.6 -13 -108.25 -13.15 -107.55 -13.55 -107.15 -14.25 -106.1 -16.15 -108.2 -20.65 -110.25 -24.95 -108.9 -26.8 -108.2 -27.7 -105.8 -28.7 -105.05 -29 -104.5 -29.35 -103.6 -29 -102.3 -28.6
L -97 -27.1
Q -96.2 -26.45 -95.05 -26.1 -93.75 -25.65 -92.5 -25.85
L -91.05 -25.45
Q -92 -24.75 -93.05 -23.85 -96.3 -21.2 -97.45 -19.25 -98.3 -17.8 -98.5 -16.25 -98.75 -14.55 -98.05 -13.15 -95.25 -13.5 -92.55 -13.05 -93.4 -12.4 -94.9 -12.1 -97.25 -11.85 -98.35 -11.5 -100.05 -10.95 -101.2 -9.4 -102.35 -7.85 -102.45 -6 -102.55 -4.2 -101.65 -2.5 -100.75 -0.85 -99.2 0.15 -97.95 0.95 -95.95 1.45 -94.85 1.75 -92.55 2.2 -88.2 3.35 -87.15 6.2 -85.25 4.85 -80.9 4.8 -76.15 4.8 -74.35 3.95 -71.95 2.8 -70.95 0.15 -69.9 -2.55 -71 -5 -71.1 -5.3 -72 -6.9 -72.65 -8.05 -72.8 -8.9 -72.9 -9.4 -72.8 -10.2 -71.25 -9.85 -69.4 -10.45 -66.75 -11.3 -65.5 -13.55 -64.3 -15.75 -64.75 -18.45 -65.15 -21.1 -66.9 -23.05 -67.3 -23.5 -67.8 -23.95 -67.15 -24.75 -66.75 -25.75 -66.05 -27.55 -66.4 -29.35 -66.75 -31.25 -68.15 -32.8 -69.45 -34.3 -71.35 -35.2 -72.5 -35.8 -74.25 -36.25 -74.35 -37.35 -74.5 -38.8 -74.75 -41.95 -75.95 -43.65 -77.3 -45.65 -80.3 -46.55 -82.3 -47.15 -85.8 -47.35
M 48.05 11.45
Q 46.55 9.85 45.15 10.3 45.2 10.6 44.8 10.7 44.45 10.75 44.1 10.65 44.1 11.5 43.6 12.15 44.85 13.3 45.95 15.95 47.25 19.05 47.95 20 48.6 20.9 49.8 21.95 50.45 22.6 51.8 23.75 54.3 25.95 54.6 28.25
L 55.6 28.25
Q 56.45 26.65 55.8 24.6 55.3 22.85 53.9 21.2 52.15 19.35 51.25 18.4 49.7 16.7 49.1 15.25 49.75 15.6 50.85 16.65 51.95 17.65 52.65 18 53.55 18.45 55.5 18.65 56.55 18.85 57.1 18.55 57.5 18.35 57.65 17.95 57.8 17.55 57.6 17.2 55.25 16.8 54.25 16.05
L 53.15 15.1
Q 52.7 14.8 51.75 14.5 50.8 14.1 50.35 13.85 49.8 13.5 49.15 12.75 48.2 11.6 48.05 11.45
M 81.7 63.1
Q 83.05 61.35 82.25 58.95 81.5 56.6 79.5 55.35 78.2 54.65 77.6 54.25 76.45 53.6 75.95 52.9 75.2 51.8 75.2 49.65 75.25 46.9 75.05 46.15 74.6 44.35 72.95 43.05 71.5 41.85 69.5 41.4 67 40.9 61.9 41.7
L 53.55 43.05
Q 48.5 43.85 46.4 45.35 44.75 46.55 44.05 48.35 43.3 50.3 44.1 51.95 44.95 53.75 47.45 54.75 48.9 55.3 52 56.15 53.5 56.65 57.05 58.4 60.2 60 62.15 60.45 63.1 60.65 67.8 60.95 71.25 61.2 73.1 62.25 72.2 62.05 71.4 62.7 70.7 63.2 70.6 63.95 68.7 63.8 66.1 63.85 66.1 64.45 64.9 64.45 63.45 64.65 62 66.2 60.85 67.35 60.4 68.45 59.85 70 60.65 71.1 61.25 72 62.6 72.25 63.45 72.4 65.05 72.3 70.15 72 75.55 72.55 77.35 72.75 78.15 72.35 78.85 72 79.2 71.15 79.55 70.35 79.45 69.55 79.25 68.1 77.85 66.7 76.4 65.35 74.35 64.7 75.9 64.85 76.35 64.9 80.1 65.1 81.7 63.1
M 1.4 -36.8
Q 2.1 -38.85 0.75 -41 -0.45 -43 -2.65 -44.05 -4.25 -44.85 -6.95 -45.35 -11.25 -46.2 -11.4 -46.25 -14.4 -47.05 -18.65 -49.25 -24.85 -52.55 -25.7 -52.9 -29.75 -54.7 -33.45 -54.95 -37.8 -55.25 -40.9 -53.25 -42.8 -52 -44.85 -49.3 -47 -46.15 -48.25 -44.75 -51.95 -40.5 -57.15 -38.75 -59.75 -37.95 -60.95 -37.45 -63.05 -36.6 -64 -35.2 -65.25 -33.35 -64.5 -30.9 -63.8 -28.6 -61.75 -27.4 -59.9 -26.3 -57.45 -26.4 -55.25 -26.45 -53.05 -27.5 -51.25 -28.35 -49.25 -29.95 -48.2 -30.8 -45.9 -33 -43.2 -35.6 -41.95 -37.2 -40 -39.7 -39.35 -42.15 -39.05 -43.8 -38.85 -44.6 -38.5 -46 -37.9 -46.8 -36.75 -48.25 -34.6 -48.35 -32.6 -48.45 -30.95 -47.3 -29.5 -46.35 -28.3 -44.6 -27.55 -43.55 -26.35 -41.25 -29.55 -41.15 -32.4 -40.25 -33.2 -41.15 -33.5 -41.6 -33.8 -42.15 -34.05 -42.25
L -35.75 -42.3
Q -36.25 -42.3 -36.45 -42.2 -36.8 -42.05 -37.05 -41.65 -37.5 -40.9 -37.5 -39.15 -37.45 -38.5 -37.35 -38 -38.15 -37.5 -38.9 -36.95 -41.1 -35.35 -41.05 -33.65 -41 -32.4 -39.7 -31.55 -38.65 -30.85 -37.1 -30.65 -34.45 -30.35 -30.9 -31.05 -28.85 -31.45 -24.8 -32.5 -17.65 -34.05 -10.05 -33.35 -7.45 -33.05 -6.8 -33 -4.95 -32.9 -3.55 -33.15 -1.85 -33.45 -0.55 -34.35 0.9 -35.35 1.4 -36.8
M 45.15 -53.15
Q 43.3 -52.8 41.45 -51.75 40.05 -50.95 39.45 -49.85 38.95 -48.9 39.25 -47.7 39.55 -46.55 40.4 -45.85 41.2 -45.15 42.35 -45 43.45 -44.8 44.5 -45.2 45.15 -45.45 46.35 -46.2 47.5 -46.95 48.15 -47.2 48.4 -47.3 48.75 -47.35 49.15 -46.05 50.1 -44.75 51.55 -45 53.75 -47.2
L 53.95 -47.35 59.05 -47
Q 60.55 -46.9 61.6 -46.6 62.05 -46.45 62.75 -46.2 61.75 -45.05 61.35 -43.7 60.7 -41.55 62.1 -39.5 63.55 -37.35 65.65 -37.85 64.6 -38.45 64.45 -39.9 64.3 -41.3 65.05 -42.4 66.2 -44.05 69.35 -45.2 71.2 -45.9 71.75 -46.15 72.85 -46.65 73.6 -47.25 73.7 -46.1 74.2 -45.15 72.8 -42.8 73.5 -40.35 73.5 -40.3 73.55 -40.25 73.3 -40.3 73.1 -40.35 73.25 -40.1 72.9 -39.9 72.6 -39.75 72.2 -39.75 70.6 -39.85 69.3 -38.9 67.9 -37.95 67.85 -36.45 67.85 -34.3 70.9 -32.65 71.65 -32.2 73.2 -31.45 74.45 -30.7 75.1 -29.8
L 72.1 -29.3
Q 71.45 -27.7 72.5 -26 73.55 -24.35 75.3 -23.7 76.7 -23.2 78.8 -23.05 80 -23 82.4 -22.9 85.6 -22.6 85.8 -22.6 87.1 -22.6 88.05 -22.95 88.05 -22.6 88.3 -22.2 88.4 -22.05 89.1 -21.3 89.5 -20.85 89.9 -19.95 90.4 -18.9 90.65 -18.55 91.4 -17.5 93.1 -16.7 93.8 -16.4 95.2 -16 96.95 -15.55 99.15 -15.45 100.45 -15.35 103.1 -15.35 103.3 -16.1 104.35 -16.5 105 -16.7 106.3 -17.1 107 -17.4 108.15 -18.45 109.35 -19.55 109.75 -20.4 110.15 -21.3 110 -22 110.5 -22.15 111 -22.35 113 -23 113.85 -24.05 115.25 -25.8 114.5 -29.05 113.4 -33.3 110.25 -36.05 110.1 -36.75 109.9 -37.4 109.35 -39 108.15 -40.65 108.3 -41 108.6 -41.3 108.9 -41.65 109.9 -42.5 113 -45.25 113.55 -48.6 114 -51.25 112.8 -53.95 111.7 -56.45 109.5 -58.25 105.8 -61.3 99.4 -62.25 93 -63.2 87.15 -61.7 80.75 -60.05 76.8 -55.8 75.95 -54.85 75.3 -53.8 75.2 -53.85 75.1 -53.9 73.8 -52.55 71.55 -51.35 68.9 -50.1 67.55 -49.5 65.7 -48.65 64.35 -47.65 63.05 -48.8 60.6 -49.3 58.5 -49.55 57.4 -49.7 56.85 -49.75 56.4 -49.85
L 59.5 -53
Q 60.4 -53.95 61.1 -54.25 61.65 -54.45 62.35 -54.45
L 64.6 -54.7
Q 65.7 -54.7 65.9 -54.65 65.95 -54.65 67.3 -53.9 68.1 -53.5 68.6 -53.8
L 67.6 -56.8
Q 65.95 -56.85 63.55 -57.5 60.9 -58.35 59.55 -58.7 58.45 -58.95 57.55 -58.95 56 -58.9 54.35 -57.8 53.25 -57.05 51.65 -55.45 50.1 -53.9 49.3 -52.65 49.05 -52.7 48.8 -52.75 47.75 -52.95 45.15 -53.15
M 92.15 -53.25
L 99.05 -50.8
Q 98.5 -50.1 97.75 -49.45 94.9 -50.95 92.35 -50.6 91.3 -50.45 88.05 -49.3 85.45 -48.35 83.8 -48.65 82.75 -48.85 81.4 -49.65 83 -50.55 84.75 -50.95 86 -51.25 88.65 -51.7 90.9 -52.25 92.15 -53.25
M 109.65 -32.1
Q 109.8 -32.45 109.95 -32.8 110.5 -32.05 110.95 -31.15 111.95 -29 111.7 -26.75
L 106.35 -25.3
Q 106.4 -25.45 106.45 -25.55 107.3 -27.6 105.95 -28.9 108.5 -29.35 109.65 -32.1
M 90.6 -25.65
Q 90.8 -26.35 90.85 -27 93.55 -25.6 96.4 -24.25 97.7 -23.65 98.75 -23.3
L 97.55 -23 98.1 -21.35
Q 102.33984375 -20.551953125 106.4 -21.15 106.4 -21.138671875 106.4 -21.1 106.15 -20.4 105 -19.9 102.35 -18.7 101.35 -18.45 100.55 -18.25 97.8 -17.9 96.2 -17.8 95.4 -17.9 94.05 -18.05 93.3 -18.75 92.75 -19.25 92.3 -20.2 91.9 -21.25 91.65 -21.8 90.75 -23.6 89.45 -23.75 90.2 -24.5 90.6 -25.65 Z"/>
</g>
</defs>

<g transform="matrix( 1, 0, 0, 1, 0,0) ">
<use xlink:href="#Layer11_0_FILL"/>
</g>

<g transform="matrix( 1, 0, 0, 1, 0,0) ">
<use xlink:href="#Layer10_0_FILL"/>
</g>

<g filter="url(#Filter_1)" transform="matrix( 1, 0, 0, 1, 0,0) ">
<g transform="matrix( 1, 0, 0, 1, 879.2,584.45) ">
<g transform="matrix( 1, 0, 0, 1, 0,0) ">
<use xlink:href="#Symbol_3_0_Layer0_0_FILL"/>
</g>
</g>
</g>
</svg>
