
<svg xmlns="http://www.w3.org/2000/svg" version="1.1" xmlns:xlink="http://www.w3.org/1999/xlink" preserveAspectRatio="none" x="0px" y="0px" width="1920px" height="1080px" viewBox="0 0 1920 1080">
<defs>
<linearGradient id="Gradient_1" gradientUnits="userSpaceOnUse" x1="599.3875" y1="422.32500000000005" x2="618.1125" y2="334.275" spreadMethod="pad">
<stop  offset="0%" stop-color="#1B1B1B"/>

<stop  offset="100%" stop-color="#FFFFFF"/>
</linearGradient>

<g id="Layer10_0_FILL">
<path fill="#BD768A" stroke="none" d="
M 1081.45 565.6
L 1080.45 569.05 1080.15 570
Q 1080.6474609375 570.1876953125 1081.15 570.35
L 1078.25 587.3
Q 1078.8033203125 586.8265625 1079.6 586.8 1080.65 588.55 1080.25 590.5 1088.1 593.75 1090.7 595.15 1091.75 595.75 1093.85 596.9 1095.7 597.9 1097.1 598.45 1099.35 599.3 1102.3 599.65 1104.25 599.85 1107.7 599.95
L 1120.85 600.4
Q 1122.462109375 595.390234375 1124.25 589.85 1125.15 586.9 1126.3 585.8 1127.07734375 585.0658203125 1128.05 584.85 1126.0375 584.7931640625 1123 584.4 1121.6646484375 584.2314453125 1120.4 584.05 1117.4396484375 583.768359375 1115.3 583.25 1110.379296875 582.46328125 1107.05 581.55 1100.5037109375 579.771484375 1095.65 576.8 1093.569140625 575.6763671875 1092.4 575.2 1089.9 574.4 1088.7 573.9 1086.789453125 573.1009765625 1085.2 571.65 1088.2 572.580078125 1091.2 573.4 1090.47109375 572.7322265625 1089.85 572 1087.1337890625 571.2267578125 1084.4 570.35 1083.75 569.7 1083.2 568.95 1082.15 567.6 1081.45 565.6 Z"/>

<path fill="#000000" stroke="none" d="
M 1167.4 462.4
Q 1158 457.5 1147.05 455.35 1136.05 453.2 1124.25 453.95 1112.45 454.7 1101.3 458.25 1100.2294921875 458.59375 1099.2 458.95 1098.11015625 458.6744140625 1096.8 458.75 1094.6 458.85 1092.2 459.95 1088.15 461.8 1085.05 465.1 1082 468.4 1080.4 472.55 1080.135546875 473.2994140625 1079.65 474.7 1079.14296875 474.723828125 1078.55 474.65 1070.29375 509.6021484375 1076.4 551.95 1077.1 556.65 1077.9 559.25 1079.1 562.95 1081.1 565.3 1080.25 566.9 1079.4 568.7 1079.95 568.85 1080.45 569.05
L 1081.45 565.6
Q 1082.15 567.6 1083.2 568.95 1083.75 569.7 1084.4 570.35 1087.1337890625 571.2267578125 1089.85 572 1090.47109375 572.7322265625 1091.2 573.4 1088.2 572.580078125 1085.2 571.65 1086.789453125 573.1009765625 1088.7 573.9 1089.9 574.4 1092.4 575.2 1093.569140625 575.6763671875 1095.65 576.8 1100.5037109375 579.771484375 1107.05 581.55 1110.379296875 582.46328125 1115.3 583.25 1117.4396484375 583.768359375 1120.4 584.05 1121.6646484375 584.2314453125 1123 584.4 1126.0375 584.7931640625 1128.05 584.85 1127.07734375 585.0658203125 1126.3 585.8 1125.15 586.9 1124.25 589.85 1122.462109375 595.390234375 1120.85 600.4
L 1107.7 599.95
Q 1104.25 599.85 1102.3 599.65 1099.35 599.3 1097.1 598.45 1095.7 597.9 1093.85 596.9 1091.75 595.75 1090.7 595.15 1088.1 593.75 1080.25 590.5 1080.65 588.55 1079.6 586.8 1078.8033203125 586.8265625 1078.25 587.3
L 1081.15 570.35
Q 1080.6474609375 570.1876953125 1080.15 570 1080.0990234375 570.0154296875 1080.05 570 1078.8603515625 573.3021484375 1077.9 577.2 1077.05 580.5 1075.3 589.65 1071.6 609.25 1065.55 633.55 1062.05 647.6 1054.15 677.05 1045.6 708.45 1041.75 721.1 1032.65 751.05 1032.55 751.5 1027.7 768.95 1026.2 782.45 1026.134375 782.9755859375 1026.1 783.45 1025.9078125 783.55 1025.7 783.65 1023.2 784.85 1022.65 788.4 1022.25 790.8 1023 793.35 1023.65 795.75 1025.25 797.75 1028.3 801.5 1033.55 803 1039.15 804.55 1044.75 802.75 1047.4 801.9 1053.75 798.1 1059.25 794.85 1062.9 794.25 1063.7 794.1 1064.2 793.75 1064.8 793.3 1064.55 792.75
L 1059.9 793.25
Q 1062.2328125 791.471875 1064 788.3 1065.2 786.2 1066.9 781.7
L 1079.05 748.95
Q 1087.9 725 1091.95 713.6 1098.9 693.85 1103.65 677.9 1109.15 658.35 1112.1 648.6 1114.55 640.6 1121.65 619.45 1124.6208984375 610.63359375 1126.85 603.5 1127.5009765625 603.22109375 1127.65 602.65 1127.8005859375 602.1080078125 1127.45 601.65 1129.50859375 595.1228515625 1130.9 590.15 1131.713671875 587.5978515625 1131.1 586.2 1132.4578125 586.26171875 1134.35 585.3 1134.6216796875 585.16484375 1134.9 585 1136.140234375 584.9447265625 1136.8 584.45 1137.096484375 584.2029296875 1137.45 583.65 1138.9611328125 582.796875 1140.45 581.85 1138.91171875 581.7521484375 1137.35 581.6 1137.530078125 581.2994140625 1137.6 580.95 1137.6427734375 580.715234375 1137.6 580.5 1138.117578125 580.5197265625 1138.6 580.55 1147.05 575.55 1155.8 567.85 1163.2 561.3 1176.45 547.25
L 1191.75 530.95
Q 1194.4 528.1 1195.55 526.65 1197.5 524.15 1198.55 521.9 1199.0029296875 520.8765625 1199.35 519.75 1197.43984375 519.266015625 1195.55 518.65 1195.398046875 518.8814453125 1195.25 519.1 1194.15 520.7 1192.4 522.4 1191.55 523.2 1189.15 525.3 1183.1 530.5 1175.05 538.7 1166 548.1 1161.4 552.7 1145.4140625 568.7818359375 1132.6 576.25 1129.5427734375 579.3626953125 1123.65 579.85 1114.05 580.7 1104.7 575.3 1100.3923828125 572.8384765625 1096.25 569.1 1093.862109375 568.1171875 1092.2 567.35 1091.943359375 567.2390625 1091.7 567.1
L 1091.45 567
Q 1091.4330078125 567.0046875 1091.4 566.95 1090.10078125 566.3458984375 1089.25 565.65 1087.7 564.2 1086.4 560.45 1085.1 556.4 1084.35 552.4 1084.45 549.2 1084.15 544.55 1083.25 528.15 1082.75 521.35 1081.8 508.4 1080.5 498.3 1079.4 488.9 1079.25 486.1 1079.2111328125 484.9791015625 1079.2 483.85 1080.7896484375 479.220703125 1082.15 476.5 1085.1 470.7 1089.25 467.7 1090.35 466.9 1092.1 465.9
L 1095.1 464.25
Q 1097.863671875 462.5837890625 1100.15 460.7 1104.112890625 459.52890625 1108.95 458.9 1112.65 458.35 1118.15 458 1136.35 456.85 1148.75 459 1165.15 461.75 1174.8 469.8 1178.3 472.75 1183.8 479.6 1190.75 488.35 1193.6 493.35 1198.15 501.45 1198.25 508.75 1198.4 514.35 1195.55 518 1195.6263671875 518.0201171875 1195.7 518.05 1197.5263671875 518.516015625 1199.35 518.9 1200 517.05 1200.2 514.95 1200.45 512.9 1200.2 509.1 1199.9 503.15 1199.1 500.3 1198.2 496.85 1195 491.1 1189.15 480.5 1183.45 474.45 1176.8 467.4 1167.4 462.4
M 1077.9 591.65
Q 1078.65 592.8 1080.2 593.65 1081 594.1 1083.1 594.9 1087.4 596.55 1090.75 598.4 1091.75 598.95 1093.75 600.1 1095.5 601.05 1096.85 601.5 1099 602.3 1103.5 602.8 1111.4986328125 603.633984375 1119.75 603.8 1114.3771484375 620.626171875 1111.1 631.25 1104 654.15 1098.9 672.9 1096.1 683.1 1095.75 684.35 1093.85 690.85 1092 695.65 1090.45 699.75 1087.45 706.45 1083.8 714.5 1082.7 717.2 1080.25 723.15 1076.15 735.35 1069.7 754.55 1066.8 764.25 1062.0052734375 780.1662109375 1059.45 793.3
L 1041.6 795.2
Q 1039.25 795.5 1037.9 795.5 1035.9 795.5 1034.35 794.95 1032.55 794.35 1031.3 792.95 1030 791.45 1030.05 789.7 1030.05 789.446484375 1030.15 788.8 1032.0029296875 788.123046875 1033 784.55
L 1054.55 709.8
Q 1060.15 690.5 1062.25 680.65 1063.55 674.5 1065.65 662.1
L 1077.6 591.15
Q 1077.7408203125 591.4111328125 1077.9 591.65 Z"/>

<path fill="#9A5E6F" stroke="none" d="
M 1080.2 593.65
Q 1078.65 592.8 1077.9 591.65 1077.7408203125 591.4111328125 1077.6 591.15
L 1065.65 662.1
Q 1063.55 674.5 1062.25 680.65 1060.15 690.5 1054.55 709.8
L 1033 784.55
Q 1032.0029296875 788.123046875 1030.15 788.8 1030.05 789.446484375 1030.05 789.7 1030 791.45 1031.3 792.95 1032.55 794.35 1034.35 794.95 1035.9 795.5 1037.9 795.5 1039.25 795.5 1041.6 795.2
L 1059.45 793.3
Q 1062.0052734375 780.1662109375 1066.8 764.25 1069.7 754.55 1076.15 735.35 1080.25 723.15 1082.7 717.2 1083.8 714.5 1087.45 706.45 1090.45 699.75 1092 695.65 1093.85 690.85 1095.75 684.35 1096.1 683.1 1098.9 672.9 1104 654.15 1111.1 631.25 1114.3771484375 620.626171875 1119.75 603.8 1111.4986328125 603.633984375 1103.5 602.8 1099 602.3 1096.85 601.5 1095.5 601.05 1093.75 600.1 1091.75 598.95 1090.75 598.4 1087.4 596.55 1083.1 594.9 1081 594.1 1080.2 593.65 Z"/>

<path fill="url(#Gradient_1)" stroke="none" d="
M 1183.8 479.6
Q 1178.3 472.75 1174.8 469.8 1165.15 461.75 1148.75 459 1136.35 456.85 1118.15 458 1112.65 458.35 1108.95 458.9 1104.112890625 459.52890625 1100.15 460.7 1097.863671875 462.5837890625 1095.1 464.25
L 1092.1 465.9
Q 1090.35 466.9 1089.25 467.7 1085.1 470.7 1082.15 476.5 1080.7896484375 479.220703125 1079.2 483.85 1079.2111328125 484.9791015625 1079.25 486.1 1079.4 488.9 1080.5 498.3 1081.8 508.4 1082.75 521.35 1083.25 528.15 1084.15 544.55 1084.45 549.2 1084.35 552.4 1085.1 556.4 1086.4 560.45 1087.7 564.2 1089.25 565.65 1090.10078125 566.3458984375 1091.4 566.95 1091.4330078125 567.0046875 1091.45 567
L 1091.7 567.1
Q 1091.943359375 567.2390625 1092.2 567.35 1093.862109375 568.1171875 1096.25 569.1 1100.3923828125 572.8384765625 1104.7 575.3 1114.05 580.7 1123.65 579.85 1129.5427734375 579.3626953125 1132.6 576.25 1145.4140625 568.7818359375 1161.4 552.7 1166 548.1 1175.05 538.7 1183.1 530.5 1189.15 525.3 1191.55 523.2 1192.4 522.4 1194.15 520.7 1195.25 519.1 1195.398046875 518.8814453125 1195.55 518.65
L 1195.7 518.05
Q 1195.6263671875 518.0201171875 1195.55 518 1198.4 514.35 1198.25 508.75 1198.15 501.45 1193.6 493.35 1190.75 488.35 1183.8 479.6 Z"/>
</g>
</defs>

<g transform="matrix( 1, 0, 0, 1, 0,0) ">
<use xlink:href="#Layer10_0_FILL"/>
</g>
</svg>
