
<svg xmlns="http://www.w3.org/2000/svg" version="1.1" xmlns:xlink="http://www.w3.org/1999/xlink" preserveAspectRatio="none" x="0px" y="0px" width="1920px" height="1080px" viewBox="0 0 1920 1080">
<defs>
<filter id="Filter_1" x="-21.010708410111082%" y="-20.838041308929085%" width="142.02141682022216%" height="141.67608261785819%" color-interpolation-filters="sRGB">
<feGaussianBlur in="SourceGraphic" stdDeviation="10,10" result="result1"/>
</filter>

<g id="Layer11_0_FILL">
<path fill="#FEDF2F" stroke="none" d="
M 929.2 385.8
L 929.2 386.1
Q 928.45 385.8 927.9 386.35 927.5 386.65 927.35 387.15 926.8 388.35 927.15 388.95 927.3 389.2 927.6 389.45 928.65 390.4 929.65 390.2 930.95 389.95 931.2 388.5 931.25 387.95 931 387.15 930.85 386.75 930.55 386.45 930.15 386.1 929.2 385.8
M 909.65 395.3
Q 908.5 395.4 907.9 395.8 907.5 396.1 907.2 396.75 906.75 397.9 907.3 399.05 907.85 400.15 909.15 400.4 909.55 400.5 909.8 400.45 910.05 400.45 910.35 400.25 912 399.55 912.2 398.15 912.35 397.1 911.5 396.15 910.9 395.4 909.65 395.05
L 909.65 395.3
M 930.9 356.4
Q 931 356.5 931.35 356.6
L 932.95 357.15
Q 933.35 357.3 933.65 357.3
L 934.4 357.15
Q 935.8 356.65 936.4 356.1 937.1 355.4 937.2 354.3 937.3 353.25 936.8 352.35 936.45 351.55 935.65 351 934.7 350.35 933.5 350.35 932.3 350.3 931.2 350.9 930.1 351.65 929.9 352.8 929.7 353.85 930.5 355.8 930.65 356.25 930.9 356.4
M 953.7 364.9
L 953.7 365.4
Q 952.15 365.15 950.75 366.1 949.3 367.05 949 368.6 948.8 369.65 949.15 371.45 949.45 372.65 949.85 373.15 950.35 373.7 951.3 374.15 953.75 375.2 956.4 374.75 957.7 374.6 958.5 373.9 959.45 373.2 959.9 371.55 960.45 369.75 960.05 368.4 959.55 366.55 957.5 365.6 956 364.8 953.7 364.9
M 940.35 305.6
L 940.05 305.35 938.9 305.35 938.6 305.6
Q 937.8 306.3 937.9 307 937.95 307.55 938.65 308.15 938.8 308.3 938.85 308.3
L 939.15 308.35 939.8 308.35 940.05 308.3
Q 940.15 308.3 940.3 308.15 941.2 307.35 941.05 306.65 941 306.25 940.35 305.6
M 1011.4 557.45
Q 1011 560.25 1011.6 561.45 1012.4 563.1 1014.9 564 1018.6 565.25 1021.25 563.9 1022.95 563 1024.25 561.1 1025.6 559.3 1025.9 557.75 1026.2 556.35 1025.95 554.85 1025.7 553 1024.85 551.9 1023.45 550.15 1020.75 550.05 1018.8 550.05 1016.25 551.2 1013.25 552.55 1012.25 554.35 1011.65 555.45 1011.4 557.45
M 875.95 340.75
Q 873.8 341.55 872.35 343.3 870.8 345.05 870.6 347.2 870.35 349.5 871.6 351.55 872.8 353.65 874.95 354.5 877.35 355.35 879.3 354.5 881.3 353.7 882.65 351.1 883.5 349.4 883.55 348.25 883.75 346.3 882.3 343.55 880.75 340.3 878.65 340.2 877.3 340.25 875.95 340.75
M 897.4 338.65
Q 897.25 337.8 896.35 337.25 895.75 336.85 894.65 336.65
L 894.65 336.9
Q 893.9 336.6 893.3 337.2 892.9 337.55 892.6 338.4 892.4 339 892.45 339.35 892.6 339.9 893.15 340.35 893.9 341 894.65 341 894.95 341.05 895.45 340.95 896.35 340.7 896.9 340.15 897.55 339.4 897.4 338.65
M 936.15 367.6
L 936.15 367.85
Q 936.35 368.4 936.85 369.1
L 938.6 368.85
Q 938.85 368.2 938.85 367.65
L 938.8 367.35 938.65 367.15 938.3 366.8 938.1 366.65 937.75 366.6
Q 937.4 366.6 936.9 366.8
L 936.6 366.9 936.2 367.4 936.15 367.6
M 812.75 407.35
Q 812.35 405.95 811.2 405 810.1 404.05 808.65 403.85 808.75 404.15 808.15 404.05 806.6 403.85 805.4 405.65 803.7 408.15 804.5 410.4 804.9 411.45 805.75 412.25 806.85 413.15 808.35 413.2 809.9 413.25 811.05 412.4 812.2 411.6 812.7 410.15 813.15 408.7 812.75 407.35
M 830.9 362.65
L 830.85 362.35 830.7 362.15 830.35 361.8 830.15 361.65 829.8 361.6
Q 829.45 361.6 828.95 361.8
L 828.65 361.9 828.25 362.4 828.2 362.6 828.2 362.85
Q 828.4 363.4 828.9 364.1
L 830.65 363.85
Q 830.9 363.2 830.9 362.65
M 802.65 382.6
Q 802.05 382.4 801.4 382.8 800.8 383.1 800.45 383.75 800.15 384.35 800.2 384.75 800.25 385 800.4 385.5 800.4 386 800.45 386.1 800.5 386.3 800.8 386.5 801.6 387.1 802.3 387.25 803.3 387.45 803.9 386.95 804.75 386.4 804.85 385.05 804.95 384.15 804.6 383.55 804.1 382.85 802.65 382.35
L 802.65 382.6
M 767.45 485.7
Q 766.7 485.05 764.7 484.55 764.6 484.9 763.8 484.9 762.15 484.9 761.15 486.6 760.35 487.95 760.6 489.75 760.85 491.5 761.75 492.4 762.35 493 763.3 493.35 764.1 493.7 764.6 493.7 766.2 493.8 767.35 492.55 768.35 491.5 768.6 489.8 769.05 487.1 767.45 485.7
M 786.95 533.55
L 786.9 533.25 786.75 533.05 786.4 532.7 786.2 532.55 785.85 532.5
Q 785.5 532.5 785 532.7
L 784.7 532.8 784.3 533.3 784.25 533.5 784.25 533.75
Q 784.45 534.3 784.95 535
L 786.7 534.75
Q 786.95 534.1 786.95 533.55
M 781.85 521.75
L 781.25 521.25 780.9 521.05
Q 780.4 521.15 780.1 521.2
L 779.75 521.3 779.5 521.55
Q 778.9 522.45 779 523.05 779.1 523.45 779.75 524.1 779.9 524.25 780 524.25
L 780.2 524.25 781.4 524.1 781.6 524.05
Q 781.7 524.05 781.9 523.8 782.25 523.4 782.2 522.8 782.2 522.2 781.85 521.75
M 793.45 462.75
Q 792.85 463.05 792.5 463.7 792.2 464.3 792.25 464.7 792.3 464.95 792.45 465.45 792.45 465.95 792.5 466.05 792.55 466.25 792.85 466.45 793.65 467.05 794.35 467.2 795.35 467.4 795.95 466.9 796.8 466.35 796.9 465 797 464.1 796.65 463.5 796.15 462.8 794.7 462.3
L 794.7 462.55
Q 794.1 462.35 793.45 462.75
M 989.15 385.05
Q 988 386.5 988.25 388.45 988.65 390.95 990.85 391.9 992.55 392.7 994.4 391.75 996.15 390.9 996.7 389 997 387.8 996.8 386.8 996.45 385.4 995.25 384.45 994.05 383.5 992.6 383.4 992.8 383.6 992.35 383.6 990.4 383.45 989.15 385.05
M 948.2 343.55
Q 949.2 344.2 950.3 344.25 951.35 344.3 952.45 343.8 953.75 343.1 954.4 341.75 955.1 340.3 954.75 338.9 954.45 337.5 953.25 336.5 952.05 335.5 950.6 335.4 950.6 335.6 950.15 335.6 949.15 335.55 948.15 336.15 947.25 336.75 946.75 337.7 945.6 339.85 946.75 341.95 947.25 342.95 948.2 343.55
M 917.6 286.4
Q 917.2 286.15 916.55 286.05 915.95 286.05 915.4 286.35 914.8 286.75 914.75 287.3 914.65 287.85 915.05 288.8 915.2 289.05 915.25 289.1
L 915.45 289.2 916.3 289.5 916.6 289.55 917 289.45
Q 917.7 289.25 918 288.95 918.8 288.25 918.2 287.1 917.95 286.6 917.6 286.4
M 924.25 353
L 924.15 352.9 923.9 352.85 923.2 352.85 922.9 352.9
Q 922.85 352.9 922.7 353.05 922.4 353.4 922.4 354.05
L 922.4 355.1 923.65 355.6
Q 924.05 355.25 924.4 354.75 924.7 354.25 924.7 353.95 924.7 353.7 924.25 353
M 1051.15 540
Q 1050.9 539.5 1050.55 539.3 1050.15 539.05 1049.5 538.95 1048.9 538.95 1048.35 539.25 1047.75 539.65 1047.7 540.2 1047.6 540.75 1048 541.7 1048.15 541.95 1048.2 542
L 1048.4 542.1 1049.25 542.4 1049.55 542.45 1049.95 542.35
Q 1050.65 542.15 1050.95 541.85 1051.75 541.15 1051.15 540
M 1047.5 500.55
Q 1047.75 502.25 1049.2 503.25 1050.35 504 1051.95 503.9 1054.35 503.75 1055.55 501.75 1056.15 500.8 1056.15 499.65 1056.15 498.5 1055.5 497.6 1054.45 496.15 1051.6 495.55 1051.75 495.7 1051.4 495.85 1050.2 495.9 1049.6 496.1 1048.75 496.45 1048.15 497.45 1047.2 498.95 1047.5 500.55
M 1049.5 437
Q 1048.9 437 1048.35 437.3 1047.75 437.7 1047.7 438.25 1047.6 438.8 1048 439.75 1048.15 440 1048.2 440.05
L 1048.4 440.15 1049.25 440.45 1049.55 440.5 1049.95 440.4
Q 1050.65 440.2 1050.95 439.9 1051.75 439.2 1051.15 438.05 1050.9 437.55 1050.55 437.35 1050.15 437.1 1049.5 437
M 972.4 382.6
Q 972.35 382.7 972.45 382.9 972.6 383.35 972.95 383.9
L 973.15 384.1 974.85 384.1
Q 975.2 383.55 974.95 382.85 974.75 382.45 974.3 382.05
L 974.1 381.9 973.8 381.85 973.2 381.85 972.8 381.9
Q 972.6 382.05 972.5 382.3
L 972.4 382.6
M 950.6 387.35
L 950.6 387.6 950.1 387.85
Q 950 389.2 950.85 390.1
L 952.6 389.85
Q 952.85 389.2 952.85 388.65
L 952.85 388.4 952.65 388.15 952.35 387.85 952.1 387.65 951.75 387.55 950.6 387.35
M 973.85 357.55
Q 974.75 356.15 974.05 354.6 973.25 353.05 971.6 352.95
L 971.6 353.1
Q 970.65 352.8 969.4 353.95 969.05 354.3 968.9 354.65
L 968.65 356.15
Q 968.7 356.65 969.05 357.25 970.3 358.95 971.95 358.75 973.05 358.7 973.85 357.55
M 864 380.25
Q 863.6 379.9 862.65 379.6
L 862.65 379.9
Q 861.9 379.6 861.35 380.15 860.95 380.45 860.8 380.95 860.25 382.15 860.6 382.75 860.75 383 861.05 383.25 862.1 384.2 863.1 384 864.4 383.75 864.65 382.3 864.7 381.75 864.45 380.95 864.3 380.55 864 380.25
M 834.6 396.35
Q 834.2 396.1 833.55 396 832.95 396 832.4 396.3 831.8 396.7 831.75 397.25 831.65 397.8 832.05 398.75 832.2 399 832.25 399.05
L 832.45 399.15 833.3 399.45 833.6 399.5 834 399.4
Q 834.7 399.2 835 398.9 835.8 398.2 835.2 397.05 834.95 396.55 834.6 396.35
M 887.65 374.35
L 887.65 374.6
Q 885.85 374.6 884.95 375.65 884.45 376.25 884.25 377.35 884.15 378.4 884.5 379.2 884.7 379.7 885.2 380.3 886.05 381.05 887.1 381.2 888.15 381.35 889.15 380.8 890.15 380.3 890.65 379.3 891.1 378.35 890.85 377.2 890.65 376.05 889.85 375.35 889.1 374.7 887.65 374.35
M 900.2 440.8
Q 900.4 441.35 900.9 442.05
L 902.65 441.8
Q 902.9 441.15 902.9 440.6
L 902.85 440.3 902.7 440.1 902.35 439.75 902.15 439.6 901.8 439.55
Q 901.45 439.55 900.95 439.75
L 900.65 439.85 900.25 440.35 900.2 440.55 900.2 440.8
M 936.35 432.55
L 936.05 432.3 934.9 432.3 934.6 432.55
Q 933.8 433.25 933.9 433.95 933.95 434.5 934.65 435.1 934.8 435.25 934.85 435.25
L 935.15 435.3 935.8 435.3 936.05 435.25
Q 936.15 435.25 936.3 435.1 937.2 434.3 937.05 433.6 937 433.2 936.35 432.55
M 941 559.9
L 940.75 561.35
Q 940.75 561.55 940.95 561.75 941.8 562.8 943.45 563.05 944.3 563.15 944.85 562.9 945.3 562.65 945.65 562.1 946.05 561.5 946.1 561.15 946.15 560.8 946.05 560.1 945.95 559.35 945.65 558.9 945.25 558.4 944.2 558.1
L 944.2 558.35
Q 943.15 558.3 942.1 558.75 941.1 559.25 941 559.9
M 971.8 555.55
Q 971.6 552.85 968.95 550.85 966.95 549.45 963.75 548.65
L 963.75 549.25
Q 960.85 548.75 958.7 550.65 956.85 552.25 956.45 555.05 956.2 556.95 956.9 558.8 957.6 560.65 959.05 561.85 961.55 563.95 964.9 563.4 968 562.95 970.2 560.35 972.05 557.95 971.8 555.55
M 918.35 413.1
Q 917.15 413.4 916.65 413.9 916.25 414.35 916.05 415.55 915.75 417.7 915.9 418.55 916.05 419.25 916.8 420.65 917.45 421.85 917.9 422.15 918.45 422.6 920.25 422.8 922.3 422.9 923.3 422.75 924.95 422.55 926 421.65 926.95 420.85 927.75 418.8 928.4 417.2 928.3 416.15 928.1 414.45 926.4 413.35 925.65 412.8 923.2 411.9
L 918.35 413.1
M 938.1 409.85
L 937.85 409.8 936.5 409.85
Q 936.1 409.95 935.6 410.55 935.65 410.65 935.75 410.95 935.8 411.25 935.9 411.35
L 936.9 411.95
Q 937.4 412.15 937.75 412.05 938.05 411.9 938.35 411.55
L 938.55 411.3 938.6 411.05
Q 938.65 410.6 938.2 409.95
L 938.1 409.85
M 948.5 419.65
Q 947.65 419.2 946.6 419.3
L 946.6 419.55
Q 945.8 419.4 945.1 419.9 944.4 420.35 944.25 421.15 944.1 421.75 944.3 422.55 944.55 423.25 944.7 423.45 944.8 423.6 945.4 423.95 946.75 424.45 947.95 424.25 948.7 424.05 949 423.8 949.45 423.4 949.7 422.65 949.95 421.75 949.75 421.05 949.55 420.1 948.5 419.65 Z"/>

<path fill="#669900" stroke="none" d="
M 816.9 578.95
Q 817.85 579.2 819.7 579.65 821.1 580.05 826.7 582.25 830.95 583.95 833.8 584.15 837.9 584.45 841.7 582.4 841.889453125 582.29921875 842.05 582.2 842.127734375 582.1701171875 842.15 582.15
L 840.75 577.8
Q 839.55 578.2 838.2 577.15 837.45 576.5 836.15 574.85 834.2 572.4 831 570.1 823.65 564.85 814.95 562.1 807.25 559.75 799.2 559.75 791.05 559.75 783.5 562.15 778.9 563.65 770.6 567.7 768.4 568.75 767.25 569.55 765.5 570.7 764.6 572.15 772.85 570.05 782.75 570.1 782.9369140625 570.1 783.1 570.1
L 783.15 570.1
Q 791.0078125 570.1361328125 801.1 571.55 805.85 572.25 808.05 573.5 809.1 574.1 811.1 575.75 812.95 577.35 814.15 577.95 815.25 578.5 816.9 578.95
M 961.4 614.8
Q 962.253515625 614.7501953125 963 614.65 967.55 614.05 970.9 612.25 973.2 611.05 977.4 607.9 978.086328125 607.449609375 979.05 606.85 980.3939453125 606.0564453125 982.25 605 984.8201171875 603.5201171875 986.3 602.55 986.7572265625 602.2822265625 987.1 602.05 991.55 599.1 1000.75 589.85 1009 581.5 1014.85 578.45 1007.9 578.25 1000.55 582.25 995.25 585.15 988.6 591.25 984.6 595.05 982.55 596.85 978.95 599.9 975.9 601.65 969.55 605.25 960.65 606.35 944.575 608.263671875 929.7 602.45 929.35625 602.5841796875 929 602.65 937.5740234375 611.7837890625 945.75 613.9 948.85 614.75 954.65 614.95 958.5357421875 615.0666015625 961.4 614.8
M 842.4 592.2
Q 842.3626953125 592.238671875 842.3 592.25 834.6958984375 594.506640625 830.6 595.8 822.4 598.4 816.7 601.2 809.4 604.7 804.3 609.3 798.55 614.5 795.55 621.3 792.35 628.6 793.3 635.7
L 801.95 629.15
Q 805.4 626.55 807.45 625.75 809.85 624.9 813.05 625 815.2 625.1 818.75 625.75 826.57734375 627.2150390625 829.85 627.7 829.9263671875 627.738671875 830 627.75 830.54140625 627.842578125 830.95 627.9 837.9 628.85 843.3 628.5 849.25 628.15 859.15 625.5 871.15 622.3 878.8 618.55 889.05 613.5 894.8 606.1 897.85625 602.174609375 899.7 597.65 893.911328125 594.940625 890.15 591.15 888.7515625 589.717578125 887.3 587.8 887.195703125 587.886328125 887.05 587.95 885.352734375 588.662890625 883.35 589.05 883.3935546875 590.8107421875 882.05 593.05 880.05 596.45 876.9 599 873.75 601.55 870 602.85 866.7 603.9 859.8 604.5
L 854.5 604.95
Q 850.45 605.3 848.45 605.65 845.15 606.2 842.7 607.3 840.15 608.4 837.05 610.9 833.45 613.75 832.45 616.45 831.9 617.8 831.4 618.05 830.75 617 831.85 614.85 832.8 612.85 833.8 611.15 835.8 607.55 837.8 605.65 840.55 603 845.15 601.5 845.986328125 601.2404296875 847.05 600.95 849.6794921875 600.3404296875 853.7 599.7
L 863.85 598.15
Q 869.1 597.35 871.45 595.95 873.1 595 874.65 593.25 875.6 592.2 877.3 589.9
L 877.55 589.5
Q 876.142578125 589.494921875 874.6 589.35 866.8580078125 588.667578125 859.65 586 859.266015625 586.1984375 858.8 586.4 853.25 588.95 844.85 591.5 843.5826171875 591.8736328125 842.4 592.2 Z"/>

<path fill="#000000" stroke="none" d="
M 938.85 396.55
Q 937.95 396 937.2 396.7 938.05 397.55 937.65 399.1 937.4783203125 399.8296875 937.1 401.15
L 937.1 401.2
Q 937.059375 401.38046875 937 401.55 937.003125 401.5880859375 937 401.6 936.9 403 938.05 405.25 939.7 408.75 940.95 410.05 942.45 411.55 946.45 413.4 951.45 415.75 957.5 419.05 962.9 422.1 965.6 424.4 968.35 426.75 972.1 431.7 973.8 433.8 974.65 435.5 975.15 436.55 976 439.1 976.95 442.3 977 443.65 977.028515625 444.3353515625 976.85 445.6 976.6740234375 446.29296875 976.45 447 975.5470703125 449.7380859375 974.55 451.6 972.4267578125 448.9353515625 969.85 446.5 966.1 443.05 960.4 439.3 943.35 428.05 928.9 426 921.75 424.95 912.8 425.75 907.3 426.25 896.7 428.05 894.1 428.55 893.1 428.8 891.1 429.3 889.7 430.1 887.9 431.05 886.2 433 885.873046875 433.376171875 885.55 433.75 887.208984375 426.61796875 892.25 419.6 893.6947265625 421.0921875 894.15 421.45 895 422.1 895.5 422.1 896.25 422.15 896.75 421.5 897.25 420.85 897.15 420.1 897.05 419 895.75 417.6 895.2361328125 417.0861328125 894.6 416.55 896.3822265625 414.5951171875 897.65 413.75 898.85 413 901.15 412.25 903.95 411.4 904.8 411 906.15 410.4 908.8 408.65 911.3 407 912.8 406.4 914.6 405.75 917 405.4 924.8 404.1 932.35 403.65 934.25 403.55 935.15 403.2 936.508984375 402.562890625 936.85 401.5 936.919921875 401.345703125 936.95 401.15 937.1 400.05 936.2 399.2 935.987890625 399.000390625 935.75 398.85 935.050390625 398.375 934.15 398.3 933.2 398.2 932 398.55 931.55 398.7 929.9 399.35 923.65 402 917.15 403.35 912.75 404.2 911.1 405.1 910.4 405.45 909.4 406.15 907.85 407.25 907.7 407.35 905.95 408.45 902.3 409.8 898.45 411.2 896.8 412.15 895.334375 412.98046875 892.7 415.2 891.34765625 414.298828125 889.65 413.45 888.35 412.85 887.6 412.8 887.1841796875 412.8 886.7 412.95 883.835546875 411.24140625 881.6 410.3 877.25 408.5 872.8 408.15 867.25 407.8 860.8 409.95 856.3 411.5 849.45 415.05 848.75 415.45 848.4 416.05 848.3791015625 416.083984375 848.35 416.1 847.881640625 415.4 846.9 415 845.65 414.55 844.4 414.95 842.5 415.55 840.65 418.25 838.85 421.05 838.05 423.85 837.55 425.65 837.25 427.8
L 835.55 437.5
Q 835 441.25 834.95 442.4 834.9361328125 443.52265625 835.1 444.8 833.31875 443.2259765625 830.85 441.85 823.75 437.9 814.8 437.35 806.55 436.8 798 439.25 796.25 439.7 796.15 440.7 796 441.55 797.55 442.65 800.95 445.1 804.8 451.05 809.35 458.15 811.35 460.25 814.55 463.55 818.85 465.4 823.1 467.3 827.7 467.35 827.95 467.35 827.85 467.05 827.7 466.75 827.55 466.9 822.6 464.65 817.9 461.2 811.3 456.5 809.7 451.3 809.5 450.6 809 448.2 808.6 446.25 808.15 445.15 807.35 443.25 805.7 441.85 804.05 440.5 802 440 811.65 437.15 821.8 439.9 829.5669921875 442.004296875 835.4 446.75 835.9724609375 449.4525390625 837.15 452.75 841.2154296875 464.0115234375 847.2 474.35 842.9134765625 471.546484375 839.7 470.35 834.158984375 468.2326171875 827.7 468.4 827.0177734375 468.40546875 826.3 468.45 819.6 468.85 812.95 471.5 810.05 472.6 809.45 474.3 809.1 475.3 809.5 476.65 809.75 477.35 810.55 479 814.5 486.55 816.2 497.45 816.3439453125 498.4265625 816.5 499.8 815.85078125 499.412890625 815.1 499.05 813.05 498.05 809.35 497.1
L 798.35 494.15
Q 796.15 493.5 795.4 494.5 794.85 495.15 795.15 496.55 795.7 498.65 797.5 501.1 798.55 502.5 800.75 505.2 804.1 509.9 805.85 518.65 806.45 522 806.55 523.55 806.7 525.3 806.9 528.8 807.05 530.1 807.55 532.6 808.05 534.9 808.6 536.2 809.2 537.55 811.05 540.05
L 817.45 548.25
Q 820.45 552 821.6 553.25 823.5650390625 555.304296875 827.85 558.6 831.1271484375 564.6884765625 835.7 569.75 840.2669921875 574.7990234375 846.1 578.85 844.506640625 580.7955078125 842.15 582.15 842.127734375 582.1701171875 842.05 582.2 841.889453125 582.29921875 841.7 582.4 837.9 584.45 833.8 584.15 830.95 583.95 826.7 582.25 821.1 580.05 819.7 579.65 817.85 579.2 816.9 578.95 815.25 578.5 814.15 577.95 812.95 577.35 811.1 575.75 809.1 574.1 808.05 573.5 805.85 572.25 801.1 571.55 791.0078125 570.1361328125 783.15 570.1
L 783.1 570.1
Q 782.9369140625 570.1 782.75 570.1 772.85 570.05 764.6 572.15 765.5 570.7 767.25 569.55 768.4 568.75 770.6 567.7 778.9 563.65 783.5 562.15 791.05 559.75 799.2 559.75 807.25 559.75 814.95 562.1 823.65 564.85 831 570.1 834.2 572.4 836.15 574.85 837.45 576.5 838.2 577.15 839.55 578.2 840.75 577.8 838.7140625 573.3888671875 835.55 569.85 834.0513671875 568.212109375 832.3 566.75 829.5 564.45 826.2 562.7 816.15 557.15 804.35 556.15 792.55 555.2 781.75 559.05 775.8 561.15 769 565.15 763.85 568.3 761.6 571.05 760.05 572.85 757.95 576.95 756.75 579.3 758.05 579.9 758.85 580.3 760.2 579.35 766.1 575.3 774.85 574.05 780.85 573.2 790.85 573.55 795.2 573.7 797.55 574 801.2 574.45 803.95 575.5 805.6 576.15 808.2 577.6 811.3 579.3 812.45 579.85 814.8 581 819.8 582.7
L 826.75 585
Q 828.9744140625 585.749609375 830.8 586.2 832.75234375 586.6708984375 834.25 586.8 838.5 587.25 841.35 585.45 842.0001953125 585.0498046875 842.7 584.35 842.79375 584.3103515625 842.85 584.25 844.266796875 582.88203125 845.95 580.5 846.3828125 579.879296875 846.8 579.3 846.9220703125 579.414453125 847.05 579.5 850.7611328125 581.97890625 854.6 583.85
L 843.8 587.1
Q 843.686328125 587.1341796875 843.55 587.15 834.542578125 589.8927734375 829.1 591.8 827.775390625 592.2755859375 826.65 592.7 817.25 596.3 810.55 600.7 802.55 605.95 797.4 613.1 791.75 620.9 790.7 629.45 790.5 631.1 790.35 634.15 790.2 637.4 790.05 638.85 789.75 641.25 788.95 644.35 788.85 644.7 787.45 649.8 786.45 653.65 788.15 654.9 789.2 655.65 790.6 655.2 791.9 654.75 792.6 653.55 793.2 652.6 793.45 651.1 793.5 650.75 793.7 648.45 794.15 641.95 796.85 636.75 799.85 630.9 805 628.4 810.65 625.65 819.15 627.15 821.6 627.6 826.2 628.8 830.95 630.05 833.2 630.5 844.55 632.8 857.3 630.1 861.343359375 629.2412109375 865.4 627.9 866.298828125 627.61015625 867.15 627.3 866.8388671875 629.4244140625 866.5 631.55 841.041015625 792.7951171875 819.6 950.8 818.65 957.6 818.75 961.4 818.891015625 966.946875 820.9 970.95
L 812.2 1027.55
Q 811.7 1030.75 811.75 1032.5 811.75 1035.25 812.75 1037.2 814.1 1039.85 818.5 1042.5 831.4 1050.25 846.55 1051.85 850.45 1052.25 852.45 1051.3 857.2 1048.95 856.45 1038.9 847.85 928 861.25 816.85 861.2865234375 816.5470703125 861.3 816.25 861.35703125 816.3765625 861.4 816.5 861.432421875 816.603515625 861.45 816.7 861.7341796875 817.358203125 862.3 817.75 863 818.25 863.75 818.2 865.4 818.1 866.3 815 867.8 810 867.8 807.3 867.5 804.2 867.7 802.65 867.9 800.9 869.05 798.75 869.7 797.55 871.2 795.1 872.55 792.65 874.8 787.5 877.45 782.2 882.3 776.55 885.2 773.15 891.55 766.8
L 903.35 755.1
Q 906.6 751.85 908.1 750.1 908.645703125 749.4794921875 909.15 748.85 908.8654296875 749.3537109375 908.7 749.85
L 913.75 746.4
Q 925.790625 751.82890625 935.65 753.25 945.1 754.55 956.5 752.85 964.85 751.6 977.05 748.15 978.55 747.75 979.05 747 979.7 745.95 978.65 744.05 976.25 739.8 971.9 737.25 967.5 734.65 962.65 734.6 975.9 728.75 982.45 725.1 993.15 719.25 1000.15 712.45 1004.2 708.5 1008.55 702.85 1024.65 681.7 1030.8 655.7 1031.15 654.05 1030.55 653.55 1030 653 1028.75 653.2 995.3 656.05 958.15 685 951.65 690.2 948.55 693.05 941.9916015625 699.0845703125 935.6 707.1 936.15078125 697.661328125 933.55 690.55 932.55 687.75 930.2 683.35
L 926.75 676.65
Q 925.35 674 924.5 672.65 923.1 670.55 921.55 669.25 919.55 670.65 916.55 674 910.3 680.85 907.45 684.95 903.1 691.25 900.65 698.15 898 705.6 897 715.1 895.9 725.1 897.25 733 898.25 738.55 900.4 743.7 901.68046875 746.710546875 903.3 748.15
L 897.8 752.6
Q 894.5 755.35 892.35 756.75 888.8 758.85 887.05 759.95 876.45 766.2 868.7 775.95 868.434765625 776.2796875 868.15 776.6 867.2294921875 777.8310546875 866.45 779 866.7072265625 777.3365234375 866.95 775.65 880.906640625 687.31015625 908.55 602.55 910.9146484375 603.084375 912.45 603.35 916.65 604.15 920.05 604.1 923.2091796875 604.0380859375 926.7 603.25 927.5833984375 603.946484375 928.6 604.85 929.6 605.8 931.6 607.65 939.7 614.75 950.95 616.25 962.2 617.8 971.9 613.1 974.15 612 980.1 608.25 985.05 604.95 986.8 603.7 990.5 601.05 993.15 598.65 994.85 597.15 997.6 594.35 1000.7 591.15 1002 589.95 1009.6 582.95 1019.1 579 1020.55 578.35 1020.5 577.6 1020.45 576.95 1019.25 576.4 1015.3 575 1010.7 575.65 1006.5 576.2 1002.4 578.35 998.95 580.15 995.15 583.2 993.15 584.85 988.6 588.95 983.35 593.65 980.05 596.05 975.1 599.65 970.4 601.3 966.4 602.7 959.9 603.45 951.75 604.45 946.3 603.85 943.2 603.55 936.15 601.85
L 933.5 601.2
Q 937.01640625 599.8501953125 941.6 597.65 955.5 591.05 963.25 584.85 967.45 581.55 972 576.7 974.3423828125 574.1931640625 978.2 569.7 979.073828125 569.380859375 979.95 568.95 984.8 566.55 989.35 561.55 991.05 559.75 994.3 556 995.7 554.55 999 551.55 1002.15 548.75 1003.7 547.1 1006.25 544.4 1010.9 538.4 1015.25 533.3 1019.35 531.35 1023.35 529.45 1028.2 529.55 1031.35 529.65 1032.1 528.3 1033 526.7 1030.8 524.2
L 1026.55 519.25
Q 1024.6 516.9 1023.2 515.8 1020.3 513.55 1015.75 512.75 1012.8 512.25 1007.35 512.25 1003.15 512.25 1002.25 514.35 1005.75 513.3 1009.55 513.65 1013.3 514.05 1016.65 515.7 1023.1 518.9 1027.2 525.85 1022.7 525.8 1018.45 527.7 1014.2 529.6 1011.15 532.95 1009.4 534.9 1006.45 539.75 1003.6 544.4 1001.65 546.5 1000.55 547.7 998.45 549.4 995.9 551.5 995.15 552.2 993.45 553.75 990.65 557.1 987.7 560.6 986.15 562.05 984.05703125 564.0779296875 981.7 565.6 983.85390625 563.0810546875 985.05 561.45 987.7 557.85 989.1 554.5 990.3 551.6 991.05 547.8 991.6 545.2 992.1 540.8 993.25 532.25 993.4 527.6 993.4626953125 525.2978515625 993.35 523.15 993.590625 523.0361328125 993.8 522.85 997.7349609375 519.1099609375 1001.25 513.7 1002.278515625 512.1671875 1003.25 510.5 1006.05 505.7 1010.3 496.45 1012.65 491.35 1014.25 488.9 1016.9 485 1020.15 483.15 1023.15 481.45 1027.1 481.2 1030.4 481.1 1031.25 480.75 1032.5 480.3 1033.2 479.25 1034 478.1 1033.65 477 1033.3 475.9 1031.9 475.2 1030.2 474.5 1029.35 474.1 1028.15 473.55 1026 471.9 1023.9 470.25 1022.6 469.7 1020.65 468.9 1016.7 468.9
L 1009.3 468.85
Q 1008.74453125 468.85 1008.2 468.85 1009.148046875 461.9333984375 1008.65 457.7 1008.15 453.35 1006.2 448.4 1004.8 444.85 1002.05 439.55 997.75 431.3 994.2 426.3 989.3 419.45 983.6 415.4 981.6 414 980.25 414.35 978.4 414.9 978.1 418.2 977.85 421.15 978.4 426.6 979 432.45 978.9 435 978.875 435.6103515625 978.8 436.25 975.7662109375 427.91328125 969 421.85 966.05 419.2 960.4 415.65 954.65 412.05 950.1 409.8 946.15 407.95 944.95 407 940.35 403.65 938.85 396.55
M 864.4 491.85
Q 865.034375 493.2138671875 865.55 494.25 865.0669921875 493.666015625 864.5 492.95
L 860 487.4
Q 861.65078125 488.821484375 863.05 490.3 863.7505859375 491.05625 864.4 491.85
M 997.75 442.9
L 998.2 441.15
Q 999.3244140625 443.4236328125 1000.5 445.9 1002.3 449.75 1003.15 452.1 1004.4 455.55 1004.75 458.55 1005.2091796875 462.360546875 1004.05 469 1004.00703125 469.0435546875 1003.95 469.05 1001 469.35 998.85 470.4 996.3 471.6 993.3 474.7 988.9 479.25 988.3 479.75 985.7173828125 481.92265625 981.55 483.9 981.45546875 482.5357421875 981.1 481.5
L 982.55 477.3
Q 984.7 471 986.3 468.2 987.45 466.2 989.65 463.35 992.75 459.35 993.3 458.6 997.55 452.8 997.75 447.8 997.5 444.5 997.75 442.9
M 981.6 474.65
Q 981.5728515625 474.73515625 981.55 474.8
L 979.95 479.55
Q 978.9283203125 478.4025390625 977.15 477.7 977.640625 477.4765625 978.1 477.25 980.3 476.15 981.1 475.25 981.3677734375 474.9748046875 981.6 474.65
M 979.2 490.9
Q 979.1228515625 489.588671875 979.1 488.8 979.3283203125 488.733203125 979.55 488.65 979.4494140625 489.5333984375 979.35 490.15 979.2796875 490.571484375 979.2 490.95 979.2 490.937109375 979.2 490.9
M 980.1 432.9
Q 980.05 431.35 979.6 428.7 979.05 425.65 978.95 424.45 978.65 419.7 980.3 415.35 986.45 421.1 991.8 429.6 994.119921875 433.3119140625 996.65 438.2 996.7 438.362890625 996.7 438.5 996.7 439 996.4 439.7 996.2 440.05 995.85 440.85 995.6 441.6 995.6 442.75 995.6 443.4 995.65 444.65 995.65 447.75 993.4 452.85
L 991.05 457.75
Q 990.55 458.6 989.35 460.2
L 986.85 463.6
Q 985.05 466.15 983.9 468.85 983.3869140625 469.96953125 982.85 471.35 982.9 470.8162109375 982.9 470.25 982.9 467.65 981.75 464.6 979.4359375 458.1265625 975.35 452.65 975.5837890625 452.2888671875 975.8 451.8 976.0263671875 451.2537109375 976.25 450.7 976.221875 451.464453125 976.3 452.05 976.95 452.25 977.05 450.85 977.15 449.65 978.25 447.9 979.65 445.75 979.9 445 980.8 442.55 979.6 438.6 979.592578125 438.574609375 979.55 438.55 980.1875 435.264453125 980.1 432.9
M 812.75 478.95
Q 820.05 476.7 824.05 475.9 830.4 474.7 835.55 475.4 841.55 476.2 849.05 480.2 850.4771484375 480.9380859375 851.8 481.7 854.7236328125 486.093359375 859.05 492.25
L 862.35 496.95
Q 865 500.7 867.05 502.45 869.395703125 504.4830078125 871.85 504.95 872.085546875 505.5220703125 872.3 506.1 872.390625 506.3435546875 872.45 506.6 871.8279296875 507.71875 871.4 509.45 868.6 520.55 868.5 532.1 868.4 543.65 871.05 554.8 872.15 559.45 873.2 562.2 874.75 566.45 877.4 571.45 878.85 574.25 882.45 580.3 883.4244140625 581.910546875 884.15 583.1 883.260546875 583.05 881.25 583.05 870.75 583.05 861.35 579.9 851.3 576.5 844.1 570 836.7 563.35 830.5 551.15 826.7 543.75 824.85 537.5 822.8 530.9 821.5 520.55 819.8564453125 507.8609375 819.4 504.5 819.5900390625 504.8515625 819.75 505.2 820.15 504.75 820.05 504 819.95 503.35 819.55 502.75 819.31171875 502.380078125 819 502 816.9693359375 489.9962890625 812.75 478.95
M 873.4 509.4
Q 873.4923828125 509.6138671875 873.55 509.8 873.7689453125 510.55234375 874 511.3 875.60234375 516.6546875 877.25 524.15 878.05 527.8 879.45 529.05 878.8693359375 523.8087890625 877.65 518.75 878.76875 520.5111328125 880.2 522.6 883.95 528.15 885.8 530.6 889.1 535 892.2 538 900.3 545.75 909.25 547 913.85 547.6 919.3 546.45 923.45 545.55 929 543.35 939.9 539.05 956.55 529.85 977.5 518.3 983.65 515.35 986.4 514.1 987.7 514.9 988.7 515.6 989.15 517.35 990 520.65 989.9 524.95 989.8 527.55 989.15 532.65
L 988.1 540.5
Q 987.55 544.65 987.1 546.9 986.4 550.4 985.25 553.05 984 555.9 981.7 559 980.3 560.85 977.25 564.45 974.6537109375 567.44375 972.7 569.6 971.7974609375 569.8626953125 970.85 570.05 968.9 570.5 968.3 570.9 969.8140625 571.16796875 971.35 571.15 970.4892578125 572.106640625 969.8 572.85 965.5 577.4 961.7 580.65 956.15 585.25 947.25 590.7 938.55 596 932.25 598.4 930.1173828125 599.2306640625 928.05 599.8
L 923.1 598.6 923.05 594.7
Q 922.25 595.3 921.9 596.3 921.6 597.3 921.9 598.25 921.1359375 598.2978515625 920.15 598.2 919.8044921875 596.6708984375 916.95 595.8 903.6 591.85 902.3 591.4 902.1263671875 591.3349609375 901.95 591.25 901.8896484375 590.783203125 901.8 590.3 901.7244140625 590.7294921875 901.65 591.15 893.962890625 588.162890625 889.55 583.75 886.8 581 883.65 575.8 876.1 563.25 873.35 551.8 871.7 545.3 871 536.2 870.55 531.3 870.7 527.6 870.8 523.25 872.3 514.75 872.85 511.8 873.2 510.35 873.3046875 509.9052734375 873.4 509.4
M 918 601.4
Q 918.8234375 601.041796875 919.45 600.45 919.650390625 600.2390625 919.8 600 921.4041015625 600.4173828125 922.8 601 920.3560546875 601.373046875 918 601.4
M 929.65 721.05
Q 929.4716796875 721.932421875 929.25 722.65 927.3990234375 728.9431640625 923.55 734.15 923.4 734.1173828125 923.25 734.05 922.77265625 733.83515625 922.35 733.65 925.8974609375 726.9974609375 929.65 721.05
M 920.6 737
L 921 737.25
Q 920.4833984375 737.851953125 919.8 738.55 920.2130859375 737.774609375 920.6 737
M 911.55 745.4
Q 911.891015625 745.56015625 912.2 745.7 910.807421875 746.842578125 910.7 746.95 910.5177734375 747.1201171875 910.35 747.3 911.0279296875 746.3439453125 911.55 745.4
M 909.15 744.2
Q 909.6837890625 744.5029296875 910.25 744.8 909.6857421875 745.1642578125 909 745.85 908.4982421875 746.3935546875 907.9 747 907.69375 746.729296875 907.35 746.45 907.1447265625 746.30625 906.95 746.15 907.3279296875 745.81484375 907.9 745.35 908.75 744.6 909.1 744.25 909.120703125 744.228515625 909.15 744.2
M 904.9 749.15
Q 905.24296875 749.3146484375 905.6 749.35 902.83828125 752.119140625 898.75 755.95 899.7490234375 754.949609375 901.8 752.7
L 903.8 750.45
Q 904.4662109375 749.7259765625 904.9 749.15
M 880.7 412.75
Q 878.6208984375 412.494140625 876.9 412.45 872.4 412.3 868.05 413.75 863.7 415.2 860.25 418.05 860.55078125 418.451171875 860.95 418.55 861.4015625 418.6244140625 861.95 418.4 862.5 418.15 863.5 417.35 864.5 416.65 867 415.7 871.05 414.35 874.4 413.95 879.1865234375 413.3845703125 883.7 414.45 883.88984375 414.544921875 884.05 414.6 883.2658203125 415.4236328125 883.4 416.05 884.3873046875 415.7306640625 885.25 415.25 887.884765625 416.6654296875 890.05 417.3 890.1439453125 417.3751953125 890.2 417.45 887.4318359375 420.0984375 886.1 422.15 884.55 424.55 883.2 428.85 882.4796875 431.027734375 882.2 432.85
L 877.05 429.45
Q 874.45 427.75 873.1 427.45 872.1 427.2 870.7 427.2 869.1 427.2 868.25 427.2 864.1 427.3 860.1 425.9 859.55546875 425.6982421875 859.1 425.6 858.4876953125 425.52109375 858.1 425.7 857.35 426 856.95 427.25 856.1 430.05 857.8 434.9 859.919140625 441.11640625 862.85 447 861.537890625 446.13046875 859.85 445.75 858.2 445.4 856.65 445.8 855 446.25 854.2 447.55 853.4 448.85 853.65 450.85 853.8 452 854.35 454.35 854.8 456.6 854.75 459.95 854.75 461.85 854.6 465.6 854.6 467.5 854.9 469.3 855.35 471.7 857.25 475.85
L 862 486.5
Q 861.5857421875 486.0158203125 861.15 485.55 858.08125 482.258984375 852.75 478.3 852.703515625 478.222265625 852.65 478.15 845.75 469.05 840.85 458.3 838.4396484375 452.8388671875 837.5 448.6 838.2056640625 449.268359375 838.85 449.95 838.2560546875 448.4806640625 837.25 447.15 837.160546875 446.5560546875 837.1 446 836.45 439.3 839.75 429.45 840.65 427.15 841.1 426.4 842.3 424.35 845.7 421.8 849.1857421875 419.209375 848.7 416.95 857.27734375 412.1263671875 867.1 410.3 870.95 409.65 873.4 409.95 875.953515625 410.2982421875 880.7 412.75
M 962.8 524
Q 963.8392578125 523.2490234375 965.7 521.55
L 967.95 519.55
Q 964.30078125 519.09375 959 520.65 962.8197265625 518.6955078125 965.8 516.05 969.45 512.75 973.4 506.85 974.009765625 505.9392578125 974.55 505.05
L 974.6 505.05
Q 978.08359375 505.0125 981.2 503.85 982.2466796875 503.5017578125 983.25 503 986.1 501.6 989 499.1 990.95 497.35 994 494.15
L 1000.7 486.75
Q 1004.2 482.85 1005.5 480.2 1006.95 477.3 1007.8 471.8 1007.8810546875 471.2962890625 1007.95 470.8 1008.634375 470.858203125 1009.35 470.95 1011.9 471.3 1016.9 472.4 1019.4 472.95 1020.75 473.5 1022.8 474.35 1023.85 475.75 1020.55 476.9 1018.25 478.95 1016.85 480.2 1015.35 482.35 1013.3 485.4 1011.3 490.3 1010.2 493.05 1008.05 498.65 1007 501.2 1005.4 504.55 1002.5 510.55 1000.1 513.85 998.0017578125 516.796484375 993.25 521.75 992.9765625 517.8810546875 992.1 514.55 991.15 511.15 989.35 510.35 988.9134765625 510.159765625 988.4 510.1 989.381640625 508.9236328125 989.85 507.55 988.4 507 986.5 507.4 985.35 507.65 983.15 508.5 980.6373046875 509.494921875 978.1 510.3
L 978.1 510.35
Q 978.25 512.4 977.35 514.35 977.2205078125 514.647265625 977.05 514.9 977.425390625 514.8904296875 977.8 514.85 977.8341796875 514.8453125 977.85 514.85 977.3189453125 515.180078125 976.7 515.55 975.967578125 516.71953125 974.85 517.6 973.092578125 519.025 968.75 520.35 966.03046875 522.0267578125 962.8 524
M 981.4 487.85
Q 983.3353515625 487.018359375 985.15 485.9 989.5 483.25 992.7 479.45 993.85 478.1 996.05 475.3 998.05 473 1000.05 472 1001.6337890625 471.1736328125 1003.7 470.85 1003.201953125 473.4708984375 1002.8 474.9 1002.1 477.45 1001.05 479.3 999.9 481.45 996.9 484.7
L 992.55 489.6
Q 988.8 493.8 986.5 495.75 982.85 498.85 979.2 499.9 978.35078125 500.142578125 977.3 500.3 978.369140625 498.3240234375 979.15 496.45 980.934375 492.0263671875 981.4 487.85
M 881.15 509.75
Q 883.1962890625 511.07265625 885.85 513.6 889.7 517.25 891.05 518.25 892.8 519.55 896.1 521.35 914.95 531.25 936.15 532.15 940.1 532.25 942.05 532.05 945.45 531.7 949.45 530.3 952.25 529.35 956.55 527.4 958.554296875 526.5064453125 959.95 525.75 958.3474609375 526.766796875 956.6 527.85 946.759375 533.9080078125 938.55 537.7 932.9166015625 540.375390625 928.05 541.95 922.05 543.85 917.9 543.8 911.65 543.75 905.2 539.8 900.25 536.75 894.55 530.95 892.4615234375 528.8208984375 890.45 526.6 882.925 518.33046875 876.75 509.15 878.8302734375 510.2087890625 882 511.5 881.658203125 510.9609375 881.45 510.5 881.2765625 510.1208984375 881.15 509.75
M 811.6 498.85
Q 814.2 499.7 815.5 500.45 816.1119140625 500.8150390625 816.65 501.25 817.2330078125 506.6658203125 818 516.95 818.2712890625 520.7173828125 818.6 524.1 819.42734375 532.026953125 820.65 538 821.9455078125 544.3650390625 823.9 549.85 823.106640625 549.0171875 822.5 548.25 821.8 547.35 820.5 545.3 819.3 543.3 818.5 542.3 817.95 541.6 816.7 540.25 815.45 538.9 814.9 538.15 813.2 536.05 812.25 533.4 811.35 530.9 810.7 524.95 809.95 517.5 808.8 513.25 807.1 506.9 803.7 502.85 803 502.05 800.35 499.45 798.25 497.4 797.25 495.9 804.55 496.55 811.6 498.85
M 939.85 444.2
Q 939.92421875 444.2541015625 940 444.25 943.8296875 445.32578125 947.5 446.75 946.594140625 446.71328125 945.55 446.7 943.7 446.7 942.85 447 947.65 447.4 951.55 449.95 953.01171875 450.9033203125 953.7 451.95
L 953.7 452
Q 954.1091796875 452.5515625 954.25 453.15 954.55 454.3 954.05 455.55 953.6 456.7 952.6 457.5 951.2 458.75 948.2 459.6 943.55 460.9 938.75 461.1 931.05 461.5 919.15 458.75 903.3 455.05 899.65 454.6 895.7 454.05 894.8 453.85 892.1 453.2 890.4 451.95 888.25 450.3 887.05 447.15 886.25 445.2 885.45 441.25 886.4 438.1 887.2 436.55 888.4 434.05 890.25 432.8 892.15 431.45 896.75 430.85 904.55 429.95 911.95 429.2 921.3 428.35 926.8 428.85 936.7166015625 429.7384765625 948.15 435.55 950.089453125 436.54453125 952.05 437.65 952.2015625 437.746875 952.3 437.8 954.976171875 439.332421875 957.7 441.1 959.6455078125 442.3361328125 961.4 443.55 967.825 448.075390625 971.75 452.55 976.95 458.55 979.6 465.75 981.7 471.4 979.5 474.3 978.4474609375 475.6396484375 975 477.05 973.4181640625 476.7400390625 971.2 476.55
L 943.35 474.45
Q 938.8 474.05 937.15 473.9 933.7 473.5 931.05 472.85 928.25 472.15 926.85 471.8 925.626171875 471.475390625 924.55 471.3 923.52578125 471.1 922.65 471.05 921.9 471 919.45 471.05 917.45 471.05 916.25 470.85 915.3 470.7 913.3 470 911.35 469.35 910.3 469.2 908.7 468.95 906.1 469.2 902.75 469.55 901.85 469.55 899.15 469.5 894.15 468.1
L 885.9 465.75
Q 885.6 465.55 885.3 465.85 885 466.15 885.1 466.5 885.2 466.9 886.05 467.45
L 891.3 470.45
Q 894.8 472.45 896.75 473.05 897.29921875 473.2056640625 897.9 473.3 900.5828125 473.854296875 904.3 473.65 907.95 473.45 915.3 472.6 921.7 472.2 926.1 473.45 927.6 473.9 930.45 475.1 933.35 476.3 934.75 476.75 936.7681640625 477.3462890625 939.3 477.7 937.4197265625 478.6724609375 936.25 479 934.1 479.65 930.35 479.65 925.9 479.65 924.4 479.9 923.05 480.1 921.1 480.7 918.15 481.5 917.8 481.6 909.6 483.65 901.4 480.85 898.35 479.65 897.15 478.25 896.75 477.7 895.6 475.65 893.726171875 472.501953125 889.35 469.75 887.890625 468.8265625 886.15 467.95 882.4 466.25 880.55 465.3 877.3 463.75 875.2 462.2 875.0935546875 462.12734375 875 462.05 874.0515625 461.440234375 873.6 461.35 873.375 461.3 873.15 461.3 872.925 461.35 872.7 461.45 872.2 461.65 872.1 462.1 883.5 467.3 892.35 475.85 895.3 478.65 896.4 479.45 898.4 480.8 902.9 482.5 908.7 484.7 911.85 484.9 914.2 485.05 918.05 484.5 922.7 483.8 924.3 483.75 925.65 483.7 928.9 483.85 931.85 483.95 933.5 483.8 936.65 483.55 940.2 482.25 942.75 481.25 946.55 479.3 947.5623046875 478.7939453125 948.3 478.45
L 970.45 479.95
Q 970.3078125 480.122265625 970.2 480.3 970.698828125 480.1533203125 971.2 480
L 975 480.25
Q 978.1482421875 480.42734375 979.25 481.7
L 978.75 483.2
Q 978.45390625 484.3353515625 978.25 485.35 976.4005859375 486.2248046875 975.95 486.45 973.9 487.5 972.65 488.7 972.8 489.6 973.95 489.85 974.85 490.05 976 489.75 976.9658203125 489.5109375 977.9 489.2 977.9224609375 490.10859375 978.05 490.9
L 978.6 493.2
Q 978.6396484375 493.14375 978.65 493.05 978.3966796875 494.0048828125 978.05 494.8 977.0755859375 497.155078125 974.4 500.65 974.1634765625 500.68359375 973.9 500.7 970.35 500.9 968.55 501.05 967.4 501.2 966.65 501.7 965.7 502.3 965.9 503.15 968.3716796875 504.3095703125 971.05 504.75 968.1716796875 508.1416015625 966.7 509.5 958.55 517.25 945.85 519.95 935.6 522.15 922.4 520.8 921.5 520.7 921 520.75 922.347265625 521.530078125 923.45 522.15 925.4736328125 523.2513671875 926.7 523.8 930 525.35 932.8 525.8 936 526.3 940.75 525.75 945.4771484375 525.223046875 949.55 524.15 943.44296875 526.4404296875 940.55 526.7 938.65 526.9 936.3 526.75 935.1 526.7 932.05 526.35 925.15 525.55 921.75 524.95 913.25 523.45 903.85 519.7 899.05 517.8 896.1 516.05 890.95 512.55 888.35 510.9 884.183203125 508.2279296875 880.75 507.45 880.759375 507.315625 880.75 507.15 879.1416015625 506.551171875 878.4 506.45 876.50625 506.2396484375 875.35 507.05 874.984765625 506.433203125 874.6 505.8 874.7513671875 505.384375 874.9 504.9 875.45234375 504.844921875 876.05 504.7 877 504.5 878.85 504 882.4 503.25 884.35 504.8 885 505.3 885.25 505.3 885.55 505.35 885.75 505.15 885.95 504.9 885.8 504.7 883.6 502.8 878.75 501.7 873.86171875 500.5751953125 871.8 499.65 871.6669921875 499.55390625 871.55 499.45 870.5 498.55 869.4 496.25
L 863.85 484.2
Q 862.75 481.5 862.1 480.2 861.6 479.25 860.2 476.95 858.9 474.9 858.35 473.65 857.5 471.8 857.2 469.85 857.1 469.4 856.85 467.2 856.25 460.2 857.1 453 858.25 453.4 860.9 453.75 863.45 454.05 864.7 454.6 865.55 455 868.7 457.3 871.1 459 872.9 459.1 872.7763671875 458.7044921875 872.45 458.35 872.130859375 457.9787109375 871.6 457.65 870.35 456.95 869.8 456.55 868.5 455.6 867.35 453.3 867.04453125 452.6701171875 866.75 452.15 866.9787109375 452.044140625 867.1 451.85 863.35 443.55 860.65 434.9 860 432.65 859.85 431.3 859.6 429.3 860.25 427.8
L 867.85 428.4
Q 871.55 428.7 873.3 429.4 875.55 430.3 877.9 432.7 879.084765625 433.884765625 881.1 436.15 880.94453125 436.2380859375 880.75 436.35 880.533203125 436.46015625 880.3 436.6 875.2 439.75 872.35 445.45 871.45 447.3 871.3 448.55 871 450.95 872.65 454.8 873.302734375 456.356640625 873.9 457.45 874.5525390625 458.527734375 875.15 459.15 875.6900390625 459.7150390625 876.25 460.1 877.902734375 461.2744140625 879.7 460.9 880.25 459.95 880 458.7 879.75 457.6 878.95 456.55 878.55 456.05 877.3 454.85 876.25 453.85 875.75 453.15 873.7 450.55 874.35 447.25 874.55 446.05 875.2 444.75 877.3033203125 440.2068359375 881.75 437.65 882.0234375 437.5087890625 882.25 437.35 882.4796875 438.2490234375 882.85 439 882.9138671875 439.127734375 882.95 439.2 882.3314453125 441.728515625 882.5 444.3 882.65 446.4 883.4 448.35 885.05 452.55 888.65 455 891.15 456.65 894.95 457.55 896.4 457.9 901.75 458.75 908.65 459.85 922.25 463 924.1076171875 463.3791015625 925.85 463.7 935.773828125 465.4392578125 942.9 465.1 950.65 464.7 954.5 461.5 957 459.45 957.75 456.25 958.5 452.9 956.75 450.45 955.2 448.2 951.8 447.35 951.7115234375 447.326953125 951.6 447.3
L 951.6 447.3
Q 951.529296875 447.288671875 951.45 447.25 951.4525390625 447.2330078125 951.45 447.2 951.45 447.0564453125 951.4 446.9
L 951.4 446.85
Q 951.348828125 446.4234375 951.05 446.05 950.1515625 444.901953125 948.55 443.95 947.0037109375 443.026171875 944.75 442.3 937.55 439.9 928.7 438.95 921.7 438.2 912.2 438.3 908.55 438.3 907.35 439.85 906.65 440.8 906.7 442.1 906.75 443.35 907.45 444.4 908.45 445.85 911.2 447.45 916.75 450.55 922.65 451.95 928.9 453.45 934.85 452.95 937.75 452.65 938.95 451.75 939.85 451.1 940.25 450.05 940.7 448.95 940.3 448 939.97734375 447.2056640625 939.3 446.8 938.607421875 446.449609375 937.55 446.5 935.55 446.55 934.3 447.95 936.3 448.65 938.1 447.5
L 938.2 449.2
Q 931.85 451.35 923.85 448.65 920.8 447.65 917.2 445.7 915.25 444.65 910.85 442.05 920.85 440.9 930.9 442.35 935.462109375 443.030859375 939.85 444.2
M 842.3 592.25
Q 842.3626953125 592.238671875 842.4 592.2 843.5826171875 591.8736328125 844.85 591.5 853.25 588.95 858.8 586.4 859.266015625 586.1984375 859.65 586 866.8580078125 588.667578125 874.6 589.35 876.142578125 589.494921875 877.55 589.5
L 877.3 589.9
Q 875.6 592.2 874.65 593.25 873.1 595 871.45 595.95 869.1 597.35 863.85 598.15
L 853.7 599.7
Q 849.6794921875 600.3404296875 847.05 600.95 845.986328125 601.2404296875 845.15 601.5 840.55 603 837.8 605.65 835.8 607.55 833.8 611.15 832.8 612.85 831.85 614.85 830.75 617 831.4 618.05 831.9 617.8 832.45 616.45 833.45 613.75 837.05 610.9 840.15 608.4 842.7 607.3 845.15 606.2 848.45 605.65 850.45 605.3 854.5 604.95
L 859.8 604.5
Q 866.7 603.9 870 602.85 873.75 601.55 876.9 599 880.05 596.45 882.05 593.05 883.3935546875 590.8107421875 883.35 589.05 885.352734375 588.662890625 887.05 587.95 887.195703125 587.886328125 887.3 587.8 888.7515625 589.717578125 890.15 591.15 893.911328125 594.940625 899.7 597.65 897.85625 602.174609375 894.8 606.1 889.05 613.5 878.8 618.55 871.15 622.3 859.15 625.5 849.25 628.15 843.3 628.5 837.9 628.85 830.95 627.9 830.54140625 627.842578125 830 627.75 829.9263671875 627.738671875 829.85 627.7 826.57734375 627.2150390625 818.75 625.75 815.2 625.1 813.05 625 809.85 624.9 807.45 625.75 805.4 626.55 801.95 629.15
L 793.3 635.7
Q 792.35 628.6 795.55 621.3 798.55 614.5 804.3 609.3 809.4 604.7 816.7 601.2 822.4 598.4 830.6 595.8 834.6958984375 594.506640625 842.3 592.25
M 963 614.65
Q 962.253515625 614.7501953125 961.4 614.8 958.5357421875 615.0666015625 954.65 614.95 948.85 614.75 945.75 613.9 937.5740234375 611.7837890625 929 602.65 929.35625 602.5841796875 929.7 602.45 944.575 608.263671875 960.65 606.35 969.55 605.25 975.9 601.65 978.95 599.9 982.55 596.85 984.6 595.05 988.6 591.25 995.25 585.15 1000.55 582.25 1007.9 578.25 1014.85 578.45 1009 581.5 1000.75 589.85 991.55 599.1 987.1 602.05 986.7572265625 602.2822265625 986.3 602.55 984.8201171875 603.5201171875 982.25 605 980.3939453125 606.0564453125 979.05 606.85 978.086328125 607.449609375 977.4 607.9 973.2 611.05 970.9 612.25 967.55 614.05 963 614.65
M 908.45 600.9
Q 908.4376953125 600.958984375 908.4 601 906.4263671875 601.1130859375 904.95 601.65 906.2359375 601.978125 907.35 602.25 906.6337890625 603.254296875 906 604.5 905.1 606.3 903.85 609.9 874.35 697.2 860.75 792.3 847.6 883.8 849.55 979.65 850.25 1010.65 852.3 1040.55 852.4 1042.25 852.25 1043.15 852.05 1044.55 851.25 1045.35 849.85 1046.8 846.2 1046.3 829.15 1043.9 814.95 1034.5
L 823.95 969.75
Q 825.3 960.25 825.7 955.05 826.33046875 947.0953125 825.65 940.65
L 859.7 707.2
Q 863.75 679.4 865.6 665.5 868.5396484375 643.802734375 870.35 626.1 875.2259765625 624.171875 880.15 621.55 890.9 615.9 896.25 609.25 897.4498046875 607.781640625 898.4 606.2 900.137109375 603.4130859375 901.1 600.3 901.3771484375 599.4076171875 901.55 598.5 904.7541015625 599.8638671875 908.45 600.9
M 924.3 675.75
Q 925.35 677.1 926.4 679.75 929.958203125 688.4439453125 931.2 696.1 931.80078125 699.8498046875 931.85 703.35 931.85 707.35 931.15 712.95 931.1427734375 713.00390625 931.1 713.05 927.0283203125 718.7541015625 923 725.3 920.8958984375 728.73671875 919.45 731.35 918.9404296875 725.1052734375 918.85 721.85 918.65 715.3 920.05 706.45 921.3 698.5 925.45 697.1 925.45 696.75 925.05 696.75 924.65 696.7 924.3 696.9 919.55 699.75 916.9 705.55 914.6 710.65 914.3 717 914.1 721.3 914.9 728.65 915.758203125 736.707421875 915.85 740 915.4962890625 741.164453125 915.25 742.3 913.02109375 741.891015625 910.9 741.1 911.1685546875 740.5521484375 911.4 739.9 910.8615234375 740.0794921875 910.2 740.85 907.5740234375 739.7921875 905.15 738.15
L 906.15 734.05
Q 904.5 734.8 904.15 736.9 903.8 738.85 904.8 740.55 905.791796875 742.157421875 908.2 743.65 907.4935546875 744.4828125 906.6 745.35 906.4375 745.4955078125 906.2 745.65 906.0166015625 745.5166015625 905.85 745.4 904.05 744.15 902.95 740.25 901.2 733.75 900.75 727.25 899.95 715.2 903.15 703.25 907.95 685.35 920.45 671.35 920.95 672.35 922.25 673.65 923.9 675.25 924.3 675.75
M 864.6 791.45
Q 864.98515625 791.398046875 865.35 791 865.8 790.5 866 789.7 868.60546875 781.521875 875 774.75 877.488671875 772.1759765625 880.5 769.8 882.55 768.15 889.45 763.4 893.87421875 760.3853515625 896.65 757.95 894.9880859375 759.5380859375 893.15 761.25 882.9 770.85 877.7 777 874.85 780.4 873.55 782.75 872.6 784.45 871.1 788.05 869.6 791.65 868.6 793.35 866.8 796.15 865.9 797.5 864.3 800 863.8 801.95 863.6 802.75 863.45 804 863.35 804.7 863.2 806.1 863 807.4 862.3 809.8 862.1310546875 810.3517578125 862 810.85 863.2134765625 801.123046875 864.6 791.45
M 936.5 741.75
Q 934.65 741.05 932.4 739.55 930.25859375 738.0384765625 929 737.2
L 935.25 733.15
Q 935.0763671875 733.4986328125 935 733.9 934.8 734.95 935.55 735.45 935.95 735.75 936.9 735.85
L 961.2 738.45
Q 963.95 738.8 965 738.95 967.1 739.35 968.65 740 972.75 741.65 974 745.15 957.9 749.2 946.75 749.5 931.55 750 919.8 744.5 918.919921875 744.108984375 918.45 743.6 918.5984375 743.54140625 918.7 743.45 918.767578125 743.217578125 918.8 742.95 919.0443359375 742.8265625 919.25 742.65 919.4841796875 742.6908203125 919.75 742.65 920.85 742.45 922 741.7
L 924.85 739.85 926.95 741.25
Q 930.7 743.8 933 744.55 935.45 745.35 938.05 745.1 940.65 744.8 942.9 743.55 945.05 742.4 945.25 740.75 943.65 742.3 941.1 742.5 938.85 742.65 936.5 741.75
M 964.25 705.35
Q 961.05 709.2 956.3 713.1 952.95 715.85 947.35 719.75 938.1 725.95 933.5 729.05
L 933.45 729.05
Q 931.1603515625 730.629296875 929.05 732.05
L 929.1 732.05
Q 930.1734375 730.1775390625 931.05 727.95 931.9990234375 725.7037109375 932.75 723.1 934.1998046875 718.45234375 934.95 713.35 943.098046875 702.2220703125 952.2 694.3 955.35 691.55 962.3 686.2 974.2 677.1 980.55 673.15 981.443359375 672.598046875 982.35 672.05 1002.39375 660.158203125 1025.65 657 1023.3 669.75 1017.35 681.3 1015.45 684.95 1010.25 693.35 1006.5 699.35 1004.55 702.1 1001.2 706.85 997.95 710.15 993.55 714.65 987.1 718.85 982.7 721.7 974.9 725.85 970.8 728 968.55 729.05 964.95 730.65 961.85 731.5 957 732.8 950.8 732.75 946.55 732.75 939.6 732 938.0818359375 731.8140625 937.05 732
L 937.55 731.7
Q 937.854296875 731.5041015625 938.15 731.3 947.9484375 724.990234375 952.8 721.4 961 715.3 966.5 709.25 973.1 702.05 977.55 693.25 981.95 684.45 983.85 674.85 982.75 676.05 981.45 678.3
L 971.8 694.15
Q 967.35 701.65 964.25 705.35 Z"/>

<path fill="#387105" stroke="none" d="
M 956.3 713.1
Q 961.05 709.2 964.25 705.35 967.35 701.65 971.8 694.15
L 981.45 678.3
Q 982.75 676.05 983.85 674.85 981.95 684.45 977.55 693.25 973.1 702.05 966.5 709.25 961 715.3 952.8 721.4 947.9484375 724.990234375 938.15 731.3 937.854296875 731.5041015625 937.55 731.7
L 937.05 732
Q 938.0818359375 731.8140625 939.6 732 946.55 732.75 950.8 732.75 957 732.8 961.85 731.5 964.95 730.65 968.55 729.05 970.8 728 974.9 725.85 982.7 721.7 987.1 718.85 993.55 714.65 997.95 710.15 1001.2 706.85 1004.55 702.1 1006.5 699.35 1010.25 693.35 1015.45 684.95 1017.35 681.3 1023.3 669.75 1025.65 657 1002.39375 660.158203125 982.35 672.05 981.443359375 672.598046875 980.55 673.15 974.2 677.1 962.3 686.2 955.35 691.55 952.2 694.3 943.098046875 702.2220703125 934.95 713.35 934.1998046875 718.45234375 932.75 723.1 931.9990234375 725.7037109375 931.05 727.95 930.1734375 730.1775390625 929.1 732.05
L 929.05 732.05
Q 931.1603515625 730.629296875 933.45 729.05
L 933.5 729.05
Q 938.1 725.95 947.35 719.75 952.95 715.85 956.3 713.1
M 932.4 739.55
Q 934.65 741.05 936.5 741.75 938.85 742.65 941.1 742.5 943.65 742.3 945.25 740.75 945.05 742.4 942.9 743.55 940.65 744.8 938.05 745.1 935.45 745.35 933 744.55 930.7 743.8 926.95 741.25
L 924.85 739.85 922 741.7
Q 920.85 742.45 919.75 742.65 919.4841796875 742.6908203125 919.25 742.65 919.0443359375 742.8265625 918.8 742.95 918.767578125 743.217578125 918.7 743.45 918.5984375 743.54140625 918.45 743.6 918.919921875 744.108984375 919.8 744.5 931.55 750 946.75 749.5 957.9 749.2 974 745.15 972.75 741.65 968.65 740 967.1 739.35 965 738.95 963.95 738.8 961.2 738.45
L 936.9 735.85
Q 935.95 735.75 935.55 735.45 934.8 734.95 935 733.9 935.0763671875 733.4986328125 935.25 733.15
L 929 737.2
Q 930.25859375 738.0384765625 932.4 739.55
M 865.35 791
Q 864.98515625 791.398046875 864.6 791.45 863.2134765625 801.123046875 862 810.85 862.1310546875 810.3517578125 862.3 809.8 863 807.4 863.2 806.1 863.35 804.7 863.45 804 863.6 802.75 863.8 801.95 864.3 800 865.9 797.5 866.8 796.15 868.6 793.35 869.6 791.65 871.1 788.05 872.6 784.45 873.55 782.75 874.85 780.4 877.7 777 882.9 770.85 893.15 761.25 894.9880859375 759.5380859375 896.65 757.95 893.87421875 760.3853515625 889.45 763.4 882.55 768.15 880.5 769.8 877.488671875 772.1759765625 875 774.75 868.60546875 781.521875 866 789.7 865.8 790.5 865.35 791
M 926.4 679.75
Q 925.35 677.1 924.3 675.75 923.9 675.25 922.25 673.65 920.95 672.35 920.45 671.35 907.95 685.35 903.15 703.25 899.95 715.2 900.75 727.25 901.2 733.75 902.95 740.25 904.05 744.15 905.85 745.4 906.0166015625 745.5166015625 906.2 745.65 906.4375 745.4955078125 906.6 745.35 907.4935546875 744.4828125 908.2 743.65 905.791796875 742.157421875 904.8 740.55 903.8 738.85 904.15 736.9 904.5 734.8 906.15 734.05
L 905.15 738.15
Q 907.5740234375 739.7921875 910.2 740.85 910.8615234375 740.0794921875 911.4 739.9 911.1685546875 740.5521484375 910.9 741.1 913.02109375 741.891015625 915.25 742.3 915.4962890625 741.164453125 915.85 740 915.758203125 736.707421875 914.9 728.65 914.1 721.3 914.3 717 914.6 710.65 916.9 705.55 919.55 699.75 924.3 696.9 924.65 696.7 925.05 696.75 925.45 696.75 925.45 697.1 921.3 698.5 920.05 706.45 918.65 715.3 918.85 721.85 918.9404296875 725.1052734375 919.45 731.35 920.8958984375 728.73671875 923 725.3 927.0283203125 718.7541015625 931.1 713.05 931.1427734375 713.00390625 931.15 712.95 931.85 707.35 931.85 703.35 931.80078125 699.8498046875 931.2 696.1 929.958203125 688.4439453125 926.4 679.75
M 908.4 601
Q 908.4376953125 600.958984375 908.45 600.9 904.7541015625 599.8638671875 901.55 598.5 901.3771484375 599.4076171875 901.1 600.3 900.137109375 603.4130859375 898.4 606.2 897.4498046875 607.781640625 896.25 609.25 890.9 615.9 880.15 621.55 875.2259765625 624.171875 870.35 626.1 868.5396484375 643.802734375 865.6 665.5 863.75 679.4 859.7 707.2
L 825.65 940.65
Q 826.33046875 947.0953125 825.7 955.05 825.3 960.25 823.95 969.75
L 814.95 1034.5
Q 829.15 1043.9 846.2 1046.3
L 852.3 1040.55
Q 850.25 1010.65 849.55 979.65 847.6 883.8 860.75 792.3 874.35 697.2 903.85 609.9 905.1 606.3 906 604.5 906.6337890625 603.254296875 907.35 602.25 906.2359375 601.978125 904.95 601.65 906.4263671875 601.1130859375 908.4 601
M 910.25 744.8
Q 909.6837890625 744.5029296875 909.15 744.2 909.120703125 744.228515625 909.1 744.25 908.75 744.6 907.9 745.35 907.3279296875 745.81484375 906.95 746.15 907.1447265625 746.30625 907.35 746.45 907.69375 746.729296875 907.9 747 908.4982421875 746.3935546875 909 745.85 909.6857421875 745.1642578125 910.25 744.8
M 929.25 722.65
Q 929.4716796875 721.932421875 929.65 721.05 925.8974609375 726.9974609375 922.35 733.65 922.77265625 733.83515625 923.25 734.05 923.4 734.1173828125 923.55 734.15 927.3990234375 728.9431640625 929.25 722.65 Z"/>

<path fill="#B21E1E" stroke="none" d="
M 940 444.25
Q 939.92421875 444.2541015625 939.85 444.2 935.462109375 443.030859375 930.9 442.35 920.85 440.9 910.85 442.05 915.25 444.65 917.2 445.7 920.8 447.65 923.85 448.65 931.85 451.35 938.2 449.2
L 938.1 447.5
Q 936.3 448.65 934.3 447.95 935.55 446.55 937.55 446.5 938.607421875 446.449609375 939.3 446.8 939.97734375 447.2056640625 940.3 448 940.7 448.95 940.25 450.05 939.85 451.1 938.95 451.75 937.75 452.65 934.85 452.95 928.9 453.45 922.65 451.95 916.75 450.55 911.2 447.45 908.45 445.85 907.45 444.4 906.75 443.35 906.7 442.1 906.65 440.8 907.35 439.85 908.55 438.3 912.2 438.3 921.7 438.2 928.7 438.95 937.55 439.9 944.75 442.3 947.0037109375 443.026171875 948.55 443.95 950.1515625 444.901953125 951.05 446.05 951.348828125 446.4234375 951.4 446.85
L 951.4 446.9
Q 951.45 447.0564453125 951.45 447.2 951.4525390625 447.2330078125 951.45 447.25 951.529296875 447.288671875 951.6 447.3
L 951.6 447.3
Q 951.7115234375 447.326953125 951.8 447.35 955.2 448.2 956.75 450.45 958.5 452.9 957.75 456.25 957 459.45 954.5 461.5 950.65 464.7 942.9 465.1 935.773828125 465.4392578125 925.85 463.7 924.1076171875 463.3791015625 922.25 463 908.65 459.85 901.75 458.75 896.4 457.9 894.95 457.55 891.15 456.65 888.65 455 885.05 452.55 883.4 448.35 882.65 446.4 882.5 444.3 882.3314453125 441.728515625 882.95 439.2 882.9138671875 439.127734375 882.85 439
L 881.75 437.65
Q 877.3033203125 440.2068359375 875.2 444.75 874.55 446.05 874.35 447.25 873.7 450.55 875.75 453.15 876.25 453.85 877.3 454.85 878.55 456.05 878.95 456.55 879.75 457.6 880 458.7 880.25 459.95 879.7 460.9 877.902734375 461.2744140625 876.25 460.1 875.6900390625 459.7150390625 875.15 459.15 874.5525390625 458.527734375 873.9 457.45 873.302734375 456.356640625 872.65 454.8 871 450.95 871.3 448.55 871.45 447.3 872.35 445.45 875.2 439.75 880.3 436.6 880.533203125 436.46015625 880.75 436.35 880.94453125 436.2380859375 881.1 436.15 879.084765625 433.884765625 877.9 432.7 875.55 430.3 873.3 429.4 871.55 428.7 867.85 428.4
L 860.25 427.8
Q 859.6 429.3 859.85 431.3 860 432.65 860.65 434.9 863.35 443.55 867.1 451.85 866.9787109375 452.044140625 866.75 452.15 867.04453125 452.6701171875 867.35 453.3 868.5 455.6 869.8 456.55 870.35 456.95 871.6 457.65 872.130859375 457.9787109375 872.45 458.35 872.7763671875 458.7044921875 872.9 459.1
L 873.15 461.3
Q 873.375 461.3 873.6 461.35 874.0515625 461.440234375 875 462.05 875.0935546875 462.12734375 875.2 462.2 877.3 463.75 880.55 465.3 882.4 466.25 886.15 467.95 887.890625 468.8265625 889.35 469.75 893.726171875 472.501953125 895.6 475.65 896.75 477.7 897.15 478.25 898.35 479.65 901.4 480.85 909.6 483.65 917.8 481.6 918.15 481.5 921.1 480.7 923.05 480.1 924.4 479.9 925.9 479.65 930.35 479.65 934.1 479.65 936.25 479 937.4197265625 478.6724609375 939.3 477.7 936.7681640625 477.3462890625 934.75 476.75 933.35 476.3 930.45 475.1 927.6 473.9 926.1 473.45 921.7 472.2 915.3 472.6 907.95 473.45 904.3 473.65 900.5828125 473.854296875 897.9 473.3 897.29921875 473.2056640625 896.75 473.05 894.8 472.45 891.3 470.45
L 886.05 467.45
Q 885.2 466.9 885.1 466.5 885 466.15 885.3 465.85 885.6 465.55 885.9 465.75
L 894.15 468.1
Q 899.15 469.5 901.85 469.55 902.75 469.55 906.1 469.2 908.7 468.95 910.3 469.2 911.35 469.35 913.3 470 915.3 470.7 916.25 470.85 917.45 471.05 919.45 471.05 921.9 471 922.65 471.05 923.52578125 471.1 924.55 471.3 925.626171875 471.475390625 926.85 471.8 928.25 472.15 931.05 472.85 933.7 473.5 937.15 473.9 938.8 474.05 943.35 474.45
L 971.2 476.55
Q 973.4181640625 476.7400390625 975 477.05 978.4474609375 475.6396484375 979.5 474.3 981.7 471.4 979.6 465.75 976.95 458.55 971.75 452.55 967.825 448.075390625 961.4 443.55 959.6455078125 442.3361328125 957.7 441.1 954.976171875 439.332421875 952.3 437.8 952.2015625 437.746875 952.05 437.65 950.089453125 436.54453125 948.15 435.55 936.7166015625 429.7384765625 926.8 428.85 921.3 428.35 911.95 429.2 904.55 429.95 896.75 430.85 892.15 431.45 890.25 432.8 888.4 434.05 887.2 436.55 886.4 438.1 885.45 441.25 886.25 445.2 887.05 447.15 888.25 450.3 890.4 451.95 892.1 453.2 894.8 453.85 895.7 454.05 899.65 454.6 903.3 455.05 919.15 458.75 931.05 461.5 938.75 461.1 943.55 460.9 948.2 459.6 951.2 458.75 952.6 457.5 953.6 456.7 954.05 455.55 954.55 454.3 954.25 453.15 954.1091796875 452.5515625 953.7 452
L 953.7 451.95
Q 953.01171875 450.9033203125 951.55 449.95 947.65 447.4 942.85 447 943.7 446.7 945.55 446.7 946.594140625 446.71328125 947.5 446.75 943.8296875 445.32578125 940 444.25
M 936.05 432.3
L 936.35 432.55
Q 937 433.2 937.05 433.6 937.2 434.3 936.3 435.1 936.15 435.25 936.05 435.25
L 935.8 435.3 935.15 435.3 934.85 435.25
Q 934.8 435.25 934.65 435.1 933.95 434.5 933.9 433.95 933.8 433.25 934.6 432.55
L 934.9 432.3 936.05 432.3
M 900.9 442.05
Q 900.4 441.35 900.2 440.8
L 900.2 440.55 900.25 440.35 900.65 439.85 900.95 439.75
Q 901.45 439.55 901.8 439.55
L 902.15 439.6 902.35 439.75 902.7 440.1 902.85 440.3 902.9 440.6
Q 902.9 441.15 902.65 441.8
L 900.9 442.05
M 949.55 524.15
Q 945.4771484375 525.223046875 940.75 525.75 936 526.3 932.8 525.8 930 525.35 926.7 523.8 925.4736328125 523.2513671875 923.45 522.15
L 921.75 524.95
Q 925.15 525.55 932.05 526.35 935.1 526.7 936.3 526.75 938.65 526.9 940.55 526.7 943.44296875 526.4404296875 949.55 524.15
M 815.5 500.45
Q 814.2 499.7 811.6 498.85 804.55 496.55 797.25 495.9 798.25 497.4 800.35 499.45 803 502.05 803.7 502.85 807.1 506.9 808.8 513.25 809.95 517.5 810.7 524.95 811.35 530.9 812.25 533.4 813.2 536.05 814.9 538.15 815.45 538.9 816.7 540.25 817.95 541.6 818.5 542.3 819.3 543.3 820.5 545.3 821.8 547.35 822.5 548.25 823.106640625 549.0171875 823.9 549.85 821.9455078125 544.3650390625 820.65 538 819.42734375 532.026953125 818.6 524.1 818.2712890625 520.7173828125 818 516.95 817.2330078125 506.6658203125 816.65 501.25 816.1119140625 500.8150390625 815.5 500.45
M 885.85 513.6
Q 883.1962890625 511.07265625 881.15 509.75 881.2765625 510.1208984375 881.45 510.5 881.658203125 510.9609375 882 511.5 878.8302734375 510.2087890625 876.75 509.15 882.925 518.33046875 890.45 526.6 892.4615234375 528.8208984375 894.55 530.95 900.25 536.75 905.2 539.8 911.65 543.75 917.9 543.8 922.05 543.85 928.05 541.95 932.9166015625 540.375390625 938.55 537.7 946.759375 533.9080078125 956.6 527.85 958.3474609375 526.766796875 959.95 525.75 958.554296875 526.5064453125 956.55 527.4 952.25 529.35 949.45 530.3 945.45 531.7 942.05 532.05 940.1 532.25 936.15 532.15 914.95 531.25 896.1 521.35 892.8 519.55 891.05 518.25 889.7 517.25 885.85 513.6
M 985.15 485.9
Q 983.3353515625 487.018359375 981.4 487.85 980.934375 492.0263671875 979.15 496.45 978.369140625 498.3240234375 977.3 500.3 978.35078125 500.142578125 979.2 499.9 982.85 498.85 986.5 495.75 988.8 493.8 992.55 489.6
L 996.9 484.7
Q 999.9 481.45 1001.05 479.3 1002.1 477.45 1002.8 474.9 1003.201953125 473.4708984375 1003.7 470.85 1001.6337890625 471.1736328125 1000.05 472 998.05 473 996.05 475.3 993.85 478.1 992.7 479.45 989.5 483.25 985.15 485.9
M 885.25 415.25
Q 884.3873046875 415.7306640625 883.4 416.05 883.2658203125 415.4236328125 884.05 414.6 883.88984375 414.544921875 883.7 414.45 879.1865234375 413.3845703125 874.4 413.95 871.05 414.35 867 415.7 864.5 416.65 863.5 417.35 862.5 418.15 861.95 418.4 861.4015625 418.6244140625 860.95 418.55
L 859.1 425.6
Q 859.55546875 425.6982421875 860.1 425.9 864.1 427.3 868.25 427.2 869.1 427.2 870.7 427.2 872.1 427.2 873.1 427.45 874.45 427.75 877.05 429.45
L 882.2 432.85
Q 882.4796875 431.027734375 883.2 428.85 884.55 424.55 886.1 422.15 887.4318359375 420.0984375 890.2 417.45 890.1439453125 417.3751953125 890.05 417.3 887.884765625 416.6654296875 885.25 415.25
M 981.55 474.8
Q 981.5728515625 474.73515625 981.6 474.65 981.3677734375 474.9748046875 981.1 475.25 980.3 476.15 978.1 477.25 977.640625 477.4765625 977.15 477.7 978.9283203125 478.4025390625 979.95 479.55
L 981.55 474.8
M 998.2 441.15
L 997.75 442.9
Q 997.5 444.5 997.75 447.8 997.55 452.8 993.3 458.6 992.75 459.35 989.65 463.35 987.45 466.2 986.3 468.2 984.7 471 982.55 477.3
L 981.1 481.5
Q 981.45546875 482.5357421875 981.55 483.9 985.7173828125 481.92265625 988.3 479.75 988.9 479.25 993.3 474.7 996.3 471.6 998.85 470.4 1001 469.35 1003.95 469.05 1004.00703125 469.0435546875 1004.05 469 1005.2091796875 462.360546875 1004.75 458.55 1004.4 455.55 1003.15 452.1 1002.3 449.75 1000.5 445.9 999.3244140625 443.4236328125 998.2 441.15 Z"/>

<path fill="#911111" stroke="none" d="
M 896.4 479.45
Q 895.3 478.65 892.35 475.85 883.5 467.3 872.1 462.1 872.2 461.65 872.7 461.45 872.925 461.35 873.15 461.3
L 872.9 459.1
Q 871.1 459 868.7 457.3 865.55 455 864.7 454.6 863.45 454.05 860.9 453.75 858.25 453.4 857.1 453 856.25 460.2 856.85 467.2 857.1 469.4 857.2 469.85 857.5 471.8 858.35 473.65 858.9 474.9 860.2 476.95 861.6 479.25 862.1 480.2 862.75 481.5 863.85 484.2
L 869.4 496.25
Q 870.5 498.55 871.55 499.45 871.6669921875 499.55390625 871.8 499.65 873.86171875 500.5751953125 878.75 501.7 883.6 502.8 885.8 504.7 885.95 504.9 885.75 505.15 885.55 505.35 885.25 505.3 885 505.3 884.35 504.8 882.4 503.25 878.85 504 877 504.5 876.05 504.7 875.45234375 504.844921875 874.9 504.9 874.7513671875 505.384375 874.6 505.8 874.984765625 506.433203125 875.35 507.05 876.50625 506.2396484375 878.4 506.45 879.1416015625 506.551171875 880.75 507.15 880.759375 507.315625 880.75 507.45 884.183203125 508.2279296875 888.35 510.9 890.95 512.55 896.1 516.05 899.05 517.8 903.85 519.7 913.25 523.45 921.75 524.95
L 923.45 522.15
Q 922.347265625 521.530078125 921 520.75 921.5 520.7 922.4 520.8 935.6 522.15 945.85 519.95 958.55 517.25 966.7 509.5 968.1716796875 508.1416015625 971.05 504.75 968.3716796875 504.3095703125 965.9 503.15 965.7 502.3 966.65 501.7 967.4 501.2 968.55 501.05 970.35 500.9 973.9 500.7 974.1634765625 500.68359375 974.4 500.65 977.0755859375 497.155078125 978.05 494.8 978.3966796875 494.0048828125 978.65 493.05 978.6396484375 493.14375 978.6 493.2
L 978.05 490.9
Q 977.9224609375 490.10859375 977.9 489.2 976.9658203125 489.5109375 976 489.75 974.85 490.05 973.95 489.85 972.8 489.6 972.65 488.7 973.9 487.5 975.95 486.45 976.4005859375 486.2248046875 978.25 485.35 978.45390625 484.3353515625 978.75 483.2
L 979.25 481.7
Q 978.1482421875 480.42734375 975 480.25
L 971.2 480
Q 970.698828125 480.1533203125 970.2 480.3 970.3078125 480.122265625 970.45 479.95
L 948.3 478.45
Q 947.5623046875 478.7939453125 946.55 479.3 942.75 481.25 940.2 482.25 936.65 483.55 933.5 483.8 931.85 483.95 928.9 483.85 925.65 483.7 924.3 483.75 922.7 483.8 918.05 484.5 914.2 485.05 911.85 484.9 908.7 484.7 902.9 482.5 898.4 480.8 896.4 479.45
M 965.7 521.55
Q 963.8392578125 523.2490234375 962.8 524 966.03046875 522.0267578125 968.75 520.35 973.092578125 519.025 974.85 517.6 975.967578125 516.71953125 976.7 515.55 977.3189453125 515.180078125 977.85 514.85 977.8341796875 514.8453125 977.8 514.85 977.425390625 514.8904296875 977.05 514.9 977.2205078125 514.647265625 977.35 514.35 978.25 512.4 978.1 510.35
L 978.1 510.3
Q 980.6373046875 509.494921875 983.15 508.5 985.35 507.65 986.5 507.4 988.4 507 989.85 507.55 989.381640625 508.9236328125 988.4 510.1 988.9134765625 510.159765625 989.35 510.35 991.15 511.15 992.1 514.55 992.9765625 517.8810546875 993.25 521.75 998.0017578125 516.796484375 1000.1 513.85 1002.5 510.55 1005.4 504.55 1007 501.2 1008.05 498.65 1010.2 493.05 1011.3 490.3 1013.3 485.4 1015.35 482.35 1016.85 480.2 1018.25 478.95 1020.55 476.9 1023.85 475.75 1022.8 474.35 1020.75 473.5 1019.4 472.95 1016.9 472.4 1011.9 471.3 1009.35 470.95 1008.634375 470.858203125 1007.95 470.8 1007.8810546875 471.2962890625 1007.8 471.8 1006.95 477.3 1005.5 480.2 1004.2 482.85 1000.7 486.75
L 994 494.15
Q 990.95 497.35 989 499.1 986.1 501.6 983.25 503 982.2466796875 503.5017578125 981.2 503.85 978.08359375 505.0125 974.6 505.05
L 974.55 505.05
Q 974.009765625 505.9392578125 973.4 506.85 969.45 512.75 965.8 516.05 962.8197265625 518.6955078125 959 520.65 964.30078125 519.09375 967.95 519.55
L 965.7 521.55
M 876.9 412.45
Q 878.6208984375 412.494140625 880.7 412.75 875.953515625 410.2982421875 873.4 409.95 870.95 409.65 867.1 410.3 857.27734375 412.1263671875 848.7 416.95 849.1857421875 419.209375 845.7 421.8 842.3 424.35 841.1 426.4 840.65 427.15 839.75 429.45 836.45 439.3 837.1 446 837.160546875 446.5560546875 837.25 447.15 838.2560546875 448.4806640625 838.85 449.95 838.2056640625 449.268359375 837.5 448.6 838.4396484375 452.8388671875 840.85 458.3 845.75 469.05 852.65 478.15 852.703515625 478.222265625 852.75 478.3 858.08125 482.258984375 861.15 485.55 861.5857421875 486.0158203125 862 486.5
L 857.25 475.85
Q 855.35 471.7 854.9 469.3 854.6 467.5 854.6 465.6 854.75 461.85 854.75 459.95 854.8 456.6 854.35 454.35 853.8 452 853.65 450.85 853.4 448.85 854.2 447.55 855 446.25 856.65 445.8 858.2 445.4 859.85 445.75 861.537890625 446.13046875 862.85 447 859.919140625 441.11640625 857.8 434.9 856.1 430.05 856.95 427.25 857.35 426 858.1 425.7 858.4876953125 425.52109375 859.1 425.6
L 860.95 418.55
Q 860.55078125 418.451171875 860.25 418.05 863.7 415.2 868.05 413.75 872.4 412.3 876.9 412.45
M 873.55 509.8
Q 873.4923828125 509.6138671875 873.4 509.4 873.3046875 509.9052734375 873.2 510.35 872.85 511.8 872.3 514.75 870.8 523.25 870.7 527.6 870.55 531.3 871 536.2 871.7 545.3 873.35 551.8 876.1 563.25 883.65 575.8 886.8 581 889.55 583.75 893.962890625 588.162890625 901.65 591.15 901.7244140625 590.7294921875 901.8 590.3 901.8896484375 590.783203125 901.95 591.25 902.1263671875 591.3349609375 902.3 591.4 903.6 591.85 916.95 595.8 919.8044921875 596.6708984375 920.15 598.2 921.1359375 598.2978515625 921.9 598.25 921.6 597.3 921.9 596.3 922.25 595.3 923.05 594.7
L 923.1 598.6 928.05 599.8
Q 930.1173828125 599.2306640625 932.25 598.4 938.55 596 947.25 590.7 956.15 585.25 961.7 580.65 965.5 577.4 969.8 572.85 970.4892578125 572.106640625 971.35 571.15 969.8140625 571.16796875 968.3 570.9 968.9 570.5 970.85 570.05 971.7974609375 569.8626953125 972.7 569.6 974.6537109375 567.44375 977.25 564.45 980.3 560.85 981.7 559 984 555.9 985.25 553.05 986.4 550.4 987.1 546.9 987.55 544.65 988.1 540.5
L 989.15 532.65
Q 989.8 527.55 989.9 524.95 990 520.65 989.15 517.35 988.7 515.6 987.7 514.9 986.4 514.1 983.65 515.35 977.5 518.3 956.55 529.85 939.9 539.05 929 543.35 923.45 545.55 919.3 546.45 913.85 547.6 909.25 547 900.3 545.75 892.2 538 889.1 535 885.8 530.6 883.95 528.15 880.2 522.6 878.76875 520.5111328125 877.65 518.75 878.8693359375 523.8087890625 879.45 529.05 878.05 527.8 877.25 524.15 875.60234375 516.6546875 874 511.3 873.7689453125 510.55234375 873.55 509.8
M 968.95 550.85
Q 971.6 552.85 971.8 555.55 972.05 557.95 970.2 560.35 968 562.95 964.9 563.4 961.55 563.95 959.05 561.85 957.6 560.65 956.9 558.8 956.2 556.95 956.45 555.05 956.85 552.25 958.7 550.65 960.85 548.75 963.75 549.25
L 963.75 548.65
Q 966.95 549.45 968.95 550.85
M 940.75 561.35
L 941 559.9
Q 941.1 559.25 942.1 558.75 943.15 558.3 944.2 558.35
L 944.2 558.1
Q 945.25 558.4 945.65 558.9 945.95 559.35 946.05 560.1 946.15 560.8 946.1 561.15 946.05 561.5 945.65 562.1 945.3 562.65 944.85 562.9 944.3 563.15 943.45 563.05 941.8 562.8 940.95 561.75 940.75 561.55 940.75 561.35
M 824.05 475.9
Q 820.05 476.7 812.75 478.95 816.9693359375 489.9962890625 819 502 819.31171875 502.380078125 819.55 502.75 819.95 503.35 820.05 504 820.15 504.75 819.75 505.2 819.5900390625 504.8515625 819.4 504.5 819.8564453125 507.8609375 821.5 520.55 822.8 530.9 824.85 537.5 826.7 543.75 830.5 551.15 836.7 563.35 844.1 570 851.3 576.5 861.35 579.9 870.75 583.05 881.25 583.05 883.260546875 583.05 884.15 583.1 883.4244140625 581.910546875 882.45 580.3 878.85 574.25 877.4 571.45 874.75 566.45 873.2 562.2 872.15 559.45 871.05 554.8 868.4 543.65 868.5 532.1 868.6 520.55 871.4 509.45 871.8279296875 507.71875 872.45 506.6 872.390625 506.3435546875 872.3 506.1 872.085546875 505.5220703125 871.85 504.95 869.395703125 504.4830078125 867.05 502.45 865 500.7 862.35 496.95
L 859.05 492.25
Q 854.7236328125 486.093359375 851.8 481.7 850.4771484375 480.9380859375 849.05 480.2 841.55 476.2 835.55 475.4 830.4 474.7 824.05 475.9
M 979.6 428.7
Q 980.05 431.35 980.1 432.9 980.1875 435.264453125 979.55 438.55 979.592578125 438.574609375 979.6 438.6 980.8 442.55 979.9 445 979.65 445.75 978.25 447.9 977.15 449.65 977.05 450.85 976.95 452.25 976.3 452.05 976.221875 451.464453125 976.25 450.7 976.0263671875 451.2537109375 975.8 451.8 975.5837890625 452.2888671875 975.35 452.65 979.4359375 458.1265625 981.75 464.6 982.9 467.65 982.9 470.25 982.9 470.8162109375 982.85 471.35 983.3869140625 469.96953125 983.9 468.85 985.05 466.15 986.85 463.6
L 989.35 460.2
Q 990.55 458.6 991.05 457.75
L 993.4 452.85
Q 995.65 447.75 995.65 444.65 995.6 443.4 995.6 442.75 995.6 441.6 995.85 440.85 996.2 440.05 996.4 439.7 996.7 439 996.7 438.5 996.7 438.362890625 996.65 438.2 994.119921875 433.3119140625 991.8 429.6 986.45 421.1 980.3 415.35 978.65 419.7 978.95 424.45 979.05 425.65 979.6 428.7
M 937.1 401.2
L 936.95 401.15
Q 936.919921875 401.345703125 936.85 401.5 936.508984375 402.562890625 935.15 403.2 934.25 403.55 932.35 403.65 924.8 404.1 917 405.4 914.6 405.75 912.8 406.4 911.3 407 908.8 408.65 906.15 410.4 904.8 411 903.95 411.4 901.15 412.25 898.85 413 897.65 413.75 896.3822265625 414.5951171875 894.6 416.55 895.2361328125 417.0861328125 895.75 417.6 897.05 419 897.15 420.1 897.25 420.85 896.75 421.5 896.25 422.15 895.5 422.1 895 422.1 894.15 421.45 893.6947265625 421.0921875 892.25 419.6 887.208984375 426.61796875 885.55 433.75 885.873046875 433.376171875 886.2 433 887.9 431.05 889.7 430.1 891.1 429.3 893.1 428.8 894.1 428.55 896.7 428.05 907.3 426.25 912.8 425.75 921.75 424.95 928.9 426 943.35 428.05 960.4 439.3 966.1 443.05 969.85 446.5 972.4267578125 448.9353515625 974.55 451.6 975.5470703125 449.7380859375 976.45 447 976.6740234375 446.29296875 976.85 445.6 977.028515625 444.3353515625 977 443.65 976.95 442.3 976 439.1 975.15 436.55 974.65 435.5 973.8 433.8 972.1 431.7 968.35 426.75 965.6 424.4 962.9 422.1 957.5 419.05 951.45 415.75 946.45 413.4 942.45 411.55 940.95 410.05 939.7 408.75 938.05 405.25 936.9 403 937 401.6 937.003125 401.5880859375 937 401.55 937.059375 401.38046875 937.1 401.2
M 946.6 419.3
Q 947.65 419.2 948.5 419.65 949.55 420.1 949.75 421.05 949.95 421.75 949.7 422.65 949.45 423.4 949 423.8 948.7 424.05 947.95 424.25 946.75 424.45 945.4 423.95 944.8 423.6 944.7 423.45 944.55 423.25 944.3 422.55 944.1 421.75 944.25 421.15 944.4 420.35 945.1 419.9 945.8 419.4 946.6 419.55
L 946.6 419.3
M 937.85 409.8
L 938.1 409.85 938.2 409.95
Q 938.65 410.6 938.6 411.05
L 938.55 411.3 938.35 411.55
Q 938.05 411.9 937.75 412.05 937.4 412.15 936.9 411.95
L 935.9 411.35
Q 935.8 411.25 935.75 410.95 935.65 410.65 935.6 410.55 936.1 409.95 936.5 409.85
L 937.85 409.8
M 916.65 413.9
Q 917.15 413.4 918.35 413.1
L 923.2 411.9
Q 925.65 412.8 926.4 413.35 928.1 414.45 928.3 416.15 928.4 417.2 927.75 418.8 926.95 420.85 926 421.65 924.95 422.55 923.3 422.75 922.3 422.9 920.25 422.8 918.45 422.6 917.9 422.15 917.45 421.85 916.8 420.65 916.05 419.25 915.9 418.55 915.75 417.7 916.05 415.55 916.25 414.35 916.65 413.9
M 837.15 452.75
Q 835.9724609375 449.4525390625 835.4 446.75 829.5669921875 442.004296875 821.8 439.9 811.65 437.15 802 440 804.05 440.5 805.7 441.85 807.35 443.25 808.15 445.15 808.6 446.25 809 448.2 809.5 450.6 809.7 451.3 811.3 456.5 817.9 461.2 822.6 464.65 827.55 466.9 827.7 466.75 827.85 467.05 827.95 467.35 827.7 467.35
L 827.7 468.4
Q 834.158984375 468.2326171875 839.7 470.35 842.9134765625 471.546484375 847.2 474.35 841.2154296875 464.0115234375 837.15 452.75
M 1018.45 527.7
Q 1022.7 525.8 1027.2 525.85 1023.1 518.9 1016.65 515.7 1013.3 514.05 1009.55 513.65 1005.75 513.3 1002.25 514.35
L 1001.25 513.7
Q 997.7349609375 519.1099609375 993.8 522.85 993.590625 523.0361328125 993.35 523.15 993.4626953125 525.2978515625 993.4 527.6 993.25 532.25 992.1 540.8 991.6 545.2 991.05 547.8 990.3 551.6 989.1 554.5 987.7 557.85 985.05 561.45 983.85390625 563.0810546875 981.7 565.6 984.05703125 564.0779296875 986.15 562.05 987.7 560.6 990.65 557.1 993.45 553.75 995.15 552.2 995.9 551.5 998.45 549.4 1000.55 547.7 1001.65 546.5 1003.6 544.4 1006.45 539.75 1009.4 534.9 1011.15 532.95 1014.2 529.6 1018.45 527.7 Z"/>
</g>

<g id="Layer10_0_FILL">
<path fill="#FEDF2F" stroke="none" d="
M 990.8 425.65
L 989.7 425.65
Q 989.45 427.8 988.3 429.65 986.75 431.9 987.9 432.55 988.3 433.15 989.15 433.1 989.95 433.05 990.55 432.55 990.85 432.3 991.6 431.45 992.25 430.8 992.75 430.5 993.4 430.15 994.9 430.05
L 999.05 429.75
Q 1002.3 429.45 1003.75 430.55 1004.8 431.4 1005.2 433.1 1005.45 434.2 1005.45 436.2 1005.45 438.75 1004.65 439.85 1004.25 440.35 1003.45 440.9 1002.55 441.45 1002.1 441.75 1000.65 442.9 999.95 443.45 998.65 444.4 997.6 444.65 997 444.75 995.9 444.7 994.65 444.65 994.2 444.7 993.25 444.8 992.55 445.3 991.8 445.85 991.75 446.65
L 999.3 448.1
Q 995.95 450.3 992 450.85 990.85 450.95 990.4 451.25 989.4 451.85 989.8 452.65
L 996.3 453.15
Q 996.5 452.55 997.25 452.15 997.45 452 998.65 451.55 1001.1 450.7 1002.75 448.6
L 1001.25 445.55
Q 1003.4 444.2 1004.35 443.35 1005.95 442 1006.7 440.5 1008.2 437.45 1006.85 433.2 1005.65 429.5 1003.15 428.15 1001.6 427.35 998.25 427.35
L 991.8 427.35
Q 990.8 426.75 990.8 425.65
M 942.15 444.9
Q 946.7 439.75 949.75 437.95 952.1 436.55 954.6 436.15 957.35 435.8 959.6 436.75 963.75 438.5 966.25 444.9 970.05 437.3 973.5 430.95 974.9 428.3 976.1 426.9 977.75 424.85 979.75 424.15 981.45 423.5 983.75 423.8 985.2 423.95 987.8 424.7
L 986.8 421.65
Q 985.65 421.85 982.45 421.35 979.65 420.95 978.2 421.6 976.6 422.3 974.8 425.1 970.7 431.4 967 438 966.1 438.65 964.9 437.8 964.2 437.35 962.9 435.95 961 433.85 957.85 433.3 954.9 432.75 951.95 433.75 947.3 435.4 942.7 440.8 941.8 441.85 941.55 443 941.2 444.35 942.15 444.9
M 760.4 548.95
Q 760.7 548.7 760.8 548.35 760.95 547.95 760.75 547.65 755.5 546.9 750.25 546.6 750.45 547.1 749.1 547.6 747.1 548.2 746.8 551.1 746.75 551.6 746.75 553.35 746.75 554.7 746.55 555.55 746.5 555.9 746.3 556.65 746.15 557.3 746.25 557.75 746.55 559.25 748.6 559.85 748.9 559.95 750.2 560.2 751.15 560.4 751.75 560.65 752.05 560.75 752.9 561.25 753.6 561.6 754.05 561.7 755.15 561.95 757.2 561.15 757.75 558.95 756.3 557.15 755 557.9 752.95 556.9 751.95 556.35 751.4 556.1 750.5 555.7 749.75 555.65 749.55 553.85 749.95 552.6 750.5 550.85 751.85 550.25 752.35 550.05 753.45 549.95
L 759 549.35
Q 760.1 549.15 760.4 548.95
M 823.05 527.05
Q 818.25 521.8 811.95 521.9 804.3 522.1 797.1 530.05 792.9 534.5 792.5 538.4 787.95 533.5 780.55 533.95 773.1 534.4 769.2 539.8 767.35 542.35 766.3 546.1 765.65 548.4 764.9 553 765.9 553.6 767.15 553.5 768.4 553.4 769.35 552.7
L 767.6 549.65
Q 769.1 545.9 770.1 544 771.65 540.95 773.6 539.05 775.9 536.8 778.9 536.05 782.15 535.25 784.8 536.6 785.6 537.05 789.7 540.65 792.5 543.15 794.85 542.8 794.95 538 797.5 533.65 800 529.3 804.15 526.85 807.9 524.8 812.45 525.4 817 526 820.15 528.95 823.3 531.85 824.35 536.3 825.35 540.75 823.85 544.8 825.05 545.15 826.55 544.4 827.3 544.05 829.1 542.75 832.4 540.45 836.6 539.85 840.8 539.3 844.6 540.7 848.4 542.1 851.25 545.2 854.1 548.3 855.15 552.2 853.55 552.3 852.4 553.75 851.3 555.15 851.6 556.75 853.95 556.9 855.65 554.8 857.3 552.75 857.1 550.3 856.75 546.05 852.1 542.4 847.05 538.45 840.5 537.45 833.9 536.5 827.95 538.8 827.7 532.2 823.05 527.05
M 1115.3 472.6
Q 1115.25 473.15 1115.75 474.05
L 1120.15 482.65
Q 1121.5 485.3 1122.1 486.8 1122.95 489.15 1122.95 491.2 1123 491.7 1122.95 492.7 1123 493.6 1123.2 494.15 1123.35 494.5 1123.9 495.4 1124.35 496.1 1124.45 496.6 1124.7 497.6 1124.05 498.6 1123.45 499.5 1122.45 500.05 1121.75 500.45 1120.45 500.85 1119 501.3 1118.45 501.55 1115.85 502.6 1115.8 504.65
L 1118.3 505.15 1118.8 504
Q 1122.3 504.65 1124.85 502.9 1126.2 502 1127 500.65 1127.8 499.2 1127.8 497.65 1127.8 496.35 1126.75 493.5
L 1122.6 483.1
Q 1119.75 475.8 1117.2 472.3 1116.7 471.6 1116.25 471.6 1115.85 471.55 1115.55 471.9 1115.3 472.2 1115.3 472.6
M 1106.75 506.75
Q 1109.2 509.25 1112.15 515.25 1115.1 521.3 1116.1 525.25 1117.5 531 1115.95 535.5 1114.65 539.4 1110.85 542.9 1108.25 545.3 1103.35 548.3 1095.2 553.35 1089.1 555.6 1080.9 558.65 1073.75 557.9 1074.25 559.75 1076.5 560.6 1078.25 561.3 1080.75 561.25 1088.6 561.1 1096.15 558.65 1103.7 556.2 1110.15 551.75 1118.6 545.8 1121 538.8 1124.05 530.1 1118.8 518.85 1115.6 511.9 1110.5 506.85 1105 501.35 1098.3 499.05 1097.5 499.7 1097.35 500.8 1097.2 501.85 1097.8 502.65 1102.6 502.45 1106.75 506.75
M 1042.5 588.35
Q 1043.1 589.5 1045.15 590.3 1050.65 592.3 1056.6 590.5 1062.55 588.7 1066 584 1068.7 580.35 1070.55 573.5 1071.3 570.8 1071.4 569 1071.6 566.5 1070.75 564.65
L 1069.75 564.65
Q 1069.3 565.55 1069.3 567.15 1069.3 569.3 1069.2 569.8 1068.95 571.65 1067.05 574.4 1064 579.25 1061.55 581.2 1058.6 583.55 1054.15 584.45 1050.75 585.15 1045.8 585.1
L 1045.3 584.15
Q 1046.45 583.5 1046.9 582.15 1047.35 580.75 1046.8 579.55 1044.25 579.95 1042.75 584.65 1041.9 587.15 1042.5 588.35
M 772.75 406.65
Q 773.6 405.15 772.75 403.65
L 762.25 403.15
Q 762.1 403.85 761.2 404.2 760.05 404.45 759.5 404.6 758.35 404.95 757.2 406.15 756 407.65 755.35 408.35 753.7 410.1 753.45 411 753.15 411.8 753.05 413.55 752.9 414.15 752.35 415.1 751.65 416.2 751.5 416.6 749.9 420.4 754.15 425.7 755.15 427 756.1 427.4 757.8 428 760.7 426.05 762.4 424.85 762.85 423.95 763.2 423.25 763.05 422.5 762.9 421.65 762.3 421.3 758.65 423 754.8 422.7 753.9 422.6 753.6 422.3 753.15 421.9 753.15 420.65 753.25 418.25 753.4 417.55 753.6 416.7 754.2 415.1 755.05 413.25 756.25 411.2 757.7 409.1 758.95 408.1 761.2 406.35 764.75 405.85 767.1 405.55 771.2 405.8
L 771.75 406.65 772.75 406.65
M 799.65 365.9
Q 802.45 365.85 803.95 366 806.3 366.3 808 367.15 808.8 367.55 810.3 368.5 811.65 369.2 812.75 369.15 813.3 368.4 812.95 367.3 812.6 366.35 811.75 365.55 808.4 362.4 802 362.2 800.25 362.2 796.7 362.45 793.2 362.75 791.4 362.7 788.1 362.6 786.45 362.65 783.6 362.8 781.8 363.8 780.35 364.55 778.4 366.7 775.05 370.15 774.05 372.5 773 374.95 773 380.05 773.1 386.85 774.85 390.25 775.8 392.05 777.55 393.9 778.5 394.85 780.95 397.05 784.85 400.3 787.25 399.25 787.65 398.4 787.3 397.35 787 396.45 786.25 395.75 785.55 395.1 782.85 393.85 778.8 392 776.95 389.15 775.05 386.25 774.95 380.2 774.95 374.7 776.7 372.1 778.9 368.75 784.6 367.35 789.5 366.1 799.65 365.9
M 1044.5 393.35
Q 1044.85 393.75 1045.9 394.75 1048.4 397.25 1049.95 399.85 1050.75 401.15 1050.65 401.95 1050.6 402.7 1049.7 403.8 1046.65 407.5 1042.8 410.6
L 1043.3 411.6
Q 1045.25 412.05 1047.8 409.4
L 1051.55 405.65
Q 1052.65 404.5 1053.1 403.8 1053.85 402.65 1053.85 401.6 1053.85 400.15 1052 397.9
L 1048.3 393.45
Q 1046.15 390.75 1044.3 391.2 1044.45 391.4 1044.2 391.5 1043.95 391.65 1043.7 391.6 1043.8 392.45 1044.5 393.35
M 1049.5 363.7
Q 1045.65 355.05 1039.75 352.1 1037.2 353.35 1034.75 354.95 1033.5 355.8 1033.8 356.6 1035 357.55 1038.1 357.55 1041.3 357.6 1042.5 358.35 1043.85 359.2 1045.05 361.9
L 1047.05 366.15
Q 1048.65 369.55 1048.9 371.4 1049.35 374.65 1047.55 376.65 1046.6 377.65 1044.1 378.65 1037.65 381 1030.9 381.3 1028.9 381.4 1028.2 381.9 1027.6 382.35 1027.45 383.05 1027.3 383.85 1027.8 384.3
L 1036.95 383.7
Q 1040.45 383.45 1041.9 383.25 1044.65 382.85 1046.65 382.05 1049.75 380.8 1050.95 378.85 1052 377.15 1052.1 374.3 1052.15 369.65 1049.5 363.7
M 1011.65 334.7
Q 1011.45 331.75 1009.35 327.9 1004.55 318.95 996.3 312.55 988.05 306.15 978.2 303.75 968.35 301.35 958.1 303.25 947.8 305.15 939.5 310.9 940.4 303.4 935.3 296.15 930.75 289.7 923.1 285.45 910.85 278.65 896.3 278.8 881.7 278.95 869.65 286 857.75 292.95 852.5 303.7 853.4 307.15 852.1 310.25 850 306.85 845.6 306.1 841.25 305.35 837.7 307.5 834.35 309.5 832.4 313.4 830.65 317.05 830.55 321.3 830.45 326.45 833 330.85 835.7 335.5 840.25 337.05 841.2 337.35 842.15 336.9 843.15 336.45 842.7 335.7 839.4 334.75 837.05 332 834.65 329.3 834.1 325.85 833.55 322.45 834.9 319.1 836.25 315.75 838.95 313.6 841.45 311.6 844.1 311.45 846.8 311.3 849.55 313.25 851.45 314.55 854.05 317.4 855.3 316 855.65 313.35 855.8 310.2 855.95 308.65 856.8 300.8 865.45 293.55 876.45 284.4 891.25 282.3 906.05 280.15 919.1 285.85 930.1 290.6 934.75 298.75 937.4 303.4 937.5 308.7 937.55 314.25 934.7 318.35 937 318.4 939.35 316.3 940.75 315.1 943.25 312.3 948 307.75 956.7 306.15 971.15 303.55 985.25 310 999.4 316.45 1006.85 329.1 1009.1 333 1009 335.8 1008.9 338.85 1006.25 341.65 1004.4 343.6 1000.7 345.95 1005.15 346.15 1008.55 342.65 1011.95 339.15 1011.65 334.7 Z"/>
</g>

<g id="Symbol_6_0_Layer0_0_FILL">
<path fill="#FFFFCC" stroke="none" d="
M -82.05 138.7
Q -83.45 140.25 -83.6 142.05 -83.75 145.15 -80.6 147.9 -78.25 149.9 -75.75 150.4 -74.6 150.6 -72.3 150.5 -70 150.35 -68.9 150.55 -68.55 150.6 -66.5 151.15 -65.05 151.55 -64.1 151.45 -62.9 151.35 -60.65 150.1 -58.5 148.95 -57.25 148.9 -56.5 147.45 -57.45 145.75 -57.9 145 -59.7 143.3 -62 141.35 -63.2 140.6 -65.3 139.25 -67.25 138.9 -68.2 138.8 -68.7 138.7 -69.55 138.6 -70.1 138.35 -70.8 138.05 -71.2 137.35 -71.6 136.65 -71.3 136 -76.3 135.7 -78.85 136.6 -80.75 137.25 -82.05 138.7
M -129.3 84.15
Q -131.8 85.95 -131.75 88.45 -136.75 89.1 -139.15 89.8 -143.2 90.9 -145.7 93.05 -148.6 95.65 -149 99.65 -149.45 103.85 -146.55 106 -144.65 107.45 -141.55 107.5 -140.15 107.5 -136 107 -122.6 105.25 -109.85 110 -111.25 112.9 -109.65 116.2 -108.15 119.4 -105.05 120.8 -99.65 123.25 -92.25 120.05 -87.4 117.95 -83.55 114.25 -79.65 110.6 -77.3 105.9
L -87.3 100.9
Q -87.75 99.25 -86.25 95.65 -84.8 92.3 -85.65 90.65 -86.3 89.35 -88.7 88.15 -107.9 78.7 -124.1 82 -127.2 82.65 -129.3 84.15
M 108.75 -126.95
Q 108.45 -128.55 107.35 -129.9 106.3 -131.25 104.75 -131.85 103.1 -132.5 100.7 -132.45 97.85 -132.2 96.45 -132.15 94.5 -132.05 89 -132.5 84.35 -132.9 81.6 -132.45 78.55 -131.95 76.7 -130.3 75.4 -129.15 74.8 -127.45 74.6 -126.85 74.5 -126.2 73.75 -128.1 72.35 -129.75 70.25 -132.25 64.95 -135.5 60.85 -138.1 58.65 -139.25 55.05 -141.15 51.9 -141.9 48.05 -142.85 40.85 -142.65 33.05 -142.45 29.75 -143 26.7 -143.5 21.8 -145.25 15.95 -147.3 13.9 -147.8 7.2 -149.4 0.45 -148.6 -7.45 -147.6 -12.5 -143.4 -16.65 -139.9 -18.5 -134.35 -20.25 -129 -19.25 -123.45 -18.85 -121.05 -17.95 -118.8 -24.7 -119.2 -30.25 -121.15 -30.1 -125.45 -31.9 -129.6 -29.75 -130 -25.3 -130.9 -21.65 -131.95 -20.05 -134.25 -17.45 -138.05 -20.35 -144.9 -22.05 -148.8 -24.25 -150.2 -26.6 -151.75 -30.35 -151.35 -31.25 -151.25 -36.9 -150 -43.6 -148.4 -44.05 -148.25 -47.95 -146.95 -49.7 -144.4 -50.35 -143.25 -50.7 -142.7 -51.25 -141.65 -51.85 -141.15 -52.75 -140.3 -54.45 -139.9 -56.45 -139.6 -57.45 -139.4 -61.8 -138.6 -63.85 -135.55 -65.5 -133.15 -65.15 -129.9 -64.75 -126.8 -62.75 -124.45 -65.5 -121.55 -65.25 -117.2 -65.05 -112.9 -62.1 -110.3 -60.75 -109.1 -58.65 -108.2 -57.35 -107.65 -54.8 -106.85 -47.35 -104.7 -39.9 -103.25 -46.2 -94.85 -56 -90.6 -55.4 -92.6 -56.95 -94.5 -58.4 -96.3 -60.6 -96.45 -62.65 -96.6 -64.55 -95.3 -66.35 -94.05 -67.25 -92.05 -68.8 -88.65 -67.75 -83.65 -68.3 -83.5 -75.55 -82.65 -80.25 -82.15 -82.65 -80.2 -85.3 -78.1 -86.25 -74 -87.35 -73.1 -88.3 -72.15 -94.15 -66.3 -95.75 -59.1 -96 -57.95 -96.5 -55.6 -96.65 -54.9 -96.85 -54.3 -97.4 -54.1 -98.1 -53.8
L -106.3 -50.1
Q -106.5 -48.7 -104.1 -47.9 -103.95 -47.85 -103.75 -47.75 -104.6 -47.35 -105.55 -46.9 -111.4 -44.2 -112.5 -41.05 -113.55 -38.15 -111.75 -35.1 -111 -33.85 -109.95 -32.85 -110 -32.85 -110.05 -32.85 -111.9 -32.2 -114.45 -29.75 -116.7 -27.7 -117.75 -26.3 -118.55 -25.2 -120.05 -22.1 -121.95 -17.8 -122.2 -15.5 -122.65 -11.45 -120.25 -9.05 -119 -7.8 -116.55 -7 -110.95 -4.95 -107.35 -7.15
L -104.8 -4.1 -103.3 -4.6
Q -103.2 -5.45 -103.6 -6.3 -104 -7.1 -104.75 -7.55 -104.15 -10.05 -105.15 -12.6 -106.15 -15.15 -108.3 -16.55 -108.15 -18.7 -106.6 -22.05 -104.85 -25.9 -104.5 -27.5 -104.15 -28.95 -104.35 -30.1 -102.7 -29.75 -100.8 -29.7 -98.5 -29.65 -94.35 -30.1
L -100.2 -36
Q -99.3 -37.8 -96.9 -38.4 -94.9 -38.95 -92.45 -38.55 -88.25 -37.95 -88 -37.95 -85.5 -37.8 -83.85 -38.75 -82 -39.75 -81.05 -42.1 -80.25 -44.1 -80.3 -46.65 -80.3 -47.35 -80.65 -51.2 -78.75 -50.45 -76.35 -50.5 -72.15 -50.6 -68.65 -53.05 -65.7 -55.1 -63.05 -58.75 -61.45 -61 -58.8 -65.75 -57.6 -63.25 -54.6 -62.25 -51.7 -61.3 -49.1 -62.45 -46.55 -63.6 -45.1 -66.3 -43.7 -68.95 -44.05 -71.8 -44.2 -72.9 -44.55 -73.95 -37.5 -74.4 -31.85 -72.7 -32.05 -71.85 -32.7 -70.5 -32.95 -69.75 -32.7 -69 -32.45 -68.25 -31.75 -68.1 -31.15 -68.6 -30.8 -69.9 -30.35 -71.35 -30 -71.8 -29.9 -71.9 -29.8 -72 -29.75 -72 -29.65 -71.95 -26.9 -70.9 -25.85 -70.7 -23.65 -70.3 -22.3 -71.25 -21.1 -72.1 -20.85 -73.45
L -9.7 -73.8
Q -6.8 -73.9 -5.3 -74.2 -2.9 -74.65 -1.35 -75.9 0.35 -77.2 0.95 -79.5 1.55 -81.7 0.9 -83.85 0.25 -85.9 -1.5 -87.5 -3.15 -89.05 -5.3 -89.65 -3.95 -89.85 -2.3 -91.05 -2.4 -90.9 -2.45 -90.75 14.4 -86.6 24.35 -84.25 26.05 -83.85 27.5 -83.6 27.05 -83.2 26.65 -82.7 25.25 -81 25.45 -79.1 21.3 -80.1 18.6 -79.45 16.85 -79 15.5 -77.9 14.1 -76.75 13.65 -75.15 12.9 -72.45 14.9 -69.75 16.6 -67.4 19.65 -65.85 22.45 -64.45 26.15 -63.35 28.55 -62.6 32.95 -61.6 44.3 -59 48.75 -58.3 52.5 -57.7 54.9 -57.75 58.35 -57.8 60.8 -59.05 63.65 -60.5 64.9 -63.55 66.25 -66.75 64.65 -69.25 63.35 -71.25 60.3 -72.25 56.55 -73.1 54.75 -73.55 49.05 -74.8 44 -78.5 39.9 -81.9 37.6 -83.25 37.1 -83.55 36.6 -83.8 38.2 -84.35 39.45 -85.4 41.95 -87.5 42.5 -91.15 43.05 -94.65 41.6 -97.85 40.15 -101 37.2 -103.45 38.5 -105.95 38.2 -108.6 38.05 -110 37.45 -111.35 39.2 -110.4 39.75 -110.15 44.95 -107.75 57.05 -106.55 68.8 -105.35 74.2 -102.55 71.25 -102.55 68.8 -100.5 66.3 -98.45 65.75 -95.55 65.65 -95 65.45 -93.85 65.25 -92.9 64.85 -92.35 63.95 -91.1 61.95 -91.05 60.65 -91.05 58.4 -91.65 54.55 -92.55 50.7 -92.65 49.8 -92.65 49.1 -92.1 48.3 -91.55 48.8 -90.95 54.4 -90.9 57.7 -90 62.45 -88.75 64.6 -85.45 65.1 -84.65 66.1 -82.4 66.95 -80.4 67.7 -79.45 69 -77.85 71.05 -77.1 73.1 -76.4 75.1 -76.9 75.65 -77 76.35 -77.3 75.7 -76.45 75.4 -75.6 74.4 -73.05 75.85 -70.1 77.1 -67.5 79.7 -65.6 81.1 -64.6 84.75 -62.65 88.1 -60.9 89.75 -59.6
L 89.75 -56.6
Q 88.4 -55.55 84.95 -54.45 81.6 -53.35 80.2 -52.15 77.85 -50.15 77.5 -46.4 77.2 -43.35 78.25 -39.6 75.95 -39.1 72 -39.05 67.25 -39 65.75 -38.85 62.3 -38.45 59.7 -36.9 56.7 -35.15 55.75 -32.4 55.15 -30.65 55.45 -28.65 55.2 -28.9 54.95 -29.15 51.5 -32.4 44.3 -33.9 36.25 -35.55 31.05 -34.05 28.4 -33.25 19.7 -27.85 12.9 -23.7 8.1 -24.25 5.6 -24.65 4.4 -24.75 3.8 -24.8 3.3 -24.7 3.55 -24.9 3.75 -25.1
L 8.85 -29.5
Q 7.65 -30.6 4.5 -29.85 1.15 -29.05 -0.15 -29.8 -0.7 -30.1 -1.3 -30.8 -1.9 -31.65 -2.25 -32.05 -3.8 -33.8 -6.55 -34.65 -8.35 -35.2 -11.75 -35.6 -22.25 -36.8 -27.55 -36.4 -32.2 -36 -34.5 -34.3 -36.05 -33.15 -36.75 -31.4 -37.55 -29.55 -36.95 -27.9 -36.2 -25.95 -33.65 -24.6 -32.15 -23.85 -29 -22.55 -28.2 -22.15 -25.9 -20.65 -23.95 -19.45 -22.7 -18.95 -20.7 -18.1 -17.95 -18 -16.2 -17.9 -13.05 -18.15 -6.1 -18.75 -2.5 -20.55 -1.3 -21.15 0.25 -22.25 0.05 -21.35 0.35 -20.2 0.85 -18.2 2.45 -16.55
L 5.35 -13.5
Q 6.85 -11.6 6.85 -9.85 3.9 -7.25 2.45 -3.75 0.85 0 1.7 3.5 2.6 7.25 6.15 9.4 9.8 11.55 13.15 10 13.9 9.7 15.7 8.45 17.25 7.4 18.3 7.1 19.9 6.65 22.2 7.25 23.5 7.6 26.15 8.35 30.7 9.35 34.25 6.95 36.05 5.75 37 3.8 38 1.75 37.75 -0.3 37.05 -6.6 26.3 -9.55 21.25 -10.9 18.75 -12.25 14.8 -14.35 13.65 -17.65 18.95 -19.55 23.6 -21.45 23.8 -19.25 25.6 -17.45 27.25 -15.8 29.6 -15.1 31.45 -14.55 34.15 -14.4 35.7 -14.3 38.75 -14.25 40.5 -14.1 43.9 -13.7 46.95 -13.4 49 -13.6 51.75 -13.85 53.95 -15 56.45 -16.35 57.55 -18.5 58.6 -20.65 58.2 -23.25 58.75 -22.65 59.4 -22.1 59.3 -21.4 59.45 -20.65 59.8 -18.9 61.15 -17.9 62.3 -17.05 64.4 -16.6 68.75 -15.6 73.1 -15.25 75.6 -15.05 76.85 -15.6
L 76.9 -15.6
Q 83.8 -13.95 87.25 -11.8 88.25 -11.15 90.2 -9.8 91.95 -8.65 93.35 -8.25 98.2 -6.75 104.2 -10.85 105.1 -11.45 108.8 -14.35 111.6 -16.55 113.6 -17.55 114.85 -18.15 118.1 -19.35 121 -20.45 122.55 -21.35 123.8 -22.1 124.95 -23.05 124.95 -22.75 125.05 -22.4 126.1 -18.15 129.35 -14.35 132.6 -10.55 135.75 -9.45 137.75 -8.7 139.8 -8.95 141.95 -9.25 143.4 -10.55 144.75 -11.75 145.3 -13.75 145.8 -15.6 145.5 -17.6 145.05 -20.55 142.5 -24.6 140.8 -27.35 140.95 -28.85 141.1 -30.45 142.8 -31.95 143.8 -32.8 145.9 -34.4 147.6 -35.85 148.45 -37.9 149.35 -40.05 149 -42.15 148.7 -44.35 147.15 -46.05 145.55 -47.75 143.4 -48.1 141.4 -48.4 138.55 -47.35 135.4 -45.95 133.8 -45.5 131.35 -44.75 127.95 -45 127.75 -45.35 127.55 -45.65 126.7 -47.05 126.5 -47.4 126 -48.45 126 -49.35 126 -50.4 126.65 -51.65 127.05 -52.35 127.9 -53.8 129.05 -56.05 128.75 -58.65 128.45 -61.3 126.9 -63.2 125.7 -64.65 121.05 -67.6 117.15 -70.05 116.2 -72.55 118.45 -74.6 124.55 -76.1 130.6 -77.6 132.8 -79.75 134.95 -81.75 135.8 -85.3 136.7 -89.05 135.3 -91.75 133.65 -95 129.35 -95.95 126.25 -96.6 121.9 -95.6 119.55 -95.1 116.3 -93.9 117.1 -95.85 117.15 -97.95 117.25 -101.3 115.3 -104.45 113.55 -107.4 110.5 -109.5 107.95 -111.25 104.35 -112.6 102.05 -113.45 97.65 -114.7
L 87.75 -117.45
Q 88.5 -117.4 89.35 -117.25 92.8 -116.75 94.45 -116.6 100.6 -116.15 104.35 -118.4 106.65 -119.75 107.9 -122.05 109.25 -124.5 108.75 -126.95
M 2.3 -129.7
Q 7.1 -129.7 11.9 -129.55 14.8 -129.45 16.05 -128.4 16.95 -127.6 17.45 -125.95 17.7 -125 18.1 -123 18.25 -122.5 18.4 -122.05 14.25 -122.45 8.6 -121.6 2 -120.4 -1.3 -119.85 -2.2 -119.7 -3.05 -119.55 -3.7 -121.35 -4 -123.2 -4.5 -126.6 -2.9 -128.25 -1.55 -129.7 2.3 -129.7
M 75.15 -122.1
Q 75.45 -121.45 75.95 -120.85 76 -120.8 76.05 -120.75
L 75 -121.05
Q 75.1 -121.55 75.15 -122.1
M 101.75 -40.1
Q 102.4 -40.25 104.85 -41.25 108.3 -37.85 112.6 -35.4 112.35 -35.35 112.1 -35.3 111.2 -35.1 109.3 -35.75 106.15 -36.7 102.75 -37.1 102.4 -38.45 101.75 -40.1
M -40.15 -100.3
Q -39.35 -101.75 -38.95 -103.05 -27.5 -100.9 -16.2 -100.45 -24.95 -97.3 -32.6 -91.9 -36.35 -89.35 -37.75 -86.85 -38.3 -85.85 -38.55 -84.7 -41.4 -84.9 -45 -84.8 -47.05 -84.75 -48.9 -84.7 -47.95 -87 -47.25 -88.45 -45.2 -92.85 -43 -96.05 -40.4 -99.85 -40.15 -100.3 Z"/>
</g>
</defs>

<g transform="matrix( 1, 0, 0, 1, 0,0) ">
<use xlink:href="#Layer11_0_FILL"/>
</g>

<g transform="matrix( 1, 0, 0, 1, 0,0) ">
<use xlink:href="#Layer10_0_FILL"/>
</g>

<g filter="url(#Filter_1)" transform="matrix( 1, 0, 0, 1, 0,0) ">
<g transform="matrix( 1, 0, 0, 1, 913.65,456.8) ">
<g transform="matrix( 1, 0, 0, 1, 0,0) ">
<use xlink:href="#Symbol_6_0_Layer0_0_FILL"/>
</g>
</g>
</g>
</svg>
