
<svg xmlns="http://www.w3.org/2000/svg" version="1.1" xmlns:xlink="http://www.w3.org/1999/xlink" preserveAspectRatio="none" x="0px" y="0px" width="1920px" height="1080px" viewBox="0 0 1920 1080">
<defs>
<g id="Layer11_0_FILL">
<path fill="#000000" stroke="none" d="
M 850.35 549.25
Q 848.7142578125 549.36640625 847.2 549.55 844.1771484375 549.9138671875 840.8 550.75 840.7619140625 550.7595703125 840.7 550.75 838.12265625 551.42578125 835.35 552.35 831.35 553.7 823.9 556.75
L 786.4 572.1
Q 784.4982421875 572.8767578125 783.65 573.8 782.9626953125 573.8298828125 782.25 573.85 782.366796875 573.701171875 782.45 573.55 781.05 571.9 778.4 572.35 776.35 572.7 773.8 574.15 768.15 577.5 744.15 593.05 726.05 604.8 713.9 610.9 707.35 614.2 692.9 620.4 679.05 626.4 671.95 630.05 664.8794921875 633.73828125 658.95 637.75 655.613671875 640.05859375 652.6 642.45 652.5279296875 642.5416015625 652.4 642.6 645.2611328125 648.4037109375 640.25 654.8 640.166796875 654.93828125 640.05 655.05 638.6 656.45 636.55 659.5 633.7701171875 663.68515625 628.6 670.45 625.3404296875 674.75078125 621.1 680.1 612.9 690.25 611.1 692.4 609.25 694.55 605.55 698.75 602.3 702.45 600.15 705.25
L 591.85 717
Q 590.8197265625 717.5228515625 589.95 718.25 589.0935546875 718.9806640625 588.45 719.85 588.245703125 720.20078125 588.05 720.55 587.73359375 721.1458984375 587.5 721.8 587.1236328125 722.83515625 587.05 723.8 586.9171875 724.1556640625 586.95 724.55 586.95 724.8642578125 587.1 725 587.1517578125 725.50625 587.3 726 587.9 728 590.55 730.65 599.6642578125 739.8021484375 612.9 747.2 617.094921875 749.5357421875 621.7 751.7 629.4 755.35 639.2 758.9 643.8533203125 760.5544921875 650.6 762.75 653.63671875 763.747265625 657.1 764.85 661.6 766.2 663.65 766.3 666 766.4 667.5 765.6 668.85 764.85 670.6 762.6 672.7 759.95 673.15 758.25 673.30859375 757.6236328125 673.35 756.95 674.280859375 755.773046875 675.2 754.5 680.623046875 747.55078125 686.8 738.6 698.7 721 704.9 712.35 707.65 708.6 709.7 707.4 711.9 706.2 715 706.15 717.2 706.15 720.6 706.8 724.25 707.5 731.55 708.9 737.9 710 742.6 710.3 747.9 710.65 754.6 710.1 758.35 709.85 766.55 708.85 775.3 707.7 778.95 706.65 785.30078125 704.8314453125 790.6 701.2 791.89375 700.5861328125 793.45 699.7 795.08046875 698.75859375 796.45 697.95 796.5126953125 697.9119140625 796.55 697.85 799.1791015625 696.30234375 800.8 695.2 804.8 692.55 807.5 689.8 808.602734375 688.659375 809.25 687.6 812.7494140625 689.466015625 817.4 690.15 822.15 690.8 829.55 690.25 832.55 690.05 834 689.8 842.0466796875 688.3544921875 850.6 680.45 850.639453125 680.4146484375 850.65 680.35 850.965625 680.119921875 851.25 679.85
L 851.25 679.8
Q 852.1484375 680.205078125 853.1 680.5 853.348046875 680.578515625 853.6 680.65 858 681.9 862.5 681.35 865.4943359375 680.99296875 868.2 679.85 869.4869140625 683.1138671875 870.15 686.6 870.7 689.45 870.9 692.3 871.1755859375 695.5576171875 871.05 698.2 870.973828125 700.8798828125 870.5 702.95 870.1 704.35 870.15 705.05 870.25 706.4 871.2 706.9 872.4 707.5 874.1 706 877.35 703.4 879.6 699.75 881.85 696.1 882.85 692
L 883.6 687.65
Q 884 684.65 884.1 683.15 884.35 678.85 883.35 674.7 882.6 671.5 880.6 666.9 879.2330078125 663.710546875 878 661.4 882.9810546875 659.1474609375 887.35 654.55 892.45 649.2 896.8 640.05 897.4 638.85 897.45 637.75 897.45 637.4177734375 897.4 637.15 898.6787109375 637.11015625 899.7 637.05 900.345703125 637.0140625 900.95 636.95 905.031640625 636.667578125 908.35 635.9 908.8439453125 635.8140625 909.3 635.7 913.1 634.75 915.35 633 918.7 630.4 920.3 624.8 922.45 617.5 921 610.75 919.3 603.25 913.85 598.75 908.612109375 594.34140625 900.3 593.5 907.5859375 591.972265625 913.85 591.05 915.6484375 590.7626953125 917.3 590.55 918.96171875 590.3373046875 920.45 590.2 923.480078125 589.925 925.9 589.95 932.55 589.95 937.6 591.95 938.8919921875 592.4708984375 939.9 593.05 940.991015625 595.524609375 942.85 598.05 944.8 600.7 948.25 604.1 951.5 607.35 953.85 608.95 955.85 610.35 959 611.9 962.55 613.8 964.3 614.35 967.1 615.35 970.9 615.6 972.0765625 615.6560546875 974.05 615.65 977.3740234375 616.7578125 981.65 616.1 984.6 615.65 989.75 613.95 990.3818359375 613.746484375 990.95 613.55 990.97421875 613.534375 991 613.5 992.4736328125 613.0341796875 993.5 612.6 993.6623046875 612.876171875 993.8 613.15 993.86953125 613.102734375 993.95 613.05 994.12890625 613.2173828125 994.35 613.35 994.85 613.65 995.9 613.95 996.95 614.3 997.4 614.55 998.6 615.1 1000.35 617.5
L 1009.9 631.05
Q 1011.25 631.4 1012.15 629.05 1013.75 624.45 1013 619.6 1012.55 617.1 1011.65 614.75 1009.35 608.45 1004.9 603.35 1004.503515625 602.905859375 1004.1 602.55 1003.316796875 601.8548828125 1002.6 601.65 1002.3888671875 601.5896484375 1002.15 601.55 1001.059375 600.783203125 999.75 599.95 997.1 598.25 995.3 597.55 994.6576171875 597.290625 994.05 597.1 993.2375 596.42265625 992.5 595.8 992.4845703125 595.8033203125 992.45 595.75 990.78203125 594.386328125 989.65 593.6 987.120703125 591.812109375 984.75 591 984.5375 590.782421875 984.3 590.55 984.588671875 590.162890625 984.85 589.8 983.371484375 588.948046875 981.9 588 981.683984375 587.6947265625 981.45 587.4 980.45 586.2 979.8 585.95 979.378515625 585.7392578125 978.9 585.85 974.59609375 582.560546875 970.85 578.45 964.5 570.55 961.3 566.7 955.55 559.8 950.2 556.85 943.8572265625 553.33515625 934.25 552.95 932.0365234375 552.8705078125 929.65 552.95 929.575 552.9474609375 929.5 552.95 914.7 554.35 907.45 554.35 901.7 554.4 890.4 553
L 869.6 550.45
Q 862.15 549.55 858.4 549.35 854.0619140625 549.072265625 850.35 549.25
M 830.5 557.35
Q 836.45 554.55 841.4 553.35 845.6302734375 552.3236328125 850.6 552.05 855.6072265625 551.8255859375 861.35 552.35 861.85 552.4 881.5 555.1 895.8435546875 557.0798828125 907.55 556.45 910.361328125 556.2974609375 913 556 918.45 555.4 929.65 554.05 932.019921875 553.9376953125 934.15 554.05 940.6591796875 554.485546875 945.2 557.15 947.7 558.65 950.2 561.1 951.9 562.75 954.5 565.85
L 969.85 583.65
Q 972.8 587.1 974.5 588.75 977.2 591.4 979.85 592.9 980.9375 593.521484375 982.05 593.95 983.6587890625 595.76171875 985.75 597.45 986.26640625 597.8734375 986.9 598.35 986.985546875 598.41328125 987.05 598.45 990.192578125 600.7568359375 996.05 604.15 996.6865234375 604.5451171875 997.25 604.8 997.2625 605.6123046875 997 606.4 996.6537109375 607.3234375 995.8 608.25 995.4123046875 608.6609375 994.9 609.05 993.0544921875 608.59296875 991.15 608.75 991.5 609.85 992.7 610.65 991.4462890625 611.40546875 990.35 611.75 988.8 612.15 987.2 611.9 986.690625 611.8228515625 986.2 611.65 985.6240234375 611.83359375 985 611.95 982.1 612.45 977.95 612.25 969.5 611.9 964 609.7 958.95 607.65 952.6 602.4 947.6 598.15 945.15 594.6 943.5 592.25 942.05 589.05 941.3142578125 587.4560546875 940.15 584.5 940.1064453125 583.2623046875 940.25 582.35 940.1533203125 582.1375 940 581.95 939.4 581.2 937.5 580.55
L 936.9 580.9
Q 937.8 581.8 937.8 583.6 937.8 583.8 937.7 585.1 937.65 586 937.75 586.55 937.916796875 587.5927734375 938.6 588.7
L 938.6 588.75
Q 938.5625 588.737890625 938.5 588.7 938.4751953125 588.7125 938.4 588.7 937.391015625 588.3720703125 936.25 588.15 932 587.35 925.75 587.75 923.17265625 587.9099609375 920.35 588.2 918.7857421875 588.355859375 917.1 588.55 913.483984375 588.9802734375 909.5 589.6 904.05 590.45 893.4 592.45 887.9 593.45 885.35 594.65 884.776953125 594.9119140625 884.25 595.2 882.9677734375 595.5380859375 881.5 595.95
L 865.8 600.4
Q 861.7 601.55 859.85 601.9 856.45 602.6 853.75 602.45 853.622265625 602.441796875 853.5 602.4 853.1083984375 602.417578125 852.75 602.4 852.3705078125 600.7130859375 852.05 599.05 851.4109375 595.8552734375 851.1 594.5
L 851.1 594.45
Q 851.0068359375 593.9412109375 850.95 593.7 850.15 590.75 848.9 588.75 848.11640625 587.541015625 847 586.45 847.14375 586.06484375 847.2 585.6 847.25 585.3 847.25 582.95 847.3 581.95 847.6 580.05 848 577.6 848.7 576.7
L 847.7 576.5
Q 847.4 576.85 847 577.65 846.85 577.95 845.95 579.1 845.3 579.95 845.05 580.6 844.7 581.55 844.8 583.35
L 844.85 584.6
Q 844.4060546875 584.276953125 843.9 583.95 841.5 582.4 837.5 580.75 834.55 579.5 832.6 579.05 832.3669921875 578.99921875 832.15 578.95 832.1484375 578.508984375 832.2 578.05 830.176171875 577.908984375 827.05 577.85 818.4 577.7 809.95 576.65 800.278515625 575.2154296875 795.05 574.6 807.5390625 569.1703125 820.05 562.65 823.2052734375 560.9935546875 825.5 559.8 825.5353515625 559.7953125 825.55 559.75 829.033203125 558.00859375 830.5 557.35
M 803.45 648.7
Q 803.60390625 648.8830078125 803.75 649.05 806.35 652.2 808.4 654 810.95 656.3 814.7 658.25 817.3 659.65 821.65 661.4 827.15 663.65 830.7 664.15 832.25 664.35 833.45 663.95 834.3693359375 663.6216796875 834.8 663 835.6939453125 664.3751953125 837.2 666.25 838.6 668.05 841.25 671.65 843.65 674.75 845.75 676.55 847.4337890625 677.941015625 849.35 678.95 848.946875 678.944140625 848.55 679.05 847.7 679.3 845.95 680.55 839.6 685.25 831.8 686.15 829.35 686.45 824.45 686.45 819.5 686.4 816.95 686 812.85 685.4 810.05 683.6 808.9572265625 682.9275390625 807.5 681.6 807.608984375 681.476953125 807.55 681.3 802.15 675.25 796.7 670.25 794.1 667.8 793.1 666.7 791.353125 664.7232421875 790.4 662.85 790.474609375 661.6232421875 790.95 660.65 791.39609375 659.8212890625 792.15 659.3 792.0763671875 659.246875 792 659.2 791.35 658.85 790.75 659.15 789.95 659.55 789.85 661.3 789.8421875 661.4951171875 789.8 661.65 789.3212890625 660.6326171875 789.15 660.4 789.217578125 660.3755859375 789.25 660.3
L 789.3 660.3
Q 798.05 652.75 800.75 650.7 802.1013671875 649.67890625 803.45 648.7
M 668.25 749.6
Q 668.963671875 750.5396484375 669.45 751.45 670.3087890625 753.0388671875 670.55 754.45
L 665.6 761.4
Q 665.1564453125 761.508984375 664.65 761.55 662 761.85 657.75 760.5 655.125 759.7375 652 758.65 642.6125 755.525 628.7 749.75 624.55 748.05 623.2 747.4 618.9494140625 745.5123046875 614.9 743.25 602.862109375 736.549609375 592.85 726.65 591.05 724.85 591.1 723.45 591.1248046875 722.827734375 591.4 722.3 591.7474609375 721.751953125 592.35 721.3 593.4 720.55 594.95 720.2 599.95 719.1 606.65 720.45 610.55 721.25 618.3 723.5 621.3 724.2 622.35 724.6 624.6 725.3 626.1 726.4
L 627.65 727.7
Q 628.55 728.45 629.25 728.8 630 729.15 631.4 729.5 632.95 729.85 633.5 730.05 635.05 730.6 636.3 731.85 637.5 733.05 638.05 734.6 638.75 733.25 638.1 731.9 651.35 735.5 662.2 743.75 666.1783203125 746.7900390625 668.25 749.6
M 915.15 607.75
Q 917.4 612.4 917.1 617.15 917 618.4 916.35 621.85 915.25 626.75 913.4 628.85 911.4494140625 631.0255859375 907.45 632 906.148828125 632.3126953125 904.6 632.5 902.7 632.775 900.55 632.95 898.4 633.1 896 633.15 893.1 633.2 887.3 633.1
L 879.8 632.95
Q 871.3484375 632.8794921875 866.65 632.95 866.6373046875 632.9494140625 866.6 632.95 865.5388671875 632.954296875 864.65 632.95 863.9056640625 631.474609375 863.25 630.15 856.6171875 616.690234375 853.5 605.4 858.4361328125 606.4876953125 864.6 604.65 867.4 603.8 871.2 602.1 873.4 601.1 877.65 599.1 879.3435546875 598.3533203125 880.95 597.75 880.4625 598.292578125 880.05 598.9 879.65 599.45 879.55 600 879.45 600.65 879.85 601 880.6 601.6 882.05 600.35 884.6 598.1 888.5 596.6 890.65703125 595.801171875 894 594.95 895.351171875 594.9244140625 896.6 595.05 898.28359375 595.237109375 899.9 595.65 901.7431640625 596.1046875 903.5 596.85 906.65 598.2 909.1 600.2 913 603.3 915.15 607.75
M 893.75 637.15
Q 893.387890625 637.6466796875 893.05 638.25 889.65 644.75 887.5 647.9 884 652.95 879.95 655.65 878.4 656.6 877.6 657.1 877.5345703125 657.1396484375 877.45 657.15 875.7451171875 653.989453125 874.15 651.05 869.791796875 642.917578125 866.65 636.85
L 889.95 637.15
Q 892.00390625 637.182421875 893.75 637.15
M 1002.1 605
Q 1002.2158203125 604.7876953125 1002.3 604.55 1005.33828125 607.6625 1008 613.1 1010.8 618.8 1011.1 622.75 1011.2 624.75 1010.85 626.35 1010.7 627.65 1010.15 628.5 1004.9890625 621.3958984375 1001.3 616.7 1001.2884765625 616.6740234375 1001.25 616.6 998.9361328125 613.6888671875 997.2 611.7
L 997.85 610.95
Q 998.044921875 610.7109375 998.2 610.45 998.0041015625 610.346484375 997.75 610.2 998.0775390625 609.9884765625 998.35 609.75 999.766015625 608.48046875 1000.4 606.95 1000.508203125 607.1798828125 1000.6 607.35 1001.2783203125 606.4130859375 1001.75 605.6 1001.5591796875 605.3439453125 1001.3 604.95 1001.578125 605.2201171875 1001.85 605.45 1001.981640625 605.221484375 1002.1 605
M 990.55 595.55
Q 990.075 595.226953125 989.6 594.9 990.01953125 594.82890625 990.4 594.7 991.3974609375 595.3701171875 992.3 596.1 991.46015625 595.846875 990.55 595.55
M 831.15 582.15
Q 832.303515625 582.5580078125 833.7 583 837.2 584.2 839.5 585.35 846.1 588.75 848.05 594.1 848.187890625 594.4884765625 848.3 595.05 848.737890625 596.8279296875 849.15 600.35 849.4638671875 603.108203125 850 605.95 850.021484375 606.06328125 850.05 606.15 851.92578125 615.902734375 856.45 626.6 858.0072265625 630.295703125 860.15 634.65 860.14140625 634.8353515625 860.15 635 860.22109375 635.8287109375 860.95 636.3 864.32421875 642.9673828125 869 651.15 869.608984375 652.2357421875 870.15 653.2 870.2423828125 653.326171875 870.3 653.4 871.5349609375 655.5705078125 872.6 657.25
L 872.8 657.8
Q 873.505859375 658.408203125 874.05 659.35 874.593359375 660.283203125 875 661.55 875.0796875 661.801953125 875.15 662.1 875.3947265625 662.9765625 875.65 664.3
L 876.35 665.9
Q 877.55 668.65 877.9 669.6 879.25 673 880.1 677.15 880.75 680.8 880.35 683.1 880.15 684.1 879.65 686.1 879.55 687.2 879.6 689.5 879.5 691.35 878.1 694.65 877.1 697 876.45 698.2 875.4 700.1 874.1 701.25 874.1685546875 699.63046875 874.2 698.15 874.380078125 690.99453125 873.8 687.1 873.35 684.4 872.6 681.9 872.055859375 680.1591796875 871.5 678.65 871.46953125 678.6017578125 871.45 678.55 871.249609375 678.03671875 871.05 677.55 869.2 672.75 867.2 670.15 865.2 667.9 864.3 666.75 862.7 664.7 862.4 662.9 862.15 661.3 862.85 659.2 863.7 656.65 865.35 655.5 866.3 654.8 867.45 654.7 868.65 654.55 869.6 655.1 869.475 654.5 869.05 654.1 868.946484375 654.03359375 868.8 653.95 868.4484375 653.7134765625 867.9 653.6 867.15 653.4 865.55 653.7 863.5 654 862.6 654.5 859.6 656 859.05 660.8 858.8 662.75 859.1 664.1 859.45 665.55 860.5 667.15 860.75 667.55 862.6 669.9 866.1740234375 674.521484375 868.2 679.8 865.9798828125 679.2806640625 865 678.15 864.675 677.7501953125 864.4 677.2 863.4708984375 677.4337890625 862.5 677.6 858.0818359375 678.386328125 854.25 677.25 852.9681640625 676.890234375 851.75 676.3 848.5 674.8 844.7 670.9 840.34921875 666.5822265625 836.75 661.55 836.6146484375 661.311328125 836.45 661.05 836.6041015625 661.1291015625 836.75 661.15 837.3 661.2 837.75 660.95 838.25 660.65 838.3 660.2 837.25 660.35 836.45 659.15 835.85 657.75 835.5 657.1 835.4 656.95 834 655.1 833.25 654.1 831.7 650.85 830.6 648.55 828.1 644.15 826.65 641.5 825.6 640 824.5912109375 638.5634765625 822.95 636.8 822.8990234375 636.7765625 822.85 636.7 821.841796875 635.667578125 820.6 634.5 814.6 629.1 806.9 625.35 801.25 622.8 797.9 624.05 797.4 624.25 797.05 624.65 796.7 625.1 796.9 625.5 797.1 625.85 797.95 626.05 801.45 626.7 805.45 628.85 807.7 630.05 812.3 633.15 817.2 636.55 819.35 638.5 819.72734375 638.8583984375 820.1 639.25
L 820.15 639.3
Q 821.837890625 640.9875 823.8 643.35
L 824.95 644.9
Q 826 646.35 827.8 649.45 830.7 654.35 832.05 656.3
L 833 657.55
Q 832.875390625 659.3654296875 833.9 661.45 834.0126953125 661.6818359375 834.15 661.95 826.6658203125 659.4591796875 822.9 658 815.9 655.35 811.6 652.05 809.21796875 650.2634765625 806.1 646.95 812.698828125 642.64453125 819.85 639.6 818.75 638.4 816.95 637.95 815.3 637.55 813.55 637.85 811 638.3 807.35 640.7 802 644.2 793.45 651.9 789.820703125 655.1626953125 786.95 657.6
L 786.9 657.65
Q 784.2275390625 659.96796875 782.2 661.55 780.824609375 662.6751953125 779.75 663.45 765.4 673.85 747.75 676.85 737.55 678.6 728.4 677.05 718.15 675.35 710.85 669.75 707.95 667.55 706.7 669 705.7 670.3 707.45 672.5 713.25 679.5 723 682.35 732.05 685 741.8 683.3 744.980078125 682.729296875 749 681.5 749.0890625 681.493359375 749.15 681.45 752.5052734375 680.484375 756.45 679.05 769.85 674.3 777.55 669.4 780.542578125 667.478515625 784.4 664.35 784.4462890625 664.3580078125 784.45 664.35 785.15703125 663.7890625 785.85 663.2 786.7037109375 665.55546875 789.6 668.55 789.987109375 668.961328125 790.4 669.35 790.9095703125 671.3712890625 791.85 672.95 793.3 675.45 796.85 678 802.45 682.1 802.7 682.3 803.53984375 683.00546875 804.85 684.25 804.8904296875 684.28828125 804.9 684.3 805.542578125 684.9078125 806.25 685.6 806.498046875 685.80234375 806.75 686 806.576953125 686.1421875 806.4 686.3 806.3 686.35 803.25 689.4 801 691.6 795.45 695.3 795.2521484375 695.429296875 795.05 695.55 792.591796875 696.2541015625 789.6 697.75 782.3 701.4 781.65 701.65 778.35 703 774 703.7 771.25 704.15 766.05 704.6 758.85 705.25 755.2 705.45 749.2 705.75 744.35 705.4 741.45 705.2 734.05 704.15 727.5 703.2 723.7 703.1 715.004296875 702.78828125 708.95 705.55 708.8484375 705.6216796875 708.75 705.65 706.183203125 706.876953125 704.1 708.65 701.6 710.8 698.1 715.8
L 672.2 752.15
Q 671.8439453125 751.3197265625 671.3 750.45 670.9923828125 749.8830078125 670.6 749.3 670.280859375 748.831640625 669.95 748.35 664.0107421875 740.06484375 655.15 734.9 651.05 732.5 641.45 728.8 630.25 724.5 624.6 722.5 623.9208984375 722.2580078125 623.25 722 614.64375 719.001953125 607.5 717.1 601.6 715.5 598 715.6 597.3326171875 715.61328125 596.7 715.65 600.4896484375 710.5802734375 602.55 707.95 605.15 704.7 610.35 699.1 615.9 693.15 618.2 690.35 620.4 687.7 622.85 684.4
L 631.7 672.8
Q 636.4 666.65 638.8 663.1 639.021484375 662.770703125 639.25 662.45 640.1630859375 661.68125 640.8 660.45 645.4103515625 651.8666015625 654.35 644.75 657.3326171875 642.403125 660.8 640.2 666.1 636.85 673.4 633.3 673.4248046875 633.2880859375 673.45 633.25 676.29140625 631.9087890625 686.5 627.3 701.0123046875 620.751171875 715.2 613.55 715.2400390625 613.555078125 715.25 613.55 747.2533203125 597.3388671875 777.75 577.85 778.696875 577.244921875 779.45 576.65 780.715234375 576.7294921875 782 576.8 782.83671875 576.8845703125 783.65 576.95 784.2568359375 577.494140625 785.4 577.65 786.8396484375 577.79765625 788.3 577.35 790.65859375 577.6337890625 794.45 578.1 794.525 578.109375 794.6 578.1 800.3650390625 578.8392578125 809.45 580.05 809.4994140625 580.055078125 809.55 580.05 809.9208984375 580.0998046875 810.3 580.15 822.6375 581.7755859375 831.15 582.15 Z"/>

<path fill="#9B6945" stroke="none" d="
M 833.7 583
Q 832.303515625 582.5580078125 831.15 582.15 822.6375 581.7755859375 810.3 580.15 809.9208984375 580.0998046875 809.55 580.05 809.4994140625 580.055078125 809.45 580.05 800.3650390625 578.8392578125 794.6 578.1 794.525 578.109375 794.45 578.1 790.65859375 577.6337890625 788.3 577.35 786.8396484375 577.79765625 785.4 577.65 784.2568359375 577.494140625 783.65 576.95
L 777.75 577.85
Q 747.2533203125 597.3388671875 715.25 613.55 715.2400390625 613.555078125 715.2 613.55 701.0123046875 620.751171875 686.5 627.3 676.29140625 631.9087890625 673.45 633.25 673.4248046875 633.2880859375 673.4 633.3 666.1 636.85 660.8 640.2 657.3326171875 642.403125 654.35 644.75 645.4103515625 651.8666015625 640.8 660.45 640.1630859375 661.68125 639.25 662.45 639.021484375 662.770703125 638.8 663.1 636.4 666.65 631.7 672.8
L 622.85 684.4
Q 620.4 687.7 618.2 690.35 615.9 693.15 610.35 699.1 605.15 704.7 602.55 707.95 600.4896484375 710.5802734375 596.7 715.65 597.3326171875 715.61328125 598 715.6 601.6 715.5 607.5 717.1 614.64375 719.001953125 623.25 722 623.9208984375 722.2580078125 624.6 722.5 630.25 724.5 641.45 728.8 651.05 732.5 655.15 734.9 664.0107421875 740.06484375 669.95 748.35 670.280859375 748.831640625 670.6 749.3 670.9923828125 749.8830078125 671.3 750.45 671.8439453125 751.3197265625 672.2 752.15
L 698.1 715.8
Q 701.6 710.8 704.1 708.65 706.183203125 706.876953125 708.75 705.65 708.8484375 705.6216796875 708.95 705.55 715.004296875 702.78828125 723.7 703.1 727.5 703.2 734.05 704.15 741.45 705.2 744.35 705.4 749.2 705.75 755.2 705.45 758.85 705.25 766.05 704.6 771.25 704.15 774 703.7 778.35 703 781.65 701.65 782.3 701.4 789.6 697.75 792.591796875 696.2541015625 795.05 695.55 795.2521484375 695.429296875 795.45 695.3 801 691.6 803.25 689.4 806.3 686.35 806.4 686.3 806.576953125 686.1421875 806.75 686 806.498046875 685.80234375 806.25 685.6 805.542578125 684.9078125 804.9 684.3 804.8904296875 684.28828125 804.85 684.25 803.53984375 683.00546875 802.7 682.3 802.45 682.1 796.85 678 793.3 675.45 791.85 672.95 790.9095703125 671.3712890625 790.4 669.35 789.987109375 668.961328125 789.6 668.55 786.7037109375 665.55546875 785.85 663.2 785.15703125 663.7890625 784.45 664.35 784.4462890625 664.3580078125 784.4 664.35 780.542578125 667.478515625 777.55 669.4 769.85 674.3 756.45 679.05 752.5052734375 680.484375 749.15 681.45 749.0890625 681.493359375 749 681.5 744.980078125 682.729296875 741.8 683.3 732.05 685 723 682.35 713.25 679.5 707.45 672.5 705.7 670.3 706.7 669 707.95 667.55 710.85 669.75 718.15 675.35 728.4 677.05 737.55 678.6 747.75 676.85 765.4 673.85 779.75 663.45 780.824609375 662.6751953125 782.2 661.55 784.2275390625 659.96796875 786.9 657.65
L 786.95 657.6
Q 789.820703125 655.1626953125 793.45 651.9 802 644.2 807.35 640.7 811 638.3 813.55 637.85 815.3 637.55 816.95 637.95 818.75 638.4 819.85 639.6 812.698828125 642.64453125 806.1 646.95 809.21796875 650.2634765625 811.6 652.05 815.9 655.35 822.9 658 826.6658203125 659.4591796875 834.15 661.95 834.0126953125 661.6818359375 833.9 661.45 832.875390625 659.3654296875 833 657.55
L 832.05 656.3
Q 830.7 654.35 827.8 649.45 826 646.35 824.95 644.9
L 823.8 643.35
Q 821.837890625 640.9875 820.15 639.3
L 820.1 639.25
Q 819.72734375 638.8583984375 819.35 638.5 817.2 636.55 812.3 633.15 807.7 630.05 805.45 628.85 801.45 626.7 797.95 626.05 797.1 625.85 796.9 625.5 796.7 625.1 797.05 624.65 797.4 624.25 797.9 624.05 801.25 622.8 806.9 625.35 814.6 629.1 820.6 634.5 821.841796875 635.667578125 822.85 636.7 822.8990234375 636.7765625 822.95 636.8 824.5912109375 638.5634765625 825.6 640 826.65 641.5 828.1 644.15 830.6 648.55 831.7 650.85 833.25 654.1 834 655.1 835.4 656.95 835.5 657.1 835.85 657.75 836.45 659.15 837.25 660.35 838.3 660.2 838.25 660.65 837.75 660.95 837.3 661.2 836.75 661.15 836.6041015625 661.1291015625 836.45 661.05 836.6146484375 661.311328125 836.75 661.55 840.34921875 666.5822265625 844.7 670.9 848.5 674.8 851.75 676.3 852.9681640625 676.890234375 854.25 677.25 858.0818359375 678.386328125 862.5 677.6 863.4708984375 677.4337890625 864.4 677.2 864.675 677.7501953125 865 678.15 865.9798828125 679.2806640625 868.2 679.8 866.1740234375 674.521484375 862.6 669.9 860.75 667.55 860.5 667.15 859.45 665.55 859.1 664.1 858.8 662.75 859.05 660.8 859.6 656 862.6 654.5 863.5 654 865.55 653.7 867.15 653.4 867.9 653.6 868.4484375 653.7134765625 868.8 653.95 868.946484375 654.03359375 869.05 654.1
L 870.3 653.4
Q 870.2423828125 653.326171875 870.15 653.2 869.608984375 652.2357421875 869 651.15 864.32421875 642.9673828125 860.95 636.3 860.22109375 635.8287109375 860.15 635 860.14140625 634.8353515625 860.15 634.65 858.0072265625 630.295703125 856.45 626.6 851.92578125 615.902734375 850.05 606.15 850.021484375 606.06328125 850 605.95 849.4638671875 603.108203125 849.15 600.35 848.737890625 596.8279296875 848.3 595.05 848.187890625 594.4884765625 848.05 594.1 846.1 588.75 839.5 585.35 837.2 584.2 833.7 583
M 893.05 638.25
Q 893.387890625 637.6466796875 893.75 637.15 892.00390625 637.182421875 889.95 637.15
L 866.65 636.85
Q 869.791796875 642.917578125 874.15 651.05 875.7451171875 653.989453125 877.45 657.15 877.5345703125 657.1396484375 877.6 657.1 878.4 656.6 879.95 655.65 884 652.95 887.5 647.9 889.65 644.75 893.05 638.25
M 917.1 617.15
Q 917.4 612.4 915.15 607.75 913 603.3 909.1 600.2 906.65 598.2 903.5 596.85 901.7431640625 596.1046875 899.9 595.65 898.28359375 595.237109375 896.6 595.05 895.351171875 594.9244140625 894 594.95 890.65703125 595.801171875 888.5 596.6 884.6 598.1 882.05 600.35 880.6 601.6 879.85 601 879.45 600.65 879.55 600 879.65 599.45 880.05 598.9 880.4625 598.292578125 880.95 597.75 879.3435546875 598.3533203125 877.65 599.1 873.4 601.1 871.2 602.1 867.4 603.8 864.6 604.65 858.4361328125 606.4876953125 853.5 605.4 856.6171875 616.690234375 863.25 630.15 863.9056640625 631.474609375 864.65 632.95 865.5388671875 632.954296875 866.6 632.95 866.6373046875 632.9494140625 866.65 632.95 871.3484375 632.8794921875 879.8 632.95
L 887.3 633.1
Q 893.1 633.2 896 633.15 898.4 633.1 900.55 632.95 902.7 632.775 904.6 632.5 906.148828125 632.3126953125 907.45 632 911.4494140625 631.0255859375 913.4 628.85 915.25 626.75 916.35 621.85 917 618.4 917.1 617.15
M 803.75 649.05
Q 803.60390625 648.8830078125 803.45 648.7 802.1013671875 649.67890625 800.75 650.7 798.05 652.75 789.3 660.3
L 789.25 660.3
Q 789.217578125 660.3755859375 789.15 660.4 789.3212890625 660.6326171875 789.8 661.65 789.8421875 661.4951171875 789.85 661.3 789.95 659.55 790.75 659.15 791.35 658.85 792 659.2 792.0763671875 659.246875 792.15 659.3 791.39609375 659.8212890625 790.95 660.65 790.474609375 661.6232421875 790.4 662.85 791.353125 664.7232421875 793.1 666.7 794.1 667.8 796.7 670.25 802.15 675.25 807.55 681.3 807.608984375 681.476953125 807.5 681.6 808.9572265625 682.9275390625 810.05 683.6 812.85 685.4 816.95 686 819.5 686.4 824.45 686.45 829.35 686.45 831.8 686.15 839.6 685.25 845.95 680.55 847.7 679.3 848.55 679.05 848.946875 678.944140625 849.35 678.95 847.4337890625 677.941015625 845.75 676.55 843.65 674.75 841.25 671.65 838.6 668.05 837.2 666.25 835.6939453125 664.3751953125 834.8 663 834.3693359375 663.6216796875 833.45 663.95 832.25 664.35 830.7 664.15 827.15 663.65 821.65 661.4 817.3 659.65 814.7 658.25 810.95 656.3 808.4 654 806.35 652.2 803.75 649.05
M 841.4 553.35
Q 836.45 554.55 830.5 557.35 829.033203125 558.00859375 825.55 559.75 825.5353515625 559.7953125 825.5 559.8 823.2052734375 560.9935546875 820.05 562.65 807.5390625 569.1703125 795.05 574.6 800.278515625 575.2154296875 809.95 576.65 818.4 577.7 827.05 577.85 830.176171875 577.908984375 832.2 578.05 832.1484375 578.508984375 832.15 578.95 832.3669921875 578.99921875 832.6 579.05 834.55 579.5 837.5 580.75 841.5 582.4 843.9 583.95 844.4060546875 584.276953125 844.85 584.6
L 844.8 583.35
Q 844.7 581.55 845.05 580.6 845.3 579.95 845.95 579.1 846.85 577.95 847 577.65 847.4 576.85 847.7 576.5
L 848.7 576.7
Q 848 577.6 847.6 580.05 847.3 581.95 847.25 582.95 847.25 585.3 847.2 585.6 847.14375 586.06484375 847 586.45 848.11640625 587.541015625 848.9 588.75 850.15 590.75 850.95 593.7 851.0068359375 593.9412109375 851.1 594.45
L 851.1 594.5
Q 851.4109375 595.8552734375 852.05 599.05 852.3705078125 600.7130859375 852.75 602.4 853.1083984375 602.417578125 853.5 602.4 853.622265625 602.441796875 853.75 602.45 856.45 602.6 859.85 601.9 861.7 601.55 865.8 600.4
L 881.5 595.95
Q 882.9677734375 595.5380859375 884.25 595.2 884.776953125 594.9119140625 885.35 594.65 887.9 593.45 893.4 592.45 904.05 590.45 909.5 589.6 913.483984375 588.9802734375 917.1 588.55 918.7857421875 588.355859375 920.35 588.2 923.17265625 587.9099609375 925.75 587.75 932 587.35 936.25 588.15 937.391015625 588.3720703125 938.4 588.7 938.4751953125 588.7125 938.5 588.7 938.5625 588.737890625 938.6 588.75
L 938.6 588.7
Q 937.916796875 587.5927734375 937.75 586.55 937.65 586 937.7 585.1 937.8 583.8 937.8 583.6 937.8 581.8 936.9 580.9
L 937.5 580.55
Q 939.4 581.2 940 581.95 940.1533203125 582.1375 940.25 582.35 940.1064453125 583.2623046875 940.15 584.5 941.3142578125 587.4560546875 942.05 589.05 943.5 592.25 945.15 594.6 947.6 598.15 952.6 602.4 958.95 607.65 964 609.7 969.5 611.9 977.95 612.25 982.1 612.45 985 611.95 985.6240234375 611.83359375 986.2 611.65 986.690625 611.8228515625 987.2 611.9 988.8 612.15 990.35 611.75 991.4462890625 611.40546875 992.7 610.65 991.5 609.85 991.15 608.75 993.0544921875 608.59296875 994.9 609.05 995.4123046875 608.6609375 995.8 608.25 996.6537109375 607.3234375 997 606.4 997.2625 605.6123046875 997.25 604.8 996.6865234375 604.5451171875 996.05 604.15 990.192578125 600.7568359375 987.05 598.45 986.985546875 598.41328125 986.9 598.35 986.26640625 597.8734375 985.75 597.45 983.6587890625 595.76171875 982.05 593.95 980.9375 593.521484375 979.85 592.9 977.2 591.4 974.5 588.75 972.8 587.1 969.85 583.65
L 954.5 565.85
Q 951.9 562.75 950.2 561.1 947.7 558.65 945.2 557.15 940.6591796875 554.485546875 934.15 554.05 932.019921875 553.9376953125 929.65 554.05 918.45 555.4 913 556 910.361328125 556.2974609375 907.55 556.45 895.8435546875 557.0798828125 881.5 555.1 861.85 552.4 861.35 552.35 855.6072265625 551.8255859375 850.6 552.05 845.6302734375 552.3236328125 841.4 553.35 Z"/>

<path fill="#333333" stroke="none" d="
M 875 661.55
Q 874.593359375 660.283203125 874.05 659.35 873.505859375 658.408203125 872.8 657.8
L 872.6 657.25
Q 871.5349609375 655.5705078125 870.3 653.4
L 869.05 654.1
Q 869.475 654.5 869.6 655.1 868.65 654.55 867.45 654.7 866.3 654.8 865.35 655.5 863.7 656.65 862.85 659.2 862.15 661.3 862.4 662.9 862.7 664.7 864.3 666.75 865.2 667.9 867.2 670.15 869.2 672.75 871.05 677.55 871.249609375 678.03671875 871.45 678.55 871.46953125 678.6017578125 871.5 678.65 872.055859375 680.1591796875 872.6 681.9 873.35 684.4 873.8 687.1 874.380078125 690.99453125 874.2 698.15 874.1685546875 699.63046875 874.1 701.25 875.4 700.1 876.45 698.2 877.1 697 878.1 694.65 879.5 691.35 879.6 689.5 879.55 687.2 879.65 686.1 880.15 684.1 880.35 683.1 880.75 680.8 880.1 677.15 879.25 673 877.9 669.6 877.55 668.65 876.35 665.9
L 875.65 664.3
Q 875.3947265625 662.9765625 875.15 662.1 875.0796875 661.801953125 875 661.55
M 1002.3 604.55
Q 1002.2158203125 604.7876953125 1002.1 605 1001.981640625 605.221484375 1001.85 605.45 1001.578125 605.2201171875 1001.3 604.95 1001.5591796875 605.3439453125 1001.75 605.6 1001.2783203125 606.4130859375 1000.6 607.35 1000.508203125 607.1798828125 1000.4 606.95 999.766015625 608.48046875 998.35 609.75 998.0775390625 609.9884765625 997.75 610.2 998.0041015625 610.346484375 998.2 610.45 998.044921875 610.7109375 997.85 610.95
L 997.2 611.7
Q 998.9361328125 613.6888671875 1001.25 616.6 1001.2884765625 616.6740234375 1001.3 616.7 1004.9890625 621.3958984375 1010.15 628.5 1010.7 627.65 1010.85 626.35 1011.2 624.75 1011.1 622.75 1010.8 618.8 1008 613.1 1005.33828125 607.6625 1002.3 604.55 Z"/>

<path fill="#835737" stroke="none" d="
M 669.45 751.45
Q 668.963671875 750.5396484375 668.25 749.6 666.1783203125 746.7900390625 662.2 743.75 651.35 735.5 638.1 731.9 638.75 733.25 638.05 734.6 637.5 733.05 636.3 731.85 635.05 730.6 633.5 730.05 632.95 729.85 631.4 729.5 630 729.15 629.25 728.8 628.55 728.45 627.65 727.7
L 626.1 726.4
Q 624.6 725.3 622.35 724.6 621.3 724.2 618.3 723.5 610.55 721.25 606.65 720.45 599.95 719.1 594.95 720.2 593.4 720.55 592.35 721.3 591.7474609375 721.751953125 591.4 722.3 591.1248046875 722.827734375 591.1 723.45 591.05 724.85 592.85 726.65 602.862109375 736.549609375 614.9 743.25 618.9494140625 745.5123046875 623.2 747.4 624.55 748.05 628.7 749.75 642.6125 755.525 652 758.65 655.125 759.7375 657.75 760.5 662 761.85 664.65 761.55 665.1564453125 761.508984375 665.6 761.4
L 670.55 754.45
Q 670.3087890625 753.0388671875 669.45 751.45 Z"/>
</g>
</defs>

<g transform="matrix( 1, 0, 0, 1, 0,0) ">
<use xlink:href="#Layer11_0_FILL"/>
</g>
</svg>
