
<svg xmlns="http://www.w3.org/2000/svg" version="1.1" xmlns:xlink="http://www.w3.org/1999/xlink" preserveAspectRatio="none" x="0px" y="0px" width="1920px" height="1080px" viewBox="0 0 1920 1080">
<defs>
<g id="Layer10_0_FILL">
<path fill="#000000" stroke="none" d="
M 1170.85 337.1
Q 1170.50078125 337.9705078125 1170.3 339.25
L 1167.65 356.1
Q 1166.65 362.2 1166.15 364.75 1165.7283203125 366.7955078125 1165.25 368.6 1164.3251953125 371.294921875 1162.65 376.1 1161.9501953125 378 1161.2 379.8 1158.52578125 385.3365234375 1154.4 391.15 1150.9998046875 395.9021484375 1144.45 403.55 1141.13515625 406.121875 1137.45 407.8 1137.5 408.55 1138.2 409.05 1138.9 409.55 1139.7 409.5 1140.8 409.4 1142.5 408.2 1150.0392578125 402.6353515625 1155.9 393.6 1162.4595703125 384.23359375 1166.15 373.1 1167.21640625 369.9005859375 1168.4 365.25 1169.2759765625 362.5361328125 1170.35 359.15 1171.1 356.8 1171.3 355.35 1171.462890625 353.9810546875 1171.2 352.85
L 1173.05 344.5
Q 1175.83046875 337.98515625 1175.7 330.9 1173.75 330.85 1171.2 333.5 1152.9 352.75 1136.65 379.35 1132.1 386.85 1130.55 392.3 1128.43828125 399.433203125 1130.55 404.9 1130.230078125 405.0033203125 1129.9 405.1 1127.95 405.6 1126.3 406.95 1124.1 408.7 1121.25 413.1
L 1095.45 452.25
Q 1093.4486328125 451.5490234375 1090.8 454.7 1084.1 462.8 1078.65 471.5 1075.25 476.95 1074 478.6 1073.05 479.85 1071.45 481.65 1068.9 484.6 1068.85 484.65 1065.25 489 1059.25 498.5
L 1052.4 509.4
Q 1050.05 513.05 1048.2 516.2 1045.1 521.4 1042.35 527.1 1038.17109375 535.651953125 1034.85 544.75 1009.8857421875 588.1578125 986.95 645.1 972.6 680.8 948.55 750.05 923.7 821.75 910.5 855.1 908.35 860.5 907.5 863.45 906.15 868.2 906.3 872.1 906.466796875 871.9583984375 906.6 871.8 906.1658203125 873.5310546875 908.05 874.85 910 876.2 911.95 875.45 913.65 874.8 915.05 873 915.9 871.8 917.1 869.4 930.3 842.2 950.75 790.8 972.65 735.65 983.65 711.9 995.6 686.05 1014.1 652 1024.85 632.35 1046.75 593.2 1087 520.25 1104.1 472.1 1104.85 469.95 1105.1 468.75 1105.5 466.85 1105.15 465.35 1105.103125 465.1447265625 1105.05 464.95 1105.7369140625 463.9775390625 1106.4 463 1106.5966796875 463.095703125 1106.75 463.2
L 1107.55 462.4 1107.2 461.85
Q 1123.59296875 438.208203125 1136.25 412.85 1137.45 410.45 1137.35 409.1 1137.3328125 408.6337890625 1137.15 408.15 1137.1791015625 408.030859375 1137.15 407.85 1136.7552734375 391.6205078125 1148.15 372.45 1146.95 373 1146 374.4 1145.5 375.2 1144.65 377.15 1143.6 379.6 1140.85 384.65 1138.25 389.5 1137.1 392.2 1134.002734375 399.8828125 1135.3 405.75 1134.622265625 405.3142578125 1133.8 405.05 1132.4166015625 404.638671875 1130.9 404.85 1131.90234375 394.22578125 1137.35 382.8 1141.75 373.55 1150 362.25 1159.776953125 348.89296875 1170.85 337.1
M 1103.3 462.45
Q 1103.23671875 462.4029296875 1103.15 462.35 1103.8603515625 462.37421875 1104.45 462.45 1104.2150390625 462.80234375 1104 463.1 1103.6978515625 462.7654296875 1103.3 462.45
M 1172.85 335
L 1172.85 335.15
Q 1172.7392578125 335.195703125 1172.6 335.2 1172.7416015625 335.1126953125 1172.85 335
M 1084.7 468.1
Q 1089.537109375 461.307421875 1093.2 457 1093.16953125 457.9384765625 1093.65 458.65 1093.7326171875 458.937109375 1093.9 459.2 1094.2 459.6 1094.9 460 1095.10859375 460.120703125 1095.25 460.2 1094.957421875 460.577734375 1094.65 460.9 1094.9552734375 461.09921875 1095.25 461.3 1095.5470703125 460.9404296875 1095.85 460.55 1095.984765625 460.6509765625 1096.05 460.7 1096.25 460.85 1096.85 461.4 1097.3 461.85 1097.65 462 1098.25 462.3 1099.35 462.3
L 1100.05 462.3
Q 1099.91640625 463.4716796875 1100.4 464.6 1101 466.05 1102.25 466.75 1091.35 498.95 1073.6 535.6 1060.65 562.35 1038.75 601.8 1003.9 664.65 1002.4 667.4 982.1 705.1 969.2 734.5 963.25 748.05 942.8 799.95 927.1390625 839.8412109375 914.9 863.75 914.735546875 864.1384765625 914.55 864.5 912.95 867.65 911.4 869.3 909.274609375 871.5220703125 906.85 871.6 909.8263671875 868.8822265625 912.2 864.5 912.6111328125 863.7525390625 913.05 862.8 914.423046875 860.0052734375 916.15 855.5 924.980859375 832.4677734375 936.8 797.95 941.4119140625 784.5861328125 946.45 769.5 968.35 704.05 975.85 683.1 993.1 634.85 1009.55 598.9 1021.4765625 572.82734375 1034.45 549.8 1034.471484375 549.85859375 1034.5 549.9 1034.64453125 549.5603515625 1034.8 549.2 1037.6421875 544.1576171875 1040.55 539.25 1039.965234375 539.16015625 1039.4 538.95 1045.9400390625 525.23828125 1053.7 512.7 1060.15 502.25 1074.45 482.35
L 1084.7 468.1
M 1128.6 408.25
Q 1130.4 407.2 1132.45 407.2 1134.65 407.25 1136.05 408.55 1124.901171875 432.4708984375 1110.15 454.2 1108.198828125 457.1349609375 1106.15 460
L 1105.95 459.7
Q 1105.35 458.7 1104.95 458.3 1104.3 457.6 1102.4 456.9 1100.840234375 456.27109375 1099.5 455.8 1100.1263671875 455.0505859375 1100.75 454.25 1100.033984375 455.0142578125 1099.3 455.75 1099.2380859375 455.75234375 1099.15 455.7 1099.6671875 454.7021484375 1100.15 453.5 1101.6244140625 453.9244140625 1101.95 454.25
L 1102.35 454.6
Q 1102.65 454.8 1103.05 454.9 1104.55 455.35 1106.1 454.9 1107.7 454.4 1108.7 453.2 1107.3 451.55 1105.15 451.25 1105.05 450.6 1104.4 450.2 1103.8 449.85 1103.05 449.8 1102.1 449.8 1101.65 449.8
L 1101.6 449.8
Q 1101.8375 449.2697265625 1102 448.85 1105.35 440.45 1111.45 430.8 1115.05 425.15 1123.1 413.95 1124.8 411.65 1125.6 410.8 1127.1 409.1 1128.6 408.25
M 1149.7 390.15
L 1149.2 389.5
Q 1148.65 390.7 1146.8 392.65
L 1142.4 397.45
Q 1139.55 400.8 1138 404.05 1137.6 404.95 1137.6 405.5 1137.6 406.5 1138.4 406.65 1139.1 406.9 1140 405.9 1140.85 404.85 1141.8 402.95 1143.15 400.25 1143.35 399.85 1143.7 399.35 1144.35 398.3 1144.9 397.4 1145.2 396.7 1145.5 395.95 1146.1 394.4 1146.55 393.6 1147.95 392.3 1149.3 391.05 1149.7 390.15 Z"/>

<path fill="#C7AE57" stroke="none" d="
M 1132.45 407.2
Q 1130.4 407.2 1128.6 408.25 1127.1 409.1 1125.6 410.8 1124.8 411.65 1123.1 413.95 1115.05 425.15 1111.45 430.8 1105.35 440.45 1102 448.85 1101.8375 449.2697265625 1101.6 449.8
L 1101.65 449.8
Q 1102.1 449.8 1103.05 449.8 1103.8 449.85 1104.4 450.2 1105.05 450.6 1105.15 451.25 1107.3 451.55 1108.7 453.2 1107.7 454.4 1106.1 454.9 1104.55 455.35 1103.05 454.9 1102.65 454.8 1102.35 454.6
L 1101.95 454.25
Q 1101.6244140625 453.9244140625 1100.15 453.5 1099.6671875 454.7021484375 1099.15 455.7 1099.2380859375 455.75234375 1099.3 455.75 1100.033984375 455.0142578125 1100.75 454.25 1100.1263671875 455.0505859375 1099.5 455.8 1100.840234375 456.27109375 1102.4 456.9 1104.3 457.6 1104.95 458.3 1105.35 458.7 1105.95 459.7
L 1106.15 460
Q 1108.198828125 457.1349609375 1110.15 454.2 1124.901171875 432.4708984375 1136.05 408.55 1134.65 407.25 1132.45 407.2
M 1082.75 510.55
Q 1082.45 509.15 1081.4 508.2 1080.25 507.2 1078.95 507.3 1078.6 507.3 1076.7 507.95 1074.7 508.5 1073.8 509 1072.1 509.9 1070.45 512.6 1069.6 513.9 1069.1 515.2 1068.15 517.95 1069.15 520.15 1069.75 521.3 1070.8 522.05 1071.95 522.75 1073.2 522.7 1074.35 522.65 1076.35 521.45
L 1079.3 519.65
Q 1080.65 518.8 1081.2 518.05 1081.65 517.45 1082.2 515.95 1083.25 512.55 1082.75 510.55
M 1078.45 510.35
Q 1078.95 510.4 1079.15 511.2 1079.55 512.75 1078.75 514.1 1077.85 515.55 1075.15 516.75 1073.5 517.45 1072.6 517.3 1073.1 515.15 1074.95 512.7 1075.5 511.95 1076.05 511.6
L 1077.25 511
Q 1077.45 510.85 1077.85 510.55 1078.15 510.3 1078.45 510.35
M 1032.5 588.9
Q 1032.3 589.35 1031.75 589.75 1031.1 590.2 1030.8 590.4 1029.5 591.45 1028.15 594.7
L 1025.15 602.6
Q 1024.3 604.6 1023.6 605.3 1023.15 605.75 1022.3 606.25 1021.2 606.9 1020.9 607.1 1019.5 608.15 1018.95 609.95 1018.4 611.75 1019 613.45 1019.3 614.2 1019.8 614.4 1020.25 614.6 1020.7 614.25 1021.15 613.9 1021.25 613.4 1021.35 613 1021.4 612.4 1021.4 611.75 1021.4 611.4 1021.5 610.3 1022.2 609.3 1022.9 608.35 1024 607.95 1024.4 607.85 1025.15 607.6 1025.8 607.4 1026.15 607.05 1026.75 606.5 1026.95 604.8 1027.25 602.3 1027.85 599.8 1029.4 593.95 1032.9 593.15 1033.35 593.1 1034.2 592.95 1034.85 592.75 1035.15 592.3 1035.4 591.95 1035.4 590.85
L 1035.15 585.15
Q 1035.05 583.8 1034.45 583.4 1033.75 583 1033.05 583.75 1032.4 584.5 1032.45 585.45 1032.5 586.05 1032.75 587.25 1032.85 588.3 1032.5 588.9
M 1059.6 537.45
Q 1059.3 537.6 1058.2 537.7 1057.3 537.8 1056.95 538.2 1056.4 538.95 1057.25 540.45
L 1056.8 540.9
Q 1056.4 540.75 1056.3 540.3 1056.15 539.85 1056.4 539.5
L 1055.2 539.1
Q 1054.2 540.1 1054.3 541.7 1054.4 543.2 1055.4 544.3 1056.7 545.8 1058.2 545.4 1059.75 545 1060.1 543.25 1060.4 542.05 1059.95 540.3 1061.15 540.65 1062.1 539.5 1062.6 538.85 1063 537.25
L 1063.4 535.6
Q 1063.6 534.9 1063.45 534.55 1061.9 535.15 1061.05 536.15 1060.65 536.65 1060.4 536.9 1060 537.3 1059.6 537.45
M 1047.75 542.6
Q 1047.15 542.75 1046.9 543.25 1046.55 543.95 1047.3 545.2
L 1052.45 553.55
Q 1050.65 552.3 1048.45 552.75 1047.85 552.9 1047.55 552.95 1047 553.05 1046.65 552.95 1046.15 552.85 1045.6 552.25 1045 551.6 1044.65 551.3 1044.1 550.85 1043.35 550.95 1042.55 551 1042.5 551.6 1042.45 552.1 1043 552.75
L 1045.95 556.2
Q 1047.1 557.55 1047.5 558.25 1048.25 559.45 1048.3 560.6 1048.35 561.9 1047.3 562.9 1046.2 563.9 1045.05 563.4 1045.65 562.7 1045.4 561.75 1044.9 562.3 1044.05 562.2 1043.25 562.15 1042.5 561.7 1040.85 560.4 1039.85 560.1 1039.05 559.85 1038.25 560.2 1037.45 560.6 1037.4 561.35 1037.4 561.8 1037.95 562.7
L 1039.95 565.7
Q 1041.25 567.6 1041.3 568.8 1041.35 569.75 1040.85 570.8 1040.6 571.4 1039.8 572.6
L 1037.1 576.5
Q 1036.6 577.3 1036.75 577.7 1036.95 578.3 1038.2 578.2 1045.3 577.6 1047 573.9 1047.95 571.9 1047 569.7 1046 567.45 1043.95 566.75 1048 566.65 1050.25 564.25 1051.45 562.95 1051.75 561.2 1052.1 559.35 1051.25 557.9 1051.2 557.8 1049.4 555.6 1048.35 554.25 1048.45 553.1
L 1053.25 554.85
Q 1054.95 555.5 1055.6 554.8 1056.35 554 1055.4 552.3 1053.4 548.9 1051.15 546.2 1051.25 545.1 1050.6 544.1 1049.95 543.1 1048.9 542.7 1048.35 542.5 1047.75 542.6
M 1043 570.55
Q 1043.5 570.95 1043.9 571.55
L 1044 571.85
Q 1044 571.9 1043.85 572.2 1043.65 572.5 1042.7 573.45
L 1042.4 573.7
Q 1042.2 573.8 1041.7 573.75 1041.2 573.7 1041 573.75 1041.25 573.5 1041.45 573 1041.65 572.45 1041.75 572.15 1041.9 571.75 1042.4 571.05 1042.75 570.6 1043 570.55 Z"/>

<path fill="#8A6040" stroke="none" d="
M 1093.2 457
Q 1089.537109375 461.307421875 1084.7 468.1
L 1074.45 482.35
Q 1060.15 502.25 1053.7 512.7 1045.9400390625 525.23828125 1039.4 538.95 1039.965234375 539.16015625 1040.55 539.25 1037.6421875 544.1576171875 1034.8 549.2 1034.64453125 549.5603515625 1034.5 549.9 1034.471484375 549.85859375 1034.45 549.8 1021.4765625 572.82734375 1009.55 598.9 993.1 634.85 975.85 683.1 968.35 704.05 946.45 769.5 941.4119140625 784.5861328125 936.8 797.95 924.980859375 832.4677734375 916.15 855.5 914.423046875 860.0052734375 913.05 862.8 912.6111328125 863.7525390625 912.2 864.5 909.8263671875 868.8822265625 906.85 871.6 909.274609375 871.5220703125 911.4 869.3 912.95 867.65 914.55 864.5 914.735546875 864.1384765625 914.9 863.75 927.1390625 839.8412109375 942.8 799.95 963.25 748.05 969.2 734.5 982.1 705.1 1002.4 667.4 1003.9 664.65 1038.75 601.8 1060.65 562.35 1073.6 535.6 1091.35 498.95 1102.25 466.75 1101 466.05 1100.4 464.6 1099.91640625 463.4716796875 1100.05 462.3
L 1099.35 462.3
Q 1098.25 462.3 1097.65 462 1097.3 461.85 1096.85 461.4 1096.25 460.85 1096.05 460.7 1095.984765625 460.6509765625 1095.85 460.55 1095.5470703125 460.9404296875 1095.25 461.3 1094.9552734375 461.09921875 1094.65 460.9 1094.957421875 460.577734375 1095.25 460.2 1095.10859375 460.120703125 1094.9 460 1094.2 459.6 1093.9 459.2 1093.7326171875 458.937109375 1093.65 458.65 1093.16953125 457.9384765625 1093.2 457
M 1046.9 543.25
Q 1047.15 542.75 1047.75 542.6 1048.35 542.5 1048.9 542.7 1049.95 543.1 1050.6 544.1 1051.25 545.1 1051.15 546.2 1053.4 548.9 1055.4 552.3 1056.35 554 1055.6 554.8 1054.95 555.5 1053.25 554.85
L 1048.45 553.1
Q 1048.35 554.25 1049.4 555.6 1051.2 557.8 1051.25 557.9 1052.1 559.35 1051.75 561.2 1051.45 562.95 1050.25 564.25 1048 566.65 1043.95 566.75 1046 567.45 1047 569.7 1047.95 571.9 1047 573.9 1045.3 577.6 1038.2 578.2 1036.95 578.3 1036.75 577.7 1036.6 577.3 1037.1 576.5
L 1039.8 572.6
Q 1040.6 571.4 1040.85 570.8 1041.35 569.75 1041.3 568.8 1041.25 567.6 1039.95 565.7
L 1037.95 562.7
Q 1037.4 561.8 1037.4 561.35 1037.45 560.6 1038.25 560.2 1039.05 559.85 1039.85 560.1 1040.85 560.4 1042.5 561.7 1043.25 562.15 1044.05 562.2 1044.9 562.3 1045.4 561.75 1045.65 562.7 1045.05 563.4 1046.2 563.9 1047.3 562.9 1048.35 561.9 1048.3 560.6 1048.25 559.45 1047.5 558.25 1047.1 557.55 1045.95 556.2
L 1043 552.75
Q 1042.45 552.1 1042.5 551.6 1042.55 551 1043.35 550.95 1044.1 550.85 1044.65 551.3 1045 551.6 1045.6 552.25 1046.15 552.85 1046.65 552.95 1047 553.05 1047.55 552.95 1047.85 552.9 1048.45 552.75 1050.65 552.3 1052.45 553.55
L 1047.3 545.2
Q 1046.55 543.95 1046.9 543.25
M 1058.2 537.7
Q 1059.3 537.6 1059.6 537.45 1060 537.3 1060.4 536.9 1060.65 536.65 1061.05 536.15 1061.9 535.15 1063.45 534.55 1063.6 534.9 1063.4 535.6
L 1063 537.25
Q 1062.6 538.85 1062.1 539.5 1061.15 540.65 1059.95 540.3 1060.4 542.05 1060.1 543.25 1059.75 545 1058.2 545.4 1056.7 545.8 1055.4 544.3 1054.4 543.2 1054.3 541.7 1054.2 540.1 1055.2 539.1
L 1056.4 539.5
Q 1056.15 539.85 1056.3 540.3 1056.4 540.75 1056.8 540.9
L 1057.25 540.45
Q 1056.4 538.95 1056.95 538.2 1057.3 537.8 1058.2 537.7
M 1031.75 589.75
Q 1032.3 589.35 1032.5 588.9 1032.85 588.3 1032.75 587.25 1032.5 586.05 1032.45 585.45 1032.4 584.5 1033.05 583.75 1033.75 583 1034.45 583.4 1035.05 583.8 1035.15 585.15
L 1035.4 590.85
Q 1035.4 591.95 1035.15 592.3 1034.85 592.75 1034.2 592.95 1033.35 593.1 1032.9 593.15 1029.4 593.95 1027.85 599.8 1027.25 602.3 1026.95 604.8 1026.75 606.5 1026.15 607.05 1025.8 607.4 1025.15 607.6 1024.4 607.85 1024 607.95 1022.9 608.35 1022.2 609.3 1021.5 610.3 1021.4 611.4 1021.4 611.75 1021.4 612.4 1021.35 613 1021.25 613.4 1021.15 613.9 1020.7 614.25 1020.25 614.6 1019.8 614.4 1019.3 614.2 1019 613.45 1018.4 611.75 1018.95 609.95 1019.5 608.15 1020.9 607.1 1021.2 606.9 1022.3 606.25 1023.15 605.75 1023.6 605.3 1024.3 604.6 1025.15 602.6
L 1028.15 594.7
Q 1029.5 591.45 1030.8 590.4 1031.1 590.2 1031.75 589.75
M 1081.4 508.2
Q 1082.45 509.15 1082.75 510.55 1083.25 512.55 1082.2 515.95 1081.65 517.45 1081.2 518.05 1080.65 518.8 1079.3 519.65
L 1076.35 521.45
Q 1074.35 522.65 1073.2 522.7 1071.95 522.75 1070.8 522.05 1069.75 521.3 1069.15 520.15 1068.15 517.95 1069.1 515.2 1069.6 513.9 1070.45 512.6 1072.1 509.9 1073.8 509 1074.7 508.5 1076.7 507.95 1078.6 507.3 1078.95 507.3 1080.25 507.2 1081.4 508.2
M 1079.15 511.2
Q 1078.95 510.4 1078.45 510.35 1078.15 510.3 1077.85 510.55 1077.45 510.85 1077.25 511
L 1076.05 511.6
Q 1075.5 511.95 1074.95 512.7 1073.1 515.15 1072.6 517.3 1073.5 517.45 1075.15 516.75 1077.85 515.55 1078.75 514.1 1079.55 512.75 1079.15 511.2
M 1043.9 571.55
Q 1043.5 570.95 1043 570.55 1042.75 570.6 1042.4 571.05 1041.9 571.75 1041.75 572.15 1041.65 572.45 1041.45 573 1041.25 573.5 1041 573.75 1041.2 573.7 1041.7 573.75 1042.2 573.8 1042.4 573.7
L 1042.7 573.45
Q 1043.65 572.5 1043.85 572.2 1044 571.9 1044 571.85
L 1043.9 571.55 Z"/>

<path fill="#B67828" stroke="none" d="
M 1170.3 339.25
Q 1170.50078125 337.9705078125 1170.85 337.1 1159.776953125 348.89296875 1150 362.25 1141.75 373.55 1137.35 382.8 1131.90234375 394.22578125 1130.9 404.85 1132.4166015625 404.638671875 1133.8 405.05 1134.622265625 405.3142578125 1135.3 405.75 1134.002734375 399.8828125 1137.1 392.2 1138.25 389.5 1140.85 384.65 1143.6 379.6 1144.65 377.15 1145.5 375.2 1146 374.4 1146.95 373 1148.15 372.45 1136.7552734375 391.6205078125 1137.15 407.85
L 1137.45 407.8
Q 1141.13515625 406.121875 1144.45 403.55 1150.9998046875 395.9021484375 1154.4 391.15 1158.52578125 385.3365234375 1161.2 379.8 1161.9501953125 378 1162.65 376.1 1164.3251953125 371.294921875 1165.25 368.6 1165.7283203125 366.7955078125 1166.15 364.75 1166.65 362.2 1167.65 356.1
L 1170.3 339.25
M 1149.2 389.5
L 1149.7 390.15
Q 1149.3 391.05 1147.95 392.3 1146.55 393.6 1146.1 394.4 1145.5 395.95 1145.2 396.7 1144.9 397.4 1144.35 398.3 1143.7 399.35 1143.35 399.85 1143.15 400.25 1141.8 402.95 1140.85 404.85 1140 405.9 1139.1 406.9 1138.4 406.65 1137.6 406.5 1137.6 405.5 1137.6 404.95 1138 404.05 1139.55 400.8 1142.4 397.45
L 1146.8 392.65
Q 1148.65 390.7 1149.2 389.5 Z"/>
</g>
</defs>

<g transform="matrix( 1, 0, 0, 1, 0,0) ">
<use xlink:href="#Layer10_0_FILL"/>
</g>
</svg>
