<svg version="1.1" xmlns="http://www.w3.org/2000/svg" xmlns:xlink="http://www.w3.org/1999/xlink" width="270.0085" height="135.76384" viewBox="0,0,270.0085,135.76384"><g transform="translate(-179.10757,-151.04874)"><g data-paper-data="{&quot;isPaintingLayer&quot;:true}" fill-rule="nonzero" stroke-linecap="butt" stroke-linejoin="miter" stroke-miterlimit="10" stroke-dasharray="" stroke-dashoffset="0" style="mix-blend-mode: normal"><path d="M200.40284,226.86349c-0.80718,0.56786 -1.7394,0.82054 -2.79666,0.75804c-1.05202,-0.06748 -1.94044,-0.43518 -2.66527,-1.10311c-0.20508,-0.18421 -0.51835,-0.53995 -0.93982,-1.06722l-1.13027,-1.42497c-0.11357,-0.16144 -0.22569,-0.27935 -0.33633,-0.35376c-0.05097,-0.03086 -0.16751,-0.07473 -0.34962,-0.13159l-0.07556,-2.17328c-0.10045,0.53456 -0.23145,1.06322 -0.39298,1.58601c-0.04204,0.13383 -0.08118,0.26583 -0.11742,0.39601c-0.45512,-0.17028 -0.89315,-0.44733 -1.31407,-0.83114c-0.41014,-0.36841 -0.8375,-0.86514 -1.28208,-1.49019c-1.00273,-1.41152 -1.803,-2.9407 -2.40082,-4.58752c-0.60803,-1.64708 -0.9875,-3.33186 -1.13839,-5.05436c-0.00475,-0.05267 -0.01119,-0.10143 -0.01932,-0.14627c0.34822,-0.84078 0.75003,-1.66184 1.20543,-2.46319c0.14538,-0.28789 0.09221,-0.51174 -0.15952,-0.67155c-0.28188,-0.18103 -0.53417,-0.11579 -0.75687,0.19572c-0.47447,0.76448 -0.89372,1.5672 -1.25774,2.40817c-0.3964,-0.10208 -0.62384,-0.51447 -0.68233,-1.23719c-0.03263,-0.32819 -0.07992,-0.58259 -0.14185,-0.76319c-0.02421,-0.06803 -0.05072,-0.13264 -0.0795,-0.19382c0.07053,-0.11863 0.14768,-0.23688 0.23146,-0.35477c-0.25633,0.26241 -0.50893,0.54248 -0.7578,0.84021c0.22289,-1.14672 0.57097,-2.27093 1.04424,-3.37264c0.18438,-0.41478 0.21258,-0.72098 0.08458,-0.91859c-0.08891,-0.12501 -0.22015,-0.19482 -0.3937,-0.20944c-0.16307,-0.02458 -0.3147,0.00485 -0.45492,0.08826c-0.18686,0.10781 -0.39217,0.33793 -0.61591,0.69034l-2.59872,4.16205c-0.18721,-2.10705 0.0439,-4.37233 0.69333,-6.79586c0.39378,-1.45684 0.96595,-3.04855 1.71649,-4.77512c0.23929,-0.55059 0.4965,-1.11443 0.77162,-1.69153c0.71438,-1.49952 1.42283,-2.81669 2.12536,-3.95149c0.27648,-0.45133 0.55315,-0.87401 0.82998,-1.26806c1.25209,-1.77914 2.61797,-3.20247 4.09762,-4.26998l0.37029,-1.29501c1.21066,-1.15103 3.82214,-3.18486 7.83443,-6.10148c3.80722,-2.75712 6.2026,-4.33604 7.18616,-4.73677c-0.01482,0.02668 -0.02831,0.05448 -0.04047,0.08338c-0.27684,0.6324 -0.51498,1.35274 -0.71442,2.16101c-0.14264,0.58464 -0.29714,1.33522 -0.4635,2.25174c-0.15728,0.8654 -0.30191,1.73132 -0.43388,2.59776c-0.25788,1.62472 -0.47547,3.25351 -0.65279,4.88638c-0.39528,1.87737 -0.75999,3.76076 -1.09408,5.65018c-0.42528,2.45987 -0.8098,4.9259 -1.15355,7.39805c-0.37409,2.66066 -0.63609,5.33949 -0.78604,8.03649c-0.15543,2.71222 -0.22161,5.43435 -0.19852,8.16642c0.02334,2.72184 0.07501,5.43673 0.15497,8.14465c0.0313,0.96433 0.06838,1.92692 0.11123,2.88775c-0.02022,0.01455 -0.04106,0.02937 -0.0625,0.04446M190.65496,228.82711c-2.60492,0.05188 -4.30634,-1.23917 -5.1043,-3.87316c-0.11412,-0.38278 -0.22463,-0.76665 -0.33154,-1.1516c-0.41108,-1.4587 -0.77801,-2.9309 -1.10078,-4.41658l-0.13802,-0.00348c-0.01299,-1.35297 0.08465,-2.6881 0.29295,-4.00543l0.15061,1.02427c0.06519,0.45689 0.13678,0.8628 0.21478,1.21771c0.06511,0.25741 0.20239,0.69566 0.41182,1.31476l1.24863,3.42286c0.19706,0.50115 0.35226,0.83755 0.46557,1.00921c0.23212,0.32812 0.36039,0.5155 0.38479,0.56215c0.00945,0.03093 0.06941,0.18846 0.17989,0.47258c0.12018,0.30483 0.39376,0.71327 0.82073,1.22534c0.40232,0.47564 0.76658,0.83777 1.09278,1.08642c0.45181,0.33878 0.9046,0.53692 1.3584,0.59441c0.08691,0.01221 0.1788,0.01964 0.27565,0.0223c-0.0778,1.10594 -0.0573,2.219 0.06148,3.33918l-0.28345,-1.84094M190.31462,225.28908c-0.29915,-0.10474 -0.62128,-0.31237 -0.96638,-0.62287c-0.29502,-0.26832 -0.69063,-0.70542 -1.18685,-1.31131c-0.22766,-0.30243 -0.39055,-0.53672 -0.48865,-0.70288c-0.02939,-0.05189 -0.10455,-0.21492 -0.2255,-0.48908c-0.09235,-0.19159 -0.17538,-0.34714 -0.24909,-0.46665l-0.4237,-0.54012c-0.07422,-0.09906 -0.17509,-0.25762 -0.30257,-0.47568l-1.051,-1.82963c-0.08238,-0.18111 -0.18525,-0.46248 -0.30862,-0.84411c-0.13229,-0.43302 -0.21617,-0.75738 -0.25165,-0.97311c-0.03632,-0.38455 -0.06737,-0.67434 -0.09314,-0.86937c-0.05437,-0.27759 -0.08314,-0.45478 -0.08632,-0.53159c-0.01082,-0.17931 0.01462,-0.4779 0.07632,-0.89578c0.06067,-0.37699 0.07065,-0.67085 0.02993,-0.8816c-0.06665,-0.0241 -0.13297,-0.03089 -0.19898,-0.02037c0.10164,-0.41691 0.22206,-0.83075 0.36127,-1.24153c0.44719,1.94851 0.95235,3.61857 1.51546,5.01018c0.51173,1.26849 1.10712,2.40373 1.78615,3.40574c0.36944,0.5581 0.76561,1.0745 1.18851,1.5492c0.62181,0.69601 1.21143,1.14825 1.76883,1.35669c0.07571,0.02145 0.14938,0.04122 0.22101,0.05929c-0.12834,0.48837 -0.23275,0.97678 -0.31322,1.46525c-0.41017,-0.05839 -0.67745,-0.10861 -0.80183,-0.15068M200.66817,230.63749c0.03241,0.59439 0.06855,1.18866 0.10844,1.78281c-2.88652,1.88621 -5.25481,1.37884 -7.10486,-1.52211c-0.2164,-0.34306 -0.30424,-0.71357 -0.2635,-1.11152l-1.06134,-1.11632l-0.05058,-1.64324c0.09489,-0.05701 0.16565,-0.12427 0.21226,-0.2018c0.06671,-0.10751 0.09786,-0.22693 0.09344,-0.35826c-0.00585,-0.04362 -0.01491,-0.0899 -0.02718,-0.1388c-0.03127,-0.17983 -0.11692,-0.33288 -0.25695,-0.45917c-0.02043,-0.0194 -0.04298,-0.03787 -0.06766,-0.05542l-0.04504,-1.55869c0.13308,0.07008 0.25632,0.15247 0.36972,0.24719c0.23548,0.19521 0.46877,0.47731 0.69986,0.84632c0.245,0.42563 0.43912,0.73999 0.58233,0.9431c0.64131,0.93692 1.54871,1.56597 2.7222,1.88716c1.1837,0.32145 2.28796,0.24447 3.31276,-0.23094c0.2348,-0.11492 0.43739,-0.23768 0.60777,-0.36829c0.02172,0.45741 0.04602,0.91327 0.07289,1.36758c-0.12005,-0.01025 -0.25085,0.00436 -0.39242,0.0438c-0.07733,0.02362 -0.29186,0.11284 -0.6436,0.26764c-0.52735,0.22198 -1.14546,0.29078 -1.85433,0.20638c-0.46926,-0.05277 -1.09729,-0.19906 -1.88408,-0.43888c-0.51805,-0.14607 -0.88198,-0.31895 -1.09177,-0.51862c-0.05009,-0.04219 -0.20902,-0.23034 -0.47681,-0.56448c-0.18857,-0.22983 -0.37423,-0.37262 -0.55697,-0.42839c-0.08607,-0.23747 -0.2188,-0.45054 -0.39818,-0.63922c-0.17938,-0.18867 -0.38561,-0.32688 -0.61869,-0.4146c0.26494,0.44659 0.47773,0.93278 0.63837,1.45858c0.06563,0.23695 0.11747,0.41218 0.15553,0.52567c0.06116,0.21127 0.12585,0.38425 0.19406,0.51897c0.16655,0.31695 0.43485,0.63063 0.80489,0.94105c0.14807,0.12802 0.31366,0.25497 0.49678,0.38083c1.07115,0.72781 2.05304,1.14136 2.94568,1.24062c0.55603,0.06007 1.09196,0.00454 1.6078,-0.16658c0.46827,-0.16059 0.85799,-0.40139 1.16915,-0.7224M182.91041,213.43962c-0.03153,-0.16959 -0.08165,-0.31153 -0.15037,-0.42579c-0.08096,-0.13612 -0.19346,-0.2387 -0.3375,-0.30776c0.01979,-0.27424 0.04721,-0.54977 0.08225,-0.82658c0.06392,0.0528 0.1376,0.07257 0.22101,0.05929c0.01102,-0.60504 0.0543,-1.20498 0.12984,-1.79981c0.08843,-0.2765 0.19252,-0.55009 0.31229,-0.82077c0.04246,-0.10313 0.08855,-0.20683 0.13829,-0.31109c0.0424,0.33142 0.09498,0.68057 0.1577,1.04747c0.09379,0.53945 0.26407,0.88648 0.51081,1.04104c0.04536,0.02673 0.14145,0.07007 0.28828,0.13004c-0.44605,1.17204 -0.78361,2.38603 -1.01268,3.64198c-0.14062,-0.30247 -0.23486,-0.62198 -0.2827,-0.95855c-0.02027,-0.21023 -0.03934,-0.36672 -0.0572,-0.46948z" data-paper-data="{&quot;index&quot;:null}" fill="#ffffff" stroke="none" stroke-width="1"/><path d="M212.56463,174.13427c-0.00979,0.4999 -0.5097,0.49011 -0.5097,0.49011l-0.67759,-0.01626c-3.94915,0.81354 -7.73798,2.79609 -11.16658,4.89056c-4.4787,2.73456 -8.96489,5.47469 -12.48673,9.4259c0,0 -0.33276,0.37319 -0.70595,0.04042c-0.37319,-0.33276 -0.04042,-0.70595 -0.04042,-0.70595c3.59058,-4.02512 8.14725,-6.82676 12.71199,-9.61386c3.56159,-2.17354 7.48918,-4.21919 11.59806,-5.03305l0.78681,0.01242c0,0 0.4999,0.00979 0.49011,0.5097z" fill="#000000" stroke="none" stroke-width="0.5"/><path d="M197.98229,249.19133c-1.17256,-1.97847 -2.2154,-4.0304 -3.1285,-6.15577c-0.82599,-1.9288 -1.53088,-3.8929 -2.11467,-5.89232c0.26755,1.76124 0.63812,3.49441 1.1117,5.19947c0.54445,1.93703 1.18456,3.833 1.92034,5.68792c0.20179,0.5166 0.3113,1.04112 0.32856,1.57353c-0.09116,0.1665 -0.2361,0.23445 -0.43482,0.20385c-0.39271,-0.04572 -0.70578,-0.20708 -0.93919,-0.48408c-1.46975,-1.7558 -2.812,-3.59789 -4.02675,-5.52627c-1.15599,-1.8246 -2.22353,-3.70834 -3.20262,-5.65124c-1.01371,-1.9898 -1.85417,-4.05452 -2.52138,-6.19415c-1.02156,-3.29948 -1.81129,-6.66473 -2.36916,-10.09572c-0.38995,-2.38327 -0.66208,-4.7738 -0.81638,-7.17158c-0.11055,-1.59008 0.04678,-3.16157 0.47198,-4.71447c0.05138,-0.77812 0.18831,-1.54193 0.4108,-2.29144l-1.90935,3.29709c-0.34763,0.59992 -0.69881,0.83402 -1.05355,0.7023c-0.20293,-0.06651 -0.34678,-0.24405 -0.43157,-0.53264c-0.11967,-0.32527 -0.17622,-0.82031 -0.16967,-1.48512c0.01038,-1.62635 0.04908,-2.85556 0.11612,-3.68763c0.11612,-1.35769 0.34582,-2.55395 0.68908,-3.58877c0.15002,-0.47192 0.46639,-1.25166 0.94909,-2.33923l1.12991,-2.51113c0.61236,-1.36051 1.08553,-2.37415 1.4195,-3.04092c0.54981,-1.11145 1.09364,-2.08749 1.63149,-2.92814c0.88765,-1.36876 1.84495,-2.5134 2.8719,-3.43392c0.56563,-0.51579 1.1549,-0.96128 1.76777,-1.33646c0.28567,-0.17181 0.50652,-0.20716 0.66253,-0.10603c-1.47965,1.06751 -2.84552,2.49084 -4.09762,4.26998c-0.27683,0.39405 -0.55349,0.81674 -0.82998,1.26806c-0.70254,1.13481 -1.41098,2.45197 -2.12536,3.95149c-0.27512,0.5771 -0.53234,1.14094 -0.77162,1.69153c-0.75054,1.72657 -1.32271,3.31827 -1.71649,4.77512c-0.64944,2.42353 -0.88054,4.68881 -0.69333,6.79586l2.59872,-4.16205c0.22373,-0.35241 0.42904,-0.58253 0.61591,-0.69034c0.14021,-0.08342 0.29186,-0.11284 0.45492,-0.08826c0.17355,0.01461 0.30478,0.08443 0.3937,0.20944c0.128,0.19761 0.09981,0.50381 -0.08458,0.91859c-0.47328,1.10171 -0.82136,2.22592 -1.04424,3.37264c0.24887,-0.29773 0.50147,-0.5778 0.7578,-0.84021c-0.08378,0.11789 -0.16093,0.23615 -0.23146,0.35477c-0.09846,0.1633 -0.187,0.32731 -0.26562,0.49202c-0.04973,0.10426 -0.09583,0.20796 -0.13829,0.31109c-0.11976,0.27068 -0.22386,0.54427 -0.31228,0.82077c-0.07554,0.59483 -0.11883,1.19477 -0.12985,1.79981c-0.08341,0.01328 -0.15709,-0.00648 -0.22102,-0.05929c-0.03504,0.27681 -0.06246,0.55234 -0.08225,0.82658c-0.07101,0.90047 -0.07864,1.81077 -0.02291,2.7309c0.05341,0.77489 0.13353,1.55186 0.24038,2.3309c0.08295,0.58418 0.18071,1.16977 0.29324,1.75678c-0.00995,-0.18921 -0.01539,-0.37861 -0.01634,-0.5682c-0.03436,-1.25044 0.0506,-2.48871 0.25492,-3.71482c0.02138,-0.12522 0.04755,-0.24988 0.0785,-0.37398c0.22907,-1.25596 0.56663,-2.46994 1.01268,-3.64198c0.01941,-0.04796 0.03853,-0.09608 0.05736,-0.14434c0.0508,-0.1247 0.10253,-0.24871 0.15518,-0.37204c0.36402,-0.84096 0.78328,-1.64368 1.25775,-2.40816c0.2227,-0.31152 0.47499,-0.37676 0.75686,-0.19573c0.25172,0.15981 0.3049,0.38366 0.15952,0.67156c-0.4554,0.80135 -0.85721,1.62241 -1.20543,2.46319c-0.08495,0.20624 -0.16692,0.41389 -0.24591,0.62296c-0.09077,0.24205 -0.17364,0.48549 -0.24862,0.7303c-0.1392,0.41078 -0.25963,0.82462 -0.36127,1.24153c-0.10129,0.39437 -0.18804,0.79115 -0.26024,1.19037c-0.02015,0.1173 -0.03845,0.23448 -0.05491,0.35156c-0.20829,1.31732 -0.30594,2.65247 -0.29295,4.00543c0.01914,2.68593 0.29478,5.34253 0.82692,7.9698c0.51375,2.54497 1.24401,5.02378 2.19077,7.43646c1.0331,2.63992 2.27063,5.18526 3.71261,7.63601c1.21139,2.0613 2.56678,3.99067 4.06617,5.78814c-1.26479,-3.18798 -2.22304,-6.46284 -2.87473,-9.82459c-0.49855,-2.53947 -0.81977,-5.11282 -0.96366,-7.72005c-0.11877,-1.12018 -0.13927,-2.23323 -0.06148,-3.33918c0.04548,-0.63227 0.12532,-1.26198 0.23952,-1.88911c0.08047,-0.48846 0.18487,-0.97688 0.31322,-1.46525c0.05,-0.20537 0.10641,-0.41365 0.16923,-0.62489c0.03623,-0.13018 0.07538,-0.2622 0.11742,-0.39602c0.16154,-0.52278 0.29254,-1.05144 0.39299,-1.586l0.07556,2.17328l0.02034,0.71408l0.04504,1.55869l0.04609,1.21346l0.05058,1.64323c0.12687,2.6733 0.56477,5.28541 1.31367,7.83632c0.78669,2.67462 1.77272,5.25453 2.95806,7.73972c1.14652,2.40237 2.42001,4.73889 3.8205,7.00957c1.04662,1.69908 2.14515,3.36877 3.29556,5.00909l1.94302,2.35854l-0.86062,-2.68416c-0.74941,-2.53046 -1.39294,-5.10172 -1.93058,-7.71378c-0.53763,-2.61206 -0.98798,-5.23727 -1.35104,-7.87562c-0.35833,-2.62288 -0.61129,-5.26612 -0.75887,-7.92972c-0.03989,-0.59414 -0.07604,-1.18842 -0.10844,-1.78281c-0.03823,-0.5619 -0.07002,-1.12536 -0.09542,-1.6904c-0.02687,-0.45431 -0.05117,-0.91017 -0.07289,-1.36758c-0.01187,-0.25358 -0.02336,-0.50708 -0.0345,-0.76047c-0.04286,-0.96083 -0.07994,-1.92342 -0.11123,-2.88775c-0.07996,-2.70792 -0.13163,-5.42281 -0.15497,-8.14465c-0.02309,-2.73207 0.04308,-5.4542 0.19852,-8.16642c0.14994,-2.69701 0.41195,-5.37584 0.78604,-8.03649c0.34375,-2.47216 0.72827,-4.93818 1.15356,-7.39805c0.33409,-1.88942 0.69879,-3.77281 1.09407,-5.65017c0.17732,-1.63287 0.39492,-3.26167 0.65279,-4.88638c0.13197,-0.86644 0.2766,-1.73236 0.43388,-2.59777c0.16636,-0.91652 0.32086,-1.6671 0.46351,-2.25174c0.19944,-0.80827 0.43757,-1.52862 0.71442,-2.16101c0.01216,-0.02891 0.02565,-0.05669 0.04047,-0.08337c0.09172,-0.19448 0.21081,-0.3526 0.35725,-0.47436c0.20362,-0.16365 0.39117,-0.19729 0.56265,-0.10088c0.23703,0.13386 0.30334,0.445 0.19894,0.93342l-1.90174,9.68097c-0.13362,0.70301 -0.26853,1.28529 -0.40472,1.74683c-0.33173,1.62431 -0.65655,3.24529 -0.97445,4.86291c-0.49471,2.57576 -0.91549,5.16107 -1.26233,7.75592c-0.28463,2.15652 -0.51067,4.32219 -0.67811,6.497c-0.14811,2.01674 -0.24286,4.04761 -0.28427,6.09263c-0.06454,2.55593 -0.07546,5.11579 -0.03277,7.67955c0.04047,2.24657 0.1192,4.49666 0.23622,6.75027c0.1244,2.36633 0.24905,4.72244 0.37397,7.06832c0.10955,1.9414 0.25227,3.8862 0.42814,5.83439c0.21246,2.32252 0.55075,4.6252 1.01486,6.90804c0.52346,2.56567 1.10629,5.10982 1.74848,7.63245c0.52563,2.07467 1.01522,4.15866 1.46877,6.25197c0.06855,0.32398 0.01952,0.645 -0.14708,0.96305c-0.21831,0.13771 -0.40693,0.1125 -0.56587,-0.07566c-1.053,-1.24399 -2.04388,-2.5171 -2.97265,-3.81934c-1.7492,-2.43805 -3.38898,-4.95518 -4.91936,-7.55138z" data-paper-data="{&quot;index&quot;:null}" fill="#000000" stroke="none" stroke-width="1"/><path d="M190.60128,227.30657c-0.45379,-0.0575 -0.90659,-0.25563 -1.3584,-0.59441c-0.32621,-0.24865 -0.69046,-0.61078 -1.09278,-1.08642c-0.42697,-0.51206 -0.70056,-0.92051 -0.82073,-1.22534c-0.11048,-0.28412 -0.17044,-0.44165 -0.17989,-0.47258c-0.02439,-0.04665 -0.15266,-0.23404 -0.38479,-0.56215c-0.11332,-0.17166 -0.26851,-0.50807 -0.46557,-1.00921l-1.24863,-3.42286c-0.20944,-0.6191 -0.34671,-1.05736 -0.41182,-1.31476c-0.07799,-0.35491 -0.14959,-0.76082 -0.21478,-1.21771l-0.15061,-1.02427c0.01646,-0.11707 0.03476,-0.23426 0.05491,-0.35156c0.0722,-0.39922 0.15894,-0.796 0.26024,-1.19037c0.066,-0.01052 0.13233,-0.00374 0.19898,0.02037c0.04071,0.21075 0.03074,0.50462 -0.02993,0.88161c-0.0617,0.41789 -0.08714,0.71648 -0.07633,0.89578c0.00318,0.07681 0.03195,0.25401 0.08633,0.53159c0.02577,0.19503 0.05681,0.48482 0.09314,0.86937c0.03547,0.21573 0.11936,0.5401 0.25165,0.97311c0.12336,0.38164 0.22623,0.66301 0.30862,0.84412l1.051,1.82962c0.12749,0.21806 0.22835,0.37661 0.30257,0.47568l0.4237,0.54012c0.07371,0.11951 0.15674,0.27506 0.24909,0.46665c0.12096,0.27416 0.19612,0.43718 0.2255,0.48908c0.09811,0.16617 0.26099,0.40045 0.48865,0.70288c0.49622,0.60589 0.89183,1.04299 1.18685,1.31131c0.3451,0.3105 0.66724,0.51813 0.96638,0.62287c0.12438,0.04207 0.39165,0.0923 0.80183,0.15068c-0.1142,0.62714 -0.19404,1.25684 -0.23952,1.88911c-0.09686,-0.00267 -0.18874,-0.01011 -0.27565,-0.0223M184.80724,227.35208c-0.53214,-2.62727 -0.80778,-5.28387 -0.82692,-7.9698l0.13802,0.00348c0.32276,1.48569 0.6897,2.95788 1.10078,4.41658c0.10691,0.38495 0.21742,0.76882 0.33154,1.1516c0.79795,2.63398 2.49939,3.92503 5.1043,3.87316l0.28345,1.84094c0.14389,2.60724 0.46511,5.18059 0.96366,7.72005c0.6517,3.36175 1.60994,6.63662 2.87473,9.82459c-1.49939,-1.79746 -2.85478,-3.72684 -4.06617,-5.78813c-1.44197,-2.45075 -2.6795,-4.99609 -3.71261,-7.63601c-0.94677,-2.41268 -1.67703,-4.89149 -2.19078,-7.43646M188.25131,221.00932c-0.67903,-1.00201 -1.27441,-2.13726 -1.78615,-3.40574c-0.56311,-1.39161 -1.06827,-3.06167 -1.51546,-5.01018c0.07497,-0.24481 0.15785,-0.48825 0.24862,-0.7303c0.07899,-0.20906 0.16096,-0.41672 0.24591,-0.62296c0.00813,0.04484 0.01458,0.0936 0.01933,0.14627c0.15088,1.7225 0.53034,3.40728 1.13838,5.05436c0.59782,1.64683 1.39809,3.176 2.40082,4.58752c0.44458,0.62504 0.87194,1.12177 1.28208,1.49019c0.42092,0.38381 0.85894,0.66086 1.31407,0.83115c-0.06282,0.21124 -0.11923,0.41952 -0.16923,0.62489c-0.07164,-0.01808 -0.1453,-0.03784 -0.22101,-0.05929c-0.5574,-0.20845 -1.14701,-0.66068 -1.76883,-1.35669c-0.4229,-0.4747 -0.81908,-0.9911 -1.18852,-1.5492M192.29633,227.02711l-0.04609,-1.21346c0.02468,0.01755 0.04722,0.03602 0.06766,0.05542c0.14003,0.12631 0.22569,0.27936 0.25695,0.45917c0.01227,0.0489 0.02133,0.09517 0.02718,0.1388c0.00441,0.13132 -0.02674,0.25075 -0.09344,0.35826c-0.04662,0.07753 -0.11736,0.14479 -0.21226,0.2018M199.49902,231.35989c-0.51584,0.17112 -1.05176,0.22665 -1.6078,0.16658c-0.89264,-0.09927 -1.87454,-0.51281 -2.94568,-1.24062c-0.18312,-0.12587 -0.34872,-0.25282 -0.49678,-0.38083c-0.37005,-0.31042 -0.63834,-0.6241 -0.80489,-0.94105c-0.06821,-0.13472 -0.13289,-0.3077 -0.19406,-0.51897c-0.03806,-0.1135 -0.0899,-0.28872 -0.15554,-0.52567c-0.16064,-0.5258 -0.37343,-1.01199 -0.63837,-1.45858c0.23308,0.08772 0.43931,0.22593 0.61869,0.4146c0.17938,0.18867 0.31211,0.40175 0.39819,0.63922c0.18274,0.05576 0.36839,0.19856 0.55697,0.42839c0.26778,0.33414 0.42671,0.52228 0.4768,0.56447c0.20979,0.19967 0.57372,0.37255 1.09177,0.51862c0.78679,0.23982 1.41481,0.38611 1.88408,0.43888c0.70888,0.0844 1.32698,0.01561 1.85433,-0.20638c0.35174,-0.1548 0.56627,-0.24402 0.6436,-0.26764c0.14156,-0.03945 0.27237,-0.05405 0.39242,-0.0438c0.02539,0.56504 0.0572,1.12852 0.09542,1.6904c-0.31116,0.32101 -0.70087,0.56182 -1.16915,0.72241M205.67772,258.62357l-1.94303,-2.35855c-1.15041,-1.64031 -2.24892,-3.31001 -3.29555,-5.00909c-1.40048,-2.27068 -2.67399,-4.6072 -3.82051,-7.00957c-1.18535,-2.48519 -2.17137,-5.0651 -2.95806,-7.73972c-0.7489,-2.5509 -1.18679,-5.163 -1.31367,-7.83632l1.06134,1.11632c-0.04074,0.39795 0.0471,0.76846 0.2635,1.11152c1.85004,2.90096 4.21833,3.40832 7.10486,1.52211c0.14758,2.6636 0.40055,5.30684 0.75887,7.92972c0.36306,2.63835 0.8134,5.26355 1.35103,7.87562c0.53763,2.61206 1.18116,5.18332 1.93058,7.71378l0.86062,2.68416M182.64,217.76787c-0.10685,-0.77904 -0.18697,-1.55601 -0.24038,-2.3309c-0.05573,-0.92013 -0.04809,-1.83043 0.02292,-2.73091c0.14403,0.06906 0.25654,0.17164 0.3375,0.30776c0.06873,0.11427 0.11885,0.2562 0.15037,0.42579c0.01786,0.10275 0.03694,0.25925 0.05721,0.46948c0.04785,0.33657 0.14208,0.65608 0.2827,0.95855c-0.03095,0.1241 -0.05711,0.24876 -0.0785,0.37397c-0.20431,1.22611 -0.28929,2.46439 -0.25492,3.71482c-0.04407,-0.09219 -0.07727,-0.19533 -0.09961,-0.30942l-0.17729,-0.87916M184.32035,211.08133c-0.01882,0.04826 -0.03794,0.09638 -0.05735,0.14434c-0.14683,-0.05998 -0.24292,-0.10332 -0.28828,-0.13005c-0.24674,-0.15457 -0.41701,-0.50159 -0.51081,-1.04104c-0.06272,-0.3669 -0.1153,-0.71605 -0.1577,-1.04747c0.07863,-0.16472 0.16717,-0.32872 0.26562,-0.49202c0.02879,0.06119 0.05529,0.1258 0.07951,0.19382c0.06194,0.18059 0.10922,0.43499 0.14186,0.76318c0.05848,0.72271 0.28592,1.1351 0.68233,1.23719c-0.05265,0.12333 -0.10437,0.24735 -0.15518,0.37204M200.49985,227.57951c-0.17038,0.1306 -0.37297,0.25337 -0.60777,0.36829c-1.0248,0.47541 -2.12905,0.55239 -3.31276,0.23094c-1.17349,-0.32119 -2.08088,-0.95025 -2.7222,-1.88717c-0.14321,-0.20311 -0.33732,-0.51747 -0.58233,-0.9431c-0.2311,-0.36901 -0.46438,-0.65112 -0.69986,-0.84632c-0.1134,-0.09471 -0.23664,-0.17711 -0.36972,-0.24719l-0.02033,-0.71408c0.1821,0.05687 0.29865,0.10074 0.34962,0.13159c0.11065,0.0744 0.22277,0.19232 0.33633,0.35376l1.13027,1.42497c0.42147,0.52727 0.73474,0.88301 0.93982,1.06722c0.72483,0.66792 1.61325,1.03562 2.66527,1.10311c1.05726,0.0625 1.98947,-0.19018 2.79666,-0.75804c0.02144,-0.01509 0.04228,-0.0299 0.0625,-0.04446c0.01115,0.2534 0.02264,0.50689 0.0345,0.76047z" data-paper-data="{&quot;index&quot;:null}" fill="#5b5d5e" stroke="none" stroke-width="1"/><path d="M308.26768,281.78424c-70.78569,-12.59627 -123.16124,-50.94807 -116.98407,-85.66114c6.17717,-34.71307 68.56789,-52.64228 139.35358,-40.04601c70.78569,12.59627 123.16124,50.94807 116.98407,85.66114c-6.17717,34.71307 -68.56789,52.64228 -139.35358,40.04601z" fill="#ffffff" stroke="#000000" stroke-width="2"/><path d="M349.07712,180.32332c1.20413,1.68532 1.74871,3.63788 1.63375,5.8577c-0.1255,2.20888 -0.88357,4.07903 -2.27424,5.61047c-0.38345,0.43321 -1.12523,1.09611 -2.22535,1.98874l-2.97324,2.39393c-0.33706,0.24083 -0.58282,0.47793 -0.73728,0.71128c-0.06398,0.10745 -0.15426,0.3527 -0.27081,0.73577l-4.55988,0.19189c1.1234,0.20262 2.23491,0.46944 3.33455,0.80045c0.28152,0.08619 0.55915,0.16629 0.83291,0.24036c-0.35039,0.95777 -0.92511,1.88129 -1.72417,2.77055c-0.7669,0.86639 -1.80282,1.77091 -3.10778,2.71353c-2.94698,2.12606 -6.14396,3.82901 -9.59095,5.10887c-3.44739,1.30132 -6.9774,2.12351 -10.59006,2.46658c-0.11047,0.01076 -0.21271,0.02503 -0.30668,0.0428c-1.76987,-0.71791 -3.49918,-1.54859 -5.18794,-2.49205c-0.60643,-0.30068 -1.0754,-0.18567 -1.40693,0.34507c-0.3756,0.59434 -0.23482,1.12283 0.42236,1.58543c1.61167,0.98405 3.30275,1.85161 5.07326,2.60269c-0.20816,0.83349 -1.07015,1.31713 -2.586,1.45095c-0.68827,0.07351 -1.22145,0.17666 -1.59951,0.30941c-0.14241,0.05186 -0.27759,0.10848 -0.40555,0.16983c-0.25005,-0.1462 -0.4994,-0.30631 -0.7481,-0.48033c0.55465,0.53392 1.14631,1.05977 1.77495,1.5775c-2.41002,-0.4502 -4.77471,-1.16348 -7.09411,-2.13984c-0.87333,-0.38061 -1.51638,-0.4351 -1.92913,-0.16343c-0.261,0.18852 -0.40549,0.46502 -0.4335,0.82946c-0.04908,0.3426 0.015,0.66038 0.1922,0.95337c0.22913,0.39052 0.71521,0.81786 1.45824,1.28201l8.77466,5.3901c-4.41916,0.42519 -9.17682,-0.02512 -14.27299,-1.35092c-3.06349,-0.8041 -6.41275,-1.98048 -10.04778,-3.52918c-1.15917,-0.49375 -2.34646,-1.02491 -3.56182,-1.59346c-3.15797,-1.47627 -5.93313,-2.94291 -8.3255,-4.3999c-0.95143,-0.57334 -1.84276,-1.14748 -2.67398,-1.72243c-3.75305,-2.60048 -6.76111,-5.44519 -9.02415,-8.53416l-2.7235,-0.75728c-2.4342,-2.52315 -6.7426,-7.97265 -12.92518,-16.34848c-5.84468,-7.9479 -9.19505,-12.95085 -10.05112,-15.00889c0.05623,0.03069 0.11476,0.05858 0.1756,0.08366c1.33146,0.57131 2.84686,1.06004 4.54623,1.46621c1.22916,0.29039 2.80676,0.60314 4.73281,0.93824c1.81862,0.31681 3.63813,0.60707 5.45855,0.87076c3.41372,0.51629 6.83537,0.948 10.26497,1.29511c3.94606,0.8008 7.90431,1.53732 11.87471,2.20952c5.16901,0.85483 10.35031,1.62402 15.54386,2.30756c5.58961,0.74431 11.21565,1.25313 16.87811,1.52647c5.69447,0.28463 11.40839,0.3818 17.14178,0.29147c5.71194,-0.09071 11.40882,-0.24075 17.09068,-0.45007c2.02335,-0.08047 4.04295,-0.17304 6.05877,-0.2777c0.03085,0.04222 0.06227,0.08573 0.09426,0.13049M353.34754,200.75095c0.14879,5.4661 -2.53462,9.05666 -8.0503,10.77168c-0.80159,0.24536 -1.60552,0.48317 -2.41178,0.71345c-3.05506,0.8851 -6.13911,1.67772 -9.25215,2.37789l-0.0052,0.28972c-2.83925,0.04801 -5.64277,-0.13645 -8.41061,-0.55341l2.14731,-0.33178c0.95787,-0.14382 1.80865,-0.30029 2.5523,-0.46942c0.53922,-0.1406 1.45686,-0.43541 2.75296,-0.88444l7.16437,-2.67294c1.04872,-0.42126 1.75234,-0.75212 2.11088,-0.99256c0.68506,-0.49218 1.07635,-0.76425 1.17388,-0.81617c0.06477,-0.0203 0.39445,-0.14856 0.98904,-0.38477c0.6379,-0.25689 1.49089,-0.83731 2.55901,-1.74124c0.99205,-0.85163 1.74648,-1.62164 2.26332,-2.31006c0.70407,-0.9534 1.11295,-1.90671 1.22665,-2.85998c0.02429,-0.18258 0.03848,-0.37554 0.04259,-0.57885c2.32221,0.14632 4.65786,0.08626 7.00694,-0.18019l-3.8592,0.62307M345.92753,201.51945c-0.21523,0.62943 -0.64603,1.30864 -1.29239,2.03766c-0.5586,0.62326 -1.46987,1.46024 -2.73383,2.51093c-0.63121,0.48243 -1.12042,0.82786 -1.46764,1.0363c-0.10846,0.06247 -0.44944,0.22272 -1.02296,0.48076c-0.40067,0.19675 -0.72585,0.37339 -0.97554,0.52991l-1.12705,0.8975c-0.20676,0.1573 -0.53798,0.3714 -0.99366,0.64229l-3.8237,2.23377c-0.37883,0.17567 -0.96777,0.39587 -1.7668,0.66063c-0.90674,0.28427 -1.58619,0.46528 -2.0384,0.54304c-0.80651,0.08213 -1.4142,0.15173 -1.8231,0.2088c-0.58174,0.11836 -0.95318,0.18147 -1.11433,0.18931c-0.37614,0.02545 -1.00318,-0.02335 -1.88113,-0.14644c-0.79211,-0.12155 -1.40899,-0.13798 -1.85066,-0.04931c-0.04956,0.14024 -0.06279,0.27954 -0.03971,0.4179c-0.87653,-0.20692 -1.7469,-0.45331 -2.61112,-0.73916c4.08246,-0.96837 7.57964,-2.05414 10.49156,-3.25726c2.65431,-1.09341 5.02771,-2.36034 7.1202,-3.80076c1.16562,-0.78389 2.24332,-1.62325 3.23308,-2.51807c1.45118,-1.31566 2.39123,-2.56001 2.82016,-3.73301c0.04386,-0.15922 0.08421,-0.31413 0.12105,-0.46475c1.02691,0.26185 2.05353,0.47348 3.0799,0.63489c-0.11626,0.86172 -0.21757,1.42342 -0.30394,1.68509M356.99348,179.70864c1.24694,-0.07712 2.49357,-0.16209 3.73989,-0.25491c4.0028,6.029 2.9743,11.00705 -3.08554,14.93418c-0.71666,0.45942 -1.4929,0.64944 -2.32869,0.57004l-2.32654,2.24452l-3.44786,0.13134c-0.12109,-0.19827 -0.26335,-0.34574 -0.42677,-0.44237c-0.22665,-0.13836 -0.47777,-0.20191 -0.75332,-0.19062c-0.09146,0.01294 -0.18843,0.03268 -0.29087,0.05918c-0.37692,0.06837 -0.69682,0.25047 -0.95973,0.5463c-0.04039,0.04317 -0.07882,0.09079 -0.11527,0.14284l-3.27051,0.11842c0.14503,-0.28037 0.31606,-0.54028 0.5131,-0.77971c0.40606,-0.49719 0.99454,-0.99113 1.76543,-1.48177c0.8895,-0.52072 1.54629,-0.93292 1.97034,-1.23658c1.95646,-1.36027 3.26274,-3.27425 3.91884,-5.74196c0.65647,-2.48915 0.478,-4.80547 -0.53544,-6.94891c-0.24477,-0.49102 -0.50552,-0.91431 -0.78224,-1.26988c0.95963,-0.05259 1.91597,-0.11057 2.86901,-0.17394c-0.01966,0.2521 0.01299,0.52639 0.09793,0.82288c0.05077,0.16192 0.24129,0.61078 0.57157,1.3466c0.47394,1.10334 0.6278,2.3995 0.46154,3.88849c-0.10356,0.98563 -0.40094,2.30591 -0.89219,3.96081c-0.29861,1.08947 -0.65585,1.85589 -1.07168,2.29923c-0.08778,0.10576 -0.48022,0.4422 -1.17735,1.00932c-0.47945,0.39927 -0.77628,0.7911 -0.89052,1.17547c-0.49707,0.18428 -0.94219,0.46609 -1.33542,0.84546c-0.39322,0.37936 -0.6801,0.8143 -0.86063,1.3048c0.93319,-0.56287 1.9503,-1.01691 3.05132,-1.3621c0.49629,-0.14137 0.86324,-0.25285 1.10084,-0.33446c0.44244,-0.13159 0.8045,-0.27001 1.08619,-0.41523c0.66262,-0.35439 1.31682,-0.92228 1.96263,-1.70364c0.2664,-0.31271 0.53029,-0.66218 0.79163,-1.04842c1.51103,-2.25916 2.36388,-4.32618 2.55853,-6.20108c0.11755,-1.16786 -0.00719,-2.29177 -0.37423,-3.37172c-0.34421,-0.9803 -0.85555,-1.7945 -1.53402,-2.44261M321.17274,217.24018c-0.35544,0.06876 -0.65255,0.17614 -0.89131,0.32211c-0.28444,0.172 -0.498,0.40968 -0.64072,0.71302c-0.57585,-0.03733 -1.15451,-0.09066 -1.73598,-0.15996c0.10984,-0.13496 0.15019,-0.28989 0.12105,-0.46475c-1.26997,-0.01385 -2.52971,-0.09549 -3.77922,-0.24492c-0.58165,-0.18135 -1.15742,-0.39561 -1.72733,-0.64282c-0.21708,-0.08753 -0.43542,-0.18268 -0.655,-0.28545c0.69489,-0.09407 1.42686,-0.20975 2.19589,-0.34702c1.13071,-0.20511 1.85638,-0.56777 2.17699,-1.08797c0.05539,-0.09561 0.14489,-0.29794 0.2685,-0.607c2.46657,0.91816 5.01954,1.60799 7.6589,2.06947c-0.63263,0.29975 -1.30175,0.50242 -2.00736,0.608c-0.4409,0.04576 -0.76903,0.08818 -0.98441,0.12725z" fill="#ffffff" stroke="none" stroke-width="1"/><path d="M395.79783,185.70886c-4.13422,2.49116 -8.42458,4.71119 -12.87107,6.66007c-4.03528,1.76305 -8.14651,3.27251 -12.33371,4.52835c3.69219,-0.5885 7.32388,-1.39277 10.89502,-2.4128c4.05688,-1.17233 8.02611,-2.54477 11.90773,-4.11737c1.0811,-0.43141 2.1802,-0.66929 3.29731,-0.71366c0.35082,0.18876 0.49566,0.49191 0.43449,0.90942c-0.08993,0.82487 -0.42378,1.48437 -1.00153,1.97849c-3.66234,3.11144 -7.50774,5.95665 -11.53619,8.53558c-3.81154,2.45403 -7.74857,4.72333 -11.81109,6.8079c-4.16044,2.15796 -8.48075,3.95346 -12.96093,5.38651c-6.90892,2.1945 -13.9594,3.90347 -21.15141,5.12686c-4.99576,0.85492 -10.00854,1.46267 -15.03836,1.82324c-3.33538,0.25638 -6.63586,-0.04971 -9.90143,-0.91828c-1.63382,-0.0959 -3.23892,-0.37157 -4.8153,-0.82702l6.94881,3.95658c1.26438,0.72037 1.76108,1.4538 1.49008,2.20029c-0.13647,0.4269 -0.50688,0.73154 -1.11124,0.91389c-0.68082,0.25613 -1.71888,0.3824 -3.1142,0.37885c-3.41336,0.00315 -5.99368,-0.05923 -7.74096,-0.18719c-2.85114,-0.22289 -5.36524,-0.68662 -7.54227,-1.39116c-0.99271,-0.30762 -2.63399,-0.95963 -4.92384,-1.956l-5.28741,-2.33284c-2.86467,-1.26429 -4.99924,-2.24179 -6.40368,-2.93247c-2.34101,-1.13685 -4.39776,-2.2632 -6.17025,-3.3791c-2.88621,-1.84191 -5.30312,-3.83344 -7.25073,-5.97457c-1.09115,-1.17918 -2.03512,-2.40903 -2.83189,-3.6895c-0.36497,-0.5969 -0.44253,-1.05985 -0.23269,-1.38883c2.26304,3.08897 5.2711,5.93368 9.02415,8.53416c0.83123,0.57495 1.72257,1.1491 2.67398,1.72243c2.39237,1.45701 5.16754,2.92362 8.3255,4.3999c1.21537,0.56856 2.40264,1.09972 3.56183,1.59346c3.63504,1.5487 6.98428,2.72508 10.04778,3.52918c5.09617,1.32582 9.85382,1.77613 14.27299,1.35092l-8.77466,-5.3901c-0.74304,-0.46414 -1.2291,-0.89148 -1.45824,-1.28201c-0.17722,-0.29298 -0.24129,-0.61078 -0.1922,-0.95337c0.02801,-0.36444 0.17252,-0.64093 0.4335,-0.82946c0.41275,-0.27167 1.0558,-0.21718 1.92913,0.16343c2.3194,0.97637 4.6841,1.68965 7.09411,2.13984c-0.62865,-0.51773 -1.2203,-1.04357 -1.77495,-1.5775c0.2487,0.17403 0.49807,0.33413 0.7481,0.48033c0.34422,0.20412 0.68977,0.38742 1.03665,0.54991c0.21958,0.10277 0.43792,0.19793 0.655,0.28546c0.5699,0.2472 1.14567,0.46147 1.72733,0.64281c1.24951,0.14942 2.50926,0.23106 3.77922,0.24492c0.02914,0.17485 -0.0112,0.32977 -0.12105,0.46475c0.58148,0.06929 1.16014,0.12263 1.73598,0.15996c1.89089,0.13523 3.80145,0.1373 5.73166,0.00623c1.62543,-0.12397 3.25482,-0.30402 4.88813,-0.54022c1.22474,-0.18304 2.45222,-0.39717 3.68244,-0.64235c-0.39694,0.02377 -0.79435,0.03811 -1.19222,0.04301c-2.62376,0.09129 -5.2238,-0.06806 -7.80015,-0.47805c-0.26313,-0.04295 -0.52514,-0.09596 -0.78606,-0.15902c-2.63936,-0.46149 -5.19233,-1.15132 -7.65889,-2.06947c-0.10096,-0.04001 -0.20222,-0.07939 -0.3038,-0.11816c-0.26248,-0.10471 -0.52353,-0.21135 -0.78317,-0.31996c-1.7705,-0.75108 -3.46157,-1.61865 -5.07326,-2.6027c-0.65719,-0.46261 -0.79797,-0.99108 -0.42237,-1.58542c0.33153,-0.53073 0.80051,-0.64576 1.40694,-0.34507c1.68875,0.94346 3.41806,1.77414 5.18793,2.49206c0.43413,0.17512 0.87119,0.34397 1.31116,0.50654c0.50938,0.18679 1.02156,0.35698 1.53648,0.51058c0.86422,0.28586 1.73459,0.53225 2.61112,0.73916c0.8292,0.20653 1.66326,0.38251 2.50221,0.52791c0.24648,0.04049 0.4927,0.0771 0.73865,0.10986c2.76784,0.41695 5.57138,0.60142 8.41061,0.55342c5.63663,-0.08134 11.20776,-0.70053 16.71343,-1.8576c5.33321,-1.11721 10.52427,-2.68778 15.57321,-4.71173c5.52452,-2.20861 10.84742,-4.84482 15.96867,-7.90863c4.30744,-2.57392 8.33583,-5.44804 12.08515,-8.62233c-6.67117,2.70326 -13.52939,4.76451 -20.57466,6.18374c-5.3219,1.08522 -10.71763,1.7988 -16.18719,2.14074c-2.34908,0.26644 -4.68472,0.3265 -7.00695,0.1802c-1.32763,-0.08575 -2.65041,-0.24366 -3.96831,-0.47372c-1.02636,-0.16139 -2.05298,-0.37302 -3.0799,-0.63489c-0.43176,-0.10179 -0.86977,-0.21698 -1.31405,-0.34558c-0.27376,-0.07405 -0.55141,-0.15418 -0.83291,-0.24037c-1.09962,-0.33101 -2.21114,-0.59783 -3.33455,-0.80045l4.55988,-0.19188l1.49831,-0.05363l3.27052,-0.11842l2.54595,-0.11533l3.44786,-0.13134c5.60847,-0.30725 11.08375,-1.26628 16.42582,-2.87708c5.60112,-1.69201 11.00043,-3.80091 16.1979,-6.32667c5.02425,-2.443 9.90835,-5.15148 14.65232,-8.12547c3.54979,-2.22257 7.03711,-4.55362 10.46199,-6.9931l4.92006,-4.11396l-5.62002,1.84732c-5.29914,1.61157 -10.68554,3.00153 -16.15919,4.1699c-5.47366,1.16835 -10.97624,2.15373 -16.50774,2.95611c-5.49912,0.79223 -11.04257,1.36362 -16.63035,1.71417c-1.24631,0.09283 -2.49294,0.1778 -3.73989,0.25491c-1.17866,0.08884 -2.3607,0.16421 -3.54616,0.22617c-0.95304,0.06334 -1.90937,0.12134 -2.86901,0.17394c-0.53201,0.02879 -1.06383,0.05681 -1.59546,0.08407c-2.01581,0.10467 -4.03542,0.19723 -6.05877,0.2777c-5.68186,0.20932 -11.37875,0.35935 -17.09068,0.45007c-5.73339,0.09033 -11.44732,-0.00681 -17.14178,-0.29146c-5.66247,-0.27334 -11.2885,-0.78217 -16.87811,-1.52647c-5.19356,-0.68354 -10.37484,-1.45273 -15.54386,-2.30756c-3.97042,-0.67219 -7.92865,-1.40871 -11.87471,-2.20951c-3.42959,-0.34711 -6.85126,-0.77881 -10.26498,-1.29511c-1.82041,-0.26369 -3.63992,-0.55394 -5.45854,-0.87076c-1.92604,-0.3351 -3.50365,-0.64784 -4.73281,-0.93824c-1.69936,-0.40617 -3.21479,-0.89491 -4.54623,-1.46622c-0.06086,-0.02508 -0.11938,-0.05296 -0.1756,-0.08365c-0.40955,-0.18952 -0.74322,-0.43702 -1.00101,-0.74249c-0.34657,-0.42483 -0.42004,-0.81792 -0.22034,-1.17928c0.2773,-0.49951 0.92927,-0.64345 1.9559,-0.43183l20.34647,3.84277c1.47745,0.26965 2.70154,0.54386 3.67224,0.82261c3.414,0.6713 6.82091,1.32816 10.22066,1.97054c5.4133,0.99876 10.84549,1.84222 16.29658,2.53036c4.53022,0.56429 9.07873,1.00549 13.64556,1.32356c4.23478,0.27992 8.49839,0.44765 12.79086,0.50321c5.36509,0.09627 10.73758,0.07996 16.11747,-0.04892c4.71422,-0.11937 9.43525,-0.31909 14.16308,-0.59921c4.96428,-0.29734 9.90711,-0.59507 14.82846,-0.89318c4.07271,-0.25967 8.15204,-0.58899 12.23799,-0.98796c4.87098,-0.48148 9.6984,-1.22675 14.48225,-2.23574c5.37651,-1.1379 10.70694,-2.40007 15.99131,-3.78649c4.34603,-1.13493 8.71217,-2.19436 13.09841,-3.1783c0.67889,-0.14883 1.35336,-0.05085 2.02339,0.29391c0.29236,0.45605 0.24233,0.8523 -0.15013,1.18873c-2.5946,2.22898 -5.25128,4.32806 -7.97002,6.2972c-5.08989,3.70839 -10.34742,7.18836 -15.77258,10.43993z" fill="#000000" stroke="none" stroke-width="1"/><path d="M350.15722,200.88693c-0.11371,0.95325 -0.52259,1.90658 -1.22665,2.85998c-0.51683,0.68842 -1.27127,1.45843 -2.26332,2.31006c-1.06812,0.90393 -1.92111,1.48435 -2.55901,1.74124c-0.59459,0.23621 -0.92427,0.36447 -0.98904,0.38477c-0.09753,0.05192 -0.48884,0.32398 -1.17388,0.81617c-0.35853,0.24045 -1.06214,0.5713 -2.11088,0.99256l-7.16437,2.67294c-1.2961,0.44902 -2.21373,0.74384 -2.75296,0.88444c-0.74365,0.16911 -1.59443,0.3256 -2.5523,0.46942l-2.14731,0.33178c-0.24594,-0.03275 -0.49217,-0.06937 -0.73865,-0.10986c-0.83893,-0.14541 -1.67301,-0.32137 -2.50221,-0.52791c-0.02309,-0.13835 -0.00988,-0.27766 0.0397,-0.4179c0.44167,-0.08867 1.05856,-0.07225 1.85067,0.0493c0.87795,0.12309 1.505,0.17191 1.88113,0.14646c0.16115,-0.00785 0.53258,-0.07094 1.11432,-0.18931c0.40891,-0.05707 1.01661,-0.12667 1.8231,-0.20881c0.4522,-0.07775 1.13167,-0.25877 2.0384,-0.54304c0.79905,-0.26474 1.38797,-0.48493 1.76681,-0.66062l3.82369,-2.23377c0.45568,-0.2709 0.78689,-0.485 0.99366,-0.64229l1.12705,-0.89751c0.24969,-0.15653 0.57488,-0.33316 0.97554,-0.52991c0.57351,-0.25805 0.9145,-0.4183 1.02296,-0.48076c0.34723,-0.20845 0.83642,-0.55387 1.46763,-1.0363c1.26396,-1.05069 2.17525,-1.88766 2.73383,-2.51093c0.64636,-0.72902 1.07718,-1.40826 1.2924,-2.03767c0.08638,-0.26168 0.18769,-0.82337 0.30394,-1.68509c1.31792,0.23005 2.64068,0.38796 3.96831,0.47372c-0.00412,0.20332 -0.01831,0.39627 -0.04258,0.57884M350.34155,213.0461c-5.50566,1.15706 -11.0768,1.77625 -16.71343,1.8576l0.0052,-0.28972c3.11304,-0.70015 6.19709,-1.49279 9.25215,-2.37789c0.80626,-0.23028 1.61018,-0.46809 2.41178,-0.71345c5.51566,-1.71502 8.1991,-5.30558 8.0503,-10.77168l3.8592,-0.62307c5.46956,-0.34194 10.8653,-1.05552 16.18719,-2.14074c7.04528,-1.41924 13.90349,-3.48048 20.57466,-6.18374c-3.74932,3.17429 -7.77772,6.04842 -12.08515,8.62233c-5.12126,3.0638 -10.44415,5.70001 -15.96867,7.90863c-5.04894,2.02395 -10.24,3.59452 -15.57321,4.71173M336.97729,205.9153c-2.0925,1.44043 -4.46591,2.70735 -7.12021,3.80076c-2.91192,1.20313 -6.4091,2.28889 -10.49156,3.25726c-0.51493,-0.15359 -1.02711,-0.32379 -1.53649,-0.51058c-0.43997,-0.16257 -0.87702,-0.33142 -1.31115,-0.50654c0.09398,-0.01776 0.1962,-0.03204 0.30666,-0.04281c3.61267,-0.34305 7.14269,-1.16525 10.59008,-2.46657c3.44701,-1.27987 6.64399,-2.98282 9.59095,-5.10887c1.30495,-0.94261 2.34088,-1.84712 3.10778,-2.71353c0.79905,-0.88925 1.37378,-1.81278 1.72417,-2.77055c0.44428,0.1286 0.88229,0.24379 1.31405,0.34558c-0.03684,0.15062 -0.07719,0.30553 -0.12105,0.46475c-0.42893,1.173 -1.36898,2.41733 -2.82016,3.73301c-0.98976,0.89481 -2.06745,1.73418 -3.23307,2.51807M349.54474,197.33384l-2.54596,0.11533c0.03645,-0.05205 0.07488,-0.09966 0.11527,-0.14284c0.26293,-0.29583 0.58283,-0.47793 0.95973,-0.5463c0.10244,-0.0265 0.19941,-0.04624 0.29087,-0.05918c0.27554,-0.01128 0.52666,0.05227 0.75332,0.19062c0.16344,0.09664 0.30567,0.24409 0.42677,0.44237M358.5275,182.15124c0.36703,1.07995 0.49177,2.20385 0.37423,3.37172c-0.19465,1.8749 -1.04749,3.94192 -2.55853,6.20108c-0.26135,0.38625 -0.52523,0.73573 -0.79163,1.04843c-0.6458,0.78136 -1.30001,1.34923 -1.96264,1.70363c-0.28169,0.14522 -0.64374,0.28362 -1.08619,0.41523c-0.23761,0.08161 -0.60455,0.1931 -1.10083,0.33448c-1.10102,0.34519 -2.11814,0.79923 -3.05133,1.3621c0.18054,-0.49051 0.46743,-0.92544 0.86064,-1.30479c0.39322,-0.37936 0.83835,-0.66118 1.33541,-0.84547c0.11423,-0.38436 0.41107,-0.77618 0.89052,-1.17547c0.69713,-0.56711 1.08958,-0.90354 1.17734,-1.00931c0.41584,-0.44334 0.77307,-1.20976 1.07169,-2.29924c0.49124,-1.6549 0.78864,-2.97517 0.89219,-3.96081c0.16626,-1.489 0.01241,-2.78516 -0.46154,-3.88849c-0.33028,-0.73582 -0.5208,-1.18468 -0.57157,-1.3466c-0.08495,-0.29648 -0.1176,-0.57078 -0.09793,-0.82288c1.18546,-0.06196 2.36752,-0.13735 3.54616,-0.22617c0.67847,0.6481 1.18982,1.46231 1.53402,2.4426M415.65066,168.76622l-4.92006,4.11396c-3.42486,2.43948 -6.9122,4.77053 -10.46199,6.9931c-4.74397,2.97397 -9.62808,5.68246 -14.65232,8.12547c-5.19747,2.52576 -10.59677,4.63466 -16.1979,6.32668c-5.34206,1.61081 -10.81733,2.56984 -16.42582,2.87708l2.32654,-2.24452c0.83579,0.0794 1.61204,-0.11062 2.32869,-0.57004c6.05984,-3.92711 7.08834,-8.90518 3.08553,-14.93419c5.58779,-0.35055 11.13124,-0.92196 16.63035,-1.71417c5.5315,-0.80238 11.03407,-1.78775 16.50774,-2.95611c5.47366,-1.16835 10.86006,-2.55834 16.15919,-4.16991l5.62002,-1.84732M330.26051,217.74134c-1.63332,0.23619 -3.2627,0.41625 -4.88813,0.54022c-1.93021,0.13107 -3.84077,0.12899 -5.73167,-0.00624c0.14272,-0.30334 0.35629,-0.54103 0.64072,-0.71302c0.23877,-0.14599 0.53586,-0.25334 0.89131,-0.32211c0.21537,-0.03907 0.54351,-0.08149 0.98441,-0.12725c0.70562,-0.10558 1.37474,-0.30825 2.00737,-0.608c0.26092,0.06305 0.52294,0.11604 0.78607,0.15901c2.57635,0.40999 5.1764,0.56936 7.80015,0.47806c-0.1928,0.0939 -0.40874,0.16517 -0.64785,0.21379l-1.84236,0.38555M316.20182,214.31731c0.10158,0.03877 0.20283,0.07815 0.30379,0.11815c-0.12362,0.30907 -0.21311,0.5114 -0.2685,0.607c-0.32061,0.52019 -1.04628,0.88286 -2.17699,1.08797c-0.76903,0.13727 -1.501,0.25295 -2.19589,0.34702c-0.34689,-0.1625 -0.69244,-0.34579 -1.03666,-0.54991c0.12798,-0.06135 0.26316,-0.11796 0.40556,-0.16983c0.37806,-0.13275 0.91123,-0.23589 1.59951,-0.30941c1.51585,-0.1338 2.37784,-0.61745 2.58601,-1.45095c0.25964,0.1086 0.52071,0.21525 0.78318,0.31997M350.57831,180.10876c0.27671,0.35557 0.53746,0.77887 0.78224,1.26987c1.01345,2.14345 1.19193,4.45974 0.53544,6.94891c-0.65609,2.4677 -1.96237,4.38167 -3.91884,5.74196c-0.42406,0.30367 -1.08084,0.71586 -1.97034,1.23658c-0.77088,0.49065 -1.35937,0.98458 -1.76543,1.48177c-0.19704,0.23944 -0.36808,0.49935 -0.5131,0.77971l-1.49831,0.05362c0.11657,-0.38305 0.20683,-0.62832 0.27081,-0.73577c0.15445,-0.23337 0.40021,-0.47047 0.73728,-0.71128l2.97324,-2.39392c1.10012,-0.89261 1.8419,-1.55553 2.22535,-1.98874c1.39064,-1.53143 2.14872,-3.40158 2.27424,-5.61047c0.11497,-2.21981 -0.42962,-4.17236 -1.63375,-5.8577c-0.03199,-0.04476 -0.0634,-0.08827 -0.09426,-0.13049c0.53164,-0.02727 1.06346,-0.0553 1.59546,-0.08407z" fill="#5b5d5e" stroke="none" stroke-width="1"/><path d="M202.34456,154.70324c0.07221,-0.26653 0.34681,-0.42407 0.61335,-0.35186c0.26653,0.07221 0.42407,0.34681 0.35186,0.61335c-0.07221,0.26653 -0.34681,0.42407 -0.61335,0.35186c-0.26653,-0.07221 -0.42407,-0.34681 -0.35186,-0.61335z" fill="#ffffff" stroke="none" stroke-width="0.5"/><path d="M315.16651,213.11208c0.7265,1.79586 0.7948,3.69052 0.2049,5.68402c-0.5971,1.98125 -1.69537,3.51614 -3.29484,4.6047c-0.44342,0.31011 -1.26291,0.75074 -2.45849,1.32193l-3.2272,1.52686c-0.35917,0.1453 -0.6345,0.30717 -0.82598,0.48561c-0.08167,0.08372 -0.21739,0.28701 -0.40714,0.60987l-4.18856,-0.82252c0.97728,0.42989 1.92971,0.91556 2.85731,1.457c0.23716,0.13993 0.47211,0.27348 0.70486,0.40069c-0.52805,0.79435 -1.25261,1.50851 -2.17368,2.14246c-0.88683,0.62019 -2.02663,1.21622 -3.41942,1.78808c-3.14474,1.28901 -6.42432,2.1386 -9.83874,2.54877c-3.41947,0.4296 -6.80932,0.40544 -10.16956,-0.07249c-0.10281,-0.01436 -0.1989,-0.02375 -0.28824,-0.02813c-1.45249,-1.03982 -2.84343,-2.17333 -4.17284,-3.40053c-0.48572,-0.40602 -0.93733,-0.40397 -1.35486,0.00616c-0.47151,0.45835 -0.45905,0.96972 0.03742,1.53408c1.25043,1.24725 2.59855,2.40594 4.04437,3.47606c-0.37154,0.71243 -1.26115,0.96376 -2.66887,0.75402c-0.64197,-0.08364 -1.14938,-0.10643 -1.5222,-0.06837c-0.14084,0.01602 -0.27614,0.03796 -0.40592,0.06577c-0.19542,-0.18762 -0.38717,-0.38774 -0.57527,-0.60037c0.38764,0.60681 0.8107,1.21435 1.26916,1.82261c-2.09315,-0.93634 -4.08757,-2.10201 -5.98327,-3.49703c-0.71096,-0.53707 -1.28381,-0.72722 -1.71855,-0.57042c-0.27856,0.11437 -0.47042,0.33421 -0.57557,0.65949c-0.11954,0.30081 -0.13075,0.60381 -0.03367,0.90899c0.12298,0.40523 0.47156,0.90011 1.04577,1.48467l6.80083,6.82015c-4.11161,-0.5796 -8.3396,-2.02935 -12.684,-4.34927c-2.61002,-1.40105 -5.3985,-3.20313 -8.36545,-5.40627c-0.94615,-0.70245 -1.90969,-1.44506 -2.89059,-2.22782c-2.54897,-2.03296 -4.75193,-3.97346 -6.60889,-5.82149c-0.73984,-0.7294 -1.42484,-1.4464 -2.05502,-2.15099c-2.8443,-3.18539 -4.95773,-6.42999 -6.34026,-9.7338l-2.31107,-1.28413c-1.6619,-2.8267 -4.38827,-8.72432 -8.17913,-17.69284c-3.57716,-8.50549 -5.52997,-13.78757 -5.85846,-15.84625c0.04442,0.0402 0.09156,0.07836 0.1414,0.11448c1.08587,0.81065 2.35706,1.58644 3.8136,2.32736c1.05426,0.53283 2.42049,1.16216 4.09871,1.88803c1.58452,0.68574 3.17565,1.34754 4.77342,1.98536c2.99143,1.21591 6.00858,2.35663 9.05145,3.42216c3.41331,1.59103 6.85177,3.12626 10.31535,4.60566c4.51362,1.90756 9.05714,3.73993 13.63051,5.49708c4.92026,1.89902 9.92513,3.59184 15.01462,5.07851c5.11612,1.50392 10.29092,2.84163 15.52442,4.01309c5.21408,1.16642 10.42744,2.2756 15.64009,3.32758c1.85756,0.36923 3.71436,0.72664 5.57036,1.07222c0.01882,0.04514 0.03788,0.09158 0.05718,0.13928M314.58339,232.62201c-1.05985,5.00322 -4.28514,7.68162 -9.6759,8.0352c-0.78259,0.04785 -1.56565,0.08835 -2.34919,0.12146c-2.9717,0.13689 -5.94952,0.18334 -8.9335,0.13938l-0.06808,0.26232c-2.59242,-0.57715 -5.10151,-1.35787 -7.52732,-2.34223l2.02524,0.1678c0.90251,0.07865 1.71037,0.12239 2.4236,0.13119c0.52109,-0.00996 1.42003,-0.07741 2.69683,-0.20235l7.09947,-0.8642c1.04578,-0.15377 1.75798,-0.3008 2.13659,-0.44106c0.73058,-0.29779 1.1459,-0.45965 1.24594,-0.48553c0.06334,-0.0043 0.39118,-0.04884 0.98352,-0.13364c0.63625,-0.09413 1.53885,-0.43543 2.7078,-1.0239c1.08835,-0.55754 1.94275,-1.0928 2.56327,-1.60582c0.84872,-0.71305 1.42898,-1.49055 1.74081,-2.33256c0.062,-0.16072 0.1171,-0.33309 0.16529,-0.51708c2.07975,0.64081 4.21684,1.09688 6.41127,1.36821l-3.64566,-0.27721M307.66785,231.69847c-0.33335,0.52532 -0.87361,1.04878 -1.62079,1.5704c-0.64425,0.44463 -1.65594,1.0065 -3.03508,1.6856c-0.67949,0.30069 -1.19988,0.50785 -1.5612,0.62148c-0.11229,0.03308 -0.45741,0.10426 -1.03536,0.21352c-0.40737,0.09131 -0.74171,0.18084 -1.00299,0.26858l-1.22114,0.56972c-0.22242,0.09783 -0.57042,0.22011 -1.04404,0.36681l-3.96555,1.19526c-0.38291,0.07691 -0.96661,0.1484 -1.75112,0.21445c-0.88672,0.06025 -1.54416,0.07629 -1.97238,0.04813c-0.75136,-0.10166 -1.3192,-0.17124 -1.70352,-0.20875c-0.5549,-0.01956 -0.90647,-0.04339 -1.05472,-0.0715c-0.34761,-0.0591 -0.90715,-0.24059 -1.67862,-0.54448c-0.69374,-0.28372 -1.25112,-0.43355 -1.67215,-0.44948c-0.07573,0.1167 -0.11822,0.24047 -0.12748,0.37134c-0.75184,-0.37982 -1.48946,-0.79418 -2.21285,-1.24308c3.92418,0.01203 7.34181,-0.21068 10.25287,-0.66807c2.65281,-0.41394 5.08811,-1.0471 7.30591,-1.89946c1.23137,-0.45798 2.39492,-0.98563 3.49062,-1.58293c1.60732,-0.87911 2.73425,-1.80515 3.38078,-2.77805c0.0747,-0.1352 0.14527,-0.26725 0.21169,-0.39616c0.87658,0.46265 1.76388,0.87957 2.66193,1.25077c-0.29414,0.7582 -0.50907,1.24684 -0.64483,1.46591M322.49977,214.28403c1.15079,0.20251 2.30301,0.39782 3.45666,0.58592c2.32178,6.35778 0.29804,10.65977 -6.07124,12.90599c-0.75216,0.26108 -1.49959,0.26415 -2.24226,0.0092l-2.60644,1.5324l-3.16409,-0.63444c-0.06676,-0.20678 -0.16388,-0.37199 -0.29137,-0.49559c-0.17586,-0.17538 -0.39032,-0.28807 -0.64336,-0.33805c-0.086,-0.00822 -0.17849,-0.01149 -0.27745,-0.00979c-0.35771,-0.02024 -0.68843,0.07541 -0.99219,0.28695c-0.04618,0.03043 -0.09152,0.06532 -0.13605,0.10469l-2.99999,-0.6074c0.19319,-0.22325 0.40555,-0.42221 0.63707,-0.59685c0.47797,-0.36334 1.12112,-0.68385 1.92942,-0.96146c0.92274,-0.27903 1.61011,-0.51027 2.06213,-0.69368c2.07656,-0.80921 3.68294,-2.2641 4.81914,-4.36469c1.14123,-2.12001 1.48539,-4.26542 1.03247,-6.43617c-0.11523,-0.50004 -0.25978,-0.94197 -0.43369,-1.32582c0.88415,0.162 1.7665,0.31837 2.64701,0.46913c-0.073,0.22495 -0.10328,0.48153 -0.09086,0.76972c0.01076,0.15835 0.08587,0.60818 0.22533,1.34952c0.18975,1.10697 0.04625,2.3193 -0.4305,3.63698c-0.30968,0.87366 -0.86879,2.00924 -1.67735,3.40675c-0.50976,0.92544 -1.00219,1.54429 -1.47727,1.85652c-0.10295,0.07698 -0.53338,0.29712 -1.29133,0.66041c-0.52329,0.25825 -0.8789,0.54966 -1.06682,0.87421c-0.4923,0.05889 -0.9587,0.21784 -1.39924,0.47685c-0.44053,0.259 -0.7965,0.59179 -1.06792,0.99836c0.97168,-0.30782 1.99588,-0.49831 3.07259,-0.57148c0.48222,-0.02004 0.84028,-0.04119 1.07419,-0.06346c0.43111,-0.02293 0.79062,-0.06963 1.07853,-0.1401c0.68005,-0.17739 1.39913,-0.55077 2.15726,-1.12011c0.31063,-0.22612 0.62701,-0.48622 0.94911,-0.78031c1.86805,-1.72402 3.09556,-3.41723 3.68251,-5.07963c0.36225,-1.03631 0.49455,-2.08562 0.39691,-3.14794c-0.09867,-0.96671 -0.38565,-1.81893 -0.86091,-2.55664M281.71935,240.58174c-0.33826,-0.01519 -0.63192,0.01749 -0.88096,0.09803c-0.29626,0.09422 -0.54244,0.26366 -0.73855,0.5083c-0.5155,-0.15986 -1.03005,-0.33487 -1.54366,-0.52503c0.12939,-0.09872 0.19996,-0.23078 0.21169,-0.39615c-1.15184,-0.29028 -2.27955,-0.63996 -3.38314,-1.04905c-0.48928,-0.29209 -0.96602,-0.61281 -1.43022,-0.96223c-0.17827,-0.12707 -0.35602,-0.26134 -0.53322,-0.4028c0.65248,0.06639 1.3434,0.12125 2.07275,0.16457c1.07308,0.0607 1.81227,-0.11042 2.21756,-0.51337c0.07128,-0.07483 0.19691,-0.23926 0.37689,-0.49328c2.04226,1.37426 4.21301,2.55978 6.51225,3.55652c-0.64084,0.13426 -1.29362,0.17225 -1.95837,0.11398c-0.41094,-0.05478 -0.71862,-0.08796 -0.92302,-0.09952z" fill="#ffffff" stroke="none" stroke-width="1"/><path d="M356.7764,227.67427c-4.30421,1.36143 -8.69113,2.44216 -13.16074,3.24219c-4.05504,0.72095 -8.12369,1.19468 -12.20597,1.42116c3.48623,0.27213 6.96462,0.33483 10.43511,0.18808c3.94552,-0.17904 7.85509,-0.55922 11.72874,-1.14058c1.07744,-0.15593 2.12895,-0.13193 3.15451,0.07198c0.27776,0.24836 0.34318,0.5557 0.19626,0.922c-0.26214,0.73044 -0.70993,1.25717 -1.34336,1.58018c-4.01073,2.02867 -8.1297,3.77523 -12.35691,5.23959c-4.00266,1.39821 -8.07904,2.601 -12.22915,3.60838c-4.2552,1.05269 -8.57653,1.74083 -12.96399,2.06441c-6.76256,0.48497 -13.54769,0.49747 -20.35536,0.03744c-4.7299,-0.31489 -9.42125,-0.85825 -14.07403,-1.63013c-3.08914,-0.49613 -6.02354,-1.49613 -8.80323,-2.99999c-1.46478,-0.44444 -2.86412,-1.04608 -4.19805,-1.80493l5.45391,5.11734c0.99228,0.93154 1.28359,1.70709 0.87393,2.32668c-0.21744,0.35837 -0.62089,0.5544 -1.21034,0.58809c-0.67511,0.08406 -1.6467,-0.02808 -2.91478,-0.3364c-3.10467,-0.74347 -5.43749,-1.36438 -6.99844,-1.86278c-2.544,-0.8261 -4.72884,-1.79749 -6.5545,-2.91419c-0.83548,-0.49679 -2.18545,-1.44857 -4.04991,-2.85531l-4.29811,-3.27749c-2.32859,-1.77607 -4.05597,-3.13169 -5.1821,-4.06685c-1.88026,-1.54567 -3.50432,-3.01965 -4.87217,-4.42197c-2.22189,-2.30604 -3.98429,-4.64553 -5.28723,-7.01844c-0.73443,-1.31089 -1.32393,-2.63567 -1.76851,-3.9743c-0.20138,-0.6226 -0.17069,-1.06055 0.09206,-1.31383c1.38253,3.30381 3.49596,6.54841 6.34026,9.7338c0.63018,0.70459 1.3152,1.42159 2.05502,2.15099c1.85697,1.84805 4.05994,3.78853 6.60889,5.82149c0.9809,0.78276 1.94442,1.52538 2.89059,2.22782c2.96696,2.20313 5.75543,4.00521 8.36545,5.40627c4.34439,2.31994 8.57239,3.76968 12.684,4.34927l-6.80083,-6.82015c-0.57421,-0.58453 -0.92278,-1.07943 -1.04577,-1.48467c-0.09709,-0.30518 -0.08588,-0.60818 0.03367,-0.90899c0.10515,-0.32528 0.29701,-0.54512 0.57557,-0.65949c0.43474,-0.1568 1.0076,0.03335 1.71855,0.57042c1.8957,1.39501 3.89012,2.56068 5.98327,3.49703c-0.45847,-0.60826 -0.88152,-1.2158 -1.26916,-1.82261c0.18811,0.21263 0.37987,0.41275 0.57527,0.60037c0.26839,0.26088 0.54254,0.50313 0.82246,0.72673c0.1772,0.14147 0.35494,0.27574 0.53322,0.4028c0.4642,0.34941 0.94094,0.67016 1.43023,0.96224c1.10359,0.40909 2.23132,0.75877 3.38314,1.04905c-0.01173,0.16538 -0.08229,0.29744 -0.21169,0.39616c0.51362,0.19015 1.02818,0.36517 1.54367,0.52503c1.68994,0.53642 3.42689,0.95605 5.21081,1.2589c1.50522,0.24266 3.0263,0.43519 4.56322,0.57753c1.15376,0.10133 2.31681,0.175 3.48914,0.22104c-0.36616,-0.06517 -0.73069,-0.13903 -1.09357,-0.22156c-2.40591,-0.49068 -4.73547,-1.20407 -6.98867,-2.14022c-0.22989,-0.09659 -0.45657,-0.2021 -0.68005,-0.31648c-2.29924,-0.99676 -4.46999,-2.18227 -6.51224,-3.55652c-0.08306,-0.05845 -0.16653,-0.11641 -0.25043,-0.17388c-0.2158,-0.15261 -0.42987,-0.30667 -0.64222,-0.46221c-1.44581,-1.07013 -2.79392,-2.22882 -4.04437,-3.47606c-0.49647,-0.56437 -0.50895,-1.07573 -0.03743,-1.53408c0.41753,-0.41014 0.86915,-0.4122 1.35487,-0.00617c1.32941,1.2272 2.72035,2.3607 4.17284,3.40053c0.3565,0.25417 0.71702,0.50327 1.08158,0.74731c0.42238,0.28124 0.85091,0.54799 1.28559,0.80026c0.72339,0.4489 1.461,0.86327 2.21284,1.24309c0.70888,0.36912 1.42889,0.71152 2.16,1.02717c0.21528,0.09071 0.43119,0.17784 0.64769,0.2614c2.42581,0.98435 4.93492,1.76509 7.52732,2.34224c5.14354,1.15848 10.34514,1.81353 15.60479,1.96514c5.09412,0.15016 10.15809,-0.14305 15.19196,-0.87961c5.50672,-0.8005 10.92359,-2.03393 16.25058,-3.7003c4.47983,-1.39881 8.77153,-3.13163 12.8751,-5.19844c-6.6576,0.9996 -13.34493,1.37449 -20.06197,1.12464c-5.07684,-0.17676 -10.13956,-0.70764 -15.18815,-1.59261c-2.19443,-0.27133 -4.33151,-0.7274 -6.41128,-1.3682c-1.18855,-0.36827 -2.35692,-0.80108 -3.50506,-1.29845c-0.89805,-0.37118 -1.78535,-0.78809 -2.66194,-1.25076c-0.37037,-0.18697 -0.7435,-0.38749 -1.11939,-0.60158c-0.23276,-0.12719 -0.46772,-0.26077 -0.70486,-0.4007c-0.92759,-0.54144 -1.88002,-1.02711 -2.8573,-1.457l4.18855,0.82252l1.37424,0.27884l2.99999,0.60741l2.34042,0.4518l3.16409,0.63443c5.16733,0.94689 10.35606,1.27194 15.56615,0.97518c5.46342,-0.31397 10.83448,-1.05118 16.11314,-2.2116c5.10304,-1.12303 10.13669,-2.51812 15.10095,-4.18529c3.71402,-1.24497 7.39496,-2.60225 11.04282,-4.07178l5.37365,-2.66532l-5.51457,0.45107c-5.17123,0.30685 -10.37336,0.39311 -15.60637,0.25877c-5.23302,-0.13436 -10.45233,-0.44142 -15.65792,-0.92122c-5.17392,-0.48195 -10.33989,-1.17442 -15.49787,-2.07741c-1.15365,-0.18809 -2.30587,-0.38339 -3.45666,-0.58591c-1.09125,-0.17693 -2.18264,-0.36684 -3.27421,-0.5697c-0.88051,-0.15078 -1.76286,-0.30715 -2.64701,-0.46913c-0.49008,-0.09015 -0.97983,-0.18094 -1.46924,-0.27239c-1.856,-0.34558 -3.7128,-0.70299 -5.57036,-1.07222c-5.21265,-1.05199 -10.42602,-2.16117 -15.64009,-3.32758c-5.23351,-1.17146 -10.40831,-2.50915 -15.52442,-4.0131c-5.08949,-1.48666 -10.09436,-3.1795 -15.01462,-5.07851c-4.57339,-1.75716 -9.11689,-3.58952 -13.63051,-5.49708c-3.46359,-1.4794 -6.90204,-3.01462 -10.31535,-4.60565c-3.04285,-1.06553 -6.06002,-2.20625 -9.05145,-3.42216c-1.59777,-0.63783 -3.18889,-1.2996 -4.77342,-1.98534c-1.67821,-0.72585 -3.04445,-1.3552 -4.09871,-1.88803c-1.45654,-0.74092 -2.72775,-1.51672 -3.8136,-2.32737c-0.04985,-0.0361 -0.09699,-0.07427 -0.1414,-0.11447c-0.33099,-0.26189 -0.58031,-0.55992 -0.74794,-0.89406c-0.22228,-0.4621 -0.20312,-0.83563 0.05748,-1.12058c0.36138,-0.3936 0.98574,-0.38194 1.87305,0.03497l17.66216,7.94324c1.28459,0.56825 2.33777,1.08524 3.15954,1.55098c2.95779,1.35693 5.91229,2.69918 8.86346,4.02669c4.70429,2.09185 9.45973,4.04661 14.2663,5.86427c3.99624,1.50368 8.03603,2.89942 12.11941,4.1872c3.78976,1.18048 7.63027,2.26525 11.52155,3.25431c4.85778,1.26061 9.7469,2.42048 14.66737,3.47958c4.31306,0.92222 8.64987,1.77285 13.01044,2.55186c4.57936,0.81504 9.13929,1.62505 13.67979,2.43001c3.76037,0.65436 7.54196,1.24684 11.34483,1.77742c4.53478,0.62719 9.08763,1.00499 13.65851,1.13343c5.13802,0.14081 10.2613,0.15852 15.36986,0.05319c4.20029,-0.08181 8.40234,-0.09057 12.60618,-0.02628c0.64989,0.01309 1.24182,0.24967 1.77574,0.70968c0.16615,0.47864 0.03401,0.82804 -0.39643,1.04817c-2.8468,1.45965 -5.72166,2.7876 -8.62455,3.98382c-5.43941,2.25938 -10.98132,4.27439 -16.62574,6.04504z" fill="#000000" stroke="none" stroke-width="1"/><path d="M311.65249,232.04809c-0.31183,0.84199 -0.8921,1.61951 -1.74081,2.33256c-0.62052,0.51302 -1.47492,1.04828 -2.56327,1.60582c-1.16895,0.58846 -2.07155,0.92977 -2.7078,1.0239c-0.59235,0.0848 -0.92019,0.12934 -0.98352,0.13364c-0.10004,0.02589 -0.51537,0.18774 -1.24594,0.48553c-0.37861,0.14026 -1.0908,0.28728 -2.13659,0.44106l-7.09947,0.8642c-1.27681,0.12494 -2.17574,0.1924 -2.69683,0.20235c-0.71323,-0.00882 -1.52111,-0.05253 -2.4236,-0.13119l-2.02524,-0.1678c-0.21649,-0.08356 -0.43241,-0.17069 -0.64769,-0.26141c-0.73111,-0.31567 -1.4511,-0.65804 -2.16,-1.02717c0.00925,-0.13086 0.05173,-0.25466 0.12748,-0.37135c0.42103,0.01593 0.97841,0.16576 1.67215,0.44949c0.77147,0.30389 1.33101,0.4854 1.67861,0.54449c0.14826,0.0281 0.49983,0.05194 1.05473,0.07149c0.38433,0.03752 0.95215,0.10709 1.70351,0.20874c0.42822,0.02817 1.08569,0.01212 1.97238,-0.04813c0.78452,-0.06603 1.36821,-0.1375 1.75112,-0.21443l3.96555,-1.19527c0.47361,-0.14671 0.82162,-0.26899 1.04403,-0.36681l1.22114,-0.56973c0.26128,-0.08774 0.59562,-0.17727 1.00299,-0.26858c0.57795,-0.10927 0.92307,-0.18044 1.03536,-0.21352c0.36133,-0.11364 0.88172,-0.32079 1.5612,-0.62148c1.37913,-0.6791 2.39083,-1.24096 3.03507,-1.6856c0.74718,-0.52162 1.28746,-1.04509 1.62079,-1.57041c0.13577,-0.21908 0.35072,-0.70771 0.64484,-1.46591c1.14817,0.49737 2.31651,0.93018 3.50506,1.29845c-0.0482,0.18399 -0.10329,0.35635 -0.16528,0.51707M309.16151,243.14553c-5.25965,-0.15163 -10.46125,-0.80667 -15.60479,-1.96515l0.06808,-0.26232c2.98398,0.04397 5.96181,-0.00249 8.9335,-0.13938c0.78354,-0.03311 1.5666,-0.07361 2.34919,-0.12146c5.39074,-0.35358 8.61605,-3.03198 9.6759,-8.0352l3.64566,0.27721c5.0486,0.88497 10.11133,1.41583 15.18815,1.5926c6.71705,0.24984 13.40436,-0.12503 20.06196,-1.12464c-4.10357,2.0668 -8.39527,3.79963 -12.87509,5.19844c-5.327,1.66635 -10.74385,2.89979 -16.25058,3.7003c-5.03387,0.73656 -10.09785,1.02977 -15.19196,0.87962M298.56766,233.73894c-2.21779,0.85235 -4.6531,1.48551 -7.30591,1.89946c-2.91106,0.45739 -6.32869,0.68009 -10.25287,0.66806c-0.43468,-0.25226 -0.86322,-0.51902 -1.28559,-0.80026c-0.36455,-0.24404 -0.72507,-0.49314 -1.08156,-0.74731c0.08935,0.0044 0.18543,0.01376 0.28823,0.02812c3.36024,0.47795 6.7501,0.50211 10.16956,0.0725c3.41443,-0.41018 6.69402,-1.25977 9.83874,-2.54877c1.39278,-0.57185 2.53259,-1.16788 3.41942,-1.78808c0.92106,-0.63395 1.64563,-1.3481 2.17368,-2.14245c0.3759,0.21409 0.74902,0.41461 1.11939,0.60158c-0.06643,0.12891 -0.13699,0.26096 -0.21169,0.39616c-0.64653,0.9729 -1.77345,1.89892 -3.38078,2.77805c-1.0957,0.5973 -2.25925,1.12496 -3.49062,1.58294M311.8724,228.68311l-2.34042,-0.4518c0.04453,-0.03937 0.08987,-0.07426 0.13605,-0.10469c0.30378,-0.21153 0.6345,-0.30718 0.99219,-0.28695c0.09895,-0.0017 0.19145,0.00156 0.27745,0.00979c0.25303,0.04999 0.4675,0.16268 0.64336,0.33805c0.12749,0.12362 0.22459,0.2888 0.29137,0.49559M323.36068,216.84065c0.09764,1.06233 -0.03467,2.11163 -0.39691,3.14795c-0.58695,1.66241 -1.81446,3.35561 -3.68251,5.07963c-0.32211,0.2941 -0.6385,0.55421 -0.94911,0.78032c-0.75811,0.56934 -1.47719,0.9427 -2.15725,1.1201c-0.28791,0.07047 -0.64741,0.11716 -1.07853,0.1401c-0.23392,0.02226 -0.59198,0.04341 -1.07419,0.06346c-1.07671,0.07317 -2.10092,0.26366 -3.0726,0.57147c0.27142,-0.40658 0.62742,-0.73936 1.06793,-0.99835c0.44053,-0.259 0.90693,-0.41796 1.39924,-0.47685c0.18792,-0.32455 0.54352,-0.61595 1.06682,-0.87421c0.75795,-0.36328 1.18838,-0.58342 1.29133,-0.66041c0.47508,-0.31224 0.96751,-0.9311 1.47729,-1.85653c0.80857,-1.3975 1.36768,-2.53307 1.67735,-3.40674c0.47675,-1.3177 0.62026,-2.53002 0.43051,-3.63698c-0.13946,-0.74134 -0.21457,-1.19117 -0.22533,-1.34952c-0.01243,-0.28819 0.01786,-0.54477 0.09086,-0.76972c1.09156,0.20286 2.18297,0.39276 3.27421,0.5697c0.47527,0.73771 0.76225,1.58992 0.86091,2.55663M378.23317,217.15873l-5.37365,2.66533c-3.64784,1.46954 -7.32879,2.8268 -11.04281,4.07177c-4.96426,1.66716 -9.99792,3.06227 -15.10095,4.1853c-5.27866,1.16042 -10.64971,1.89762 -16.11315,2.2116c-5.21009,0.29678 -10.3988,-0.02828 -15.56615,-0.97518l2.60645,-1.5324c0.74267,0.25495 1.49012,0.25189 2.24226,-0.0092c6.36927,-2.24621 8.39302,-6.54821 6.07124,-12.90599c5.158,0.903 10.32396,1.59544 15.49787,2.07741c5.20559,0.4798 10.4249,0.78688 15.65793,0.92123c5.23302,0.13436 10.43514,0.04809 15.60636,-0.25877l5.51457,-0.45108M289.87388,243.02451c-1.53692,-0.14234 -3.05799,-0.33487 -4.56321,-0.57753c-1.78393,-0.30285 -3.52087,-0.72248 -5.21083,-1.2589c0.19611,-0.24464 0.44229,-0.41408 0.73855,-0.5083c0.24905,-0.08055 0.54269,-0.11322 0.88096,-0.09803c0.2044,0.01157 0.51206,0.04474 0.92302,0.09952c0.66475,0.05827 1.31753,0.02028 1.95837,-0.11398c0.22349,0.11438 0.45017,0.21986 0.68005,0.31647c2.2532,0.93615 4.58276,1.64958 6.98867,2.14024c-0.19585,0.04324 -0.40781,0.06082 -0.63588,0.05276l-1.75968,-0.05222M277.83806,236.83689c0.0839,0.05747 0.16736,0.11542 0.25042,0.17387c-0.17999,0.25402 -0.30561,0.41845 -0.37689,0.49328c-0.4053,0.40295 -1.14449,0.57407 -2.21756,0.51337c-0.72935,-0.04332 -1.42027,-0.09817 -2.07275,-0.16457c-0.27992,-0.22362 -0.55407,-0.46586 -0.82246,-0.72674c0.1298,-0.0278 0.2651,-0.04972 0.40593,-0.06576c0.37282,-0.03806 0.88022,-0.01528 1.52219,0.06836c1.40772,0.20976 2.29734,-0.04157 2.66888,-0.75402c0.21236,0.15553 0.42645,0.30959 0.64223,0.46221M316.57856,213.2452c0.17388,0.38385 0.31845,0.8258 0.43368,1.32582c0.45293,2.17077 0.10877,4.31615 -1.03247,6.43616c-1.13619,2.10059 -2.74256,3.55547 -4.81914,4.36469c-0.45203,0.18343 -1.1394,0.41466 -2.06214,0.69369c-0.8083,0.27763 -1.45145,0.59812 -1.92942,0.96146c-0.23153,0.17466 -0.4439,0.37361 -0.63707,0.59685l-1.37423,-0.27884c0.18976,-0.32284 0.32546,-0.52614 0.40714,-0.60986c0.19148,-0.17845 0.46681,-0.34034 0.82598,-0.48562l3.2272,-1.52686c1.19558,-0.57117 2.01507,-1.01181 2.45849,-1.32192c1.59945,-1.08856 2.69773,-2.62347 3.29484,-4.60471c0.58991,-1.99348 0.5216,-3.88814 -0.2049,-5.68401c-0.0193,-0.0477 -0.03835,-0.09413 -0.05719,-0.13927c0.48942,0.09144 0.97916,0.18225 1.46924,0.2724z" fill="#5b5d5e" stroke="none" stroke-width="1"/><path d="M274.41694,234.70217c0.21076,1.56426 -0.11798,3.07358 -0.98623,4.52798c-0.87145,1.44327 -2.04835,2.43302 -3.53072,2.96923c-0.41264,0.15522 -1.14849,0.33752 -2.20756,0.54692l-2.85571,0.55343c-0.31285,0.04215 -0.56287,0.11432 -0.75005,0.21649c-0.08138,0.04959 -0.22956,0.18264 -0.44454,0.39916l-3.14006,-1.49518c0.68458,0.5367 1.33828,1.11241 1.96112,1.72713c0.15894,0.15835 0.31742,0.31121 0.47545,0.45863c-0.57724,0.52037 -1.29339,0.93773 -2.14846,1.25211c-0.82526,0.31043 -1.84533,0.5507 -3.0602,0.7208c-2.74259,0.38234 -5.50287,0.3906 -8.28083,0.02477c-2.78588,-0.35151 -5.45673,-1.0552 -8.01257,-2.1111c-0.07825,-0.0321 -0.1522,-0.05891 -0.22183,-0.08042c-0.9365,-1.11412 -1.8055,-2.28976 -2.607,-3.52692c-0.30139,-0.41859 -0.65829,-0.50818 -1.07069,-0.26876c-0.46475,0.26656 -0.55819,0.67273 -0.28029,1.21847c0.73511,1.23704 1.56522,2.42391 2.49033,3.5606c-0.43715,0.48731 -1.19012,0.50603 -2.25892,0.05616c-0.48984,-0.19567 -0.88575,-0.31614 -1.18771,-0.36139c-0.11441,-0.01579 -0.22564,-0.02581 -0.3337,-0.03007c-0.11636,-0.18757 -0.22729,-0.38425 -0.33283,-0.59008c0.18343,0.55727 0.39466,1.12227 0.6337,1.69498c-1.46309,-1.16183 -2.80194,-2.48474 -4.01654,-3.96873c-0.45272,-0.56751 -0.86649,-0.8333 -1.24131,-0.79733c-0.24298,0.03401 -0.43882,0.1688 -0.58751,0.40432c-0.15511,0.2133 -0.22515,0.4502 -0.21016,0.71069c0.01523,0.3447 0.19044,0.80573 0.52562,1.38311l3.99073,6.75691c-3.12838,-1.28789 -6.17289,-3.28613 -9.13355,-5.99473c-1.77722,-1.63303 -3.61432,-3.61865 -5.5113,-5.95688c-0.60497,-0.74556 -1.21554,-1.52633 -1.83171,-2.3423c-1.60141,-2.11949 -2.94838,-4.09611 -4.04091,-5.92987c-0.43667,-0.72516 -0.83256,-1.42946 -1.18768,-2.11289c-1.60177,-3.08879 -2.6147,-6.0767 -3.03873,-8.96374l-1.56487,-1.48036c-0.7409,-2.56686 -1.70183,-7.7727 -2.88278,-15.61748c-1.10578,-7.43615 -1.58043,-11.99987 -1.42394,-13.69122c0.02694,0.04071 0.05644,0.08034 0.08849,0.11892c0.69339,0.85918 1.54011,1.72827 2.54017,2.60727c0.72456,0.63351 1.67587,1.40619 2.85395,2.31808c1.11223,0.8613 2.23451,1.70502 3.36687,2.53116c2.11568,1.56392 4.26683,3.07369 6.45348,4.52929c2.37292,1.94522 4.77697,3.85148 7.21211,5.71874c3.1775,2.41729 6.3938,4.78126 9.64885,7.0919c3.50021,2.49268 7.10885,4.83969 10.82591,7.04106c3.7346,2.22037 7.54909,4.32139 11.4435,6.30304c3.88009,1.97375 7.77117,3.90217 11.67325,5.78531c1.39167,0.66661 2.78512,1.32373 4.18034,1.97135c0.00574,0.03943 0.01141,0.07993 0.01701,0.12148M270.01638,249.98429c-1.84705,3.73517 -4.93382,5.19794 -9.26035,4.38831c-0.62739,-0.12028 -1.25366,-0.24647 -1.87883,-0.37858c-2.37332,-0.49212 -4.73321,-1.05687 -7.0797,-1.69422l-0.10671,0.19331c-1.92973,-0.97913 -3.75257,-2.10214 -5.46854,-3.36905l1.5647,0.54147c0.6965,0.24435 1.32535,0.44204 1.88655,0.59303c0.41332,0.09738 1.13651,0.22569 2.16957,0.38494l5.7784,0.75169c0.85653,0.08983 1.44838,0.11761 1.77556,0.08337c0.63682,-0.0875 0.99733,-0.13139 1.08153,-0.13161c0.05086,0.0094 0.31864,0.04045 0.80332,0.09315c0.52123,0.0542 1.30261,-0.03292 2.34416,-0.26132c0.97167,-0.22028 1.7542,-0.47022 2.3476,-0.74984c0.81393,-0.39143 1.42898,-0.88795 1.84518,-1.4896c0.08141,-0.11434 0.1597,-0.23927 0.2349,-0.37476c1.5122,0.92585 3.10698,1.71745 4.78433,2.37481l-2.82167,-0.9551M264.74421,247.85863c-0.36922,0.34733 -0.90139,0.6514 -1.59652,0.91223c-0.59833,0.22085 -1.51036,0.46003 -2.73612,0.71753c-0.59707,0.10011 -1.04968,0.15853 -1.35783,0.17525c-0.09532,0.00344 -0.3821,-0.01008 -0.86037,-0.04057c-0.34,-0.0102 -0.62198,-0.00705 -0.84594,0.00944l-1.07895,0.20308c-0.19532,0.0323 -0.49471,0.05853 -0.89818,0.07868l-3.37155,0.14257c-0.31778,-0.01662 -0.79295,-0.07809 -1.42553,-0.18439c-0.71208,-0.13152 -1.23427,-0.25164 -1.5666,-0.36036c-0.57255,-0.23199 -1.00671,-0.4016 -1.30249,-0.50882c-0.43405,-0.12751 -0.70675,-0.21732 -0.81809,-0.26945c-0.26245,-0.11686 -0.66746,-0.37312 -1.21503,-0.7688c-0.49029,-0.36407 -0.89999,-0.5949 -1.22911,-0.69251c-0.08335,0.07682 -0.14188,0.16594 -0.17562,0.26736c-0.51675,-0.45165 -1.01528,-0.92769 -1.49562,-1.42813c3.09507,0.80203 5.8377,1.31648 8.22789,1.54337c2.17756,0.20903 4.22771,0.2011 6.15044,-0.02378c1.06446,-0.11281 2.08946,-0.29431 3.07497,-0.54449c1.44626,-0.3693 2.52281,-0.87265 3.22963,-1.51002c0.08627,-0.09163 0.16864,-0.18161 0.24711,-0.26995c0.59848,0.54222 1.21466,1.05052 1.84856,1.52489c-0.3853,0.53907 -0.65365,0.88136 -0.80505,1.02686M279.96867,237.10828c0.86746,0.39226 1.73751,0.77913 2.61014,1.16061c0.54863,5.48734 -1.91762,8.47434 -7.39878,8.961c-0.64644,0.05417 -1.23703,-0.09435 -1.77176,-0.44559l-2.36685,0.68317l-2.36939,-1.13981c-0.01094,-0.1767 -0.05424,-0.32672 -0.1299,-0.45003c-0.10339,-0.17395 -0.24991,-0.30621 -0.43955,-0.39677c-0.06622,-0.02386 -0.13857,-0.04511 -0.21702,-0.06376c-0.27826,-0.08822 -0.55864,-0.07951 -0.84113,0.02611c-0.04259,0.01469 -0.08544,0.03308 -0.12853,0.05515l-2.24533,-1.08533c0.19758,-0.1372 0.40539,-0.25136 0.62341,-0.34245c0.45066,-0.19026 1.02304,-0.31336 1.71713,-0.36924c0.7847,-0.03389 1.37398,-0.07759 1.76782,-0.13108c1.80254,-0.21935 3.36434,-1.04332 4.68543,-2.47192c1.32898,-1.44292 2.03393,-3.06685 2.11483,-4.87178c0.01004,-0.41797 -0.01481,-0.796 -0.07456,-1.13411c0.66517,0.30644 1.33006,0.60807 1.99463,0.9049c-0.10305,0.16282 -0.17877,0.35923 -0.22718,0.58921c-0.02349,0.12716 -0.05505,0.49741 -0.0947,1.11074c-0.0738,0.91209 -0.43191,1.84004 -1.07435,2.78385c-0.42089,0.62707 -1.09156,1.41051 -2.01203,2.35031c-0.58928,0.62753 -1.10296,1.01655 -1.54102,1.16706c-0.09681,0.03997 -0.48102,0.1268 -1.15267,0.26049c-0.46521,0.09816 -0.80476,0.25637 -1.01864,0.47459c-0.40049,-0.05294 -0.80074,-0.02167 -1.20078,0.09379c-0.40003,0.11547 -0.74823,0.30626 -1.04458,0.57236c0.82915,-0.04673 1.67606,0.00976 2.54073,0.16946c0.38468,0.08157 0.67159,0.13719 0.86072,0.16686c0.34493,0.06897 0.63813,0.10471 0.87962,0.10724c0.57262,-0.00268 1.21562,-0.15217 1.92902,-0.44845c0.29086,-0.11575 0.59312,-0.25715 0.90677,-0.42424c1.8227,-0.98355 3.13358,-2.07215 3.93263,-3.26581c0.49523,-0.74483 0.81159,-1.54638 0.94907,-2.40463c0.11736,-0.78299 0.06295,-1.51363 -0.1632,-2.19192M242.46803,249.62988c-0.26393,-0.0803 -0.50233,-0.11382 -0.71517,-0.10054c-0.25288,0.01454 -0.48142,0.09857 -0.68563,0.25206c-0.37462,-0.23029 -0.74542,-0.47236 -1.11243,-0.72619c0.12207,-0.05179 0.20445,-0.14178 0.2471,-0.26995c-0.85056,-0.46175 -1.67009,-0.96553 -2.45857,-1.51132c-0.32721,-0.32937 -0.63875,-0.67882 -0.93459,-1.04838c-0.11505,-0.1363 -0.22824,-0.27818 -0.33954,-0.42563c0.50162,0.18418 1.03591,0.36702 1.60286,0.54852c0.83476,0.26464 1.45279,0.27886 1.85409,0.04265c0.07137,-0.04467 0.20374,-0.14909 0.39711,-0.31324c1.33448,1.49722 2.8085,2.8714 4.42207,4.12253c-0.53295,-0.02345 -1.05589,-0.12529 -1.56883,-0.30555c-0.31331,-0.12624 -0.54946,-0.21457 -0.70847,-0.26497z" fill="#ffffff" stroke="none" stroke-width="1"/><path d="M304.32013,254.6003c-3.67243,0.20534 -7.35345,0.1724 -11.04305,-0.09881c-3.34639,-0.2499 -6.65361,-0.69768 -9.92165,-1.34338c2.69685,0.91889 5.4298,1.67089 8.19883,2.25597c3.1505,0.65553 6.31325,1.14502 9.48828,1.46847c0.88196,0.09452 1.7071,0.32583 2.47542,0.69391c0.16908,0.25214 0.15865,0.50795 -0.03129,0.76741c-0.35444,0.52362 -0.81427,0.84896 -1.3795,0.97599c-3.57553,0.79129 -7.17952,1.33802 -10.81197,1.64016c-3.44183,0.29527 -6.90239,0.4214 -10.38168,0.37839c-3.57139,-0.02846 -7.12135,-0.35804 -10.64989,-0.98873c-5.43588,-0.98298 -10.79416,-2.34347 -16.07479,-4.08148c-3.66989,-1.20382 -7.26319,-2.5802 -10.77992,-4.12916c-2.33817,-1.01551 -4.45245,-2.39749 -6.34283,-4.14594c-1.06644,-0.64665 -2.04949,-1.40416 -2.94914,-2.27255l3.27146,5.14079c0.5951,0.9357 0.66841,1.60671 0.21992,2.01303c-0.24401,0.23896 -0.60206,0.31221 -1.07414,0.21976c-0.54987,-0.07 -1.29413,-0.35474 -2.2328,-0.85422c-2.30049,-1.21387 -4.01646,-2.17513 -5.14791,-2.88379c-1.84123,-1.16586 -3.36962,-2.37388 -4.58515,-3.62404c-0.55914,-0.56088 -1.43249,-1.58479 -2.62007,-3.07173l-2.73072,-3.45511c-1.47935,-1.8722 -2.56904,-3.29111 -3.26907,-4.25671c-1.17199,-1.5998 -2.15623,-3.09126 -2.95271,-4.47442c-1.28808,-2.26898 -2.20672,-4.47156 -2.75594,-6.60774c-0.31496,-1.18306 -0.51272,-2.34781 -0.59329,-3.49423c-0.03321,-0.53211 0.07946,-0.8716 0.33802,-1.01846c0.42403,2.88704 1.43696,5.87495 3.03873,8.96374c0.35512,0.68343 0.75103,1.38773 1.18768,2.11289c1.09254,1.83377 2.43951,3.81038 4.04091,5.92987c0.61617,0.81597 1.22673,1.59674 1.83171,2.3423c1.89698,2.33823 3.73407,4.32384 5.5113,5.95688c2.96065,2.70862 6.00516,4.70685 9.13355,5.99473l-3.99073,-6.75691c-0.33519,-0.57736 -0.51038,-1.0384 -0.52562,-1.38311c-0.01501,-0.2605 0.05505,-0.4974 0.21016,-0.71069c0.1487,-0.23552 0.34454,-0.3703 0.58751,-0.40432c0.37483,-0.03597 0.7886,0.22982 1.24131,0.79733c1.21461,1.484 2.55345,2.80691 4.01654,3.96873c-0.23904,-0.57272 -0.45027,-1.13772 -0.6337,-1.69498c0.10554,0.20583 0.21648,0.40252 0.33283,0.59008c0.15916,0.26013 0.32664,0.50671 0.50242,0.73974c0.1113,0.14745 0.22448,0.28934 0.33954,0.42564c0.29584,0.36955 0.60737,0.71901 0.93459,1.04838c0.78848,0.54579 1.60802,1.04957 2.45857,1.51132c-0.04266,0.12817 -0.12502,0.21816 -0.2471,0.26995c0.36702,0.25383 0.73783,0.4959 1.11244,0.72619c1.22559,0.76472 2.51188,1.44674 3.85884,2.04608c1.13911,0.49555 2.30087,0.95471 3.48527,1.37747c0.89024,0.313 1.79339,0.60605 2.70946,0.87915c-0.27586,-0.12539 -0.54868,-0.25731 -0.81844,-0.39575c-1.79998,-0.87321 -3.4947,-1.90681 -5.08416,-3.10081c-0.16195,-0.12268 -0.31957,-0.25173 -0.47287,-0.38715c-1.61357,-1.25114 -3.08759,-2.62532 -4.42207,-4.12252c-0.05376,-0.06292 -0.10794,-0.12552 -0.16255,-0.18782c-0.13951,-0.16404 -0.27738,-0.32889 -0.41358,-0.49454c-0.9251,-1.13669 -1.7552,-2.32356 -2.49033,-3.5606c-0.2779,-0.54575 -0.18447,-0.9519 0.28028,-1.21846c0.4124,-0.23941 0.7693,-0.14983 1.07069,0.26877c0.8015,1.23716 1.6705,2.4128 2.60699,3.52692c0.23006,0.27263 0.46433,0.54207 0.70279,0.80832c0.2766,0.3073 0.56099,0.6044 0.85314,0.89131c0.48034,0.50044 0.97887,0.97648 1.49562,1.42813c0.485,0.43453 0.98417,0.85021 1.49751,1.24702c0.15161,0.11508 0.30443,0.22746 0.45845,0.33715c1.71598,1.26691 3.53883,2.38992 5.46854,3.36906c3.82602,1.95324 7.79952,3.52083 11.92054,4.70275c3.99065,1.14734 8.04704,1.93865 12.16922,2.37391c4.50833,0.48029 9.03317,0.60071 13.5745,0.36124c3.8186,-0.19938 7.55616,-0.70039 11.21268,-1.50302c-5.45697,-0.55557 -10.81123,-1.61025 -16.06278,-3.16406c-3.97164,-1.16486 -7.86061,-2.60638 -11.66692,-4.32455c-1.67734,-0.65737 -3.27211,-1.44897 -4.78433,-2.37481c-0.86379,-0.53073 -1.69861,-1.10834 -2.50444,-1.73281c-0.6339,-0.47436 -1.25008,-0.98264 -1.84856,-1.52489c-0.25459,-0.22238 -0.50861,-0.45602 -0.76208,-0.70092c-0.15804,-0.14741 -0.31652,-0.3003 -0.47545,-0.45864c-0.62283,-0.61472 -1.27653,-1.19043 -1.96111,-1.72713l3.14006,1.49518l1.02842,0.49764l2.24533,1.08534l1.75613,0.8293l2.36939,1.13981c3.88753,1.79103 7.91753,3.09554 12.08998,3.91354c4.37589,0.85558 8.76435,1.35843 13.16535,1.50856c4.25483,0.14418 8.50982,0.05959 12.76501,-0.25377c3.18305,-0.23261 6.36267,-0.56054 9.53885,-0.98376l4.77992,-1.01856l-4.44395,-0.75769c-4.14381,-0.80219 -8.26746,-1.78474 -12.37094,-2.94766c-4.10348,-1.16293 -8.16125,-2.45942 -12.17332,-3.88948c-3.98663,-1.42537 -7.92446,-3.01529 -11.81348,-4.76977c-0.87263,-0.38146 -1.74268,-0.76833 -2.61014,-1.16061c-0.82563,-0.36005 -1.64875,-0.73037 -2.4694,-1.11095c-0.66457,-0.29685 -1.32945,-0.59847 -1.99464,-0.9049c-0.36863,-0.17014 -0.73687,-0.34072 -1.10471,-0.51174c-1.39522,-0.64762 -2.78867,-1.30474 -4.18034,-1.97135c-3.90208,-1.88314 -7.79316,-3.81157 -11.67325,-5.78531c-3.8944,-1.98165 -7.7089,-4.08266 -11.4435,-6.30304c-3.71707,-2.20137 -7.32571,-4.54839 -10.82591,-7.04106c-3.25506,-2.31065 -6.47135,-4.67461 -9.64885,-7.0919c-2.43516,-1.86726 -4.83918,-3.77351 -7.21211,-5.71873c-2.18664,-1.45561 -4.33781,-2.96538 -6.45349,-4.5293c-1.13236,-0.82615 -2.25464,-1.66986 -3.36687,-2.53116c-1.17808,-0.91188 -2.12939,-1.68457 -2.85395,-2.31808c-1.00006,-0.879 -1.84679,-1.7481 -2.54017,-2.60728c-0.03206,-0.03857 -0.06156,-0.07821 -0.08849,-0.11891c-0.20837,-0.27357 -0.34497,-0.55916 -0.40981,-0.85677c-0.08212,-0.40965 0.00843,-0.70062 0.27168,-0.8729c0.36475,-0.2377 0.85522,-0.1024 1.4714,0.40589l12.33715,9.83699c0.8992,0.70798 1.62611,1.32877 2.1807,1.86237c2.06064,1.66844 4.12165,3.32462 6.18301,4.9685c3.29079,2.60127 6.64964,5.10465 10.07655,7.51015c2.85069,1.994 5.75756,3.9116 8.72063,5.75278c2.75298,1.69719 5.56535,3.32908 8.43712,4.89568c3.57983,1.97614 7.20474,3.87909 10.87475,5.70883c3.2182,1.59902 6.4696,3.14633 9.75423,4.6419c3.45005,1.56821 6.88578,3.12851 10.30719,4.68091c2.83604,1.27597 5.70133,2.50737 8.59592,3.69422c3.4528,1.41093 6.97023,2.62864 10.55225,3.65317c4.02719,1.14883 8.0676,2.19753 12.12125,3.14613c3.33196,0.78372 6.65057,1.62548 9.95582,2.52525c0.51034,0.14159 0.92979,0.44788 1.25832,0.91881c0.03448,0.41137 -0.14039,0.66047 -0.52461,0.74729c-2.54188,0.5772 -5.07931,1.04479 -7.61225,1.40273c-4.74984,0.68485 -9.53123,1.15611 -14.34417,1.41379z" fill="#000000" stroke="none" stroke-width="1"/><path d="M267.81883,248.93935c-0.41619,0.60164 -1.03125,1.09817 -1.84518,1.4896c-0.5934,0.27962 -1.37593,0.52957 -2.3476,0.74984c-1.04154,0.22841 -1.82293,0.31552 -2.34416,0.26132c-0.48468,-0.0527 -0.75246,-0.08375 -0.80332,-0.09315c-0.0842,0.00023 -0.44471,0.0441 -1.08153,0.13161c-0.32718,0.03424 -0.91902,0.00646 -1.77556,-0.08337l-5.7784,-0.75169c-1.03306,-0.15925 -1.75625,-0.28756 -2.16957,-0.38494c-0.5612,-0.151 -1.19006,-0.34867 -1.88655,-0.59303l-1.5647,-0.54147c-0.15401,-0.10968 -0.30683,-0.22206 -0.45845,-0.33715c-0.51333,-0.39682 -1.01251,-0.81248 -1.49751,-1.24702c0.03373,-0.10142 0.09226,-0.19056 0.17562,-0.26737c0.32912,0.09761 0.73882,0.32844 1.22911,0.69251c0.54757,0.39568 0.95258,0.65195 1.21502,0.7688c0.11136,0.05212 0.38405,0.14195 0.81809,0.26945c0.29579,0.10723 0.72994,0.27684 1.30249,0.50881c0.33232,0.10872 0.85453,0.22883 1.5666,0.36036c0.63258,0.10632 1.10775,0.16779 1.42553,0.1844l3.37155,-0.14257c0.40347,-0.02015 0.70286,-0.04639 0.89818,-0.07868l1.07895,-0.20309c0.22396,-0.01649 0.50594,-0.01963 0.84594,-0.00943c0.47827,0.03048 0.76506,0.04401 0.86037,0.04057c0.30816,-0.01672 0.76076,-0.07514 1.35783,-0.17525c1.22575,-0.2575 2.1378,-0.49667 2.73612,-0.71753c0.69512,-0.26083 1.22731,-0.56491 1.59652,-0.91224c0.15141,-0.14551 0.41976,-0.48779 0.80505,-1.02686c0.80584,0.62448 1.64065,1.20208 2.50444,1.73281c-0.07521,0.13549 -0.15351,0.26042 -0.2349,0.37476M263.61133,257.19588c-4.12101,-1.18194 -8.09452,-2.74952 -11.92054,-4.70276l0.10671,-0.19331c2.34648,0.63736 4.70638,1.20209 7.0797,1.69422c0.62516,0.13211 1.25143,0.2583 1.87883,0.37858c4.32652,0.80964 7.41331,-0.65313 9.26035,-4.38831l2.82167,0.9551c3.80631,1.71817 7.69529,3.15969 11.66692,4.32455c5.25155,1.5538 10.60581,2.6085 16.06278,3.16406c-3.65651,0.80263 -7.39408,1.30365 -11.21267,1.50302c-4.54134,0.23946 -9.06617,0.11904 -13.5745,-0.36124c-4.12218,-0.43526 -8.17858,-1.22656 -12.16922,-2.3739M257.149,247.63134c-1.92273,0.22488 -3.97288,0.2328 -6.15044,0.02378c-2.39019,-0.22689 -5.13281,-0.74134 -8.22788,-1.54337c-0.29216,-0.28691 -0.57655,-0.58402 -0.85314,-0.89132c-0.23847,-0.26625 -0.47273,-0.53569 -0.70279,-0.80832c0.06964,0.02152 0.14358,0.04832 0.22183,0.08041c2.55583,1.05591 5.22669,1.7596 8.01257,2.1111c2.77798,0.36581 5.53825,0.35756 8.28083,-0.02477c1.21486,-0.17009 2.23493,-0.41036 3.0602,-0.7208c0.85506,-0.31438 1.57122,-0.73175 2.14846,-1.25211c0.25347,0.2449 0.50749,0.47854 0.76208,0.70092c-0.07847,0.08834 -0.16084,0.17832 -0.24711,0.26995c-0.70682,0.63737 -1.78336,1.14071 -3.22963,1.51002c-0.98551,0.25018 -2.01051,0.43168 -3.07497,0.54449M268.67201,246.32766l-1.75613,-0.8293c0.0431,-0.02208 0.08594,-0.04046 0.12853,-0.05515c0.28251,-0.10561 0.56288,-0.11432 0.84113,-0.02611c0.07845,0.01864 0.1508,0.03989 0.21702,0.06376c0.18963,0.09056 0.33615,0.22283 0.43955,0.39677c0.07566,0.12333 0.11895,0.27332 0.1299,0.45003M280.13187,239.30019c-0.13748,0.85825 -0.45384,1.65979 -0.94907,2.40463c-0.79905,1.19366 -2.10993,2.28226 -3.93263,3.26581c-0.31365,0.16709 -0.61592,0.3085 -0.90677,0.42425c-0.71339,0.29629 -1.35639,0.44577 -1.92902,0.44845c-0.24149,-0.00252 -0.53469,-0.03827 -0.87962,-0.10724c-0.18914,-0.02967 -0.47604,-0.08529 -0.86072,-0.16685c-0.86466,-0.1597 -1.71158,-0.21619 -2.54073,-0.16947c0.29636,-0.26611 0.64456,-0.45689 1.04459,-0.57236c0.40003,-0.11547 0.80029,-0.14674 1.20078,-0.0938c0.21388,-0.21823 0.55342,-0.37642 1.01864,-0.47459c0.67165,-0.13367 1.05586,-0.2205 1.15267,-0.26048c0.43806,-0.15051 0.95174,-0.53954 1.54103,-1.16707c0.92047,-0.9398 1.59115,-1.72323 2.01203,-2.35031c0.64245,-0.94382 1.00056,-1.87176 1.07435,-2.78385c0.03965,-0.61333 0.07121,-0.98358 0.0947,-1.11074c0.04839,-0.22999 0.12412,-0.42639 0.22718,-0.58921c0.82064,0.38058 1.64378,0.7509 2.4694,1.11095c0.22616,0.67829 0.28056,1.40893 0.1632,2.19191M323.38049,250.63348l-4.77992,1.01856c-3.17617,0.42323 -6.3558,0.75115 -9.53885,0.98376c-4.25517,0.31336 -8.51019,0.39795 -12.76501,0.25377c-4.401,-0.15014 -8.78945,-0.65299 -13.16536,-1.50857c-4.17245,-0.81799 -8.20245,-2.1225 -12.08998,-3.91354l2.36685,-0.68317c0.53473,0.35123 1.12534,0.49977 1.77176,0.44559c5.48115,-0.48665 7.94741,-3.47366 7.39878,-8.961c3.88903,1.75449 7.82685,3.3444 11.81348,4.76977c4.01207,1.43006 8.06983,2.72656 12.17332,3.88948c4.10348,1.16293 8.22713,2.14547 12.37094,2.94766l4.44395,0.75769M248.41135,253.20496c-1.1844,-0.42276 -2.34616,-0.88192 -3.48527,-1.37747c-1.34696,-0.59934 -2.63323,-1.28137 -3.85884,-2.04609c0.20421,-0.1535 0.43275,-0.23753 0.68563,-0.25206c0.21285,-0.01328 0.45123,0.02023 0.71517,0.10054c0.159,0.05041 0.39516,0.13873 0.70847,0.26497c0.51294,0.18025 1.03588,0.2821 1.56883,0.30555c0.15331,0.13542 0.31093,0.26447 0.47287,0.38715c1.58946,1.194 3.28418,2.22762 5.08416,3.10082c-0.16333,-0.00543 -0.33418,-0.03435 -0.51258,-0.08678l-1.37844,-0.39661M240.1607,245.89005c0.05461,0.0623 0.10879,0.1249 0.16255,0.18782c-0.19338,0.16416 -0.32574,0.26857 -0.39711,0.31324c-0.40129,0.23621 -1.01933,0.22199 -1.85409,-0.04265c-0.56695,-0.1815 -1.10124,-0.36433 -1.60286,-0.54852c-0.17579,-0.23304 -0.34326,-0.47962 -0.50243,-0.73975c0.10807,0.00427 0.2193,0.01429 0.3337,0.03007c0.30197,0.04525 0.69787,0.16572 1.18771,0.36139c1.0688,0.44988 1.82177,0.43116 2.25893,-0.05616c0.13621,0.16565 0.27408,0.3305 0.41359,0.49455M275.50464,235.09243c0.05973,0.3381 0.08459,0.71614 0.07456,1.1341c-0.0809,1.80494 -0.78585,3.42887 -2.11483,4.87178c-1.32108,1.4286 -2.88288,2.25257 -4.68543,2.47192c-0.39385,0.05349 -0.98312,0.09719 -1.76782,0.13108c-0.69409,0.0559 -1.26647,0.17898 -1.71713,0.36924c-0.21803,0.0911 -0.42584,0.20525 -0.62341,0.34245l-1.02842,-0.49765c0.21498,-0.21651 0.36316,-0.34958 0.44454,-0.39916c0.18718,-0.10219 0.43721,-0.17435 0.75005,-0.21649l2.85571,-0.55343c1.05907,-0.20938 1.79492,-0.39169 2.20756,-0.54692c1.48235,-0.53621 2.65926,-1.52595 3.53072,-2.96923c0.86825,-1.45439 1.19698,-2.96371 0.98623,-4.52798c-0.00561,-0.04155 -0.01126,-0.08204 -0.01701,-0.12148c0.36785,0.17102 0.73608,0.3416 1.10471,0.51174z" fill="#5b5d5e" stroke="none" stroke-width="1"/></g></g></svg>